<svg xmlns="http://www.w3.org/2000/svg" width="32.432" height="41.691" viewBox="0 0 32.432 41.691">
  <g id="グループ_9895" data-name="グループ 9895" transform="translate(-1305.64 -693.501)">
    <g id="グループ_190" data-name="グループ 190" transform="translate(10 10)">
      <g id="グループ_189" data-name="グループ 189" transform="translate(-3418.004 1188.45) rotate(-90)">
        <g id="グループ_29" data-name="グループ 29" transform="translate(482.45 4719.004)">
          <path id="パス_22" data-name="パス 22" d="M417.239,4706h21" transform="translate(-417.239 -4695)" fill="none" stroke="#000" stroke-width="2"/>
          <path id="パス_23" data-name="パス 23" d="M0,12.284,11,0,22,12.284" transform="translate(21 0) rotate(90)" fill="none" stroke="#000" stroke-width="2"/>
        </g>
      </g>
      <path id="パス_3608" data-name="パス 3608" d="M3.552-9.632q-1.9,0-2.736,2.48Q.8-7.1.72-7.112T.64-7.168Q.7-7.808.784-8.824t.08-1.528q0-.08.088-.08t.088.08q0,.352.912.352,1.376.048,3.216.048.944,0,2-.032L8.256-10a3.541,3.541,0,0,0,.888-.08.49.49,0,0,0,.36-.32q.016-.064.1-.064T9.7-10.4q-.048.48-.1,1.536t-.056,1.7q0,.048-.08.048t-.1-.048a3.334,3.334,0,0,0-.9-1.848,2.272,2.272,0,0,0-1.616-.616.746.746,0,0,0-.616.2,1.338,1.338,0,0,0-.152.76V-1.3a1.967,1.967,0,0,0,.1.72.538.538,0,0,0,.368.3,3.352,3.352,0,0,0,.864.08q.048,0,.048.1T7.408,0Q6.832,0,6.5-.016L5.168-.032l-1.3.016Q3.536,0,2.944,0,2.9,0,2.9-.1t.048-.1A3.366,3.366,0,0,0,3.8-.272a.562.562,0,0,0,.384-.312,1.836,1.836,0,0,0,.1-.712V-8.7a1.314,1.314,0,0,0-.144-.736A.714.714,0,0,0,3.552-9.632ZM17.136.192a5.046,5.046,0,0,1-2.648-.7A4.767,4.767,0,0,1,12.7-2.392a5.464,5.464,0,0,1-.632-2.6A4.763,4.763,0,0,1,12.9-7.816a5.214,5.214,0,0,1,2.136-1.768,6.383,6.383,0,0,1,2.664-.592,4.978,4.978,0,0,1,2.672.712,4.826,4.826,0,0,1,1.768,1.88,5.241,5.241,0,0,1,.616,2.48,4.9,4.9,0,0,1-.768,2.672,5.518,5.518,0,0,1-2.056,1.92A5.728,5.728,0,0,1,17.136.192Zm.528-.4a2.659,2.659,0,0,0,1.608-.52,3.371,3.371,0,0,0,1.112-1.52,6.434,6.434,0,0,0,.4-2.392,7.263,7.263,0,0,0-.448-2.632,4.1,4.1,0,0,0-1.3-1.816,3.149,3.149,0,0,0-1.984-.656,2.588,2.588,0,0,0-2.24,1.1,5.2,5.2,0,0,0-.784,3.064A7.671,7.671,0,0,0,14.5-2.808,4.567,4.567,0,0,0,15.8-.9,2.831,2.831,0,0,0,17.664-.208ZM28.272-1.36a1.821,1.821,0,0,0,.112.744.651.651,0,0,0,.424.328,3.728,3.728,0,0,0,1,.1q.048,0,.048.1t-.048.1q-.656,0-1.024-.016L27.392-.032l-1.168.016Q25.9,0,25.36,0q-.048,0-.048-.1t.048-.1a2.489,2.489,0,0,0,.744-.08.48.48,0,0,0,.312-.312A2.343,2.343,0,0,0,26.5-1.3V-8.7a2.261,2.261,0,0,0-.08-.7.5.5,0,0,0-.32-.312,2.285,2.285,0,0,0-.736-.088q-.048,0-.048-.1t.048-.1l.848.016q.736.032,1.168.032.384,0,.912-.048.208-.016.528-.032t.736-.016a4.33,4.33,0,0,1,2.576.68,2.418,2.418,0,0,1,.944,2.1,2.735,2.735,0,0,1-.512,1.68,3.214,3.214,0,0,1-1.32,1.04,4.108,4.108,0,0,1-1.656.352,3.126,3.126,0,0,1-.752-.08q-.032,0-.032-.08a.213.213,0,0,1,.024-.1q.024-.048.056-.032a2.115,2.115,0,0,0,.544.064A1.455,1.455,0,0,0,30.648-5.1a3.34,3.34,0,0,0,.488-1.952A3.114,3.114,0,0,0,30.6-9.008,1.858,1.858,0,0,0,29.04-9.7a.732.732,0,0,0-.608.208,1.44,1.44,0,0,0-.16.816Z" transform="translate(1295 725)"/>
    </g>
  </g>
</svg>
