<svg xmlns="http://www.w3.org/2000/svg" width="64" height="38" viewBox="0 0 64 38">
  <g id="グループ_884" data-name="グループ 884" transform="translate(-1042.065 -1501)">
    <g id="グループ_571" data-name="グループ 571" transform="translate(1042 1501)">
      <rect id="長方形_13373" data-name="長方形 13373" width="64" height="38" transform="translate(0.065)" fill="#2f2013"/>
      <path id="パス_2931" data-name="パス 2931" d="M8.676-5.922l-2.25,5.9q-.018.072-.189.072T6.03-.018L1.476-9.756a5.017,5.017,0,0,0-.423-.792,1.1,1.1,0,0,0-.414-.378,1.358,1.358,0,0,0-.585-.108Q0-11.034,0-11.142t.054-.108a3.417,3.417,0,0,1,.387.018q.153.018.378.027t.6.009q.72,0,1.161-.009t.747-.027q.306-.018.54-.018.054,0,.054.108t-.054.108q-.72,0-.855.279t.279,1.179L6.912-1.89,6.192-.774,8.352-6.39Zm7.938-5.328q.036,0,.036.108t-.036.108a1.735,1.735,0,0,0-1.17.477,3.7,3.7,0,0,0-.918,1.413L11.034-.018q-.018.072-.189.072t-.207-.072L6.084-9.756a3.892,3.892,0,0,0-.576-.954.887.887,0,0,0-.684-.324q-.054,0-.054-.108t.054-.108a3.036,3.036,0,0,1,.351.018q.153.018.342.027t.531.009q.864,0,1.269-.027t.693-.027q.054,0,.054.108t-.054.108q-.5,0-.522.261a3.574,3.574,0,0,0,.414,1.2L11.538-1.89l-.72,1.116L14-9.09a1.835,1.835,0,0,0,.072-1.413,1.02,1.02,0,0,0-1.026-.531q-.054,0-.054-.108t.054-.108q.468,0,.891.027t1.071.027q.5,0,.828-.027T16.614-11.25ZM8.46-6.39,9.54-9.216A3.392,3.392,0,0,0,9.873-10.6q-.045-.432-.549-.432-.054,0-.054-.108t.054-.108a1.337,1.337,0,0,1,.261.018,1.739,1.739,0,0,0,.261.027q.18.009.648.009t.756-.027q.288-.027.7-.027.036,0,.036.108t-.036.108a1.539,1.539,0,0,0-1.071.441,3.774,3.774,0,0,0-.855,1.449L8.784-5.922ZM20.862.234a3.478,3.478,0,0,1-1.926-.522,3.579,3.579,0,0,1-1.26-1.4,4.046,4.046,0,0,1-.45-1.881,3.433,3.433,0,0,1,.36-1.62,3.325,3.325,0,0,1,.945-1.125,4.17,4.17,0,0,1,1.278-.657,4.552,4.552,0,0,1,1.359-.216,3.423,3.423,0,0,1,1.944.54,3.555,3.555,0,0,1,1.233,1.386,3.971,3.971,0,0,1,.423,1.8,3.478,3.478,0,0,1-.54,1.944A3.719,3.719,0,0,1,22.806-.225,4.147,4.147,0,0,1,20.862.234Zm.54-.36a1.365,1.365,0,0,0,1.224-.693,3.95,3.95,0,0,0,.432-2.061A5.745,5.745,0,0,0,22.707-5a3.322,3.322,0,0,0-.909-1.35,1.863,1.863,0,0,0-1.224-.468,1.382,1.382,0,0,0-1.224.657,3.624,3.624,0,0,0-.432,1.971,6.312,6.312,0,0,0,.324,2.106,3.494,3.494,0,0,0,.891,1.44A1.828,1.828,0,0,0,21.4-.126ZM29.61-4.878l-.126-.216a14.469,14.469,0,0,1,1.161-1.251,4.108,4.108,0,0,1,.8-.612,1.317,1.317,0,0,1,.612-.171,1.364,1.364,0,0,1,.765.261.772.772,0,0,1,.387.657.769.769,0,0,1-.2.54.719.719,0,0,1-.558.216.681.681,0,0,1-.5-.18l-.342-.342a.608.608,0,0,0-.45-.162.687.687,0,0,0-.306.081,2.2,2.2,0,0,0-.45.351Q30.114-5.436,29.61-4.878ZM27.558,0Q27.5,0,27.5-.108t.054-.108a1,1,0,0,0,.81-.252,1.718,1.718,0,0,0,.2-.99V-4.9a2.118,2.118,0,0,0-.126-.846.454.454,0,0,0-.45-.27,1.39,1.39,0,0,0-.4.072,3.947,3.947,0,0,0-.5.2q-.072.018-.117-.081t.009-.117L29.34-7.092a.413.413,0,0,1,.126-.036q.18,0,.369.414a3.01,3.01,0,0,1,.189,1.206v4.05a1.686,1.686,0,0,0,.144.765.758.758,0,0,0,.5.378,3.99,3.99,0,0,0,1.008.1q.072,0,.072.108T31.68,0q-.468,0-1.071-.018T29.3-.036q-.486,0-.945.018T27.558,0ZM38.2.234a2.519,2.519,0,0,1-1.4-.423,2.983,2.983,0,0,1-1.035-1.2,4.15,4.15,0,0,1-.387-1.872,3.819,3.819,0,0,1,.4-1.809,3.612,3.612,0,0,1,1.017-1.215,4.238,4.238,0,0,1,1.341-.684,4.763,4.763,0,0,1,1.368-.216A3.907,3.907,0,0,1,40.7-7a4.321,4.321,0,0,1,1.008.468l-.342,1.368a3.506,3.506,0,0,0-.909-1.179A2.042,2.042,0,0,0,39.15-6.75a1.955,1.955,0,0,0-1.575.693,3.458,3.458,0,0,0-.585,2.241,5.066,5.066,0,0,0,.27,1.755,2.489,2.489,0,0,0,.756,1.116,1.692,1.692,0,0,0,1.08.387A2.195,2.195,0,0,0,40.41-.972a7,7,0,0,0,1.1-.99l.162.144a12.458,12.458,0,0,1-.891.909,5.235,5.235,0,0,1-1.152.81A3.049,3.049,0,0,1,38.2.234Zm4.266-13.086v10.8a2.233,2.233,0,0,0,.126.891A.442.442,0,0,0,43.02-.9a1.431,1.431,0,0,0,.351-.054,3.287,3.287,0,0,0,.459-.162q.054-.036.108.063t0,.135L41.634.2a.34.34,0,0,1-.108.018q-.2,0-.36-.432A3.767,3.767,0,0,1,41-1.476v-9.18a2.755,2.755,0,0,0-.108-.9.42.42,0,0,0-.432-.288.993.993,0,0,0-.324.063q-.18.063-.4.153-.072.036-.126-.072t0-.126l2.52-1.206a.16.16,0,0,1,.072-.018.272.272,0,0,1,.162.072Q42.462-12.906,42.462-12.852Z" transform="translate(10.064 25)" fill="#fff"/>
    </g>
  </g>
</svg>
