<svg xmlns="http://www.w3.org/2000/svg" width="60" height="38" viewBox="0 0 60 38">
  <g id="グループ_884" data-name="グループ 884" transform="translate(-1042.065 -1501)">
    <g id="グループ_571" data-name="グループ 571" transform="translate(1042 1501)">
      <rect id="長方形_13373" data-name="長方形 13373" width="60" height="38" transform="translate(0.065)" fill="#2f2013"/>
      <path id="パス_2932" data-name="パス 2932" d="M3.744-1.53a2.069,2.069,0,0,0,.126.819A.746.746,0,0,0,4.4-.324a5.07,5.07,0,0,0,1.215.108q.054,0,.054.108T5.616,0Q5.04,0,4.365-.018T2.9-.036q-.63,0-1.206.018T.666,0Q.612,0,.612-.108T.666-.216a3.184,3.184,0,0,0,.882-.09.569.569,0,0,0,.387-.36,2.422,2.422,0,0,0,.1-.792V-9.792a2.337,2.337,0,0,0-.1-.783.6.6,0,0,0-.387-.36,2.909,2.909,0,0,0-.882-.1q-.054,0-.054-.108t.054-.108q.45,0,1.017.027t1.2.027q.432,0,1.125-.054T5.346-11.3a5.937,5.937,0,0,1,1.953.3,2.863,2.863,0,0,1,1.359.945,2.874,2.874,0,0,1,.54,1.71,3.432,3.432,0,0,1-.324,1.62,3.148,3.148,0,0,1-.927,1.125,4.306,4.306,0,0,1-1.287.666,4.577,4.577,0,0,1-1.4.225q-.2,0-.423-.018a2.7,2.7,0,0,1-.441-.072q-.054-.018-.036-.135t.09-.1a2.276,2.276,0,0,0,.324.054q.18.018.306.018a1.991,1.991,0,0,0,1.1-.324,2.309,2.309,0,0,0,.819-.99,3.913,3.913,0,0,0,.315-1.674A3.864,3.864,0,0,0,7-9.576a2.317,2.317,0,0,0-.855-1.017,2.439,2.439,0,0,0-1.341-.351,2.055,2.055,0,0,0-.648.081.513.513,0,0,0-.324.333,2.465,2.465,0,0,0-.09.774Zm13.3,1.6q-.558,0-1.386-.054T14.148-.036q-.648,0-1.224.018T11.9,0q-.036,0-.036-.108T11.9-.216a3.3,3.3,0,0,0,.882-.09.573.573,0,0,0,.4-.36,2.422,2.422,0,0,0,.1-.792V-9.792a2.337,2.337,0,0,0-.1-.783.6.6,0,0,0-.387-.36,2.909,2.909,0,0,0-.882-.1q-.036,0-.036-.108t.036-.108q.468,0,1.026.027t1.206.027q.63,0,1.377-.045t1.269-.045a7.128,7.128,0,0,1,3.294.72A5.407,5.407,0,0,1,22.266-8.6a5.167,5.167,0,0,1,.774,2.79,6.118,6.118,0,0,1-.468,2.439,5.325,5.325,0,0,1-1.305,1.854A5.97,5.97,0,0,1,19.341-.342,6.4,6.4,0,0,1,17.046.072Zm-.18-.36a4.068,4.068,0,0,0,2.2-.594,4.043,4.043,0,0,0,1.5-1.737,6.431,6.431,0,0,0,.549-2.8,7.43,7.43,0,0,0-.5-2.8,4.676,4.676,0,0,0-1.431-1.98,3.46,3.46,0,0,0-2.2-.729,4.178,4.178,0,0,0-1.521.2q-.459.2-.459.972v8.1a1.346,1.346,0,0,0,.36,1.035A2.363,2.363,0,0,0,16.866-.288ZM26.028,0q-.054,0-.054-.108t.054-.108a3.58,3.58,0,0,0,.936-.09.6.6,0,0,0,.414-.36,2.234,2.234,0,0,0,.108-.792V-9.792a2.337,2.337,0,0,0-.1-.783.6.6,0,0,0-.387-.36,2.909,2.909,0,0,0-.882-.1q-.054,0-.054-.108t.054-.108h7.488q.18,0,.18.162l.036,2.34q0,.036-.09.045a.124.124,0,0,1-.126-.045,2.475,2.475,0,0,0-.828-1.53,2.572,2.572,0,0,0-1.656-.5h-.738a1.4,1.4,0,0,0-.927.234,1,1,0,0,0-.261.774V-1.53a1.837,1.837,0,0,0,.144.819.826.826,0,0,0,.576.387,5.757,5.757,0,0,0,1.3.108q.036,0,.036.108T31.212,0Q30.6,0,29.9-.018T28.3-.036q-.63,0-1.224.018T26.028,0Zm6.678-3.87A1.347,1.347,0,0,0,32.193-5a2.532,2.532,0,0,0-1.557-.4h-2.25v-.468h2.286a2.648,2.648,0,0,0,1.521-.351,1.152,1.152,0,0,0,.495-1q0-.036.108-.036t.108.036q0,.594-.009.918t-.009.666q0,.432.018.855t.018.909q0,.054-.108.054T32.706-3.87Z" transform="translate(13.064 25)" fill="#fff"/>
    </g>
  </g>
</svg>
