<svg xmlns="http://www.w3.org/2000/svg" width="325" height="600" viewBox="0 0 325 600">
  <g id="グループ_10048" data-name="グループ 10048" transform="translate(-20 -4693)">
    <text id="土壌分析_診断_サービス" data-name="土壌分析（診断）サービス" transform="translate(30 4711)" font-size="20" font-family="YuMin-Medium, YuMincho" font-weight="500" letter-spacing="0.15em"><tspan x="0" y="0">土壌分析（診断）サービス</tspan></text>
    <rect id="長方形_13451" data-name="長方形 13451" width="315" height="90" transform="translate(30 4783)" fill="#fff"/>
    <rect id="長方形_13452" data-name="長方形 13452" width="315" height="80" transform="translate(30 4877)" fill="#fff"/>
    <rect id="長方形_13454" data-name="長方形 13454" width="315" height="80" transform="translate(30 4961)" fill="#fff"/>
    <rect id="長方形_13455" data-name="長方形 13455" width="315" height="80" transform="translate(30 5045)" fill="#fff"/>
    <rect id="長方形_13453" data-name="長方形 13453" width="315" height="80" transform="translate(30 5129)" fill="#fff"/>
    <rect id="長方形_13535" data-name="長方形 13535" width="315" height="80" transform="translate(30 5213)" fill="#fff"/>
    <g id="グループ_730" data-name="グループ 730" transform="translate(-10 1062)">
      <g id="長方形_13349" data-name="長方形 13349" transform="translate(30 3701)" fill="none" stroke="#000" stroke-width="1">
        <rect width="160" height="34" stroke="none"/>
        <rect x="0.5" y="0.5" width="159" height="33" fill="none"/>
      </g>
      <text id="このような方に最適_" data-name="このような方に最適!" transform="translate(40 3723)" font-size="14" font-family="YuMin-Medium, YuMincho" font-weight="500" letter-spacing="0.08em"><tspan x="0" y="0">このような方に最適!</tspan></text>
    </g>
    <text id="土づくりにこだわる農業生産者様" transform="translate(188 4839)" font-size="14" font-family="SourceHanSansJP-Regular, Source Han Sans JP" letter-spacing="0.08em"><tspan x="-112.7" y="0">土</tspan><tspan y="0">づくりにこだわる</tspan><tspan y="0">農業生産者様</tspan></text>
    <text id="農業試験研究機関様" transform="translate(188 4923)" font-size="14" font-family="SourceHanSansJP-Regular, Source Han Sans JP" letter-spacing="0.08em"><tspan x="-67.48" y="0">農業試験研究機関様</tspan></text>
    <text id="食品メーカー様" transform="translate(188 5007)" font-size="14" font-family="SourceHanSansJP-Regular, Source Han Sans JP" letter-spacing="0.08em"><tspan x="-52.36" y="0">食品</tspan><tspan y="0">メーカー</tspan><tspan y="0">様</tspan></text>
    <text id="肥料_資材メーカー様" data-name="肥料・資材メーカー様" transform="translate(188 5091)" font-size="14" font-family="SourceHanSansJP-Regular, Source Han Sans JP" letter-spacing="0.08em"><tspan x="-75.04" y="0">肥料・資材</tspan><tspan y="0">メーカー</tspan><tspan y="0">様</tspan></text>
    <text id="環境に配慮しているかどうかの証として_庭園やゴルフ場_レジャー施設など_" data-name="環境に配慮しているかどうかの証として
（庭園やゴルフ場、レジャー施設など）" transform="translate(188 5162)" font-size="14" font-family="SourceHanSansJP-Regular, Source Han Sans JP" letter-spacing="0.08em"><tspan x="-135.1" y="0">環境</tspan><tspan y="0">に</tspan><tspan y="0">配慮</tspan><tspan y="0">しているかどうかの</tspan><tspan y="0">証</tspan><tspan y="0">として</tspan><tspan x="-135.17" y="24">（</tspan><tspan y="24">庭園</tspan><tspan y="24">やゴルフ</tspan><tspan y="24">場、</tspan><tspan y="24">レジャー</tspan><tspan y="24">施設</tspan><tspan y="24">など）</tspan></text>
    <text id="有機質のリサイクルを目指したい企業様_廃棄物の堆肥化など_" data-name="有機質のリサイクルを目指したい企業様
（廃棄物の堆肥化など）" transform="translate(188 5246)" font-size="14" font-family="SourceHanSansJP-Regular, Source Han Sans JP" letter-spacing="0.08em"><tspan x="-135.17" y="0">有機質</tspan><tspan y="0">のリサイクルを</tspan><tspan y="0">目指</tspan><tspan y="0">したい</tspan><tspan y="0">企業様</tspan><tspan x="-82.6" y="24">（廃棄物</tspan><tspan y="24">の</tspan><tspan y="24">堆肥化</tspan><tspan y="24">など）</tspan></text>
  </g>
</svg>
