<svg xmlns="http://www.w3.org/2000/svg" width="1050" height="400" viewBox="0 0 1050 400">
  <g id="グループ_9868" data-name="グループ 9868" transform="translate(-163 -3730)">
    <rect id="長方形_13382" data-name="長方形 13382" width="498" height="104" transform="translate(183 3750)" fill="#fff"/>
    <rect id="長方形_13385" data-name="長方形 13385" width="498" height="104" transform="translate(183 3858)" fill="#fff"/>
    <rect id="長方形_13386" data-name="長方形 13386" width="498" height="134" transform="translate(183 3966)" fill="#fff"/>
    <rect id="長方形_13383" data-name="長方形 13383" width="498" height="104" transform="translate(685 3750)" fill="#fff"/>
    <rect id="長方形_13384" data-name="長方形 13384" width="498" height="104" transform="translate(685 3858)" fill="#fff"/>
    <rect id="長方形_13387" data-name="長方形 13387" width="498" height="134" transform="translate(685 3966)" fill="#fff"/>
    <path id="パス_3144" data-name="パス 3144" d="M-120.208-.64V-7.088h5.52V-8.256h-5.52v-5.072h-1.248v5.072h-5.44v1.168h5.44V-.64H-127.9V.528h14.24V-.64Zm9.632-7.424.592,1.392c1.264-.5,5.344-2.256,7.968-2.256,2.16,0,3.392,1.328,3.392,3.008,0,3.264-3.728,4.544-7.9,4.656l.56,1.328c4.928-.288,8.752-2.128,8.752-5.968,0-2.688-2.112-4.224-4.768-4.224-2.336,0-5.472,1.168-6.832,1.6C-109.424-8.352-110-8.176-110.576-8.064Zm11.152-4.5-.848.368a17.625,17.625,0,0,1,1.3,2.24l.88-.384A22.054,22.054,0,0,0-99.424-12.56Zm1.76-.64-.832.368a17.941,17.941,0,0,1,1.328,2.208l.864-.384A18.142,18.142,0,0,0-97.664-13.2Zm14.688,1.392-1.184-1.056a7.576,7.576,0,0,1-.912,1.072c-1.088,1.1-3.52,3.024-4.72,4.032-1.44,1.216-1.632,1.9-.112,3.168,1.488,1.232,3.92,3.312,5.04,4.464.4.384.768.784,1.1,1.168l1.136-1.056c-1.7-1.7-4.528-3.984-5.984-5.168-1.024-.864-1.008-1.12-.048-1.936,1.184-.992,3.488-2.816,4.576-3.776C-83.808-11.12-83.312-11.536-82.976-11.808Zm11.44-.816-1.408-.048c-.032.432-.064.9-.128,1.376a42.279,42.279,0,0,0-.5,5.168,19.484,19.484,0,0,0,.176,2.544l1.232-.1a7.458,7.458,0,0,1-.032-1.968c.192-2.1,2.048-5.008,4.048-5.008,1.68,0,2.544,1.824,2.544,4.352,0,4.016-2.72,5.44-6.192,5.952L-71.04.8c3.968-.72,6.752-2.672,6.752-7.12,0-3.36-1.52-5.488-3.648-5.488-2.032,0-3.7,2-4.352,3.632A29.705,29.705,0,0,1-71.536-12.624ZM-52.384-10.8v1.28a37.609,37.609,0,0,0,6.576,0v-1.3A27.374,27.374,0,0,1-52.384-10.8Zm.624,6.512L-52.912-4.4a8.6,8.6,0,0,0-.272,1.888c0,1.5,1.2,2.4,3.888,2.4a21.683,21.683,0,0,0,4-.336l-.032-1.344a17.651,17.651,0,0,1-3.968.416c-2.176,0-2.7-.7-2.7-1.44A5.588,5.588,0,0,1-51.76-4.288Zm-3.68-7.744-1.424-.128a7,7,0,0,1-.112,1.136,45.005,45.005,0,0,0-.72,6.416A20.146,20.146,0,0,0-57.1.528l1.152-.08c-.016-.16-.032-.384-.048-.56a3.088,3.088,0,0,1,.08-.72,32.654,32.654,0,0,1,1.136-3.584l-.672-.512c-.272.656-.656,1.616-.928,2.336a17.548,17.548,0,0,1-.144-2.24,37.153,37.153,0,0,1,.8-6.128C-55.664-11.248-55.52-11.76-55.44-12.032Zm16.48.8V-9.92c1.264.1,2.624.176,4.224.176,1.488,0,3.232-.112,4.32-.192v-1.312c-1.152.112-2.784.224-4.32.224A35.757,35.757,0,0,1-38.96-11.232Zm.64,6.448-1.3-.128a10.152,10.152,0,0,0-.336,2.224C-39.952-.672-38.064.4-34.816.4A22.752,22.752,0,0,0-29.36-.16l-.016-1.376a19.436,19.436,0,0,1-5.472.64c-2.56,0-3.808-.848-3.808-2.064A5.884,5.884,0,0,1-38.32-4.784ZM-16.992-3.6l-1.2-.112a8.974,8.974,0,0,0-.24,1.888c0,1.584,1.376,2.368,3.9,2.368A21.075,21.075,0,0,0-11.44.3l.048-1.3a15.4,15.4,0,0,1-3.12.32c-2.288,0-2.7-.736-2.7-1.488A5.657,5.657,0,0,1-16.992-3.6Zm-1.84-8.752-1.536-.128a6.278,6.278,0,0,1-.048,1.312c-.048.32-.128.832-.24,1.392-.624.048-1.2.08-1.728.08a14.5,14.5,0,0,1-1.92-.112l.048,1.248c.576.032,1.152.064,1.856.064.448,0,.944-.016,1.472-.048-.128.576-.272,1.184-.416,1.712A34.889,34.889,0,0,1-24.032.32l1.408.48a48.419,48.419,0,0,0,2.5-7.328c.192-.7.352-1.44.512-2.144a30.725,30.725,0,0,0,3.328-.544v-1.248a26.736,26.736,0,0,1-3.072.56c.08-.432.176-.832.24-1.184C-19.056-11.408-18.928-12.016-18.832-12.352Zm1.5,4.864v1.2a26.3,26.3,0,0,1,2.976-.176,20.23,20.23,0,0,1,2.688.192l.032-1.216A25.61,25.61,0,0,0-14.4-7.632C-15.424-7.632-16.48-7.568-17.328-7.488Zm3.968-4.384-.848.368a18.285,18.285,0,0,1,1.3,2.224l.864-.384A17.842,17.842,0,0,0-13.36-11.872Zm1.76-.656-.832.368A17.013,17.013,0,0,1-11.1-9.936l.864-.384A20.581,20.581,0,0,0-11.6-12.528Zm8.128,1.008c0,.176-.032.768-.08,1.52-.832.128-1.776.24-2.3.272-.384.016-.688.032-1.04.016l.128,1.328c1.008-.144,2.4-.336,3.136-.432-.048.512-.08,1.04-.112,1.552C-4.544-6-6.384-3.5-7.28-2.384l.8,1.1c.768-1.088,1.824-2.608,2.608-3.792,0,.256-.016.48-.016.64-.032,1.744-.032,2.56-.048,4.1a8.869,8.869,0,0,1-.048.944h1.392c-.032-.288-.064-.688-.08-.976-.08-1.424-.064-2.4-.064-3.856,0-.576.016-1.216.048-1.888A7.459,7.459,0,0,1,2.32-8.4,2.926,2.926,0,0,1,5.408-5.552C5.424-2.8,2.992-1.536.288-1.152L.88.048C4.368-.624,6.72-2.3,6.7-5.52A4.042,4.042,0,0,0,2.512-9.568a8.086,8.086,0,0,0-5.1,2.016c.016-.352.048-.7.08-1.04.24-.4.512-.832.72-1.12l-.48-.56c-.032.016-.048.016-.08.032.112-1.12.24-2.016.32-2.416l-1.5-.048A7.647,7.647,0,0,1-3.472-11.52ZM14.976-1.68A1.169,1.169,0,0,1,16.256-2.7,2.182,2.182,0,0,1,18.4-.528a8.215,8.215,0,0,1-1.3.1C15.856-.432,14.976-.912,14.976-1.68ZM12.928-11.792l.048,1.328c.336-.048.7-.08,1.056-.1.848-.048,4.048-.192,4.9-.224-.816.72-2.816,2.4-3.712,3.136-.928.784-2.976,2.5-4.3,3.584l.912.944c2.032-2.064,3.456-3.2,6.128-3.2,2.08,0,3.584,1.184,3.584,2.752a2.81,2.81,0,0,1-2,2.736,3.1,3.1,0,0,0-3.264-2.832,2.247,2.247,0,0,0-2.464,2.08c0,1.328,1.328,2.272,3.5,2.272,3.392,0,5.5-1.664,5.5-4.24,0-2.16-1.9-3.76-4.56-3.76a6.77,6.77,0,0,0-2.224.336c1.248-1.04,3.424-2.9,4.224-3.5.288-.24.608-.448.9-.656l-.736-.928a3.773,3.773,0,0,1-.864.128c-.848.08-4.656.208-5.488.208A9.54,9.54,0,0,1,12.928-11.792ZM39.1-10.432H36.768v-1.04H39.1Zm0,1.824H36.768V-9.664H39.1ZM29.9-9.664h2.208v1.056H29.9Zm0-1.808h2.208v1.04H29.9Zm5.7,1.808v1.056H33.264V-9.664Zm0-1.808v1.04H33.264v-1.04Zm4.656-.8H36.768v-1.12H35.6v1.12H33.264v-1.12H32.112v1.12H28.8v4.48H40.256ZM39.68-2.688a22.768,22.768,0,0,1-2.944,1.376,5.356,5.356,0,0,1-1.488-1.376ZM32.336-.3V-2.688H34.08A6.35,6.35,0,0,0,35.744-.72Zm7.488-2.384h1.664V-3.6H29.712c.048-.48.064-.96.064-1.376V-6.112H41.12v-.9H28.64v2.016A8.989,8.989,0,0,1,27.1.64a5.273,5.273,0,0,1,1.008.608,8.536,8.536,0,0,0,1.5-3.936h1.568V-.16c-.512.064-.976.112-1.392.16l.144,1.024C31.5.816,33.68.528,35.776.256L35.744-.72a10.342,10.342,0,0,0,5.248,1.936A3.536,3.536,0,0,1,41.7.192a12.2,12.2,0,0,1-4.08-1.008,24.746,24.746,0,0,0,2.976-1.216Zm-.08-1.76v-.816H30.688v.816Zm14.32-5.088a14.627,14.627,0,0,1-.816,1.664l.16.048h-3.76l.512-.112a6.779,6.779,0,0,0-.8-1.6Zm4.592,6.96V-3.584H52.24V-4.768h5.008V-5.68H52.24V-6.848h5.792v-.976H54.4c.32-.48.672-1.1.992-1.712h3.2V-10.56h-2.48a22.373,22.373,0,0,0,1.408-2.3l-1.216-.32a18.152,18.152,0,0,1-1.216,2.432l.592.192H53.744v-2.832h-1.12v2.832h-1.9v-2.832h-1.1v2.832H47.648l.816-.3a11.029,11.029,0,0,0-1.36-2.352L46.1-12.88a12.472,12.472,0,0,1,1.264,2.32H44.816v1.024h3.9l-.56.112a6.718,6.718,0,0,1,.784,1.6H45.456v.976h5.616V-5.68H46.256v.912h4.816v1.184h-6.32v1.008h5.232A15.42,15.42,0,0,1,44.336-.048,5.1,5.1,0,0,1,45.1.96a16.079,16.079,0,0,0,5.968-3.152V1.216H52.24V-2.272a15.1,15.1,0,0,0,6.016,3.28,4.278,4.278,0,0,1,.8-1.056,14.639,14.639,0,0,1-5.712-2.528ZM69.6-.432V-4.5h5.136V-5.648H69.6V-9.136h5.728V-10.3H69.6v-3.072H68.384V-10.3H65.136a21.962,21.962,0,0,0,.9-2.56l-1.2-.256a14.586,14.586,0,0,1-2.96,5.888,7.967,7.967,0,0,1,1.088.7,14.356,14.356,0,0,0,1.664-2.608h3.76v3.488H63.632V-4.5h4.752V-.432H61.9V.72H76.08V-.432ZM88.08-2.16H91.9v-.96H88.08V-4.8h4.24v-.96H88.08V-7.184H86.9V-5.76h-2.48a8.823,8.823,0,0,0,.528-1.2l-1.072-.256a8.412,8.412,0,0,1-2.048,3.328,6.533,6.533,0,0,1,.928.576A10.362,10.362,0,0,0,83.888-4.8H86.9v1.68H83.28v.96H86.9V-.144H81.92V.88H93.28V-.144h-5.2Zm.912-8.768a18.587,18.587,0,0,1-.864,2.1l.56.192h-4.88l.72-.208a6.853,6.853,0,0,0-.88-2.08Zm.16,2.288c.368-.592.8-1.392,1.2-2.144l-.592-.144h2.784v-1.024H86.832v-1.44H85.664v1.44H80.048v1.024H83.36l-.816.224a8.8,8.8,0,0,1,.848,2.064h-3.1v2.48c0,1.888-.16,4.624-1.456,6.608a5.186,5.186,0,0,1,.912.752c1.408-2.128,1.68-5.264,1.68-7.36V-7.584H93.36V-8.64Zm13.936.368V-10.32h3.552a25.3,25.3,0,0,1-2.432,2.048Zm4.336,5.328h-6.48V-4.528h6.48Zm-6.48,2.608V-2h6.48V-.336ZM110.592-7.2V-8.272h-4.608a24.267,24.267,0,0,0,3.888-4.016l-1.008-.544a18.739,18.739,0,0,1-1.824,2.112v-.656h-3.952v-2H101.92v2H97.84v1.056h4.08v2.048H96.448V-7.2h6.224A31.573,31.573,0,0,1,96.1-4.032a6.929,6.929,0,0,1,.752.976c.976-.368,1.968-.8,2.928-1.264V1.216h1.168V.7h6.48v.448h1.216V-5.536h-6.608c.88-.512,1.744-1.072,2.576-1.664Zm8.336,2.208c-.272-.432-1.472-2.24-1.92-2.832V-8.832h1.824v-1.1h-1.824v-3.456H115.92v3.456h-2.24v1.1h2.112a17.367,17.367,0,0,1-2.432,6,6.637,6.637,0,0,1,.608,1.024,16.706,16.706,0,0,0,1.952-4.464V1.2h1.088V-6.416c.48.8,1.04,1.792,1.264,2.3Zm3.232,2.208c-1.456.8-2.96,1.616-3.968,2.128l.56.992c1.088-.608,2.448-1.392,3.728-2.144Zm-2.816-2.144a11.606,11.606,0,0,1,1.6,2.144l.864-.608a11.193,11.193,0,0,0-1.648-2.064Zm6.32,2.224A21.462,21.462,0,0,0,127.84-4.88l-.912-.64a16.446,16.446,0,0,1-1.968,2.144,9.877,9.877,0,0,1-.96-2.08V-6.1h4.032V-7.1H124V-8.336h3.456v-.928H124V-10.4h3.808v-.976H125.7c.3-.48.656-1.1.992-1.7l-1.168-.336a13.926,13.926,0,0,1-.928,1.984l.144.048h-2.784l.288-.112a8.5,8.5,0,0,0-.96-1.84l-.928.3a11.939,11.939,0,0,1,.8,1.648h-2v.976h3.7v1.136h-3.232v.928h3.232V-7.1h-4.032V-6.1h4.032V-.112c0,.208-.048.272-.256.272-.208.016-.9.016-1.6,0a3.889,3.889,0,0,1,.336,1.088,5.983,5.983,0,0,0,2.128-.208c.416-.192.544-.512.544-1.152V-3.2A8.408,8.408,0,0,0,127.552.544a5.058,5.058,0,0,1,.768-.96,7.025,7.025,0,0,1-3.168-2.672Z" transform="translate(432 3809)"/>
    <path id="パス_3145" data-name="パス 3145" d="M-47.424-3.408a23.474,23.474,0,0,1-2.624,1.552A6.079,6.079,0,0,1-51.5-3.408ZM-55.2-5.792h6.736v1.408H-55.2Zm0-2.256h6.736V-6.7H-55.2Zm3.92-.976v-1.584h-1.2v1.584h-3.3A17.945,17.945,0,0,0-51.9-12.336a18.635,18.635,0,0,0,4.08,3.312Zm4.864,4.9c-.256.192-.56.416-.88.64V-8.7a22.625,22.625,0,0,0,2.128,1.1A7.916,7.916,0,0,1-44.4-8.64a18.6,18.6,0,0,1-6.992-4.768H-52.56a17.3,17.3,0,0,1-6.656,4.944,4.748,4.748,0,0,1,.7.96,19.821,19.821,0,0,0,2.144-1.152V-.192c-.672.064-1.28.112-1.808.16l.176,1.1c1.824-.16,4.432-.416,6.928-.688l-.016-1.056L-55.2-.288v-3.12h2.5c1.36,2.544,3.9,4.032,7.344,4.624A4.55,4.55,0,0,1-44.64.192a12.572,12.572,0,0,1-4.528-1.456A29.667,29.667,0,0,0-45.52-3.44ZM-31.36-8.544h-6.352v-3.024h6.352Zm1.2-4.16h-8.7v5.3h8.7ZM-36.7-4.576V-.784h-3.344V-4.576Zm-4.48,5.808h1.136V.368H-36.7v.72h1.168V-5.728h-5.648ZM-32.64-.784V-4.576h3.632V-.784Zm-1.152-4.944v6.96h1.152V.368h3.632V1.12h1.168V-5.728Zm21.472-5.92-1.472-.512a9.178,9.178,0,0,1-.32,1.184,17.9,17.9,0,0,1-2.176,4.368c-1.264-.976-3.12-2.288-4.5-3.168l-.832,1.008A50.056,50.056,0,0,1-17.1-5.536,17.764,17.764,0,0,1-23.456-.512L-22.352.5A20.384,20.384,0,0,0-16.08-4.672,35.684,35.684,0,0,1-12.3-.992L-11.3-2.1A40.041,40.041,0,0,0-15.248-5.76a22.288,22.288,0,0,0,2.4-4.72A8.634,8.634,0,0,1-12.32-11.648Zm5.952,4.72V-5.36c.5-.048,1.344-.08,2.224-.08H4.64c.72,0,1.392.064,1.712.08V-6.928c-.352.032-.928.08-1.728.08H-4.144C-5.04-6.848-5.888-6.9-6.368-6.928Zm23.776-5.664H15.9a9.7,9.7,0,0,1,.112,1.328c0,.576-.032,1.12-.064,1.632H13.136a16.746,16.746,0,0,1-1.824-.1v1.36a17.073,17.073,0,0,1,1.84-.064H15.84A10.288,10.288,0,0,1,12.672-1.7,7.886,7.886,0,0,1,11.024-.512l1.168.944c2.672-1.84,4.336-4.272,4.912-8.864h4.48c0,1.712-.208,5.648-.816,6.864a.866.866,0,0,1-.928.528,19.466,19.466,0,0,1-2.384-.176l.16,1.328c.832.048,1.76.112,2.576.112A1.661,1.661,0,0,0,21.9-.752c.72-1.536.912-6.192.976-7.728a5,5,0,0,1,.08-.784l-.9-.448a5.766,5.766,0,0,1-1.024.08H17.232c.032-.528.064-1.072.08-1.648C17.328-11.664,17.36-12.224,17.408-12.592ZM28.192-6.928V-5.36c.5-.048,1.344-.08,2.224-.08H39.2c.72,0,1.392.064,1.712.08V-6.928c-.352.032-.928.08-1.728.08H30.416C29.52-6.848,28.672-6.9,28.192-6.928ZM49.968-4.992c-.272-.432-1.472-2.24-1.92-2.832V-8.832h1.824v-1.1H48.048v-3.456H46.96v3.456H44.72v1.1h2.112a17.367,17.367,0,0,1-2.432,6,6.637,6.637,0,0,1,.608,1.024A16.706,16.706,0,0,0,46.96-6.272V1.2h1.088V-6.416c.48.8,1.04,1.792,1.264,2.3ZM53.2-2.784c-1.456.8-2.96,1.616-3.968,2.128l.56.992C50.88-.272,52.24-1.056,53.52-1.808ZM50.384-4.928a11.606,11.606,0,0,1,1.6,2.144l.864-.608A11.193,11.193,0,0,0,51.2-5.456ZM56.7-2.7A21.463,21.463,0,0,0,58.88-4.88l-.912-.64A16.447,16.447,0,0,1,56-3.376a9.877,9.877,0,0,1-.96-2.08V-6.1h4.032V-7.1H55.04V-8.336H58.5v-.928H55.04V-10.4h3.808v-.976H56.736c.3-.48.656-1.1.992-1.7l-1.168-.336a13.926,13.926,0,0,1-.928,1.984l.144.048H52.992l.288-.112a8.5,8.5,0,0,0-.96-1.84l-.928.3a11.939,11.939,0,0,1,.8,1.648h-2v.976h3.7v1.136H50.656v.928h3.232V-7.1H49.856V-6.1h4.032V-.112c0,.208-.048.272-.256.272-.208.016-.9.016-1.6,0a3.889,3.889,0,0,1,.336,1.088A5.983,5.983,0,0,0,54.5,1.04c.416-.192.544-.512.544-1.152V-3.2A8.408,8.408,0,0,0,58.592.544a5.058,5.058,0,0,1,.768-.96,7.025,7.025,0,0,1-3.168-2.672Z" transform="translate(432 3917)"/>
    <path id="パス_3146" data-name="パス 3146" d="M13.552-10.432H12v-1.552h1.552Zm-2.4,0H9.632v-1.552h1.52Zm-2.368,0H7.312v-1.552H8.784Zm5.792-2.432H6.32v3.3h8.256ZM5.9-3.776l-2.08.592v-3.44H5.488v-1.04H3.824V-11.2h1.9v-1.072H.768V-11.2H2.752v3.536H.944v1.04H2.752V-2.88c-.8.224-1.552.432-2.16.576L.88-1.184C2.336-1.6,4.24-2.16,6.032-2.72ZM7.632-5.92H13.1V-4.3H7.632ZM14.08-3.248a19.063,19.063,0,0,1-2.1,1.408A6.521,6.521,0,0,1,10.96-3.392h3.264V-6.816H6.576v3.424h2.88A15.456,15.456,0,0,1,4.448-.576a5.082,5.082,0,0,1,.7.848A17.726,17.726,0,0,0,8.8-1.7V1.216H9.936V-2.592c.1-.08.192-.176.288-.256a7.744,7.744,0,0,0,4.32,4.064,4.627,4.627,0,0,1,.768-.944,7.036,7.036,0,0,1-2.736-1.5,17.094,17.094,0,0,0,2.352-1.392Zm-8.5-5.44V-7.7h9.76v-.992Zm23.984-2.48A18.509,18.509,0,0,1,28.8-9.456l.5.128H25.9L26.56-9.5a6.452,6.452,0,0,0-.688-1.664ZM22.992-4.736c-.624.288-1.248.576-1.856.848v-4.5h1.648v.048h9.792v-.992h-2.7c.272-.448.56-1.056.864-1.632l-.88-.208h2.352v-.976H28.224V-13.36H27.072v1.216h-3.76v.976H25.6l-.752.192a8.042,8.042,0,0,1,.624,1.648H22.816V-9.5h-1.68v-3.712h-1.1V-9.5H18.176v1.12h1.856v4.992c-.816.352-1.552.672-2.16.9L18.3-1.312l4.944-2.352Zm2.048.016h5.472v1.184H25.04Zm0-1.968h5.472V-5.5H25.04ZM29.936.1c-.384,0-.448-.064-.448-.416V-2.7H31.68V-7.52H23.92V-2.7h1.6C25.168-1.216,24.3-.288,21.712.24a3.872,3.872,0,0,1,.672.992c2.88-.7,3.9-1.968,4.3-3.936h1.664V-.3c0,1.1.272,1.408,1.44,1.408h1.552c.944,0,1.248-.416,1.36-2.192A3.122,3.122,0,0,1,31.7-1.5C31.664-.1,31.584.1,31.216.1Zm11.92-10.9v1.28a37.609,37.609,0,0,0,6.576,0v-1.3A27.374,27.374,0,0,1,41.856-10.8Zm.624,6.512L41.328-4.4a8.6,8.6,0,0,0-.272,1.888c0,1.5,1.2,2.4,3.888,2.4a21.683,21.683,0,0,0,4-.336l-.032-1.344a17.651,17.651,0,0,1-3.968.416c-2.176,0-2.7-.7-2.7-1.44A5.587,5.587,0,0,1,42.48-4.288ZM38.8-12.032l-1.424-.128a7,7,0,0,1-.112,1.136,45.005,45.005,0,0,0-.72,6.416A20.146,20.146,0,0,0,37.136.528l1.152-.08c-.016-.16-.032-.384-.048-.56a3.088,3.088,0,0,1,.08-.72,32.654,32.654,0,0,1,1.136-3.584l-.672-.512c-.272.656-.656,1.616-.928,2.336a17.548,17.548,0,0,1-.144-2.24,37.153,37.153,0,0,1,.8-6.128C38.576-11.248,38.72-11.76,38.8-12.032ZM56.9-9.84h-.944V-11.7H56.9Zm1.68,4.224-.064-.048c-.016.048-.064.048-.224.048h-.576c-.208,0-.224-.016-.224-.224V-8.832h1.088ZM54.16-.9V-2.544h4.416V-.9Zm1.1-7.936v1.264a3.388,3.388,0,0,1-1.088,2.7A2.392,2.392,0,0,1,54.7-4.4,4.173,4.173,0,0,0,55.92-7.552v-1.28h.9V-5.84c0,.768.192.928.816.928H58.4a.6.6,0,0,0,.176-.016V-3.44H54.16V-8.832ZM52.8-11.7h2.3V-9.84H53.2V1.168h.96V.064h4.416v.88h.976V-9.84H57.76V-11.7h2.16v-1.072H52.8ZM62.8-.064c-.736,0-.88-.112-.88-.7v-5.76h3.6v1.072h1.168v-7.216h-6v1.152H65.52v3.856H60.752v6.9c0,1.456.448,1.824,1.92,1.824h2.656c1.456,0,1.792-.72,1.952-3.312a3.478,3.478,0,0,1-1.1-.512c-.08,2.3-.208,2.7-.912,2.7Zm9.5-9.712h4.048v.816l-3.168.16.048.672,3.12-.144v.1c0,1.008.5,1.2,2.208,1.2h3.856c1.168,0,1.5-.256,1.616-1.3a2.841,2.841,0,0,1-.912-.24c-.064.7-.192.816-.848.816H78.608c-.992,0-1.136-.08-1.136-.464v-.176l4-.192L81.424-9.2l-3.952.192v-.768h5.04c-.16.4-.336.8-.48,1.088l.992.336A12.6,12.6,0,0,0,84-10.48l-.848-.24-.192.048H77.52v-.848h5.408v-.848H77.52v-1.008H76.352v2.7h-5.2v4.08c0,2.128-.112,5.072-1.36,7.168a4.821,4.821,0,0,1,1.008.608c1.28-2.208,1.5-5.5,1.5-7.776Zm9.1,4.944H78.464v-.8h2.944Zm0,1.472H78.464v-.816h2.944ZM74.56-4.176h2.832v.816H74.56Zm0-1.456h2.832v.8H74.56Zm7.968-.688h-9.04v3.648h3.376l-.5.448a6.458,6.458,0,0,1,2.064,1.44l.72-.672a6.169,6.169,0,0,0-1.76-1.216h5.136ZM72.336.912a3.647,3.647,0,0,0,1.92-2.528L73.312-1.9a3.132,3.132,0,0,1-1.76,2.16ZM76.88.048c-.72,0-.848-.064-.848-.416V-1.984H74.96V-.352C74.96.7,75.328.976,76.784.976h2.768c1.088,0,1.408-.336,1.52-1.664a3,3,0,0,1-.96-.368c-.064.976-.16,1.1-.688,1.1Zm4.144-1.68A10.3,10.3,0,0,1,83.44.848L84.384.32A10.427,10.427,0,0,0,81.92-2.1ZM91.84-12.464l-1.616-.016a8.444,8.444,0,0,1,.128,1.632c0,1.68-.16,5.728-.16,8.1,0,2.608,1.584,3.568,3.888,3.568a8.042,8.042,0,0,0,6.688-3.536l-.912-1.088A6.666,6.666,0,0,1,94.128-.5C92.608-.5,91.5-1.12,91.5-2.88c0-2.384.112-6.16.192-7.968A13.775,13.775,0,0,1,91.84-12.464Zm12.72,1.84.144,1.392c1.728-.368,5.808-.752,7.52-.944a6.5,6.5,0,0,0-2.992,5.408c0,3.568,3.376,5.152,6.336,5.264l.464-1.328c-2.608-.1-5.52-1.088-5.52-4.224a5.628,5.628,0,0,1,3.664-5.056,13.4,13.4,0,0,1,3.136-.256v-1.28c-1.072.048-2.576.128-4.32.288-2.944.24-5.968.544-7.008.656C105.68-10.672,105.168-10.64,104.56-10.624Zm19.488-.544L122.5-11.2a7.217,7.217,0,0,1,.112,1.424c0,.928.032,2.88.176,4.272.432,4.144,1.888,5.648,3.408,5.648,1.072,0,2.048-.928,3.008-3.648L128.192-4.64c-.416,1.6-1.168,3.264-1.984,3.264-1.136,0-1.92-1.776-2.176-4.448-.112-1.328-.128-2.784-.112-3.792A12.182,12.182,0,0,1,124.048-11.168Zm8.336.448-1.248.432c1.536,1.872,2.5,5.152,2.784,8.048l1.28-.528A17.2,17.2,0,0,0,132.384-10.72Zm11.232,9.04A1.169,1.169,0,0,1,144.9-2.7,2.182,2.182,0,0,1,147.04-.528a8.215,8.215,0,0,1-1.3.1C144.5-.432,143.616-.912,143.616-1.68Zm-2.048-10.112.048,1.328c.336-.048.7-.08,1.056-.1.848-.048,4.048-.192,4.9-.224-.816.72-2.816,2.4-3.712,3.136-.928.784-2.976,2.5-4.3,3.584l.912.944c2.032-2.064,3.456-3.2,6.128-3.2,2.08,0,3.584,1.184,3.584,2.752a2.81,2.81,0,0,1-2,2.736,3.1,3.1,0,0,0-3.264-2.832,2.247,2.247,0,0,0-2.464,2.08c0,1.328,1.328,2.272,3.5,2.272,3.392,0,5.5-1.664,5.5-4.24,0-2.16-1.9-3.76-4.56-3.76a6.77,6.77,0,0,0-2.224.336c1.248-1.04,3.424-2.9,4.224-3.5.288-.24.608-.448.9-.656l-.736-.928a3.773,3.773,0,0,1-.864.128c-.848.08-4.656.208-5.488.208A9.54,9.54,0,0,1,141.568-11.792Zm20.48-.688-1.488-.16a16.718,16.718,0,0,1-.416,3.488c-.96.08-1.9.16-2.432.176a14.09,14.09,0,0,1-1.424,0l.128,1.392c.416-.064,1.072-.144,1.44-.192.416-.048,1.184-.144,2.032-.224a25.613,25.613,0,0,1-3.376,7.984L157.824.5a32.912,32.912,0,0,0,3.36-8.624c.7-.064,1.344-.112,1.728-.112,1.008,0,1.7.272,1.7,1.744a13.553,13.553,0,0,1-.768,4.9,1.322,1.322,0,0,1-1.392.816,7.785,7.785,0,0,1-1.968-.32l.208,1.328a8.7,8.7,0,0,0,1.888.24A2.253,2.253,0,0,0,164.912-.88a15.2,15.2,0,0,0,.928-5.776c0-2.16-1.168-2.7-2.592-2.7-.384,0-1.056.048-1.808.112.176-.88.32-1.824.416-2.288C161.92-11.84,161.984-12.192,162.048-12.48Zm5.5,1.7-1.168.528a18.8,18.8,0,0,1,2.848,5.792l1.248-.592A28.457,28.457,0,0,0,167.552-10.784Zm9.264-1.456-1.264.528c.752,1.728,1.6,3.6,2.336,4.928C176.16-5.6,175.12-4.3,175.12-2.64c0,2.4,2.16,3.3,5.168,3.3a29.6,29.6,0,0,0,5.056-.4l.016-1.424a23.807,23.807,0,0,1-5.12.544c-2.528,0-3.792-.832-3.792-2.16,0-1.216.9-2.272,2.384-3.232a46.623,46.623,0,0,1,4.432-2.448c.464-.24.864-.448,1.216-.656l-.64-1.168a9.992,9.992,0,0,1-1.136.752c-.88.5-2.336,1.2-3.744,2.048A36.473,36.473,0,0,1,176.816-12.24Zm7.936-.16-.864.368A16.532,16.532,0,0,1,185.2-9.808l.864-.384A22.949,22.949,0,0,0,184.752-12.4Zm1.76-.64-.848.352a16.251,16.251,0,0,1,1.344,2.208l.848-.384A18.606,18.606,0,0,0,186.512-13.04ZM201.12-5.328c0,2.864-2.736,4.4-6.624,4.88l.72,1.216c4.144-.624,7.264-2.576,7.264-6.048,0-2.288-1.7-3.552-3.968-3.552a21.17,21.17,0,0,0-4.784.768,10.055,10.055,0,0,1-1.472.24l.416,1.488c.384-.16.848-.336,1.344-.5a14.993,14.993,0,0,1,4.368-.8C200.032-7.632,201.12-6.672,201.12-5.328Zm-6.72-7.2-.208,1.216c1.808.32,5.04.64,6.816.752l.192-1.232A43.223,43.223,0,0,1,194.4-12.528Zm19.488.048-1.488-.16a16.718,16.718,0,0,1-.416,3.488c-.96.08-1.9.16-2.432.176a14.09,14.09,0,0,1-1.424,0l.128,1.392c.416-.064,1.072-.144,1.44-.192.416-.048,1.184-.144,2.032-.224a25.613,25.613,0,0,1-3.376,7.984L209.664.5a32.912,32.912,0,0,0,3.36-8.624c.7-.064,1.344-.112,1.728-.112,1.008,0,1.7.272,1.7,1.744a13.553,13.553,0,0,1-.768,4.9,1.322,1.322,0,0,1-1.392.816,7.785,7.785,0,0,1-1.968-.32l.208,1.328a8.7,8.7,0,0,0,1.888.24A2.253,2.253,0,0,0,216.752-.88a15.2,15.2,0,0,0,.928-5.776c0-2.16-1.168-2.7-2.592-2.7-.384,0-1.056.048-1.808.112.176-.88.32-1.824.416-2.288C213.76-11.84,213.824-12.192,213.888-12.48Zm5.5,1.7-1.168.528a18.8,18.8,0,0,1,2.848,5.792l1.248-.592A28.457,28.457,0,0,0,219.392-10.784Zm19.3,5.184a5.8,5.8,0,0,0-6.128-5.888,6.82,6.82,0,0,0-6.992,6.512c0,2.64,1.424,4.272,2.848,4.272,1.488,0,2.752-1.68,3.728-4.976a31.473,31.473,0,0,0,.96-4.608,4.456,4.456,0,0,1,4.272,4.64A4.832,4.832,0,0,1,233.312-.9a12.087,12.087,0,0,1-1.376.208L232.688.5C236.48,0,238.688-2.24,238.688-5.6Zm-11.872.512a5.581,5.581,0,0,1,4.96-5.184,26.142,26.142,0,0,1-.9,4.32c-.816,2.7-1.664,3.776-2.416,3.776C227.744-2.176,226.816-3.072,226.816-5.088Zm20.512-7.744H242.96v.96h4.368Zm.56,2.128h-5.776v.976h5.776ZM247.344-8.5h-4.48v.944h4.48Zm-4.48,3.12h4.48V-6.32h-4.48Zm3.5,2.208V-.512h-2.5V-3.168Zm1.04-.976h-4.576V1.2h1.04V.48h3.536Zm5.872,3.68V-5.776h3.168V-6.9H253.28v-4.4h3.264v-1.1h-8.128v1.1h3.712V-.464h-1.92V-8.416h-1.12V-.464h-1.2V.672H256.8V-.464Zm10.368-11.984-1.264.528a53.615,53.615,0,0,0,2.32,4.928c-1.712,1.2-2.768,2.5-2.768,4.144,0,2.4,2.176,3.3,5.184,3.3a31.5,31.5,0,0,0,5.056-.4V-1.376a23.807,23.807,0,0,1-5.12.544c-2.528,0-3.792-.832-3.792-2.16,0-1.216.9-2.272,2.384-3.232a53.155,53.155,0,0,1,4.864-2.656c.464-.24.864-.448,1.232-.672l-.7-1.136a8.738,8.738,0,0,1-1.136.752c-.88.48-2.608,1.328-4.112,2.24A34.456,34.456,0,0,1,263.648-12.448Zm17.792-.016-1.616-.016a8.444,8.444,0,0,1,.128,1.632c0,1.68-.16,5.728-.16,8.1,0,2.608,1.584,3.568,3.888,3.568a8.042,8.042,0,0,0,6.688-3.536l-.912-1.088A6.666,6.666,0,0,1,283.728-.5c-1.52,0-2.624-.624-2.624-2.384,0-2.384.112-6.16.192-7.968A13.777,13.777,0,0,1,281.44-12.464Zm12.72,1.84.144,1.392c1.728-.368,5.808-.752,7.52-.944a6.5,6.5,0,0,0-2.992,5.408c0,3.568,3.376,5.152,6.336,5.264l.464-1.328c-2.608-.1-5.52-1.088-5.52-4.224a5.628,5.628,0,0,1,3.664-5.056,13.4,13.4,0,0,1,3.136-.256v-1.28c-1.072.048-2.576.128-4.32.288-2.944.24-5.968.544-7.008.656C295.28-10.672,294.768-10.64,294.16-10.624ZM11.12,23.92A10.63,10.63,0,0,0,14.3,31.536l.96-.5a10.005,10.005,0,0,1,0-14.24l-.96-.5A10.63,10.63,0,0,0,11.12,23.92Zm21.312.752v-1.04H29.456V21.408a15.1,15.1,0,0,0,2.432-.656l-.832-.816a24.1,24.1,0,0,1-5.344,1.12,3.671,3.671,0,0,1,.32.848c.736-.064,1.536-.176,2.32-.3v2.032H25.568v1.04h2.784V27.3H25.888V28.32H32.1V27.3h-2.64V24.672Zm-12.16-5.52H32.416V18.08H26.352V16.624H25.136V18.08h-6v4.7c0,2.32-.1,5.536-1.3,7.824a3.819,3.819,0,0,1,.992.656c1.264-2.416,1.44-6.016,1.44-8.48Zm4.3,4.624-.208.032H22.752c.688-1.12,1.376-2.32,1.888-3.248l-.752-.272-.192.048H20.864v.992h2.208c-.608,1.072-1.44,2.5-2.16,3.6l.928.32.3-.48h1.872a10.069,10.069,0,0,1-1.168,3.168,6.69,6.69,0,0,1-1.024-2.224l-.864.3A8.851,8.851,0,0,0,22.24,28.8a6.015,6.015,0,0,1-2.112,1.648,5.353,5.353,0,0,1,.752.832,7.046,7.046,0,0,0,2.1-1.7c1.3,1.12,3.024,1.408,5.3,1.408H32.32a4.109,4.109,0,0,1,.4-1.072c-.72.016-3.856.016-4.4.016-1.968,0-3.552-.24-4.72-1.2A12.094,12.094,0,0,0,25.216,24Zm22.656-2.432H43.04V20.336h3.344V19.6H43.04v-.9H41.968v.9h-3.2v.736h3.2v1.008H37.84v.768h9.392ZM45.9,25.552c-.448.352-1.008.752-1.5,1.088a6.875,6.875,0,0,1-1.232-1.088Zm-6.048-2h5.376v1.264H39.856Zm6.432,1.68V22.848H38.864v2.7h2.9a13.362,13.362,0,0,1-4.208,2.128,5.23,5.23,0,0,1,.688.8,17.213,17.213,0,0,0,3.52-1.84v2.368h1.072V26.4a10.341,10.341,0,0,0,4.1,2.48,3.42,3.42,0,0,1,.656-.784,10.528,10.528,0,0,1-2.528-1.04,13.773,13.773,0,0,0,2-1.36Zm-9.232,4.24V18.4H48.032V29.472ZM35.92,17.312v13.9h1.136v-.672H48.032v.672H49.2v-13.9Zm24.8,2.528.912-.72a27.43,27.43,0,0,0-2.352-2.032l-.912.656A28.979,28.979,0,0,1,60.72,19.84Zm-5.088-1.376-1.312.528c.256.32.576.816.784,1.136.272.448.576,1.056.912,1.76-.7.32-1.36.608-1.9.816a11.469,11.469,0,0,1-1.312.432l.608,1.312c.736-.336,1.856-.912,3.088-1.5.208.416.4.864.608,1.328a48.346,48.346,0,0,1,2.176,6.56l1.376-.368a70.98,70.98,0,0,0-2.432-6.72c-.192-.432-.4-.88-.608-1.328A14.423,14.423,0,0,1,62.848,20.8c1.568,0,2.32.864,2.32,1.808,0,1.152-.736,2.112-2.48,2.112a5.792,5.792,0,0,1-2.272-.512l-.048,1.248a7.288,7.288,0,0,0,2.4.448c2.5,0,3.68-1.392,3.68-3.232,0-1.744-1.36-3.008-3.568-3.008a16.442,16.442,0,0,0-5.76,1.712c-.32-.672-.64-1.312-.928-1.84A11.626,11.626,0,0,1,55.632,18.464ZM80.864,16.8,80,17.168a15,15,0,0,1,1.264,2.16l.9-.4A23.545,23.545,0,0,0,80.864,16.8Zm2.032-.464-.88.368a17.517,17.517,0,0,1,1.3,2.128l.9-.384C83.872,17.84,83.28,16.88,82.9,16.336ZM71.568,19.5v1.424c.368-.016,1.152-.048,1.76-.048h7.664v7.552H73.136a16.637,16.637,0,0,1-1.776-.1v1.456c.432-.032,1.152-.064,1.808-.064h7.824c-.016.384-.032.72-.032.9H82.4c-.016-.256-.064-.976-.064-1.552V20.816c0-.384.032-.88.048-1.248-.32.016-.8.032-1.2.032H73.312A16.146,16.146,0,0,1,71.568,19.5Zm23.216,10.16.848.7A3.423,3.423,0,0,1,96.176,30a15.906,15.906,0,0,0,5.456-4.432l-.752-1.088a12.294,12.294,0,0,1-4.672,3.936V19.184A9.9,9.9,0,0,1,96.272,18H94.8a7.594,7.594,0,0,1,.1,1.184v9.584A3.81,3.81,0,0,1,94.784,29.664Zm-7.328-.08,1.2.816A8.942,8.942,0,0,0,91.5,26a35,35,0,0,0,.5-6.8c0-.48.064-.96.08-1.152H90.608a5.894,5.894,0,0,1,.112,1.168,28.562,28.562,0,0,1-.48,6.432A7.594,7.594,0,0,1,87.456,29.584Zm30-10.224-.976-.624a3.285,3.285,0,0,1-.848.08H107.6c-.528,0-1.152-.048-1.6-.1v1.408c.416-.016.96-.048,1.6-.048h8.176a12.173,12.173,0,0,1-2.1,5.216,10.677,10.677,0,0,1-6.24,3.856l1.088,1.2a12.229,12.229,0,0,0,6.3-4.288,15.631,15.631,0,0,0,2.384-5.9A3.374,3.374,0,0,1,117.456,19.36Zm16.576-.112h-5.12V17.984h5.12Zm0,2.112h-5.12V20.08h5.12Zm1.1-4.272h-7.312v5.168h7.312Zm-8.672,7.856-1.632.736v-4.5h1.728v-1.12h-1.728V16.736h-1.1v3.328h-1.872v1.12h1.872v5.008c-.816.368-1.568.688-2.176.944l.464,1.168c1.344-.64,3.088-1.488,4.7-2.3Zm9.808-.784V23.152H126.256V24.16h2.24a9.06,9.06,0,0,1-3.168,3.2,5.215,5.215,0,0,1,.816.736,10.976,10.976,0,0,0,2.08-1.824h1.616a10.559,10.559,0,0,1-3.6,3.584,3.147,3.147,0,0,1,.784.736,12.084,12.084,0,0,0,3.888-4.32h1.552a9.411,9.411,0,0,1-3.12,4.32,3.626,3.626,0,0,1,.848.688,11.131,11.131,0,0,0,3.264-5.008H134.7c-.208,2.512-.448,3.52-.72,3.808-.112.16-.256.176-.48.176-.24,0-.768-.016-1.36-.064a2.018,2.018,0,0,1,.272.96c.64.032,1.232.032,1.584.016a1.3,1.3,0,0,0,.9-.4c.448-.464.7-1.712.944-5.008a4.566,4.566,0,0,0,.048-.48h-6.88a10,10,0,0,0,.688-1.12Zm6.336,6.736,1.088-.928a30.03,30.03,0,0,0-3.584-3.552l-1.04.912A26.657,26.657,0,0,1,142.608,30.9Zm16.464-1.408.928.8a2.472,2.472,0,0,1,.672-.288,18.507,18.507,0,0,0,9.36-5.712l-.72-1.12a17.266,17.266,0,0,1-8.752,5.456V19.552a10.348,10.348,0,0,1,.112-1.456h-1.584a9.748,9.748,0,0,1,.144,1.456V28.7A1.762,1.762,0,0,1,159.072,29.488Zm25.184-11.424-.88.368a17.89,17.89,0,0,1,1.456,2.528l.912-.416A23.622,23.622,0,0,0,184.256,18.064Zm2.1-.768-.9.384a17.4,17.4,0,0,1,1.52,2.48l.912-.416A23.071,23.071,0,0,0,186.352,17.3Zm-8.928.528L176.7,18.9c.928.544,2.672,1.7,3.44,2.288l.752-1.1C180.208,19.584,178.368,18.352,177.424,17.824Zm-2.4,11.44.736,1.3a19.106,19.106,0,0,0,5.3-1.984,18.83,18.83,0,0,0,6.16-5.712l-.768-1.328a16.354,16.354,0,0,1-6.064,5.872A17.512,17.512,0,0,1,175.024,29.264Zm-.016-7.84-.72,1.088a35.35,35.35,0,0,1,3.5,2.192l.72-1.12C177.824,23.088,175.952,21.936,175.008,21.424Zm20.432-1.216-1.376.336a3.976,3.976,0,0,1,.384.96c.1.3.288.992.528,1.84-.976.176-1.728.32-1.952.352-.48.08-.88.144-1.328.176l.32,1.216c.432-.1,1.744-.352,3.248-.656.624,2.288,1.392,5.12,1.6,5.84a8.936,8.936,0,0,1,.24,1.168l1.36-.352c-.1-.288-.256-.784-.352-1.088-.208-.7-.992-3.52-1.632-5.824,2.224-.448,4.48-.9,4.848-.96a14.77,14.77,0,0,1-2.752,3.3l1.136.56A22.133,22.133,0,0,0,203.12,22.4l-.8-.56a3.38,3.38,0,0,1-.608.192c-.544.128-3.264.656-5.52,1.088-.24-.848-.432-1.536-.528-1.888C195.568,20.832,195.488,20.48,195.44,20.208Zm12.752,2.864V24.64c.5-.048,1.344-.08,2.224-.08H219.2c.72,0,1.392.064,1.712.08V23.072c-.352.032-.928.08-1.728.08h-8.768C209.52,23.152,208.672,23.1,208.192,23.072Zm19.216-.56c.032-.72.048-1.456.064-2.192h3.84v-1.1h-2.784V16.64h-1.12v2.576h-2.816v1.1h1.744c-.064,3.936-.256,7.9-1.92,10.112a3.3,3.3,0,0,1,.9.784c1.344-1.808,1.84-4.576,2.032-7.616h1.92c-.1,4.448-.192,6-.464,6.368a.488.488,0,0,1-.5.224c-.224,0-.816,0-1.472-.064a2.845,2.845,0,0,1,.3,1.056,11.827,11.827,0,0,0,1.7,0,1.155,1.155,0,0,0,.928-.512c.4-.528.5-2.32.608-7.616.016-.16.016-.544.016-.544Zm11.648-2.576V18.848h-5.712a19.347,19.347,0,0,0,.592-2l-1.152-.24a11.662,11.662,0,0,1-2.352,5.072,9.248,9.248,0,0,1,.912.832,11.116,11.116,0,0,0,1.552-2.576Zm-4.864,10.192c-.88,0-1.024-.128-1.024-.736V24.944l1.5-.72v4.3H235.7V23.744l1.712-.816c0,1.9-.032,3.312-.08,3.552-.048.272-.144.3-.336.3a7.869,7.869,0,0,1-.832-.016,3.076,3.076,0,0,1,.256.928,4.3,4.3,0,0,0,1.2-.1.869.869,0,0,0,.72-.864c.064-.448.1-2.464.1-4.736l.048-.192-.752-.272-.192.144-.08.08-1.76.816V20.528h-1.024v2.528l-1.5.7V21.776H232.1v2.5l-1.408.656.448.976.96-.448v3.92c0,1.408.432,1.76,2.016,1.76h3.248c1.344,0,1.7-.528,1.84-2.416a3.313,3.313,0,0,1-1.008-.432c-.064,1.536-.192,1.84-.9,1.84Zm13.04-12.96h-4.608v.96h4.608Zm.592,2.1h-6.032v.976h6.032Zm-1.6,7.392v2.688h-2.672V26.656Zm1.04-.976h-4.752v5.36h1.04V30.3h3.712Zm-4.72-1.184h4.736v-.96h-4.736Zm0-2.128h4.736v-.944h-4.736Zm7.664-4.192h2.736v2.848c0,1.136.288,1.44,1.264,1.44h1.1c.848,0,1.136-.464,1.232-2.336a2.641,2.641,0,0,1-.992-.432c-.032,1.536-.1,1.744-.384,1.744h-.8c-.256,0-.3-.064-.3-.416v-3.9h-4.992v1.92a3.69,3.69,0,0,1-1.776,3.408,5.789,5.789,0,0,1,.864.784,4.689,4.689,0,0,0,2.048-4.176Zm4.608,5.264-.208.048h-6.576v1.088h6.048a8.52,8.52,0,0,1-2.1,3.12,8.955,8.955,0,0,1-2.064-3.088l-1.056.32a10.8,10.8,0,0,0,2.24,3.488,10.885,10.885,0,0,1-3.776,1.76,4.146,4.146,0,0,1,.64,1.04,12.245,12.245,0,0,0,4.016-1.984,10.9,10.9,0,0,0,3.808,1.968,5.1,5.1,0,0,1,.768-1.008,10.159,10.159,0,0,1-3.68-1.728,10.383,10.383,0,0,0,2.7-4.72Zm10.8-6.144-1.408-.128a13.274,13.274,0,0,1-.5,2.768c-.624.048-1.232.08-1.808.08a15.092,15.092,0,0,1-1.952-.112l.08,1.2c.608.032,1.28.048,1.872.048.464,0,.944-.016,1.424-.048a23.678,23.678,0,0,1-3.424,5.984l1.232.64a28.3,28.3,0,0,0,3.488-6.752,21.7,21.7,0,0,0,2.912-.592l-.032-1.2a15.463,15.463,0,0,1-2.512.592C265.248,18.848,265.472,17.872,265.616,17.3Zm-.88,11.1c0-.736.8-1.28,1.968-1.28a5.547,5.547,0,0,1,1.648.24c.016.272.016.512.016.72,0,.88-.448,1.584-1.776,1.584C265.344,29.664,264.736,29.152,264.736,28.4Zm4.656-6.16h-1.248c.032,1.136.112,2.72.176,4.032a7.14,7.14,0,0,0-1.568-.16c-1.808,0-3.2.928-3.2,2.4,0,1.584,1.44,2.3,3.2,2.3,1.984,0,2.8-1.04,2.8-2.32,0-.192,0-.416-.016-.672a11.959,11.959,0,0,1,2.592,1.84l.688-1.088a10.977,10.977,0,0,0-3.328-1.984c-.032-.992-.1-2.032-.112-2.624C269.36,23.392,269.36,22.9,269.392,22.24Zm3.2.432.72-1.056a24.166,24.166,0,0,0-3.728-2.128l-.656.976A18.735,18.735,0,0,1,272.592,22.672Zm7.584-4.912-1.264.528c.752,1.728,1.6,3.6,2.336,4.928-1.728,1.184-2.768,2.48-2.768,4.144,0,2.4,2.16,3.3,5.168,3.3a29.6,29.6,0,0,0,5.056-.4l.016-1.424a23.807,23.807,0,0,1-5.12.544c-2.528,0-3.792-.832-3.792-2.16,0-1.216.9-2.272,2.384-3.232a46.621,46.621,0,0,1,4.432-2.448c.464-.24.864-.448,1.216-.656l-.64-1.168a9.992,9.992,0,0,1-1.136.752c-.88.5-2.336,1.2-3.744,2.048A36.469,36.469,0,0,1,280.176,17.76Zm7.936-.16-.864.368a16.533,16.533,0,0,1,1.312,2.224l.864-.384A22.948,22.948,0,0,0,288.112,17.6Zm1.76-.64-.848.352a16.248,16.248,0,0,1,1.344,2.208l.848-.384A18.606,18.606,0,0,0,289.872,16.96Zm7.968,6.96a10.63,10.63,0,0,0-3.184-7.616l-.96.5a10.005,10.005,0,0,1,0,14.24l.96.5A10.63,10.63,0,0,0,297.84,23.92Z" transform="translate(278 4025)"/>
    <path id="パス_3147" data-name="パス 3147" d="M-142.528-5.664H-149.2V-7.28h6.672Zm-6.672,2.7V-4.64h6.672v1.68Zm9.712-7.248v-1.12h-8.144c.24-.576.432-1.184.624-1.776l-1.184-.288a20.948,20.948,0,0,1-.7,2.064h-4.512v1.12h4.016a13.375,13.375,0,0,1-4.4,5.328,5.806,5.806,0,0,1,.768.912,13.194,13.194,0,0,0,2.656-2.512v7.7h1.168V-1.936h6.672V-.272c0,.24-.1.32-.368.336-.288,0-1.248.016-2.3-.032a4.544,4.544,0,0,1,.384,1.168,9.811,9.811,0,0,0,2.784-.208c.512-.192.672-.544.672-1.264v-8.08h-7.712c.352-.592.672-1.232.976-1.856Zm13.264,2.64.176.9c1.008-.1,2.144-.176,3.344-.3a3.242,3.242,0,0,1,.192.656l.768-.368a8.621,8.621,0,0,0-.992-2.3l-.736.3a9.686,9.686,0,0,1,.464.912l-1.7.112c.768-1.056,1.616-2.432,2.288-3.568l-.864-.416c-.256.56-.608,1.216-.992,1.872-.192-.224-.448-.464-.7-.72.4-.64.912-1.568,1.312-2.368l-.928-.368a19.041,19.041,0,0,1-.976,2.24c-.128-.112-.256-.192-.368-.288l-.5.656a10.15,10.15,0,0,1,1.68,1.616,16.407,16.407,0,0,1-.96,1.408Zm-5.52.16.176.944c.976-.1,2.08-.208,3.232-.3a4.364,4.364,0,0,1,.128.544l.784-.336a8.4,8.4,0,0,0-.9-2.3l-.736.272a8.051,8.051,0,0,1,.432.992l-1.568.1a41.086,41.086,0,0,0,2.4-3.728l-.864-.416c-.256.56-.608,1.216-.992,1.872a5.61,5.61,0,0,0-.688-.7c.4-.656.88-1.6,1.3-2.384l-.928-.368a18.856,18.856,0,0,1-.96,2.24l-.384-.288-.5.656a11.809,11.809,0,0,1,1.7,1.632c-.368.56-.736,1.1-1.072,1.552Zm7.712,3.36A7.289,7.289,0,0,1-125.3-2.1a14.609,14.609,0,0,1-.576-2.208h3.9v-.96h-1.312l.336-.352a8.028,8.028,0,0,0-1.7-1.152l-.56.576a8.72,8.72,0,0,1,1.344.928h-2.176a52.113,52.113,0,0,1-.48-8.112h-1.072a58.01,58.01,0,0,0,.512,8.112h-4.48l.064-.1c-.24-.448-1.328-2.192-1.744-2.768v-.72h1.728V-9.936h-1.728v-3.456H-134.3v3.456h-2.016v1.088h1.9a18.6,18.6,0,0,1-2.24,6.016,6.249,6.249,0,0,1,.592.992,17.635,17.635,0,0,0,1.76-4.352V1.2h1.072V-6.784c.432.8.928,1.776,1.136,2.288l.5-.7v.9h1.136c-.16,1.9-.592,3.7-2.048,4.7a3.334,3.334,0,0,1,.72.784,5.73,5.73,0,0,0,2.1-3.52,15.678,15.678,0,0,1,1.728,1.344l.672-.816A17.321,17.321,0,0,0-129.5-3.376c.032-.3.08-.608.1-.928h2.5a15.407,15.407,0,0,0,.816,2.992,10.4,10.4,0,0,1-2.992,1.76,6.672,6.672,0,0,1,.64.752,11.592,11.592,0,0,0,2.784-1.6,2.719,2.719,0,0,0,2.32,1.648c1.056,0,1.408-.528,1.6-2.32a2.543,2.543,0,0,1-.816-.528c-.08,1.44-.256,1.824-.72,1.824-.608,0-1.136-.464-1.584-1.312a8.885,8.885,0,0,0,1.856-2.576Zm9.1-6.112v2h1.056v-2h1.888v-.928h-4.8V-11.9a25.65,25.65,0,0,0,4.384-.7l-.8-.736a27.682,27.682,0,0,1-3.7.656l-.944-.272v1.584a4.245,4.245,0,0,1-1.328,3.328,3.312,3.312,0,0,1,.8.768,4.988,4.988,0,0,0,1.488-2.88Zm-.96,6.88h8.064v1.152h-8.064Zm0-1.888h8.064v1.12h-8.064Zm0-1.872h8.064v1.1h-8.064Zm-1.136,5.712h10.384V-7.84h-10.384Zm2.7.16A18.322,18.322,0,0,1-119.008.368a9.252,9.252,0,0,1,.88.9,22.8,22.8,0,0,0,4.88-1.92Zm3.728.656a35.074,35.074,0,0,1,4.464,1.76l1.312-.592c-1.168-.528-3.072-1.216-4.8-1.776Zm.288-10.576a2.956,2.956,0,0,0,.016-.368v-.432a28.837,28.837,0,0,0,4.688-.688l-.8-.752a26.372,26.372,0,0,1-4.032.64l-.912-.224v1.424a3.05,3.05,0,0,1-1.536,2.752,2.643,2.643,0,0,1,.736.784,3.927,3.927,0,0,0,1.664-2.208h2.224v2.032h1.072V-10.16h2.368v-.928ZM-88.112-5.6a5.8,5.8,0,0,0-6.128-5.888,6.82,6.82,0,0,0-6.992,6.512c0,2.64,1.424,4.272,2.848,4.272,1.488,0,2.752-1.68,3.728-4.976a31.474,31.474,0,0,0,.96-4.608,4.456,4.456,0,0,1,4.272,4.64A4.832,4.832,0,0,1-93.488-.9a12.086,12.086,0,0,1-1.376.208L-94.112.5C-90.32,0-88.112-2.24-88.112-5.6Zm-11.872.512a5.581,5.581,0,0,1,4.96-5.184,26.141,26.141,0,0,1-.9,4.32c-.816,2.7-1.664,3.776-2.416,3.776C-99.056-2.176-99.984-3.072-99.984-5.088Zm27.04-7.056h-1.5a11.479,11.479,0,0,1,.08,1.392v2.528c0,3.024-.192,4.32-1.328,5.648A7.335,7.335,0,0,1-79.52-.448l1.04,1.1A8.546,8.546,0,0,0-74.672-1.68c1.152-1.376,1.68-2.64,1.68-6.48v-2.592C-72.992-11.3-72.976-11.744-72.944-12.144Zm-7.424.128h-1.456c.032.3.064.864.064,1.152v5.328A10.485,10.485,0,0,1-81.84-4.3h1.472c-.032-.288-.064-.816-.064-1.216v-5.344C-80.432-11.248-80.4-11.712-80.368-12.016ZM-56.56-7.344V-7.92h1.76c.7,0,1.3.032,1.472.048V-9.216a11.764,11.764,0,0,1-1.472.08h-1.76v-2a12.131,12.131,0,0,1,.08-1.312h-1.44a8.92,8.92,0,0,1,.08,1.312v2H-62.4v-2.048a9.875,9.875,0,0,1,.08-1.168h-1.424a9.881,9.881,0,0,1,.064,1.168v2.048h-1.728a11.73,11.73,0,0,1-1.6-.112v1.392c.192-.016.912-.064,1.6-.064h1.728v2.592c0,.608-.048,1.3-.064,1.456h1.408c-.016-.16-.064-.864-.064-1.456V-7.92h4.56v.672c0,4.48-1.456,5.856-4.368,6.976L-61.136.736C-57.472-.9-56.56-3.088-56.56-7.344Zm7.136,1.568.64,1.248a31.6,31.6,0,0,0,6.1-2.608v5.92A14.842,14.842,0,0,1-42.784.5h1.568a12.074,12.074,0,0,1-.1-1.712V-7.968a26.176,26.176,0,0,0,4.32-3.568l-1.072-.992a19.064,19.064,0,0,1-4.368,3.76A26.449,26.449,0,0,1-49.424-5.776Zm24.176-6.656-1.488-.48a5.479,5.479,0,0,1-.5,1.264A13.19,13.19,0,0,1-32.256-6.24l1.1.832a16.22,16.22,0,0,0,4.064-3.936h5.408a13.154,13.154,0,0,1-2.56,4.992A12.944,12.944,0,0,1-30.624-.336L-29.472.7A14.028,14.028,0,0,0-23.1-3.648a15.519,15.519,0,0,0,2.848-5.5A5.028,5.028,0,0,1-19.888-10l-1.072-.656A2.678,2.678,0,0,1-22-10.5h-4.336a7.191,7.191,0,0,0,.384-.672A12.1,12.1,0,0,1-25.248-12.432ZM-8.656-.336l.848.7A3.423,3.423,0,0,1-7.264,0,15.906,15.906,0,0,0-1.808-4.432L-2.56-5.52A12.294,12.294,0,0,1-7.232-1.584v-9.232A9.9,9.9,0,0,1-7.168-12H-8.64a7.593,7.593,0,0,1,.1,1.184v9.584A3.81,3.81,0,0,1-8.656-.336Zm-7.328-.08,1.2.816A8.942,8.942,0,0,0-11.936-4a35,35,0,0,0,.5-6.8c0-.48.064-.96.08-1.152h-1.472a5.894,5.894,0,0,1,.112,1.168,28.562,28.562,0,0,1-.48,6.432A7.594,7.594,0,0,1-15.984-.416ZM7.6-12.656l-1.312-.112a8.2,8.2,0,0,1-.4,2c-.352.016-.72.016-1.056.016a23.418,23.418,0,0,1-2.7-.176v1.2c.88.064,1.936.1,2.624.1h.7a16.878,16.878,0,0,1-3.7,4.9l1.088.8A21.137,21.137,0,0,1,4.3-5.6,4.212,4.212,0,0,1,7.056-6.768a1.335,1.335,0,0,1,1.456.992C6.64-4.8,4.736-3.616,4.736-1.728,4.736.224,6.576.72,8.864.72A37.586,37.586,0,0,0,13.248.432l.032-1.28a28.491,28.491,0,0,1-4.368.384c-1.648,0-2.9-.192-2.9-1.44,0-1.056,1.04-1.9,2.528-2.688,0,.848-.016,1.888-.048,2.5H9.728C9.712-2.88,9.7-4.24,9.68-5.168c1.216-.576,2.352-1.04,3.248-1.376a13.932,13.932,0,0,1,1.424-.512l-.528-1.2c-.448.24-.832.416-1.312.624-.832.384-1.808.768-2.9,1.3a2.066,2.066,0,0,0-2.144-1.44,4.581,4.581,0,0,0-2.224.592,12.7,12.7,0,0,0,1.44-2.48A46.28,46.28,0,0,0,12-10.112l.016-1.184a39.35,39.35,0,0,1-4.88.5A16.334,16.334,0,0,0,7.6-12.656ZM21.264-1.12V-3.744h8.368V-1.12ZM29.632-7.5V-4.88H21.264V-7.5Zm0-3.728V-8.64H21.264v-2.592ZM20.1-12.384V1.136h1.168V.048h8.368V1.136h1.232v-13.52Zm20.816,5.84c-.656.208-1.328.4-1.968.576V-9.056h1.872v-1.1H38.944v-3.216H37.776v3.216H35.552v1.1h2.224v3.44c-.912.256-1.744.48-2.416.656L35.7-3.808c.624-.192,1.328-.4,2.08-.624V-.176c0,.24-.08.3-.3.3-.192.016-.864.016-1.584,0a4.162,4.162,0,0,1,.368,1.088,5.27,5.27,0,0,0,2.112-.208c.416-.192.576-.512.576-1.184V-4.784l2.112-.656Zm7.264,1.808v1.584H42.992V-4.736ZM42.992-.5v-1.68h5.184V-.5ZM41.856,1.216h1.136V.48h5.184v.672h1.168V-5.76H41.856ZM44.24-8.176c-1.024,0-1.216-.1-1.216-.64V-9.968a37.029,37.029,0,0,0,6.032-1.584l-.912-.88a29.918,29.918,0,0,1-5.12,1.488v-2.384H41.856v4.512c0,1.376.5,1.728,2.32,1.728H47.9c1.584,0,1.952-.544,2.128-2.624a3.44,3.44,0,0,1-1.088-.464c-.1,1.728-.24,2-1.12,2Zm13.28-4.288L55.9-12.48a8.444,8.444,0,0,1,.128,1.632c0,1.68-.16,5.728-.16,8.1,0,2.608,1.584,3.568,3.888,3.568A8.042,8.042,0,0,0,66.448-2.72l-.912-1.088A6.666,6.666,0,0,1,59.808-.5c-1.52,0-2.624-.624-2.624-2.384,0-2.384.112-6.16.192-7.968A13.776,13.776,0,0,1,57.52-12.464Zm20.768,8.64-1.2-.112a10,10,0,0,0-.24,1.888C76.848-.464,78.224.3,80.752.3A21.271,21.271,0,0,0,83.84.08l.048-1.3a15.4,15.4,0,0,1-3.12.32c-2.288,0-2.7-.736-2.7-1.488A5.657,5.657,0,0,1,78.288-3.824Zm-1.84-8.768-1.536-.128a6.4,6.4,0,0,1-.048,1.328c-.048.32-.128.832-.24,1.392-.624.048-1.2.08-1.728.08a14.5,14.5,0,0,1-1.92-.112l.048,1.248c.576.032,1.152.064,1.856.064.448,0,.944-.016,1.472-.048-.128.576-.272,1.184-.416,1.712A34.889,34.889,0,0,1,71.248.1l1.408.48a49.035,49.035,0,0,0,2.5-7.328c.192-.7.368-1.44.512-2.144a30.726,30.726,0,0,0,3.328-.544V-10.7a23.688,23.688,0,0,1-3.072.576c.1-.432.176-.848.24-1.184C76.224-11.632,76.352-12.24,76.448-12.592Zm1.5,4.88v1.184a26.292,26.292,0,0,1,2.976-.16,20.23,20.23,0,0,1,2.688.192l.032-1.216a25.61,25.61,0,0,0-2.768-.144C79.856-7.856,78.8-7.792,77.952-7.712Zm12.256-3.456L88.656-11.2a7.217,7.217,0,0,1,.112,1.424c0,.928.032,2.88.176,4.272C89.376-1.36,90.832.144,92.352.144,93.424.144,94.4-.784,95.36-3.5L94.352-4.64c-.416,1.6-1.168,3.264-1.984,3.264-1.136,0-1.92-1.776-2.176-4.448-.112-1.328-.128-2.784-.112-3.792A12.182,12.182,0,0,1,90.208-11.168Zm8.336.448-1.248.432c1.536,1.872,2.5,5.152,2.784,8.048l1.28-.528A17.2,17.2,0,0,0,98.544-10.72Zm12.64-2.7a18.917,18.917,0,0,1-6.672,6.4,3.994,3.994,0,0,1,.752.928,20.872,20.872,0,0,0,6.592-6.16,22,22,0,0,0,6.72,6.064,6.945,6.945,0,0,1,.784-1.024,20.018,20.018,0,0,1-6.976-6.208Zm1.44,9.12h4.592V-5.376h-4.592V-9.1h-1.232V-.336h-3.024V-6.224h-1.184V-.336h-2v1.1H118.7v-1.1h-6.08Zm18.96-5.232a14.626,14.626,0,0,1-.816,1.664l.16.048h-3.76l.512-.112a6.779,6.779,0,0,0-.8-1.6Zm4.592,6.96V-3.584H129.76V-4.768h5.008V-5.68H129.76V-6.848h5.792v-.976H131.92c.32-.48.672-1.1.992-1.712h3.2V-10.56h-2.48a22.373,22.373,0,0,0,1.408-2.3l-1.216-.32a18.151,18.151,0,0,1-1.216,2.432l.592.192h-1.936v-2.832h-1.12v2.832h-1.9v-2.832h-1.1v2.832h-1.968l.816-.3a11.028,11.028,0,0,0-1.36-2.352l-1.008.336a12.472,12.472,0,0,1,1.264,2.32h-2.544v1.024h3.9l-.56.112a6.718,6.718,0,0,1,.784,1.6h-3.488v.976h5.616V-5.68h-4.816v.912h4.816v1.184h-6.32v1.008H127.5a15.42,15.42,0,0,1-5.648,2.528A5.1,5.1,0,0,1,122.624.96a16.079,16.079,0,0,0,5.968-3.152V1.216h1.168V-2.272a15.1,15.1,0,0,0,6.016,3.28,4.278,4.278,0,0,1,.8-1.056,14.639,14.639,0,0,1-5.712-2.528Zm8.432-2.416c-.272-.432-1.472-2.24-1.92-2.832V-8.832h1.824v-1.1h-1.824v-3.456H141.6v3.456h-2.24v1.1h2.112a17.367,17.367,0,0,1-2.432,6,6.638,6.638,0,0,1,.608,1.024A16.706,16.706,0,0,0,141.6-6.272V1.2h1.088V-6.416c.48.8,1.04,1.792,1.264,2.3Zm3.232,2.208c-1.456.8-2.96,1.616-3.968,2.128l.56.992c1.088-.608,2.448-1.392,3.728-2.144Zm-2.816-2.144a11.606,11.606,0,0,1,1.6,2.144l.864-.608a11.193,11.193,0,0,0-1.648-2.064Zm6.32,2.224A21.461,21.461,0,0,0,153.52-4.88l-.912-.64a16.448,16.448,0,0,1-1.968,2.144,9.877,9.877,0,0,1-.96-2.08V-6.1h4.032V-7.1H149.68V-8.336h3.456v-.928H149.68V-10.4h3.808v-.976h-2.112c.3-.48.656-1.1.992-1.7l-1.168-.336a13.927,13.927,0,0,1-.928,1.984l.144.048h-2.784l.288-.112a8.5,8.5,0,0,0-.96-1.84l-.928.3a11.941,11.941,0,0,1,.8,1.648h-2v.976h3.7v1.136H145.3v.928h3.232V-7.1H144.5V-6.1h4.032V-.112c0,.208-.048.272-.256.272-.208.016-.9.016-1.6,0a3.889,3.889,0,0,1,.336,1.088,5.983,5.983,0,0,0,2.128-.208c.416-.192.544-.512.544-1.152V-3.2A8.408,8.408,0,0,0,153.232.544,5.058,5.058,0,0,1,154-.416a7.025,7.025,0,0,1-3.168-2.672ZM-83.28,23.92A10.63,10.63,0,0,0-80.1,31.536l.96-.5a10.012,10.012,0,0,1-2.976-7.12,10.012,10.012,0,0,1,2.976-7.12l-.96-.5A10.63,10.63,0,0,0-83.28,23.92Zm9.152-4.976h12.064V17.92h-5.984v-1.3h-1.216v1.3h-5.968v5.136c0,2.256-.128,5.312-1.344,7.456a5.453,5.453,0,0,1,.912.688c1.344-2.288,1.536-5.712,1.536-8.128Zm7.376,7.424h-2.48V24.432h2.48Zm2.5-1.936v-.1A9.037,9.037,0,0,0-62.4,25.5a4.663,4.663,0,0,1,.752-.912A7.675,7.675,0,0,1-64.016,23.1a12.709,12.709,0,0,0,2-1.376l-.8-.592A14.584,14.584,0,0,1-64.64,22.48a9.1,9.1,0,0,1-.784-.976,12.291,12.291,0,0,0,1.9-1.424l-.784-.592a11.233,11.233,0,0,1-1.584,1.28,10.427,10.427,0,0,1-.688-1.488l-.976.288a11.372,11.372,0,0,0,2.32,3.84h-5.312a9.894,9.894,0,0,0,1.984-3.36l-.688-.336-.208.048h-3.472v.928H-69.9a7.9,7.9,0,0,1-1.056,1.664,11.932,11.932,0,0,0-1.712-1.168l-.64.656a16.593,16.593,0,0,1,1.664,1.232,8.551,8.551,0,0,1-2.512,1.712,4.987,4.987,0,0,1,.688.848,9.549,9.549,0,0,0,1.84-1.2h1.312v1.936h-2.96v1.04h2.88c-.224,1.168-1.008,2.24-3.472,2.992a4.474,4.474,0,0,1,.7.88c2.848-.912,3.68-2.32,3.872-3.872h2.544v2.24c0,1.216.3,1.52,1.5,1.52h1.792c.992,0,1.3-.48,1.408-2.352a2.728,2.728,0,0,1-.992-.416c-.048,1.5-.128,1.776-.544,1.776h-1.5c-.464,0-.528-.08-.528-.528v-2.24h3.072v-1.04h-3.072V24.432Zm14.72-5.6-.592.5c.528.224,1.088.5,1.648.784-2.032.048-4.064.08-5.9.112.4-.416.8-.912,1.184-1.392Zm-8.672,2.432c2.864-.064,7.12-.192,11.152-.336.416.272.8.528,1.088.752l.768-.7a22.454,22.454,0,0,0-3.872-2.144h4.32v-.976h-6.5V16.608h-1.2v1.248h-6.4v.976h4.24A13.7,13.7,0,0,1-55.7,20.24c-.944.016-1.808.016-2.56.016Zm2.864,2.288h2.9v1.216h-2.9Zm6.992,0v1.216h-2.976V23.552Zm3.568,4.08v-.976h-6.5v-.992h4.064V23.552h2.432v-.928h-2.432v-.992h-1.136v.992h-2.976V21.5h-1.12v1.12h-2.9v-.992h-1.088v.992H-58.88v.928h2.448v2.112h3.968v.992H-58.88v.976h5.216a15.674,15.674,0,0,1-5.52,2.5,4,4,0,0,1,.736.928,15.861,15.861,0,0,0,5.984-3.248V31.2h1.184V27.824a15.324,15.324,0,0,0,6.048,3.168,3.619,3.619,0,0,1,.768-.944,15.535,15.535,0,0,1-5.648-2.416Zm8.928-2.864-.16-1.056-1.856.576V21.024h1.632V19.872h-1.632V16.624h-1.1v3.248h-1.232c.112-.7.224-1.44.3-2.16l-1.04-.176a18.723,18.723,0,0,1-1.1,5.328,5.655,5.655,0,0,1,.912.528,12.664,12.664,0,0,0,.7-2.368h1.456v3.568c-1.12.352-2.144.624-2.96.848l.32,1.136c.784-.24,1.7-.528,2.64-.816v5.472h1.1V25.408Zm2.224-5.488a22.884,22.884,0,0,0,.7-2.448l-1.088-.224a13.667,13.667,0,0,1-2.8,6.144,8,8,0,0,1,.912.688A13.194,13.194,0,0,0-34.08,20.4H-32.7c-.736,2.56-2.16,5.232-3.856,6.56a3.882,3.882,0,0,1,.944.688c1.744-1.52,3.216-4.512,3.936-7.248h1.312c-.832,4.016-2.56,7.952-5.184,9.84a3.6,3.6,0,0,1,.992.72c2.656-2.112,4.416-6.368,5.216-10.56h.768c-.32,6.336-.672,8.7-1.184,9.264a.678.678,0,0,1-.592.272c-.32,0-.96-.016-1.68-.08a2.582,2.582,0,0,1,.336,1.168,9.8,9.8,0,0,0,1.824,0,1.376,1.376,0,0,0,1.1-.608c.64-.8.992-3.28,1.344-10.528.016-.144.016-.608.016-.608Zm22.88,5.12a5.8,5.8,0,0,0-6.128-5.888,6.82,6.82,0,0,0-6.992,6.512c0,2.64,1.424,4.272,2.848,4.272,1.488,0,2.752-1.68,3.728-4.976a31.474,31.474,0,0,0,.96-4.608,4.456,4.456,0,0,1,4.272,4.64A4.832,4.832,0,0,1-16.128,29.1a12.086,12.086,0,0,1-1.376.208l.752,1.184C-12.96,30-10.752,27.76-10.752,24.4Zm-11.872.512a5.581,5.581,0,0,1,4.96-5.184,26.142,26.142,0,0,1-.9,4.32c-.816,2.7-1.664,3.776-2.416,3.776C-21.7,27.824-22.624,26.928-22.624,24.912Zm18.608,1.232V21.52h1.728V20.384H-4.016V16.816h-1.12v3.568H-7.1V21.52h1.968v5.056c-.864.32-1.648.624-2.272.832l.416,1.2c1.44-.592,3.344-1.36,5.088-2.112l-.224-1.1Zm4.336.928H2.768v2.144H.32Zm2.448-4.256H.32v-2.1H2.768Zm0,3.184H.32V23.888H2.768ZM7.36,29.216H3.936V27.072h2.72V26H3.936V23.888h2.72V22.816H3.936v-2.1h3.1V19.632H3.92c.416-.784.864-1.744,1.232-2.592l-1.28-.3a21.077,21.077,0,0,1-1.12,2.9H.4a23.049,23.049,0,0,0,1.072-2.768L.32,16.592a14.889,14.889,0,0,1-3.344,6.08,6.844,6.844,0,0,1,.9.912A12.668,12.668,0,0,0-.848,21.92V31.2H.32v-.912H7.36Zm4.7-4.592c.032-.624.032-1.216.032-1.76V21.92h2.24v2.7Zm2.272-6.432v2.64H12.1v-2.64Zm1.12-1.088H11.008v5.76c0,2.352-.08,5.584-1.12,7.84a3.251,3.251,0,0,1,.976.544,17,17,0,0,0,1.152-5.5h2.32v3.888c0,.224-.08.3-.288.32-.192,0-.864,0-1.6-.032a4.068,4.068,0,0,1,.352,1.168,5.159,5.159,0,0,0,2.112-.24c.4-.192.544-.544.544-1.2Zm4.336,1.424V23.12H17.84V18.528Zm2.96,4.592H20.816V18.528h1.936Zm-3.792,6.7c-.944,0-1.12-.192-1.12-1.056V24.256h4.912V25.1H23.9V17.392H16.688v11.36c0,1.76.544,2.208,2.192,2.208H22.4c1.68,0,2.032-.912,2.224-3.52a4.2,4.2,0,0,1-1.1-.48c-.112,2.288-.272,2.864-1.184,2.864ZM31.6,16.864a17.7,17.7,0,0,1-4.64,6.448,7.94,7.94,0,0,1,.72,1.2,19.089,19.089,0,0,0,2.08-2.256v8.928h1.2V20.576a21.487,21.487,0,0,0,1.776-3.328Zm4.992,13.008c-.88,0-1.056-.192-1.056-1.088v-4.64a37.652,37.652,0,0,0,5.632-3.488l-.848-1.024a28.006,28.006,0,0,1-4.784,3.312V16.992h-1.2V28.768c0,1.744.512,2.224,2.176,2.224h3.28c1.648,0,2-.912,2.192-3.5a3.819,3.819,0,0,1-1.136-.512c-.112,2.32-.256,2.9-1.136,2.9ZM51.056,17.3l-1.408-.128a13.272,13.272,0,0,1-.5,2.768c-.624.048-1.232.08-1.808.08a15.092,15.092,0,0,1-1.952-.112l.08,1.2c.608.032,1.28.048,1.872.048.464,0,.944-.016,1.424-.048a23.677,23.677,0,0,1-3.424,5.984l1.232.64a28.3,28.3,0,0,0,3.488-6.752,21.7,21.7,0,0,0,2.912-.592l-.032-1.2a15.463,15.463,0,0,1-2.512.592C50.688,18.848,50.912,17.872,51.056,17.3Zm-.88,11.1c0-.736.8-1.28,1.968-1.28a5.547,5.547,0,0,1,1.648.24c.016.272.016.512.016.72,0,.88-.448,1.584-1.776,1.584C50.784,29.664,50.176,29.152,50.176,28.4Zm4.656-6.16H53.584c.032,1.136.112,2.72.176,4.032a7.14,7.14,0,0,0-1.568-.16c-1.808,0-3.2.928-3.2,2.4,0,1.584,1.44,2.3,3.2,2.3,1.984,0,2.8-1.04,2.8-2.32,0-.192,0-.416-.016-.672a11.959,11.959,0,0,1,2.592,1.84l.688-1.088a10.977,10.977,0,0,0-3.328-1.984c-.032-.992-.1-2.032-.112-2.624C54.8,23.392,54.8,22.9,54.832,22.24Zm3.2.432.72-1.056a24.168,24.168,0,0,0-3.728-2.128l-.656.976A18.736,18.736,0,0,1,58.032,22.672Zm7.584-4.912-1.264.528c.752,1.728,1.6,3.6,2.336,4.928C64.96,24.4,63.92,25.7,63.92,27.36c0,2.4,2.16,3.3,5.168,3.3a29.6,29.6,0,0,0,5.056-.4l.016-1.424a23.807,23.807,0,0,1-5.12.544c-2.528,0-3.792-.832-3.792-2.16,0-1.216.9-2.272,2.384-3.232a46.623,46.623,0,0,1,4.432-2.448c.464-.24.864-.448,1.216-.656l-.64-1.168a9.992,9.992,0,0,1-1.136.752c-.88.5-2.336,1.2-3.744,2.048A36.475,36.475,0,0,1,65.616,17.76Zm7.936-.16-.864.368A16.532,16.532,0,0,1,74,20.192l.864-.384A22.949,22.949,0,0,0,73.552,17.6Zm1.76-.64-.848.352a16.251,16.251,0,0,1,1.344,2.208l.848-.384A18.6,18.6,0,0,0,75.312,16.96Zm7.968,6.96A10.63,10.63,0,0,0,80.1,16.3l-.96.5a10.005,10.005,0,0,1,0,14.24l.96.5A10.63,10.63,0,0,0,83.28,23.92Z" transform="translate(934 4025)"/>
    <path id="パス_3148" data-name="パス 3148" d="M12.7-10.432H10.368v-1.04H12.7Zm0,1.824H10.368V-9.664H12.7ZM3.5-9.664H5.712v1.056H3.5Zm0-1.808H5.712v1.04H3.5ZM9.2-9.664v1.056H6.864V-9.664Zm0-1.808v1.04H6.864v-1.04Zm4.656-.8H10.368v-1.12H9.2v1.12H6.864v-1.12H5.712v1.12H2.4v4.48H13.856ZM13.28-2.688a22.768,22.768,0,0,1-2.944,1.376A5.356,5.356,0,0,1,8.848-2.688ZM5.936-.3V-2.688H7.68A6.35,6.35,0,0,0,9.344-.72Zm7.488-2.384h1.664V-3.6H3.312c.048-.48.064-.96.064-1.376V-6.112H14.72v-.9H2.24v2.016A8.989,8.989,0,0,1,.7.64a5.273,5.273,0,0,1,1.008.608,8.536,8.536,0,0,0,1.5-3.936H4.784V-.16C4.272-.1,3.808-.048,3.392,0l.144,1.024C5.1.816,7.28.528,9.376.256L9.344-.72a10.342,10.342,0,0,0,5.248,1.936A3.536,3.536,0,0,1,15.3.192a12.2,12.2,0,0,1-4.08-1.008,24.746,24.746,0,0,0,2.976-1.216Zm-.08-1.76v-.816H4.288v.816Zm14.32-5.088a14.627,14.627,0,0,1-.816,1.664l.16.048h-3.76l.512-.112a6.779,6.779,0,0,0-.8-1.6Zm4.592,6.96V-3.584H25.84V-4.768h5.008V-5.68H25.84V-6.848h5.792v-.976H28c.32-.48.672-1.1.992-1.712h3.2V-10.56h-2.48a22.373,22.373,0,0,0,1.408-2.3l-1.216-.32a18.152,18.152,0,0,1-1.216,2.432l.592.192H27.344v-2.832h-1.12v2.832h-1.9v-2.832h-1.1v2.832H21.248l.816-.3a11.028,11.028,0,0,0-1.36-2.352L19.7-12.88a12.472,12.472,0,0,1,1.264,2.32H18.416v1.024h3.9l-.56.112a6.718,6.718,0,0,1,.784,1.6H19.056v.976h5.616V-5.68H19.856v.912h4.816v1.184h-6.32v1.008h5.232A15.42,15.42,0,0,1,17.936-.048,5.1,5.1,0,0,1,18.7.96a16.079,16.079,0,0,0,5.968-3.152V1.216H25.84V-2.272a15.1,15.1,0,0,0,6.016,3.28,4.278,4.278,0,0,1,.8-1.056,14.639,14.639,0,0,1-5.712-2.528ZM49.92-11.232a10.1,10.1,0,0,0-1.648-2.032l-.832.432a11.268,11.268,0,0,1,1.616,2.112Zm-9.52-1.6H36.016v.96H40.4Zm-.96,9.488V-.656H36.928V-3.344Zm1.024-.976H35.92V1.04h1.008V.3h3.536ZM35.936-5.5H40.48v-.96H35.936Zm0-2.128H40.48v-.944H35.936Zm-.7-2.128h5.632v-.976H35.232Zm8.8,8.224V-5.872h1.632V-6.9H41.248v1.024h1.7v4.56c-.752.16-1.44.288-2,.4L41.216.176c1.376-.32,3.184-.72,4.9-1.136l-.064-.992Zm5.7-7.6v-1.072h-2.5q-.024-1.512,0-3.168H46.08c.016,1.1.016,2.16.032,3.168H41.12v1.072h5.024c.144,6.3.624,10.3,2.576,10.368.528.016,1.1-.576,1.392-2.9a4.293,4.293,0,0,1-.88-.672c-.064,1.3-.24,2.112-.5,2.1-.944-.064-1.392-3.584-1.488-8.9Zm12.688-4.24A10.225,10.225,0,0,1,58.64-9.3a4.348,4.348,0,0,1,.592.928A12.056,12.056,0,0,0,63.008-12.3a13.033,13.033,0,0,0,3.808,3.792A7.1,7.1,0,0,1,67.44-9.52a11.355,11.355,0,0,1-3.952-3.856ZM53.056.336a7.7,7.7,0,0,0,.88-3.776l-.752-.144a7.1,7.1,0,0,1-.8,3.536ZM54.3-3.312a15.937,15.937,0,0,1,.224,2.928l.656-.1a16.071,16.071,0,0,0-.256-2.912Zm.032-3.68h1.552V-5.52H54.336Zm1.552-4.72v1.376H54.336v-1.376Zm0,3.76H54.336V-9.376h1.552Zm.976,2.432V-6.992H58.64v-.96H56.864V-9.376H58.64v-.96H56.864v-1.376h2.112V-12.72H53.312v8.16H58.08c-.048,1.072-.1,1.92-.16,2.576a9.629,9.629,0,0,0-.864-1.936l-.56.208a9.288,9.288,0,0,1,.864,2.08l.544-.224A4.6,4.6,0,0,1,57.52.112a.479.479,0,0,1-.432.16c-.208,0-.7,0-1.248-.032a2.386,2.386,0,0,1,.272.944,10.427,10.427,0,0,0,1.424,0,1.145,1.145,0,0,0,.848-.416c.368-.48.56-1.888.72-5.824.016-.16.016-.464.016-.464ZM56.7-1.04a11.485,11.485,0,0,0-.656-2.544l-.592.128A12.489,12.489,0,0,1,56.08-.88Zm3.872-3.1v-2.1h1.936v.528a10.443,10.443,0,0,1-.1,1.568Zm4.992-2.1v2.1h-2.08a12.607,12.607,0,0,0,.08-1.552V-6.24Zm1.04,3.008V-7.168h-3.04V-8.432h1.984v-.976H60.608v.976h1.9v1.264H59.568v3.936h2.64A5.96,5.96,0,0,1,58.656.384a4.072,4.072,0,0,1,.752.832,6.633,6.633,0,0,0,3.76-3.872A6.816,6.816,0,0,0,66.56,1.2a4.34,4.34,0,0,1,.752-.944,6.011,6.011,0,0,1-3.328-3.488ZM74.24-1.856H72.08v-4.72h2.16Zm-4.256-9.568h2A15.051,15.051,0,0,1,69.7-5.248a7.522,7.522,0,0,1,.544,1.264,9.278,9.278,0,0,0,.832-1.28V.5H72.08V-.784H75.3V-7.632H72.112a29.849,29.849,0,0,0,.992-3.792h2.48v-1.088h-5.6ZM78.9-6.8v-4.592h2.592V-6.8Zm5.52,0H82.624v-4.592h1.488v-1.12H76.448v1.12H77.76V-6.8H76v1.136h1.744C77.7-3.52,77.344-1.1,75.712.608a4.294,4.294,0,0,1,.9.688c1.808-1.872,2.224-4.528,2.272-6.96h2.608v6.88h1.136v-6.88h1.792Zm11.152-4.032v2.816c0,1.168.32,1.488,1.712,1.488h2.24c1.04,0,1.376-.368,1.5-1.824A3.289,3.289,0,0,1,99.968-8.8c-.032,1.056-.128,1.216-.56,1.216h-2c-.576,0-.672-.064-.672-.448v-2.8h3.28v1.648h1.232V-11.92h-6.24v-1.472h-1.2v1.472H87.7v2.864h1.168v-1.776h2.992c-.288,2.128-1.12,3.312-4.4,3.936a2.98,2.98,0,0,1,.608.944c3.664-.768,4.672-2.256,5.04-4.88ZM98.7-.032c-.448,0-.512-.064-.512-.5v-4.5H94V-6.976H92.816v1.952H88.24v1.1h4.448C92.352-2.432,91.12-.8,87.152.288a5.5,5.5,0,0,1,.8.976C92.384,0,93.632-2.016,93.92-3.92h3.04V-.528c0,1.312.352,1.648,1.568,1.648h1.664c1.1,0,1.44-.608,1.552-3.024a3.405,3.405,0,0,1-1.12-.512c-.048,2.08-.128,2.384-.56,2.384Zm15.952-7.536.176.9c1.008-.1,2.144-.176,3.344-.3a3.241,3.241,0,0,1,.192.656l.768-.368a8.621,8.621,0,0,0-.992-2.3l-.736.3a9.688,9.688,0,0,1,.464.912l-1.7.112c.768-1.056,1.616-2.432,2.288-3.568l-.864-.416c-.256.56-.608,1.216-.992,1.872-.192-.224-.448-.464-.7-.72.4-.64.912-1.568,1.312-2.368l-.928-.368a19.039,19.039,0,0,1-.976,2.24c-.128-.112-.256-.192-.368-.288l-.5.656a10.15,10.15,0,0,1,1.68,1.616,16.407,16.407,0,0,1-.96,1.408Zm-5.52.16.176.944c.976-.1,2.08-.208,3.232-.3a4.362,4.362,0,0,1,.128.544l.784-.336a8.4,8.4,0,0,0-.9-2.3l-.736.272a8.05,8.05,0,0,1,.432.992l-1.568.1a41.089,41.089,0,0,0,2.4-3.728l-.864-.416c-.256.56-.608,1.216-.992,1.872a5.61,5.61,0,0,0-.688-.7c.4-.656.88-1.6,1.3-2.384l-.928-.368a18.855,18.855,0,0,1-.96,2.24l-.384-.288-.5.656a11.809,11.809,0,0,1,1.7,1.632c-.368.56-.736,1.1-1.072,1.552Zm7.712,3.36A7.289,7.289,0,0,1,115.584-2.1a14.609,14.609,0,0,1-.576-2.208h3.9v-.96H117.6l.336-.352a8.028,8.028,0,0,0-1.7-1.152l-.56.576a8.72,8.72,0,0,1,1.344.928h-2.176a52.114,52.114,0,0,1-.48-8.112H113.3a58.009,58.009,0,0,0,.512,8.112h-4.48l.064-.1c-.24-.448-1.328-2.192-1.744-2.768v-.72h1.728V-9.936h-1.728v-3.456h-1.072v3.456H104.56v1.088h1.9a18.6,18.6,0,0,1-2.24,6.016,6.247,6.247,0,0,1,.592.992,17.635,17.635,0,0,0,1.76-4.352V1.2h1.072V-6.784c.432.8.928,1.776,1.136,2.288l.5-.7v.9h1.136c-.16,1.9-.592,3.7-2.048,4.7a3.334,3.334,0,0,1,.72.784,5.73,5.73,0,0,0,2.1-3.52,15.678,15.678,0,0,1,1.728,1.344l.672-.816a17.32,17.32,0,0,0-2.208-1.568c.032-.3.08-.608.1-.928h2.5a15.408,15.408,0,0,0,.816,2.992,10.4,10.4,0,0,1-2.992,1.76,6.671,6.671,0,0,1,.64.752,11.592,11.592,0,0,0,2.784-1.6,2.719,2.719,0,0,0,2.32,1.648c1.056,0,1.408-.528,1.6-2.32a2.543,2.543,0,0,1-.816-.528c-.08,1.44-.256,1.824-.72,1.824-.608,0-1.136-.464-1.584-1.312a8.886,8.886,0,0,0,1.856-2.576Zm10.256-7.76v1.232h-3.5v-1.232Zm-3.5,3.376V-9.76h3.5v1.328Zm4.624.88V-12.7h-5.792V1.232H123.6V-7.552Zm2.544-.848V-9.76H134.4V-8.4Zm3.632-3.408v1.232h-3.632v-1.232Zm1.168-.9h-5.936v5.168H134.4V-.208c0,.224-.064.3-.272.3-.192.016-.816.016-1.488-.016a3.9,3.9,0,0,1,.464-.528,4.993,4.993,0,0,1-3.5-2.24h3.52V-3.6h-3.776V-4.848h3.5v-.9H130.96c.256-.384.544-.848.816-1.28L130.7-7.376a11.482,11.482,0,0,1-.768,1.632h-2.08a5.106,5.106,0,0,0-.864-1.6l-.928.3a5.444,5.444,0,0,1,.72,1.3h-1.712v.9h3.216V-3.6H124.8v.912h3.312c-.32.832-1.2,1.744-3.456,2.368a4.591,4.591,0,0,1,.7.8c2.128-.656,3.136-1.552,3.6-2.448a5.7,5.7,0,0,0,3.472,2.4,1.7,1.7,0,0,1,.16-.272,3.973,3.973,0,0,1,.32,1.056,5.684,5.684,0,0,0,2.1-.208c.432-.208.56-.56.56-1.2Zm8.8,7.712c-.272-.432-1.472-2.24-1.92-2.832V-8.832h1.824v-1.1h-1.824v-3.456H141.36v3.456h-2.24v1.1h2.112a17.367,17.367,0,0,1-2.432,6,6.638,6.638,0,0,1,.608,1.024,16.706,16.706,0,0,0,1.952-4.464V1.2h1.088V-6.416c.48.8,1.04,1.792,1.264,2.3ZM147.6-2.784c-1.456.8-2.96,1.616-3.968,2.128l.56.992c1.088-.608,2.448-1.392,3.728-2.144Zm-2.816-2.144a11.606,11.606,0,0,1,1.6,2.144l.864-.608A11.193,11.193,0,0,0,145.6-5.456ZM151.1-2.7A21.461,21.461,0,0,0,153.28-4.88l-.912-.64A16.448,16.448,0,0,1,150.4-3.376a9.877,9.877,0,0,1-.96-2.08V-6.1h4.032V-7.1H149.44V-8.336H152.9v-.928H149.44V-10.4h3.808v-.976h-2.112c.3-.48.656-1.1.992-1.7l-1.168-.336a13.927,13.927,0,0,1-.928,1.984l.144.048h-2.784l.288-.112a8.5,8.5,0,0,0-.96-1.84l-.928.3a11.941,11.941,0,0,1,.8,1.648h-2v.976h3.7v1.136h-3.232v.928h3.232V-7.1h-4.032V-6.1h4.032V-.112c0,.208-.048.272-.256.272-.208.016-.9.016-1.6,0a3.889,3.889,0,0,1,.336,1.088A5.983,5.983,0,0,0,148.9,1.04c.416-.192.544-.512.544-1.152V-3.2A8.408,8.408,0,0,0,152.992.544a5.058,5.058,0,0,1,.768-.96,7.025,7.025,0,0,1-3.168-2.672Z" transform="translate(857 3813)"/>
    <path id="パス_3149" data-name="パス 3149" d="M2.784-5.376c.032-.624.032-1.216.032-1.76V-8.08h2.24v2.7Zm2.272-6.432v2.64H2.816v-2.64ZM6.176-12.9H1.728v5.76c0,2.352-.08,5.584-1.12,7.84a3.251,3.251,0,0,1,.976.544,17,17,0,0,0,1.152-5.5h2.32V-.368c0,.224-.08.3-.288.32-.192,0-.864,0-1.6-.032A4.068,4.068,0,0,1,3.52,1.088,5.159,5.159,0,0,0,5.632.848c.4-.192.544-.544.544-1.2Zm4.336,1.424V-6.88H8.56v-4.592Zm2.96,4.592H11.536v-4.592h1.936ZM9.68-.176c-.944,0-1.12-.192-1.12-1.056V-5.744h4.912V-4.9h1.152v-7.712H7.408v11.36C7.408.512,7.952.96,9.6.96h3.52c1.68,0,2.032-.912,2.224-3.52a4.2,4.2,0,0,1-1.1-.48c-.112,2.288-.272,2.864-1.184,2.864ZM28.656-10.3a12.334,12.334,0,0,0-2.512-1.952l-.608.8a13.218,13.218,0,0,1,2.512,2.064ZM27.968-6.48A12.446,12.446,0,0,0,25.28-8.272l-.56.832a11.975,11.975,0,0,1,2.656,1.92Zm-4.624-5.952a29.556,29.556,0,0,1-1.056,3.6l.768.256a32.738,32.738,0,0,0,1.312-3.6ZM20.016-8.864a14.539,14.539,0,0,0-.944-3.5l-.864.208a15.45,15.45,0,0,1,.864,3.552ZM21.76-6.928h2.608v-1.12H21.76v-5.28h-1.1v5.28H18.1v1.12h2.24a16.453,16.453,0,0,1-2.5,4.976A7.173,7.173,0,0,1,18.448-.8a18.35,18.35,0,0,0,2.208-4.56V1.216h1.1v-6.56c.576.9,1.328,2.128,1.616,2.72l.784-.928c-.352-.544-1.952-2.656-2.4-3.152Zm10.912,3.28L32.5-4.736,30.608-4.4v-8.976h-1.12v9.184l-5.152.912.192,1.1,4.96-.9V1.216h1.12v-4.5ZM42.56-7.776a1.687,1.687,0,0,0-1.7,1.7,1.687,1.687,0,0,0,1.7,1.7,1.687,1.687,0,0,0,1.7-1.7A1.687,1.687,0,0,0,42.56-7.776Zm18.752-3.552c-.384,1.456-1.344,2.256-3.952,2.72a3.25,3.25,0,0,1,.56.848c2.272-.448,3.456-1.2,4.08-2.384.592,1.152,1.76,2.176,4.48,2.656a3.364,3.364,0,0,1,.608-.96c-3.28-.48-4.176-1.648-4.528-2.88h2.56a6.5,6.5,0,0,1-.976,1.232l.944.336A10.289,10.289,0,0,0,66.7-12.032l-.8-.24-.192.048H60.24a10.143,10.143,0,0,0,.544-.992l-1.072-.176A6.948,6.948,0,0,1,57.3-10.528a3.01,3.01,0,0,1,.9.592,8.411,8.411,0,0,0,1.424-1.392Zm-5.392,8.1h8.016v1.12H55.92Zm0-1.872h8.016V-4H55.92Zm0-1.84h8.016v1.072H55.92ZM54.768-1.328H65.12V-7.744H54.768ZM57.3-11.808a20.493,20.493,0,0,0-3.344-1.232l-.528.816a19.325,19.325,0,0,1,3.344,1.344ZM57.1-10.064c-1.632.448-3.312.928-4.464,1.2l.464,1.04c1.2-.384,2.7-.848,4.144-1.312Zm.336,8.9A18.322,18.322,0,0,1,52.752.368a9.251,9.251,0,0,1,.88.9,22.8,22.8,0,0,0,4.88-1.92Zm3.728.656a35.074,35.074,0,0,1,4.464,1.76L66.944.656C65.776.128,63.872-.56,62.144-1.12ZM76.576-5.44c-.4-.464-2-2.336-2.592-2.976v-.416H76.16V-9.968H73.984v-3.424H72.8v3.424H70.144v1.136h2.48A15.991,15.991,0,0,1,69.6-2.816a5.264,5.264,0,0,1,.656,1.12A16.481,16.481,0,0,0,72.8-6.48V1.2h1.184V-6.976c.656.864,1.488,1.984,1.84,2.56ZM84.4-9.952H82.752V-13.36H81.536v3.408H76.768v1.136H81.12a17.584,17.584,0,0,1-5.28,6.544,5.364,5.364,0,0,1,.848.96A19.48,19.48,0,0,0,81.536-7.2V-.384c0,.288-.112.368-.4.384-.3,0-1.328.016-2.368-.016A5.277,5.277,0,0,1,79.2,1.2,9.255,9.255,0,0,0,82.016.96c.528-.176.736-.544.736-1.36V-8.816H84.4Zm14.96-1.7-1.472-.512a9.177,9.177,0,0,1-.32,1.184,17.9,17.9,0,0,1-2.176,4.368c-1.264-.976-3.12-2.288-4.5-3.168l-.832,1.008a50.058,50.058,0,0,1,4.512,3.232A17.764,17.764,0,0,1,88.224-.512L89.328.5A20.384,20.384,0,0,0,95.6-4.672a35.684,35.684,0,0,1,3.776,3.68l1.008-1.1A40.041,40.041,0,0,0,96.432-5.76a22.288,22.288,0,0,0,2.4-4.72A8.634,8.634,0,0,1,99.36-11.648Zm5.952,4.72V-5.36c.5-.048,1.344-.08,2.224-.08h8.784c.72,0,1.392.064,1.712.08V-6.928c-.352.032-.928.08-1.728.08h-8.768C106.64-6.848,105.792-6.9,105.312-6.928Zm23.776-5.664h-1.5a9.7,9.7,0,0,1,.112,1.328c0,.576-.032,1.12-.064,1.632h-2.816a16.746,16.746,0,0,1-1.824-.1v1.36a17.073,17.073,0,0,1,1.84-.064h2.688A10.288,10.288,0,0,1,124.352-1.7,7.886,7.886,0,0,1,122.7-.512l1.168.944c2.672-1.84,4.336-4.272,4.912-8.864h4.48c0,1.712-.208,5.648-.816,6.864a.866.866,0,0,1-.928.528,19.466,19.466,0,0,1-2.384-.176L129.3.112c.832.048,1.76.112,2.576.112a1.661,1.661,0,0,0,1.712-.976c.72-1.536.912-6.192.976-7.728a5,5,0,0,1,.08-.784l-.9-.448a5.767,5.767,0,0,1-1.024.08h-3.808c.032-.528.064-1.072.08-1.648C129.008-11.664,129.04-12.224,129.088-12.592Zm10.784,5.664V-5.36c.5-.048,1.344-.08,2.224-.08h8.784c.72,0,1.392.064,1.712.08V-6.928c-.352.032-.928.08-1.728.08H142.1C141.2-6.848,140.352-6.9,139.872-6.928Zm21.776,1.936c-.272-.432-1.472-2.24-1.92-2.832V-8.832h1.824v-1.1h-1.824v-3.456H158.64v3.456H156.4v1.1h2.112a17.367,17.367,0,0,1-2.432,6,6.638,6.638,0,0,1,.608,1.024,16.706,16.706,0,0,0,1.952-4.464V1.2h1.088V-6.416c.48.8,1.04,1.792,1.264,2.3Zm3.232,2.208c-1.456.8-2.96,1.616-3.968,2.128l.56.992c1.088-.608,2.448-1.392,3.728-2.144Zm-2.816-2.144a11.606,11.606,0,0,1,1.6,2.144l.864-.608a11.193,11.193,0,0,0-1.648-2.064Zm6.32,2.224A21.461,21.461,0,0,0,170.56-4.88l-.912-.64a16.448,16.448,0,0,1-1.968,2.144,9.877,9.877,0,0,1-.96-2.08V-6.1h4.032V-7.1H166.72V-8.336h3.456v-.928H166.72V-10.4h3.808v-.976h-2.112c.3-.48.656-1.1.992-1.7l-1.168-.336a13.927,13.927,0,0,1-.928,1.984l.144.048h-2.784l.288-.112a8.5,8.5,0,0,0-.96-1.84l-.928.3a11.941,11.941,0,0,1,.8,1.648h-2v.976h3.7v1.136h-3.232v.928h3.232V-7.1h-4.032V-6.1h4.032V-.112c0,.208-.048.272-.256.272-.208.016-.9.016-1.6,0a3.889,3.889,0,0,1,.336,1.088,5.983,5.983,0,0,0,2.128-.208c.416-.192.544-.512.544-1.152V-3.2A8.408,8.408,0,0,0,170.272.544a5.058,5.058,0,0,1,.768-.96,7.025,7.025,0,0,1-3.168-2.672Z" transform="translate(848 3917)"/>
    <g id="グループ_841" data-name="グループ 841" transform="translate(-53 -4108.324)">
      <path id="パス_3154" data-name="パス 3154" d="M7.1-9.088c-.576.512-1.28,1.12-1.632,1.44a.6.6,0,0,0-.176.256.245.245,0,0,0,.176.176.855.855,0,0,0,.352-.144,11.579,11.579,0,0,1,2.64-1.584,10.6,10.6,0,0,1,2.224-.384c.544-.048.736-.208.736-.512,0-.288-.128-.5-.528-.624a2.058,2.058,0,0,0-.576-.08,1.939,1.939,0,0,0-.464.112,9.293,9.293,0,0,1-1.424.32,10.771,10.771,0,0,1-1.52.144,6.321,6.321,0,0,1-1.184-.1,3.058,3.058,0,0,1-1.072-.416.377.377,0,0,0-.208-.08.174.174,0,0,0-.16.176.279.279,0,0,0,.064.192,2.464,2.464,0,0,0,1.008.784A4.242,4.242,0,0,0,7.1-9.088ZM4.128-5.456a.267.267,0,0,0-.208.16A2.609,2.609,0,0,0,3.488-3.76,2.573,2.573,0,0,0,5.232-1.328a7.738,7.738,0,0,0,3.024.512,24.194,24.194,0,0,0,3.568-.256c.576-.08.912-.24.912-.656s-.432-.688-1.024-.688a3.055,3.055,0,0,0-.976.144A9.531,9.531,0,0,1,8-1.936a6.041,6.041,0,0,1-2.9-.528A1.613,1.613,0,0,1,4.08-4.032a2.819,2.819,0,0,1,.192-1.056.628.628,0,0,0,.048-.224C4.32-5.392,4.224-5.456,4.128-5.456Zm20.784-4.88a6.965,6.965,0,0,1,.848-.032,4.634,4.634,0,0,1,2.976,1.04A4.037,4.037,0,0,1,30.08-6.272,4.52,4.52,0,0,1,28.64-2.96,8.893,8.893,0,0,1,24.288-.928C24.08-.88,24-.832,24-.7a.226.226,0,0,0,.224.192A9.549,9.549,0,0,0,29.552-2.3,4.524,4.524,0,0,0,31.28-6.048,4.568,4.568,0,0,0,29.5-9.68a5.885,5.885,0,0,0-3.712-1.232,6.838,6.838,0,0,0-5.12,2.1,5.822,5.822,0,0,0-1.5,3.776A3.514,3.514,0,0,0,19.9-2.672a1.476,1.476,0,0,0,1.2.64,2.142,2.142,0,0,0,1.616-1.04,16.111,16.111,0,0,0,2.288-4.144,6.391,6.391,0,0,0,.416-1.872A1.87,1.87,0,0,0,24.912-10.336Zm-.432.048a.992.992,0,0,1,.256.736,3.5,3.5,0,0,1-.224,1.264,17,17,0,0,1-2.288,4.16c-.464.624-.784.912-1.12.912a.9.9,0,0,1-.752-.544A2.762,2.762,0,0,1,20-5.248,4.987,4.987,0,0,1,21.392-8.7,5.646,5.646,0,0,1,24.48-10.288ZM43.152-2.032A12.915,12.915,0,0,1,46.48-.1a1.349,1.349,0,0,0,.736.336A.555.555,0,0,0,47.7-.4a1.031,1.031,0,0,0-.576-.8,14.011,14.011,0,0,0-3.984-1.712,50.837,50.837,0,0,1-.288-5.264,1.384,1.384,0,0,0,.912.288,6.139,6.139,0,0,0,1.344-.24A13.061,13.061,0,0,0,46.48-8.56c.24-.1.4-.208.4-.5,0-.32-.368-.512-.928-.512a1.128,1.128,0,0,0-.784.32,3.365,3.365,0,0,1-1.024.464,4.016,4.016,0,0,1-.912.208c-.24,0-.368-.016-.368-.224,0-.272.032-.9.064-1.28a.733.733,0,0,1,.224-.528.529.529,0,0,0,.176-.384c0-.288-.208-.448-.56-.72a2.394,2.394,0,0,0-1.28-.5,1.371,1.371,0,0,0-.688.24.194.194,0,0,0-.112.192c0,.1.064.128.16.144s.176.016.336.048a.937.937,0,0,1,.576.352c.128.16.144.368.144.912.016,2.608.1,4.72.224,7.232a9.833,9.833,0,0,0-1.36-.1c-1.488,0-2.928.544-2.928,1.808C37.84-.1,39.12.368,40.5.368c1.344,0,2.656-.464,2.656-2.128ZM42.128-2.3a1.8,1.8,0,0,1-.368,1.36,1.954,1.954,0,0,1-1.52.512c-1.232,0-1.84-.256-1.84-.96,0-.8,1.088-1.088,2.336-1.088A6.72,6.72,0,0,1,42.128-2.3ZM59.5-11.072c-.464.3-.944.624-1.344.9-.112.08-.16.128-.16.192s.064.176.144.176a.482.482,0,0,0,.224-.064c.368-.16.96-.448,1.312-.576a3.18,3.18,0,0,1,1.12-.24c.336,0,.592.016.752.016.272,0,.5-.112.5-.384a.6.6,0,0,0-.384-.608,2.622,2.622,0,0,0-1.36-.208,2.815,2.815,0,0,1-2.352-.848.2.2,0,0,0-.16-.08.146.146,0,0,0-.128.16.424.424,0,0,0,.048.16A2.58,2.58,0,0,0,59.5-11.072ZM60.512-8.72a5.462,5.462,0,0,0-2.544.848,3.113,3.113,0,0,1-1.04.4.35.35,0,0,1-.3-.192,2.011,2.011,0,0,1-.208-.5.124.124,0,0,0-.128-.112A.333.333,0,0,0,56.1-8.1a1.369,1.369,0,0,0-.08.48,1.841,1.841,0,0,0,.448,1.008,1.18,1.18,0,0,0,.736.448c.208,0,.352-.128.784-.592a3.787,3.787,0,0,1,2.4-1.328,1.364,1.364,0,0,1,1.216.672,3.7,3.7,0,0,1,.432,1.856A5.453,5.453,0,0,1,60.864-2.08,8.016,8.016,0,0,1,57.808.24c-.128.064-.224.128-.224.224,0,.128.064.192.16.192a1.51,1.51,0,0,0,.48-.1,8.032,8.032,0,0,0,3.664-2.32A5.334,5.334,0,0,0,63.28-5.3a3.853,3.853,0,0,0-.64-2.288A2.461,2.461,0,0,0,60.512-8.72Zm14.112.208A43.023,43.023,0,0,1,71.68-2.944a.889.889,0,0,0-.208.528.543.543,0,0,0,.576.576.64.64,0,0,0,.576-.432c1.056-2.144,2.016-4.16,2.944-6.416.976-.224,1.952-.5,2.512-.688.432-.144.592-.272.592-.544s-.224-.48-.64-.48a2.176,2.176,0,0,0-.768.24,10.146,10.146,0,0,1-1.3.5c.128-.32.272-.656.384-.9a1.774,1.774,0,0,1,.432-.7.488.488,0,0,0,.256-.416c0-.24-.144-.352-.384-.512a3.418,3.418,0,0,0-1.36-.448.959.959,0,0,0-.592.144c-.064.048-.128.112-.128.176,0,.048.032.064.1.08a3.387,3.387,0,0,1,.656.208.42.42,0,0,1,.3.384,2.261,2.261,0,0,1-.1.56,14.389,14.389,0,0,1-.544,1.68,10.187,10.187,0,0,1-2.1.272,2.051,2.051,0,0,1-1.344-.432.244.244,0,0,0-.192-.1.153.153,0,0,0-.128.128.316.316,0,0,0,.032.16,1.755,1.755,0,0,0,.8.768,2.383,2.383,0,0,0,1.12.224A13.762,13.762,0,0,0,74.624-8.512Zm5.824,1.136a2.041,2.041,0,0,0-1.9,2.24c0,.784.144,1.648.208,2.48a7.088,7.088,0,0,0-1.248-.1c-1.376,0-2.432.608-2.432,1.648,0,1.008.928,1.68,2.24,1.68a2.591,2.591,0,0,0,1.872-.56,1.854,1.854,0,0,0,.608-1.536,8.561,8.561,0,0,1,2.08,1.312.928.928,0,0,0,.592.272.508.508,0,0,0,.528-.544.772.772,0,0,0-.32-.624,10.609,10.609,0,0,0-2.912-1.36,18.3,18.3,0,0,1-.544-2.992c0-1.264.784-1.488,1.552-1.488a2.178,2.178,0,0,1,1.328.688.771.771,0,0,0,.48.208.485.485,0,0,0,.48-.5,1.307,1.307,0,0,0-.72-.944,5.388,5.388,0,0,0-2.752-.768,4.259,4.259,0,0,0-1.488.272c-.1.032-.16.1-.16.16a.163.163,0,0,0,.144.176,1.148,1.148,0,0,0,.208-.016,5.243,5.243,0,0,1,.752-.048,3.164,3.164,0,0,1,1.408.272ZM78.832-1.824a1.382,1.382,0,0,1,.016.24,1.249,1.249,0,0,1-.432.976,1.79,1.79,0,0,1-1.264.4c-1.1,0-1.552-.4-1.552-.88,0-.656.784-1.008,1.68-1.008A4.937,4.937,0,0,1,78.832-1.824Zm22.544-7.9c.16,0,.208-.048.208-.144s-.08-.208-.432-.512c-.752-.624-.864-.688-.976-.688-.1,0-.224.064-1.024.944H94.816v-2.208c.432-.192.544-.32.544-.432,0-.192-.192-.32-1.872-.48a10.3,10.3,0,0,1,.1,1.3v1.824H88.5a7.741,7.741,0,0,1-1.3-.112l.176.608a7.062,7.062,0,0,1,1.12-.1h3.792a18.133,18.133,0,0,1-.864,5.552A10.526,10.526,0,0,1,87.12.912c-.1.064.048.272.144.224a9.189,9.189,0,0,0,5.12-4.768,11.571,11.571,0,0,0,.864-3.024h4.7a24.058,24.058,0,0,1-.768,5.248c-.272.816-.512,1.04-1.008,1.04A13.317,13.317,0,0,1,93.84-.72c-.112-.016-.176.224-.064.256,1.5.5,1.84.768,1.936,1.3.032.208.1.272.272.272A2.306,2.306,0,0,0,97.1.8,2.323,2.323,0,0,0,98.16-.56a21.314,21.314,0,0,0,.976-5.7c.416-.256.5-.336.5-.432s-.048-.192-.3-.432c-.576-.528-.688-.544-.8-.544-.1,0-.176.064-.72.608h-4.5c.128-.88.176-1.776.224-2.672Zm11.936.528A13.1,13.1,0,0,0,112.1-7.856a.3.3,0,0,0-.1.208.188.188,0,0,0,.16.144.244.244,0,0,0,.192-.1,6.358,6.358,0,0,1,1.7-1.28,2.734,2.734,0,0,1,1.024-.176c.256,0,.688.048.912.048.416,0,.64-.08.64-.48,0-.352-.224-.7-1.328-.7a9.173,9.173,0,0,0-2.416.3,8.493,8.493,0,0,0-2.16.96c-.128.08-.192.144-.192.256a.181.181,0,0,0,.192.176.686.686,0,0,0,.24-.08,10.926,10.926,0,0,1,2.24-.7C113.344-9.312,113.36-9.248,113.312-9.2Zm-3.056,5.264a2.442,2.442,0,0,0,.8,1.872c.96.864,2.528.96,3.856.96a8.917,8.917,0,0,0,2.224-.208.478.478,0,0,0,.4-.48.628.628,0,0,0-.432-.544,2.342,2.342,0,0,0-.656-.128,2.532,2.532,0,0,0-.608.08,4.634,4.634,0,0,1-.592.128,7.511,7.511,0,0,1-1.136.064,4.449,4.449,0,0,1-2.736-.656,1.809,1.809,0,0,1-.592-1.5,5.361,5.361,0,0,1,.16-1.056c0-.1-.08-.144-.176-.144-.08,0-.128.048-.192.16A3.584,3.584,0,0,0,110.256-3.936Zm-1.712-1.92c-.384.992-.768,2.032-1.136,2.976-.032.08-.08.112-.112.112-.048,0-.1-.032-.112-.112a5.364,5.364,0,0,1-.112-1.3,13.118,13.118,0,0,1,.8-4.128,2.492,2.492,0,0,1,.368-.7.706.706,0,0,0,.224-.528,2.049,2.049,0,0,0-.432-1.1,1.81,1.81,0,0,0-1.168-.848.129.129,0,0,0-.144.112.216.216,0,0,0,.08.16,1.629,1.629,0,0,1,.48,1.136,6.812,6.812,0,0,1-.24,1.312,21.235,21.235,0,0,0-.72,4.7,8.748,8.748,0,0,0,.528,3.024c.24.576.448.752.736.752.208,0,.384-.128.384-.448,0-.224-.048-.752-.048-1.04a4.841,4.841,0,0,1,.16-1.024c.144-.624.448-1.632.832-2.912a.7.7,0,0,0,.032-.16.2.2,0,0,0-.192-.176C108.672-6.048,108.592-6,108.544-5.856ZM125.2-8.384h7.456v.192c0,.272.144.384.48.384.464,0,.672-.144.672-.48,0-.224-.016-.976-.016-2.608v-.848c.352-.192.448-.3.448-.432,0-.112-.064-.192-.3-.4-.544-.432-.64-.5-.736-.5s-.192.064-.656.56h-7.216a9.673,9.673,0,0,0-1.312-.592c.048.752.064,1.328.064,2.4,0,1.712-.048,2.192-.048,2.48s.144.4.5.4c.448,0,.672-.144.672-.464Zm0-1.856h7.456v1.456H125.2Zm7.456-.4H125.2v-1.472h7.456ZM123.44-6.608V-.88l-.208.016c-.384.032-.8.048-1.264.048.272,1.248.416,1.52.56,1.52.128,0,.208-.112.3-.48a27.011,27.011,0,0,0,4.448-1.408c0,1.248-.048,1.9-.048,2.1,0,.224.112.384.5.384.5,0,.7-.176.7-.5,0-.5-.048-2.128-.048-3.968v-3.44h7.68c.144,0,.208-.048.208-.16,0-.1-.08-.208-.4-.464-.7-.544-.816-.608-.928-.608-.1,0-.224.08-.848.832h-11.1a7.326,7.326,0,0,1-1.28-.1l.16.592a7.22,7.22,0,0,1,1.12-.1Zm1.072,1.872h2.768V-3.28h-2.768Zm2.768-.4h-2.768V-6.608h2.768ZM124.512-2.88h2.768v1.328a27.222,27.222,0,0,1-2.768.528Zm5.536-2.336a6.472,6.472,0,0,1-1.328-.112l.16.624a4.661,4.661,0,0,1,1.024-.112,11.154,11.154,0,0,0,1.68,3.168A11.482,11.482,0,0,1,128.72.64c-.08.048.016.208.112.176a9.446,9.446,0,0,0,3.3-1.872A10.1,10.1,0,0,0,134.88.816a1.684,1.684,0,0,0,.576.176c.112,0,.192-.064.224-.208.144-.512.24-.736.672-.88.08-.032.1-.16.016-.176a9.257,9.257,0,0,1-3.6-1.424,9.429,9.429,0,0,0,1.664-2.752c.448-.192.528-.272.528-.432,0-.112-.064-.192-.272-.368-.48-.448-.608-.512-.72-.512-.1,0-.208.064-.64.544Zm3.328.4a8.824,8.824,0,0,1-1.312,2.56,7.561,7.561,0,0,1-1.792-2.56Zm15.84-4.512a8.412,8.412,0,0,0,1.056-1.072c.464-.048.624-.112.624-.288,0-.16-.352-.336-1.44-.736h3.856c.16,0,.208-.048.208-.144s-.08-.208-.4-.48c-.72-.576-.832-.656-.928-.656-.112,0-.224.08-.88.88h-2.8v-.8c.416-.16.544-.272.544-.4,0-.16-.192-.288-1.776-.464a7.085,7.085,0,0,1,.08,1.12v.544h-3.232a5.208,5.208,0,0,1-1.168-.128l.16.624a5.779,5.779,0,0,1,1.008-.1h5.3a4.813,4.813,0,0,1-.24.944,9.9,9.9,0,0,1-.448,1.152H146.72a.594.594,0,0,0,.368-.592c0-.528-.544-1.04-1.584-1.44-.064-.016-.128.064-.1.112a3.549,3.549,0,0,1,.64,1.36c.064.352.128.5.272.56h-1.5a8.451,8.451,0,0,0-1.264-.624c.08.96.08,1.9.08,4.144,0,2.72-.064,3.648-.064,4.256,0,.24.128.336.464.336.512,0,.688-.144.688-.432,0-.752-.016-1.84-.016-4.656V-8.928h6.72V-2.64a.286.286,0,0,1-.32.32c-.32,0-.672,0-1.408-.048-.08,0-.08.176,0,.192.912.224,1.136.384,1.184.7s.1.336.24.336a1.665,1.665,0,0,0,.864-.256,1.161,1.161,0,0,0,.544-1.072c0-.384-.048-.928-.048-4.5V-8.576c.336-.208.432-.3.432-.448,0-.1-.064-.192-.288-.416-.512-.416-.592-.48-.688-.48s-.192.064-.64.592ZM146.832-3.12h2.336v.144c0,.208.144.3.432.3.352,0,.512-.144.512-.352,0-.176-.016-.56-.016-1.488V-4.9c.3-.208.352-.272.352-.4,0-.1-.048-.192-.256-.352-.384-.3-.48-.368-.592-.368-.1,0-.176.064-.512.464h-.64v-1.36h2.512c.16,0,.208-.048.208-.144s-.08-.224-.288-.384c-.512-.416-.64-.5-.736-.5s-.224.08-.608.624h-1.088v-.56c.32-.16.416-.256.416-.352,0-.144-.144-.24-1.456-.384a10.03,10.03,0,0,1,.08,1.3h-1.44a3.411,3.411,0,0,1-.96-.112l.128.624a4.436,4.436,0,0,1,.832-.112h1.44v1.36h-.576a4.428,4.428,0,0,0-1.072-.512,12.828,12.828,0,0,1,.064,1.408c0,1.3-.048,1.76-.048,2s.144.352.416.352c.352,0,.56-.144.56-.368Zm2.336-.4h-2.336V-5.152h2.336Zm-7.792-6.4a.711.711,0,0,0,.656-.8c0-.768-.816-1.68-2.4-2.128-.08-.016-.176.1-.112.144a4.356,4.356,0,0,1,1.216,1.984C140.928-10.08,141.072-9.92,141.376-9.92Zm.736,3.984c.4-.288.448-.352.448-.448s-.048-.192-.288-.416c-.544-.448-.624-.5-.736-.5-.1,0-.176.048-.688.624h-.864a6.779,6.779,0,0,1-1.232-.112l.16.624a4.882,4.882,0,0,1,1.072-.112h.976V-2.08a7.888,7.888,0,0,1-1.248.928,8.844,8.844,0,0,1-1.024.464c.848,1.52.88,1.584,1.056,1.584.16,0,.24-.176.192-.7a14.155,14.155,0,0,0,1.792-2.32,3.879,3.879,0,0,0,1.44,2c.9.624,2.256.944,6.08.944,1.328,0,2.3-.048,3.648-.16.288-.048.352-.112.368-.288.048-.544.144-.688.56-.912.064-.032.064-.192,0-.176a41.111,41.111,0,0,1-5.984.464c-2.528,0-3.7-.224-4.432-.592a3.086,3.086,0,0,1-1.3-1.2Zm21.408-6.672c-.7,0-.96.352-.96.976,0,.56.336,2.384.448,3.472.128,1.2.256,2.672.256,3.888a9.784,9.784,0,0,1-.048,1.024.153.153,0,0,0,.176.176c.336,0,.448-.112.448-.272q-.048-.48-.048-1.056a36.539,36.539,0,0,1,.256-3.856c.144-1.168.432-2.832.432-3.376C164.48-12.288,164.208-12.608,163.52-12.608Zm0,11.088A.979.979,0,0,0,162.512-.5.968.968,0,0,0,163.52.48a.983.983,0,0,0,.992-.976A.994.994,0,0,0,163.52-1.52Z" transform="translate(231 7863.323)"/>
      <g id="長方形_13396" data-name="長方形 13396" transform="translate(216 7838.324)" fill="none" stroke="#000" stroke-width="1">
        <rect width="202" height="40" stroke="none"/>
        <rect x="0.5" y="0.5" width="201" height="39" fill="none"/>
      </g>
    </g>
    <g id="グループ_887" data-name="グループ 887">
      <path id="パス_3166" data-name="パス 3166" d="M6.314-11.116l-1.232-.112a11.614,11.614,0,0,1-.434,2.422c-.546.042-1.078.07-1.582.07a13.206,13.206,0,0,1-1.708-.1l.07,1.05c.532.028,1.12.042,1.638.042.406,0,.826-.014,1.246-.042a20.717,20.717,0,0,1-3,5.236l1.078.56A24.762,24.762,0,0,0,5.446-7.9a18.986,18.986,0,0,0,2.548-.518l-.028-1.05a13.53,13.53,0,0,1-2.2.518C5.992-9.758,6.188-10.612,6.314-11.116ZM5.544-1.4c0-.644.7-1.12,1.722-1.12a4.854,4.854,0,0,1,1.442.21c.014.238.014.448.014.63,0,.77-.392,1.386-1.554,1.386C6.076-.294,5.544-.742,5.544-1.4ZM9.618-6.79H8.526c.028.994.1,2.38.154,3.528A6.248,6.248,0,0,0,7.308-3.4c-1.582,0-2.8.812-2.8,2.1,0,1.386,1.26,2.016,2.8,2.016,1.736,0,2.45-.91,2.45-2.03,0-.168,0-.364-.014-.588a10.464,10.464,0,0,1,2.268,1.61l.6-.952A9.605,9.605,0,0,0,9.7-2.982c-.028-.868-.084-1.778-.1-2.3S9.59-6.216,9.618-6.79Zm2.8.378.63-.924A21.147,21.147,0,0,0,9.786-9.2l-.574.854A16.394,16.394,0,0,1,12.418-6.412Zm6.636-4.3-1.106.462c.658,1.512,1.4,3.15,2.044,4.312C18.48-4.9,17.57-3.766,17.57-2.31c0,2.1,1.89,2.884,4.522,2.884a25.9,25.9,0,0,0,4.424-.35l.014-1.246a20.831,20.831,0,0,1-4.48.476c-2.212,0-3.318-.728-3.318-1.89,0-1.064.784-1.988,2.086-2.828A40.8,40.8,0,0,1,24.7-7.406c.406-.21.756-.392,1.064-.574L25.2-9a8.743,8.743,0,0,1-.994.658c-.77.434-2.044,1.05-3.276,1.792A31.915,31.915,0,0,1,19.054-10.71ZM26-10.85l-.756.322A14.466,14.466,0,0,1,26.39-8.582l.756-.336A20.079,20.079,0,0,0,26-10.85Zm1.54-.56L26.8-11.1A14.219,14.219,0,0,1,27.972-9.17l.742-.336A16.279,16.279,0,0,0,27.538-11.41Z" transform="translate(1169 4106)"/>
      <g id="楕円形_71" data-name="楕円形 71" transform="translate(1153 4070)" fill="none" stroke="#000" stroke-width="1">
        <circle cx="30" cy="30" r="30" stroke="none"/>
        <circle cx="30" cy="30" r="29.5" fill="none"/>
      </g>
    </g>
  </g>
</svg>
