<svg xmlns="http://www.w3.org/2000/svg" width="1050" height="486" viewBox="0 0 1050 486">
  <g id="グループ_10049" data-name="グループ 10049" transform="translate(-163 -3644)">
    <text id="土壌分析_診断_サービス" data-name="土壌分析（診断）サービス" transform="translate(183 3667)" font-size="26" font-family="YuMin-Medium, YuMincho" font-weight="500" letter-spacing="0.2em"><tspan x="0" y="0">土壌分析（診断）サービス</tspan></text>
    <rect id="長方形_13382" data-name="長方形 13382" width="498" height="104" transform="translate(183 3750)" fill="#fff"/>
    <rect id="長方形_13385" data-name="長方形 13385" width="498" height="104" transform="translate(183 3858)" fill="#fff"/>
    <rect id="長方形_13386" data-name="長方形 13386" width="498" height="134" transform="translate(183 3966)" fill="#fff"/>
    <rect id="長方形_13383" data-name="長方形 13383" width="498" height="104" transform="translate(685 3750)" fill="#fff"/>
    <rect id="長方形_13384" data-name="長方形 13384" width="498" height="104" transform="translate(685 3858)" fill="#fff"/>
    <rect id="長方形_13387" data-name="長方形 13387" width="498" height="134" transform="translate(685 3966)" fill="#fff"/>
    <text id="土づくりにこだわる農業生産者様" transform="translate(432 3809)" font-size="16" font-family="SourceHanSansJP-Regular, Source Han Sans JP" letter-spacing="0.08em"><tspan x="-128.8" y="0">土</tspan><tspan y="0">づくりにこだわる</tspan><tspan y="0">農業生産者様</tspan></text>
    <text id="食品メーカー様" transform="translate(432 3917)" font-size="16" font-family="SourceHanSansJP-Regular, Source Han Sans JP" letter-spacing="0.08em"><tspan x="-59.84" y="0">食品</tspan><tspan y="0">メーカー</tspan><tspan y="0">様</tspan></text>
    <text id="環境に配慮しているかどうかの証として_庭園やゴルフ場_レジャー施設など_" data-name="環境に配慮しているかどうかの証として
（庭園やゴルフ場、レジャー施設など）" transform="translate(278 4025)" font-size="16" font-family="SourceHanSansJP-Regular, Source Han Sans JP" letter-spacing="0.08em"><tspan x="0" y="0">環境</tspan><tspan y="0">に</tspan><tspan y="0">配慮</tspan><tspan y="0">しているかどうかの</tspan><tspan y="0">証</tspan><tspan y="0">として</tspan><tspan x="0" y="30">（</tspan><tspan y="30">庭園</tspan><tspan y="30">やゴルフ</tspan><tspan y="30">場、</tspan><tspan y="30">レジャー</tspan><tspan y="30">施設</tspan><tspan y="30">など）</tspan></text>
    <text id="有機質のリサイクルを目指したい企業様_廃棄物の堆肥化など_" data-name="有機質のリサイクルを目指したい企業様
（廃棄物の堆肥化など）" transform="translate(934 4025)" font-size="16" font-family="SourceHanSansJP-Regular, Source Han Sans JP" letter-spacing="0.08em"><tspan x="-154.48" y="0">有機質</tspan><tspan y="0">のリサイクルを</tspan><tspan y="0">目指</tspan><tspan y="0">したい</tspan><tspan y="0">企業様</tspan><tspan x="-94.4" y="30">（廃棄物</tspan><tspan y="30">の</tspan><tspan y="30">堆肥化</tspan><tspan y="30">など）</tspan></text>
    <text id="農業試験研究機関様" transform="translate(857 3813)" font-size="16" font-family="SourceHanSansJP-Regular, Source Han Sans JP" letter-spacing="0.08em"><tspan x="0" y="0">農業試験研究機関様</tspan></text>
    <text id="肥料_資材メーカー様" data-name="肥料・資材メーカー様" transform="translate(848 3917)" font-size="16" font-family="SourceHanSansJP-Regular, Source Han Sans JP" letter-spacing="0.08em"><tspan x="0" y="0">肥料・資材</tspan><tspan y="0">メーカー</tspan><tspan y="0">様</tspan></text>
    <g id="グループ_841" data-name="グループ 841" transform="translate(-53 -4108.324)">
      <text id="このような方に最適_" data-name="このような方に最適！" transform="translate(231 7863.323)" font-size="16" font-family="YuMin-Medium, YuMincho" font-weight="500" letter-spacing="0.08em"><tspan x="0" y="0">このような方に最適！</tspan></text>
      <g id="長方形_13396" data-name="長方形 13396" transform="translate(216 7838.324)" fill="none" stroke="#000" stroke-width="1">
        <rect width="202" height="40" stroke="none"/>
        <rect x="0.5" y="0.5" width="201" height="39" fill="none"/>
      </g>
    </g>
    <g id="グループ_887" data-name="グループ 887">
      <text id="など" transform="translate(1169 4106)" font-size="14" font-family="SourceHanSansJP-Regular, Source Han Sans JP" letter-spacing="0.08em"><tspan x="0" y="0">など</tspan></text>
      <g id="楕円形_71" data-name="楕円形 71" transform="translate(1153 4070)" fill="none" stroke="#000" stroke-width="1">
        <circle cx="30" cy="30" r="30" stroke="none"/>
        <circle cx="30" cy="30" r="29.5" fill="none"/>
      </g>
    </g>
  </g>
</svg>
