<svg xmlns="http://www.w3.org/2000/svg" width="325" height="530" viewBox="0 0 325 530">
  <g id="グループ_9869" data-name="グループ 9869" transform="translate(-20 -4763)">
    <rect id="長方形_13451" data-name="長方形 13451" width="315" height="90" transform="translate(30 4783)" fill="#fff"/>
    <rect id="長方形_13452" data-name="長方形 13452" width="315" height="80" transform="translate(30 4877)" fill="#fff"/>
    <rect id="長方形_13454" data-name="長方形 13454" width="315" height="80" transform="translate(30 4961)" fill="#fff"/>
    <rect id="長方形_13455" data-name="長方形 13455" width="315" height="80" transform="translate(30 5045)" fill="#fff"/>
    <rect id="長方形_13453" data-name="長方形 13453" width="315" height="80" transform="translate(30 5129)" fill="#fff"/>
    <rect id="長方形_13535" data-name="長方形 13535" width="315" height="80" transform="translate(30 5213)" fill="#fff"/>
    <g id="グループ_730" data-name="グループ 730" transform="translate(-10 1062)">
      <g id="長方形_13349" data-name="長方形 13349" transform="translate(30 3701)" fill="none" stroke="#000" stroke-width="1">
        <rect width="160" height="34" stroke="none"/>
        <rect x="0.5" y="0.5" width="159" height="33" fill="none"/>
      </g>
      <path id="パス_4336" data-name="パス 4336" d="M6.216-7.952c-.5.448-1.12.98-1.428,1.26a.524.524,0,0,0-.154.224.214.214,0,0,0,.154.154A.748.748,0,0,0,5.1-6.44a10.132,10.132,0,0,1,2.31-1.386,9.276,9.276,0,0,1,1.946-.336C9.828-8.2,10-8.344,10-8.61s-.112-.434-.462-.546a1.8,1.8,0,0,0-.5-.07,1.7,1.7,0,0,0-.406.1,8.132,8.132,0,0,1-1.246.28,9.425,9.425,0,0,1-1.33.126,5.531,5.531,0,0,1-1.036-.084,2.676,2.676,0,0,1-.938-.364.33.33,0,0,0-.182-.07.153.153,0,0,0-.14.154.244.244,0,0,0,.056.168,2.156,2.156,0,0,0,.882.686A3.712,3.712,0,0,0,6.216-7.952Zm-2.6,3.178a.233.233,0,0,0-.182.14A2.283,2.283,0,0,0,3.052-3.29,2.251,2.251,0,0,0,4.578-1.162a6.771,6.771,0,0,0,2.646.448,21.17,21.17,0,0,0,3.122-.224c.5-.07.8-.21.8-.574s-.378-.6-.9-.6a2.673,2.673,0,0,0-.854.126A8.34,8.34,0,0,1,7-1.694a5.286,5.286,0,0,1-2.534-.462,1.412,1.412,0,0,1-.9-1.372,2.466,2.466,0,0,1,.168-.924.55.55,0,0,0,.042-.2C3.78-4.718,3.7-4.774,3.612-4.774ZM21.8-9.044a6.094,6.094,0,0,1,.742-.028,4.055,4.055,0,0,1,2.6.91A3.533,3.533,0,0,1,26.32-5.488a3.955,3.955,0,0,1-1.26,2.9A7.782,7.782,0,0,1,21.252-.812C21.07-.77,21-.728,21-.616a.2.2,0,0,0,.2.168,8.355,8.355,0,0,0,4.662-1.568A3.959,3.959,0,0,0,27.37-5.292,4,4,0,0,0,25.816-8.47a5.149,5.149,0,0,0-3.248-1.078,5.984,5.984,0,0,0-4.48,1.834,5.094,5.094,0,0,0-1.316,3.3,3.075,3.075,0,0,0,.644,2.072,1.292,1.292,0,0,0,1.05.56,1.874,1.874,0,0,0,1.414-.91,14.1,14.1,0,0,0,2-3.626,5.593,5.593,0,0,0,.364-1.638A1.636,1.636,0,0,0,21.8-9.044ZM21.42-9a.868.868,0,0,1,.224.644,3.064,3.064,0,0,1-.2,1.106,14.876,14.876,0,0,1-2,3.64c-.406.546-.686.8-.98.8a.785.785,0,0,1-.658-.476,2.416,2.416,0,0,1-.308-1.3,4.364,4.364,0,0,1,1.218-3.024A4.94,4.94,0,0,1,21.42-9ZM37.758-1.778A11.3,11.3,0,0,1,40.67-.084a1.18,1.18,0,0,0,.644.294.486.486,0,0,0,.42-.56.9.9,0,0,0-.5-.7,12.259,12.259,0,0,0-3.486-1.5,44.483,44.483,0,0,1-.252-4.606,1.211,1.211,0,0,0,.8.252,5.372,5.372,0,0,0,1.176-.21,11.428,11.428,0,0,0,1.2-.378c.21-.084.35-.182.35-.434,0-.28-.322-.448-.812-.448a.987.987,0,0,0-.686.28,2.944,2.944,0,0,1-.9.406,3.514,3.514,0,0,1-.8.182c-.21,0-.322-.014-.322-.2,0-.238.028-.784.056-1.12a.642.642,0,0,1,.2-.462.463.463,0,0,0,.154-.336c0-.252-.182-.392-.49-.63a2.1,2.1,0,0,0-1.12-.434,1.2,1.2,0,0,0-.6.21.17.17,0,0,0-.1.168c0,.084.056.112.14.126s.154.014.294.042a.82.82,0,0,1,.5.308c.112.14.126.322.126.8.014,2.282.084,4.13.2,6.328a8.6,8.6,0,0,0-1.19-.084c-1.3,0-2.562.476-2.562,1.582S34.23.322,35.434.322c1.176,0,2.324-.406,2.324-1.862Zm-.9-.238a1.573,1.573,0,0,1-.322,1.19,1.71,1.71,0,0,1-1.33.448c-1.078,0-1.61-.224-1.61-.84,0-.7.952-.952,2.044-.952A5.88,5.88,0,0,1,36.862-2.016Zm15.2-7.672c-.406.266-.826.546-1.176.784-.1.07-.14.112-.14.168s.056.154.126.154a.422.422,0,0,0,.2-.056c.322-.14.84-.392,1.148-.5a2.783,2.783,0,0,1,.98-.21c.294,0,.518.014.658.014.238,0,.434-.1.434-.336a.528.528,0,0,0-.336-.532,2.294,2.294,0,0,0-1.19-.182,2.463,2.463,0,0,1-2.058-.742.17.17,0,0,0-.14-.07.128.128,0,0,0-.112.14.371.371,0,0,0,.042.14A2.258,2.258,0,0,0,52.066-9.688Zm.882,2.058a4.779,4.779,0,0,0-2.226.742,2.724,2.724,0,0,1-.91.35.306.306,0,0,1-.266-.168,1.76,1.76,0,0,1-.182-.434.108.108,0,0,0-.112-.1.291.291,0,0,0-.168.154,1.2,1.2,0,0,0-.07.42,1.611,1.611,0,0,0,.392.882,1.033,1.033,0,0,0,.644.392c.182,0,.308-.112.686-.518a3.313,3.313,0,0,1,2.1-1.162,1.194,1.194,0,0,1,1.064.588,3.24,3.24,0,0,1,.378,1.624A4.771,4.771,0,0,1,53.256-1.82,7.014,7.014,0,0,1,50.582.21c-.112.056-.2.112-.2.2,0,.112.056.168.14.168a1.321,1.321,0,0,0,.42-.084,7.028,7.028,0,0,0,3.206-2.03A4.667,4.667,0,0,0,55.37-4.634a3.371,3.371,0,0,0-.56-2A2.153,2.153,0,0,0,52.948-7.63ZM65.3-7.448A37.645,37.645,0,0,1,62.72-2.576a.778.778,0,0,0-.182.462.475.475,0,0,0,.5.5.56.56,0,0,0,.5-.378c.924-1.876,1.764-3.64,2.576-5.614.854-.2,1.708-.434,2.2-.6.378-.126.518-.238.518-.476s-.2-.42-.56-.42a1.9,1.9,0,0,0-.672.21,8.878,8.878,0,0,1-1.134.434c.112-.28.238-.574.336-.784a1.552,1.552,0,0,1,.378-.616.427.427,0,0,0,.224-.364c0-.21-.126-.308-.336-.448a2.991,2.991,0,0,0-1.19-.392.84.84,0,0,0-.518.126c-.056.042-.112.1-.112.154s.028.056.084.07a2.963,2.963,0,0,1,.574.182.368.368,0,0,1,.266.336,1.978,1.978,0,0,1-.084.49,12.589,12.589,0,0,1-.476,1.47,8.914,8.914,0,0,1-1.834.238,1.8,1.8,0,0,1-1.176-.378.214.214,0,0,0-.168-.084.133.133,0,0,0-.112.112.277.277,0,0,0,.028.14,1.536,1.536,0,0,0,.7.672,2.085,2.085,0,0,0,.98.2A12.042,12.042,0,0,0,65.3-7.448Zm5.1.994a1.785,1.785,0,0,0-1.666,1.96c0,.686.126,1.442.182,2.17a6.2,6.2,0,0,0-1.092-.084c-1.2,0-2.128.532-2.128,1.442,0,.882.812,1.47,1.96,1.47a2.267,2.267,0,0,0,1.638-.49,1.622,1.622,0,0,0,.532-1.344,7.491,7.491,0,0,1,1.82,1.148.812.812,0,0,0,.518.238.445.445,0,0,0,.462-.476.675.675,0,0,0-.28-.546,9.283,9.283,0,0,0-2.548-1.19,16.012,16.012,0,0,1-.476-2.618c0-1.106.686-1.3,1.358-1.3a1.906,1.906,0,0,1,1.162.6.675.675,0,0,0,.42.182.424.424,0,0,0,.42-.434,1.144,1.144,0,0,0-.63-.826,4.714,4.714,0,0,0-2.408-.672,3.726,3.726,0,0,0-1.3.238c-.084.028-.14.084-.14.14a.143.143,0,0,0,.126.154,1,1,0,0,0,.182-.014,4.587,4.587,0,0,1,.658-.042,2.769,2.769,0,0,1,1.232.238ZM68.978-1.6a1.209,1.209,0,0,1,.014.21,1.093,1.093,0,0,1-.378.854,1.567,1.567,0,0,1-1.106.35c-.966,0-1.358-.35-1.358-.77,0-.574.686-.882,1.47-.882A4.32,4.32,0,0,1,68.978-1.6ZM88.7-8.512c.14,0,.182-.042.182-.126s-.07-.182-.378-.448c-.658-.546-.756-.6-.854-.6s-.2.056-.9.826H82.964v-1.932c.378-.168.476-.28.476-.378,0-.168-.168-.28-1.638-.42a9.016,9.016,0,0,1,.084,1.134v1.6H77.434a6.773,6.773,0,0,1-1.134-.1l.154.532a6.179,6.179,0,0,1,.98-.084h3.318A15.867,15.867,0,0,1,80-3.654,9.21,9.21,0,0,1,76.23.8c-.084.056.042.238.126.2a8.04,8.04,0,0,0,4.48-4.172,10.125,10.125,0,0,0,.756-2.646h4.116a21.049,21.049,0,0,1-.672,4.592c-.238.714-.448.91-.882.91A11.652,11.652,0,0,1,82.11-.63c-.1-.014-.154.2-.056.224,1.316.434,1.61.672,1.694,1.134.028.182.084.238.238.238A2.018,2.018,0,0,0,84.966.7,2.032,2.032,0,0,0,85.89-.49a18.65,18.65,0,0,0,.854-4.984c.364-.224.434-.294.434-.378s-.042-.168-.266-.378c-.5-.462-.6-.476-.7-.476s-.154.056-.63.532H81.648c.112-.77.154-1.554.2-2.338Zm10.444.462a11.462,11.462,0,0,0-1.064,1.176A.258.258,0,0,0,98-6.692a.164.164,0,0,0,.14.126.214.214,0,0,0,.168-.084,5.563,5.563,0,0,1,1.484-1.12,2.392,2.392,0,0,1,.9-.154c.224,0,.6.042.8.042.364,0,.56-.07.56-.42,0-.308-.2-.616-1.162-.616a8.027,8.027,0,0,0-2.114.266,7.431,7.431,0,0,0-1.89.84c-.112.07-.168.126-.168.224a.158.158,0,0,0,.168.154.6.6,0,0,0,.21-.07,9.56,9.56,0,0,1,1.96-.616C99.176-8.148,99.19-8.092,99.148-8.05ZM96.474-3.444a2.137,2.137,0,0,0,.7,1.638,5.115,5.115,0,0,0,3.374.84,7.8,7.8,0,0,0,1.946-.182.419.419,0,0,0,.35-.42.55.55,0,0,0-.378-.476,2.049,2.049,0,0,0-.574-.112,2.216,2.216,0,0,0-.532.07,4.055,4.055,0,0,1-.518.112,6.572,6.572,0,0,1-.994.056,3.893,3.893,0,0,1-2.394-.574,1.583,1.583,0,0,1-.518-1.316,4.691,4.691,0,0,1,.14-.924c0-.084-.07-.126-.154-.126s-.112.042-.168.14A3.136,3.136,0,0,0,96.474-3.444Zm-1.5-1.68c-.336.868-.672,1.778-.994,2.6-.028.07-.07.1-.1.1s-.084-.028-.1-.1a4.693,4.693,0,0,1-.1-1.134,11.478,11.478,0,0,1,.7-3.612,2.181,2.181,0,0,1,.322-.616.618.618,0,0,0,.2-.462,1.793,1.793,0,0,0-.378-.966,1.584,1.584,0,0,0-1.022-.742.113.113,0,0,0-.126.1.189.189,0,0,0,.07.14,1.426,1.426,0,0,1,.42.994,5.96,5.96,0,0,1-.21,1.148,18.581,18.581,0,0,0-.63,4.116A7.654,7.654,0,0,0,93.492-.91c.21.5.392.658.644.658.182,0,.336-.112.336-.392,0-.2-.042-.658-.042-.91a4.236,4.236,0,0,1,.14-.9C94.7-3,94.962-3.878,95.3-5a.616.616,0,0,0,.028-.14.179.179,0,0,0-.168-.154C95.088-5.292,95.018-5.25,94.976-5.124ZM109.55-7.336h6.524v.168c0,.238.126.336.42.336.406,0,.588-.126.588-.42,0-.2-.014-.854-.014-2.282v-.742c.308-.168.392-.266.392-.378s-.056-.168-.266-.35c-.476-.378-.56-.434-.644-.434s-.168.056-.574.49h-6.314a8.463,8.463,0,0,0-1.148-.518c.042.658.056,1.162.056,2.1,0,1.5-.042,1.918-.042,2.17s.126.35.434.35c.392,0,.588-.126.588-.406Zm0-1.624h6.524v1.274H109.55Zm6.524-.35H109.55V-10.6h6.524ZM108.01-5.782V-.77l-.182.014c-.336.028-.7.042-1.106.042.238,1.092.364,1.33.49,1.33s.182-.1.266-.42a23.634,23.634,0,0,0,3.892-1.232c0,1.092-.042,1.666-.042,1.834,0,.2.1.336.434.336.434,0,.616-.154.616-.434,0-.434-.042-1.862-.042-3.472v-3.01h6.72c.126,0,.182-.042.182-.14s-.07-.182-.35-.406c-.616-.476-.714-.532-.812-.532s-.2.07-.742.728h-9.716a6.41,6.41,0,0,1-1.12-.084l.14.518a6.318,6.318,0,0,1,.98-.084Zm.938,1.638h2.422V-2.87h-2.422Zm2.422-.35h-2.422V-5.782h2.422ZM108.948-2.52h2.422v1.162a23.819,23.819,0,0,1-2.422.462Zm4.844-2.044a5.663,5.663,0,0,1-1.162-.1l.14.546a4.079,4.079,0,0,1,.9-.1,9.76,9.76,0,0,0,1.47,2.772,10.047,10.047,0,0,1-2.506,2c-.07.042.014.182.1.154a8.265,8.265,0,0,0,2.884-1.638A8.841,8.841,0,0,0,118.02.714a1.473,1.473,0,0,0,.5.154c.1,0,.168-.056.2-.182.126-.448.21-.644.588-.77.07-.028.084-.14.014-.154a8.1,8.1,0,0,1-3.15-1.246,8.25,8.25,0,0,0,1.456-2.408c.392-.168.462-.238.462-.378,0-.1-.056-.168-.238-.322-.42-.392-.532-.448-.63-.448s-.182.056-.56.476Zm2.912.35a7.721,7.721,0,0,1-1.148,2.24,6.616,6.616,0,0,1-1.568-2.24Zm13.86-3.948a7.362,7.362,0,0,0,.924-.938c.406-.042.546-.1.546-.252s-.308-.294-1.26-.644h3.374c.14,0,.182-.042.182-.126s-.07-.182-.35-.42c-.63-.5-.728-.574-.812-.574s-.2.07-.77.77h-2.45v-.7c.364-.14.476-.238.476-.35,0-.14-.168-.252-1.554-.406a6.2,6.2,0,0,1,.07.98v.476h-2.828a4.557,4.557,0,0,1-1.022-.112l.14.546a5.056,5.056,0,0,1,.882-.084h4.634a4.212,4.212,0,0,1-.21.826,8.658,8.658,0,0,1-.392,1.008H128.38a.52.52,0,0,0,.322-.518c0-.462-.476-.91-1.386-1.26-.056-.014-.112.056-.084.1a3.106,3.106,0,0,1,.56,1.19c.056.308.112.434.238.49h-1.316a7.4,7.4,0,0,0-1.106-.546c.07.84.07,1.666.07,3.626,0,2.38-.056,3.192-.056,3.724,0,.21.112.294.406.294.448,0,.6-.126.6-.378,0-.658-.014-1.61-.014-4.074v-2.3h5.88v5.5a.251.251,0,0,1-.28.28c-.28,0-.588,0-1.232-.042-.07,0-.07.154,0,.168.8.2.994.336,1.036.616s.084.294.21.294a1.457,1.457,0,0,0,.756-.224,1.016,1.016,0,0,0,.476-.938c0-.336-.042-.812-.042-3.934V-7.5c.294-.182.378-.266.378-.392,0-.084-.056-.168-.252-.364-.448-.364-.518-.42-.6-.42s-.168.056-.56.518ZM128.478-2.73h2.044V-2.6c0,.182.126.266.378.266.308,0,.448-.126.448-.308,0-.154-.014-.49-.014-1.3v-.336c.266-.182.308-.238.308-.35,0-.084-.042-.168-.224-.308-.336-.266-.42-.322-.518-.322s-.154.056-.448.406h-.56v-1.19h2.2c.14,0,.182-.042.182-.126s-.07-.2-.252-.336c-.448-.364-.56-.434-.644-.434s-.2.07-.532.546h-.952v-.49c.28-.14.364-.224.364-.308,0-.126-.126-.21-1.274-.336a8.776,8.776,0,0,1,.07,1.134h-1.26a2.985,2.985,0,0,1-.84-.1l.112.546a3.881,3.881,0,0,1,.728-.1h1.26v1.19h-.5a3.875,3.875,0,0,0-.938-.448,11.222,11.222,0,0,1,.056,1.232c0,1.134-.042,1.54-.042,1.75s.126.308.364.308c.308,0,.49-.126.49-.322Zm2.044-.35h-2.044V-4.508h2.044ZM123.7-8.68a.622.622,0,0,0,.574-.7c0-.672-.714-1.47-2.1-1.862-.07-.014-.154.084-.1.126a3.811,3.811,0,0,1,1.064,1.736C123.312-8.82,123.438-8.68,123.7-8.68Zm.644,3.486c.35-.252.392-.308.392-.392s-.042-.168-.252-.364c-.476-.392-.546-.434-.644-.434s-.154.042-.6.546h-.756a5.932,5.932,0,0,1-1.078-.1l.14.546a4.272,4.272,0,0,1,.938-.1h.854V-1.82a6.9,6.9,0,0,1-1.092.812,7.738,7.738,0,0,1-.9.406c.742,1.33.77,1.386.924,1.386s.21-.154.168-.616a12.385,12.385,0,0,0,1.568-2.03,3.394,3.394,0,0,0,1.26,1.75c.784.546,1.974.826,5.32.826,1.162,0,2.016-.042,3.192-.14.252-.042.308-.1.322-.252.042-.476.126-.6.49-.8.056-.028.056-.168,0-.154a35.972,35.972,0,0,1-5.236.406,8.99,8.99,0,0,1-3.878-.518,2.7,2.7,0,0,1-1.134-1.05Zm13.664-5.46c-.6,0-.826.308-.826.784s.322,1.918.406,2.786a30.16,30.16,0,0,1,.21,3.01,8.844,8.844,0,0,1-.042.91.138.138,0,0,0,.126.14c.266,0,.406-.1.406-.224a7.921,7.921,0,0,1-.042-.854c0-.924.1-2.058.2-3.066.1-.938.378-2.254.378-2.7C138.824-10.388,138.6-10.654,138.012-10.654ZM138-1.876a.84.84,0,0,0-.854.854A.867.867,0,0,0,138-.168a.876.876,0,0,0,.854-.854A.848.848,0,0,0,138-1.876Z" transform="translate(40 3723)"/>
    </g>
    <path id="パス_4352" data-name="パス 4352" d="M-105.182-.56V-6.2h4.83V-7.224h-4.83v-4.438h-1.092v4.438h-4.76V-6.2h4.76V-.56h-5.642V.462h12.46V-.56Zm8.428-6.5.518,1.218c1.106-.434,4.676-1.974,6.972-1.974A2.66,2.66,0,0,1-86.3-5.18c0,2.856-3.262,3.976-6.916,4.074l.49,1.162c4.312-.252,7.658-1.862,7.658-5.222,0-2.352-1.848-3.7-4.172-3.7a22.25,22.25,0,0,0-5.978,1.4C-95.746-7.308-96.25-7.154-96.754-7.056ZM-87-10.99l-.742.322A15.422,15.422,0,0,1-86.6-8.708l.77-.336A19.3,19.3,0,0,0-87-10.99Zm1.54-.56-.728.322A15.7,15.7,0,0,1-85.022-9.3l.756-.336A15.875,15.875,0,0,0-85.456-11.55ZM-72.6-10.332l-1.036-.924a6.629,6.629,0,0,1-.8.938c-.952.966-3.08,2.646-4.13,3.528-1.26,1.064-1.428,1.666-.1,2.772,1.3,1.078,3.43,2.9,4.41,3.906.35.336.672.686.966,1.022l.994-.924C-73.78-1.5-76.258-3.5-77.532-4.536c-.9-.756-.882-.98-.042-1.694,1.036-.868,3.052-2.464,4-3.3C-73.332-9.73-72.9-10.094-72.6-10.332Zm10.01-.714-1.232-.042c-.028.378-.056.784-.112,1.2a36.995,36.995,0,0,0-.434,4.522,17.049,17.049,0,0,0,.154,2.226l1.078-.084a6.525,6.525,0,0,1-.028-1.722c.168-1.834,1.792-4.382,3.542-4.382,1.47,0,2.226,1.6,2.226,3.808,0,3.514-2.38,4.76-5.418,5.208L-62.16.7c3.472-.63,5.908-2.338,5.908-6.23,0-2.94-1.33-4.8-3.192-4.8-1.778,0-3.234,1.75-3.808,3.178A25.992,25.992,0,0,1-62.594-11.046Zm16.758,1.6v1.12a32.908,32.908,0,0,0,5.754,0V-9.464A23.953,23.953,0,0,1-45.836-9.45Zm.546,5.7-1.008-.1A7.524,7.524,0,0,0-46.536-2.2c0,1.316,1.05,2.1,3.4,2.1a18.972,18.972,0,0,0,3.5-.294l-.028-1.176a15.444,15.444,0,0,1-3.472.364c-1.9,0-2.366-.616-2.366-1.26A4.889,4.889,0,0,1-45.29-3.752Zm-3.22-6.776-1.246-.112a6.127,6.127,0,0,1-.1.994,39.379,39.379,0,0,0-.63,5.614A17.627,17.627,0,0,0-49.966.462l1.008-.07C-48.972.252-48.986.056-49-.1a2.7,2.7,0,0,1,.07-.63,28.573,28.573,0,0,1,.994-3.136l-.588-.448c-.238.574-.574,1.414-.812,2.044a15.355,15.355,0,0,1-.126-1.96,32.509,32.509,0,0,1,.7-5.362C-48.706-9.842-48.58-10.29-48.51-10.528Zm14.42.7V-8.68c1.106.084,2.3.154,3.7.154,1.3,0,2.828-.1,3.78-.168V-9.842c-1.008.1-2.436.2-3.78.2A31.288,31.288,0,0,1-34.09-9.828Zm.56,5.642L-34.664-4.3a8.883,8.883,0,0,0-.294,1.946c0,1.764,1.652,2.7,4.494,2.7A19.908,19.908,0,0,0-25.69-.14l-.014-1.2a17.007,17.007,0,0,1-4.788.56c-2.24,0-3.332-.742-3.332-1.806A5.149,5.149,0,0,1-33.53-4.186ZM-14.868-3.15l-1.05-.1a7.852,7.852,0,0,0-.21,1.652c0,1.386,1.2,2.072,3.416,2.072a18.441,18.441,0,0,0,2.7-.21l.042-1.134a13.475,13.475,0,0,1-2.73.28c-2,0-2.366-.644-2.366-1.3A4.95,4.95,0,0,1-14.868-3.15Zm-1.61-7.658-1.344-.112a5.493,5.493,0,0,1-.042,1.148c-.042.28-.112.728-.21,1.218-.546.042-1.05.07-1.512.07a12.683,12.683,0,0,1-1.68-.1l.042,1.092c.5.028,1.008.056,1.624.056.392,0,.826-.014,1.288-.042-.112.5-.238,1.036-.364,1.5A30.528,30.528,0,0,1-21.028.28L-19.8.7a42.366,42.366,0,0,0,2.184-6.412c.168-.616.308-1.26.448-1.876a26.885,26.885,0,0,0,2.912-.476V-9.156a23.394,23.394,0,0,1-2.688.49c.07-.378.154-.728.21-1.036C-16.674-9.982-16.562-10.514-16.478-10.808Zm1.316,4.256V-5.5a23.009,23.009,0,0,1,2.6-.154,17.7,17.7,0,0,1,2.352.168l.028-1.064A22.409,22.409,0,0,0-12.6-6.678C-13.5-6.678-14.42-6.622-15.162-6.552Zm3.472-3.836-.742.322A16,16,0,0,1-11.3-8.12l.756-.336A15.612,15.612,0,0,0-11.69-10.388Zm1.54-.574-.728.322A14.887,14.887,0,0,1-9.716-8.694l.756-.336A18.008,18.008,0,0,0-10.15-10.962Zm7.112.882c0,.154-.028.672-.07,1.33-.728.112-1.554.21-2.016.238-.336.014-.6.028-.91.014l.112,1.162c.882-.126,2.1-.294,2.744-.378-.042.448-.07.91-.1,1.358-.7,1.106-2.31,3.29-3.094,4.27l.7.966C-5-2.072-4.074-3.4-3.388-4.438c0,.224-.014.42-.014.56-.028,1.526-.028,2.24-.042,3.584a7.76,7.76,0,0,1-.042.826h1.218c-.028-.252-.056-.6-.07-.854-.07-1.246-.056-2.1-.056-3.374,0-.5.014-1.064.042-1.652a6.527,6.527,0,0,1,4.382-2,2.56,2.56,0,0,1,2.7,2.492C4.746-2.45,2.618-1.344.252-1.008L.77.042c3.052-.588,5.11-2.058,5.1-4.872A3.537,3.537,0,0,0,2.2-8.372,7.076,7.076,0,0,0-2.268-6.608c.014-.308.042-.616.07-.91.21-.35.448-.728.63-.98l-.42-.49c-.028.014-.042.014-.07.028.1-.98.21-1.764.28-2.114l-1.316-.042A6.691,6.691,0,0,1-3.038-10.08ZM13.1-1.47a1.023,1.023,0,0,1,1.12-.9A1.909,1.909,0,0,1,16.1-.462a7.188,7.188,0,0,1-1.134.084C13.874-.378,13.1-.8,13.1-1.47Zm-1.792-8.848.042,1.162c.294-.042.616-.07.924-.084.742-.042,3.542-.168,4.284-.2-.714.63-2.464,2.1-3.248,2.744-.812.686-2.6,2.184-3.766,3.136l.8.826c1.778-1.806,3.024-2.8,5.362-2.8,1.82,0,3.136,1.036,3.136,2.408a2.459,2.459,0,0,1-1.75,2.394,2.71,2.71,0,0,0-2.856-2.478,1.966,1.966,0,0,0-2.156,1.82C12.082-.224,13.244.6,15.148.6c2.968,0,4.816-1.456,4.816-3.71,0-1.89-1.666-3.29-3.99-3.29a5.924,5.924,0,0,0-1.946.294c1.092-.91,3-2.534,3.7-3.066.252-.21.532-.392.784-.574l-.644-.812a3.3,3.3,0,0,1-.756.112c-.742.07-4.074.182-4.8.182A8.347,8.347,0,0,1,11.312-10.318Zm22.9,1.19H32.172v-.91h2.044Zm0,1.6H32.172v-.924h2.044Zm-8.05-.924H28.1v.924H26.166Zm0-1.582H28.1v.91H26.166ZM31.15-8.456v.924H29.106v-.924Zm0-1.582v.91H29.106v-.91Zm4.074-.7H32.172v-.98H31.15v.98H29.106v-.98H28.1v.98H25.2v3.92H35.224Zm-.5,8.386a19.922,19.922,0,0,1-2.576,1.2,4.687,4.687,0,0,1-1.3-1.2ZM28.294-.266V-2.352H29.82A5.556,5.556,0,0,0,31.276-.63Zm6.552-2.086H36.3v-.8H26c.042-.42.056-.84.056-1.2v-.994H35.98v-.784H25.06v1.764A7.865,7.865,0,0,1,23.716.56a4.614,4.614,0,0,1,.882.532,7.469,7.469,0,0,0,1.316-3.444h1.372V-.14c-.448.056-.854.1-1.218.14l.126.9C27.566.714,29.47.462,31.3.224L31.276-.63a9.05,9.05,0,0,0,4.592,1.694,3.094,3.094,0,0,1,.616-.9,10.678,10.678,0,0,1-3.57-.882,21.653,21.653,0,0,0,2.6-1.064Zm-.07-1.54v-.714H26.852v.714Zm12.53-4.452a12.8,12.8,0,0,1-.714,1.456l.14.042h-3.29l.448-.1a5.931,5.931,0,0,0-.7-1.4Zm4.018,6.09v-.882H45.71V-4.172h4.382v-.8H45.71V-5.992h5.068v-.854H47.6c.28-.42.588-.966.868-1.5h2.8v-.9H49.1a19.576,19.576,0,0,0,1.232-2.016l-1.064-.28A15.883,15.883,0,0,1,48.2-9.408l.518.168H47.026v-2.478h-.98V-9.24H44.38v-2.478h-.966V-9.24H41.692l.714-.266a9.65,9.65,0,0,0-1.19-2.058l-.882.294A10.913,10.913,0,0,1,41.44-9.24H39.214v.9H42.63l-.49.1a5.878,5.878,0,0,1,.686,1.4H39.774v.854h4.914V-4.97H40.474v.8h4.214v1.036h-5.53v.882h4.578A13.493,13.493,0,0,1,38.794-.042a4.458,4.458,0,0,1,.672.882,14.069,14.069,0,0,0,5.222-2.758V1.064H45.71V-1.988A13.217,13.217,0,0,0,50.974.882a3.743,3.743,0,0,1,.7-.924,12.809,12.809,0,0,1-5-2.212ZM60.9-.378V-3.934h4.494V-4.942H60.9V-7.994h5.012V-9.016H60.9V-11.7H59.836v2.688H56.994a19.217,19.217,0,0,0,.784-2.24l-1.05-.224a12.763,12.763,0,0,1-2.59,5.152,6.971,6.971,0,0,1,.952.616,12.561,12.561,0,0,0,1.456-2.282h3.29v3.052H55.678v1.008h4.158V-.378h-5.67V.63h12.4V-.378ZM77.07-1.89h3.346v-.84H77.07V-4.2h3.71v-.84H77.07V-6.286H76.034V-5.04h-2.17a7.72,7.72,0,0,0,.462-1.05l-.938-.224A7.361,7.361,0,0,1,71.6-3.4a5.716,5.716,0,0,1,.812.5A9.066,9.066,0,0,0,73.4-4.2h2.632v1.47H72.87v.84h3.164V-.126H71.68v.9h9.94v-.9H77.07Zm.8-7.672a16.264,16.264,0,0,1-.756,1.834l.49.168h-4.27l.63-.182a6,6,0,0,0-.77-1.82Zm.14,2c.322-.518.7-1.218,1.05-1.876l-.518-.126h2.436v-.9h-5v-1.26H74.956v1.26H70.042v.9h2.9l-.714.2a7.7,7.7,0,0,1,.742,1.806H70.252v2.17A10.913,10.913,0,0,1,68.978.392a4.538,4.538,0,0,1,.8.658c1.232-1.862,1.47-4.606,1.47-6.44V-6.636H81.69V-7.56ZM90.2-7.238V-9.03H93.31a22.132,22.132,0,0,1-2.128,1.792ZM94-2.576h-5.67V-3.962H94ZM88.326-.294V-1.75H94V-.294ZM96.768-6.3v-.938H92.736a21.234,21.234,0,0,0,3.4-3.514l-.882-.476a16.4,16.4,0,0,1-1.6,1.848v-.574H90.2V-11.7H89.18v1.75H85.61v.924h3.57v1.792H84.392V-6.3h5.446a27.626,27.626,0,0,1-5.754,2.772,6.063,6.063,0,0,1,.658.854C85.6-3,86.464-3.374,87.3-3.78V1.064h1.022V.616H94v.392H95.06V-4.844H89.278c.77-.448,1.526-.938,2.254-1.456Zm7.294,1.932c-.238-.378-1.288-1.96-1.68-2.478v-.882h1.6v-.966h-1.6v-3.024h-.952v3.024H99.47v.966h1.848a15.2,15.2,0,0,1-2.128,5.25,5.808,5.808,0,0,1,.532.9,14.618,14.618,0,0,0,1.708-3.906V1.05h.952V-5.614c.42.7.91,1.568,1.106,2.016Zm2.828,1.932c-1.274.7-2.59,1.414-3.472,1.862l.49.868c.952-.532,2.142-1.218,3.262-1.876Zm-2.464-1.876a10.155,10.155,0,0,1,1.4,1.876l.756-.532a9.794,9.794,0,0,0-1.442-1.806Zm5.53,1.946a18.78,18.78,0,0,0,1.9-1.9l-.8-.56a14.391,14.391,0,0,1-1.722,1.876,8.642,8.642,0,0,1-.84-1.82v-.56h3.528v-.882H108.5V-7.294h3.024v-.812H108.5V-9.1h3.332v-.854h-1.848c.266-.42.574-.966.868-1.484l-1.022-.294A12.185,12.185,0,0,1,109.018-10l.126.042h-2.436l.252-.1a7.437,7.437,0,0,0-.84-1.61l-.812.266a10.447,10.447,0,0,1,.7,1.442h-1.75V-9.1h3.234v.994h-2.828v.812h2.828v1.078h-3.528v.882h3.528V-.1c0,.182-.042.238-.224.238s-.784.014-1.4,0a3.4,3.4,0,0,1,.294.952A5.235,5.235,0,0,0,108.024.91c.364-.168.476-.448.476-1.008V-2.8A7.357,7.357,0,0,0,111.608.476a4.426,4.426,0,0,1,.672-.84A6.147,6.147,0,0,1,109.508-2.7Z" transform="translate(188 4839)"/>
    <path id="パス_4353" data-name="パス 4353" d="M-56.364-9.128h-2.044v-.91h2.044Zm0,1.6h-2.044v-.924h2.044Zm-8.05-.924h1.932v.924h-1.932Zm0-1.582h1.932v.91h-1.932Zm4.984,1.582v.924h-2.044v-.924Zm0-1.582v.91h-2.044v-.91Zm4.074-.7h-3.052v-.98H-59.43v.98h-2.044v-.98h-1.008v.98h-2.9v3.92h10.024Zm-.5,8.386a19.922,19.922,0,0,1-2.576,1.2,4.687,4.687,0,0,1-1.3-1.2ZM-62.286-.266V-2.352h1.526A5.556,5.556,0,0,0-59.3-.63Zm6.552-2.086h1.456v-.8h-10.3c.042-.42.056-.84.056-1.2v-.994H-54.6v-.784H-65.52v1.764A7.865,7.865,0,0,1-66.864.56a4.614,4.614,0,0,1,.882.532,7.469,7.469,0,0,0,1.316-3.444h1.372V-.14c-.448.056-.854.1-1.218.14l.126.9c1.372-.182,3.276-.434,5.11-.672L-59.3-.63a9.05,9.05,0,0,0,4.592,1.694,3.094,3.094,0,0,1,.616-.9,10.678,10.678,0,0,1-3.57-.882,21.653,21.653,0,0,0,2.6-1.064Zm-.07-1.54v-.714h-7.924v.714Zm12.53-4.452a12.8,12.8,0,0,1-.714,1.456l.14.042h-3.29l.448-.1a5.932,5.932,0,0,0-.7-1.4Zm4.018,6.09v-.882H-44.87V-4.172h4.382v-.8H-44.87V-5.992H-39.8v-.854H-42.98c.28-.42.588-.966.868-1.5h2.8v-.9h-2.17a19.577,19.577,0,0,0,1.232-2.016l-1.064-.28a15.883,15.883,0,0,1-1.064,2.128l.518.168h-1.694v-2.478h-.98V-9.24H-46.2v-2.478h-.966V-9.24h-1.722l.714-.266a9.65,9.65,0,0,0-1.19-2.058l-.882.294A10.913,10.913,0,0,1-49.14-9.24h-2.226v.9h3.416l-.49.1a5.878,5.878,0,0,1,.686,1.4h-3.052v.854h4.914V-4.97h-4.214v.8h4.214v1.036h-5.53v.882h4.578A13.493,13.493,0,0,1-51.786-.042a4.458,4.458,0,0,1,.672.882,14.069,14.069,0,0,0,5.222-2.758V1.064h1.022V-1.988A13.217,13.217,0,0,0-39.606.882a3.743,3.743,0,0,1,.7-.924,12.809,12.809,0,0,1-5-2.212ZM-23.8-9.828a8.84,8.84,0,0,0-1.442-1.778l-.728.378A9.859,9.859,0,0,1-24.556-9.38Zm-8.33-1.4h-3.836v.84h3.836Zm-.84,8.3V-.574h-2.2V-2.926Zm.9-.854H-36.05V.91h.882V.266h3.094Zm-3.962-1.036h3.976v-.84h-3.976Zm0-1.862h3.976V-7.5h-3.976Zm-.616-1.862h4.928v-.854h-4.928Zm7.7,7.2V-5.138h1.428v-.9h-3.864v.9H-29.9v3.99c-.658.14-1.26.252-1.75.35l.238.952c1.2-.28,2.786-.63,4.284-.994l-.056-.868Zm4.984-6.65v-.938h-2.184q-.021-1.323,0-2.772H-27.16c.014.966.014,1.89.028,2.772H-31.5v.938h4.4c.126,5.516.546,9.016,2.254,9.072.462.014.966-.5,1.218-2.534a3.757,3.757,0,0,1-.77-.588C-24.458-.91-24.612-.2-24.836-.21c-.826-.056-1.218-3.136-1.3-7.784Zm11.1-3.71a8.947,8.947,0,0,1-3.3,3.57,3.8,3.8,0,0,1,.518.812,10.549,10.549,0,0,0,3.3-3.444A11.4,11.4,0,0,0-9.016-7.448,6.214,6.214,0,0,1-8.47-8.33,9.936,9.936,0,0,1-11.928-11.7Zm-8.19,12a6.739,6.739,0,0,0,.77-3.3l-.658-.126a6.208,6.208,0,0,1-.7,3.094ZM-19.964-2.9a13.945,13.945,0,0,1,.2,2.562l.574-.084a14.062,14.062,0,0,0-.224-2.548Zm.028-3.22h1.358V-4.83h-1.358Zm1.358-4.13v1.2h-1.358v-1.2Zm0,3.29h-1.358V-8.2h1.358Zm.854,2.128V-6.118h1.554v-.84h-1.554V-8.2h1.554v-.84h-1.554v-1.2h1.848v-.882h-4.956v7.14h4.172c-.042.938-.084,1.68-.14,2.254a8.426,8.426,0,0,0-.756-1.694l-.49.182a8.127,8.127,0,0,1,.756,1.82l.476-.2A4.026,4.026,0,0,1-17.15.1a.419.419,0,0,1-.378.14c-.182,0-.616,0-1.092-.028a2.088,2.088,0,0,1,.238.826,9.123,9.123,0,0,0,1.246,0,1,1,0,0,0,.742-.364c.322-.42.49-1.652.63-5.1.014-.14.014-.406.014-.406Zm-.14,3.92a10.049,10.049,0,0,0-.574-2.226l-.518.112A10.927,10.927,0,0,1-18.41-.77Zm3.388-2.716V-5.46h1.694V-5a9.138,9.138,0,0,1-.084,1.372Zm4.368-1.834v1.834h-1.82a11.031,11.031,0,0,0,.07-1.358V-5.46Zm.91,2.632V-6.272h-2.66V-7.378h1.736v-.854h-4.326v.854h1.666v1.106h-2.576v3.444h2.31A5.215,5.215,0,0,1-16.156.336a3.563,3.563,0,0,1,.658.728,5.8,5.8,0,0,0,3.29-3.388A5.964,5.964,0,0,0-9.24,1.05,3.8,3.8,0,0,1-8.582.224a5.26,5.26,0,0,1-2.912-3.052Zm6.678,1.2H-4.41v-4.13h1.89ZM-6.244-10h1.75a13.169,13.169,0,0,1-2,5.4A6.581,6.581,0,0,1-6.02-3.486a8.118,8.118,0,0,0,.728-1.12V.434h.882V-.686H-1.6V-6.678H-4.382A26.118,26.118,0,0,0-3.514-10h2.17v-.952h-4.9Zm7.8,4.046V-9.968H3.822V-5.95Zm4.83,0H4.816V-9.968h1.3v-.98H-.588v.98H.56V-5.95H-.98v.994H.546A8,8,0,0,1-1.232.532a3.757,3.757,0,0,1,.784.6C1.134-.5,1.5-2.828,1.54-4.956H3.822v6.02h.994v-6.02H6.384Zm9.758-3.528v2.464c0,1.022.28,1.3,1.5,1.3H19.6c.91,0,1.2-.322,1.316-1.6a2.878,2.878,0,0,1-.924-.392c-.028.924-.112,1.064-.49,1.064h-1.75c-.5,0-.588-.056-.588-.392v-2.45h2.87v1.442h1.078V-10.43h-5.46v-1.288H14.6v1.288H9.254v2.506h1.022V-9.478h2.618c-.252,1.862-.98,2.9-3.85,3.444a2.608,2.608,0,0,1,.532.826c3.206-.672,4.088-1.974,4.41-4.27Zm2.744,9.45c-.392,0-.448-.056-.448-.434V-4.4H14.77V-6.1H13.734V-4.4h-4v.966h3.892C13.328-2.128,12.25-.7,8.778.252a4.81,4.81,0,0,1,.7.854C13.356,0,14.448-1.764,14.7-3.43h2.66V-.462C17.36.686,17.668.98,18.732.98h1.456c.966,0,1.26-.532,1.358-2.646a2.979,2.979,0,0,1-.98-.448c-.042,1.82-.112,2.086-.49,2.086ZM32.844-6.622,33-5.838c.882-.084,1.876-.154,2.926-.266a2.836,2.836,0,0,1,.168.574l.672-.322A7.544,7.544,0,0,0,35.9-7.868l-.644.266a8.477,8.477,0,0,1,.406.8l-1.484.1c.672-.924,1.414-2.128,2-3.122l-.756-.364c-.224.49-.532,1.064-.868,1.638-.168-.2-.392-.406-.616-.63.35-.56.8-1.372,1.148-2.072l-.812-.322a16.66,16.66,0,0,1-.854,1.96c-.112-.1-.224-.168-.322-.252l-.434.574a8.881,8.881,0,0,1,1.47,1.414,14.357,14.357,0,0,1-.84,1.232Zm-4.83.14.154.826c.854-.084,1.82-.182,2.828-.266a3.818,3.818,0,0,1,.112.476l.686-.294a7.352,7.352,0,0,0-.784-2.016l-.644.238a7.044,7.044,0,0,1,.378.868l-1.372.084a35.952,35.952,0,0,0,2.1-3.262l-.756-.364c-.224.49-.532,1.064-.868,1.638a4.909,4.909,0,0,0-.6-.616c.35-.574.77-1.4,1.134-2.086l-.812-.322a16.5,16.5,0,0,1-.84,1.96l-.336-.252-.434.574a10.333,10.333,0,0,1,1.484,1.428c-.322.49-.644.966-.938,1.358Zm6.748,2.94a6.378,6.378,0,0,1-1.106,1.708,12.784,12.784,0,0,1-.5-1.932h3.416v-.84H35.42l.294-.308A7.025,7.025,0,0,0,34.23-5.922l-.49.5a7.63,7.63,0,0,1,1.176.812h-1.9a45.6,45.6,0,0,1-.42-7.1h-.938a50.758,50.758,0,0,0,.448,7.1h-3.92l.056-.084c-.21-.392-1.162-1.918-1.526-2.422v-.63h1.512v-.952H26.712v-3.024h-.938v3.024H24.01v.952h1.666a16.279,16.279,0,0,1-1.96,5.264,5.467,5.467,0,0,1,.518.868,15.431,15.431,0,0,0,1.54-3.808V1.05h.938V-5.936c.378.7.812,1.554.994,2l.434-.616v.784h.994C28.994-2.1,28.616-.532,27.342.35a2.917,2.917,0,0,1,.63.686,5.014,5.014,0,0,0,1.834-3.08A13.718,13.718,0,0,1,31.318-.868l.588-.714a15.156,15.156,0,0,0-1.932-1.372c.028-.266.07-.532.084-.812h2.184a13.482,13.482,0,0,0,.714,2.618A9.1,9.1,0,0,1,30.338.392a5.838,5.838,0,0,1,.56.658,10.143,10.143,0,0,0,2.436-1.4,2.379,2.379,0,0,0,2.03,1.442c.924,0,1.232-.462,1.4-2.03A2.225,2.225,0,0,1,36.05-1.4C35.98-.14,35.826.2,35.42.2c-.532,0-.994-.406-1.386-1.148a7.775,7.775,0,0,0,1.624-2.254Zm8.974-6.79v1.078H40.67v-1.078ZM40.67-7.378V-8.54h3.066v1.162Zm4.046.77v-4.508H39.648V1.078H40.67V-6.608Zm2.226-.742V-8.54H50.12v1.19Zm3.178-2.982v1.078H46.942v-1.078Zm1.022-.784H45.948v4.522H50.12V-.182c0,.2-.056.266-.238.266S49.168.1,48.58.07a3.409,3.409,0,0,1,.406-.462,4.368,4.368,0,0,1-3.066-1.96H49v-.8H45.7V-4.242h3.066v-.784H47.11c.224-.336.476-.742.714-1.12l-.938-.308a10.047,10.047,0,0,1-.672,1.428h-1.82a4.468,4.468,0,0,0-.756-1.4l-.812.266a4.763,4.763,0,0,1,.63,1.134h-1.5v.784h2.814V-3.15H41.72v.8h2.9c-.28.728-1.05,1.526-3.024,2.072a4.016,4.016,0,0,1,.616.7c1.862-.574,2.744-1.358,3.15-2.142A4.985,4.985,0,0,0,48.4.378a1.487,1.487,0,0,1,.14-.238,3.476,3.476,0,0,1,.28.924A4.974,4.974,0,0,0,50.652.882c.378-.182.49-.49.49-1.05Zm7.7,6.748c-.238-.378-1.288-1.96-1.68-2.478v-.882h1.6v-.966h-1.6v-3.024H56.21v3.024H54.25v.966H56.1a15.2,15.2,0,0,1-2.128,5.25,5.808,5.808,0,0,1,.532.9A14.618,14.618,0,0,0,56.21-5.488V1.05h.952V-5.614c.42.7.91,1.568,1.106,2.016ZM61.67-2.436c-1.274.7-2.59,1.414-3.472,1.862l.49.868C59.64-.238,60.83-.924,61.95-1.582ZM59.206-4.312a10.155,10.155,0,0,1,1.4,1.876l.756-.532A9.794,9.794,0,0,0,59.92-4.774Zm5.53,1.946a18.78,18.78,0,0,0,1.9-1.9l-.8-.56A14.391,14.391,0,0,1,64.12-2.954a8.642,8.642,0,0,1-.84-1.82v-.56h3.528v-.882H63.28V-7.294H66.3v-.812H63.28V-9.1h3.332v-.854H64.764c.266-.42.574-.966.868-1.484l-1.022-.294A12.185,12.185,0,0,1,63.8-10l.126.042H61.488l.252-.1a7.437,7.437,0,0,0-.84-1.61l-.812.266a10.447,10.447,0,0,1,.7,1.442h-1.75V-9.1h3.234v.994H59.444v.812h2.828v1.078H58.744v.882h3.528V-.1c0,.182-.042.238-.224.238s-.784.014-1.4,0a3.4,3.4,0,0,1,.294.952A5.235,5.235,0,0,0,62.8.91c.364-.168.476-.448.476-1.008V-2.8A7.357,7.357,0,0,0,66.388.476a4.426,4.426,0,0,1,.672-.84A6.147,6.147,0,0,1,64.288-2.7Z" transform="translate(188 4923)"/>
    <path id="パス_4354" data-name="パス 4354" d="M-41.5-2.982a20.54,20.54,0,0,1-2.3,1.358,5.319,5.319,0,0,1-1.274-1.358Zm-6.8-2.086h5.894v1.232H-48.3Zm0-1.974h5.894v1.176H-48.3Zm3.43-.854V-9.282h-1.05V-7.9H-48.8a15.7,15.7,0,0,0,3.388-2.9,16.306,16.306,0,0,0,3.57,2.9Zm4.256,4.284c-.224.168-.49.364-.77.56V-7.616a19.8,19.8,0,0,0,1.862.966,6.927,6.927,0,0,1,.672-.91,16.278,16.278,0,0,1-6.118-4.172H-45.99a15.141,15.141,0,0,1-5.824,4.326,4.154,4.154,0,0,1,.616.84,17.343,17.343,0,0,0,1.876-1.008V-.168c-.588.056-1.12.1-1.582.14l.154.966c1.6-.14,3.878-.364,6.062-.6L-44.7-.588l-3.6.336v-2.73h2.184C-44.926-.756-42.7.546-39.69,1.064a3.981,3.981,0,0,1,.63-.9,11,11,0,0,1-3.962-1.274,25.959,25.959,0,0,0,3.192-1.9ZM-27.44-7.476H-33v-2.646h5.558Zm1.05-3.64h-7.616v4.634h7.616ZM-32.116-4V-.686h-2.926V-4Zm-3.92,5.082h.994V.322h2.926v.63h1.022V-5.012h-4.942ZM-28.56-.686V-4h3.178V-.686Zm-1.008-4.326v6.09h1.008V.322h3.178V.98h1.022V-5.012Zm18.788-5.18-1.288-.448a8.031,8.031,0,0,1-.28,1.036,15.662,15.662,0,0,1-1.9,3.822c-1.106-.854-2.73-2-3.934-2.772l-.728.882a43.8,43.8,0,0,1,3.948,2.828,15.544,15.544,0,0,1-5.558,4.4l.966.882A17.836,17.836,0,0,0-14.07-4.088a31.223,31.223,0,0,1,3.3,3.22l.882-.966A35.036,35.036,0,0,0-13.342-5.04a19.5,19.5,0,0,0,2.1-4.13A7.554,7.554,0,0,1-10.78-10.192Zm5.208,4.13V-4.69c.434-.042,1.176-.07,1.946-.07H4.06c.63,0,1.218.056,1.5.07V-6.062c-.308.028-.812.07-1.512.07H-3.626C-4.41-5.992-5.152-6.034-5.572-6.062Zm20.8-4.956H13.916a8.487,8.487,0,0,1,.1,1.162c0,.5-.028.98-.056,1.428H11.494a14.653,14.653,0,0,1-1.6-.084v1.19a14.939,14.939,0,0,1,1.61-.056H13.86a9,9,0,0,1-2.772,5.894A6.9,6.9,0,0,1,9.646-.448l1.022.826c2.338-1.61,3.794-3.738,4.3-7.756h3.92c0,1.5-.182,4.942-.714,6.006a.758.758,0,0,1-.812.462,17.033,17.033,0,0,1-2.086-.154L15.414.1c.728.042,1.54.1,2.254.1a1.453,1.453,0,0,0,1.5-.854c.63-1.344.8-5.418.854-6.762a4.379,4.379,0,0,1,.07-.686L19.306-8.5a5.046,5.046,0,0,1-.9.07H15.078c.028-.462.056-.938.07-1.442C15.162-10.206,15.19-10.7,15.232-11.018Zm9.436,4.956V-4.69c.434-.042,1.176-.07,1.946-.07H34.3c.63,0,1.218.056,1.5.07V-6.062c-.308.028-.812.07-1.512.07H26.614C25.83-5.992,25.088-6.034,24.668-6.062ZM43.722-4.368c-.238-.378-1.288-1.96-1.68-2.478v-.882h1.6v-.966h-1.6v-3.024H41.09v3.024H39.13v.966h1.848a15.2,15.2,0,0,1-2.128,5.25,5.808,5.808,0,0,1,.532.9A14.618,14.618,0,0,0,41.09-5.488V1.05h.952V-5.614c.42.7.91,1.568,1.106,2.016ZM46.55-2.436c-1.274.7-2.59,1.414-3.472,1.862l.49.868C44.52-.238,45.71-.924,46.83-1.582ZM44.086-4.312a10.155,10.155,0,0,1,1.4,1.876l.756-.532A9.794,9.794,0,0,0,44.8-4.774Zm5.53,1.946a18.78,18.78,0,0,0,1.9-1.9l-.8-.56A14.391,14.391,0,0,1,49-2.954a8.642,8.642,0,0,1-.84-1.82v-.56h3.528v-.882H48.16V-7.294h3.024v-.812H48.16V-9.1h3.332v-.854H49.644c.266-.42.574-.966.868-1.484l-1.022-.294A12.185,12.185,0,0,1,48.678-10l.126.042H46.368l.252-.1a7.437,7.437,0,0,0-.84-1.61l-.812.266a10.447,10.447,0,0,1,.7,1.442h-1.75V-9.1h3.234v.994H44.324v.812h2.828v1.078H43.624v.882h3.528V-.1c0,.182-.042.238-.224.238s-.784.014-1.4,0a3.4,3.4,0,0,1,.294.952A5.235,5.235,0,0,0,47.684.91c.364-.168.476-.448.476-1.008V-2.8A7.357,7.357,0,0,0,51.268.476a4.426,4.426,0,0,1,.672-.84A6.147,6.147,0,0,1,49.168-2.7Z" transform="translate(188 5007)"/>
    <path id="パス_4355" data-name="パス 4355" d="M-72.6-4.7c.028-.546.028-1.064.028-1.54V-7.07h1.96V-4.7Zm1.988-5.628v2.31h-1.96v-2.31Zm.98-.952h-3.892v5.04c0,2.058-.07,4.886-.98,6.86a2.844,2.844,0,0,1,.854.476,14.878,14.878,0,0,0,1.008-4.816h2.03v3.4c0,.2-.07.266-.252.28s-.756,0-1.4-.028A3.56,3.56,0,0,1-71.96.952a4.514,4.514,0,0,0,1.848-.21c.35-.168.476-.476.476-1.05Zm3.794,1.246V-6.02H-67.55v-4.018Zm2.59,4.018h-1.694v-4.018h1.694ZM-66.57-.154c-.826,0-.98-.168-.98-.924V-5.026h4.3v.742h1.008v-6.748h-6.314v9.94c0,1.54.476,1.932,1.918,1.932h3.08c1.47,0,1.778-.8,1.946-3.08a3.679,3.679,0,0,1-.966-.42c-.1,2-.238,2.506-1.036,2.506Zm16.6-8.862a10.792,10.792,0,0,0-2.2-1.708l-.532.7a11.566,11.566,0,0,1,2.2,1.806Zm-.6,3.346A10.89,10.89,0,0,0-52.92-7.238l-.49.728a10.479,10.479,0,0,1,2.324,1.68Zm-4.046-5.208a25.861,25.861,0,0,1-.924,3.15l.672.224a28.647,28.647,0,0,0,1.148-3.15Zm-2.912,3.122a12.722,12.722,0,0,0-.826-3.066l-.756.182a13.518,13.518,0,0,1,.756,3.108ZM-56-6.062h2.282v-.98H-56v-4.62h-.966v4.62h-2.24v.98h1.96A14.4,14.4,0,0,1-59.43-1.708,6.277,6.277,0,0,1-58.9-.7a16.056,16.056,0,0,0,1.932-3.99V1.064H-56v-5.74c.5.784,1.162,1.862,1.414,2.38l.686-.812c-.308-.476-1.708-2.324-2.1-2.758Zm9.548,2.87-.154-.952-1.652.294V-11.7h-.98v8.036l-4.508.8.168.966,4.34-.784V1.064h.98V-2.87ZM-37.8-6.8A1.476,1.476,0,0,0-39.284-5.32,1.476,1.476,0,0,0-37.8-3.836,1.476,1.476,0,0,0-36.316-5.32,1.476,1.476,0,0,0-37.8-6.8Zm16.408-3.108c-.336,1.274-1.176,1.974-3.458,2.38a2.844,2.844,0,0,1,.49.742c1.988-.392,3.024-1.05,3.57-2.086.518,1.008,1.54,1.9,3.92,2.324a2.944,2.944,0,0,1,.532-.84c-2.87-.42-3.654-1.442-3.962-2.52h2.24a5.683,5.683,0,0,1-.854,1.078l.826.294a9,9,0,0,0,1.414-1.988l-.7-.21-.168.042H-22.33a8.875,8.875,0,0,0,.476-.868l-.938-.154a6.079,6.079,0,0,1-2.114,2.506,2.634,2.634,0,0,1,.784.518,7.359,7.359,0,0,0,1.246-1.218ZM-26.11-2.828H-19.1v.98H-26.11Zm0-1.638H-19.1V-3.5H-26.11Zm0-1.61H-19.1v.938H-26.11Zm-1.008,4.914h9.058V-6.776h-9.058Zm2.212-9.17a17.932,17.932,0,0,0-2.926-1.078l-.462.714A16.909,16.909,0,0,1-25.368-9.52Zm-.168,1.526c-1.428.392-2.9.812-3.906,1.05l.406.91c1.05-.336,2.366-.742,3.626-1.148Zm.294,7.784a16.032,16.032,0,0,1-4.1,1.344,8.1,8.1,0,0,1,.77.784,19.949,19.949,0,0,0,4.27-1.68Zm3.262.574a30.69,30.69,0,0,1,3.906,1.54l1.148-.518C-17.486.112-19.152-.49-20.664-.98ZM-8.036-4.76c-.35-.406-1.75-2.044-2.268-2.6v-.364h1.9v-.994h-1.9v-3H-11.34v3h-2.324v.994h2.17A13.992,13.992,0,0,1-14.14-2.464a4.606,4.606,0,0,1,.574.98A14.421,14.421,0,0,0-11.34-5.67V1.05H-10.3V-6.1c.574.756,1.3,1.736,1.61,2.24ZM-1.19-8.708H-2.632V-11.69H-3.7v2.982H-7.868v.994H-4.06A15.386,15.386,0,0,1-8.68-1.988a4.693,4.693,0,0,1,.742.84A17.045,17.045,0,0,0-3.7-6.3V-.336c0,.252-.1.322-.35.336S-5.208.014-6.118-.014A4.617,4.617,0,0,1-5.74,1.05,8.1,8.1,0,0,0-3.276.84c.462-.154.644-.476.644-1.19V-7.714H-1.19ZM11.9-10.192l-1.288-.448a8.031,8.031,0,0,1-.28,1.036,15.662,15.662,0,0,1-1.9,3.822c-1.106-.854-2.73-2-3.934-2.772l-.728.882A43.8,43.8,0,0,1,7.714-4.844a15.544,15.544,0,0,1-5.558,4.4l.966.882A17.836,17.836,0,0,0,8.61-4.088a31.223,31.223,0,0,1,3.3,3.22l.882-.966A35.036,35.036,0,0,0,9.338-5.04a19.5,19.5,0,0,0,2.1-4.13A7.554,7.554,0,0,1,11.9-10.192Zm5.208,4.13V-4.69c.434-.042,1.176-.07,1.946-.07H26.74c.63,0,1.218.056,1.5.07V-6.062c-.308.028-.812.07-1.512.07H19.054C18.27-5.992,17.528-6.034,17.108-6.062Zm20.8-4.956H36.6a8.487,8.487,0,0,1,.1,1.162c0,.5-.028.98-.056,1.428H34.174a14.653,14.653,0,0,1-1.6-.084v1.19a14.939,14.939,0,0,1,1.61-.056H36.54a9,9,0,0,1-2.772,5.894A6.9,6.9,0,0,1,32.326-.448l1.022.826c2.338-1.61,3.794-3.738,4.3-7.756h3.92c0,1.5-.182,4.942-.714,6.006a.758.758,0,0,1-.812.462,17.033,17.033,0,0,1-2.086-.154L38.094.1c.728.042,1.54.1,2.254.1a1.453,1.453,0,0,0,1.5-.854c.63-1.344.8-5.418.854-6.762a4.379,4.379,0,0,1,.07-.686L41.986-8.5a5.046,5.046,0,0,1-.9.07H37.758c.028-.462.056-.938.07-1.442C37.842-10.206,37.87-10.7,37.912-11.018Zm9.436,4.956V-4.69c.434-.042,1.176-.07,1.946-.07H56.98c.63,0,1.218.056,1.5.07V-6.062c-.308.028-.812.07-1.512.07H49.294C48.51-5.992,47.768-6.034,47.348-6.062ZM66.4-4.368c-.238-.378-1.288-1.96-1.68-2.478v-.882h1.6v-.966h-1.6v-3.024H63.77v3.024H61.81v.966h1.848a15.2,15.2,0,0,1-2.128,5.25,5.808,5.808,0,0,1,.532.9A14.618,14.618,0,0,0,63.77-5.488V1.05h.952V-5.614c.42.7.91,1.568,1.106,2.016ZM69.23-2.436c-1.274.7-2.59,1.414-3.472,1.862l.49.868C67.2-.238,68.39-.924,69.51-1.582ZM66.766-4.312a10.155,10.155,0,0,1,1.4,1.876l.756-.532A9.794,9.794,0,0,0,67.48-4.774ZM72.3-2.366a18.78,18.78,0,0,0,1.9-1.9l-.8-.56A14.391,14.391,0,0,1,71.68-2.954a8.642,8.642,0,0,1-.84-1.82v-.56h3.528v-.882H70.84V-7.294h3.024v-.812H70.84V-9.1h3.332v-.854H72.324c.266-.42.574-.966.868-1.484l-1.022-.294A12.185,12.185,0,0,1,71.358-10l.126.042H69.048l.252-.1a7.437,7.437,0,0,0-.84-1.61l-.812.266a10.447,10.447,0,0,1,.7,1.442H66.6V-9.1h3.234v.994H67v.812h2.828v1.078H66.3v.882h3.528V-.1c0,.182-.042.238-.224.238s-.784.014-1.4,0a3.4,3.4,0,0,1,.294.952A5.235,5.235,0,0,0,70.364.91c.364-.168.476-.448.476-1.008V-2.8A7.357,7.357,0,0,0,73.948.476a4.426,4.426,0,0,1,.672-.84A6.147,6.147,0,0,1,71.848-2.7Z" transform="translate(188 5091)"/>
    <path id="パス_4356" data-name="パス 4356" d="M-123.242-9.128H-124.6v-1.358h1.358Zm-2.1,0h-1.33v-1.358h1.33Zm-2.072,0H-128.7v-1.358h1.288Zm5.068-2.128h-7.224v2.884h7.224ZM-129.934-3.3l-1.82.518V-5.8h1.456v-.91h-1.456V-9.8h1.666v-.938h-4.34V-9.8h1.736v3.094h-1.582v.91h1.582V-2.52c-.7.2-1.358.378-1.89.5l.252.98c1.274-.364,2.94-.854,4.508-1.344Zm1.512-1.876h4.788v1.414h-4.788Zm5.642,2.338a16.68,16.68,0,0,1-1.834,1.232,5.706,5.706,0,0,1-.9-1.358h2.856v-3h-6.692v3h2.52A13.524,13.524,0,0,1-131.208-.5a4.447,4.447,0,0,1,.616.742A15.51,15.51,0,0,0-127.4-1.484V1.064h.994V-2.268c.084-.07.168-.154.252-.224a6.776,6.776,0,0,0,3.78,3.556A4.048,4.048,0,0,1-121.7.238,6.157,6.157,0,0,1-124.1-1.078,14.957,14.957,0,0,0-122.038-2.3Zm-7.434-4.76v.868h8.54V-7.6Zm20.986-2.17a16.2,16.2,0,0,1-.672,1.5l.434.112h-2.968l.574-.154a5.646,5.646,0,0,0-.6-1.456Zm-5.754,5.628c-.546.252-1.092.5-1.624.742V-7.336h1.442v.042h8.568v-.868h-2.366c.238-.392.49-.924.756-1.428l-.77-.182h2.058v-.854H-110.4V-11.69h-1.008v1.064h-3.29v.854h2l-.658.168a7.036,7.036,0,0,1,.546,1.442h-2.324v-.154h-1.47v-3.248h-.966v3.248H-119.2v.98h1.624v4.368c-.714.308-1.358.588-1.89.784l.378,1.036,4.326-2.058Zm1.792.014h4.788v1.036h-4.788Zm0-1.722h4.788v1.036h-4.788Zm4.284,5.936c-.336,0-.392-.056-.392-.364V-2.366h1.918V-6.58h-6.79v4.214h1.4c-.308,1.3-1.064,2.114-3.332,2.576a3.388,3.388,0,0,1,.588.868c2.52-.616,3.416-1.722,3.766-3.444h1.456v2.1c0,.966.238,1.232,1.26,1.232h1.358c.826,0,1.092-.364,1.19-1.918a2.731,2.731,0,0,1-.882-.364c-.028,1.232-.1,1.4-.42,1.4Zm10.43-9.534v1.12a32.908,32.908,0,0,0,5.754,0V-9.464A23.953,23.953,0,0,1-98.476-9.45Zm.546,5.7-1.008-.1A7.524,7.524,0,0,0-99.176-2.2c0,1.316,1.05,2.1,3.4,2.1a18.972,18.972,0,0,0,3.5-.294L-92.3-1.568a15.444,15.444,0,0,1-3.472.364c-1.9,0-2.366-.616-2.366-1.26A4.889,4.889,0,0,1-97.93-3.752Zm-3.22-6.776-1.246-.112a6.127,6.127,0,0,1-.1.994,39.379,39.379,0,0,0-.63,5.614,17.627,17.627,0,0,0,.518,4.494l1.008-.07c-.014-.14-.028-.336-.042-.49a2.7,2.7,0,0,1,.07-.63,28.573,28.573,0,0,1,.994-3.136l-.588-.448c-.238.574-.574,1.414-.812,2.044a15.355,15.355,0,0,1-.126-1.96,32.509,32.509,0,0,1,.7-5.362C-101.346-9.842-101.22-10.29-101.15-10.528ZM-85.316-8.61h-.826v-1.624h.826Zm1.47,3.7-.056-.042c-.014.042-.056.042-.2.042h-.5c-.182,0-.2-.014-.2-.2V-7.728h.952ZM-87.71-.784V-2.226h3.864V-.784Zm.966-6.944v1.106A2.965,2.965,0,0,1-87.7-4.256a2.093,2.093,0,0,1,.462.406A3.651,3.651,0,0,0-86.17-6.608v-1.12h.784V-5.11c0,.672.168.812.714.812H-84a.525.525,0,0,0,.154-.014v1.3H-87.71V-7.728ZM-88.9-10.234h2.016V-8.61H-88.55V1.022h.84V.056h3.864v.77h.854V-8.61H-84.56v-1.624h1.89v-.938H-88.9ZM-80.15-.056c-.644,0-.77-.1-.77-.616v-5.04h3.15v.938h1.022v-6.314H-82v1.008h4.228v3.374h-4.172V-.672c0,1.274.392,1.6,1.68,1.6h2.324c1.274,0,1.568-.63,1.708-2.9a3.043,3.043,0,0,1-.966-.448c-.07,2.016-.182,2.366-.8,2.366Zm8.316-8.5h3.542v.714l-2.772.14.042.588,2.73-.126v.084c0,.882.434,1.05,1.932,1.05h3.374c1.022,0,1.316-.224,1.414-1.134a2.486,2.486,0,0,1-.8-.21c-.056.616-.168.714-.742.714h-3.206c-.868,0-.994-.07-.994-.406v-.154l3.5-.168-.042-.588-3.458.168v-.672h4.41c-.14.35-.294.7-.42.952l.868.294A11.028,11.028,0,0,0-61.6-9.17l-.742-.21-.168.042h-4.76v-.742h4.732v-.742H-67.27V-11.7h-1.022v2.366h-4.55v3.57c0,1.862-.1,4.438-1.19,6.272a4.218,4.218,0,0,1,.882.532c1.12-1.932,1.316-4.816,1.316-6.8Zm7.966,4.326h-2.576v-.7h2.576Zm0,1.288h-2.576v-.714h2.576Zm-5.992-.714h2.478v.714H-69.86Zm0-1.274h2.478v.7H-69.86Zm6.972-.6H-70.8v3.192h2.954l-.434.392a5.651,5.651,0,0,1,1.806,1.26l.63-.588a5.4,5.4,0,0,0-1.54-1.064h4.494ZM-71.806.8a3.191,3.191,0,0,0,1.68-2.212l-.826-.252a2.74,2.74,0,0,1-1.54,1.89ZM-67.83.042c-.63,0-.742-.056-.742-.364V-1.736h-.938V-.308c0,.924.322,1.162,1.6,1.162h2.422c.952,0,1.232-.294,1.33-1.456A2.624,2.624,0,0,1-65-.924c-.056.854-.14.966-.6.966Zm3.626-1.47A9.017,9.017,0,0,1-62.09.742l.826-.462A9.123,9.123,0,0,0-63.42-1.834Zm9.464-9.478-1.414-.014a7.389,7.389,0,0,1,.112,1.428c0,1.47-.14,5.012-.14,7.084,0,2.282,1.386,3.122,3.4,3.122A7.037,7.037,0,0,0-46.928-2.38l-.8-.952a5.833,5.833,0,0,1-5.012,2.9c-1.33,0-2.3-.546-2.3-2.086,0-2.086.1-5.39.168-6.972A12.053,12.053,0,0,1-54.74-10.906ZM-43.61-9.3l.126,1.218C-41.972-8.4-38.4-8.736-36.9-8.9a5.687,5.687,0,0,0-2.618,4.732c0,3.122,2.954,4.508,5.544,4.606l.406-1.162c-2.282-.084-4.83-.952-4.83-3.7A4.924,4.924,0,0,1-35.2-8.848a11.726,11.726,0,0,1,2.744-.224v-1.12c-.938.042-2.254.112-3.78.252-2.576.21-5.222.476-6.132.574C-42.63-9.338-43.078-9.31-43.61-9.3Zm17.052-.476L-27.916-9.8a6.315,6.315,0,0,1,.1,1.246c0,.812.028,2.52.154,3.738C-27.286-1.19-26.012.126-24.682.126c.938,0,1.792-.812,2.632-3.192l-.882-.994C-23.3-2.66-23.954-1.2-24.668-1.2c-.994,0-1.68-1.554-1.9-3.892-.1-1.162-.112-2.436-.1-3.318A10.659,10.659,0,0,1-26.558-9.772Zm7.294.392L-20.356-9A14.185,14.185,0,0,1-17.92-1.96l1.12-.462A15.046,15.046,0,0,0-19.264-9.38Zm9.828,7.91a1.023,1.023,0,0,1,1.12-.9A1.909,1.909,0,0,1-6.44-.462a7.188,7.188,0,0,1-1.134.084C-8.666-.378-9.436-.8-9.436-1.47Zm-1.792-8.848.042,1.162c.294-.042.616-.07.924-.084.742-.042,3.542-.168,4.284-.2-.714.63-2.464,2.1-3.248,2.744-.812.686-2.6,2.184-3.766,3.136l.8.826c1.778-1.806,3.024-2.8,5.362-2.8,1.82,0,3.136,1.036,3.136,2.408A2.459,2.459,0,0,1-5.446-.728,2.71,2.71,0,0,0-8.3-3.206a1.966,1.966,0,0,0-2.156,1.82C-10.458-.224-9.3.6-7.392.6c2.968,0,4.816-1.456,4.816-3.71,0-1.89-1.666-3.29-3.99-3.29A5.924,5.924,0,0,0-8.512-6.1c1.092-.91,3-2.534,3.7-3.066.252-.21.532-.392.784-.574l-.644-.812a3.3,3.3,0,0,1-.756.112c-.742.07-4.074.182-4.8.182A8.347,8.347,0,0,1-11.228-10.318Zm17.92-.6-1.3-.14a14.628,14.628,0,0,1-.364,3.052c-.84.07-1.666.14-2.128.154a12.329,12.329,0,0,1-1.246,0l.112,1.218c.364-.056.938-.126,1.26-.168C3.388-6.846,4.06-6.93,4.8-7A22.412,22.412,0,0,1,1.848-.014L3,.434a28.8,28.8,0,0,0,2.94-7.546c.616-.056,1.176-.1,1.512-.1.882,0,1.484.238,1.484,1.526A11.858,11.858,0,0,1,8.26-1.4a1.156,1.156,0,0,1-1.218.714A6.812,6.812,0,0,1,5.32-.966L5.5.2a7.611,7.611,0,0,0,1.652.21A1.971,1.971,0,0,0,9.2-.77a13.3,13.3,0,0,0,.812-5.054c0-1.89-1.022-2.366-2.268-2.366-.336,0-.924.042-1.582.1.154-.77.28-1.6.364-2C6.58-10.36,6.636-10.668,6.692-10.92Zm4.816,1.484-1.022.462a16.448,16.448,0,0,1,2.492,5.068l1.092-.518A24.9,24.9,0,0,0,11.508-9.436Zm8.106-1.274-1.106.462c.658,1.512,1.4,3.15,2.044,4.312C19.04-4.9,18.13-3.766,18.13-2.31c0,2.1,1.89,2.884,4.522,2.884a25.9,25.9,0,0,0,4.424-.35l.014-1.246a20.831,20.831,0,0,1-4.48.476c-2.212,0-3.318-.728-3.318-1.89,0-1.064.784-1.988,2.086-2.828a40.8,40.8,0,0,1,3.878-2.142c.406-.21.756-.392,1.064-.574L25.76-9a8.743,8.743,0,0,1-.994.658c-.77.434-2.044,1.05-3.276,1.792A31.915,31.915,0,0,1,19.614-10.71Zm6.944-.14-.756.322A14.465,14.465,0,0,1,26.95-8.582l.756-.336A20.079,20.079,0,0,0,26.558-10.85Zm1.54-.56-.742.308A14.219,14.219,0,0,1,28.532-9.17l.742-.336A16.279,16.279,0,0,0,28.1-11.41ZM40.88-4.662c0,2.506-2.394,3.85-5.8,4.27l.63,1.064C39.34.126,42.07-1.582,42.07-4.62c0-2-1.484-3.108-3.472-3.108a18.524,18.524,0,0,0-4.186.672,8.8,8.8,0,0,1-1.288.21l.364,1.3c.336-.14.742-.294,1.176-.434a13.119,13.119,0,0,1,3.822-.7A2.12,2.12,0,0,1,40.88-4.662ZM35-10.962,34.818-9.9c1.582.28,4.41.56,5.964.658l.168-1.078A37.82,37.82,0,0,1,35-10.962Zm17.052.042-1.3-.14a14.628,14.628,0,0,1-.364,3.052c-.84.07-1.666.14-2.128.154a12.329,12.329,0,0,1-1.246,0l.112,1.218c.364-.056.938-.126,1.26-.168.364-.042,1.036-.126,1.778-.2A22.412,22.412,0,0,1,47.208-.014l1.148.448A28.8,28.8,0,0,0,51.3-7.112c.616-.056,1.176-.1,1.512-.1.882,0,1.484.238,1.484,1.526A11.858,11.858,0,0,1,53.62-1.4,1.156,1.156,0,0,1,52.4-.686a6.812,6.812,0,0,1-1.722-.28L50.862.2a7.611,7.611,0,0,0,1.652.21A1.971,1.971,0,0,0,54.558-.77a13.3,13.3,0,0,0,.812-5.054c0-1.89-1.022-2.366-2.268-2.366-.336,0-.924.042-1.582.1.154-.77.28-1.6.364-2C51.94-10.36,52-10.668,52.052-10.92Zm4.816,1.484-1.022.462a16.448,16.448,0,0,1,2.492,5.068l1.092-.518A24.9,24.9,0,0,0,56.868-9.436ZM73.752-4.9a5.073,5.073,0,0,0-5.362-5.152,5.967,5.967,0,0,0-6.118,5.7c0,2.31,1.246,3.738,2.492,3.738,1.3,0,2.408-1.47,3.262-4.354A27.541,27.541,0,0,0,68.866-9,3.9,3.9,0,0,1,72.6-4.942,4.228,4.228,0,0,1,69.048-.784a10.576,10.576,0,0,1-1.2.182L68.5.434C71.82,0,73.752-1.96,73.752-4.9Zm-10.388.448A4.883,4.883,0,0,1,67.7-8.988a22.874,22.874,0,0,1-.784,3.78c-.714,2.366-1.456,3.3-2.114,3.3C64.176-1.9,63.364-2.688,63.364-4.452Zm17.948-6.776H77.49v.84h3.822Zm.49,1.862H76.748v.854H81.8Zm-.476,1.932h-3.92v.826h3.92ZM77.406-4.7h3.92V-5.53h-3.92Zm3.066,1.932V-.448H78.288V-2.772Zm.91-.854h-4V1.05h.91V.42h3.094ZM86.52-.406V-5.054h2.772v-.98H86.52v-3.85h2.856v-.966H82.264v.966h3.248V-.406h-1.68V-7.364h-.98V-.406H81.8V.588h7.8V-.406Zm9.072-10.486-1.106.462a46.92,46.92,0,0,0,2.03,4.312c-1.5,1.05-2.422,2.184-2.422,3.626,0,2.1,1.9,2.884,4.536,2.884a27.56,27.56,0,0,0,4.424-.35V-1.2a20.831,20.831,0,0,1-4.48.476c-2.212,0-3.318-.728-3.318-1.89,0-1.064.784-1.988,2.086-2.828A46.509,46.509,0,0,1,101.6-7.77c.406-.21.756-.392,1.078-.588l-.616-.994a7.647,7.647,0,0,1-.994.658c-.77.42-2.282,1.162-3.6,1.96A30.149,30.149,0,0,1,95.592-10.892Zm15.568-.014-1.414-.014a7.389,7.389,0,0,1,.112,1.428c0,1.47-.14,5.012-.14,7.084,0,2.282,1.386,3.122,3.4,3.122a7.037,7.037,0,0,0,5.852-3.094l-.8-.952a5.833,5.833,0,0,1-5.012,2.9c-1.33,0-2.3-.546-2.3-2.086,0-2.086.1-5.39.168-6.972A12.054,12.054,0,0,1,111.16-10.906ZM122.29-9.3l.126,1.218C123.928-8.4,127.5-8.736,129-8.9a5.687,5.687,0,0,0-2.618,4.732c0,3.122,2.954,4.508,5.544,4.606l.406-1.162c-2.282-.084-4.83-.952-4.83-3.7A4.924,4.924,0,0,1,130.7-8.848a11.726,11.726,0,0,1,2.744-.224v-1.12c-.938.042-2.254.112-3.78.252-2.576.21-5.222.476-6.132.574C123.27-9.338,122.822-9.31,122.29-9.3ZM-125.44,18.68a9.3,9.3,0,0,0,2.786,6.664l.84-.434a8.761,8.761,0,0,1-2.6-6.23,8.761,8.761,0,0,1,2.6-6.23l-.84-.434A9.3,9.3,0,0,0-125.44,18.68Zm18.648.658v-.91h-2.6V16.482a13.214,13.214,0,0,0,2.128-.574l-.728-.714a21.084,21.084,0,0,1-4.676.98,3.212,3.212,0,0,1,.28.742c.644-.056,1.344-.154,2.03-.266v1.778H-112.8v.91h2.436v2.3h-2.156v.9h5.432v-.9h-2.31v-2.3Zm-10.64-4.83h10.626V13.57h-5.306V12.3h-1.064V13.57h-5.25v4.116c0,2.03-.084,4.844-1.134,6.846a3.342,3.342,0,0,1,.868.574c1.106-2.114,1.26-5.264,1.26-7.42Zm3.766,4.046-.182.028h-1.414c.6-.98,1.2-2.03,1.652-2.842l-.658-.238-.168.042h-2.478v.868h1.932c-.532.938-1.26,2.184-1.89,3.15l.812.28.266-.42h1.638a8.811,8.811,0,0,1-1.022,2.772,5.854,5.854,0,0,1-.9-1.946l-.756.266a7.744,7.744,0,0,0,1.12,2.436,5.264,5.264,0,0,1-1.848,1.442,4.684,4.684,0,0,1,.658.728,6.165,6.165,0,0,0,1.834-1.484c1.134.98,2.646,1.232,4.634,1.232h3.542a3.6,3.6,0,0,1,.35-.938c-.63.014-3.374.014-3.85.014a6.281,6.281,0,0,1-4.13-1.05,10.582,10.582,0,0,0,1.414-4.144Zm19.824-2.128H-97.51v-.882h2.926V14.9H-97.51v-.784h-.938V14.9h-2.8v.644h2.8v.882h-3.612V17.1h8.218ZM-95,20.108c-.392.308-.882.658-1.316.952a6.016,6.016,0,0,1-1.078-.952Zm-5.292-1.75h4.7v1.106h-4.7Zm5.628,1.47V17.742h-6.5v2.366h2.534a11.691,11.691,0,0,1-3.682,1.862,4.576,4.576,0,0,1,.6.7,15.062,15.062,0,0,0,3.08-1.61v2.072h.938V20.85a9.048,9.048,0,0,0,3.584,2.17,2.992,2.992,0,0,1,.574-.686,9.212,9.212,0,0,1-2.212-.91A12.052,12.052,0,0,0-94,20.234Zm-8.078,3.71V13.85h9.6v9.688Zm-.994-10.64V25.064h.994v-.588h9.6v.588h1.022V12.9Zm21.7,2.212.8-.63A24,24,0,0,0-83.3,12.7l-.8.574A25.355,25.355,0,0,1-82.04,15.11Zm-4.452-1.2-1.148.462c.224.28.5.714.686.994.238.392.5.924.8,1.54-.616.28-1.19.532-1.666.714a10.035,10.035,0,0,1-1.148.378l.532,1.148c.644-.294,1.624-.8,2.7-1.316.182.364.35.756.532,1.162a42.3,42.3,0,0,1,1.9,5.74l1.2-.322a62.106,62.106,0,0,0-2.128-5.88c-.168-.378-.35-.77-.532-1.162a12.62,12.62,0,0,1,4.578-1.414c1.372,0,2.03.756,2.03,1.582,0,1.008-.644,1.848-2.17,1.848a5.068,5.068,0,0,1-1.988-.448l-.042,1.092a6.377,6.377,0,0,0,2.1.392c2.184,0,3.22-1.218,3.22-2.828,0-1.526-1.19-2.632-3.122-2.632a14.387,14.387,0,0,0-5.04,1.5c-.28-.588-.56-1.148-.812-1.61A10.174,10.174,0,0,1-86.492,13.906Zm22.078-1.456-.756.322a13.123,13.123,0,0,1,1.106,1.89l.784-.35A20.6,20.6,0,0,0-64.414,12.45Zm1.778-.406-.77.322a15.328,15.328,0,0,1,1.134,1.862l.784-.336C-61.782,13.36-62.3,12.52-62.636,12.044Zm-9.912,2.772v1.246c.322-.014,1.008-.042,1.54-.042H-64.3v6.608h-6.874a14.557,14.557,0,0,1-1.554-.084v1.274c.378-.028,1.008-.056,1.582-.056H-64.3c-.014.336-.028.63-.028.784h1.26c-.014-.224-.056-.854-.056-1.358V15.964c0-.336.028-.77.042-1.092-.28.014-.7.028-1.05.028h-6.888A14.128,14.128,0,0,1-72.548,14.816Zm20.314,8.89.742.616A3,3,0,0,1-51.016,24a13.918,13.918,0,0,0,4.774-3.878l-.658-.952a10.757,10.757,0,0,1-4.088,3.444V14.536a8.663,8.663,0,0,1,.056-1.036H-52.22a6.644,6.644,0,0,1,.084,1.036v8.386A3.333,3.333,0,0,1-52.234,23.706Zm-6.412-.07,1.05.714A7.824,7.824,0,0,0-55.1,20.5a30.625,30.625,0,0,0,.434-5.95c0-.42.056-.84.07-1.008h-1.288a5.158,5.158,0,0,1,.1,1.022,24.992,24.992,0,0,1-.42,5.628A6.645,6.645,0,0,1-58.646,23.636ZM-32.4,14.69l-.854-.546a2.875,2.875,0,0,1-.742.07H-41.02c-.462,0-1.008-.042-1.4-.084v1.232c.364-.014.84-.042,1.4-.042h7.154A10.651,10.651,0,0,1-35.7,19.884a9.342,9.342,0,0,1-5.46,3.374l.952,1.05a10.7,10.7,0,0,0,5.516-3.752,13.677,13.677,0,0,0,2.086-5.166A2.952,2.952,0,0,1-32.4,14.69Zm14.5-.1h-4.48V13.486h4.48Zm0,1.848h-4.48V15.32h4.48Zm.966-3.738h-6.4v4.522h6.4Zm-7.588,6.874-1.428.644V16.286h1.512v-.98h-1.512V12.394h-.966v2.912h-1.638v.98h1.638v4.382c-.714.322-1.372.6-1.9.826l.406,1.022c1.176-.56,2.7-1.3,4.116-2.016Zm8.582-.686v-.882H-24.7v.882h1.96a7.928,7.928,0,0,1-2.772,2.8,4.563,4.563,0,0,1,.714.644,9.6,9.6,0,0,0,1.82-1.6h1.414a9.239,9.239,0,0,1-3.15,3.136,2.753,2.753,0,0,1,.686.644,10.573,10.573,0,0,0,3.4-3.78h1.358a8.235,8.235,0,0,1-2.73,3.78,3.173,3.173,0,0,1,.742.6A9.74,9.74,0,0,0-18.4,20.738H-17.3c-.182,2.2-.392,3.08-.63,3.332-.1.14-.224.154-.42.154s-.672-.014-1.19-.056a1.766,1.766,0,0,1,.238.84c.56.028,1.078.028,1.386.014a1.136,1.136,0,0,0,.784-.35c.392-.406.616-1.5.826-4.382a3.994,3.994,0,0,0,.042-.42h-6.02a8.751,8.751,0,0,0,.6-.98Zm5.544,5.894.952-.812a26.278,26.278,0,0,0-3.136-3.108l-.91.8A23.324,23.324,0,0,1-10.388,24.784ZM4.018,23.552l.812.7A2.163,2.163,0,0,1,5.418,24a16.194,16.194,0,0,0,8.19-5l-.63-.98A15.108,15.108,0,0,1,5.32,22.8V14.858a9.054,9.054,0,0,1,.1-1.274H4.032a8.531,8.531,0,0,1,.126,1.274v8.008A1.542,1.542,0,0,1,4.018,23.552Zm22.036-10-.77.322a15.654,15.654,0,0,1,1.274,2.212l.8-.364A20.671,20.671,0,0,0,26.054,13.556Zm1.834-.672-.784.336a15.221,15.221,0,0,1,1.33,2.17l.8-.364A20.187,20.187,0,0,0,27.888,12.884Zm-7.812.462-.63.938c.812.476,2.338,1.484,3.01,2l.658-.966C22.512,14.886,20.9,13.808,20.076,13.346Zm-2.1,10.01.644,1.134a16.718,16.718,0,0,0,4.634-1.736,16.476,16.476,0,0,0,5.39-5l-.672-1.162a14.31,14.31,0,0,1-5.306,5.138A15.323,15.323,0,0,1,17.976,23.356Zm-.014-6.86-.63.952A30.93,30.93,0,0,1,20.4,19.366l.63-.98C20.426,17.952,18.788,16.944,17.962,16.5ZM35.84,15.432l-1.2.294a3.479,3.479,0,0,1,.336.84c.084.266.252.868.462,1.61-.854.154-1.512.28-1.708.308-.42.07-.77.126-1.162.154l.28,1.064c.378-.084,1.526-.308,2.842-.574.546,2,1.218,4.48,1.4,5.11a7.818,7.818,0,0,1,.21,1.022l1.19-.308c-.084-.252-.224-.686-.308-.952-.182-.616-.868-3.08-1.428-5.1,1.946-.392,3.92-.784,4.242-.84a12.923,12.923,0,0,1-2.408,2.884l.994.49A19.367,19.367,0,0,0,42.56,17.35l-.7-.49a2.958,2.958,0,0,1-.532.168c-.476.112-2.856.574-4.83.952-.21-.742-.378-1.344-.462-1.652C35.952,15.978,35.882,15.67,35.84,15.432ZM47,17.938V19.31c.434-.042,1.176-.07,1.946-.07H56.63c.63,0,1.218.056,1.5.07V17.938c-.308.028-.812.07-1.512.07H48.944C48.16,18.008,47.418,17.966,47,17.938Zm16.814-.49c.028-.63.042-1.274.056-1.918h3.36v-.966H64.792V12.31h-.98v2.254H61.348v.966h1.526c-.056,3.444-.224,6.916-1.68,8.848a2.883,2.883,0,0,1,.784.686c1.176-1.582,1.61-4,1.778-6.664h1.68c-.084,3.892-.168,5.25-.406,5.572a.427.427,0,0,1-.434.2c-.2,0-.714,0-1.288-.056a2.489,2.489,0,0,1,.266.924,10.349,10.349,0,0,0,1.484,0,1.01,1.01,0,0,0,.812-.448c.35-.462.434-2.03.532-6.664.014-.14.014-.476.014-.476ZM74,15.194v-.952h-5a16.931,16.931,0,0,0,.518-1.75l-1.008-.21a10.2,10.2,0,0,1-2.058,4.438,8.093,8.093,0,0,1,.8.728,9.726,9.726,0,0,0,1.358-2.254Zm-4.256,8.918c-.77,0-.9-.112-.9-.644V19.576l1.316-.63v3.766h.9V18.526l1.5-.714c0,1.666-.028,2.9-.07,3.108-.042.238-.126.266-.294.266a6.886,6.886,0,0,1-.728-.014,2.691,2.691,0,0,1,.224.812,3.762,3.762,0,0,0,1.05-.084.76.76,0,0,0,.63-.756c.056-.392.084-2.156.084-4.144l.042-.168-.658-.238-.168.126-.07.07-1.54.714V15.712h-.9v2.212l-1.316.616V16.8h-.938v2.184l-1.232.574.392.854.84-.392v3.43c0,1.232.378,1.54,1.764,1.54H72.52c1.176,0,1.484-.462,1.61-2.114a2.9,2.9,0,0,1-.882-.378c-.056,1.344-.168,1.61-.784,1.61Zm11.41-11.34H77.126v.84h4.032Zm.518,1.834H76.4v.854h5.278Zm-1.4,6.468v2.352H77.938V21.074Zm.91-.854H77.028v4.69h.91v-.644h3.248Zm-4.13-1.036H81.2v-.84H77.056Zm0-1.862H81.2V16.5H77.056Zm6.706-3.668h2.394v2.492c0,.994.252,1.26,1.106,1.26h.966c.742,0,.994-.406,1.078-2.044a2.311,2.311,0,0,1-.868-.378c-.028,1.344-.084,1.526-.336,1.526h-.7c-.224,0-.266-.056-.266-.364V12.73H82.768v1.68a3.229,3.229,0,0,1-1.554,2.982,5.067,5.067,0,0,1,.756.686,4.1,4.1,0,0,0,1.792-3.654Zm4.032,4.606-.182.042H81.858v.952H87.15a7.455,7.455,0,0,1-1.834,2.73,7.835,7.835,0,0,1-1.806-2.7l-.924.28a9.446,9.446,0,0,0,1.96,3.052,9.524,9.524,0,0,1-3.3,1.54,3.628,3.628,0,0,1,.56.91,10.714,10.714,0,0,0,3.514-1.736,9.541,9.541,0,0,0,3.332,1.722,4.458,4.458,0,0,1,.672-.882,8.889,8.889,0,0,1-3.22-1.512,9.085,9.085,0,0,0,2.366-4.13Zm9.45-5.376-1.232-.112a11.614,11.614,0,0,1-.434,2.422c-.546.042-1.078.07-1.582.07a13.206,13.206,0,0,1-1.708-.1l.07,1.05c.532.028,1.12.042,1.638.042.406,0,.826-.014,1.246-.042a20.717,20.717,0,0,1-3,5.236l1.078.56A24.762,24.762,0,0,0,96.376,16.1a18.986,18.986,0,0,0,2.548-.518l-.028-1.05a13.53,13.53,0,0,1-2.2.518C96.922,14.242,97.118,13.388,97.244,12.884Zm-.77,9.716c0-.644.7-1.12,1.722-1.12a4.854,4.854,0,0,1,1.442.21c.014.238.014.448.014.63,0,.77-.392,1.386-1.554,1.386C97.006,23.706,96.474,23.258,96.474,22.6Zm4.074-5.39H99.456c.028.994.1,2.38.154,3.528a6.248,6.248,0,0,0-1.372-.14c-1.582,0-2.8.812-2.8,2.1,0,1.386,1.26,2.016,2.8,2.016,1.736,0,2.45-.91,2.45-2.03,0-.168,0-.364-.014-.588a10.464,10.464,0,0,1,2.268,1.61l.6-.952a9.605,9.605,0,0,0-2.912-1.736c-.028-.868-.084-1.778-.1-2.3S100.52,17.784,100.548,17.21Zm2.8.378.63-.924a21.147,21.147,0,0,0-3.262-1.862l-.574.854A16.394,16.394,0,0,1,103.348,17.588Zm6.636-4.3-1.106.462c.658,1.512,1.4,3.15,2.044,4.312-1.512,1.036-2.422,2.17-2.422,3.626,0,2.1,1.89,2.884,4.522,2.884a25.9,25.9,0,0,0,4.424-.35l.014-1.246a20.831,20.831,0,0,1-4.48.476c-2.212,0-3.318-.728-3.318-1.89,0-1.064.784-1.988,2.086-2.828a40.794,40.794,0,0,1,3.878-2.142c.406-.21.756-.392,1.064-.574L116.13,15a8.743,8.743,0,0,1-.994.658c-.77.434-2.044,1.05-3.276,1.792A31.916,31.916,0,0,1,109.984,13.29Zm6.944-.14-.756.322a14.466,14.466,0,0,1,1.148,1.946l.756-.336A20.079,20.079,0,0,0,116.928,13.15Zm1.54-.56-.742.308A14.22,14.22,0,0,1,118.9,14.83l.742-.336A16.279,16.279,0,0,0,118.468,12.59Zm6.972,6.09a9.3,9.3,0,0,0-2.786-6.664l-.84.434a8.755,8.755,0,0,1,0,12.46l.84.434A9.3,9.3,0,0,0,125.44,18.68Z" transform="translate(188 5162)"/>
    <path id="パス_4357" data-name="パス 4357" d="M-124.712-4.956h-5.838V-6.37h5.838ZM-130.55-2.59V-4.06h5.838v1.47Zm8.5-6.342v-.98h-7.126c.21-.5.378-1.036.546-1.554l-1.036-.252a18.332,18.332,0,0,1-.616,1.806h-3.948v.98h3.514a11.7,11.7,0,0,1-3.85,4.662,5.081,5.081,0,0,1,.672.8,11.545,11.545,0,0,0,2.324-2.2V1.064h1.022V-1.694h5.838V-.238c0,.21-.084.28-.322.294s-1.092.014-2.016-.028a3.976,3.976,0,0,1,.336,1.022,8.584,8.584,0,0,0,2.436-.182c.448-.168.588-.476.588-1.106v-7.07h-6.748c.308-.518.588-1.078.854-1.624Zm11.606,2.31.154.784c.882-.084,1.876-.154,2.926-.266a2.836,2.836,0,0,1,.168.574l.672-.322a7.543,7.543,0,0,0-.868-2.016l-.644.266a8.477,8.477,0,0,1,.406.8l-1.484.1c.672-.924,1.414-2.128,2-3.122l-.756-.364c-.224.49-.532,1.064-.868,1.638-.168-.2-.392-.406-.616-.63.35-.56.8-1.372,1.148-2.072l-.812-.322a16.66,16.66,0,0,1-.854,1.96c-.112-.1-.224-.168-.322-.252l-.434.574a8.881,8.881,0,0,1,1.47,1.414A14.357,14.357,0,0,1-110-6.65Zm-4.83.14.154.826c.854-.084,1.82-.182,2.828-.266a3.816,3.816,0,0,1,.112.476l.686-.294a7.352,7.352,0,0,0-.784-2.016l-.644.238a7.044,7.044,0,0,1,.378.868l-1.372.084a35.953,35.953,0,0,0,2.1-3.262l-.756-.364c-.224.49-.532,1.064-.868,1.638a4.909,4.909,0,0,0-.6-.616c.35-.574.77-1.4,1.134-2.086l-.812-.322a16.5,16.5,0,0,1-.84,1.96l-.336-.252-.434.574a10.333,10.333,0,0,1,1.484,1.428c-.322.49-.644.966-.938,1.358Zm6.748,2.94a6.378,6.378,0,0,1-1.106,1.708,12.783,12.783,0,0,1-.5-1.932h3.416v-.84h-1.148l.294-.308a7.025,7.025,0,0,0-1.484-1.008l-.49.5a7.63,7.63,0,0,1,1.176.812h-1.9a45.6,45.6,0,0,1-.42-7.1h-.938a50.758,50.758,0,0,0,.448,7.1h-3.92l.056-.084c-.21-.392-1.162-1.918-1.526-2.422v-.63h1.512v-.952h-1.512v-3.024h-.938v3.024h-1.764v.952h1.666a16.279,16.279,0,0,1-1.96,5.264,5.467,5.467,0,0,1,.518.868,15.431,15.431,0,0,0,1.54-3.808V1.05h.938V-5.936c.378.7.812,1.554.994,2l.434-.616v.784h.994c-.14,1.666-.518,3.234-1.792,4.116a2.917,2.917,0,0,1,.63.686,5.014,5.014,0,0,0,1.834-3.08,13.719,13.719,0,0,1,1.512,1.176l.588-.714a15.156,15.156,0,0,0-1.932-1.372c.028-.266.07-.532.084-.812h2.184a13.482,13.482,0,0,0,.714,2.618,9.1,9.1,0,0,1-2.618,1.54,5.838,5.838,0,0,1,.56.658,10.143,10.143,0,0,0,2.436-1.4,2.379,2.379,0,0,0,2.03,1.442c.924,0,1.232-.462,1.4-2.03a2.225,2.225,0,0,1-.714-.462c-.07,1.26-.224,1.6-.63,1.6-.532,0-.994-.406-1.386-1.148a7.775,7.775,0,0,0,1.624-2.254Zm7.966-5.348v1.75h.924V-8.89h1.652V-9.7h-4.2v-.714a22.444,22.444,0,0,0,3.836-.616l-.7-.644a24.222,24.222,0,0,1-3.234.574l-.826-.238v1.386a3.714,3.714,0,0,1-1.162,2.912,2.9,2.9,0,0,1,.7.672,4.365,4.365,0,0,0,1.3-2.52Zm-.84,6.02h7.056v1.008H-101.4Zm0-1.652h7.056v.98H-101.4Zm0-1.638h7.056v.966H-101.4Zm-.994,5h9.086v-5.7H-102.4Zm2.366.14a16.032,16.032,0,0,1-4.1,1.344,8.094,8.094,0,0,1,.77.784,19.949,19.949,0,0,0,4.27-1.68Zm3.262.574a30.69,30.69,0,0,1,3.906,1.54l1.148-.518C-92.736.112-94.4-.49-95.914-.98Zm.252-9.254a2.588,2.588,0,0,0,.014-.322V-10.4a25.232,25.232,0,0,0,4.1-.6l-.7-.658a23.075,23.075,0,0,1-3.528.56l-.8-.2v1.246A2.669,2.669,0,0,1-98.77-7.644a2.313,2.313,0,0,1,.644.686A3.436,3.436,0,0,0-96.67-8.89h1.946v1.778h.938V-8.89h2.072V-9.7ZM-77.1-4.9a5.073,5.073,0,0,0-5.362-5.152,5.967,5.967,0,0,0-6.118,5.7c0,2.31,1.246,3.738,2.492,3.738,1.3,0,2.408-1.47,3.262-4.354A27.541,27.541,0,0,0-81.984-9a3.9,3.9,0,0,1,3.738,4.06A4.228,4.228,0,0,1-81.8-.784a10.576,10.576,0,0,1-1.2.182l.658,1.036C-79.03,0-77.1-1.96-77.1-4.9Zm-10.388.448a4.883,4.883,0,0,1,4.34-4.536,22.874,22.874,0,0,1-.784,3.78c-.714,2.366-1.456,3.3-2.114,3.3C-86.674-1.9-87.486-2.688-87.486-4.452Zm23.66-6.174h-1.316a10.044,10.044,0,0,1,.07,1.218V-7.2c0,2.646-.168,3.78-1.162,4.942A6.418,6.418,0,0,1-69.58-.392l.91.966A7.478,7.478,0,0,0-65.338-1.47c1.008-1.2,1.47-2.31,1.47-5.67V-9.408C-63.868-9.884-63.854-10.276-63.826-10.626Zm-6.5.112H-71.6c.028.266.056.756.056,1.008v4.662a9.176,9.176,0,0,1-.07,1.078h1.288c-.028-.252-.056-.714-.056-1.064V-9.506C-70.378-9.842-70.35-10.248-70.322-10.514ZM-49.49-6.426v-.5h1.54c.616,0,1.134.028,1.288.042V-8.064a10.294,10.294,0,0,1-1.288.07h-1.54v-1.75a10.614,10.614,0,0,1,.07-1.148h-1.26a7.805,7.805,0,0,1,.07,1.148v1.75H-54.6V-9.786a8.641,8.641,0,0,1,.07-1.022h-1.246a8.646,8.646,0,0,1,.056,1.022v1.792h-1.512a10.264,10.264,0,0,1-1.4-.1v1.218c.168-.014.8-.056,1.4-.056h1.512v2.268c0,.532-.042,1.134-.056,1.274h1.232c-.014-.14-.056-.756-.056-1.274V-6.93h3.99v.588c0,3.92-1.274,5.124-3.822,6.1l.938.882C-50.288-.784-49.49-2.7-49.49-6.426Zm6.244,1.372.56,1.092a27.654,27.654,0,0,0,5.334-2.282v5.18a12.987,12.987,0,0,1-.084,1.5h1.372a10.564,10.564,0,0,1-.084-1.5V-6.972a22.9,22.9,0,0,0,3.78-3.122l-.938-.868a16.681,16.681,0,0,1-3.822,3.29A23.143,23.143,0,0,1-43.246-5.054Zm21.154-5.824-1.3-.42a4.794,4.794,0,0,1-.434,1.106,11.541,11.541,0,0,1-4.4,4.732l.966.728A14.193,14.193,0,0,0-23.7-8.176h4.732a11.51,11.51,0,0,1-2.24,4.368A11.326,11.326,0,0,1-26.8-.294l1.008.91a12.275,12.275,0,0,0,5.572-3.808,13.579,13.579,0,0,0,2.492-4.816A4.4,4.4,0,0,1-17.4-8.75l-.938-.574a2.343,2.343,0,0,1-.91.14h-3.794a6.292,6.292,0,0,0,.336-.588A10.586,10.586,0,0,1-22.092-10.878ZM-7.574-.294l.742.616A3,3,0,0,1-6.356,0,13.918,13.918,0,0,0-1.582-3.878L-2.24-4.83A10.757,10.757,0,0,1-6.328-1.386V-9.464A8.663,8.663,0,0,1-6.272-10.5H-7.56a6.644,6.644,0,0,1,.084,1.036v8.386A3.333,3.333,0,0,1-7.574-.294Zm-6.412-.07,1.05.714A7.824,7.824,0,0,0-10.444-3.5a30.626,30.626,0,0,0,.434-5.95c0-.42.056-.84.07-1.008h-1.288a5.158,5.158,0,0,1,.1,1.022,24.992,24.992,0,0,1-.42,5.628A6.645,6.645,0,0,1-13.986-.364ZM6.65-11.074l-1.148-.1a7.172,7.172,0,0,1-.35,1.75c-.308.014-.63.014-.924.014a20.491,20.491,0,0,1-2.366-.154v1.05c.77.056,1.694.084,2.3.084h.616A14.769,14.769,0,0,1,1.54-4.144l.952.7A18.5,18.5,0,0,1,3.766-4.9,3.686,3.686,0,0,1,6.174-5.922a1.168,1.168,0,0,1,1.274.868c-1.638.854-3.3,1.89-3.3,3.542C4.144.2,5.754.63,7.756.63A32.888,32.888,0,0,0,11.592.378l.028-1.12A24.93,24.93,0,0,1,7.8-.406c-1.442,0-2.534-.168-2.534-1.26,0-.924.91-1.666,2.212-2.352,0,.742-.014,1.652-.042,2.184H8.512C8.5-2.52,8.484-3.71,8.47-4.522c1.064-.5,2.058-.91,2.842-1.2a12.19,12.19,0,0,1,1.246-.448L12.1-7.224c-.392.21-.728.364-1.148.546-.728.336-1.582.672-2.534,1.134A1.807,1.807,0,0,0,6.538-6.8a4.008,4.008,0,0,0-1.946.518,11.116,11.116,0,0,0,1.26-2.17A40.5,40.5,0,0,0,10.5-8.848l.014-1.036a34.431,34.431,0,0,1-4.27.434A14.292,14.292,0,0,0,6.65-11.074ZM18.606-.98v-2.3h7.322v2.3Zm7.322-5.586v2.3H18.606v-2.3Zm0-3.262V-7.56H18.606V-9.828Zm-8.344-1.008V.994h1.022V.042h7.322V.994h1.078v-11.83ZM35.8-5.726c-.574.182-1.162.35-1.722.5v-2.7h1.638V-8.89H34.076V-11.7H33.054V-8.89H31.108v.966h1.946v3.01c-.8.224-1.526.42-2.114.574l.294,1.008c.546-.168,1.162-.35,1.82-.546V-.154c0,.21-.07.266-.266.266-.168.014-.756.014-1.386,0a3.642,3.642,0,0,1,.322.952A4.611,4.611,0,0,0,33.572.882c.364-.168.5-.448.5-1.036V-4.186l1.848-.574Zm6.356,1.582v1.386H37.618V-4.144ZM37.618-.434V-1.9h4.536v1.47Zm-.994,1.5h.994V.42h4.536v.588h1.022V-5.04H36.624ZM38.71-7.154c-.9,0-1.064-.084-1.064-.56V-8.722a32.4,32.4,0,0,0,5.278-1.386l-.8-.77a26.178,26.178,0,0,1-4.48,1.3v-2.086H36.624v3.948c0,1.2.434,1.512,2.03,1.512h3.262c1.386,0,1.708-.476,1.862-2.3a3.01,3.01,0,0,1-.952-.406c-.084,1.512-.21,1.75-.98,1.75Zm11.62-3.752-1.414-.014a7.389,7.389,0,0,1,.112,1.428c0,1.47-.14,5.012-.14,7.084,0,2.282,1.386,3.122,3.4,3.122A7.037,7.037,0,0,0,58.142-2.38l-.8-.952a5.833,5.833,0,0,1-5.012,2.9c-1.33,0-2.3-.546-2.3-2.086,0-2.086.1-5.39.168-6.972A12.053,12.053,0,0,1,50.33-10.906ZM68.5-3.346l-1.05-.1a8.751,8.751,0,0,0-.21,1.652c0,1.386,1.2,2.058,3.416,2.058a18.612,18.612,0,0,0,2.7-.2L73.4-1.064a13.475,13.475,0,0,1-2.73.28c-2,0-2.366-.644-2.366-1.3A4.95,4.95,0,0,1,68.5-3.346Zm-1.61-7.672-1.344-.112a5.6,5.6,0,0,1-.042,1.162c-.042.28-.112.728-.21,1.218-.546.042-1.05.07-1.512.07a12.683,12.683,0,0,1-1.68-.1l.042,1.092c.5.028,1.008.056,1.624.056.392,0,.826-.014,1.288-.042-.112.5-.238,1.036-.364,1.5A30.528,30.528,0,0,1,62.342.084L63.574.5a42.906,42.906,0,0,0,2.184-6.412c.168-.616.322-1.26.448-1.876a26.885,26.885,0,0,0,2.912-.476V-9.366a20.727,20.727,0,0,1-2.688.5c.084-.378.154-.742.21-1.036S66.808-10.71,66.892-11.018Zm1.316,4.27v1.036a23.006,23.006,0,0,1,2.6-.14,17.7,17.7,0,0,1,2.352.168l.028-1.064a22.409,22.409,0,0,0-2.422-.126C69.874-6.874,68.95-6.818,68.208-6.748ZM78.932-9.772,77.574-9.8a6.315,6.315,0,0,1,.1,1.246c0,.812.028,2.52.154,3.738C78.2-1.19,79.478.126,80.808.126c.938,0,1.792-.812,2.632-3.192l-.882-.994C82.194-2.66,81.536-1.2,80.822-1.2c-.994,0-1.68-1.554-1.9-3.892-.1-1.162-.112-2.436-.1-3.318A10.659,10.659,0,0,1,78.932-9.772Zm7.294.392L85.134-9A14.185,14.185,0,0,1,87.57-1.96l1.12-.462A15.046,15.046,0,0,0,86.226-9.38Zm11.06-2.366a16.552,16.552,0,0,1-5.838,5.6,3.5,3.5,0,0,1,.658.812,18.263,18.263,0,0,0,5.768-5.39,19.253,19.253,0,0,0,5.88,5.306,6.077,6.077,0,0,1,.686-.9,17.515,17.515,0,0,1-6.1-5.432Zm1.26,7.98h4.018V-4.7H98.546V-7.966H97.468V-.294H94.822V-5.446H93.786V-.294h-1.75V.672h11.83V-.294h-5.32Zm16.59-4.578a12.8,12.8,0,0,1-.714,1.456l.14.042h-3.29l.448-.1a5.931,5.931,0,0,0-.7-1.4Zm4.018,6.09v-.882H113.54V-4.172h4.382v-.8H113.54V-5.992h5.068v-.854H115.43c.28-.42.588-.966.868-1.5h2.8v-.9h-2.17a19.575,19.575,0,0,0,1.232-2.016l-1.064-.28a15.883,15.883,0,0,1-1.064,2.128l.518.168h-1.694v-2.478h-.98V-9.24H112.21v-2.478h-.966V-9.24h-1.722l.714-.266a9.65,9.65,0,0,0-1.19-2.058l-.882.294a10.913,10.913,0,0,1,1.106,2.03h-2.226v.9h3.416l-.49.1a5.878,5.878,0,0,1,.686,1.4H107.6v.854h4.914V-4.97H108.3v.8h4.214v1.036h-5.53v.882h4.578a13.493,13.493,0,0,1-4.942,2.212A4.458,4.458,0,0,1,107.3.84a14.069,14.069,0,0,0,5.222-2.758V1.064h1.022V-1.988A13.217,13.217,0,0,0,118.8.882a3.743,3.743,0,0,1,.7-.924,12.809,12.809,0,0,1-5-2.212Zm7.378-2.114c-.238-.378-1.288-1.96-1.68-2.478v-.882h1.6v-.966h-1.6v-3.024H123.9v3.024h-1.96v.966h1.848a15.2,15.2,0,0,1-2.128,5.25,5.808,5.808,0,0,1,.532.9A14.618,14.618,0,0,0,123.9-5.488V1.05h.952V-5.614c.42.7.91,1.568,1.106,2.016Zm2.828,1.932c-1.274.7-2.59,1.414-3.472,1.862l.49.868c.952-.532,2.142-1.218,3.262-1.876ZM126.9-4.312a10.155,10.155,0,0,1,1.4,1.876l.756-.532a9.794,9.794,0,0,0-1.442-1.806Zm5.53,1.946a18.78,18.78,0,0,0,1.9-1.9l-.8-.56a14.391,14.391,0,0,1-1.722,1.876,8.642,8.642,0,0,1-.84-1.82v-.56H134.5v-.882H130.97V-7.294h3.024v-.812H130.97V-9.1H134.3v-.854h-1.848c.266-.42.574-.966.868-1.484l-1.022-.294A12.184,12.184,0,0,1,131.488-10l.126.042h-2.436l.252-.1a7.437,7.437,0,0,0-.84-1.61l-.812.266a10.446,10.446,0,0,1,.7,1.442h-1.75V-9.1h3.234v.994h-2.828v.812h2.828v1.078h-3.528v.882h3.528V-.1c0,.182-.042.238-.224.238s-.784.014-1.4,0a3.4,3.4,0,0,1,.294.952A5.235,5.235,0,0,0,130.494.91c.364-.168.476-.448.476-1.008V-2.8A7.357,7.357,0,0,0,134.078.476a4.425,4.425,0,0,1,.672-.84A6.147,6.147,0,0,1,131.978-2.7ZM-72.87,18.68a9.3,9.3,0,0,0,2.786,6.664l.84-.434a8.761,8.761,0,0,1-2.6-6.23,8.761,8.761,0,0,1,2.6-6.23l-.84-.434A9.3,9.3,0,0,0-72.87,18.68Zm8.008-4.354h10.556v-.9h-5.236V12.3h-1.064V13.43h-5.222v4.494c0,1.974-.112,4.648-1.176,6.524a4.771,4.771,0,0,1,.8.6c1.176-2,1.344-5,1.344-7.112Zm6.454,6.5h-2.17V19.128h2.17Zm2.184-1.694v-.084A7.908,7.908,0,0,0-54.6,20.066a4.08,4.08,0,0,1,.658-.8,6.716,6.716,0,0,1-2.072-1.3,11.121,11.121,0,0,0,1.75-1.2l-.7-.518a12.76,12.76,0,0,1-1.6,1.176,7.964,7.964,0,0,1-.686-.854A10.755,10.755,0,0,0-55.58,15.32l-.686-.518a9.829,9.829,0,0,1-1.386,1.12,9.124,9.124,0,0,1-.6-1.3l-.854.252a9.95,9.95,0,0,0,2.03,3.36h-4.648a8.657,8.657,0,0,0,1.736-2.94l-.6-.294-.182.042h-3.038v.812h2.646a6.915,6.915,0,0,1-.924,1.456,10.441,10.441,0,0,0-1.5-1.022l-.56.574a14.52,14.52,0,0,1,1.456,1.078,7.482,7.482,0,0,1-2.2,1.5,4.363,4.363,0,0,1,.6.742,8.356,8.356,0,0,0,1.61-1.05h1.148v1.694h-2.59v.91h2.52c-.2,1.022-.882,1.96-3.038,2.618a3.915,3.915,0,0,1,.616.77c2.492-.8,3.22-2.03,3.388-3.388h2.226v1.96c0,1.064.266,1.33,1.316,1.33h1.568c.868,0,1.134-.42,1.232-2.058a2.387,2.387,0,0,1-.868-.364c-.042,1.316-.112,1.554-.476,1.554h-1.316c-.406,0-.462-.07-.462-.462v-1.96h2.688v-.91h-2.688V19.128Zm12.88-4.9-.518.434c.462.2.952.434,1.442.686-1.778.042-3.556.07-5.166.1.35-.364.7-.8,1.036-1.218Zm-7.588,2.128c2.506-.056,6.23-.168,9.758-.294.364.238.7.462.952.658l.672-.616a19.647,19.647,0,0,0-3.388-1.876h3.78v-.854h-5.684V12.282h-1.05v1.092h-5.6v.854h3.71a11.987,11.987,0,0,1-.952,1.232c-.826.014-1.582.014-2.24.014Zm2.506,2h2.534v1.064h-2.534Zm6.118,0v1.064h-2.6V18.358Zm3.122,3.57v-.854H-44.87v-.868h3.556V18.358h2.128v-.812h-2.128v-.868h-.994v.868h-2.6v-.98h-.98v.98h-2.534v-.868h-.952v.868H-51.52v.812h2.142v1.848h3.472v.868H-51.52v.854h4.564a13.714,13.714,0,0,1-4.83,2.184,3.5,3.5,0,0,1,.644.812,13.878,13.878,0,0,0,5.236-2.842V25.05h1.036V22.1a13.408,13.408,0,0,0,5.292,2.772,3.167,3.167,0,0,1,.672-.826,13.593,13.593,0,0,1-4.942-2.114Zm7.812-2.506-.14-.924-1.624.5V16.146h1.428V15.138h-1.428V12.3H-34.1v2.842h-1.078c.1-.616.2-1.26.266-1.89l-.91-.154a16.382,16.382,0,0,1-.966,4.662,4.948,4.948,0,0,1,.8.462,11.081,11.081,0,0,0,.616-2.072H-34.1v3.122c-.98.308-1.876.546-2.59.742l.28.994c.686-.21,1.484-.462,2.31-.714v4.788h.966v-5.1Zm1.946-4.8a20.024,20.024,0,0,0,.616-2.142l-.952-.2a11.959,11.959,0,0,1-2.45,5.376,7,7,0,0,1,.8.6,11.545,11.545,0,0,0,1.6-2.66h1.2a11.834,11.834,0,0,1-3.374,5.74,3.4,3.4,0,0,1,.826.6A13.611,13.611,0,0,0-27.72,15.6h1.148c-.728,3.514-2.24,6.958-4.536,8.61a3.151,3.151,0,0,1,.868.63c2.324-1.848,3.864-5.572,4.564-9.24H-25c-.28,5.544-.588,7.616-1.036,8.106a.593.593,0,0,1-.518.238c-.28,0-.84-.014-1.47-.07a2.259,2.259,0,0,1,.294,1.022,8.574,8.574,0,0,0,1.6,0,1.2,1.2,0,0,0,.966-.532c.56-.7.868-2.87,1.176-9.212.014-.126.014-.532.014-.532Zm20.02,4.48a5.073,5.073,0,0,0-5.362-5.152,5.967,5.967,0,0,0-6.118,5.7c0,2.31,1.246,3.738,2.492,3.738,1.3,0,2.408-1.47,3.262-4.354A27.54,27.54,0,0,0-14.294,15a3.9,3.9,0,0,1,3.738,4.06,4.228,4.228,0,0,1-3.556,4.158,10.575,10.575,0,0,1-1.2.182l.658,1.036C-11.34,24-9.408,22.04-9.408,19.1Zm-10.388.448a4.883,4.883,0,0,1,4.34-4.536,22.874,22.874,0,0,1-.784,3.78c-.714,2.366-1.456,3.3-2.114,3.3C-18.984,22.1-19.8,21.312-19.8,19.548Zm16.282,1.078V16.58H-2v-.994H-3.514V12.464h-.98v3.122H-6.216v.994h1.722V21c-.756.28-1.442.546-1.988.728l.364,1.05c1.26-.518,2.926-1.19,4.452-1.848l-.2-.966Zm3.794.812H2.422v1.876H.28Zm2.142-3.724H.28V15.88H2.422Zm0,2.786H.28V18.652H2.422ZM6.44,23.314h-3V21.438h2.38V20.5H3.444V18.652h2.38v-.938H3.444V15.88H6.16v-.952H3.43c.364-.686.756-1.526,1.078-2.268l-1.12-.266a18.442,18.442,0,0,1-.98,2.534H.35a20.168,20.168,0,0,0,.938-2.422L.28,12.268a13.028,13.028,0,0,1-2.926,5.32,5.989,5.989,0,0,1,.784.8A11.085,11.085,0,0,0-.742,16.93v8.12H.28v-.8H6.44ZM10.556,19.3c.028-.546.028-1.064.028-1.54V16.93h1.96V19.3Zm1.988-5.628v2.31h-1.96v-2.31Zm.98-.952H9.632v5.04c0,2.058-.07,4.886-.98,6.86a2.844,2.844,0,0,1,.854.476,14.878,14.878,0,0,0,1.008-4.816h2.03v3.4c0,.2-.07.266-.252.28s-.756,0-1.4-.028a3.56,3.56,0,0,1,.308,1.022,4.514,4.514,0,0,0,1.848-.21c.35-.168.476-.476.476-1.05Zm3.794,1.246V17.98H15.61V13.962Zm2.59,4.018H18.214V13.962h1.694ZM16.59,23.846c-.826,0-.98-.168-.98-.924V18.974h4.3v.742h1.008V12.968H14.6v9.94c0,1.54.476,1.932,1.918,1.932H19.6c1.47,0,1.778-.8,1.946-3.08a3.679,3.679,0,0,1-.966-.42c-.1,2-.238,2.506-1.036,2.506Zm11.06-11.34a15.483,15.483,0,0,1-4.06,5.642,6.948,6.948,0,0,1,.63,1.05,16.7,16.7,0,0,0,1.82-1.974v7.812h1.05V15.754a18.8,18.8,0,0,0,1.554-2.912Zm4.368,11.382c-.77,0-.924-.168-.924-.952v-4.06a32.945,32.945,0,0,0,4.928-3.052l-.742-.9a24.506,24.506,0,0,1-4.186,2.9V12.618h-1.05v10.3c0,1.526.448,1.946,1.9,1.946h2.87c1.442,0,1.75-.8,1.918-3.066a3.342,3.342,0,0,1-.994-.448c-.1,2.03-.224,2.534-.994,2.534Zm12.656-11-1.232-.112a11.613,11.613,0,0,1-.434,2.422c-.546.042-1.078.07-1.582.07a13.206,13.206,0,0,1-1.708-.1l.07,1.05c.532.028,1.12.042,1.638.042.406,0,.826-.014,1.246-.042a20.717,20.717,0,0,1-3,5.236l1.078.56A24.762,24.762,0,0,0,43.806,16.1a18.986,18.986,0,0,0,2.548-.518l-.028-1.05a13.53,13.53,0,0,1-2.2.518C44.352,14.242,44.548,13.388,44.674,12.884ZM43.9,22.6c0-.644.7-1.12,1.722-1.12a4.854,4.854,0,0,1,1.442.21c.014.238.014.448.014.63,0,.77-.392,1.386-1.554,1.386C44.436,23.706,43.9,23.258,43.9,22.6Zm4.074-5.39H46.886c.028.994.1,2.38.154,3.528a6.248,6.248,0,0,0-1.372-.14c-1.582,0-2.8.812-2.8,2.1,0,1.386,1.26,2.016,2.8,2.016,1.736,0,2.45-.91,2.45-2.03,0-.168,0-.364-.014-.588a10.464,10.464,0,0,1,2.268,1.61l.6-.952a9.605,9.605,0,0,0-2.912-1.736c-.028-.868-.084-1.778-.1-2.3S47.95,17.784,47.978,17.21Zm2.8.378.63-.924A21.147,21.147,0,0,0,48.146,14.8l-.574.854A16.394,16.394,0,0,1,50.778,17.588Zm6.636-4.3-1.106.462c.658,1.512,1.4,3.15,2.044,4.312C56.84,19.1,55.93,20.234,55.93,21.69c0,2.1,1.89,2.884,4.522,2.884a25.9,25.9,0,0,0,4.424-.35l.014-1.246a20.831,20.831,0,0,1-4.48.476c-2.212,0-3.318-.728-3.318-1.89,0-1.064.784-1.988,2.086-2.828a40.8,40.8,0,0,1,3.878-2.142c.406-.21.756-.392,1.064-.574L63.56,15a8.743,8.743,0,0,1-.994.658c-.77.434-2.044,1.05-3.276,1.792A31.915,31.915,0,0,1,57.414,13.29Zm6.944-.14-.756.322a14.466,14.466,0,0,1,1.148,1.946l.756-.336A20.079,20.079,0,0,0,64.358,13.15Zm1.54-.56-.742.308a14.22,14.22,0,0,1,1.176,1.932l.742-.336A16.279,16.279,0,0,0,65.9,12.59Zm6.972,6.09a9.3,9.3,0,0,0-2.786-6.664l-.84.434a8.755,8.755,0,0,1,0,12.46l.84.434A9.3,9.3,0,0,0,72.87,18.68Z" transform="translate(188 5246)"/>
  </g>
</svg>
