<svg xmlns="http://www.w3.org/2000/svg" width="343" height="1507" viewBox="0 0 343 1507">
  <g id="グループ_10051" data-name="グループ 10051" transform="translate(-20 -4784)">
    <text id="分析フロー" transform="translate(30 4802)" font-size="20" font-family="YuMin-Medium, YuMincho" font-weight="500" letter-spacing="0.15em"><tspan x="0" y="0">分析フロー</tspan></text>
    <g id="長方形_13694" data-name="長方形 13694" transform="translate(30 4880)" fill="none" stroke="#000" stroke-width="1">
      <rect width="315" height="99" stroke="none"/>
      <rect x="0.5" y="0.5" width="314" height="98" fill="none"/>
    </g>
    <g id="長方形_14174" data-name="長方形 14174" transform="translate(30 5435)" fill="none" stroke="#000" stroke-width="1">
      <rect width="315" height="99" stroke="none"/>
      <rect x="0.5" y="0.5" width="314" height="98" fill="none"/>
    </g>
    <g id="長方形_14185" data-name="長方形 14185" transform="translate(30 6082)" fill="none" stroke="#000" stroke-width="1">
      <rect width="315" height="99" stroke="none"/>
      <rect x="0.5" y="0.5" width="314" height="98" fill="none"/>
    </g>
    <g id="長方形_14176" data-name="長方形 14176" transform="translate(30 5545)" fill="none" stroke="#000" stroke-width="1">
      <rect width="315" height="99" stroke="none"/>
      <rect x="0.5" y="0.5" width="314" height="98" fill="none"/>
    </g>
    <g id="長方形_14183" data-name="長方形 14183" transform="translate(30 6192)" fill="none" stroke="#000" stroke-width="1">
      <rect width="315" height="99" stroke="none"/>
      <rect x="0.5" y="0.5" width="314" height="98" fill="none"/>
    </g>
    <g id="長方形_14173" data-name="長方形 14173" transform="translate(30 5307)" fill="none" stroke="#000" stroke-width="1">
      <rect width="315" height="117" stroke="none"/>
      <rect x="0.5" y="0.5" width="314" height="116" fill="none"/>
    </g>
    <g id="長方形_14170" data-name="長方形 14170" transform="translate(48 4989)" fill="#e0e0e0" stroke="#000" stroke-width="1">
      <rect width="315" height="99" stroke="none"/>
      <rect x="0.5" y="0.5" width="314" height="98" fill="none"/>
    </g>
    <g id="長方形_14178" data-name="長方形 14178" transform="translate(48 5694)" fill="#e0e0e0" stroke="#000" stroke-width="1">
      <rect width="315" height="99" stroke="none"/>
      <rect x="0.5" y="0.5" width="314" height="98" fill="none"/>
    </g>
    <g id="グループ_981" data-name="グループ 981" transform="translate(-458 -248)">
      <g id="長方形_13696" data-name="長方形 13696" transform="translate(478 5143)" fill="#eae9e8" stroke="#000" stroke-width="1">
        <rect width="38" height="70" stroke="none"/>
        <rect x="0.5" y="0.5" width="37" height="69" fill="none"/>
      </g>
      <text id="お_客_様" data-name="お
客
様" transform="translate(489 5166)" font-size="15" font-family="YuMin-Medium, YuMincho" font-weight="500" letter-spacing="0.12em"><tspan x="0" y="0">お</tspan><tspan x="0" y="17">客</tspan><tspan x="0" y="34">様</tspan></text>
    </g>
    <g id="グループ_1774" data-name="グループ 1774" transform="translate(-458 307)">
      <g id="長方形_13696-2" data-name="長方形 13696" transform="translate(478 5143)" fill="#eae9e8" stroke="#000" stroke-width="1">
        <rect width="38" height="70" stroke="none"/>
        <rect x="0.5" y="0.5" width="37" height="69" fill="none"/>
      </g>
      <text id="お_客_様-2" data-name="お
客
様" transform="translate(489 5166)" font-size="15" font-family="YuMin-Medium, YuMincho" font-weight="500" letter-spacing="0.12em"><tspan x="0" y="0">お</tspan><tspan x="0" y="17">客</tspan><tspan x="0" y="34">様</tspan></text>
    </g>
    <g id="グループ_1781" data-name="グループ 1781" transform="translate(-458 954)">
      <g id="長方形_13696-3" data-name="長方形 13696" transform="translate(478 5143)" fill="#eae9e8" stroke="#000" stroke-width="1">
        <rect width="38" height="70" stroke="none"/>
        <rect x="0.5" y="0.5" width="37" height="69" fill="none"/>
      </g>
      <text id="お_客_様-3" data-name="お
客
様" transform="translate(489 5166)" font-size="15" font-family="YuMin-Medium, YuMincho" font-weight="500" letter-spacing="0.12em"><tspan x="0" y="0">お</tspan><tspan x="0" y="17">客</tspan><tspan x="0" y="34">様</tspan></text>
    </g>
    <g id="グループ_1775" data-name="グループ 1775" transform="translate(-458 417)">
      <g id="長方形_13696-4" data-name="長方形 13696" transform="translate(478 5143)" fill="#eae9e8" stroke="#000" stroke-width="1">
        <rect width="38" height="70" stroke="none"/>
        <rect x="0.5" y="0.5" width="37" height="69" fill="none"/>
      </g>
      <text id="お_客_様-4" data-name="お
客
様" transform="translate(489 5166)" font-size="15" font-family="YuMin-Medium, YuMincho" font-weight="500" letter-spacing="0.12em"><tspan x="0" y="0">お</tspan><tspan x="0" y="17">客</tspan><tspan x="0" y="34">様</tspan></text>
    </g>
    <g id="グループ_1782" data-name="グループ 1782" transform="translate(-458 1064)">
      <g id="長方形_13696-5" data-name="長方形 13696" transform="translate(478 5143)" fill="#eae9e8" stroke="#000" stroke-width="1">
        <rect width="38" height="70" stroke="none"/>
        <rect x="0.5" y="0.5" width="37" height="69" fill="none"/>
      </g>
      <text id="お_客_様-5" data-name="お
客
様" transform="translate(489 5166)" font-size="15" font-family="YuMin-Medium, YuMincho" font-weight="500" letter-spacing="0.12em"><tspan x="0" y="0">お</tspan><tspan x="0" y="17">客</tspan><tspan x="0" y="34">様</tspan></text>
    </g>
    <g id="グループ_1772" data-name="グループ 1772" transform="translate(-458 189)">
      <g id="長方形_13696-6" data-name="長方形 13696" transform="translate(478 5143)" fill="#eae9e8" stroke="#000" stroke-width="1">
        <rect width="38" height="70" stroke="none"/>
        <rect x="0.5" y="0.5" width="37" height="69" fill="none"/>
      </g>
      <text id="お_客_様-6" data-name="お
客
様" transform="translate(489 5166)" font-size="15" font-family="YuMin-Medium, YuMincho" font-weight="500" letter-spacing="0.12em"><tspan x="0" y="0">お</tspan><tspan x="0" y="17">客</tspan><tspan x="0" y="34">様</tspan></text>
    </g>
    <g id="グループ_1770" data-name="グループ 1770" transform="translate(-440 -139)">
      <g id="長方形_13696-7" data-name="長方形 13696" transform="translate(478 5143)" fill="#e0e0e0" stroke="#000" stroke-width="1">
        <rect width="38" height="70" stroke="none"/>
        <rect x="0.5" y="0.5" width="37" height="69" fill="none"/>
      </g>
      <text id="D_G_C" data-name="D
G
C" transform="translate(491 5166)" font-size="15" font-family="YuMin-Medium, YuMincho" font-weight="500" letter-spacing="0.12em"><tspan x="0" y="0">D</tspan><tspan x="0" y="17">G</tspan><tspan x="0" y="34">C</tspan></text>
    </g>
    <g id="グループ_1776" data-name="グループ 1776" transform="translate(-440 566)">
      <g id="長方形_13696-8" data-name="長方形 13696" transform="translate(478 5143)" fill="#e0e0e0" stroke="#000" stroke-width="1">
        <rect width="38" height="70" stroke="none"/>
        <rect x="0.5" y="0.5" width="37" height="69" fill="none"/>
      </g>
      <text id="D_G_C-2" data-name="D
G
C" transform="translate(491 5166)" font-size="15" font-family="YuMin-Medium, YuMincho" font-weight="500" letter-spacing="0.12em"><tspan x="0" y="0">D</tspan><tspan x="0" y="17">G</tspan><tspan x="0" y="34">C</tspan></text>
    </g>
    <text id="申込用紙の発送" transform="translate(83 4946)" font-size="16" font-family="YuMin-Medium, YuMincho" font-weight="500" letter-spacing="0.12em"><tspan x="0" y="0">申込用紙の発送</tspan></text>
    <text id="サンプリングの開始" transform="translate(83 5501)" font-size="16" font-family="YuMin-Medium, YuMincho" font-weight="500" letter-spacing="0.12em"><tspan x="0" y="0">サンプリングの開始</tspan></text>
    <text id="分析結果_請求書の到着" data-name="分析結果・請求書の到着" transform="translate(83 6148)" font-size="16" font-family="YuMin-Medium, YuMincho" font-weight="500" letter-spacing="0.12em"><tspan x="0" y="0">分析結果・請求書の到着</tspan></text>
    <text id="サンプルの発送" transform="translate(83 5611)" font-size="16" font-family="YuMin-Medium, YuMincho" font-weight="500" letter-spacing="0.12em"><tspan x="0" y="0">サンプルの発送</tspan></text>
    <text id="分析代金のお支払い" transform="translate(83 6258)" font-size="16" font-family="YuMin-Medium, YuMincho" font-weight="500" letter-spacing="0.12em"><tspan x="0" y="0">分析代金のお支払い</tspan></text>
    <text id="サンプリング用バッグ_説明用紙の受領" data-name="サンプリング用バッグ・
説明用紙の受領" transform="translate(83 5373)" font-size="16" font-family="YuMin-Medium, YuMincho" font-weight="500" letter-spacing="0.12em"><tspan x="0" y="0">サンプリング用バッグ・</tspan><tspan x="0" y="24">説明用紙の受領</tspan></text>
    <text id="申込用紙の受領" transform="translate(101 5055)" font-size="16" font-family="YuMin-Medium, YuMincho" font-weight="500" letter-spacing="0.12em"><tspan x="0" y="0">申込用紙の受領</tspan></text>
    <text id="サンプルの受領" transform="translate(101 5760)" font-size="16" font-family="YuMin-Medium, YuMincho" font-weight="500" letter-spacing="0.12em"><tspan x="0" y="0">サンプルの受領</tspan></text>
    <text id="Step_01" data-name="Step 01" transform="translate(83 4918.999)" font-size="18" font-family="Helvetica" letter-spacing="0.08em"><tspan x="0" y="0">Step 01</tspan></text>
    <text id="Step_05" data-name="Step 05" transform="translate(83 5473.999)" font-size="18" font-family="Helvetica" letter-spacing="0.08em"><tspan x="0" y="0">Step 05</tspan></text>
    <text id="Step_10" data-name="Step 10" transform="translate(83 6120.999)" font-size="18" font-family="Helvetica" letter-spacing="0.08em"><tspan x="0" y="0">Step 10</tspan></text>
    <text id="Step_06" data-name="Step 06" transform="translate(83 5583.999)" font-size="18" font-family="Helvetica" letter-spacing="0.08em"><tspan x="0" y="0">Step 06</tspan></text>
    <text id="Step_11" data-name="Step 11" transform="translate(83 6230.999)" font-size="18" font-family="Helvetica" letter-spacing="0.08em"><tspan x="0" y="0">Step 11</tspan></text>
    <text id="Step_04" data-name="Step 04" transform="translate(83 5345.999)" font-size="18" font-family="Helvetica" letter-spacing="0.08em"><tspan x="0" y="0">Step 04</tspan></text>
    <text id="Step_02" data-name="Step 02" transform="translate(101 5027.999)" font-size="18" font-family="Helvetica" letter-spacing="0.08em"><tspan x="0" y="0">Step 02</tspan></text>
    <text id="Step_07" data-name="Step 07" transform="translate(101 5732.999)" font-size="18" font-family="Helvetica" letter-spacing="0.08em"><tspan x="0" y="0">Step 07</tspan></text>
    <path id="パス_538" data-name="パス 538" d="M0,0H315l18,10H18Z" transform="translate(30 4979)" fill="#fff"/>
    <path id="パス_2886" data-name="パス 2886" d="M0,0H315l18,50H18Z" transform="translate(30 5644)" fill="#fff"/>
    <path id="パス_2885" data-name="パス 2885" d="M333,0H18L0,50H315Z" transform="translate(30 5257)" fill="#fff"/>
    <path id="パス_2887" data-name="パス 2887" d="M333,0H18L0,50H315Z" transform="translate(30 6032)" fill="#fff"/>
    <rect id="長方形_14172" data-name="長方形 14172" width="315" height="70" transform="translate(48 5088)" fill="#fff"/>
    <rect id="長方形_14179" data-name="長方形 14179" width="315" height="11" transform="translate(48 5793)" fill="#fff"/>
    <rect id="長方形_14182" data-name="長方形 14182" width="315" height="11" transform="translate(48 5902)" fill="#fff"/>
    <rect id="長方形_14175" data-name="長方形 14175" width="315" height="11" transform="translate(30 5424)" fill="#fff"/>
    <rect id="長方形_14177" data-name="長方形 14177" width="315" height="11" transform="translate(30 5534)" fill="#fff"/>
    <rect id="長方形_14184" data-name="長方形 14184" width="315" height="11" transform="translate(30 6181)" fill="#fff"/>
    <g id="長方形_14171" data-name="長方形 14171" transform="translate(48 5158)" fill="#e0e0e0" stroke="#000" stroke-width="1">
      <rect width="315" height="99" stroke="none"/>
      <rect x="0.5" y="0.5" width="314" height="98" fill="none"/>
    </g>
    <g id="長方形_14180" data-name="長方形 14180" transform="translate(48 5803)" fill="#e0e0e0" stroke="#000" stroke-width="1">
      <rect width="315" height="99" stroke="none"/>
      <rect x="0.5" y="0.5" width="314" height="98" fill="none"/>
    </g>
    <g id="グループ_1771" data-name="グループ 1771" transform="translate(-440 30)">
      <g id="長方形_13696-9" data-name="長方形 13696" transform="translate(478 5143)" fill="#e0e0e0" stroke="#000" stroke-width="1">
        <rect width="38" height="70" stroke="none"/>
        <rect x="0.5" y="0.5" width="37" height="69" fill="none"/>
      </g>
      <text id="D_G_C-3" data-name="D
G
C" transform="translate(491 5166)" font-size="15" font-family="YuMin-Medium, YuMincho" font-weight="500" letter-spacing="0.12em"><tspan x="0" y="0">D</tspan><tspan x="0" y="17">G</tspan><tspan x="0" y="34">C</tspan></text>
    </g>
    <g id="グループ_1777" data-name="グループ 1777" transform="translate(-440 675)">
      <g id="長方形_13696-10" data-name="長方形 13696" transform="translate(478 5143)" fill="#e0e0e0" stroke="#000" stroke-width="1">
        <rect width="38" height="70" stroke="none"/>
        <rect x="0.5" y="0.5" width="37" height="69" fill="none"/>
      </g>
      <text id="D_G_C-4" data-name="D
G
C" transform="translate(491 5166)" font-size="15" font-family="YuMin-Medium, YuMincho" font-weight="500" letter-spacing="0.12em"><tspan x="0" y="0">D</tspan><tspan x="0" y="17">G</tspan><tspan x="0" y="34">C</tspan></text>
    </g>
    <text id="申込用紙の受領-2" data-name="申込用紙の受領" transform="translate(101 5224)" font-size="16" font-family="YuMin-Medium, YuMincho" font-weight="500" letter-spacing="0.12em"><tspan x="0" y="0">申込用紙の受領</tspan></text>
    <text id="分析開始" transform="translate(101 5869)" font-size="16" font-family="YuMin-Medium, YuMincho" font-weight="500" letter-spacing="0.12em"><tspan x="0" y="0">分析開始</tspan></text>
    <text id="Step_02-2" data-name="Step 02" transform="translate(101 5196.999)" font-size="18" font-family="Helvetica" letter-spacing="0.08em"><tspan x="0" y="0">Step 02</tspan></text>
    <text id="Step_08" data-name="Step 08" transform="translate(101 5841.999)" font-size="18" font-family="Helvetica" letter-spacing="0.08em"><tspan x="0" y="0">Step 08</tspan></text>
    <g id="グループ_1773" data-name="グループ 1773" transform="translate(-516 -123)">
      <text id="普通郵便の配達期間" transform="translate(708 5411)" font-size="14" font-family="SourceHanSansJP-Regular, Source Han Sans JP" letter-spacing="0.08em"><tspan x="0" y="0">普通郵便</tspan><tspan y="0">の</tspan><tspan y="0">配達期間</tspan></text>
      <text id="到着までの日数" transform="translate(583 5411)" font-size="14" font-family="SourceHanSansJP-Regular, Source Han Sans JP" letter-spacing="0.08em"><tspan x="0" y="0">到着</tspan><tspan y="0">までの</tspan><tspan y="0">日数</tspan></text>
    </g>
    <g id="グループ_1780" data-name="グループ 1780" transform="translate(-516 652)">
      <text id="普通郵便の配達期間-2" data-name="普通郵便の配達期間" transform="translate(708 5411)" font-size="14" font-family="SourceHanSansJP-Regular, Source Han Sans JP" letter-spacing="0.08em"><tspan x="0" y="0">普通郵便</tspan><tspan y="0">の</tspan><tspan y="0">配達期間</tspan></text>
      <text id="到着までの日数-2" data-name="到着までの日数" transform="translate(583 5411)" font-size="14" font-family="SourceHanSansJP-Regular, Source Han Sans JP" letter-spacing="0.08em"><tspan x="0" y="0">到着</tspan><tspan y="0">までの</tspan><tspan y="0">日数</tspan></text>
    </g>
    <text id="_月曜日まで保管_" data-name="（月曜日まで保管）" transform="translate(225 5759)" font-size="13" font-family="SourceHanSansJP-Regular, Source Han Sans JP" letter-spacing="0.08em"><tspan x="0" y="0">（月曜日</tspan><tspan y="0">まで</tspan><tspan y="0">保管）</tspan></text>
    <text id="_分析期間1週間_" data-name="（分析期間1週間）" transform="translate(171 5868)" font-size="13" font-family="SourceHanSansJP-Regular, Source Han Sans JP" letter-spacing="0.08em"><tspan x="0" y="0">（分析期間1週間）</tspan></text>
    <g id="長方形_14181" data-name="長方形 14181" transform="translate(48 5913)" fill="#e0e0e0" stroke="#000" stroke-width="1">
      <rect width="315" height="117" stroke="none"/>
      <rect x="0.5" y="0.5" width="314" height="116" fill="none"/>
    </g>
    <text id="分析結果_請求書の発送" data-name="分析結果・請求書の発送" transform="translate(101 5980)" font-size="16" font-family="YuMin-Medium, YuMincho" font-weight="500" letter-spacing="0.12em"><tspan x="0" y="0">分析結果・請求書の発送</tspan></text>
    <text id="Step_09" data-name="Step 09" transform="translate(101 5952.999)" font-size="18" font-family="Helvetica" letter-spacing="0.08em"><tspan x="0" y="0">Step 09</tspan></text>
    <g id="グループ_1779" data-name="グループ 1779" transform="translate(-441 795)">
      <g id="長方形_13696-11" data-name="長方形 13696" transform="translate(478 5143)" fill="#e0e0e0" stroke="#000" stroke-width="1">
        <rect width="38" height="70" stroke="none"/>
        <rect x="0.5" y="0.5" width="37" height="69" fill="none"/>
      </g>
      <text id="D_G_C-5" data-name="D
G
C" transform="translate(491 5166)" font-size="15" font-family="YuMin-Medium, YuMincho" font-weight="500" letter-spacing="0.12em"><tspan x="0" y="0">D</tspan><tspan x="0" y="17">G</tspan><tspan x="0" y="34">C</tspan></text>
    </g>
    <text id="_翌週_月曜日発送_" data-name="（翌週 月曜日発送）" transform="translate(92 6003)" font-size="13" font-family="SourceHanSansJP-Regular, Source Han Sans JP" letter-spacing="0.08em"><tspan x="0" y="0">（翌週 月曜日発送）</tspan></text>
    <g id="グループ_1003" data-name="グループ 1003" transform="translate(-480 -290)">
      <text id="約1日_2日" data-name="約1日〜2日" transform="translate(639 5429)" font-size="14" font-family="SourceHanSansJP-Regular, Source Han Sans JP" letter-spacing="0.08em"><tspan x="0" y="0">約1日〜2日</tspan></text>
      <text id="サンプリングバッグ作成までの日数" transform="translate(557 5409)" font-size="14" font-family="SourceHanSansJP-Regular, Source Han Sans JP" letter-spacing="0.08em"><tspan x="0" y="0">サンプリングバッグ</tspan><tspan y="0">作成</tspan><tspan y="0">までの</tspan><tspan y="0">日数</tspan></text>
    </g>
  </g>
</svg>
