<svg xmlns="http://www.w3.org/2000/svg" width="275" height="254" viewBox="0 0 275 254">
  <g id="グループ_9896" data-name="グループ 9896" transform="translate(-40 -1362)">
    <g id="グループ_1794" data-name="グループ 1794" transform="translate(-187 114)">
      <rect id="長方形_13396" data-name="長方形 13396" width="275" height="78" transform="translate(227 1248)" fill="#eae8e4"/>
      <g id="グループ_1190" data-name="グループ 1190" transform="translate(22 10)">
        <path id="パス_4784" data-name="パス 4784" d="M9.135-11.265h-.81v2.88H7.155v-4.17H6.3v4.17H5.19v-2.88H4.41v3.81H9.135Zm-6.12-1.29A11.273,11.273,0,0,1,.48-9.585c.165.21.465.615.6.84A15.489,15.489,0,0,0,4.035-12.18ZM3.33-9.57A14.8,14.8,0,0,1,.3-5.34a6.207,6.207,0,0,1,.66.975,15.335,15.335,0,0,0,1.29-1.53v7H3.27V-7.38A19.214,19.214,0,0,0,4.3-9.24Zm7.47.885h1.92a21.024,21.024,0,0,1-.96,4.815,23.618,23.618,0,0,1-1-4.68Zm3.555,0V-9.66h-3.27a25.115,25.115,0,0,0,.54-2.73l-1.02-.165A14.159,14.159,0,0,1,8.64-6.48a6.083,6.083,0,0,1,.54.54H4.125v.975H5.16v.75A5.589,5.589,0,0,1,3.72,0a3.031,3.031,0,0,1,.645.735,6.6,6.6,0,0,0,1.74-4.92v-.78h1.29V-1.65c-.21.075-.39.135-.57.18l.3.945c.855-.315,1.83-.69,2.805-1.08l-.15-.84c-.495.18-.99.345-1.44.5V-4.965h.99v-.78l.06.09a8.324,8.324,0,0,0,.765-1.35,23.057,23.057,0,0,0,1.08,4.35A7.368,7.368,0,0,1,8.6.3a5.666,5.666,0,0,1,.615.84,8.708,8.708,0,0,0,2.505-2.685A6.78,6.78,0,0,0,13.9,1.14,5.237,5.237,0,0,1,14.64.255,6.239,6.239,0,0,1,12.27-2.61a20.219,20.219,0,0,0,1.425-6.075ZM24.3-.405v-3.81h4.815v-1.08H24.3v-3.27h5.37v-1.1H24.3v-2.88H23.16v2.88H20.115a20.59,20.59,0,0,0,.84-2.4L19.83-12.3a13.674,13.674,0,0,1-2.775,5.52,7.468,7.468,0,0,1,1.02.66,13.459,13.459,0,0,0,1.56-2.445H23.16v3.27H18.7v1.08H23.16v3.81H17.085V.675h13.29V-.405ZM38.685-4.9l-.15-.99-1.74.54v-3.06h1.53v-1.08H36.8V-12.54H35.76v3.045H34.605c.1-.66.21-1.35.285-2.025l-.975-.165A17.552,17.552,0,0,1,32.88-6.69a5.3,5.3,0,0,1,.855.5,11.873,11.873,0,0,0,.66-2.22H35.76V-5.07c-1.05.33-2.01.585-2.775.8l.3,1.065c.735-.225,1.59-.495,2.475-.765v5.13H36.8V-4.3ZM40.77-10.05a21.454,21.454,0,0,0,.66-2.3l-1.02-.21A12.813,12.813,0,0,1,37.785-6.8a7.5,7.5,0,0,1,.855.645A12.369,12.369,0,0,0,40.35-9h1.29a12.679,12.679,0,0,1-3.615,6.15,3.64,3.64,0,0,1,.885.645A14.583,14.583,0,0,0,42.6-9h1.23c-.78,3.765-2.4,7.455-4.86,9.225A3.376,3.376,0,0,1,39.9.9c2.49-1.98,4.14-5.97,4.89-9.9h.72c-.3,5.94-.63,8.16-1.11,8.685a.635.635,0,0,1-.555.255c-.3,0-.9-.015-1.575-.075a2.421,2.421,0,0,1,.315,1.1,9.187,9.187,0,0,0,1.71,0A1.29,1.29,0,0,0,45.33.39c.6-.75.93-3.075,1.26-9.87.015-.135.015-.57.015-.57Zm16.86,2.1v1.32H55.11V-7.95Zm3.615,1.32h-2.61V-7.95h2.61Zm-2.61,2.19V-5.8h2.61V-4.44Zm-3.525,0V-5.8h2.52V-4.44Zm0,.855h2.52v2.43h1.005v-2.43h2.61V-2.22c0,.195-.06.255-.255.255s-.825.015-1.53-.015a3.485,3.485,0,0,1,.315.915A6.6,6.6,0,0,0,61.8-1.23c.39-.165.51-.435.51-.975v-6.6H60.42c-.33-.18-.72-.39-1.155-.6a13.262,13.262,0,0,0,3.03-2.055l-.69-.525-.21.06h-7.32v.885H60.33a11.473,11.473,0,0,1-2.055,1.185c-.7-.3-1.44-.6-2.085-.825l-.705.63c.9.33,1.965.81,2.85,1.245H54.06V-1.1h1.05ZM52.845-9.8A11.244,11.244,0,0,0,50.31-12.21l-.78.69a11.477,11.477,0,0,1,2.49,2.49Zm-.33,3.12h-3.24v1.05h2.16V-1.77a25.942,25.942,0,0,1-2.34,1.695L49.635,1C50.49.375,51.285-.27,52.05-.93,52.965.255,54.315.78,56.28.855,57.93.93,61.11.9,62.775.825A5.516,5.516,0,0,1,63.12-.27c-1.785.12-5.205.165-6.84.09-1.755-.06-3.045-.555-3.765-1.68Zm17-.675h5.655v1.47H69.51Zm8.145,3.54h-4.6V-5.04h3.225V-8.19h-7.83v3.15h3.48v1.23H67.11V.48h1.11V-2.79h3.705V1.155H73.05V-2.79h3.48v2.1c0,.18-.075.225-.3.24s-1.02.015-1.92-.015A4.461,4.461,0,0,1,74.7.555a7.806,7.806,0,0,0,2.37-.18c.465-.165.585-.465.585-1.05ZM76.2-12.435a11.95,11.95,0,0,1-1.245,1.83l.9.375a20.647,20.647,0,0,0,1.5-1.8Zm2.37,2.2H72.96v-2.325H71.835v2.325H68.7l.93-.42a8.89,8.89,0,0,0-1.275-1.755l-.99.405a9.213,9.213,0,0,1,1.17,1.77h-2.4v3.195H67.2v-2.22H77.475v2.22H78.57Zm7.32-2.01A12.74,12.74,0,0,1,81.4-6.6a6.483,6.483,0,0,1,.945.855,15.454,15.454,0,0,0,4.71-6.165ZM83.835-6.915v1.08h3.06C86.55-3.3,85.725-.93,82.2.24a4.423,4.423,0,0,1,.72.975c3.81-1.38,4.77-4.1,5.16-7.05h3.87c-.18,3.78-.39,5.28-.78,5.655-.135.165-.315.2-.63.2-.345,0-1.275-.015-2.25-.105a2.712,2.712,0,0,1,.375,1.11,21.488,21.488,0,0,0,2.355.03A1.5,1.5,0,0,0,92.175.525c.51-.57.735-2.295.945-6.9.015-.15.03-.54.03-.54Zm6.18-4.935a19.838,19.838,0,0,0,4.65,5.97,5.735,5.735,0,0,1,.915-.99,15.872,15.872,0,0,1-4.515-5.4ZM103.5-4.41c-.315-.405-1.635-2.04-2.1-2.565V-8.3h2.055v-1.05H101.4v-3.21h-1.05v3.21H98.025V-8.3H100.2a16.063,16.063,0,0,1-2.52,5.64,6.746,6.746,0,0,1,.585,1,16.344,16.344,0,0,0,2.085-4.38V1.125h1.05v-6.78c.525.735,1.14,1.65,1.41,2.145Zm8.085-3.045h-6.03V-10.11a27.494,27.494,0,0,0,5.355-1.41l-.945-.855a24.659,24.659,0,0,1-4.545,1.32l-.945-.285v4.215c0,2.235-.165,5.25-1.845,7.47a3.329,3.329,0,0,1,.84.735c1.65-2.19,2.025-5.175,2.07-7.47h2.715V1.14h1.11V-6.39h2.22Z" transform="translate(248 1283)"/>
        <path id="パス_4785" data-name="パス 4785" d="M8.34-4.56a7.973,7.973,0,0,0,2.388,5.712l.72-.372A7.509,7.509,0,0,1,9.216-4.56,7.509,7.509,0,0,1,11.448-9.9l-.72-.372A7.973,7.973,0,0,0,8.34-4.56ZM20.88-9.4H19.764a9.956,9.956,0,0,1,.108,1.008c.012.276.024.684.036,1.164H15.54a10.889,10.889,0,0,1-1.1-.072v1.02c.372-.024.72-.036,1.128-.036h3.948a15.1,15.1,0,0,1-5.52,4.62l.7.78a16.673,16.673,0,0,0,5.244-4.5c.024,1.608.036,3.4.036,4.356,0,.324-.1.48-.444.48A11.353,11.353,0,0,1,17.832-.72l.084.984c.588.048,1.3.072,1.92.072.72,0,1.092-.336,1.092-.96-.012-1.5-.048-3.888-.084-5.688h1.908c.288,0,.708.012.984.024V-7.3c-.24.024-.708.072-1.02.072H20.832c-.012-.48-.024-.888-.024-1.164A7.119,7.119,0,0,1,20.88-9.4Zm14.7.78a.8.8,0,0,1,.792-.8.8.8,0,0,1,.8.8.8.8,0,0,1-.8.792A.8.8,0,0,1,35.58-8.616Zm-.552,0a1.352,1.352,0,0,0,.06.384c-.144.012-.276.012-.384.012H28.68a9.261,9.261,0,0,1-1.2-.084v1.068c.312-.012.72-.036,1.2-.036h6.132A8.981,8.981,0,0,1,33.24-3.36,7.9,7.9,0,0,1,28.56-.48l.816.9a9.087,9.087,0,0,0,4.728-3.2,11.723,11.723,0,0,0,1.788-4.428.619.619,0,0,0,.024-.132,1.451,1.451,0,0,0,.456.072,1.352,1.352,0,0,0,1.356-1.344,1.362,1.362,0,0,0-1.356-1.356A1.352,1.352,0,0,0,35.028-8.616Zm7.464-.6-.54.8c.708.408,2,1.272,2.58,1.7l.564-.816C44.58-7.908,43.2-8.82,42.492-9.216Zm-1.8,8.58.552.972a14.939,14.939,0,0,0,3.984-1.488,13.983,13.983,0,0,0,4.608-4.3l-.576-.984A12.239,12.239,0,0,1,44.712-2.04,12.747,12.747,0,0,1,40.692-.636Zm-.012-5.88-.528.816a26.3,26.3,0,0,1,2.616,1.644l.552-.84C42.792-5.28,41.388-6.132,40.68-6.516Zm13.836-.072v.936c.216-.012.912-.036,1.224-.036h4.452V-3.7H55.848c-.408,0-.84-.024-1.068-.036v.924c.24-.012.66-.024,1.08-.024h4.332V-.7H55.356a9.135,9.135,0,0,1-.984-.048v.96c.192,0,.612-.024,1-.024h4.824c0,.192,0,.372-.012.48h.948C61.116.5,61.1.216,61.1.024V-5.952c0-.228,0-.48.012-.612-.156.012-.468.024-.732.024H55.74C55.428-6.54,54.744-6.564,54.516-6.588ZM67.524-8.8l-.684.732a24.922,24.922,0,0,1,2.988,2.508l.756-.756A26.276,26.276,0,0,0,67.524-8.8ZM66.492-.756l.636.984a13.153,13.153,0,0,0,4.716-1.86A11.989,11.989,0,0,0,75.876-5.9L75.3-6.924a11.3,11.3,0,0,1-4.008,4.416A12.39,12.39,0,0,1,66.492-.756ZM86.724-4.248h-5V-5.46h5Zm-5,2.028V-3.48h5v1.26ZM89-7.656V-8.5H82.9c.18-.432.324-.888.468-1.332l-.888-.216A15.714,15.714,0,0,1,81.948-8.5H78.564v.84h3.012a10.031,10.031,0,0,1-3.3,4,4.355,4.355,0,0,1,.576.684A9.9,9.9,0,0,0,80.844-4.86V.912h.876V-1.452h5V-.2c0,.18-.072.24-.276.252S85.512.06,84.72.024A3.408,3.408,0,0,1,85.008.9,7.358,7.358,0,0,0,87.1.744c.384-.144.5-.408.5-.948v-6.06H81.816c.264-.444.5-.924.732-1.392ZM99.528-5.844h-1.4V-7.872h1.4Zm0,2.844h-1.4V-5.052h1.4ZM93.876-5.052h1.332V-3H93.876Zm3.48,0V-3H95.964V-5.052Zm-1.392-.792V-7.872h1.392v2.028ZM93.876-7.872h1.332v2.028H93.876Zm-.8,2.028H91.4v.792h1.668V-3H91.6v.8H101.88V-3h-1.512V-5.052h1.68v-.792h-1.68V-7.872H101.6v-.792H94.032a8.738,8.738,0,0,0,.636-1.128l-.852-.252A8.49,8.49,0,0,1,91.26-6.912a4.368,4.368,0,0,1,.732.588,10.032,10.032,0,0,0,1.08-1.068ZM92.16.924a5.612,5.612,0,0,0,1.476-2.412l-.828-.2A5.246,5.246,0,0,1,91.32.576Zm2.724-2.316A14.509,14.509,0,0,1,95.136.8l.852-.12a14.532,14.532,0,0,0-.288-2.16Zm2.424.012a14.23,14.23,0,0,1,.732,2.2L98.9.636a11.6,11.6,0,0,0-.768-2.172Zm2.436-.084a14.149,14.149,0,0,1,1.56,2.4l.888-.324A14.7,14.7,0,0,0,100.56-1.74Zm7.6-3.1a7.973,7.973,0,0,0-2.388-5.712l-.72.372a7.509,7.509,0,0,1,2.232,5.34A7.509,7.509,0,0,1,104.232.78l.72.372A7.973,7.973,0,0,0,107.34-4.56Z" transform="translate(356 1283)"/>
        <path id="パス_4786" data-name="パス 4786" d="M14.22-.24q.1,0,.1.12t-.1.12Q13.84,0,13-.04T11.78-.08q-.5,0-1.18.04T9.54,0q-.08,0-.08-.12t.08-.12a2.073,2.073,0,0,0,.85-.13.444.444,0,0,0,.27-.43,2.9,2.9,0,0,0-.34-1.02L8.16-6.2H4.54L3-2.74a2.757,2.757,0,0,0-.26,1.08A1.223,1.223,0,0,0,3.24-.6a2.363,2.363,0,0,0,1.4.36q.1,0,.1.12T4.64,0Q4.28,0,3.6-.04,2.84-.08,2.28-.08q-.54,0-1.26.04Q.38,0-.04,0q-.1,0-.1-.12t.1-.12A1.85,1.85,0,0,0,.9-.46a2.311,2.311,0,0,0,.74-.79A14.13,14.13,0,0,0,2.5-2.94l4.3-9.68q.04-.06.18-.06t.16.06l4.9,9.88A9.491,9.491,0,0,0,13.21-.77,1.351,1.351,0,0,0,14.22-.24ZM4.76-6.7H7.92L6.26-10.06ZM17.88.22a1.081,1.081,0,0,1-.8-.3,1.081,1.081,0,0,1-.3-.8,1.022,1.022,0,0,1,.3-.77,1.1,1.1,0,0,1,.8-.29,1.061,1.061,0,0,1,.8.29,1.062,1.062,0,0,1,.28.77,1.118,1.118,0,0,1-.28.81A1.061,1.061,0,0,1,17.88.22Z" transform="translate(218 1283)"/>
      </g>
    </g>
    <g id="グループ_1795" data-name="グループ 1795" transform="translate(-187 202)">
      <rect id="長方形_13396-2" data-name="長方形 13396" width="275" height="78" transform="translate(227 1248)" fill="#eae8e4"/>
      <g id="グループ_1189" data-name="グループ 1189" transform="translate(4)">
        <path id="パス_4787" data-name="パス 4787" d="M-46.965-11.265h-.81v2.88h-1.17v-4.17H-49.8v4.17h-1.11v-2.88h-.78v3.81h4.725Zm-6.12-1.29a11.273,11.273,0,0,1-2.535,2.97c.165.21.465.615.6.84a15.489,15.489,0,0,0,2.955-3.435Zm.315,2.985A14.8,14.8,0,0,1-55.8-5.34a6.207,6.207,0,0,1,.66.975,15.334,15.334,0,0,0,1.29-1.53v7h1.02V-7.38a19.214,19.214,0,0,0,1.035-1.86Zm7.47.885h1.92a21.024,21.024,0,0,1-.96,4.815,23.618,23.618,0,0,1-1-4.68Zm3.555,0V-9.66h-3.27a25.115,25.115,0,0,0,.54-2.73l-1.02-.165A14.159,14.159,0,0,1-47.46-6.48a6.083,6.083,0,0,1,.54.54h-5.055v.975h1.035v.75A5.589,5.589,0,0,1-52.38,0a3.031,3.031,0,0,1,.645.735,6.6,6.6,0,0,0,1.74-4.92v-.78h1.29V-1.65c-.21.075-.39.135-.57.18l.3.945c.855-.315,1.83-.69,2.805-1.08l-.15-.84c-.495.18-.99.345-1.44.5V-4.965h.99v-.78l.06.09a8.324,8.324,0,0,0,.765-1.35,23.057,23.057,0,0,0,1.08,4.35A7.368,7.368,0,0,1-47.5.3a5.666,5.666,0,0,1,.615.84,8.708,8.708,0,0,0,2.505-2.685,6.78,6.78,0,0,0,2.19,2.685A5.237,5.237,0,0,1-41.46.255,6.239,6.239,0,0,1-43.83-2.61,20.219,20.219,0,0,0-42.4-8.685ZM-31.8-.405v-3.81h4.815v-1.08H-31.8v-3.27h5.37v-1.1H-31.8v-2.88h-1.14v2.88h-3.045a20.59,20.59,0,0,0,.84-2.4l-1.125-.24a13.674,13.674,0,0,1-2.775,5.52,7.468,7.468,0,0,1,1.02.66,13.459,13.459,0,0,0,1.56-2.445h3.525v3.27h-4.455v1.08h4.455v3.81h-6.075V.675h13.29V-.405Zm14.385-4.5-.15-.99-1.74.54v-3.06h1.53v-1.08H-19.3V-12.54H-20.34v3.045h-1.155c.1-.66.21-1.35.285-2.025l-.975-.165A17.552,17.552,0,0,1-23.22-6.69a5.3,5.3,0,0,1,.855.5,11.873,11.873,0,0,0,.66-2.22h1.365V-5.07c-1.05.33-2.01.585-2.775.8l.3,1.065c.735-.225,1.59-.495,2.475-.765v5.13H-19.3V-4.3Zm2.085-5.145a21.454,21.454,0,0,0,.66-2.3l-1.02-.21A12.813,12.813,0,0,1-18.315-6.8a7.5,7.5,0,0,1,.855.645A12.369,12.369,0,0,0-15.75-9h1.29a12.679,12.679,0,0,1-3.615,6.15,3.64,3.64,0,0,1,.885.645A14.584,14.584,0,0,0-13.5-9h1.23c-.78,3.765-2.4,7.455-4.86,9.225A3.376,3.376,0,0,1-16.2.9c2.49-1.98,4.14-5.97,4.89-9.9h.72c-.3,5.94-.63,8.16-1.11,8.685a.635.635,0,0,1-.555.255c-.3,0-.9-.015-1.575-.075a2.421,2.421,0,0,1,.315,1.1,9.187,9.187,0,0,0,1.71,0A1.29,1.29,0,0,0-10.77.39c.6-.75.93-3.075,1.26-9.87.015-.135.015-.57.015-.57Zm11.265-.465A8.811,8.811,0,0,1-3.36-9l.96-.285a6.808,6.808,0,0,0-.585-1.23H-.2V-11.4H-4.14q.247-.473.45-.945l-1.035-.27a8.226,8.226,0,0,1-2.16,3.09,6.889,6.889,0,0,1,.915.6,10.272,10.272,0,0,0,1.305-1.59Zm2.415,2.49V-7.2H-4.83v-.825Zm-3.18,2.37v-.84h3.18v.84Zm4.2.735V-8.76H-5.865V1.125H-4.83V-4.92ZM1.8-3.45v.96H-1.74v-.96ZM-1.74-.8v-1H1.8v1Zm4.53-3.36H-2.745V.45H-1.74V-.09H2.79Zm-1.14-1.5v-.84H4.995v.84Zm3.345-2.37V-7.2H1.65v-.825Zm1.05-.735H.63v3.84H4.995V-.135c0,.21-.075.285-.3.3-.24,0-1.02.015-1.875-.03a3.967,3.967,0,0,1,.36.99A7.481,7.481,0,0,0,5.475.96c.42-.165.57-.48.57-1.1ZM1.77-11.4a8.186,8.186,0,0,0,.48-.96l-1.065-.255A7.253,7.253,0,0,1-1.155-9.6a6.677,6.677,0,0,1,.96.555,8.139,8.139,0,0,0,1.38-1.47h1.17a7.348,7.348,0,0,1,.99,1.56l.99-.33a7.28,7.28,0,0,0-.8-1.23H6.66V-11.4ZM12.615-8.565H19.98V-7.08H12.615Zm0-2.37H19.98V-9.45H12.615Zm.945,6.06a12.073,12.073,0,0,0,.9-1.26h6.645v-5.73H11.52v5.73h1.65A11.881,11.881,0,0,1,9.33-2.7a5.532,5.532,0,0,1,.87.78,13.72,13.72,0,0,0,2.43-1.95h2.085A11.709,11.709,0,0,1,10.59.045a8.9,8.9,0,0,1,.855.8,13.987,13.987,0,0,0,4.5-4.71H17.97A10.4,10.4,0,0,1,14.73.54a6.182,6.182,0,0,1,.9.69,12.43,12.43,0,0,0,3.48-5.1h1.83c-.24,2.58-.5,3.645-.825,3.945-.135.15-.285.165-.54.165A16.5,16.5,0,0,1,17.9.165a2.307,2.307,0,0,1,.3.975,15.418,15.418,0,0,0,1.845.015,1.292,1.292,0,0,0,1.005-.42c.45-.465.75-1.755,1.035-5.1.03-.165.045-.51.045-.51ZM29.79-12.24A12.74,12.74,0,0,1,25.305-6.6a6.483,6.483,0,0,1,.945.855,15.454,15.454,0,0,0,4.71-6.165ZM27.735-6.915v1.08H30.8C30.45-3.3,29.625-.93,26.1.24a4.423,4.423,0,0,1,.72.975c3.81-1.38,4.77-4.1,5.16-7.05h3.87c-.18,3.78-.39,5.28-.78,5.655-.135.165-.315.2-.63.2C34.1.015,33.165,0,32.19-.09a2.712,2.712,0,0,1,.375,1.11,21.488,21.488,0,0,0,2.355.03A1.5,1.5,0,0,0,36.075.525c.51-.57.735-2.295.945-6.9.015-.15.03-.54.03-.54Zm6.18-4.935a19.838,19.838,0,0,0,4.65,5.97,5.735,5.735,0,0,1,.915-.99,15.872,15.872,0,0,1-4.515-5.4ZM47.4-4.41c-.315-.405-1.635-2.04-2.1-2.565V-8.3h2.055v-1.05H45.3v-3.21H44.25v3.21H41.925V-8.3H44.1a16.063,16.063,0,0,1-2.52,5.64,6.745,6.745,0,0,1,.585,1A16.344,16.344,0,0,0,44.25-6.03V1.125H45.3v-6.78c.525.735,1.14,1.65,1.41,2.145Zm8.085-3.045h-6.03V-10.11a27.494,27.494,0,0,0,5.355-1.41l-.945-.855a24.659,24.659,0,0,1-4.545,1.32l-.945-.285v4.215c0,2.235-.165,5.25-1.845,7.47a3.329,3.329,0,0,1,.84.735c1.65-2.19,2.025-5.175,2.07-7.47h2.715V1.14h1.11V-6.39h2.22Z" transform="translate(369 1293)"/>
        <path id="パス_4788" data-name="パス 4788" d="M7.02-7.02a4.409,4.409,0,0,1,2.62,1.1,3,3,0,0,1,.98,2.28,3.319,3.319,0,0,1-.57,1.89A3.906,3.906,0,0,1,8.47-.41,5.087,5.087,0,0,1,6.22.08Q5.64.08,4.88.02,4.62,0,4.22-.02t-.9-.02L1.88-.02Q1.5,0,.84,0,.78,0,.78-.12T.84-.24A3.143,3.143,0,0,0,1.8-.35a.732.732,0,0,0,.45-.39,2.216,2.216,0,0,0,.13-.88v-9.26a2.227,2.227,0,0,0-.13-.87.727.727,0,0,0-.44-.4,3.041,3.041,0,0,0-.95-.11q-.04,0-.04-.12t.04-.12l1.04.02q.88.04,1.42.04.56,0,1.18-.06.22-.02.53-.04t.71-.02a4.6,4.6,0,0,1,2.73.69,2.229,2.229,0,0,1,.95,1.91,2.675,2.675,0,0,1-.63,1.72A4.118,4.118,0,0,1,7.02-7.02ZM5.4-12.16a1.139,1.139,0,0,0-.87.26,1.7,1.7,0,0,0-.23,1.06v3.8l.84.02a2.118,2.118,0,0,0,1.78-.77,3.144,3.144,0,0,0,.6-1.99,2.6,2.6,0,0,0-.54-1.76A1.982,1.982,0,0,0,5.4-12.16ZM5.9-.38q2.7,0,2.7-2.78A3.616,3.616,0,0,0,7.81-5.6,2.877,2.877,0,0,0,5.5-6.52q-.72,0-1.2.04v4.86a1.755,1.755,0,0,0,.12.72.78.78,0,0,0,.46.39A3.022,3.022,0,0,0,5.9-.38Zm9.42.6a1.081,1.081,0,0,1-.8-.3,1.081,1.081,0,0,1-.3-.8,1.022,1.022,0,0,1,.3-.77,1.1,1.1,0,0,1,.8-.29,1.061,1.061,0,0,1,.8.29,1.062,1.062,0,0,1,.28.77,1.118,1.118,0,0,1-.28.81A1.061,1.061,0,0,1,15.32.22Z" transform="translate(286 1293)"/>
      </g>
    </g>
    <g id="グループ_1796" data-name="グループ 1796" transform="translate(-187 290)">
      <rect id="長方形_13396-3" data-name="長方形 13396" width="275" height="78" transform="translate(227 1248)" fill="#eae8e4"/>
      <g id="グループ_1188" data-name="グループ 1188" transform="translate(4)">
        <path id="パス_4789" data-name="パス 4789" d="M-35.175-12.315a16.589,16.589,0,0,1-4.35,6.045,7.444,7.444,0,0,1,.675,1.125A17.9,17.9,0,0,0-36.9-7.26V1.11h1.125V-8.835a20.144,20.144,0,0,0,1.665-3.12ZM-30.5-.12c-.825,0-.99-.18-.99-1.02V-5.49a35.3,35.3,0,0,0,5.28-3.27L-27-9.72a26.256,26.256,0,0,1-4.485,3.105V-12.2H-32.61v11.04C-32.61.48-32.13.93-30.57.93H-27.5c1.545,0,1.875-.855,2.055-3.285a3.581,3.581,0,0,1-1.065-.48C-26.61-.66-26.745-.12-27.57-.12Zm9.105-8.955h10.455V-6.75h1.08v-3.315H-12.18c.51-.6,1.065-1.32,1.53-1.995l-1.155-.39a16.211,16.211,0,0,1-1.6,2.385h-2.655l.645-.255a9.249,9.249,0,0,0-1.215-2.3l-.975.36a8.866,8.866,0,0,1,1.11,2.19h-3.06l.51-.255a10.049,10.049,0,0,0-1.44-2.04l-.93.42a12.436,12.436,0,0,1,1.26,1.875h-2.3V-6.75h1.065ZM-9.585-4.14H-15.63v-.375A13.4,13.4,0,0,0-11.985-7.05l-.72-.54-.225.06h-7.32v.99h6.195A12.561,12.561,0,0,1-16.17-5.22h-.57v1.08h-6v1.035h6v2.9c0,.225-.075.3-.39.315C-17.415.12-18.435.12-19.575.09a4.782,4.782,0,0,1,.465,1.065,11.157,11.157,0,0,0,2.76-.18c.54-.165.72-.495.72-1.155V-3.105h6.045Zm3.42-1.44a16.728,16.728,0,0,0,.75-4.02l-.84-.12a15.156,15.156,0,0,1-.78,3.84Zm1.29,6.72h1.11v-13.7h-1.11ZM-3.66-9.8a14.93,14.93,0,0,1,1.035,2.55l.84-.4a14.165,14.165,0,0,0-1.1-2.505ZM2.925-.435v-3.75h3.06V-5.22H2.925V-8.325h3.39V-9.39H2.925v-3.105H1.815V-9.39H-.06c.21-.735.39-1.515.54-2.3l-1.08-.18A14.6,14.6,0,0,1-2.415-6.51a8.75,8.75,0,0,1,.99.51A10.816,10.816,0,0,0-.375-8.325h2.19V-5.22h-3.18v1.035h3.18v3.75h-4.29V.63h9.15V-.435ZM13.59-12.24A12.74,12.74,0,0,1,9.1-6.6a6.483,6.483,0,0,1,.945.855,15.454,15.454,0,0,0,4.71-6.165ZM11.535-6.915v1.08h3.06C14.25-3.3,13.425-.93,9.9.24a4.423,4.423,0,0,1,.72.975c3.81-1.38,4.77-4.1,5.16-7.05h3.87c-.18,3.78-.39,5.28-.78,5.655-.135.165-.315.2-.63.2-.345,0-1.275-.015-2.25-.105a2.712,2.712,0,0,1,.375,1.11,21.488,21.488,0,0,0,2.355.03A1.5,1.5,0,0,0,19.875.525c.51-.57.735-2.295.945-6.9.015-.15.03-.54.03-.54Zm6.18-4.935a19.838,19.838,0,0,0,4.65,5.97,5.736,5.736,0,0,1,.915-.99,15.872,15.872,0,0,1-4.515-5.4ZM31.2-4.41c-.315-.405-1.635-2.04-2.1-2.565V-8.3h2.055v-1.05H29.1v-3.21H28.05v3.21H25.725V-8.3H27.9a16.063,16.063,0,0,1-2.52,5.64,6.746,6.746,0,0,1,.585,1A16.344,16.344,0,0,0,28.05-6.03V1.125H29.1v-6.78c.525.735,1.14,1.65,1.41,2.145Zm8.085-3.045h-6.03V-10.11a27.494,27.494,0,0,0,5.355-1.41l-.945-.855a24.659,24.659,0,0,1-4.545,1.32l-.945-.285v4.215c0,2.235-.165,5.25-1.845,7.47a3.329,3.329,0,0,1,.84.735c1.65-2.19,2.025-5.175,2.07-7.47h2.715V1.14h1.11V-6.39h2.22Z" transform="translate(373 1293)"/>
        <path id="パス_4790" data-name="パス 4790" d="M8.38-12.72a11.491,11.491,0,0,1,1.87.16,5.5,5.5,0,0,1,1.53.44.394.394,0,0,1,.23.15.849.849,0,0,1,.07.31l.24,2.6q0,.06-.1.08t-.12-.06a4.882,4.882,0,0,0-1.75-2.38,4.669,4.669,0,0,0-2.75-.82,3.961,3.961,0,0,0-3.26,1.46A6.054,6.054,0,0,0,3.16-6.86a8.605,8.605,0,0,0,.65,3.38,5.966,5.966,0,0,0,1.8,2.44,4.067,4.067,0,0,0,2.57.9q2.7,0,4.1-3.36.02-.08.13-.06t.11.08l-.3,2.56a.866.866,0,0,1-.09.31.584.584,0,0,1-.23.15,9.82,9.82,0,0,1-3.7.7A7.79,7.79,0,0,1,4.14-.73,6.148,6.148,0,0,1,1.75-3.2,6.748,6.748,0,0,1,.98-6.32,5.65,5.65,0,0,1,2.01-9.66a6.828,6.828,0,0,1,2.73-2.26A8.442,8.442,0,0,1,8.38-12.72ZM17.04.22a1.081,1.081,0,0,1-.8-.3,1.081,1.081,0,0,1-.3-.8,1.022,1.022,0,0,1,.3-.77,1.1,1.1,0,0,1,.8-.29,1.061,1.061,0,0,1,.8.29,1.062,1.062,0,0,1,.28.77,1.118,1.118,0,0,1-.28.81A1.061,1.061,0,0,1,17.04.22Z" transform="translate(304 1293)"/>
      </g>
    </g>
  </g>
</svg>
