<svg xmlns="http://www.w3.org/2000/svg" width="300" height="226" viewBox="0 0 300 226">
  <g id="グループ_1679" data-name="グループ 1679" transform="translate(-1330.597 -218.429)">
    <g id="グループ_1680" data-name="グループ 1680" transform="translate(1330.597 260.565)">
      <g id="グループ_1679-2" data-name="グループ 1679">
        <path id="パス_2507" data-name="パス 2507" d="M1490.425,309.274a8.153,8.153,0,0,0-10.863-7.646,30.675,30.675,0,0,1-3.1,13.386,8.171,8.171,0,0,0,13.961-5.74Zm-57.009,19.247a31.088,31.088,0,0,1-11.634-11.329,8.1,8.1,0,0,0,.434,11.046A8.183,8.183,0,0,0,1433.416,328.521Zm43.732-38.946a8.064,8.064,0,0,0,1.229-4.289,8.146,8.146,0,0,0-10.373-7.8A30.968,30.968,0,0,1,1477.148,289.574Zm-46.215-13.48a8.19,8.19,0,0,0-9.109,1.682,8.1,8.1,0,0,0-1.112,10.073A31.054,31.054,0,0,1,1430.933,276.094Zm-14.256,8.707a4.9,4.9,0,1,0-4.892,4.892A4.892,4.892,0,0,0,1416.677,284.8Zm-7.705,14.947a4.883,4.883,0,1,0,1.857,6.645A4.909,4.909,0,0,0,1408.972,299.748Zm48.005-27.936a30.869,30.869,0,0,1,8.586,3.9,4.809,4.809,0,0,0-.606-3.34,4.862,4.862,0,0,0-7.981-.562Zm-27.983,71.709a4.875,4.875,0,1,0-5.019-4.758A4.882,4.882,0,0,0,1428.995,343.52Zm-11.22-29.1a4.876,4.876,0,0,0,2.806.553,30.567,30.567,0,0,1-2.777-9.163,4.866,4.866,0,0,0-.028,8.61ZM1454.2,261.45a4.879,4.879,0,1,0-5.118-4.645A4.886,4.886,0,0,0,1454.2,261.45Zm-24.7,12.2a4.877,4.877,0,1,0-5.122-4.646A4.885,4.885,0,0,0,1429.506,273.646Zm50.762,3.9a4.863,4.863,0,0,0,2.148,6.553,4.881,4.881,0,1,0-2.148-6.553Zm-14.19,56.537a4.869,4.869,0,0,0,1.38-6.76,4.968,4.968,0,0,0-.674-.8,30.9,30.9,0,0,1-8.237,4.263,4.818,4.818,0,0,0,.741,1.924A4.913,4.913,0,0,0,1466.078,334.079Zm23.064-.688a4.9,4.9,0,1,0-4.552,5.2A4.9,4.9,0,0,0,1489.142,333.391Zm-41.751-.985a30.93,30.93,0,0,1-12.7-3.216,7.986,7.986,0,0,0-.135,1.463,8.168,8.168,0,0,0,13.337,6.266,4.823,4.823,0,0,0,1.917,1.665,4.906,4.906,0,0,0,6.535-2.284,4.835,4.835,0,0,0-.332-4.775,31.253,31.253,0,0,1-5.317.827c-.689.045-1.383.081-2.085.083C1448.2,332.435,1447.8,332.421,1447.391,332.406Zm10.376,17.292a4.884,4.884,0,1,0-6.815-1.223A4.861,4.861,0,0,0,1457.767,349.7Zm-57.317-62.08a2.926,2.926,0,1,0-2.946-2.92A2.929,2.929,0,0,0,1400.45,287.618Zm15.831,15.846a2.923,2.923,0,0,0,1.285.022c-.038-.619-.064-1.244-.066-1.874a30.849,30.849,0,0,1,.236-3.819l-.018,0a2.928,2.928,0,1,0-1.438,5.676Zm-8.251-30.374a2.93,2.93,0,1,0-1.183-3.967A2.918,2.918,0,0,0,1408.029,273.09Zm66.469,62.545a2.919,2.919,0,0,0,.862-4.049,2.951,2.951,0,0,0-4.066-.862,2.932,2.932,0,1,0,3.2,4.911Zm-58.371-59.567a2.939,2.939,0,1,0,1.838-3.713A2.943,2.943,0,0,0,1416.127,276.068Zm57.232-4.148a2.927,2.927,0,1,0-3.156-2.691A2.925,2.925,0,0,0,1473.359,271.919Zm19.472,10.938a2.927,2.927,0,1,0-2.4-3.385A2.935,2.935,0,0,0,1492.831,282.857ZM1417.87,320.05a2.92,2.92,0,0,0-1.481-3.863,2.928,2.928,0,1,0,1.481,3.863Zm44.393-53.589a2.95,2.95,0,0,0,4.13-.476,2.914,2.914,0,0,0-.477-4.108,2.931,2.931,0,1,0-3.654,4.584Zm8.163,77.444a2.914,2.914,0,0,0,.555-4.1,2.934,2.934,0,1,0-.555,4.1ZM1406,316.2a2.93,2.93,0,1,0,3.856,1.551A2.926,2.926,0,0,0,1406,316.2Zm70.575,6.448a2.931,2.931,0,0,0-3.319-2.449,31.1,31.1,0,0,1-2.511,2.9,2.931,2.931,0,1,0,5.83-.456Zm6.014-35.218a2.927,2.927,0,1,0,2.64,3.194A2.938,2.938,0,0,0,1482.59,287.433Zm-.052,8.376a2.94,2.94,0,1,0,3.769-1.761A2.927,2.927,0,0,0,1482.538,295.809Zm-79.933-3.388a2.937,2.937,0,1,0,4.086-.783A2.953,2.953,0,0,0,1402.606,292.421Zm86.946,1.369a2.949,2.949,0,0,0,4.147.24,2.915,2.915,0,0,0,.246-4.131,2.956,2.956,0,0,0-4.153-.244A2.924,2.924,0,0,0,1489.552,293.79Zm-52.441-29.508a2.929,2.929,0,1,0-3.959-1.253A2.926,2.926,0,0,0,1437.11,264.282Zm25,77.57a2.929,2.929,0,1,0-3.528-2.19A2.928,2.928,0,0,0,1462.113,341.852Zm30.305-36.654a2.941,2.941,0,1,0,3-2.87A2.929,2.929,0,0,0,1492.418,305.2Zm-10.906,20.218a2.927,2.927,0,1,0-2.052-3.6A2.933,2.933,0,0,0,1481.513,325.416Zm-44.769-55.7a2.9,2.9,0,0,0,.179,3.169,30.683,30.683,0,0,1,5.295-1.6,2.92,2.92,0,0,0-1.464-2.663A2.952,2.952,0,0,0,1436.744,269.718Zm55.152,46a2.915,2.915,0,0,0,.071,4.133,2.945,2.945,0,0,0,4.156-.069,2.915,2.915,0,0,0-.068-4.137A2.953,2.953,0,0,0,1491.9,315.722Zm-12.034-45.332a2.936,2.936,0,1,0,.955-4.021A2.914,2.914,0,0,0,1479.862,270.39Zm-62.61,23.279a2.906,2.906,0,0,0,.941,1.382,30.429,30.429,0,0,1,1.6-5.163,2.779,2.779,0,0,0-.61.119A2.922,2.922,0,0,0,1417.252,293.669Zm-19.214,21.216a1.755,1.755,0,1,0-1.767-1.75A1.76,1.76,0,0,0,1398.038,314.885Zm66.983,35.008a1.778,1.778,0,0,0,2.438-.547,1.755,1.755,0,0,0-.552-2.423,1.776,1.776,0,0,0-2.436.55A1.755,1.755,0,0,0,1465.021,349.893Zm-47.472-88.039a1.758,1.758,0,1,0-2.351-.832A1.757,1.757,0,0,0,1417.549,261.854Zm-1.539,32.4a1.765,1.765,0,1,0-1.964,1.531A1.759,1.759,0,0,0,1416.01,294.251Zm77.392-20.6a1.756,1.756,0,1,0-1.539-1.957A1.766,1.766,0,0,0,1493.4,273.655Zm-13.762-13.632a1.757,1.757,0,1,0-1.537-1.957A1.768,1.768,0,0,0,1479.64,260.023Zm21.793,36.234a1.756,1.756,0,1,0,1.539,1.955A1.759,1.759,0,0,0,1501.433,296.257Zm-94.464,33.772a1.749,1.749,0,0,0,.246,2.47,1.77,1.77,0,0,0,2.483-.247,1.752,1.752,0,0,0-.245-2.469A1.771,1.771,0,0,0,1406.969,330.029Zm40.541-63.941a1.76,1.76,0,1,0-2.233-1.12A1.76,1.76,0,0,0,1447.51,266.089Zm5.01-17.419a1.758,1.758,0,1,0-1.282-2.129A1.766,1.766,0,0,0,1452.52,248.67Zm-9.922,7.748a1.757,1.757,0,1,0-1.282-2.127A1.765,1.765,0,0,0,1442.6,256.418Zm23.243-.133a1.756,1.756,0,1,0-1.289-2.129A1.765,1.765,0,0,0,1465.841,256.285Zm-38.44,3.57a1.757,1.757,0,1,0-1.282-2.132A1.766,1.766,0,0,0,1427.4,259.855Zm8.582,85.58a1.762,1.762,0,1,0,2.5.06A1.78,1.78,0,0,0,1435.982,345.435Zm17.5-74.686a1.762,1.762,0,0,0-3.44-.07,31.617,31.617,0,0,1,3.47.365A1.713,1.713,0,0,0,1453.479,270.749Zm-37.924,63.034a1.749,1.749,0,0,0-.37,2.452,1.774,1.774,0,0,0,2.472.368,1.759,1.759,0,1,0-2.1-2.82Zm-56.345-36.045-5.107-2.453c-7.938-3.865-10.487-7.82-10.486-12.056.008-7.249,4.928-11.859,11.357-11.853,7.564,0,13.422,6.224,17.1,14.887.187.47.376.753,1.416.564.947-.186.947-.468.947-.938-.375-4.991-1.031-11.11-1.026-15.91a24.056,24.056,0,0,1-9.362-.291,35.773,35.773,0,0,0-9.549-1.325c-12.67-.009-21.185,7.327-21.193,16.93s3.772,14.312,15.017,19.967l4.725,2.453c9.546,4.9,13.8,8.575,13.793,15.73-.006,7.908-5.684,13.552-13.721,13.546-8.228-.006-15.595-7.449-19.84-16.961-.19-.47-.57-.755-1.61-.565-1.136.19-1.136.846-1.042,1.505a138.012,138.012,0,0,0,3.3,15.722,54.644,54.644,0,0,0,18.152,3.31c15.888.013,25.255-7.6,25.265-20.312C1377.354,308.484,1372.631,304.244,1359.211,297.738Zm162.658-25.156c3.972.379,6.336.475,7.374,2.359.942,2.071.942,3.2.938,12.238l-.028,34.171c0,6.4.086,10.449-1.05,12.616-1.136,1.975-3.216,1.974-6.81,2.348-.568.092-.662.282-.662,1.222s.187,1.128.755,1.128c4.16-.088,9.078-.273,13.236-.27,4.349,0,9.266.2,13.9.295.757,0,.946-.19.947-1.13s-.189-1.131-.85-1.223c-3.877-.379-6.429-.478-7.375-2.359-1.038-1.885-.942-3.2-.935-12.617l.025-34.171c.006-5.931-.085-10.073,1.051-12.238,1.042-1.881,3.216-1.972,6.81-2.348.568-.094.851-.186.851-1.222,0-1.131-.187-1.319-.85-1.321-4.255.092-9.076.371-13.521.368-4.16,0-9.172-.29-13.708-.387-.569,0-.758.186-.758,1.222C1521.208,272.394,1521.4,272.582,1521.869,272.582ZM1629.613,320.8c-1.038-.285-1.229-.1-1.608.562-1.987,3.387-4.542,7.151-7.381,9.409-2.935,2.162-7.284,4.8-16.172,4.789-4.066,0-7.471-.194-9.078-2.738-1.322-2.165-1.222-7.436-1.218-11.39l.025-34.173c.006-5.931-.085-10.165,1.051-12.332,1.042-1.88,3.026-1.88,6.62-2.254.569-.092.851-.186.853-1.222,0-1.131-.282-1.319-1.039-1.319-4.067.091-9.076.37-13.427.365s-9.362-.29-13.427-.387c-.758,0-.946.19-.947,1.317,0,1.035.187,1.129.946,1.223,3.781.382,5.86.476,6.805,2.267,1.037,2.069,1.131,3.293,1.124,12.332l-.028,34.171c0,6.309-.006,10.45-1.237,12.52-1.137,1.975-2.935,2.069-6.525,2.442-.664.1-.851.282-.853,1.222s.189,1.133.85,1.133c8.415-.183,17.4-.269,25.719-.263,7.849.006,16.547.107,24.962.3a129.44,129.44,0,0,0,4.931-16.656C1630.653,321.554,1630.655,321.177,1629.613,320.8Zm-276.53,66.128v-.113c2.892-.738,3.728-1.95,3.728-3.332,0-1.874-1.218-3.142-5.172-3.142-1.045,0-2.208.094-3.1.094-.856,0-1.712-.017-2.568-.058-.153,0-.192.041-.192.266,0,.208.04.227.172.244.818.077,1.238.1,1.465.456.247.417.247.661.247,2.481v6.869a6.168,6.168,0,0,1-.247,2.519c-.247.415-.647.415-1.369.492-.132.022-.151.058-.151.247s.019.227.151.227c.8-.019,1.712-.038,2.529-.038.931,0,2.189.092,3.288.092,4.547,0,5.82-1.968,5.82-3.88C1357.686,388.4,1356.051,387.212,1353.083,386.928Zm-3.232-3.1a6.35,6.35,0,0,1,.209-2.423c.247-.4.741-.418,1.35-.418,1.921,0,3.024.927,3.024,2.649,0,1.631-.781,2.992-3.937,2.992-.247,0-.36,0-.647-.017Zm1.923,9.785c-.8,0-1.371-.055-1.655-.547a5.353,5.353,0,0,1-.268-2.369v-3.387c.477-.019.628-.019.875-.019,4.164,0,4.488,1.874,4.488,3.085C1355.214,391.83,1354.53,393.61,1351.775,393.61Zm23.545.1c-.78-.077-1.292-.1-1.482-.475-.211-.376-.19-.642-.19-2.536v-6.869a6.661,6.661,0,0,1,.209-2.463c.209-.379.647-.4,1.369-.475.113-.017.17-.036.17-.244,0-.226-.038-.266-.17-.266-.856.022-1.825.077-2.72.077-.836,0-1.843-.055-2.757-.077-.113,0-.151.041-.151.248,0,.227.038.263.134.263.8.077,1.273.1,1.482.475.19.417.19.642.19,2.463v6.869a6.834,6.834,0,0,1-.211,2.536c-.227.4-.647.4-1.367.475-.115.022-.135.058-.135.247s.041.227.154.227c.835-.019,1.825-.058,2.661-.058.876,0,1.865.039,2.8.058.151,0,.189-.038.189-.227S1375.454,393.727,1375.32,393.705Zm26.823-6.456a7.371,7.371,0,1,0-7.378,7.252A7.072,7.072,0,0,0,1402.143,387.249Zm-7.378,6.587c-2.834,0-4.717-2.591-4.717-6.587,0-3.919,1.923-6.533,4.717-6.533s4.735,2.575,4.735,6.591C1399.5,391.246,1397.6,393.837,1394.765,393.837Zm33.569-6.7c0-4.3-2.815-6.8-8.119-6.8-1.161,0-2.8.094-3.728.094-.914,0-1.731-.017-2.606-.058-.134,0-.151.041-.151.266s.036.244.151.244c.818.077,1.275.1,1.465.456.227.417.227.661.227,2.481v6.869a7.25,7.25,0,0,1-.191,2.519c-.189.324-.645.437-1.386.492-.134.022-.171.039-.171.247s.038.227.171.227c.8-.038,1.616-.058,2.508-.058,1.161,0,2.53.113,3.558.113C1425.328,394.235,1428.334,391.584,1428.334,387.137Zm-8.31,6.456c-.99,0-1.6-.172-1.9-.587-.268-.379-.307-.757-.307-2.311v-6.869c0-1.346-.017-1.933.247-2.312.249-.379.99-.511,2.093-.511,3.65,0,5.666,2.254,5.666,6.21C1425.822,391.263,1423.788,393.592,1420.024,393.592Zm26.151.36c0-.19-.038-.226-.172-.247-.78-.077-1.292-.1-1.482-.475-.211-.376-.19-.642-.19-2.536v-6.869a6.661,6.661,0,0,1,.209-2.463c.208-.379.647-.4,1.369-.475.113-.017.17-.036.17-.244,0-.226-.038-.266-.17-.266-.856.022-1.825.077-2.72.077-.836,0-1.844-.055-2.757-.077-.114,0-.151.041-.151.248,0,.227.038.263.134.263.8.077,1.273.1,1.482.475.19.417.19.642.19,2.463v6.869a6.834,6.834,0,0,1-.211,2.536c-.227.4-.647.4-1.367.475-.115.022-.135.058-.135.247s.041.227.154.227c.835-.019,1.825-.058,2.661-.058.876,0,1.865.039,2.8.058C1446.138,394.18,1446.175,394.142,1446.175,393.953Zm24.806-13.576c-.7.022-1.405.077-2.149.077s-1.558-.055-2.337-.077c-.173,0-.23.041-.23.285,0,.226.057.263.23.263.7.077,1.178.266,1.369.664a3.982,3.982,0,0,1-.324,2.273l-2,5.792c-.417,1.211-.59,1.858-.817,2.5-.19-.642-.381-1.213-.818-2.423l-2.112-5.887c-.437-1.211-.76-2.007-.607-2.423.152-.379.59-.418,1.273-.495.132,0,.19-.038.19-.263,0-.244-.058-.285-.19-.285-.835.041-1.9.077-2.719.077-.875,0-1.787-.036-2.681-.077-.132,0-.171.041-.171.285,0,.226.039.244.171.263.781.058.971.152,1.293.533a9.481,9.481,0,0,1,1.067,2.4l2.508,6.813c.571,1.534.932,2.538,1.311,3.73.041.077.06.113.134.113a5.761,5.761,0,0,0,1.465-.584c.323-.984.456-1.477,1.141-3.316l2.491-6.755a6.976,6.976,0,0,1,1.18-2.273,1.955,1.955,0,0,1,1.33-.664c.132,0,.173-.038.173-.282C1471.154,380.418,1471.113,380.377,1470.981,380.377Zm22.409,10.449c.017-.11.038-.186-.211-.263-.189-.055-.245,0-.3.132a7.661,7.661,0,0,1-1.52,1.932,4.715,4.715,0,0,1-3.273.912c-.837,0-1.518-.041-1.825-.551a5.493,5.493,0,0,1-.266-2.292v-3.426c.305-.019.743-.019,1.065-.019a5.085,5.085,0,0,1,2.377.456,2.5,2.5,0,0,1,.76,1.419c.039.132.075.19.285.19s.228-.058.228-.208c-.019-.681-.038-1.5-.038-2.2,0-.642.019-1.306.038-1.988,0-.132-.019-.191-.228-.191-.227,0-.264.06-.285.172a2.044,2.044,0,0,1-.741,1.288,4.715,4.715,0,0,1-2.4.417c-.323,0-.76,0-1.065-.019v-2.763a6.073,6.073,0,0,1,.192-2.292c.246-.437.836-.473,1.52-.473a4.164,4.164,0,0,1,2.853.681,4.925,4.925,0,0,1,1.293,1.949c.038.114.112.154.323.135.19-.039.228-.116.209-.229-.153-.982-.286-2.253-.36-3.219-1.654.058-3.33.077-4.887.077-1.616,0-3.367-.019-5.04-.077-.134,0-.17.041-.17.266,0,.208.036.227.17.244.8.077,1.2.1,1.389.456.209.417.227.661.227,2.481v6.869a6.5,6.5,0,0,1-.247,2.519c-.209.4-.532.415-1.256.492-.132.022-.17.058-.17.247s.038.227.17.227c1.693-.038,3.52-.058,5.192-.058,1.578,0,3.326.02,5,.058A23.512,23.512,0,0,0,1493.391,390.826Zm17.006,2.861c-.8-.077-1.216-.077-1.465-.492-.189-.362-.208-.625-.208-2.519v-3.047c.475.039.8.039,1.179.039a6.224,6.224,0,0,0,.626-.02c.954,1.7,1.808,3.294,2.74,5a10.2,10.2,0,0,1,.684,1.476c.666-.019,1.216-.019,1.75-.019.609,0,1.218.039,2.017.077.112,0,.151-.038.151-.246s-.04-.229-.151-.248a2.547,2.547,0,0,1-1.161-.284,4.516,4.516,0,0,1-1.122-1.421c-1.007-1.628-1.919-3.218-2.738-4.693,2.2-.569,3.177-1.971,3.177-3.39,0-1.988-1.429-3.54-5.193-3.54-1.2,0-2.415.077-3.137.077-.837,0-1.825-.017-2.721-.058-.132,0-.171.022-.171.248,0,.208.039.246.171.263.781.077,1.352.1,1.542.475.19.417.19.642.19,2.463v6.851a6.606,6.606,0,0,1-.23,2.519c-.189.4-.607.415-1.312.492-.151.019-.191.058-.191.266,0,.169.04.227.191.227.818-.038,1.787-.077,2.625-.077.875,0,1.844.039,2.72.077.168,0,.189-.058.189-.227C1510.55,393.744,1510.529,393.705,1510.4,393.686Zm-1.465-12.324c.268-.379.876-.36,1.371-.36,2.187,0,3.158,1.1,3.158,3.009,0,1.7-.933,3.049-3.5,3.049a9.389,9.389,0,0,1-1.235-.077v-3.158A6.5,6.5,0,0,1,1508.932,381.362Zm25.508,4.617-1.026-.489c-1.6-.777-2.112-1.573-2.112-2.423a2.234,2.234,0,0,1,2.283-2.386c1.52,0,2.7,1.247,3.441,2.992.039.094.075.152.285.113.191-.038.191-.1.191-.19-.076-1-.209-2.234-.209-3.2a4.953,4.953,0,0,1-1.882-.058,7.237,7.237,0,0,0-1.921-.266c-2.548,0-4.26,1.477-4.26,3.409s.76,2.876,3.024,4.014l.949.49c1.923.984,2.779,1.725,2.779,3.163a2.636,2.636,0,0,1-2.76,2.726c-1.654,0-3.136-1.5-3.992-3.407-.038-.1-.113-.15-.323-.114-.228.038-.228.172-.209.3a28.04,28.04,0,0,0,.664,3.16,11,11,0,0,0,3.651.664c3.2,0,5.077-1.532,5.077-4.09C1538.09,388.139,1537.14,387.288,1534.44,385.979Zm21.382,7.726c-.78-.077-1.293-.1-1.482-.475-.209-.376-.19-.642-.19-2.536v-6.869a6.692,6.692,0,0,1,.209-2.463c.211-.379.646-.4,1.369-.475.113-.017.17-.036.17-.244,0-.226-.038-.266-.17-.266-.856.022-1.825.077-2.721.077-.835,0-1.844-.055-2.757-.077-.113,0-.151.041-.151.248,0,.227.038.263.132.263.8.077,1.274.1,1.484.475.19.417.19.642.19,2.463v6.869a6.886,6.886,0,0,1-.209,2.536c-.228.4-.647.4-1.369.475-.115.022-.134.058-.134.247s.038.227.153.227c.835-.019,1.825-.058,2.661-.058.875,0,1.865.039,2.8.058.149,0,.19-.038.19-.227S1555.954,393.727,1555.822,393.705Zm18.267-13.252c-2.074,0-4.09-.019-6.256-.077-.077.967-.209,2.311-.362,3.277,0,.113,0,.171.209.208.228.036.266-.019.305-.114a5.877,5.877,0,0,1,1.367-2.027,3.616,3.616,0,0,1,2.263-.661c.475,0,.9,0,1.086.341.189.378.209.68.209,2.423v6.869a7.137,7.137,0,0,1-.173,2.519c-.208.379-.647.4-1.312.473-.132.019-.17.058-.17.266,0,.19.038.227.17.227.741-.038,1.75-.058,2.625-.058.856,0,1.921.02,2.74.058.151,0,.19-.038.19-.246,0-.19-.04-.229-.173-.248-.722-.077-1.273-.094-1.462-.473-.19-.417-.173-.625-.173-2.519v-6.869a5.5,5.5,0,0,1,.249-2.386c.264-.417.647-.379,1.12-.379a3.607,3.607,0,0,1,2.321.661,5.25,5.25,0,0,1,1.331,2.027c.038.1.075.15.324.114.208-.038.208-.1.208-.208-.132-.967-.266-2.311-.342-3.277C1578.195,380.435,1576.1,380.454,1574.088,380.454Zm29.46-.077c-.74.041-1.328.077-2.091.077s-1.6-.036-2.318-.077c-.19,0-.209.041-.209.266,0,.208.036.227.168.244.629.077,1.1.208,1.237.587.152.417.039.738-.381,1.534l-1.578,2.97a8,8,0,0,1-.549.895c-.209-.381-.324-.57-.573-.985l-1.71-3.03c-.381-.681-.7-1.062-.59-1.5.075-.36.475-.4,1.18-.475.094-.017.134-.055.134-.263s-.039-.248-.153-.248c-.856.041-1.808.077-2.681.077s-1.75-.036-2.645-.077c-.132,0-.168.041-.168.266,0,.208.036.227.168.244a1.567,1.567,0,0,1,1.237.493,12.831,12.831,0,0,1,1.426,2.157l1.808,3.069c.285.473.494.8.779,1.269,0,.246.021.548.021.815v2a7.846,7.846,0,0,1-.192,2.519c-.189.4-.628.415-1.369.492-.132.022-.17.058-.17.247s.02.227.189.227c.856-.019,1.788-.058,2.643-.058.876,0,1.846.039,2.815.058.132,0,.152-.038.152-.227s-.02-.226-.152-.247c-.836-.077-1.312-.077-1.522-.492-.19-.359-.17-.625-.17-2.519v-1.985c0-.285.018-1.023.018-1.289.209-.34.381-.587.629-1.021l1.767-2.975a6.691,6.691,0,0,1,1.5-1.949,2.658,2.658,0,0,1,1.331-.587c.151-.017.19-.036.19-.263C1603.722,380.418,1603.7,380.377,1603.548,380.377ZM1404.454,410.71c-1.216,0-2.4.077-3.117.077-.9,0-1.978-.02-2.834-.058-.134,0-.173.038-.173.244,0,.23.039.249.173.266.741.077,1.312.1,1.521.475.189.417.189.642.189,2.459v6.854a7.221,7.221,0,0,1-.209,2.519c-.228.415-.609.434-1.331.492-.113,0-.17.038-.17.244,0,.227.038.249.153.249.8-.041,1.843-.058,2.719-.058s1.88.017,2.776.058c.151,0,.172-.058.172-.249s-.021-.226-.153-.244c-.818-.077-1.331-.094-1.541-.492-.19-.34-.17-.625-.17-2.519v-2.784a11.617,11.617,0,0,0,1.405.077c4.68,0,5.934-1.872,5.934-3.957C1409.8,412.208,1408.448,410.71,1404.454,410.71Zm-.779,6.949a6.082,6.082,0,0,1-1.216-.116v-3.37a5.86,5.86,0,0,1,.245-2.423c.249-.357.933-.4,1.369-.4,2.072,0,3.29,1.061,3.29,3.1C1407.364,416.24,1406.413,417.659,1403.676,417.659Zm30.982,6.379a2.549,2.549,0,0,1-1.159-.284,4.6,4.6,0,0,1-1.12-1.421c-1.007-1.628-1.921-3.218-2.74-4.693,2.206-.569,3.177-1.971,3.177-3.39,0-1.988-1.427-3.54-5.191-3.54-1.2,0-2.415.077-3.137.077-.837,0-1.827-.02-2.72-.058-.132,0-.17.019-.17.244,0,.208.038.249.17.266.779.077,1.348.1,1.542.475.189.417.189.642.189,2.459v6.854a6.653,6.653,0,0,1-.228,2.519c-.19.4-.609.415-1.312.492-.151.019-.19.055-.19.263,0,.172.039.23.19.23.818-.041,1.787-.077,2.625-.077.876,0,1.844.036,2.72.077.17,0,.189-.058.189-.23,0-.208-.019-.244-.153-.263-.8-.077-1.216-.077-1.463-.492-.191-.362-.208-.625-.208-2.519V417.98c.472.036.8.036,1.177.036.209,0,.437,0,.628-.017.95,1.7,1.8,3.294,2.736,5a10.36,10.36,0,0,1,.688,1.479c.666-.019,1.217-.019,1.747-.019.611,0,1.218.036,2.016.077.117,0,.154-.041.154-.249S1434.774,424.057,1434.657,424.038Zm-7.756-6.627a9.364,9.364,0,0,1-1.235-.077v-3.161a6.441,6.441,0,0,1,.208-2.459c.264-.379.873-.36,1.369-.36,2.186,0,3.155,1.1,3.155,3.009C1430.4,416.068,1429.47,417.412,1426.9,417.412Zm26.153-6.985a7.215,7.215,0,1,0,7.378,7.175A7.037,7.037,0,0,0,1453.055,410.427Zm0,13.762c-2.834,0-4.716-2.594-4.716-6.587,0-3.919,1.919-6.533,4.716-6.533s4.735,2.575,4.735,6.59C1457.789,421.595,1455.888,424.189,1453.055,424.189Zm25.127-13.46c-.839.019-1.885.058-2.721.058-.856,0-1.865-.039-2.719-.058-.132,0-.173.038-.173.244s.041.23.173.249c.76.075,1.216.113,1.425.492.209.395.209.624.209,2.459v8.292a22.347,22.347,0,0,1-.228,4.183c-.134.478-.3.664-.552.664-.474,0-.628-.379-1.12-.379a1.659,1.659,0,0,0-1.333,1.573c0,.434.286.566.876.566.949,0,2.093-1,2.965-2.08a6.846,6.846,0,0,0,1.6-4.3c0-1.913-.019-2.69-.019-4.281v-4.241a6.048,6.048,0,0,1,.247-2.459c.208-.4.607-.417,1.371-.492.112-.019.132-.041.132-.249S1478.293,410.729,1478.182,410.729Zm23.188,10.186c-.189-.058-.246,0-.305.132a7.662,7.662,0,0,1-1.519,1.932,4.715,4.715,0,0,1-3.271.909c-.839,0-1.522-.038-1.827-.548a5.465,5.465,0,0,1-.266-2.292V417.62c.305-.019.741-.019,1.065-.019a5.05,5.05,0,0,1,2.378.456,2.486,2.486,0,0,1,.758,1.419c.039.132.077.186.286.186s.23-.055.23-.208c-.021-.678-.039-1.5-.039-2.193,0-.645.019-1.306.039-1.988,0-.132-.021-.191-.23-.191-.228,0-.266.06-.286.172a2.02,2.02,0,0,1-.74,1.285,4.714,4.714,0,0,1-2.4.417c-.324,0-.76,0-1.065-.019v-2.763a6.1,6.1,0,0,1,.19-2.292c.247-.434.837-.47,1.521-.47a4.19,4.19,0,0,1,2.853.678,4.945,4.945,0,0,1,1.292,1.952c.039.114.113.15.324.132.19-.036.228-.113.209-.226-.154-.985-.287-2.256-.362-3.219-1.654.058-3.328.077-4.887.077-1.616,0-3.366-.019-5.04-.077-.132,0-.17.038-.17.266,0,.208.038.227.17.244.8.077,1.2.1,1.389.453.209.417.227.664.227,2.481v6.873a6.545,6.545,0,0,1-.245,2.519c-.209.4-.533.415-1.256.492-.134.019-.17.058-.17.244s.036.23.17.23c1.691-.041,3.518-.058,5.191-.058,1.578,0,3.328.017,5,.058a23.479,23.479,0,0,0,.99-3.354C1501.6,421.068,1501.617,420.991,1501.37,420.915Zm23.91.171a5.141,5.141,0,0,1-4.676,2.632c-2.834,0-4.983-2.649-4.983-6.135,0-3.938,2.13-6.514,4.887-6.514a3.8,3.8,0,0,1,2.434.89,7.716,7.716,0,0,1,1.712,2.365c.075.154.113.19.3.154.151-.038.209-.114.19-.263-.115-.985-.249-2.292-.324-3.277a5.036,5.036,0,0,1-2.129-.208,9.984,9.984,0,0,0-2.415-.3,7.2,7.2,0,1,0-.075,14.408,6,6,0,0,0,5.591-3.426.22.22,0,0,0-.134-.34C1525.414,420.952,1525.337,420.991,1525.28,421.085Zm18.09-10.28c-2.072,0-4.088-.019-6.254-.077-.077.963-.209,2.311-.362,3.277,0,.11,0,.168.211.208.228.036.264-.022.3-.116a5.863,5.863,0,0,1,1.37-2.026,3.612,3.612,0,0,1,2.263-.661c.475,0,.892,0,1.083.338.191.381.211.683.211,2.423v6.873a7.148,7.148,0,0,1-.171,2.519c-.209.379-.647.4-1.314.473-.132.019-.17.055-.17.263,0,.19.038.23.17.23.744-.041,1.751-.058,2.626-.058.856,0,1.921.017,2.738.058.151,0,.19-.041.19-.249,0-.19-.039-.226-.171-.244-.724-.077-1.275-.094-1.464-.473-.192-.417-.171-.625-.171-2.519v-6.873a5.478,5.478,0,0,1,.247-2.383c.266-.417.645-.379,1.122-.379a3.605,3.605,0,0,1,2.319.661,5.233,5.233,0,0,1,1.331,2.026c.039.094.077.152.323.116.209-.041.209-.1.209-.208-.134-.967-.266-2.314-.343-3.277C1547.481,410.787,1545.386,410.806,1543.371,410.806Z" transform="translate(-1330.597 -245.208)" fill="#fff"/>
      </g>
    </g>
    <g id="グループ_1681" data-name="グループ 1681" transform="translate(1333.299 218.464)">
      <path id="パス_2508" data-name="パス 2508" d="M1338.672,234.889c-.3-.057-.433-.3-.529-.906a3.588,3.588,0,0,0-.565-1.7c-.055-.076-.019-.153.077-.132,1.49.453,2.187,1.037,2.187,1.811a.933.933,0,0,1-.774.925h2.983a12.278,12.278,0,0,0,.527-1.586,10.653,10.653,0,0,0,.245-1.188c1.643.51,2.057.7,2.057.982,0,.225-.206.338-.7.395a12.671,12.671,0,0,1-1.528,1.4h3.661c1.02-1.19,1.246-1.339,1.378-1.339.17,0,.376.15,1.358.925.453.376.6.527.6.659s-.057.189-.247.189h-15a15.608,15.608,0,0,0-1.735.113l-.208-.7a13.289,13.289,0,0,0,1.982.151Zm7.793-7.529c.851-1.02,1.076-1.171,1.208-1.171.17,0,.378.151,1.227.812.376.321.529.47.529.6s-.056.189-.245.189h-14.909a9.641,9.641,0,0,0-1.378.115l-.206-.7a8.179,8.179,0,0,0,1.547.151Zm-8.3-6.982a13.182,13.182,0,0,0-.076-1.775c1.982.189,2.151.376,2.151.566,0,.168-.168.338-.51.508v.965h2.208v-.264a16.833,16.833,0,0,0-.075-1.775c1.983.189,2.153.376,2.153.566,0,.168-.17.338-.511.508v.965h2.115c.642-.738.793-.851.944-.851.189,0,.359.113,1.039.659.319.264.433.4.433.549,0,.17-.094.283-.51.548v.7c0,1.81.077,3.056.077,3.471,0,.472-.36.7-1.057.7-.453,0-.68-.17-.7-.491h-9.815c0,.491-.3.68-.982.68-.529,0-.754-.151-.754-.6,0-.568.056-1.134.056-3.436,0-.961-.019-1.923-.1-2.887a12.177,12.177,0,0,1,1.927.965h1.981Zm-1.208,11.68v.038c0,.529-.3.7-1.057.7-.546,0-.7-.112-.7-.64,0-.376.039-.755.039-2.266,0-.546-.019-1.094-.058-1.64a9.744,9.744,0,0,1,1.983.9h7.661c.6-.623.757-.735.906-.735.189,0,.338.112.963.64.281.264.4.4.4.548,0,.17-.057.225-.434.489v.321c0,.812.038,1.378.038,1.548,0,.529-.283.7-1.057.7-.51,0-.68-.151-.68-.565v-.038Zm-.925-10.983v1.905h2.134v-1.905Zm2.134,2.34h-2.134v2.077h2.134Zm6.793,6.17h-8v2.039h8Zm-5.227-8.509v1.905h2.208v-1.905Zm2.208,4.417v-2.077h-2.208v2.077Zm1.566-2.511h2.343v-1.905H1343.5Zm2.343,2.511v-2.077H1343.5v2.077Z" transform="translate(-1332.228 -218.364)" fill="#fff"/>
      <path id="パス_2509" data-name="パス 2509" d="M1332.53,235.591l-.206-.7a.236.236,0,0,1,.051-.222h0a.224.224,0,0,1,.208-.079h0a13.312,13.312,0,0,0,1.953.149h3.625a2.226,2.226,0,0,1-.162-.634h0a3.364,3.364,0,0,0-.521-1.591h0a.378.378,0,0,1-.066-.135h-.146a.77.77,0,0,1-.343.549h0a1.731,1.731,0,0,1-.936.187h0a1.047,1.047,0,0,1-.713-.181h0a.871.871,0,0,1-.222-.7h0c0-.393.04-.757.04-2.264h0c0-.54-.021-1.083-.058-1.627h0a.229.229,0,0,1,.094-.2h0a.189.189,0,0,1,.049-.027h-.812a9.27,9.27,0,0,0-1.348.11h0a.238.238,0,0,1-.258-.167h0l-.208-.7a.242.242,0,0,1,.052-.222h0a.235.235,0,0,1,.22-.076h0a7.982,7.982,0,0,0,1.5.148h12.119c.162-.19.3-.351.419-.483h0c-.076.006-.153.011-.233.013h0a.865.865,0,0,1-.892-.492h-9.414c-.117.467-.589.677-1.188.677h0a1.149,1.149,0,0,1-.719-.178h0a.786.786,0,0,1-.272-.658h0c0-.585.057-1.134.057-3.436h0c0-.958-.017-1.918-.1-2.868h0a.244.244,0,0,1,.1-.212h0a.237.237,0,0,1,.231-.022h0a12.089,12.089,0,0,1,1.9.941h1.681v-.025a13.775,13.775,0,0,0-.069-1.747h0a.22.22,0,0,1,.062-.194h0a.242.242,0,0,1,.193-.072h0c1.945.2,2.279.315,2.364.8h0c-.014.3-.222.486-.511.651h0v.585h1.737v-.025a17.351,17.351,0,0,0-.072-1.754h0a.224.224,0,0,1,.066-.189h0a.237.237,0,0,1,.189-.069h0c1.949.2,2.278.315,2.365.8h0c-.014.3-.222.486-.51.651h0v.585h1.776c.582-.655.732-.821,1.048-.847h0c.321.013.507.171,1.188.713h0c.313.264.507.428.519.729h0c0,.275-.178.456-.51.675h0v.571c0,1.808.074,3.038.074,3.473h0a.925.925,0,0,1-.033.253h0c.269.065.5.277,1.254.848h0c.365.337.576.455.61.784h0a.408.408,0,0,1-.14.329h0a.538.538,0,0,1-.34.1h-13.9a9.855,9.855,0,0,1,1.942.884h7.5c.548-.552.7-.713,1.007-.735h0c.324.013.494.179,1.122.707h0c.275.264.458.422.47.719h0c.006.247-.145.414-.431.614h0v.2c0,.807.036,1.358.036,1.548h0a.816.816,0,0,1-.348.743h0a1.733,1.733,0,0,1-.944.192h0a1.041,1.041,0,0,1-.685-.184h0a.661.661,0,0,1-.217-.422h-.614c.672.236.928.4,1,.806h0c-.016.408-.378.565-.824.617h0c-.378.39-.661.667-.976.938h2.889c.979-1.109,1.142-1.293,1.489-1.341h0c.341.031.51.209,1.507.977h0c.444.393.653.508.689.845h0a.405.405,0,0,1-.138.326h0a.523.523,0,0,1-.343.1h-15a15.679,15.679,0,0,0-1.713.11h0l-.021,0h0a.24.24,0,0,1-.231-.167Zm.4-.326c.329-.033.618-.057.892-.074h0c-.291-.016-.6-.042-.939-.087h0l.047.16Zm16.534-.093-.027-.03h0a5.456,5.456,0,0,0-.445-.4h0c-.971-.782-1.194-.891-1.208-.875h0c0,.022-.014-.009-.2.162h0a14.34,14.34,0,0,0-1,1.1h0l-.094.043Zm-6.851,0a.252.252,0,0,1-.094-.121h0a.24.24,0,0,1,.079-.263h0a12.256,12.256,0,0,0,1.5-1.377h0l.142-.068c.5-.068.491-.145.491-.159h0s.02-.05-.277-.2h0a11.742,11.742,0,0,0-1.355-.483h0c-.052.3-.118.617-.206.939h0a12.68,12.68,0,0,1-.54,1.619h0a.234.234,0,0,1-.088.107h.345Zm-3.586,0a.232.232,0,0,1-.069-.071h0a.25.25,0,0,1-.069.071h.138Zm-.266-.2.041-.231a.236.236,0,0,1,.156.1h0a.244.244,0,0,1,.149-.1h0a.7.7,0,0,0,.589-.694h0c.009-.54-.446-1.032-1.621-1.455h0a4.506,4.506,0,0,1,.389,1.437h0c.107.606.192.686.338.713h0l-.041.231v0Zm3.218-.236a11.149,11.149,0,0,0,.456-1.411h0a8.981,8.981,0,0,0,.208-.949h-3.85c.884.414,1.367.952,1.375,1.671h0a1.144,1.144,0,0,1-.222.689h2.033Zm-6.417-4.766c0,1.514-.039,1.9-.039,2.264h0c.068.477-.068.335.464.406h0c.757-.049.788-.074.821-.461h0v-.039a.226.226,0,0,1,.069-.167h0a.193.193,0,0,1,.074-.049h0a.2.2,0,0,1-.074-.053h0a.222.222,0,0,1-.069-.165h0v-2.038a.225.225,0,0,1,.069-.165h0a.217.217,0,0,1,.165-.069h.08a9.012,9.012,0,0,0-1.6-.76h0c.024.433.036.864.036,1.3Zm9.65,2a.246.246,0,0,1,.069.167h0v.039c.052.332-.038.272.444.329h0c.776-.049.782-.066.82-.461h0c0-.151-.038-.735-.038-1.548h0v-.321l.1-.194c.4-.3.323-.233.334-.3h0c.006-.011-.031-.112-.313-.368h0c-.628-.54-.761-.6-.809-.584h0s-.135.03-.738.661h0l-.083.036h.047v0a.226.226,0,0,1,.167.069h0a.245.245,0,0,1,.069.165h0v2.038a.245.245,0,0,1-.069.165h0a.248.248,0,0,1-.076.053h0a.218.218,0,0,1,.076.049Zm-8.17.4v0Zm.238-.9h7.529v-1.567h-7.529v1.567Zm-4.125-3.742c.231-.031.442-.055.642-.069h0c-.214-.014-.437-.039-.686-.076h0l.044.145Zm16.084-.091-.02-.024h0a4.614,4.614,0,0,0-.375-.346h0a4.69,4.69,0,0,0-1.081-.763h0c0,.02-.014-.009-.176.142h0a11.38,11.38,0,0,0-.853.946h0l-.1.046Zm-2.686-.2v0Zm-11.88-4.793c0,2.305-.057,2.883-.057,3.436h0c.044.345.014.313.521.365h0c.664-.043.716-.094.746-.444h0a.232.232,0,0,1,.069-.167h0a.244.244,0,0,1,.074-.05h0a.232.232,0,0,1-.074-.049h0a.231.231,0,0,1-.069-.165h0V223.5a.226.226,0,0,1,.069-.165h0a.182.182,0,0,1,.074-.05h0a.232.232,0,0,1-.074-.052h0a.226.226,0,0,1-.069-.165h0V221.16a.238.238,0,0,1,.069-.168h0a.241.241,0,0,1,.165-.066h.022a10.85,10.85,0,0,0-1.534-.793h0c.055.843.068,1.682.068,2.519ZM1346.165,226c.03.187.052.241.464.269h0c.673-.028.807-.159.821-.461h0c0-.4-.079-1.658-.079-3.473h0v-.7l.11-.2c.423-.279.4-.313.4-.351h0c.006-.006-.024-.1-.344-.362h0c-.681-.557-.836-.622-.889-.609h0s-.127.02-.769.768h0l-.09.044h.143a.236.236,0,0,1,.164.066h0a.238.238,0,0,1,.069.168h0v1.907a.231.231,0,0,1-.069.165h0a.192.192,0,0,1-.072.052h0a.188.188,0,0,1,.072.05h0a.231.231,0,0,1,.069.165h0v2.079a.219.219,0,0,1-.069.162h0a.2.2,0,0,1-.072.052h0a.236.236,0,0,1,.141.2Zm-2.706-.22a.332.332,0,0,1-.038-.031h0a.244.244,0,0,1-.069-.165h0V223.5a.238.238,0,0,1,.069-.165h0a.2.2,0,0,1,.075-.05h0a.238.238,0,0,1-.075-.052h0a.238.238,0,0,1-.069-.165h0V221.16a.251.251,0,0,1,.069-.168h0a.3.3,0,0,1,.074-.049h0a.25.25,0,0,1-.074-.049h0a.241.241,0,0,1-.069-.165h0v-.966l.132-.212c.272-.129.357-.242.375-.282h0a.718.718,0,0,0-.165-.074h0a8.273,8.273,0,0,0-1.485-.242h0c.038.485.05.922.05,1.512h0v.264a.216.216,0,0,1-.069.162h0a.245.245,0,0,1-.073.052h0a.36.36,0,0,1,.073.049h0a.238.238,0,0,1,.069.168h0v1.907a.231.231,0,0,1-.069.165h0a.219.219,0,0,1-.073.052h0a.214.214,0,0,1,.073.05h0a.231.231,0,0,1,.069.165h0v2.079a.219.219,0,0,1-.069.162h0a.263.263,0,0,1-.039.035h1.309Zm-3.773,0a.189.189,0,0,1-.038-.031h0a.23.23,0,0,1-.067-.165h0V223.5a.225.225,0,0,1,.067-.165h0a.2.2,0,0,1,.074-.05h0a.238.238,0,0,1-.074-.052h0a.225.225,0,0,1-.067-.165h0V221.16a.237.237,0,0,1,.067-.168h0a.284.284,0,0,1,.074-.049h0a.256.256,0,0,1-.074-.049h0a.228.228,0,0,1-.067-.165h0v-.966l.131-.212a.788.788,0,0,0,.375-.282h0a.715.715,0,0,0-.167-.074h0a8.14,8.14,0,0,0-1.479-.242h0c.044.491.044.924.044,1.512h0v.264a.211.211,0,0,1-.069.162h0a.188.188,0,0,1-.073.052h0a.247.247,0,0,1,.073.049h0a.232.232,0,0,1,.069.168h0v1.907a.225.225,0,0,1-.069.165h0a.182.182,0,0,1-.073.052h0a.178.178,0,0,1,.073.05h0a.225.225,0,0,1,.069.165h0v2.079a.213.213,0,0,1-.069.162h0a.162.162,0,0,1-.038.035h1.309Zm6.247-.2v0Zm-3.909,0v0Zm1.8-.241h1.869v-1.6h-1.869v1.6Zm-3.775,0h1.737v-1.6h-1.737v1.6Zm-3.7,0h1.66v-1.6h-1.66v1.6Zm1.9-1.838v0Zm1.8-.67h1.737v-1.435h-1.737v1.435Zm-3.7,0h1.66v-1.435h-1.66v1.435Zm7.473,0,1.869,0v-1.432h-1.869v1.435Zm-4.009-1.435v0Zm-3.7,0v0Z" transform="translate(-1332.314 -218.451)" fill="#fff"/>
    </g>
    <g id="グループ_1682" data-name="グループ 1682" transform="translate(1372.193 219.464)">
      <path id="パス_2510" data-name="パス 2510" d="M1364.9,223.523c1.226,0,2.151,1.377,2.151,3.282a12.628,12.628,0,0,1-.7,4.285,6.178,6.178,0,0,1-1.113,2.019c-.661.7-1.208,1.134-1.851,1.134-.566,0-.944-.247-.925-.851a1.51,1.51,0,0,0-.378-1,11.485,11.485,0,0,0-.812-1.02c-.094-.113-.132-.17-.132-.225a.139.139,0,0,1,.151-.153.421.421,0,0,1,.246.113,8.086,8.086,0,0,0,1.284.736,1.993,1.993,0,0,0,.718.208.816.816,0,0,0,.716-.34,6.7,6.7,0,0,0,.983-2.151,11.648,11.648,0,0,0,.451-3c0-1.775-.264-2.3-1.112-2.3a5.277,5.277,0,0,0-.982.15c-.85,1.794-1.869,4.02-2.662,5.625-.7,1.433-1.379,2.7-1.866,3.509a.913.913,0,0,1-.833.417.767.767,0,0,1-.718-.757,1.746,1.746,0,0,1,.36-1.018,60.724,60.724,0,0,0,4.17-7.285c-.737.283-1.454.566-2.057.829a4.117,4.117,0,0,0-.548.264.743.743,0,0,1-.491.171,1.624,1.624,0,0,1-1.056-.51,2.163,2.163,0,0,1-.717-1.284c0-.4.113-.68.283-.68.151,0,.17.1.244.209a1.437,1.437,0,0,0,.965.659,7.823,7.823,0,0,0,1.622-.225c.7-.132,1.413-.34,2.189-.529a10.843,10.843,0,0,0,.887-3.02.564.564,0,0,0-.285-.548,4.681,4.681,0,0,0-.735-.321c-.151-.057-.283-.076-.283-.189,0-.172.132-.283.321-.34a3.019,3.019,0,0,1,.924-.151,3.083,3.083,0,0,1,1.983,1.076.726.726,0,0,1-.265,1.133,1.372,1.372,0,0,0-.4.585c-.17.4-.434.925-.716,1.545A6.428,6.428,0,0,1,1364.9,223.523Zm4.585,5.4c-.206.017-.434.038-.566.038-.168,0-.206-.057-.206-.132s0-.093.17-.17c1.66-.661,2.283-1.02,2.283-1.322a3.106,3.106,0,0,0-.566-1.547,4.592,4.592,0,0,0-2.17-1.924c-.189-.076-.34-.153-.34-.264,0-.132.094-.189.283-.189.036,0,.075.017.132.017a5.818,5.818,0,0,1,3.057,1.569,4.436,4.436,0,0,1,1.585,3.49c0,.755-.472,1.02-.792,1.037a.886.886,0,0,1-.774-.3.847.847,0,0,0-.642-.338C1370.281,228.882,1369.866,228.9,1369.488,228.92Z" transform="translate(-1356.946 -219)" fill="#fff"/>
      <path id="パス_2511" data-name="パス 2511" d="M1362.317,233.521s-.009-.038,0-.041h0c0-.011,0-.036,0-.069h0a1.365,1.365,0,0,0-.333-.8h0a12.2,12.2,0,0,0-.8-1h0a.579.579,0,0,1-.184-.373h0a.417.417,0,0,1,.387-.39h0a.618.618,0,0,1,.373.153h0a8.107,8.107,0,0,0,1.254.719h0a1.79,1.79,0,0,0,.62.187h0a.574.574,0,0,0,.527-.25h0a6.467,6.467,0,0,0,.944-2.075h0a11.5,11.5,0,0,0,.442-2.931h0c-.041-1.808-.209-2.05-.876-2.066h0a5.587,5.587,0,0,0-.817.116h0c-.84,1.773-1.836,3.946-2.615,5.526h0c-.7,1.438-1.383,2.708-1.876,3.526h0a1.139,1.139,0,0,1-1.034.53h0a1,1,0,0,1-.954-.99h0a1.953,1.953,0,0,1,.4-1.147h0a61.086,61.086,0,0,0,3.893-6.719h0c-.533.208-1.042.414-1.482.606h0c-.252.115-.472.208-.48.217h0a.948.948,0,0,1-.655.239h0a1.841,1.841,0,0,1-1.216-.568h0a2.36,2.36,0,0,1-.8-1.46h0c.023-.412.052-.839.521-.913h0a.468.468,0,0,1,.431.3h0a1.241,1.241,0,0,0,.777.566h0a8.007,8.007,0,0,0,1.581-.219h0c.647-.126,1.32-.316,2.053-.5h0a10.357,10.357,0,0,0,.828-2.82h0c-.01-.194-.022-.249-.172-.345h0a4.118,4.118,0,0,0-.7-.3h0c-.082-.054-.381-.038-.433-.412h0a.607.607,0,0,1,.481-.563h0a3.333,3.333,0,0,1,1-.164h0a3.3,3.3,0,0,1,2.167,1.166h0a.981.981,0,0,1,.22.677h0a.973.973,0,0,1-.544.8h0a1.235,1.235,0,0,0-.3.474h0c-.138.326-.33.719-.544,1.177h0c.235-.011.463-.011.593-.011h0v.472a5.879,5.879,0,0,0-.939.054h0a.247.247,0,0,1-.228-.09h0a.23.23,0,0,1-.03-.242h0c.285-.628.551-1.158.714-1.542h0a1.581,1.581,0,0,1,.49-.7h0c.225-.137.324-.264.321-.4h0a.494.494,0,0,0-.115-.379h0a2.872,2.872,0,0,0-1.8-.991h0a2.789,2.789,0,0,0-.856.142h0a.4.4,0,0,0-.11.052h0l.086.03h0a5.026,5.026,0,0,1,.774.337h0a.821.821,0,0,1,.4.752h0a10.934,10.934,0,0,1-.906,3.1h0l-.164.145c-.766.186-1.487.4-2.2.53h0a8.088,8.088,0,0,1-1.671.231h0a1.654,1.654,0,0,1-1.161-.766h0l-.036-.058h0a1.183,1.183,0,0,0-.06.4h0a1.98,1.98,0,0,0,.64,1.106h0a1.394,1.394,0,0,0,.9.448h0a.53.53,0,0,0,.34-.116h0a3.388,3.388,0,0,1,.6-.294h0c.61-.267,1.328-.552,2.067-.834h0a.234.234,0,0,1,.258.058h0a.232.232,0,0,1,.039.261h0a60.461,60.461,0,0,1-4.188,7.312h0a1.556,1.556,0,0,0-.318.891h0a.547.547,0,0,0,.481.518h0a.671.671,0,0,0,.628-.3h0c.481-.8,1.163-2.063,1.858-3.493h0c.79-1.6,1.808-3.822,2.661-5.62h0l.151-.124a5.406,5.406,0,0,1,1.043-.162h0c1.026,0,1.347.8,1.347,2.54h0a11.737,11.737,0,0,1-.463,3.073h0a6.856,6.856,0,0,1-1.023,2.226h0a1.046,1.046,0,0,1-.9.428h0a2.2,2.2,0,0,1-.817-.228h0a8.047,8.047,0,0,1-1.04-.571h0c.223.264.436.537.6.773h0a1.812,1.812,0,0,1,.416,1.064h0a.9.9,0,0,1-.01.11h0s0,0,0,.008h0c.028.434.2.53.7.562h0c.521.006,1.023-.363,1.674-1.056h0a5.931,5.931,0,0,0,1.063-1.939h0a12.351,12.351,0,0,0,.686-4.2h0c0-1.847-.9-3.043-1.915-3.046h0v-.472c1.429.019,2.382,1.555,2.385,3.518h0a12.872,12.872,0,0,1-.711,4.36h0a6.323,6.323,0,0,1-1.163,2.1h0a2.933,2.933,0,0,1-2.021,1.208h0a1.048,1.048,0,0,1-1.164-1.042ZM1357.529,224Zm13.973,5.477c-.2-.194-.264-.266-.474-.269h0c-.648,0-1.054.019-1.43.035h0c-.209.02-.437.041-.588.041h0a.483.483,0,0,1-.312-.087h0a.358.358,0,0,1-.134-.282h0c-.042-.109.158-.376.321-.39h0a14.309,14.309,0,0,0,1.732-.78h0c.359-.194.408-.312.4-.321h0a2.884,2.884,0,0,0-.53-1.418h0a4.351,4.351,0,0,0-2.061-1.836h0c-.173-.091-.434-.127-.483-.482h0c0-.293.307-.426.518-.426h0c.118.009.128.022.162.022h0a6.038,6.038,0,0,1,3.189,1.63h0a4.674,4.674,0,0,1,1.655,3.66h0a1.146,1.146,0,0,1-1.013,1.273h0c-.039,0-.072,0-.1,0h-.011a1.11,1.11,0,0,1-.842-.373Zm.341-.326a.621.621,0,0,0,.511.227h.075c.211-.028.559-.157.571-.8h0a4.206,4.206,0,0,0-1.515-3.322h0a5.668,5.668,0,0,0-2.8-1.485h0a4.832,4.832,0,0,1,2.2,1.981h0a3.332,3.332,0,0,1,.6,1.676h0c-.091.559-.658.793-1.992,1.355h0c.017,0,.035,0,.052,0h0l.024.238-.013-.238c.379-.019.8-.038,1.467-.038h.014a1.079,1.079,0,0,1,.8.415Z" transform="translate(-1357.033 -219.087)" fill="#fff"/>
    </g>
    <g id="グループ_1683" data-name="グループ 1683" transform="translate(1410.728 219.2)">
      <path id="パス_2512" data-name="パス 2512" d="M1390.791,222.486c0,.436-.227.68-.793.887-.6.208-1.6.433-2.793.717-1.056,2.472-2.132,4.906-3.037,6.812a3.6,3.6,0,0,1-.757,1.19.984.984,0,0,1-.49.15.741.741,0,0,1-.585-.245.756.756,0,0,1-.264-.6,3.2,3.2,0,0,1,.623-1.246,39.805,39.805,0,0,0,3.114-5.735c-.451.055-1.284.168-1.718.168a2.355,2.355,0,0,1-1.226-.245,2.488,2.488,0,0,1-1.113-1.207.761.761,0,0,1-.077-.321c0-.094.094-.113.132-.113.058,0,.094.019.209.113a2.135,2.135,0,0,0,.848.452,3.7,3.7,0,0,0,.924.1,14,14,0,0,0,2.549-.359,7.2,7.2,0,0,0,.623-2.378c0-.453-.132-.568-1.135-.944-.093-.038-.149-.093-.149-.17a.338.338,0,0,1,.189-.245,1.647,1.647,0,0,1,.831-.189,3.982,3.982,0,0,1,1.887.625.715.715,0,0,1,.415.7.579.579,0,0,1-.245.491c-.264.208-.452.529-.944,1.736a4.811,4.811,0,0,0,1.245-.566,1.63,1.63,0,0,1,.793-.244C1390.453,221.846,1390.791,222.222,1390.791,222.486Zm.546,2.283a6.52,6.52,0,0,0-.884.019,3.052,3.052,0,0,1-.36.039c-.113,0-.189-.039-.189-.132,0-.115.094-.19.227-.247a4.622,4.622,0,0,1,1.964-.378,6.583,6.583,0,0,1,3.189.831,1.457,1.457,0,0,1,.867,1.227c0,.434-.187.736-.661.736a1.49,1.49,0,0,1-.735-.3,2.171,2.171,0,0,0-1.471-.661,1.37,1.37,0,0,0-.85.245,1.332,1.332,0,0,0-.7,1.32,15.42,15.42,0,0,0,.644,3.512c2.906.98,3.679,1.754,3.679,2.489a.742.742,0,0,1-.735.831,1.494,1.494,0,0,1-1.1-.529,8.03,8.03,0,0,0-1.775-1.32,2.343,2.343,0,0,1-.943,2.075,3.741,3.741,0,0,1-2.19.529,3.4,3.4,0,0,1-2.151-.716,1.865,1.865,0,0,1-.755-1.437,1.969,1.969,0,0,1,.793-1.566,3.894,3.894,0,0,1,2.266-.68,9.306,9.306,0,0,1,1.358.094c-.076-1-.132-2-.132-2.812,0-1.622,1.265-2.321,2.51-2.6A3.912,3.912,0,0,0,1391.337,224.769Zm-2.112,6.851a3.19,3.19,0,0,0-1.624.3.967.967,0,0,0,0,1.66,2.762,2.762,0,0,0,1.341.3,2.4,2.4,0,0,0,1.585-.453,1.644,1.644,0,0,0,.414-1.226,1.446,1.446,0,0,0-.017-.264A4.967,4.967,0,0,0,1389.226,231.62Z" transform="translate(-1381.435 -218.832)" fill="#fff"/>
      <path id="パス_2513" data-name="パス 2513" d="M1387.1,234.61a2.105,2.105,0,0,1-.84-1.622h0a2.2,2.2,0,0,1,.891-1.756h0a4.126,4.126,0,0,1,2.4-.724h0a10.705,10.705,0,0,1,1.1.057h0c-.065-.9-.11-1.8-.11-2.54h0a2.759,2.759,0,0,1,2.1-2.669h0a4.01,4.01,0,0,0-1.237-.264h0l.012-.238.016-.233a4.1,4.1,0,0,1,1.981.6h0a.23.23,0,0,1,.1.239h0a.225.225,0,0,1-.181.187h0c-1.208.289-2.321.9-2.324,2.374h0c0,.8.057,1.8.132,2.794h0a.243.243,0,0,1-.075.192h0a.245.245,0,0,1-.2.06h0a9.022,9.022,0,0,0-1.315-.093h0a3.649,3.649,0,0,0-2.126.634h0a1.736,1.736,0,0,0-.7,1.375h0a1.62,1.62,0,0,0,.67,1.252h0a3.154,3.154,0,0,0,2,.664h0a3.518,3.518,0,0,0,2.063-.488h0a2.1,2.1,0,0,0,.836-1.808h0v-.071h0a.234.234,0,0,1,.115-.2h0a.243.243,0,0,1,.234,0h0a8.182,8.182,0,0,1,1.825,1.359h0a1.354,1.354,0,0,0,.876.461h.038c.433-.044.492-.249.516-.592h0c.03-.527-.612-1.295-3.518-2.271h0l-.153-.156a16,16,0,0,1-.652-3.577h0a1.575,1.575,0,0,1,.807-1.52h0a1.6,1.6,0,0,1,.98-.282h0a2.418,2.418,0,0,1,1.618.71h0a1.247,1.247,0,0,0,.588.25h0c.349-.024.39-.121.425-.5h0c-.008-.307-.142-.648-.754-1.024h0a6.365,6.365,0,0,0-3.068-.795h0a4.728,4.728,0,0,0-1.575.234h0c.151-.013.344-.02.54-.02h0c.1,0,.2.006.294.013h0l-.016.233-.016.238c-.083-.006-.176-.009-.263-.009h0c-.222,0-.448.013-.577.027h0a3.024,3.024,0,0,1-.387.038h0c-.142,0-.425-.1-.425-.367h0a.515.515,0,0,1,.359-.456h0a4.813,4.813,0,0,1,2.066-.4h0a6.785,6.785,0,0,1,3.311.865h0a1.676,1.676,0,0,1,.98,1.427h0a.9.9,0,0,1-.894.974h0a1.689,1.689,0,0,1-.885-.357h0c-.7-.565-1.007-.6-1.322-.607h0a1.161,1.161,0,0,0-.735.214h0a1.1,1.1,0,0,0-.583,1.117h0a15.1,15.1,0,0,0,.6,3.328h0c2.815.966,3.695,1.737,3.724,2.675h0a.988.988,0,0,1-.965,1.065h-.063a1.786,1.786,0,0,1-1.2-.592h0a8.1,8.1,0,0,0-1.394-1.1h0a2.453,2.453,0,0,1-1.034,1.872h0a3.96,3.96,0,0,1-2.322.568h0a3.646,3.646,0,0,1-2.3-.765Zm.452-.744a1.274,1.274,0,0,1-.576-1.065h0a1.261,1.261,0,0,1,.576-.991h0a3.433,3.433,0,0,1,1.757-.34h0v.472a3.02,3.02,0,0,0-1.495.264h0a.79.79,0,0,0-.365.595h0a.771.771,0,0,0,.356.664h0a2.5,2.5,0,0,0,1.219.269h0a2.216,2.216,0,0,0,1.411-.378h0a1.407,1.407,0,0,0,.352-1.065h0V232.2h0a4.525,4.525,0,0,0-1.478-.261h0v-.472a5.194,5.194,0,0,1,1.772.334h0l.154.179a1.371,1.371,0,0,1,.024.308h0a1.883,1.883,0,0,1-.485,1.394h0a2.59,2.59,0,0,1-1.75.524h0a3.032,3.032,0,0,1-1.473-.343Zm-5.3-1.618a1,1,0,0,1-.333-.771h0a3.231,3.231,0,0,1,.662-1.37h0a39.78,39.78,0,0,0,2.925-5.322h0c-.444.055-.983.116-1.33.12h0a2.581,2.581,0,0,1-1.339-.277h0a2.726,2.726,0,0,1-1.219-1.322h0a1.06,1.06,0,0,1-.1-.415h0a.368.368,0,0,1,.373-.346h0a.56.56,0,0,1,.354.162h0a1.883,1.883,0,0,0,.755.409h0a3.464,3.464,0,0,0,.872.09h0a13.6,13.6,0,0,0,2.373-.326h0a6.737,6.737,0,0,0,.563-2.175h0c-.027-.349.052-.3-.986-.724h0a.436.436,0,0,1-.3-.39h0a.541.541,0,0,1,.313-.452h0a1.874,1.874,0,0,1,.944-.22h0a4.213,4.213,0,0,1,2.019.664h0a.969.969,0,0,1,.519.9h0a.827.827,0,0,1-.337.677h0c-.168.129-.322.348-.666,1.145h0a4.588,4.588,0,0,0,.7-.365h0a1.815,1.815,0,0,1,.925-.277h0c.7.052,1.147.461,1.166.913h0c.017.538-.353.913-.952,1.109h0c-.6.209-1.559.426-2.7.7h0c-1.045,2.437-2.1,4.831-3,6.717h0a3.736,3.736,0,0,1-.831,1.276h0a1.181,1.181,0,0,1-.628.194H1383a.956.956,0,0,1-.741-.315Zm3.832-7.894a.248.248,0,0,1,.025.238h0a39.749,39.749,0,0,1-3.134,5.772h0a3.436,3.436,0,0,0-.585,1.114h0a.554.554,0,0,0,.211.453h0a.5.5,0,0,0,.406.162h0a.807.807,0,0,0,.341-.1h0a3.525,3.525,0,0,0,.691-1.109h0c.9-1.9,1.979-4.333,3.035-6.8h0l.16-.137c1.188-.282,2.19-.513,2.766-.711h0c.54-.217.622-.332.637-.666h0a.723.723,0,0,0-.707-.442h0a1.386,1.386,0,0,0-.667.209h0a5.008,5.008,0,0,1-1.3.59h0a.237.237,0,0,1-.245-.063h0a.23.23,0,0,1-.046-.25h0c.493-1.2.686-1.567,1.015-1.835h0a.335.335,0,0,0,.156-.3h0c-.017-.214.035-.247-.315-.5h0a3.783,3.783,0,0,0-1.751-.582h0a1.44,1.44,0,0,0-.727.164h0l0,0h0c.928.316,1.257.6,1.232,1.145h0a7.343,7.343,0,0,1-.639,2.459h0l-.17.148a14.025,14.025,0,0,1-2.6.365h0a4.06,4.06,0,0,1-.983-.1h0a2.3,2.3,0,0,1-.812-.4h0a2.237,2.237,0,0,0,.988,1.042h0a2.124,2.124,0,0,0,1.109.214h0c.4,0,1.235-.112,1.687-.168h0l.035,0h0a.239.239,0,0,1,.186.093Z" transform="translate(-1381.523 -218.919)" fill="#fff"/>
    </g>
    <g id="グループ_1684" data-name="グループ 1684" transform="translate(1447.759 218.73)">
      <path id="パス_2514" data-name="パス 2514" d="M1412.531,226.261h-3.794a15.641,15.641,0,0,0-1.736.115l-.206-.7a13.232,13.232,0,0,0,1.962.151h3.773v-4.36a24.371,24.371,0,0,0-.112-2.7c2.489.225,2.735.453,2.735.659,0,.19-.225.359-.7.51v5.888h3c1.039-1.263,1.267-1.415,1.4-1.415.168,0,.376.151,1.4.982.471.378.623.546.623.678s-.058.187-.245.187h-6.171v8.173h4.266c1.094-1.377,1.32-1.528,1.452-1.528.17,0,.376.151,1.471,1.057.508.415.661.584.661.716s-.057.189-.246.189h-14.833a17.247,17.247,0,0,0-1.811.112l-.208-.7a13.534,13.534,0,0,0,2,.151h5.322Z" transform="translate(-1404.97 -218.534)" fill="#fff"/>
      <path id="パス_2515" data-name="パス 2515" d="M1405.274,235.135l-.208-.7a.234.234,0,0,1,.05-.222h0a.236.236,0,0,1,.211-.082h0a12.732,12.732,0,0,0,1.968.151h5.084v-7.7h-3.556a14.99,14.99,0,0,0-1.712.113h0a.242.242,0,0,1-.253-.168h0l-.206-.7a.237.237,0,0,1,.049-.22h0a.232.232,0,0,1,.212-.079h0a13.219,13.219,0,0,0,1.93.148h3.536v-4.124a24.211,24.211,0,0,0-.109-2.672h0a.225.225,0,0,1,.063-.19h0a.233.233,0,0,1,.192-.071h0c2.459.255,2.839.36,2.949.9h0c-.03.359-.305.527-.7.675h0l0,5.487h2.656c1-1.18,1.161-1.372,1.51-1.415h0c.346.028.511.209,1.539,1.031h0c.469.392.681.535.714.865h0a.391.391,0,0,1-.142.326h0a.533.533,0,0,1-.34.1h0l-5.938,0v7.7h3.919c1.052-1.292,1.212-1.479,1.567-1.529h0c.351.031.515.212,1.619,1.111h0c.5.43.711.568.749.9h0a.409.409,0,0,1-.142.327h0a.556.556,0,0,1-.34.1h-14.835a17.31,17.31,0,0,0-1.786.109h0l-.027,0h0a.235.235,0,0,1-.227-.167Zm.4-.324c.335-.033.636-.058.92-.074h0c-.3-.014-.617-.044-.968-.087h0l.047.161Zm16.443-.094-.039-.044h0a5.357,5.357,0,0,0-.494-.445h0c-1.086-.913-1.308-1.018-1.322-1h0l0,.009a1.4,1.4,0,0,0-.2.17h0c-.2.2-.522.577-1.067,1.262h0l-.1.05Zm-7.7,0a.244.244,0,0,1-.038-.03h0a.229.229,0,0,1-.069-.167h0v-8.173a.235.235,0,0,1,.069-.168h0a.246.246,0,0,1,.073-.049h0a.252.252,0,0,1-.073-.05h0a.225.225,0,0,1-.069-.164h0v-5.888a.237.237,0,0,1,.165-.228h0c.393-.115.5-.233.527-.272h0a.9.9,0,0,0-.26-.107h0a11.629,11.629,0,0,0-1.969-.3h0c.055.611.082,1.413.082,2.436h0v4.362a.23.23,0,0,1-.069.164h0a.272.272,0,0,1-.072.05h0a.247.247,0,0,1,.072.052h0a.223.223,0,0,1,.069.165h0v8.173a.235.235,0,0,1-.069.167h0a.233.233,0,0,1-.038.03h1.668Zm-1.8-8.369v0Zm-5.361-.143c.327-.033.617-.058.888-.074h0c-.288-.016-.594-.044-.935-.083h0l.047.157Zm13.428-.093a.247.247,0,0,0-.035-.039h0a4.31,4.31,0,0,0-.466-.409h0c-1.007-.839-1.229-.947-1.243-.928h0l-.006.009a1.081,1.081,0,0,0-.192.159h0a15.3,15.3,0,0,0-1.02,1.163h0l-.1.046Z" transform="translate(-1405.057 -218.62)" fill="#fff"/>
    </g>
    <g id="グループ_1685" data-name="グループ 1685" transform="translate(1486.977 221.392)">
      <path id="パス_2516" data-name="パス 2516" d="M1437.87,222.725a7.7,7.7,0,0,1-.417,2,13.446,13.446,0,0,1-1.188,2.717,15.459,15.459,0,0,1-2.094,3.152,2.074,2.074,0,0,1-1.567.774,1.915,1.915,0,0,1-1.433-.736,4.7,4.7,0,0,1-1.037-3.435,5.888,5.888,0,0,1,.81-2.868,7.3,7.3,0,0,1,2.549-2.642,8.443,8.443,0,0,1,4.566-1.227,7.228,7.228,0,0,1,4.681,1.473,5.789,5.789,0,0,1,2.206,4.793,5.127,5.127,0,0,1-1.737,3.888,8.246,8.246,0,0,1-2.792,1.68,13.478,13.478,0,0,1-3.869.717c-.283,0-.415-.039-.415-.19s.113-.189.359-.245a9.34,9.34,0,0,0,4.85-2.472,5.61,5.61,0,0,0,1.7-4.377,4.124,4.124,0,0,0-1.662-3.548,5.948,5.948,0,0,0-3.02-1.02,8.734,8.734,0,0,0-1.19.02A2.578,2.578,0,0,1,1437.87,222.725Zm-4.587.077a5.776,5.776,0,0,0-1.6,2.321,4.944,4.944,0,0,0-.319,1.794,3.747,3.747,0,0,0,.472,2.036,1.21,1.21,0,0,0,.829.623c.3,0,.585-.187,1.3-1.208a22.819,22.819,0,0,0,2.53-4.621,4.383,4.383,0,0,0,.4-1.6.949.949,0,0,0-.34-.85A6.359,6.359,0,0,0,1433.283,222.8Z" transform="translate(-1429.896 -220.227)" fill="#fff"/>
      <path id="パス_2517" data-name="パス 2517" d="M1435.985,232.906c0-.338.33-.442.538-.475h0a9.139,9.139,0,0,0,4.733-2.4h0a5.363,5.363,0,0,0,1.634-4.214h0a3.888,3.888,0,0,0-1.561-3.358h0a5.736,5.736,0,0,0-2.9-.976h0c-.11-.008-.271-.011-.444-.011h0c-.088,0-.181,0-.269,0h0a2.545,2.545,0,0,1,.474,1.339h0a7.8,7.8,0,0,1-.425,2.069h0a13.533,13.533,0,0,1-1.205,2.76h0a15.811,15.811,0,0,1-2.129,3.2h0a2.31,2.31,0,0,1-1.742.85h0a2.157,2.157,0,0,1-1.61-.813h0a4.924,4.924,0,0,1-1.1-3.592h0a6.087,6.087,0,0,1,.842-2.982h0a7.515,7.515,0,0,1,2.631-2.73h0a8.643,8.643,0,0,1,4.689-1.26h0a7.454,7.454,0,0,1,4.829,1.525h0a6.017,6.017,0,0,1,2.292,4.974h0a5.362,5.362,0,0,1-1.816,4.066h0a8.446,8.446,0,0,1-2.867,1.723h0a13.6,13.6,0,0,1-3.951.732h0c-.247,0-.634-.046-.647-.425Zm2.477-11.9a6.181,6.181,0,0,1,3.136,1.057h0a4.362,4.362,0,0,1,1.762,3.745h0a5.856,5.856,0,0,1-1.765,4.544h0a9.522,9.522,0,0,1-4.787,2.494h0a13.139,13.139,0,0,0,3.611-.694h0a7.934,7.934,0,0,0,2.718-1.635h0a4.886,4.886,0,0,0,1.66-3.712h0a5.548,5.548,0,0,0-2.116-4.607h0a7,7,0,0,0-4.536-1.422h0a8.22,8.22,0,0,0-4.439,1.191h0a7.082,7.082,0,0,0-2.475,2.566h0a5.679,5.679,0,0,0-.777,2.746h0a4.467,4.467,0,0,0,.983,3.281h0a1.672,1.672,0,0,0,1.253.651h0a1.825,1.825,0,0,0,1.4-.7h0a15.169,15.169,0,0,0,2.06-3.106h0a13.349,13.349,0,0,0,1.169-2.672h0a7.446,7.446,0,0,0,.4-1.928h0a2.359,2.359,0,0,0-.635-1.388h0a.241.241,0,0,1-.049-.241h0a.243.243,0,0,1,.192-.153h0a6.762,6.762,0,0,1,.76-.035h0c.186,0,.351,0,.477.016Zm-6.744,8.154a4,4,0,0,1-.51-2.164h0a5.164,5.164,0,0,1,.338-1.88h0a5.97,5.97,0,0,1,1.667-2.411h0a6.593,6.593,0,0,1,3.388-1.567h0l.171.042a1.183,1.183,0,0,1,.436,1.042h0a4.61,4.61,0,0,1-.409,1.688h0a23.042,23.042,0,0,1-2.557,4.672h0c-.716,1.016-1.046,1.3-1.5,1.311h0a1.418,1.418,0,0,1-1.028-.733Zm1.808-6.1a5.535,5.535,0,0,0-1.543,2.234h0a4.7,4.7,0,0,0-.3,1.7h0a3.508,3.508,0,0,0,.434,1.91h0a1.051,1.051,0,0,0,.631.515h0c.156.008.39-.083,1.111-1.109h0a22.743,22.743,0,0,0,2.5-4.574h0a4.217,4.217,0,0,0,.379-1.515h0a.787.787,0,0,0-.177-.6h0a6.127,6.127,0,0,0-3.035,1.432h0l-.157-.173.157.176Z" transform="translate(-1429.982 -220.312)" fill="#fff"/>
    </g>
    <g id="グループ_1686" data-name="グループ 1686" transform="translate(1523.569 218.54)">
      <path id="パス_2518" data-name="パス 2518" d="M1458.824,230.728c0,3.3.055,4.189.055,4.568,0,.546-.319.735-1.02.735-.527,0-.717-.17-.717-.659,0-.455.115-2.228.151-4.1a10.281,10.281,0,0,1-3.756,3.208c-.072.036-.187-.132-.131-.208a15.4,15.4,0,0,0,3.6-5.531h-1.81a6.946,6.946,0,0,0-1.152.115l-.208-.7a5.613,5.613,0,0,0,1.282.151h2.134v-.565a14.33,14.33,0,0,0-.075-1.492c1.6.132,2.171.264,2.171.548,0,.17-.132.283-.529.452v1.057h1.32c.661-.812.886-.961,1.018-.961.172,0,.378.149,1.02.678.283.228.434.4.434.529s-.057.187-.246.187h-3.547v.925c1.81.341,2.754,1.04,2.754,1.946a.809.809,0,0,1-.793.884c-.451,0-.64-.187-.886-.884a3.807,3.807,0,0,0-1.075-1.663Zm-.323-5.246a18.5,18.5,0,0,0,.755-2.283,11.257,11.257,0,0,0,.228-1.282c1.47.434,2.055.718,2.055.982,0,.206-.149.282-.678.319a15.736,15.736,0,0,1-1.869,2.264h1.208c.774-.943,1-1.094,1.133-1.094.17,0,.357.151,1.094.754.321.283.472.455.472.587s-.057.187-.247.187h-7.529a6.52,6.52,0,0,0-1.112.113l-.209-.7a5.86,5.86,0,0,0,1.3.15Zm-1.245-5.416c0-.491-.019-.944-.055-1.416,2.055.17,2.3.34,2.3.511s-.189.319-.585.47v1.68h1.246c.584-.812.812-.961.944-.961.168,0,.357.149,1,.678.264.227.414.4.414.529s-.055.187-.244.187h-6.7a6.781,6.781,0,0,0-1.133.115l-.206-.7a5.786,5.786,0,0,0,1.282.151h1.737Zm-.566,5.038c-.546,0-.623-.151-.774-1.282a3.6,3.6,0,0,0-.489-1.529c-.058-.074.038-.187.132-.151,1.3.493,1.979,1.19,1.979,1.983A.871.871,0,0,1,1456.69,225.1Zm8.133.264a24.883,24.883,0,0,1-.4,4,8.924,8.924,0,0,1-3.886,6.34c-.076.057-.283-.132-.227-.206,1.586-1.907,2.338-3.812,2.7-7.191.151-1.454.151-3.189.151-5.3,0-1.018-.038-1.547-.115-2.472.906.378,1.1.434,1.982.867a11.272,11.272,0,0,0,2.453-1.622,7.608,7.608,0,0,0,1.039-1.018c1.282.754,1.887,1.226,1.887,1.471,0,.17-.132.3-.829.227a18.893,18.893,0,0,1-4.7,1.433v.455c0,.98-.017,1.828-.038,2.585h3.794c.773-.982,1-1.133,1.131-1.133.17,0,.359.151,1.135.793.337.282.49.453.49.585s-.057.187-.246.187h-2.566v3.509c0,2.436.038,5.455.038,6.456,0,.472-.4.68-1.075.68-.492,0-.757-.153-.757-.568,0-.47.077-1.923.077-4.831v-5.246Z" transform="translate(-1453.149 -218.413)" fill="#fff"/>
      <path id="パス_2519" data-name="パス 2519" d="M1457.229,236.144a.887.887,0,0,1-.234-.688h0c0-.414.087-1.816.132-3.41h0a10.066,10.066,0,0,1-3.415,2.744h0a.325.325,0,0,1-.112.019h0c-.286-.052-.329-.2-.363-.4h0a.277.277,0,0,1,.088-.211h0a15.178,15.178,0,0,0,3.422-5.131h-1.459a6.413,6.413,0,0,0-1.115.11h0a.239.239,0,0,1-.264-.165h0l-.209-.7a.221.221,0,0,1,.055-.223h0a.223.223,0,0,1,.223-.071h0a5.446,5.446,0,0,0,1.233.143h1.895v-.327a13.192,13.192,0,0,0-.077-1.473h0a.292.292,0,0,1,.029-.126h-1.846a6.228,6.228,0,0,0-1.073.113h0a.236.236,0,0,1-.266-.165h0l-.209-.7a.225.225,0,0,1,.052-.225h0a.236.236,0,0,1,.223-.074h0a5.462,5.462,0,0,0,1.253.146h1.1c-.313-.184-.461-.634-.519-1.391h0a3.349,3.349,0,0,0-.444-1.419h0a.3.3,0,0,1-.068-.192h0a.357.357,0,0,1,.1-.25h0a7.561,7.561,0,0,0-.792.1h0a.239.239,0,0,1-.267-.167h0l-.206-.7a.23.23,0,0,1,.052-.227h0a.236.236,0,0,1,.227-.068h0a5.592,5.592,0,0,0,1.23.142h1.5v-1.009c0-.483-.017-.931-.052-1.4h0a.237.237,0,0,1,.066-.187h0a.24.24,0,0,1,.186-.068h0c2.033.212,2.388.225,2.519.746h0c-.023.326-.26.486-.584.628h0v1.286h.892c.544-.729.743-.925,1.061-.961h0c.335.027.5.216,1.152.736h0c.264.245.47.395.5.71h0a.408.408,0,0,1-.135.326h0a.542.542,0,0,1-.341.1h-1.819c.832.275,1.226.455,1.317.913h0c-.006.381-.348.526-.79.552h0a15.872,15.872,0,0,1-1.44,1.8h.543c.733-.865.914-1.056,1.243-1.1h0c.342.03.5.216,1.25.817h0c.132.124.247.222.333.316h0c.009-.7.009-1.46.009-2.274h0c0-1.012-.036-1.528-.113-2.453h0a.228.228,0,0,1,.1-.208h0a.231.231,0,0,1,.231-.027h0c.864.357,1.084.428,1.891.821h0a11.155,11.155,0,0,0,2.3-1.545h0a7.045,7.045,0,0,0,1.006-.985h0a.239.239,0,0,1,.3-.054h0c1.287.8,1.915,1.136,2,1.676h0c0,.293-.312.485-.716.485h0c-.093,0-.2,0-.312-.016h0a19.717,19.717,0,0,1-4.5,1.4h0v.245c0,.881-.014,1.655-.031,2.349h3.438c.732-.9.913-1.092,1.245-1.131h0c.345.027.5.216,1.282.851h0c.34.3.549.444.577.765h0a.414.414,0,0,1-.137.326h0a.545.545,0,0,1-.343.1h0l-2.333,0v3.276c0,2.431.041,5.451.041,6.458h0c0,.653-.619.911-1.311.911h0c-.518,0-.991-.244-1-.8h0c0-.486.08-1.927.08-4.831h0v-5.012h-1.578a24.192,24.192,0,0,1-.392,3.806h0a9.178,9.178,0,0,1-3.989,6.5h0a.318.318,0,0,1-.167.047h0c-.265-.058-.378-.132-.441-.425h0a.229.229,0,0,1,.069-.179h0a11.3,11.3,0,0,0,2.576-6.464h0a.524.524,0,0,1-.335.1h-3.312v.492c1.715.357,2.735,1.075,2.753,2.14h0a1.061,1.061,0,0,1-1.028,1.122h0c-.552.025-.9-.343-1.108-1.04h0a4.257,4.257,0,0,0-.618-1.16h0v.19c0,3.3.053,4.174.053,4.568h0c0,.678-.54.971-1.251.971h0a1.027,1.027,0,0,1-.721-.209Zm.233-5a.233.233,0,0,1,.153.227h0c-.036,1.869-.15,3.658-.15,4.089h0c.054.419,0,.37.485.426h0c.683-.046.75-.087.781-.5h0c0-.363-.055-1.265-.055-4.568h0v-.771a.246.246,0,0,1,.049-.145h0a.233.233,0,0,1-.049-.142h0v-.927a.237.237,0,0,1,.068-.165h0a.253.253,0,0,1,.076-.05h0a.257.257,0,0,1-.076-.049h0a.244.244,0,0,1-.068-.167h0v-1.057l.143-.216c.4-.179.385-.233.385-.236h0l-.013.006a1.012,1.012,0,0,0-.293-.109h0a9.673,9.673,0,0,0-1.37-.186h0c.038.472.05.749.05,1.232h0v.565a.248.248,0,0,1-.066.167h0a.257.257,0,0,1-.17.069h-.115a.2.2,0,0,1,.066.065h0a.243.243,0,0,1,.022.219h0a15.274,15.274,0,0,1-3.166,5.087h0a10.05,10.05,0,0,0,3.046-2.791h0a.227.227,0,0,1,.182-.088h0a.258.258,0,0,1,.083.014Zm9.656-5.852a.252.252,0,0,1,.069.17h0V230.7c0,2.906-.077,4.373-.077,4.831h0c.025.275.051.288.521.327h0c.661-.02.835-.154.839-.439h0c0-1-.038-4.02-.038-6.458h0v-3.506a.225.225,0,0,1,.069-.17h0a.17.17,0,0,1,.036-.03h-1.457l.038.03Zm-3.631-2.193c0,2.115,0,3.855-.153,5.329h0a12.516,12.516,0,0,1-2.381,6.838h0a8.712,8.712,0,0,0,3.331-5.85h0a24.911,24.911,0,0,0,.39-3.965h0a.242.242,0,0,1,.153-.214h0a.215.215,0,0,1-.068-.049h0a.218.218,0,0,1-.064-.168h0c.019-.757.036-1.6.036-2.582h0v-.452a.236.236,0,0,1,.209-.233h0a18.809,18.809,0,0,0,4.627-1.415h0l.123-.022a3.03,3.03,0,0,0,.326.019h0a.912.912,0,0,0,.233-.024h0a.4.4,0,0,0-.046-.06h0a2.093,2.093,0,0,0-.318-.285h0a12.162,12.162,0,0,0-1.226-.81h0a8.14,8.14,0,0,1-.933.892h0a11.4,11.4,0,0,1-2.508,1.658h-.2c-.752-.367-.99-.458-1.611-.714h0c.057.71.083,1.23.083,2.105Zm-3.278,8.531c.275.691.308.7.664.725h0c.318-.006.543-.222.552-.65h0c.019-.647-.64-1.26-2.124-1.619h0a4.342,4.342,0,0,1,.908,1.544Zm-5.905-2.944c.172-.028.333-.049.488-.061h0c-.165-.013-.338-.035-.524-.065h0l.036.126Zm8.13-.087a.162.162,0,0,0-.022-.03h0a2.444,2.444,0,0,0-.291-.267h0c-.636-.538-.856-.647-.87-.625h0a.568.568,0,0,0-.156.115h0a7.175,7.175,0,0,0-.68.758h0l-.1.049Zm-.016-.664a1.879,1.879,0,0,1,.445.458h0l0-.017h0c.066-.658.1-1.382.123-2.176h0a.623.623,0,0,1-.25.039h-4.231c.721.088,1.062.2,1.166.655h0c-.008.3-.217.459-.527.607h0l0,.664h.977c.62-.736.81-.927,1.13-.963h0c.329.024.518.216,1.168.733Zm-8.154-2.083c.175-.027.333-.046.485-.061h0c-.164-.013-.337-.035-.524-.066h0l.039.127Zm8.454-.083a.41.41,0,0,0-.031-.039h0a3.679,3.679,0,0,0-.321-.315h0c-.732-.614-.933-.717-.946-.7h0c0,.016-.014-.013-.167.129h0a9.747,9.747,0,0,0-.787.876h0l-.1.049Zm-3.77,0a.233.233,0,0,1-.088-.105h0a.282.282,0,0,1-.017-.1h0l-.035.088h0a.225.225,0,0,1-.09.113h.23Zm5.962-.074v0Zm-6.321-.123v0Zm.982-2.228a17.036,17.036,0,0,1-.668,2.071h0l.006-.008h0a15.779,15.779,0,0,0,1.847-2.234h0l.176-.1a1.526,1.526,0,0,0,.45-.071h0l.008-.014c-.014,0,0,0-.036-.027h0a1.4,1.4,0,0,0-.307-.186h0a9.578,9.578,0,0,0-1.279-.461h0c-.055.368-.116.706-.2,1.032Zm-1.145,1.99a17.517,17.517,0,0,0,.688-2.1h0a10.572,10.572,0,0,0,.209-1.161h-3.432c1.237.5,1.965,1.23,1.972,2.141h0a1.2,1.2,0,0,1-.644,1.12h1.207Zm-1.649,0v-.374c.373-.009.594-.249.612-.746h0c.006-.577-.455-1.158-1.493-1.622h0a4.367,4.367,0,0,1,.342,1.287h0c.219,1.186.107,1.037.54,1.081h0v.374Zm14.432-.112-.027-.035h0a2.779,2.779,0,0,0-.346-.321h0c-.766-.653-.968-.754-.982-.74h0c0,.019-.011-.011-.164.135h0a8.621,8.621,0,0,0-.783.909h0l-.1.05Zm-16.51-3.54c.173-.027.333-.047.486-.06h0c-.165-.014-.338-.036-.522-.066h0l.036.126Zm7.638-.083a1.435,1.435,0,0,0-.293-.3h0c-.637-.537-.836-.64-.85-.623h0a.574.574,0,0,0-.138.109h0a6.239,6.239,0,0,0-.615.754h0l-.113.06Zm-3.462,0a.179.179,0,0,1-.036-.031h0a.226.226,0,0,1-.069-.165h0v-1.68a.23.23,0,0,1,.153-.219h0a1.055,1.055,0,0,0,.411-.219h0a1.125,1.125,0,0,0-.183-.061h0a10.91,10.91,0,0,0-1.6-.223h0c.022.381.033.755.033,1.155h0V221.4a.242.242,0,0,1-.066.165h0a.332.332,0,0,1-.038.031h1.4Z" transform="translate(-1453.237 -218.5)" fill="#fff"/>
    </g>
    <g id="グループ_1687" data-name="グループ 1687" transform="translate(1562.125 218.542)">
      <path id="パス_2520" data-name="パス 2520" d="M1482.516,226.936c.68-.189,1.359-.415,2.058-.661.093-.038.149.17.074.227-.735.489-1.434.925-2.132,1.3v2.019c0,2.625.02,3.359.02,4.247a2.048,2.048,0,0,1-.341,1.265,1.914,1.914,0,0,1-1.622.64c-.283,0-.34-.093-.379-.378-.131-.829-.414-1.037-1.791-1.413-.1-.019-.1-.247,0-.247.848.057,1.433.1,2.113.1.225,0,.283-.077.283-.3v-5.019c-.529.245-1.057.472-1.586.7-.057.474-.168.68-.378.68-.225,0-.32-.168-.943-2.189q.878-.111,1.755-.282c.378-.077.755-.151,1.152-.228v-4.113h-1.492a5.066,5.066,0,0,0-.982.113l-.206-.7a4.725,4.725,0,0,0,1.169.151h1.51v-1.962a16.8,16.8,0,0,0-.094-2.228c1.886.17,2.4.283,2.4.6,0,.208-.189.378-.585.51v3.076h.208c.642-.831.868-.98,1-.98.17,0,.357.149.982.678.264.245.414.415.414.548s-.057.189-.246.189h-2.358Zm4.566-4.927a19.17,19.17,0,0,0,3.737-1.622,8.959,8.959,0,0,0,1.452-1.018c1.076.735,1.756,1.358,1.756,1.6,0,.131-.113.208-.338.208a1.745,1.745,0,0,1-.585-.132,26.228,26.228,0,0,1-6.022,1.433V223.9c0,.511.285.606,1.926.606a32.216,32.216,0,0,0,3.359-.151c.925-.132,1.207-.455,1.886-2.264.038-.094.189-.038.189.055-.038.529-.132,1.286-.132,1.586,0,.168.04.227.227.319.4.245.529.4.529.68,0,.455-.34.738-1.227.925a26.468,26.468,0,0,1-4.717.264c-3.057,0-3.567-.206-3.7-1.547V221.6c0-.925-.019-1.85-.075-2.794,2,.228,2.4.3,2.4.585,0,.208-.206.378-.661.529Zm.058,12.72v.452c0,.529-.34.757-1.02.757-.491,0-.7-.172-.7-.642,0-.793.057-1.6.057-4.849,0-1.208-.019-2.434-.057-3.661.887.434,1.02.51,1.832.98h4.51c.622-.678.772-.791.924-.791.19,0,.341.113,1,.678.281.264.4.4.4.548,0,.19-.115.321-.529.546V229.8c0,2.794.074,4.717.074,5.342,0,.51-.338.7-1.018.7-.529,0-.738-.168-.738-.64v-.472Zm4.735-6.53h-4.735v2.68h4.735Zm0,3.114h-4.735V234.3h4.735Z" transform="translate(-1477.655 -218.416)" fill="#fff"/>
      <path id="パス_2521" data-name="パス 2521" d="M1480.048,235.716c-.151-.747-.227-.8-1.608-1.218h0a.344.344,0,0,1-.258-.362h0a.326.326,0,0,1,.323-.348h0c.848.055,1.427.091,2.1.091h0a.353.353,0,0,0,.044,0h0a.232.232,0,0,0,0-.066h0v-4.651c-.379.172-.757.33-1.133.494h0c-.061.4-.208.732-.595.751h0c-.516-.085-.533-.373-1.171-2.355h0a.234.234,0,0,1,.027-.2h0a.257.257,0,0,1,.168-.105h0q.873-.109,1.739-.28h0c.316-.063.634-.127.964-.189h0v-3.685h-1.256a4.691,4.691,0,0,0-.942.112h0a.24.24,0,0,1-.269-.167h0l-.2-.7a.24.24,0,0,1,.057-.23h0a.241.241,0,0,1,.225-.068h0a4.383,4.383,0,0,0,1.114.145h1.276v-1.725a16.6,16.6,0,0,0-.094-2.2h0a.224.224,0,0,1,.066-.189h0a.217.217,0,0,1,.187-.069h0c1.856.209,2.477.164,2.615.837h0c-.011.327-.252.533-.587.672h0v2.5c.5-.609.68-.774.974-.807h0c.334.027.5.22,1.139.746h0a4.325,4.325,0,0,1,.319.323h0v-1.094c0-.922-.014-1.841-.075-2.779h0a.236.236,0,0,1,.075-.187h0a.241.241,0,0,1,.189-.063h0c1.965.266,2.464.183,2.607.821h0c-.017.351-.283.546-.663.7h0v1.594a18.081,18.081,0,0,0,3.385-1.5h0a8.523,8.523,0,0,0,1.415-.991h0a.234.234,0,0,1,.288-.016h0c1.089.79,1.778,1.27,1.858,1.8h0c0,.313-.324.442-.573.442h0a1.831,1.831,0,0,1-.587-.113h0a26.459,26.459,0,0,1-5.786,1.389h0v1.207c.03.22-.016.176.183.271h0a6.544,6.544,0,0,0,1.508.1h0a32.636,32.636,0,0,0,3.324-.149h0c.84-.143.985-.285,1.7-2.11h0a.314.314,0,0,1,.294-.206h0a.351.351,0,0,1,.352.36h0c-.041.532-.132,1.3-.132,1.567h0c-.008.052,0,.052,0,.052h0s.011.014.115.068h0c.4.233.65.5.639.881h0c0,.615-.514.979-1.413,1.153h0a26.536,26.536,0,0,1-4.766.271h0c-3,.052-3.819-.28-3.937-1.783h0v-.936a.539.539,0,0,1-.309.076h-2.124v3.114c.573-.17,1.149-.363,1.715-.56h0a.273.273,0,0,1,.126-.03h0c.31.052.3.257.319.379h0a.355.355,0,0,1-.132.286h0c-.7.463-1.361.88-2.028,1.243h0v1.88c0,2.623.021,3.355.021,4.247h0a2.27,2.27,0,0,1-.389,1.405h0a2.152,2.152,0,0,1-1.81.738h0a.46.46,0,0,1-.064,0h0a.594.594,0,0,1-.548-.585Zm.612.107a1.68,1.68,0,0,0,1.433-.549h0a1.827,1.827,0,0,0,.293-1.12h0c0-.881-.019-1.621-.019-4.247h0v-2.019l.123-.206c.448-.242.9-.508,1.345-.793h0c-.392.129-.78.25-1.169.36h0l-.063-.23.063.23a.254.254,0,0,1-.206-.041h0a.238.238,0,0,1-.093-.189h0v-3.66a.229.229,0,0,1,.069-.168h0a.21.21,0,0,1,.074-.05h0a.2.2,0,0,1-.074-.047h0a.232.232,0,0,1-.069-.168h0v-3.078a.227.227,0,0,1,.159-.22h0c.378-.131.438-.253.426-.288h0s.011-.039-.313-.131h0a12.413,12.413,0,0,0-1.583-.212h0a18.505,18.505,0,0,1,.066,1.967h0v1.962a.238.238,0,0,1-.069.165h0a.246.246,0,0,1-.074.05h0a.28.28,0,0,1,.074.05h0a.248.248,0,0,1,.069.168h0v4.113a.243.243,0,0,1-.192.233h0c-.4.076-.774.148-1.153.225h0c-.5.1-.995.178-1.492.249h0a8.4,8.4,0,0,0,.637,1.758h0v0s.077.009.143-.47h0l.14-.189c.529-.227,1.057-.453,1.58-.7h0a.233.233,0,0,1,.227.019h0a.23.23,0,0,1,.11.2h0v5.019a.579.579,0,0,1-.12.4h0a.536.536,0,0,1-.4.145h0c-.4,0-.76-.014-1.154-.036h0a1.483,1.483,0,0,1,1.064,1.333h0c.017.132.031.167.036.167h0l0,0h0a.408.408,0,0,0,.105.008Zm5.084-14.142,0,2.75c.153,1.2.349,1.281,3.466,1.333h0a26.7,26.7,0,0,0,4.669-.258h0c.876-.2,1.034-.4,1.038-.692h0c-.011-.186-.023-.223-.4-.469h0a.547.547,0,0,1-.352-.532h0c0-.156.02-.395.044-.658h0c-.475,1.07-.9,1.413-1.718,1.512h0a31.944,31.944,0,0,1-3.394.157h0a6.456,6.456,0,0,1-1.651-.124h0a.682.682,0,0,1-.511-.719h0v-1.413a.238.238,0,0,1,.206-.236h0l.021,0h0a.248.248,0,0,1-.126-.044h0a.229.229,0,0,1-.1-.19h0V220a.236.236,0,0,1,.162-.222h0c.4-.134.492-.261.5-.3h0a.868.868,0,0,0-.266-.091h0c-.293-.071-.812-.138-1.646-.236h0c.044.853.062,1.69.062,2.529Zm-7.167,1.52c.148-.024.282-.043.412-.057h0a4.415,4.415,0,0,1-.445-.058h0l.033.115Zm6.363-.077a.127.127,0,0,0-.029-.036h0a2.343,2.343,0,0,0-.272-.283h0c-.62-.54-.817-.639-.828-.626h0c0,.017-.014-.009-.151.116h0a7.044,7.044,0,0,0-.666.774h0l-.11.055Zm2.3-.806-.075-.223.075.223Zm3.784-1.643a19.375,19.375,0,0,1-3.781,1.643h0a25.955,25.955,0,0,0,5.858-1.408h.168a1.464,1.464,0,0,0,.5.118h0a.466.466,0,0,0,.075,0h0a.28.28,0,0,0-.05-.072h0a3.4,3.4,0,0,0-.323-.34h0a11.907,11.907,0,0,0-1.106-.861h0a9.631,9.631,0,0,1-1.345.925Zm-5.514,15.378a.867.867,0,0,1-.244-.672h0c0-.806.058-1.608.058-4.849h0c0-1.205-.017-2.431-.058-3.655h0a.245.245,0,0,1,.108-.206h0a.238.238,0,0,1,.231-.013h0c.87.422,1.031.515,1.8.957h4.34c.565-.606.716-.768,1.029-.795h0c.331.017.5.186,1.161.746h0c.274.263.459.422.474.719h0c0,.288-.193.491-.53.686h0v.917c0,2.791.074,4.709.074,5.34h0c0,.662-.563.936-1.254.936h0a1.066,1.066,0,0,1-.719-.2h0a.844.844,0,0,1-.253-.68h0v-.233h-4.266v.216c0,.666-.546.988-1.254.991h0a1.011,1.011,0,0,1-.692-.206Zm.286-5.521c0,3.246-.057,4.067-.057,4.849h0c.046.387.02.352.463.4h0c.648-.039.758-.129.782-.518h0v-.453a.251.251,0,0,1,.069-.168h0a.218.218,0,0,1,.076-.049h0a.242.242,0,0,1-.076-.052h0a.238.238,0,0,1-.069-.167h0V231.4a.24.24,0,0,1,.069-.165h0a.217.217,0,0,1,.076-.049h0a.3.3,0,0,1-.076-.05h0a.25.25,0,0,1-.069-.167h0v-2.681a.241.241,0,0,1,.069-.167h0a.26.26,0,0,1,.154-.071h0c-.686-.4-.873-.5-1.457-.795h0c.03,1.1.046,2.193.046,3.279Zm6.329,4.118a.234.234,0,0,1,.068.165h0v.47c.049.385.011.352.5.406h0c.666-.038.757-.1.781-.463h0c0-.614-.073-2.546-.073-5.34h0v-1.056l.123-.209c.417-.236.406-.286.406-.338h0c.011-.011-.028-.11-.313-.367h0c-.669-.579-.8-.639-.848-.626h0s-.132.028-.752.719h0l-.082.036h.022v0a.244.244,0,0,1,.167.071h0a.244.244,0,0,1,.068.167h0v2.681a.253.253,0,0,1-.068.167h0a.3.3,0,0,1-.074.05h0a.227.227,0,0,1,.074.049h0a.237.237,0,0,1,.068.165h0v2.982a.236.236,0,0,1-.068.167h0a.246.246,0,0,1-.074.052h0a.214.214,0,0,1,.074.052Zm-4.9.4v0Zm.236-.909h4.266v-2.508h-4.266v2.508Zm4.5-2.746v0Zm-4.5-.666h4.266v-2.211h-4.266v2.211Z" transform="translate(-1477.741 -218.501)" fill="#fff"/>
    </g>
    <g id="グループ_1688" data-name="グループ 1688" transform="translate(1599.616 218.429)">
      <path id="パス_2522" data-name="パス 2522" d="M1506.01,225.316c1.208.4,2,1.152,2,2.02,0,.566-.319.963-.793.963-.3,0-.433-.19-.529-.7a3.946,3.946,0,0,0-.68-1.907c0,3.4.077,8.116.077,9.757,0,.433-.378.622-.982.622-.491,0-.736-.149-.736-.546,0-.982.132-5.057.151-8.473a11.181,11.181,0,0,1-2.623,4.283c-.057.076-.208-.038-.17-.113a27.417,27.417,0,0,0,2.474-7.812h-.774a7.342,7.342,0,0,0-1.19.113l-.208-.7a6.689,6.689,0,0,0,1.4.151h.98v-1.943a24.082,24.082,0,0,0-.094-2.415c2.019.225,2.359.321,2.359.64,0,.209-.168.341-.661.529v3.189h.04c.4-.848.621-1,.754-1,.171,0,.321.153.829.717a1.09,1.09,0,0,1,.324.529c0,.132-.058.189-.247.189h-1.7Zm4.568,7.095a10.419,10.419,0,0,1-3.888,2.606c-.094.038-.206-.132-.132-.19a10.659,10.659,0,0,0,2.189-2.68,11.3,11.3,0,0,0,.6-1.3c1.641.791,2,1.056,2,1.263S1511.124,232.41,1510.578,232.41Zm3.51-.791c0,.453.056,2,.056,2.81a1.408,1.408,0,0,1-.4,1.057,2.275,2.275,0,0,1-1.641.511c-.17,0-.227-.076-.283-.379-.132-.661-.472-1-1.945-1.339-.094-.019-.075-.245.019-.245.755.039,1.567.058,2.209.058.245,0,.283-.039.283-.3v-3.565h-3.756a6.756,6.756,0,0,0-1.152.113l-.206-.7a6.34,6.34,0,0,0,1.358.151h7.869c.868-1.038,1.094-1.19,1.227-1.19.17,0,.378.151,1.207.831.378.3.529.47.529.6s-.057.19-.246.19h-5.133Zm-4.285-5.567c0,.452-.264.661-.942.661-.453,0-.68-.151-.68-.529,0-.359.057-.793.057-2.228,0-.829-.017-1.66-.076-2.51a14.815,14.815,0,0,1,1.773.813h1.208v-2.039h-1.926a12.468,12.468,0,0,0-1.509.112l-.208-.7a10.268,10.268,0,0,0,1.736.151h7.455c.848-1.057,1.076-1.208,1.208-1.208.168,0,.4.151,1.226.85.4.34.566.472.566.6s-.056.189-.245.189h-3.926v2.039h1.358c.529-.606.681-.719.833-.719.189,0,.357.113,1,.623.3.247.414.379.414.529s-.149.34-.529.566v.453c0,1.207.057,1.981.057,2.245,0,.4-.3.585-.982.585-.451,0-.678-.171-.678-.527V225.9H1509.8Zm5.265,1.566c.757-.924.982-1.075,1.114-1.075.171,0,.378.151,1.133.754.321.264.472.436.472.568s-.057.189-.247.189h-7.414a5.465,5.465,0,0,0-1.04.113l-.206-.7a5.357,5.357,0,0,0,1.246.149Zm-3.924-4.925H1509.8v2.774h1.341Zm2.906-2.472h-1.416v2.039h1.416Zm0,5.246v-2.774h-1.416v2.774Zm4,9.455c-.472,0-.7-.208-.944-.869a6.9,6.9,0,0,0-2.075-2.963c-.075-.057.057-.17.149-.151,2.4.7,3.832,1.68,3.832,2.889A.981.981,0,0,1,1518.052,234.922Zm-1.057-12.229h-1.473v2.774h1.473Z" transform="translate(-1501.48 -218.344)" fill="#fff"/>
      <path id="パス_2523" data-name="パス 2523" d="M1504.223,235.61c0-.876.1-4.159.138-7.265h0a10.578,10.578,0,0,1-2.2,3.224h0a.3.3,0,0,1-.233.11h0a.357.357,0,0,1-.365-.351h0c0-.03,0-.132.035-.129h0a27.3,27.3,0,0,0,2.409-7.468h-.5a7.37,7.37,0,0,0-1.155.109h0a.234.234,0,0,1-.264-.167h0l-.206-.7a.236.236,0,0,1,.053-.227h0a.231.231,0,0,1,.22-.069h0a6.676,6.676,0,0,0,1.352.143h.742v-1.706c0-.9-.019-1.632-.091-2.393h0a.212.212,0,0,1,.069-.19h0a.245.245,0,0,1,.19-.071h0c1.972.249,2.466.242,2.57.88h0c-.012.345-.266.526-.661.688h0v2.182a.74.74,0,0,1,.557-.387h0c.354.027.494.242,1.005.793h0c.06.074.121.145.176.216h0c-.013-.425-.03-.854-.06-1.286h0a.229.229,0,0,1,.1-.209h0a.239.239,0,0,1,.225-.028h0a15.41,15.41,0,0,1,1.748.8h0l.913,0v-1.564h-1.69a11.307,11.307,0,0,0-1.48.113h0a.24.24,0,0,1-.257-.17h0l-.208-.7a.241.241,0,0,1,.046-.223h0a.243.243,0,0,1,.219-.076h0a9.854,9.854,0,0,0,1.7.149h7.344c.806-.976.985-1.169,1.32-1.207h0c.337.022.54.214,1.377.9h0c.381.354.606.426.651.784h0a.408.408,0,0,1-.137.326h0a.518.518,0,0,1-.344.1h-3.69v1.567h1.017c.477-.53.634-.7.939-.718h0c.319.009.507.173,1.147.673h0c.3.247.491.414.5.713h0c-.016.286-.2.481-.527.7h0v.324c0,1.2.057,1.959.057,2.245h0c0,.571-.529.82-1.219.82h0a.838.838,0,0,1-.9-.639h-6.731c-.047.529-.507.809-1.176.812h0a.975.975,0,0,1-.774-.329h0a1.778,1.778,0,0,1,.159.716h0a1.1,1.1,0,0,1-1.028,1.2h0c-.45.014-.7-.382-.761-.9h0a6.237,6.237,0,0,0-.208-.949h0c.009,2.835.06,6.234.072,8.056h0c.019-.046.049-.085.082-.091h0a10.569,10.569,0,0,0,2.137-2.614h0a11.48,11.48,0,0,0,.59-1.275h0a.236.236,0,0,1,.134-.135h0a.243.243,0,0,1,.19.008h0c1.632.829,2.042.972,2.132,1.476h0c-.038.434-.427.527-.911.54h0a10.638,10.638,0,0,1-3.91,2.59h0a.332.332,0,0,1-.105.016h0a.364.364,0,0,1-.337-.245h0c0,.164,0,.312,0,.439h0c0,.625-.6.859-1.219.862h0c-.513,0-.969-.25-.969-.785Zm.426-8.706a.239.239,0,0,1,.192.234h0c-.019,3.421-.148,7.5-.148,8.472h0c.028.261.031.271.5.31h0c.585-.022.746-.138.746-.387h0c0-1.635-.077-6.355-.077-9.752h0a.238.238,0,0,1,.094-.19h0a.239.239,0,0,1-.094-.187h0V223.5a.244.244,0,0,1,.069-.168h0a.226.226,0,0,1,.074-.05h0a.249.249,0,0,1-.074-.049h0a.247.247,0,0,1-.069-.168h0v-3.186a.232.232,0,0,1,.151-.22h0c.5-.2.519-.285.51-.31h0l-.008-.031a.7.7,0,0,0-.239-.094h0a12.029,12.029,0,0,0-1.616-.249h0c.055.681.071,1.352.071,2.149h0v1.942a.234.234,0,0,1-.071.168h0a.238.238,0,0,1-.167.071h-.074a.135.135,0,0,1,.047.042h0a.23.23,0,0,1,.053.19h0a27.543,27.543,0,0,1-2.134,7.095h0a11.223,11.223,0,0,0,2-3.577h0a.24.24,0,0,1,.222-.149h0a.378.378,0,0,1,.042,0Zm4.39,5.446a10.988,10.988,0,0,1-1.743,2.272h0a10.08,10.08,0,0,0,3.2-2.288h0l.172-.074a1.655,1.655,0,0,0,.5-.055h0c.036,0,.023,0,.033-.011h0l-.024-.017a1.339,1.339,0,0,0-.253-.2h0a14.641,14.641,0,0,0-1.365-.729h0a11.266,11.266,0,0,1-.522,1.1Zm1.627.384v0Zm-3.658-5.093c.123.511.143.492.3.505h0c.321,0,.545-.241.557-.722h0c.01-.64-.541-1.27-1.493-1.669h0a4.3,4.3,0,0,1,.639,1.887Zm1.553-3.6c0,1.438-.057,1.891-.057,2.228h0c.031.247.022.25.444.291h0c.656-.044.677-.1.707-.423h0v-.151a.234.234,0,0,1,.071-.167h0a.237.237,0,0,1,.074-.05h0a.261.261,0,0,1-.074-.049h0a.245.245,0,0,1-.071-.167h0v-2.776a.246.246,0,0,1,.071-.168h0a.235.235,0,0,1,.165-.068h0a14.364,14.364,0,0,0-1.388-.65h0c.041.727.053,1.437.053,2.149Zm-.491,2.469a.778.778,0,0,1-.036-.241h0c0-.384.055-.8.055-2.228h0v-.375h0a.591.591,0,0,1-.29.065h-1.465v1.5a3.294,3.294,0,0,1,1.735,1.278Zm9.175-.691a.222.222,0,0,1,.071.167h0v.115c.027.225.034.252.444.288h0c.67-.028.735-.126.747-.346h0c0-.244-.057-1.034-.057-2.245h0v-.453l.113-.2c.365-.208.419-.354.416-.362h0c.006-.008-.025-.1-.327-.345h0c-.644-.518-.8-.584-.851-.571h0s-.131.022-.655.637h0l-.1.042h.033v0a.213.213,0,0,1,.162.071h0a.221.221,0,0,1,.071.165h0v2.776a.225.225,0,0,1-.071.164h0a.242.242,0,0,1-.072.052h0a.2.2,0,0,1,.072.05Zm-1.765-.069a.313.313,0,0,1-.038-.03h0a.234.234,0,0,1-.068-.167h0v-2.776a.236.236,0,0,1,.068-.168h0a.2.2,0,0,1,.075-.049h0a.207.207,0,0,1-.075-.052h0a.224.224,0,0,1-.068-.167h0v-2.034a.24.24,0,0,1,.068-.172h0a.244.244,0,0,1,.038-.03h-1.217a.275.275,0,0,1,.039.035h0a.226.226,0,0,1,.071.167h0v2.034a.228.228,0,0,1-.071.167h0a.2.2,0,0,1-.074.052h0a.219.219,0,0,1,.074.052h0a.227.227,0,0,1,.071.165h0v2.776a.232.232,0,0,1-.071.164h0a.408.408,0,0,1-.039.033h1.217Zm-2.886,0a.351.351,0,0,1-.039-.03h0a.244.244,0,0,1-.069-.167h0v-2.776a.245.245,0,0,1,.069-.168h0a.224.224,0,0,1,.075-.049h0a.238.238,0,0,1-.075-.052h0a.233.233,0,0,1-.069-.167h0v-2.034a.249.249,0,0,1,.069-.172h0l.038-.03h-1.233a.289.289,0,0,1,.039.035h0a.223.223,0,0,1,.068.167h0v2.034a.225.225,0,0,1-.068.167h0a.246.246,0,0,1-.072.052h0a.213.213,0,0,1,.072.052h0a.224.224,0,0,1,.068.165h0v2.776a.228.228,0,0,1-.068.164h0a.43.43,0,0,1-.041.033h1.237Zm1.542-.2v0Zm1.708-.238h1v-2.3h-1v2.3Zm-2.889,0h.946v-2.3h-.946v2.3Zm-2.828,0H1511v-2.3h-.869v2.3Zm-7.638-1.975c.192-.028.368-.049.535-.063h0c-.179-.014-.368-.036-.573-.069h0l.038.132Zm5.289-.085a1.433,1.433,0,0,0-.235-.321h0c-.507-.584-.639-.653-.653-.639h0c0,.016-.006-.006-.1.1h0a3.426,3.426,0,0,0-.442.765h0l-.15.1Zm3.454-.478v0Zm1.723-.669h.946v-1.567h-.946v1.567Zm1.18-1.8v0Zm-6.17-.148c.275-.033.519-.055.75-.071h0c-.247-.014-.507-.039-.8-.079h0l.046.149Zm11.522-.088-.011-.011h0c-.077-.082-.22-.2-.417-.368h0c-.82-.7-1.057-.807-1.073-.793h0c0,.019-.011-.011-.173.142h0a10.451,10.451,0,0,0-.851.979h0l-.107.052Zm-7.809,15.68c-.131-.562-.3-.791-1.761-1.156h0a.339.339,0,0,1-.255-.343h0a.341.341,0,0,1,.33-.367h0c.754.036,1.563.052,2.2.052h0l.046,0h0c0-.019,0-.039,0-.065h0v-3.331h-3.518a6.411,6.411,0,0,0-1.114.11h0a.243.243,0,0,1-.267-.167h0l-.2-.7a.222.222,0,0,1,.053-.227h0a.226.226,0,0,1,.22-.074h0a6.1,6.1,0,0,0,1.311.148h7.76c.825-.96,1-1.15,1.334-1.19h0c.338.028.516.216,1.354.881h0c.376.321.587.467.615.787h0a.393.393,0,0,1-.138.327h0a.528.528,0,0,1-.34.1h0l-4.9,0v1.164c0,.441.057,1.992.057,2.809h0a1.637,1.637,0,0,1-.459,1.219h0a2.5,2.5,0,0,1-1.813.584h0l-.038,0h0c-.272,0-.467-.3-.477-.568Zm.461-.091a.86.86,0,0,0,.053.2h0v-.011a2.074,2.074,0,0,0,1.474-.441h0a1.168,1.168,0,0,0,.327-.892h0c0-.8-.056-2.348-.056-2.809h0v-1.4a.22.22,0,0,1,.071-.167h0a.113.113,0,0,1,.036-.03h-1.438a.162.162,0,0,1,.036.03h0a.231.231,0,0,1,.069.167h0v3.567a.581.581,0,0,1-.112.409h0a.528.528,0,0,1-.407.127h0c-.376,0-.812-.008-1.257-.02h0a1.593,1.593,0,0,1,1.2,1.268Zm-4.4-5.506c.181-.028.351-.047.511-.061h0c-.175-.014-.354-.036-.549-.068h0l.038.129Zm11.546-.083-.03-.036h0a3.088,3.088,0,0,0-.379-.338h0c-.82-.688-1.043-.79-1.056-.777h0c0,.02-.011-.009-.178.145h0a11.3,11.3,0,0,0-.869.961h0l-.1.046Zm-2.307,4.151a6.656,6.656,0,0,0-2-2.857h0a.291.291,0,0,1-.123-.23h0c.045-.274.193-.323.385-.351h0a.24.24,0,0,1,.09.014h0c2.411.711,3.971,1.688,4,3.116h0a1.235,1.235,0,0,1-1.194,1.33h0v-.472c.427-.011.708-.293.724-.858h0c.031-.921-1.094-1.835-3.163-2.511h0a6.842,6.842,0,0,1,1.715,2.651h0c.268.647.343.7.724.717h0v.472h-.044c-.541,0-.906-.365-1.12-1.021Zm-8.028-5.9-.208-.7a.23.23,0,0,1,.054-.228h0a.238.238,0,0,1,.226-.071h0a5.027,5.027,0,0,0,1.191.148h4.835c.716-.848.9-1.038,1.224-1.079h0c.335.028.515.216,1.282.812h0c.321.28.532.43.557.747h0a.412.412,0,0,1-.14.329h0a.522.522,0,0,1-.341.094h-7.417a5.518,5.518,0,0,0-.995.11h0a.171.171,0,0,1-.041,0h0a.236.236,0,0,1-.228-.165Zm.394-.338c.16-.027.308-.046.451-.058h0c-.156-.013-.316-.035-.488-.061h0l.036.12Zm8.264-.08-.03-.033h0a2.609,2.609,0,0,0-.32-.3h0c-.746-.609-.971-.717-.985-.7h0c0,.019-.012-.013-.165.129h0a9.245,9.245,0,0,0-.769.861h0l-.1.049Zm-2.448-.2v0Z" transform="translate(-1501.568 -218.429)" fill="#fff"/>
    </g>
  </g>
</svg>
