<svg xmlns="http://www.w3.org/2000/svg" width="611.08" height="82" viewBox="0 0 611.08 82">
  <g id="グループ_934" data-name="グループ 934" transform="translate(-289.355 -213)">
    <g id="グループ_631" data-name="グループ 631" transform="translate(279.915 212.022)">
      <path id="パス_4159" data-name="パス 4159" d="M8.055-.6V-6.645H13.23V-7.74H8.055v-4.755H6.885V-7.74h-5.1v1.095h5.1V-.6H.84V.5H14.19V-.6ZM14.25,7.615H10.065V6.46H9V7.615H4.965v.9H14.25Zm-.015,2.625a17.016,17.016,0,0,0-3.015-1.6l-.705.555A18.733,18.733,0,0,1,13.5,10.87ZM7.755,8.68A10.768,10.768,0,0,1,4.92,10.21a6.517,6.517,0,0,1,.72.72A13.921,13.921,0,0,0,8.655,9.01Zm-3.18,6-1.215.585V11.11h1.3V10.075H3.36V6.64H2.34v3.435H.825V11.11H2.34v4.635c-.705.33-1.335.63-1.845.84l.435,1.05c1.14-.585,2.58-1.305,3.93-2Zm3.81-.855h2.34v.915H8.385Zm0-1.71h2.34V13H8.385Zm4.98,3.8a19.963,19.963,0,0,1-1.95,1.32,6.581,6.581,0,0,1-.9-1.62h3.72v-.87H11.7v-.915h1.8V13H11.7v-.885h2.13v-.84H11.7v-1.05h-.975v1.05H8.385v-1.05H7.41v1.05H5.355v.84H7.41V13H5.7v.825H7.41v.915H4.92v.87H8.16a13.19,13.19,0,0,1-3.9,1.62,5.237,5.237,0,0,1,.63.825,19.438,19.438,0,0,0,2.055-.81v1.6c-.585.1-1.125.18-1.575.255l.195.915c1.395-.24,3.27-.585,5.1-.915l-.06-.87-2.685.45V16.75a9.009,9.009,0,0,0,1.635-1.14,6.834,6.834,0,0,0,4.305,4.545,4.636,4.636,0,0,1,.66-.855,5.882,5.882,0,0,1-2.58-1.485,16.358,16.358,0,0,0,2.1-1.32ZM4.89,25.76A12.74,12.74,0,0,1,.405,31.4a6.483,6.483,0,0,1,.945.855A15.454,15.454,0,0,0,6.06,26.09ZM2.835,31.085v1.08h3.06c-.345,2.535-1.17,4.9-4.7,6.075a4.423,4.423,0,0,1,.72.975c3.81-1.38,4.77-4.1,5.16-7.05h3.87c-.18,3.78-.39,5.28-.78,5.655-.135.165-.315.195-.63.195-.345,0-1.275-.015-2.25-.1a2.712,2.712,0,0,1,.375,1.11,21.488,21.488,0,0,0,2.355.03,1.5,1.5,0,0,0,1.155-.525c.51-.57.735-2.3.945-6.9.015-.15.03-.54.03-.54Zm6.18-4.935a19.838,19.838,0,0,0,4.65,5.97,5.736,5.736,0,0,1,.915-.99,15.872,15.872,0,0,1-4.515-5.4ZM6.3,52.59c-.315-.4-1.635-2.04-2.1-2.565v-1.32H6.255v-1.05H4.2v-3.21H3.15v3.21H.825v1.05H3a16.063,16.063,0,0,1-2.52,5.64,6.746,6.746,0,0,1,.585,1A16.344,16.344,0,0,0,3.15,50.97v7.155H4.2v-6.78c.525.735,1.14,1.65,1.41,2.145Zm8.085-3.045H8.355V46.89a27.494,27.494,0,0,0,5.355-1.41l-.945-.855a24.659,24.659,0,0,1-4.545,1.32l-.945-.285v4.215c0,2.235-.165,5.25-1.845,7.47a3.329,3.329,0,0,1,.84.735C7.92,55.89,8.3,52.9,8.34,50.61h2.715v7.53h1.11V50.61h2.22Z" transform="translate(51.06 17.978)"/>
      <g id="グループ_505" data-name="グループ 505" transform="translate(6.143 0)">
        <path id="パス_4160" data-name="パス 4160" d="M10.8-6.885v-.54h1.65c.66,0,1.215.03,1.38.045V-8.64a11.029,11.029,0,0,1-1.38.075H10.8V-10.44a11.372,11.372,0,0,1,.075-1.23H9.525A8.362,8.362,0,0,1,9.6-10.44v1.875H5.325v-1.92a9.258,9.258,0,0,1,.075-1.1H4.065a9.264,9.264,0,0,1,.06,1.1v1.92H2.5A11,11,0,0,1,1-8.67v1.305c.18-.015.855-.06,1.5-.06h1.62v2.43c0,.57-.045,1.215-.06,1.365h1.32c-.015-.15-.06-.81-.06-1.365v-2.43H9.6v.63c0,4.2-1.365,5.49-4.095,6.54l1,.945C9.945-.84,10.8-2.895,10.8-6.885Zm.12,33.125-.8.345A17.142,17.142,0,0,1,11.34,28.67l.81-.375A23.246,23.246,0,0,0,10.92,26.24Zm1.65-.6-.795.345a15.769,15.769,0,0,1,1.245,2.07l.81-.375A21.462,21.462,0,0,0,12.57,25.64ZM4.185,26.75H2.79a8.13,8.13,0,0,1,.09,1.215v8.25c0,1.215.645,1.74,1.8,1.95a15.763,15.763,0,0,0,2.4.15A41.939,41.939,0,0,0,12.27,38V36.635a24.55,24.55,0,0,1-5.13.48,14.255,14.255,0,0,1-1.98-.12c-.735-.15-1.05-.345-1.05-1.11v-3.3a57.5,57.5,0,0,0,6.135-1.95c.45-.165.99-.405,1.41-.585l-.525-1.2a10.935,10.935,0,0,1-1.32.675,40.858,40.858,0,0,1-5.7,1.83v-3.39A9.961,9.961,0,0,1,4.185,26.75ZM12,46.965l-.765-.585a4.107,4.107,0,0,1-1.125.12H4.32c-.45,0-1.3-.06-1.515-.09v1.365c.165-.015.99-.075,1.515-.075h5.85a13.2,13.2,0,0,1-2.49,4.17A17.153,17.153,0,0,1,1.5,56.325l.96,1.005a19.016,19.016,0,0,0,5.85-4.38A34.633,34.633,0,0,1,12.435,57.4l1.05-.9A41.609,41.609,0,0,0,9.1,52.02a18.984,18.984,0,0,0,2.52-4.4A4.3,4.3,0,0,1,12,46.965Z" transform="translate(2.292 17)"/>
        <path id="パス_4161" data-name="パス 4161" d="M1.53-6.495v1.47C2-5.07,2.79-5.1,3.615-5.1H11.85c.675,0,1.3.06,1.6.075v-1.47c-.33.03-.87.075-1.62.075H3.615C2.775-6.42,1.98-6.465,1.53-6.495Z" transform="translate(3.918 23.064) rotate(90)"/>
      </g>
      <path id="パス_361" data-name="パス 361" d="M16998.705,4781.548v82" transform="translate(-16919.646 -4780.57)" fill="none" stroke="#000" stroke-width="1"/>
      <path id="パス_499" data-name="パス 499" d="M16998.705,4781.548v82" transform="translate(-16960.645 -4780.57)" fill="none" stroke="#000" stroke-width="1"/>
    </g>
    <path id="パス_4162" data-name="パス 4162" d="M21.08-.16V-17.24H34.6c.4,0,.52-.16.52-.4s-.16-.52-1.12-1.28c-2-1.6-2.28-1.8-2.56-1.8-.24,0-.52.2-2.44,2.48H21.08V-30.68c1.16-.4,1.48-.72,1.48-1.08,0-.44-.52-.84-4.84-1.24.16,1.64.2,3.96.2,8.28v6.48H9.12a26.312,26.312,0,0,1-3.84-.28l.4,1.56a20.839,20.839,0,0,1,3.4-.28h8.84V-.16H5.88a24.371,24.371,0,0,1-4-.32l.4,1.56A22.975,22.975,0,0,1,5.88.84H37.64c.4,0,.52-.12.52-.4,0-.24-.2-.48-1.2-1.32-2.12-1.76-2.4-1.96-2.68-1.96-.24,0-.52.2-2.56,2.68ZM60.12-20.88H64.8c.36,0,.52-.12.52-.4s-.2-.56-.72-1.04c-1.28-1.2-1.56-1.36-1.8-1.36s-.6.16-1.68,1.8h-1v-8.08c1.16-.56,1.4-.76,1.4-1.08,0-.44-.48-.72-4.44-1.12a57.084,57.084,0,0,1,.2,6.68v3.6H55.44a12.005,12.005,0,0,1-2.6-.28l.4,1.52a13.049,13.049,0,0,1,2.32-.24h1.72v11.6c-.88.36-1.68.64-2.44.92a12.873,12.873,0,0,1-2.48.6c1.6,3.8,1.76,3.92,2.2,3.92s.64-.4.72-1.6a47.813,47.813,0,0,0,8.28-5.44l.32,1.28a13.707,13.707,0,0,1,2.8-.24h4.96c-2.56,2.8-6.88,5.48-12.2,7.48-.28.08-.08.68.2.6a42.093,42.093,0,0,0,8.92-3.08V-.32c-.64.08-1.28.16-1.88.24A17.973,17.973,0,0,1,64.2.08c1.08,3.24,1.44,3.88,1.76,3.88.36,0,.64-.32.76-1.32A50.9,50.9,0,0,0,78.2-1.76c.2-.12.04-.6-.2-.52A62.442,62.442,0,0,1,71.28-.76V-6.4a31.015,31.015,0,0,0,4.24-3.32,18.849,18.849,0,0,0,4.8,8.12,22.549,22.549,0,0,0,6.12,4.2,4.646,4.646,0,0,0,1.28.44c.28,0,.4-.16.56-.72.48-1.28.92-1.68,1.88-1.96.24-.08.28-.48.04-.52A22.117,22.117,0,0,1,81.36-3.6a12.051,12.051,0,0,1-1.12-.88,24.063,24.063,0,0,0,4.64-2.16c1.32.08,1.76-.04,1.76-.36,0-.4-.68-.84-3.24-2.32a5.747,5.747,0,0,1-1.08,1.68A21.021,21.021,0,0,1,79.64-5,16.655,16.655,0,0,1,76.2-9.84H88.84c.4,0,.52-.16.52-.4s-.16-.48-.8-1.04c-1.44-1.08-1.76-1.28-2.04-1.28-.24,0-.44.16-1.76,1.72h-4v-3.68h6.12c.4,0,.52-.12.52-.4,0-.24-.16-.52-.76-1-1.36-1.04-1.64-1.24-1.92-1.24-.24,0-.44.2-1.64,1.64H80.76v-3.36h6.76c.4,0,.56-.12.56-.4,0-.24-.2-.52-.76-1-1.44-1.08-1.72-1.28-2-1.28-.24,0-.52.2-1.64,1.68H80.76v-1.88c.8-.32,1-.56,1-.84,0-.32-.32-.56-3.72-.84A27.26,27.26,0,0,1,78.16-20v.12H73.12v-1.88c.8-.36,1.04-.6,1.04-.84,0-.32-.32-.56-3.76-.88a27.26,27.26,0,0,1,.12,3.44v.16H67.8a17.167,17.167,0,0,1-3.04-.28l.44,1.52a17.019,17.019,0,0,1,2.68-.24h2.64v3.36h-2a16.745,16.745,0,0,1-3-.28l.44,1.52a13.042,13.042,0,0,1,2.6-.24h1.96v3.68H66.64a17.013,17.013,0,0,1-2.84-.24c.48-.4.96-.84,1.4-1.28.16-.16-.08-.52-.24-.44-1.44.8-3.12,1.6-4.84,2.36Zm13,10.04v-3.68h5.04v3.68Zm0-4.68v-3.36h5.04v3.36Zm4-13.52v-2.28c.92-.36,1.24-.64,1.24-.92,0-.4-.44-.72-4.24-1.08.08,1.12.12,1.88.12,2.56v1.72H67.4a16.033,16.033,0,0,1-3.28-.28l.4,1.52a21,21,0,0,1,3-.24H88.36c.4,0,.52-.12.52-.36s-.12-.52-.88-1.16C86.4-30.84,86-31,85.76-31s-.56.2-2.04,1.96ZM85.88-22a1.169,1.169,0,0,0,1.16-1.28c0-1.8-3.64-3.64-8.6-3.96-.24,0-.36.44-.12.52a16.624,16.624,0,0,1,6.08,3.8C85.12-22.2,85.44-22,85.88-22Zm-20.36.2A19.262,19.262,0,0,0,73-25.32c1.2,0,1.52-.16,1.52-.48,0-.36-.56-.68-3.32-1.84a8.548,8.548,0,0,1-1.76,2.28,20.376,20.376,0,0,1-4.12,3.04C65.12-22.2,65.28-21.76,65.52-21.8ZM130.08-16a65.11,65.11,0,0,1-1.4,11.64c-.64,2.4-1.16,3.32-2.32,3.32a39.521,39.521,0,0,1-5.92-.72c-.28-.04-.32.68-.04.76,3.56.92,4.4,1.6,4.6,2.64.12.72.36.84,1.08.84a4.856,4.856,0,0,0,3.08-1.04,6.474,6.474,0,0,0,2-3.36c1-2.88,1.48-7.16,1.84-13.04.96-.64,1.12-.76,1.12-1.04,0-.24-.16-.44-.8-1.08-1.4-1.28-1.64-1.44-1.88-1.44-.28,0-.48.16-1.8,1.52H113.88a14.286,14.286,0,0,1-3.56-.4l.44,1.68A14.58,14.58,0,0,1,114-16h3.6c-.88,8.92-4.6,14.12-13.16,18.48-.24.12,0,.72.28.64C114.96.04,119.88-5.8,120.84-16Zm8.6,1.08c.28,0,.44-.2.6-.8.44-1.44.88-1.96,1.88-2.08.24-.04.32-.48.08-.56a20.582,20.582,0,0,1-8.4-4.52,21.769,21.769,0,0,1-5.68-8.04,2.377,2.377,0,0,1-.2-.76c0-.2.16-.52.16-.64a.327.327,0,0,0-.36-.32c-.4,0-1.52.4-1.52.68q0,.24.36.48a1.522,1.522,0,0,1,.52.72c1.88,5.04,3.52,8,5.84,10.56a27.043,27.043,0,0,0,5.08,4.48A5.077,5.077,0,0,0,138.68-14.92Zm-34.56.64c6.88-3.72,11.12-8.36,14.6-15.56,1.36-.12,1.68-.36,1.68-.84,0-.44-.92-.96-4.48-2.16a19.559,19.559,0,0,1-1.48,4.48,35.6,35.6,0,0,1-10.68,13.52C103.52-14.68,103.88-14.16,104.12-14.28Zm59.92-8.64h5.64c.4,0,.52-.12.52-.4,0-.24-.16-.52-.76-1.04-1.44-1.36-1.72-1.56-1.96-1.56s-.56.2-1.8,2h-1.64V-31.2c1.12-.44,1.4-.72,1.4-1.12,0-.48-.44-.68-4.32-1.12a44.972,44.972,0,0,1,.2,5.24v4.28h-3.08a12.713,12.713,0,0,1-2.88-.28l.44,1.52a16.428,16.428,0,0,1,2.52-.24H161a51.4,51.4,0,0,1-6.44,16.56c-.12.2.28.52.44.36a32.214,32.214,0,0,0,6.52-10.6C161.4-4.68,161.2.92,161.2,2.28c0,.68.4,1.04,1.24,1.04,1.08,0,1.76-.44,1.76-1.24,0-1.28-.2-4.48-.16-20.2a7.829,7.829,0,0,1,2.68,4.56c.24.96.64,1.32,1.16,1.32A1.594,1.594,0,0,0,169.44-14c0-1.64-1.88-3.52-5.4-4.76Zm20.32,4.48h7.16c.4,0,.56-.12.56-.36,0-.28-.2-.52-1-1.16-1.64-1.48-1.92-1.68-2.24-1.68-.24,0-.56.2-2.2,2.2H174.52c.04-.96.04-2,.04-3.08V-26a38.836,38.836,0,0,0,12.84-4.28,4.406,4.406,0,0,0,1.32.2c.52,0,.8-.16.8-.44,0-.4-.68-1.08-3.32-3.08a16.464,16.464,0,0,1-2.8,2.4,29.662,29.662,0,0,1-8.52,4.24,23.411,23.411,0,0,0-3.52-1.64,66.125,66.125,0,0,1,.28,7.72,61.229,61.229,0,0,1-1.04,12.8,23.942,23.942,0,0,1-4.92,10.76c-.16.2.32.56.52.4a20.556,20.556,0,0,0,6.84-10.44,44.389,44.389,0,0,0,1.48-11.08h6.96V-7.48c0,5.88-.16,8.64-.16,9.48,0,.68.4,1.08,1.32,1.08,1.24,0,1.88-.48,1.88-1.32,0-1.36-.16-5.72-.16-10.96Zm39.52-7.4a17.412,17.412,0,0,1,2.12-.08,11.586,11.586,0,0,1,7.44,2.6,10.093,10.093,0,0,1,3.36,7.64,11.3,11.3,0,0,1-3.6,8.28c-2.48,2.44-6.72,4.28-10.88,5.08-.52.12-.72.24-.72.56a.565.565,0,0,0,.56.48c4.88-.24,10.36-1.92,13.32-4.48a11.31,11.31,0,0,0,4.32-9.36,11.419,11.419,0,0,0-4.44-9.08,14.712,14.712,0,0,0-9.28-3.08,17.1,17.1,0,0,0-12.8,5.24,14.554,14.554,0,0,0-3.76,9.44,8.786,8.786,0,0,0,1.84,5.92,3.691,3.691,0,0,0,3,1.6c1.68,0,2.92-1.16,4.04-2.6a40.279,40.279,0,0,0,5.72-10.36,15.978,15.978,0,0,0,1.04-4.68A4.676,4.676,0,0,0,223.88-25.84Zm-1.08.12a2.48,2.48,0,0,1,.64,1.84,8.754,8.754,0,0,1-.56,3.16,42.5,42.5,0,0,1-5.72,10.4c-1.16,1.56-1.96,2.28-2.8,2.28a2.244,2.244,0,0,1-1.88-1.36,6.9,6.9,0,0,1-.88-3.72,12.468,12.468,0,0,1,3.48-8.64A14.115,14.115,0,0,1,222.8-25.72Zm60.08,4.92v-3.8H294c.4,0,.56-.12.56-.36s-.2-.56-.96-1.2c-1.68-1.32-1.96-1.52-2.24-1.52s-.56.2-2.16,2.08h-6.32v-3.56a48.88,48.88,0,0,0,6.6-1.44,6.5,6.5,0,0,0,1.48.24c.4,0,.64-.12.64-.28,0-.36-.6-.96-3.16-2.92a15.8,15.8,0,0,1-4.24,1.88A64.625,64.625,0,0,1,271.36-29c-.28.04-.2.6.08.6a81.3,81.3,0,0,0,8.72-.44v3.24h-7.4a14.512,14.512,0,0,1-2.84-.28l.4,1.52a13.944,13.944,0,0,1,2.44-.24h7.4v3.8H275a24.61,24.61,0,0,0-3.12-1.48c.16,2.04.2,3.64.2,6.64,0,5-.16,6.4-.16,7.28,0,.76.32,1.08,1.16,1.08,1.08,0,1.68-.4,1.68-1.2V-9h5.4v4.16H273.2a10.041,10.041,0,0,1-2.8-.32l.4,1.56a13.521,13.521,0,0,1,2.4-.24h6.96V.56h-8.72a16.114,16.114,0,0,1-3-.28l.44,1.52a14.531,14.531,0,0,1,2.56-.24h22.88c.4,0,.56-.12.56-.4,0-.24-.2-.52-.88-1.08-1.6-1.4-1.88-1.56-2.16-1.56-.24,0-.52.2-2.08,2.04h-6.88v-4.4h9.72c.4,0,.52-.12.52-.36s-.2-.48-.84-1.04c-1.48-1.28-1.76-1.48-2.04-1.48-.24,0-.52.24-1.88,1.88h-5.48V-9h5.8v.32c0,.72.36,1,1.24,1,1.04,0,1.64-.4,1.64-1.24,0-.72-.12-2.92-.12-7.56v-2.48c.8-.56.96-.76.96-1.04,0-.24-.16-.48-.76-1.04-1.16-.96-1.4-1.12-1.64-1.12-.28,0-.48.16-1.56,1.36Zm0,1h5.8v4.28h-5.8Zm-2.72,0v4.28h-5.4V-19.8Zm-5.4,5.28h5.4V-10h-5.4ZM288.68-10h-5.8v-4.52h5.8Zm-23-10.8h5.08c.4,0,.56-.12.56-.4s-.2-.52-.8-1c-1.32-1.12-1.6-1.28-1.84-1.28-.28,0-.56.16-1.76,1.68h-1.24v-7.56a35.347,35.347,0,0,0,3.48-1.2c1.36.24,1.8,0,1.8-.36s-.56-.84-2.88-2.56a11.692,11.692,0,0,1-2.44,1.8,38.772,38.772,0,0,1-7.96,3.16c-.2.04-.08.48.12.48a41.22,41.22,0,0,0,5.16-.68v6.92h-3.12a11.4,11.4,0,0,1-2.56-.28l.4,1.52a11.182,11.182,0,0,1,2.2-.24h2.8a47.537,47.537,0,0,1-5.8,15.2c-.12.2.28.44.44.28a30.443,30.443,0,0,0,5.88-9.12c-.12,10.36-.48,15.48-.48,16.68,0,.72.4,1.08,1.36,1.08,1.16,0,1.72-.4,1.72-1.28,0-1.16-.12-6.36-.12-13.64v-5.32A8.324,8.324,0,0,1,268-12.84c.32,1.36.64,1.64,1.24,1.64.72,0,1.24-.76,1.24-1.64,0-1.72-1.64-3.48-4.8-4.64Zm53.52-2.36h7.36c.36,0,.48-.12.48-.4,0-.2-.2-.48-.64-.84-1.36-1.24-1.64-1.44-1.88-1.44s-.52.2-1.64,1.68H319.2v-7.2c1-.4,1.24-.6,1.24-.96,0-.44-.52-.64-3.92-1,.12,1.48.16,2.36.16,4.68v4.48h-4.84a17.694,17.694,0,0,1-3.12-.28l.4,1.48a18.722,18.722,0,0,1,2.8-.2h3.44a22.755,22.755,0,0,1-7.12,8.72c-.2.16.08.64.28.52a19.812,19.812,0,0,0,8.24-7.12c-.16,2.48-.2,4.2-.2,4.68,0,.64.4.92,1.2.92,1.04,0,1.52-.36,1.52-1.2,0-.72-.04-1.72-.08-4.28a13.307,13.307,0,0,1,3.92,3.68c.72,1.16,1,1.36,1.44,1.36a1.345,1.345,0,0,0,1.28-1.48c0-1.6-1.72-3.16-6.64-4.32ZM330.6-5.84h9.64v.64c0,.8.36,1.08,1.24,1.08,1.16,0,1.72-.36,1.72-1.28,0-1.16-.16-5.04-.16-12.8v-4.56c.88-.52,1.12-.8,1.12-1.16,0-.24-.16-.48-.8-.96-1.32-1.08-1.56-1.24-1.84-1.24-.24,0-.44.16-1.6,1.52h-5.84a30.465,30.465,0,0,0,3.32-5.44h7.96c.4,0,.52-.12.52-.36s-.16-.48-.92-1.08c-1.64-1.36-1.92-1.56-2.2-1.56-.24,0-.56.2-2.16,2H329.48a12.18,12.18,0,0,1-2.84-.28l.4,1.52a15.137,15.137,0,0,1,2.48-.24H334a36.24,36.24,0,0,1-1.04,5.44h-2a18.629,18.629,0,0,0-3.36-1.64c.2,2.76.24,4.52.24,9.4,0,7.52-.2,10.52-.2,11.76,0,.68.36,1,1.24,1,1.08,0,1.72-.36,1.72-1.2Zm0-12.08h9.64v4.8H330.6Zm9.64-1H330.6V-23.6h9.64Zm-9.64,6.8h9.64v5.28H330.6Zm-4.24,2.44c.4,0,.52-.12.52-.36s-.16-.56-.84-1.08c-1.48-1.24-1.72-1.44-2-1.44-.24,0-.52.2-1.84,1.88h-3.36a16.128,16.128,0,0,0,.2-2c1.04-.56,1.16-.72,1.16-1,0-.56-.4-.72-4.16-1.08a18.1,18.1,0,0,1,.08,2c0,.72-.04,1.44-.08,2.08H312a15.481,15.481,0,0,1-3.2-.32l.4,1.56a19.037,19.037,0,0,1,2.88-.24h3.84a13.644,13.644,0,0,1-1.72,5.36,18.358,18.358,0,0,1-6.16,6.12c-.24.16,0,.64.28.56a17.917,17.917,0,0,0,7.76-5.48A13.111,13.111,0,0,0,318-6.84a14.313,14.313,0,0,1,4.52,4.88c.48.76.8,1.04,1.28,1.04.76,0,1.32-.84,1.32-1.76,0-1.84-2.48-3.68-6.92-4.8a21.641,21.641,0,0,0,.48-2.2ZM343.92,2.96c.8,0,1.28-.68,1.28-1.6,0-2.16-2.88-3.88-7.96-4.72-.2-.04-.36.36-.16.44a13.35,13.35,0,0,1,5.48,4.96C343.08,2.76,343.4,2.96,343.92,2.96ZM313.16-25.32a1.635,1.635,0,0,0,1.52-1.76c0-1.52-1.68-3.32-4.2-4.28-.16-.04-.32.12-.24.24a10.021,10.021,0,0,1,1.8,4.36C312.28-25.68,312.52-25.32,313.16-25.32Zm7.64.44a17.536,17.536,0,0,0,4.08-4.28c1.08,0,1.44-.2,1.44-.56,0-.4-.8-.88-3.24-2a17.36,17.36,0,0,1-.76,2.68,26.262,26.262,0,0,1-1.88,3.84C320.32-25.04,320.64-24.76,320.8-24.88Zm1.28,28.04a23.262,23.262,0,0,0,10.88-4.4c1.44.24,1.84-.08,1.84-.4,0-.44-.44-.84-3.48-2.4a11.3,11.3,0,0,1-2.48,2.68,25.17,25.17,0,0,1-6.92,3.96C321.68,2.68,321.84,3.2,322.08,3.16Zm56.28-21.8a3.406,3.406,0,0,0-3.4,3.44,3.4,3.4,0,0,0,3.4,3.4,3.406,3.406,0,0,0,3.44-3.4A3.415,3.415,0,0,0,378.36-18.64Zm43.08-.16h6.64c.4,0,.52-.12.52-.4,0-.24-.2-.56-.76-1.04-1.4-1.2-1.68-1.4-1.92-1.4s-.56.2-1.8,1.84h-2.68V-31.2c1.08-.44,1.32-.68,1.32-1,0-.52-.44-.72-4.2-1.2a47.961,47.961,0,0,1,.2,5.76v7.84h-4.24a14.418,14.418,0,0,1-2.8-.28l.4,1.52a15.137,15.137,0,0,1,2.48-.24h3.76a46.359,46.359,0,0,1-7.4,15.12c-.16.2.24.52.44.36a31.194,31.194,0,0,0,7.52-10.2c-.12,9.76-.4,14.6-.4,15.68,0,.76.32,1.12,1.24,1.12,1.16,0,1.84-.44,1.84-1.36,0-1.56-.16-7.32-.16-16.92a8.9,8.9,0,0,1,3,4.04c.4,1.24.92,1.44,1.56,1.44a1.5,1.5,0,0,0,1.32-1.56c0-1.92-2.32-3.72-5.88-4.64Zm26.76,8.16c.32-.08.44-.24.44-.44,0-.24-.12-.48-.88-.92-1.68-1.08-1.96-1.28-2.24-1.28-.32,0-.52.28-1.64,2.48l-1.16.2c-.04-2.76-.04-6.08-.04-10.08V-30.84c1.12-.52,1.32-.76,1.32-1.08,0-.56-.8-.8-4.44-1.2.2,2,.2,4.28.2,11.96,0,4.48,0,8.16-.04,11.12l-10.68,2a16.073,16.073,0,0,1-3.04.28l.72,1.4a16.6,16.6,0,0,1,2.6-.76l10.4-1.96c-.04,6.76-.08,9.76-.08,11.12,0,.8.36,1.16,1.32,1.16,1.32,0,1.92-.44,1.92-1.4,0-1.24-.12-4.28-.16-11.4ZM435.68-22.48a1.606,1.606,0,0,0,1.56-1.8c0-2-2.36-3.72-6.4-4.28-.16-.04-.32.24-.2.32a9.227,9.227,0,0,1,3.32,3.88C434.72-22.68,434.88-22.48,435.68-22.48Zm-1.28,9.4a1.68,1.68,0,0,0,1.56-1.88c0-1.96-2.36-3.68-6.56-4.12-.16,0-.28.28-.16.36a9.209,9.209,0,0,1,3.68,4.32C433.4-13.48,433.72-13.08,434.4-13.08Zm-18.72-8.6c.8,0,1.44-.92,1.44-2.04,0-1.84-1.64-4.4-4.08-6.48-.16-.12-.48.08-.4.24a15.65,15.65,0,0,1,1.84,6.2C414.64-22.08,414.92-21.68,415.68-21.68Zm7.56.04a31.962,31.962,0,0,0,4.28-6.12c1.04-.12,1.44-.32,1.44-.72s-.48-.68-3.6-1.96a26.536,26.536,0,0,1-.68,3.16,44.828,44.828,0,0,1-1.88,5.4C422.72-21.68,423.12-21.48,423.24-21.64Zm49,2.92a11.615,11.615,0,0,1,2.52-.24h3.68v6.6H468.6a15.812,15.812,0,0,1-3-.28l.4,1.52a11.875,11.875,0,0,1,2.6-.24h9.84V.24h-11.8a16.843,16.843,0,0,1-3.04-.28l.44,1.52a14.972,14.972,0,0,1,2.6-.24h30.72c.4,0,.52-.12.52-.4,0-.24-.2-.52-1-1.2-1.84-1.52-2.12-1.72-2.4-1.72-.24,0-.52.2-2.44,2.32h-10.6v-11.6h13.48c.4,0,.52-.16.52-.4s-.2-.48-.92-1.08c-1.6-1.4-1.92-1.6-2.16-1.6-.28,0-.6.2-2.12,2.08h-8.8v-6.6h6.8c.4,0,.52-.12.52-.4,0-.24-.16-.48-.84-1.04-1.6-1.36-1.88-1.52-2.16-1.52-.24,0-.52.16-1.92,1.96h-9.16A16.621,16.621,0,0,1,472-20.2a34.615,34.615,0,0,0,8.84-10.28,35.926,35.926,0,0,0,7.92,9.76,38.88,38.88,0,0,0,6.28,4.28,4.234,4.234,0,0,0,1.44.56c.28,0,.48-.16.64-.6.52-1.64,1-2.12,2.12-2.36.2-.04.24-.44.04-.48A28.082,28.082,0,0,1,489.76-23a30.27,30.27,0,0,1-8.2-7.84c1.08-.24,1.36-.44,1.36-.76,0-.48-.68-.76-4.76-1.8a20.489,20.489,0,0,1-1.88,4.4,42.068,42.068,0,0,1-14.36,13.76c-.24.16,0,.68.28.56a40.1,40.1,0,0,0,9.64-5.4Zm.72,16.92c.96,0,1.64-.84,1.64-2.08,0-1.84-2.24-4.24-5.32-5.72-.2-.08-.44.16-.32.32A11.679,11.679,0,0,1,471.4-3.6C471.68-2.2,472.2-1.8,472.96-1.8Zm11.4.68a26.16,26.16,0,0,0,6.24-6c1.2-.12,1.56-.28,1.56-.72,0-.4-.4-.68-3.76-2.24a15.037,15.037,0,0,1-1.08,2.92,27.825,27.825,0,0,1-3.4,5.64C483.76-1.32,484.16-.96,484.36-1.12Z" transform="translate(401.023 273.022)"/>
  </g>
</svg>
