<svg xmlns="http://www.w3.org/2000/svg" width="315.5" height="217.215" viewBox="0 0 315.5 217.215">
  <g id="グループ_10046" data-name="グループ 10046" transform="translate(-30 -105.146)">
    <g id="グループ_712" data-name="グループ 712" transform="translate(0 -5)">
      <text id="土壌微生物_多様性_活性値" data-name="土壌微生物
多様性・活性値" transform="translate(30 198.011)" font-size="32" font-family="YuMin-Medium, YuMincho" font-weight="500" letter-spacing="0.28em"><tspan x="0" y="0">土壌微生物</tspan><tspan x="0" y="59">多様性・活性値</tspan></text>
      <g id="グループ_710" data-name="グループ 710" transform="translate(30 286.991)">
        <rect id="長方形_13404" data-name="長方形 13404" width="141.313" height="40.37" transform="translate(0 0)" fill="#2f2013"/>
        <text id="BIOTREX" transform="translate(13.068 27.648)" fill="#fff" font-size="24" font-family="Helvetica" letter-spacing="0.08em"><tspan x="0" y="0">BIOTREX</tspan></text>
      </g>
      <text id="とは_" data-name="とは？" transform="translate(186.07 318.521)" font-size="32" font-family="YuMin-Medium, YuMincho" font-weight="500" letter-spacing="0.25em"><tspan x="0" y="0">とは？</tspan></text>
    </g>
    <g id="グループ_709" data-name="グループ 709" transform="translate(-76 -144.854)">
      <text id="土_壌_分_析" data-name="土
壌
分
析" transform="translate(396 267)" font-size="14" font-family="SourceHanSansJP-Regular, Source Han Sans JP" letter-spacing="0.08em"><tspan x="0" y="0">土</tspan><tspan x="0" y="18">壌</tspan><tspan x="0" y="36">分</tspan><tspan x="0" y="54">析</tspan></text>
      <g id="グループ_505" data-name="グループ 505" transform="translate(227.295 -33)">
        <text id="サ_ビ_ス" data-name="サ

ビ
ス" transform="translate(132 299)" font-size="14" font-family="SourceHanSansJP-Regular, Source Han Sans JP" letter-spacing="0.08em"><tspan x="0" y="0">サ</tspan><tspan x="0" y="18"></tspan><tspan x="0" y="36">ビ</tspan><tspan x="0" y="54">ス</tspan></text>
        <text id="_ー" data-name="ー" transform="translate(134 304) rotate(90)" font-size="14" font-family="SourceHanSansJP-Regular, Source Han Sans JP" letter-spacing="0.08em"><tspan x="0" y="0">ー</tspan></text>
      </g>
      <path id="パス_361" data-name="パス 361" d="M16998.705,4781.549V4854" transform="translate(-16577.705 -4530)" fill="none" stroke="#000" stroke-width="1"/>
      <path id="パス_362" data-name="パス 362" d="M16998.705,4781.55V4854" transform="translate(-16614.525 -4530)" fill="none" stroke="#000" stroke-width="1"/>
    </g>
  </g>
</svg>
