<svg xmlns="http://www.w3.org/2000/svg" width="509.068" height="82" viewBox="0 0 509.068 82">
  <g id="グループ_934" data-name="グループ 934" transform="translate(-289.355 -213)">
    <g id="グループ_631" data-name="グループ 631" transform="translate(279.915 212.022)">
      <path id="パス_4021" data-name="パス 4021" d="M8.055-.6V-6.645H13.23V-7.74H8.055v-4.755H6.885V-7.74h-5.1v1.095h5.1V-.6H.84V.5H14.19V-.6ZM14.25,7.615H10.065V6.46H9V7.615H4.965v.9H14.25Zm-.015,2.625a17.016,17.016,0,0,0-3.015-1.6l-.705.555A18.733,18.733,0,0,1,13.5,10.87ZM7.755,8.68A10.768,10.768,0,0,1,4.92,10.21a6.517,6.517,0,0,1,.72.72A13.921,13.921,0,0,0,8.655,9.01Zm-3.18,6-1.215.585V11.11h1.3V10.075H3.36V6.64H2.34v3.435H.825V11.11H2.34v4.635c-.705.33-1.335.63-1.845.84l.435,1.05c1.14-.585,2.58-1.305,3.93-2Zm3.81-.855h2.34v.915H8.385Zm0-1.71h2.34V13H8.385Zm4.98,3.8a19.963,19.963,0,0,1-1.95,1.32,6.581,6.581,0,0,1-.9-1.62h3.72v-.87H11.7v-.915h1.8V13H11.7v-.885h2.13v-.84H11.7v-1.05h-.975v1.05H8.385v-1.05H7.41v1.05H5.355v.84H7.41V13H5.7v.825H7.41v.915H4.92v.87H8.16a13.19,13.19,0,0,1-3.9,1.62,5.237,5.237,0,0,1,.63.825,19.438,19.438,0,0,0,2.055-.81v1.6c-.585.1-1.125.18-1.575.255l.195.915c1.395-.24,3.27-.585,5.1-.915l-.06-.87-2.685.45V16.75a9.009,9.009,0,0,0,1.635-1.14,6.834,6.834,0,0,0,4.305,4.545,4.636,4.636,0,0,1,.66-.855,5.882,5.882,0,0,1-2.58-1.485,16.358,16.358,0,0,0,2.1-1.32ZM4.89,25.76A12.74,12.74,0,0,1,.405,31.4a6.483,6.483,0,0,1,.945.855A15.454,15.454,0,0,0,6.06,26.09ZM2.835,31.085v1.08h3.06c-.345,2.535-1.17,4.9-4.7,6.075a4.423,4.423,0,0,1,.72.975c3.81-1.38,4.77-4.1,5.16-7.05h3.87c-.18,3.78-.39,5.28-.78,5.655-.135.165-.315.195-.63.195-.345,0-1.275-.015-2.25-.1a2.712,2.712,0,0,1,.375,1.11,21.488,21.488,0,0,0,2.355.03,1.5,1.5,0,0,0,1.155-.525c.51-.57.735-2.3.945-6.9.015-.15.03-.54.03-.54Zm6.18-4.935a19.838,19.838,0,0,0,4.65,5.97,5.736,5.736,0,0,1,.915-.99,15.872,15.872,0,0,1-4.515-5.4ZM6.3,52.59c-.315-.4-1.635-2.04-2.1-2.565v-1.32H6.255v-1.05H4.2v-3.21H3.15v3.21H.825v1.05H3a16.063,16.063,0,0,1-2.52,5.64,6.746,6.746,0,0,1,.585,1A16.344,16.344,0,0,0,3.15,50.97v7.155H4.2v-6.78c.525.735,1.14,1.65,1.41,2.145Zm8.085-3.045H8.355V46.89a27.494,27.494,0,0,0,5.355-1.41l-.945-.855a24.659,24.659,0,0,1-4.545,1.32l-.945-.285v4.215c0,2.235-.165,5.25-1.845,7.47a3.329,3.329,0,0,1,.84.735C7.92,55.89,8.3,52.9,8.34,50.61h2.715v7.53h1.11V50.61h2.22Z" transform="translate(51.06 17.978)"/>
      <g id="グループ_505" data-name="グループ 505" transform="translate(6.143 0)">
        <path id="パス_4022" data-name="パス 4022" d="M10.8-6.885v-.54h1.65c.66,0,1.215.03,1.38.045V-8.64a11.029,11.029,0,0,1-1.38.075H10.8V-10.44a11.372,11.372,0,0,1,.075-1.23H9.525A8.362,8.362,0,0,1,9.6-10.44v1.875H5.325v-1.92a9.258,9.258,0,0,1,.075-1.1H4.065a9.264,9.264,0,0,1,.06,1.1v1.92H2.5A11,11,0,0,1,1-8.67v1.305c.18-.015.855-.06,1.5-.06h1.62v2.43c0,.57-.045,1.215-.06,1.365h1.32c-.015-.15-.06-.81-.06-1.365v-2.43H9.6v.63c0,4.2-1.365,5.49-4.095,6.54l1,.945C9.945-.84,10.8-2.895,10.8-6.885Zm.12,33.125-.8.345A17.142,17.142,0,0,1,11.34,28.67l.81-.375A23.246,23.246,0,0,0,10.92,26.24Zm1.65-.6-.795.345a15.769,15.769,0,0,1,1.245,2.07l.81-.375A21.462,21.462,0,0,0,12.57,25.64ZM4.185,26.75H2.79a8.13,8.13,0,0,1,.09,1.215v8.25c0,1.215.645,1.74,1.8,1.95a15.763,15.763,0,0,0,2.4.15A41.939,41.939,0,0,0,12.27,38V36.635a24.55,24.55,0,0,1-5.13.48,14.255,14.255,0,0,1-1.98-.12c-.735-.15-1.05-.345-1.05-1.11v-3.3a57.5,57.5,0,0,0,6.135-1.95c.45-.165.99-.405,1.41-.585l-.525-1.2a10.935,10.935,0,0,1-1.32.675,40.858,40.858,0,0,1-5.7,1.83v-3.39A9.961,9.961,0,0,1,4.185,26.75ZM12,46.965l-.765-.585a4.107,4.107,0,0,1-1.125.12H4.32c-.45,0-1.3-.06-1.515-.09v1.365c.165-.015.99-.075,1.515-.075h5.85a13.2,13.2,0,0,1-2.49,4.17A17.153,17.153,0,0,1,1.5,56.325l.96,1.005a19.016,19.016,0,0,0,5.85-4.38A34.633,34.633,0,0,1,12.435,57.4l1.05-.9A41.609,41.609,0,0,0,9.1,52.02a18.984,18.984,0,0,0,2.52-4.4A4.3,4.3,0,0,1,12,46.965Z" transform="translate(2.292 17)"/>
        <path id="パス_4023" data-name="パス 4023" d="M1.53-6.495v1.47C2-5.07,2.79-5.1,3.615-5.1H11.85c.675,0,1.3.06,1.6.075v-1.47c-.33.03-.87.075-1.62.075H3.615C2.775-6.42,1.98-6.465,1.53-6.495Z" transform="translate(3.918 23.064) rotate(90)"/>
      </g>
      <path id="パス_361" data-name="パス 361" d="M16998.705,4781.548v82" transform="translate(-16919.646 -4780.57)" fill="none" stroke="#000" stroke-width="1"/>
      <path id="パス_499" data-name="パス 499" d="M16998.705,4781.548v82" transform="translate(-16960.645 -4780.57)" fill="none" stroke="#000" stroke-width="1"/>
    </g>
    <path id="パス_4024" data-name="パス 4024" d="M30.72-23.04a6.855,6.855,0,0,0-4.04,1.32.638.638,0,0,0-.32.56.4.4,0,0,0,.4.4,1.714,1.714,0,0,0,.52-.2,5.762,5.762,0,0,1,2.4-.64,5.033,5.033,0,0,1,3.76,1.76.729.729,0,0,1,.2.44.514.514,0,0,1-.16.4,23.364,23.364,0,0,1-2.56,2c-.24.16-.32.28-.32.44a.344.344,0,0,0,.32.32,1.76,1.76,0,0,0,.4-.08c.64-.2,1.2-.44,2-.72a4.847,4.847,0,0,1,1.16-.28,1.433,1.433,0,0,1,.92.32,1.223,1.223,0,0,0,.8.28,1.154,1.154,0,0,0,1.2-1.2,4.248,4.248,0,0,0-1.92-3.32A8.408,8.408,0,0,0,30.72-23.04Zm-16.2,1.56a20.986,20.986,0,0,1-4.68.68,3.656,3.656,0,0,1-2.88-1.56.688.688,0,0,0-.52-.32.4.4,0,0,0-.36.4,3.389,3.389,0,0,0,.6,1.48,4.068,4.068,0,0,0,3.44,1.96,22.6,22.6,0,0,0,4.4-.52c-.04,2.52-.12,4.96-.12,8C11.96-9.88,9.84-8.44,7.08-6.88a2.86,2.86,0,0,1-1.28.44.932.932,0,0,1-.6-.28,2.391,2.391,0,0,1-.6-.84.578.578,0,0,0-.4-.28c-.24,0-.36.4-.36.92A3.545,3.545,0,0,0,5.36-4.16,2.839,2.839,0,0,0,7-3.36a.919.919,0,0,0,.88-.56A4.525,4.525,0,0,1,9.16-5.24,46.677,46.677,0,0,1,12.8-2.28a2.942,2.942,0,0,1,1.04,1.4c.2.8.52,1.04,1.08,1.04.64,0,1.08-.48,1.56-1.92a5.58,5.58,0,0,0,.28-1.76c0-.2-.04-1.04-.08-1.52-.08-1.4-.16-3.4-.2-5.4,1-.6,2.08-1.2,3.12-1.8a12.588,12.588,0,0,1,5.64-1.84A5.348,5.348,0,0,1,28.88-13,4.128,4.128,0,0,1,30.4-9.8a4.226,4.226,0,0,1-1.36,3.48A5.529,5.529,0,0,1,25.2-5a8.229,8.229,0,0,1-5.64-2.24.61.61,0,0,0-.48-.24.342.342,0,0,0-.32.32,1.228,1.228,0,0,0,.16.6A8.417,8.417,0,0,0,26.28-3a7.553,7.553,0,0,0,4.84-1.56,5.677,5.677,0,0,0,2.2-4.48,5.78,5.78,0,0,0-2.36-4.6,8.476,8.476,0,0,0-5.32-1.72,18.208,18.208,0,0,0-9.2,2.92c-.04-2.52.04-5.04.12-7.44a33.4,33.4,0,0,0,6.32-2.28,1.172,1.172,0,0,0,.76-1.08c0-.68-.68-1.16-1.56-1.16a3.428,3.428,0,0,0-2.32.76,11.541,11.541,0,0,1-3.16,1.52,16.41,16.41,0,0,1,.28-3.04,2.148,2.148,0,0,1,.76-1.2.957.957,0,0,0,.4-.84c0-.6-.64-1.28-1.64-1.88a5.258,5.258,0,0,0-2.6-.88,2.837,2.837,0,0,0-1.72.52c-.32.24-.4.4-.4.56,0,.12.2.2.52.24a5.873,5.873,0,0,1,1.16.2,1.356,1.356,0,0,1,.92.72A7.008,7.008,0,0,1,14.52-25ZM14.4-4.76c0,.6-.08.76-.4.76a3.849,3.849,0,0,1-1.24-.4A18.21,18.21,0,0,1,10-5.92c1.28-1,2.88-2.28,4.4-3.4ZM60-26.16a20.359,20.359,0,0,0-3.64-1.76c.2,2.4.2,4.6.2,8.8,0,7.76-.16,10.2-.16,11.6,0,.68.36,1.04,1.28,1.04,1.32,0,1.92-.36,1.92-1.32V-9.2h9.88c-.08,7.24-.2,10.4-.2,11.32,0,.84.4,1.2,1.44,1.2,1.36,0,1.92-.44,1.92-1.44,0-1.28-.08-3.84-.16-11.08H82.84v1.56c0,.72.4,1.04,1.28,1.04,1.24,0,1.84-.4,1.84-1.28,0-1.12-.16-4.76-.16-12.16v-4.08c1.08-.64,1.24-.92,1.24-1.24,0-.24-.16-.48-.84-1.04-1.4-1.24-1.64-1.36-1.88-1.36-.28,0-.48.12-1.84,1.6H72.44V-31.2c1.2-.48,1.4-.72,1.4-1.04,0-.6-.48-.76-4.64-1.16a57.171,57.171,0,0,1,.32,7.24Zm22.84,8.8v7.16H72.48c0-2.4-.04-4.76-.04-7.16Zm-13.32,0c0,2.4,0,5.08-.04,7.16H59.6v-7.16Zm2.92-7.8h10.4v6.8H72.44Zm-2.92,0v6.8H59.6v-6.8ZM120.68.28a18.909,18.909,0,0,0,9.12-2.52,24.022,24.022,0,0,0,7.32-6.56,1.146,1.146,0,0,0,.32-.8.435.435,0,0,0-.44-.36c-.16,0-.32.12-.52.32a27.49,27.49,0,0,1-6.28,4.72,21.908,21.908,0,0,1-8.96,2.6,5.592,5.592,0,0,1-3.48-.84c-.68-.64-1-1.8-1-3.8,0-2.08.16-6,.4-9.72.2-3.2.44-5.64.68-7.56a1.91,1.91,0,0,1,.56-1.28,1.6,1.6,0,0,0,.56-1.12,3.231,3.231,0,0,0-1.44-2.16,6.516,6.516,0,0,0-3.24-1.52,4.026,4.026,0,0,0-1.44.24c-.32.12-.48.32-.48.52s.16.24.48.36a6.529,6.529,0,0,1,1.4.64c.6.4.8,1,.76,2.48-.08,3.2-.16,6.32-.28,9.48-.16,3.88-.32,7.68-.32,10.2C114.4-1.6,116.84.28,120.68.28ZM162.36-25a1.846,1.846,0,0,0,1.72-2.04c0-1.84-1.96-3.96-6-5.24-.2-.08-.48.2-.32.32a12.946,12.946,0,0,1,3.08,5.16C161.24-25.4,161.68-25,162.36-25Zm9.28-5.96a11,11,0,0,1-3-.36l.4,1.6a13.616,13.616,0,0,1,2.68-.24h5.56C176.52-19.04,173-11.32,165.8-5.2c-.2.2.12.68.36.52,6.64-3.92,11.04-9.56,12.8-16.48a24.674,24.674,0,0,0,3.72,9.92,21.779,21.779,0,0,0,5.28,6.2c.72.6,1.2.92,1.48.92s.4-.12.6-.64c.56-1.44.96-1.92,2-2.32.2-.08.28-.36.08-.44a20.266,20.266,0,0,1-9-7.36,27.156,27.156,0,0,1-4.32-14.08c1.24-.6,1.72-1.04,1.72-1.4,0-.24-.16-.52-.6-.92-1-.84-1.2-1-1.48-1-.24,0-.44.16-1.56,1.32Zm-7.52,15.8c1-.72,1.12-.88,1.12-1.12s-.16-.48-.76-1.08c-1.32-1.12-1.56-1.24-1.84-1.24-.24,0-.44.12-1.72,1.56h-2.4a12.17,12.17,0,0,1-3.12-.32l.4,1.64a9.948,9.948,0,0,1,2.72-.32h2.68V-5.72a19.128,19.128,0,0,1-3.48,2.36,14.982,14.982,0,0,1-2.44,1c1.6,3.24,2.2,4.12,2.64,4.12.48,0,.68-.4.64-1.8a56.206,56.206,0,0,0,4.52-5.84,10.1,10.1,0,0,0,3.68,5.16c2.12,1.52,5.68,2.28,13.6,2.28,3.4,0,7-.08,10.16-.36.48-.04.68-.16.76-.64a2.271,2.271,0,0,1,1.4-2.28c.16-.08.16-.48-.04-.44a111.926,111.926,0,0,1-14.28.96c-5.92,0-8.8-.48-10.6-1.12a6.479,6.479,0,0,1-3.64-3.4Zm70,2.84c.4-1.4.72-2.56,1.08-3.92a2.479,2.479,0,0,1,.72-1.32,1.2,1.2,0,0,0,.36-.92c0-.6-.6-1.32-1.52-2a7.229,7.229,0,0,0-3-1.32,2.223,2.223,0,0,0-.92.16c-.2.08-.4.24-.4.36s.08.24.28.32a5.748,5.748,0,0,1,1.48.84,1.73,1.73,0,0,1,.64,1.6,26.084,26.084,0,0,1-1.12,5.36A37.3,37.3,0,0,0,221.6-15.2c1.12-2.44,2.4-4.64,3.32-6.68,1.08-2.32,1.84-4,2.6-5.4.32-.56.6-.84.6-1.36,0-.44-.44-.84-.88-1.08a4.889,4.889,0,0,0-1.96-.76,1.26,1.26,0,0,0-.92.56,3.154,3.154,0,0,1-1.68,1,19.77,19.77,0,0,1-4.6,1.04,1.846,1.846,0,0,1-1.56-.8,5.016,5.016,0,0,1-.64-.96c-.16-.28-.28-.44-.44-.44-.12,0-.24.12-.32.32a2.555,2.555,0,0,0-.2.96,5.424,5.424,0,0,0,1,2.48,2.248,2.248,0,0,0,1.64,1.16,1.89,1.89,0,0,0,.88-.28,7.672,7.672,0,0,1,1.48-.68c1-.4,2.28-.84,4.04-1.4.44-.12.56.04.44.36a118.378,118.378,0,0,1-5.08,12.04,13.539,13.539,0,0,0-6.88,2c-2,1.32-3.24,3.16-3.24,5.04,0,2.44,1.32,3.36,3.16,3.36a4.87,4.87,0,0,0,3.48-1.44,28.406,28.406,0,0,0,5.04-7.4A27.2,27.2,0,0,1,231.04-11a25.775,25.775,0,0,1-3.84,6.72A23.3,23.3,0,0,1,221,.88c-.36.2-.48.32-.48.56a.369.369,0,0,0,.4.36,2.15,2.15,0,0,0,.84-.2,21.685,21.685,0,0,0,6.68-4.28,22.743,22.743,0,0,0,4.84-7.2,31.307,31.307,0,0,1,4.88,3.24,2.9,2.9,0,0,0,1.6.8,1.41,1.41,0,0,0,1.4-1.36,2.35,2.35,0,0,0-1.08-1.96A27.308,27.308,0,0,0,234.12-12.32ZM218.6-13.6a27.069,27.069,0,0,1-3.44,5.12A4.046,4.046,0,0,1,212.4-6.8a1.336,1.336,0,0,1-1.44-1.48,4.531,4.531,0,0,1,2.12-3.6A12.157,12.157,0,0,1,218.6-13.6Zm56.48-12.24a17.413,17.413,0,0,1,2.12-.08,11.586,11.586,0,0,1,7.44,2.6A10.093,10.093,0,0,1,288-15.68a11.3,11.3,0,0,1-3.6,8.28c-2.48,2.44-6.72,4.28-10.88,5.08-.52.12-.72.24-.72.56a.565.565,0,0,0,.56.48c4.88-.24,10.36-1.92,13.32-4.48A11.31,11.31,0,0,0,291-15.12a11.419,11.419,0,0,0-4.44-9.08,14.712,14.712,0,0,0-9.28-3.08,17.1,17.1,0,0,0-12.8,5.24,14.554,14.554,0,0,0-3.76,9.44,8.786,8.786,0,0,0,1.84,5.92,3.691,3.691,0,0,0,3,1.6c1.68,0,2.92-1.16,4.04-2.6a40.279,40.279,0,0,0,5.72-10.36,15.979,15.979,0,0,0,1.04-4.68A4.675,4.675,0,0,0,275.08-25.84Zm-1.08.12a2.48,2.48,0,0,1,.64,1.84,8.754,8.754,0,0,1-.56,3.16,42.5,42.5,0,0,1-5.72,10.4c-1.16,1.56-1.96,2.28-2.8,2.28a2.244,2.244,0,0,1-1.88-1.36,6.9,6.9,0,0,1-.88-3.72,12.468,12.468,0,0,1,3.48-8.64A14.115,14.115,0,0,1,274-25.72Zm70.88-1.36c.4,0,.52-.12.52-.36s-.16-.52-.96-1.16c-1.72-1.4-2-1.6-2.28-1.6-.24,0-.52.2-2.2,2.12h-7.64v-3.16c1.04-.44,1.36-.76,1.36-1.04,0-.44-.48-.72-4.44-1.2a15.583,15.583,0,0,1,.2,2.88v2.52H322.4a13.864,13.864,0,0,1-3.04-.28l.4,1.52a16.551,16.551,0,0,1,2.64-.24h5.08a40.613,40.613,0,0,1-2.24,7.2h-.56a33.76,33.76,0,0,1-4.84-.24c.68,3.4.96,4,1.36,4s.56-.2.88-1.16a139.144,139.144,0,0,0,17.2-2.48c.24.4.44.84.68,1.32.56,1.16,1,1.6,1.6,1.6.92,0,1.48-.8,1.48-1.8,0-2.16-2.92-4.68-7.8-6.12-.16-.04-.36.28-.24.36a14.665,14.665,0,0,1,3.76,3.8c-4.12.4-8.24.6-12.36.68a29.958,29.958,0,0,0,4.6-7.16Zm-28.56.72a1.661,1.661,0,0,0,1.52-1.76c0-1.96-2.28-3.6-6.16-4.16-.16-.04-.28.24-.16.32a9.024,9.024,0,0,1,3.24,4C315.4-26.56,315.64-26.36,316.32-26.36Zm-2.52,9.24a1.677,1.677,0,0,0,1.52-1.72c0-1.84-2.28-3.52-6.16-4.08-.16-.04-.28.28-.16.36a9.07,9.07,0,0,1,3.28,3.88C312.84-17.36,313.08-17.12,313.8-17.12Zm18,3.72c1.04-.48,1.2-.72,1.2-1,0-.48-.2-.6-4.08-1.04a63.352,63.352,0,0,1,.2,6.84c0,6.04-.16,8.92-.16,9.68s.36,1.04,1.28,1.04c1.16,0,1.76-.4,1.76-1.2,0-1-.2-4.24-.2-10.68Zm7.04-.12c1.12-.52,1.28-.72,1.28-1.04,0-.48-.56-.68-4.16-1.04.16,2.28.2,4.8.2,8.88,0,3.56-.08,4.52-.08,5.36,0,2.6,1,3.64,4.56,3.64a13.612,13.612,0,0,0,4.24-.48,1.965,1.965,0,0,0,1.4-1.76,1.163,1.163,0,0,0-.68-1.16.911.911,0,0,1-.56-1c0-.44.16-2.6.24-3.76,0-.16-.36-.24-.4-.08-.92,3.4-1.4,4.52-1.92,5.12-.4.44-.96.52-2.16.52-1.76,0-1.96-.24-1.96-1.24Zm-13.52.12c1-.44,1.2-.68,1.2-1,0-.48-.36-.6-4.2-1a25.491,25.491,0,0,1,.2,3.68,20.271,20.271,0,0,1-1.48,8.48A15.247,15.247,0,0,1,316,2.64c-.24.16.12.64.36.52,3.16-1.6,5.16-3.2,6.52-5.36,1.56-2.28,2.32-4.96,2.44-8.92ZM313.4,2.84c1.16,0,2.04-1,2.04-2.6,0-1.84-1.4-3.84-1.4-5.6a7.588,7.588,0,0,1,.48-2.56c1.72-4.56,3.16-8.44,4.96-13.76.08-.24-.48-.44-.56-.2-2.72,6.32-4.88,10.68-6.28,13.2a1.975,1.975,0,0,1-1.88,1.16A11.321,11.321,0,0,1,309-7.76c-.24-.04-.36.48-.12.56,2.64.88,3.16,1.52,3.16,3.76,0,1.4-.28,2.68-.28,4.08C311.76,2.08,312.36,2.84,313.4,2.84Zm58.64-19.8a17.335,17.335,0,0,1,1.76-3,1.187,1.187,0,0,0,.4-.76,1.249,1.249,0,0,0-.44-.8c-.36-.36-.6-.48-.8-.48a1.812,1.812,0,0,0-.64.12c.08-2,.24-3.4.32-4.24a2.408,2.408,0,0,1,.6-1.4,1.185,1.185,0,0,0,.44-.92c0-.84-.6-1.32-1.48-1.92a5.7,5.7,0,0,0-3-1.12,2.266,2.266,0,0,0-1.16.28c-.32.2-.36.32-.36.48s.08.24.6.4c1.84.6,2.16,1.08,2.16,2.8,0,1.28-.12,4-.2,6.4-1.04.48-2.28.96-3.44,1.4a4.21,4.21,0,0,1-1.44.32c-.6,0-1.04-.24-1.84-1.36-.16-.24-.28-.36-.48-.36-.16,0-.28.4-.28.88a4.57,4.57,0,0,0,1.2,2.4,2.216,2.216,0,0,0,1.56.96,1.436,1.436,0,0,0,1.04-.56,17.329,17.329,0,0,1,3.6-1.84c-.04.92-.08,1.96-.16,3.24a47.508,47.508,0,0,1-6.4,8.64c-.32.32-.64.6-.84.8a2.958,2.958,0,0,0-.92,1.96c0,.88.36,1.32,1,1.36A1.4,1.4,0,0,0,364-3.92c.36-.44.72-1,1.6-2.2a30.351,30.351,0,0,1,3.04,3.72A7.419,7.419,0,0,1,369.76.32c.16.72.52,1.04,1,1.04.92,0,1.48-1.24,1.48-2.96a12.255,12.255,0,0,0-.08-1.44c-.04-.52-.08-1.16-.12-1.72q-.12-2.22-.12-2.76c-.04-1.72-.04-3.96-.04-6.2a65.494,65.494,0,0,1,6.84-6.92c2-1.76,3.72-2.92,5-2.92,1,0,1.4.64,1.4,2.88,0,1.56-.2,3.44-.44,6.04-.28,3.2-.48,6-.48,8,0,3.28,1.6,4.96,4.6,4.96a7.5,7.5,0,0,0,5-2.32,14.142,14.142,0,0,0,3.44-5.36,1.816,1.816,0,0,0,.16-.72.514.514,0,0,0-.44-.48c-.36,0-.56.32-.72.6-1.92,3.48-5.08,5.88-7.44,5.88-1.64,0-2.28-.6-2.28-2.64,0-1.56.32-4.64.68-7.64.32-2.4.8-4.96.8-6.52a3.972,3.972,0,0,0-4.04-4.24c-1.6,0-3.68,1.44-5.56,3.04a80.5,80.5,0,0,0-6.44,6.32ZM366.2-6.84c.92-1.4,2.44-3.48,3.8-5.28-.04,2.32-.04,5.12-.04,7.88,0,.32-.12.4-.4.2C368.6-4.8,367.24-5.88,366.2-6.84Z" transform="translate(401.023 273.022)"/>
  </g>
</svg>
