<svg xmlns="http://www.w3.org/2000/svg" width="229.408" height="141.936" viewBox="0 0 229.408 141.936">
  <path id="パス_4870" data-name="パス 4870" d="M4.448-6.72c0,2.112.032,3.52-.32,4.192-.384.608-1.312.7-2.4.8-.224.032-.288.1-.288.416S1.5-.9,1.728-.9c1.184-.1,2.528-.128,3.936-.128,1.888,0,4.16.192,6.016.192,8.8,0,13.376-4.96,13.376-11.776,0-6.752-4.384-11.3-13.12-11.3-2.08,0-4.768.192-6.336.192-1.408,0-2.752-.032-4.064-.128-.224,0-.288.1-.288.48s.064.384.288.416c1.216.128,2.24.16,2.592.736.32.672.32,1.088.32,4.1ZM7.456-18.112c0-1.856-.032-3.2.416-3.84.416-.64,1.76-.832,3.968-.832,6.272,0,9.792,4.032,9.792,10.3,0,6.24-3.3,10.56-10.016,10.56-1.7,0-3.04-.192-3.648-.96-.544-.672-.512-2.048-.512-3.84Zm49.312-5.376a8.035,8.035,0,0,1-3.52-.32,14.992,14.992,0,0,0-3.936-.544,11.669,11.669,0,0,0-12.1,11.968c0,6.816,4.576,12,12,12,3.584,0,5.408-.864,7.04-.864a15.378,15.378,0,0,1,1.664.1c.192.032.32-.064.32-.192a43.539,43.539,0,0,1-.192-4.64,9.658,9.658,0,0,1,.416-3.776c.384-.672.928-.672,2.016-.8.224-.032.288-.1.288-.448,0-.32-.064-.384-.288-.384-1.344.064-2.5.128-3.84.128-1.248,0-2.848-.064-4.16-.128-.224,0-.288.064-.288.384,0,.384.064.416.288.448,1.216.128,2.112.16,2.464.8.352.7.384,1.024.384,4.224a14.294,14.294,0,0,1-.16,2.144A7.99,7.99,0,0,1,49.76-1.536c-5.28,0-9.024-4.48-9.024-10.912,0-6.336,3.776-10.816,8.576-10.816a7.231,7.231,0,0,1,4.416,1.44,8.858,8.858,0,0,1,2.752,3.776c.064.192.16.288.48.192.352-.032.384-.16.352-.384C57.056-19.9,56.864-21.856,56.768-23.488Zm34.176,0a7.278,7.278,0,0,1-3.552-.352,16.09,16.09,0,0,0-3.9-.48c-6.784,0-11.68,4.992-11.68,11.936,0,7.1,4.864,12,11.584,12,4.608,0,7.36-2.4,9.184-5.7a.374.374,0,0,0-.224-.576c-.384-.192-.512-.128-.64.032A8.53,8.53,0,0,1,83.84-2.208c-4.928,0-8.48-4.448-8.48-10.24,0-6.528,3.488-10.784,8.256-10.784A7.507,7.507,0,0,1,87.9-21.856a10,10,0,0,1,2.72,3.84.379.379,0,0,0,.512.224c.256-.064.352-.16.32-.384C91.264-19.84,91.072-21.824,90.944-23.488ZM21.216,35.48a4.032,4.032,0,0,0-1.184.352,9.689,9.689,0,0,1-1.6.384,36.492,36.492,0,0,1-3.68.512,31.952,31.952,0,0,1-3.232.192,3.371,3.371,0,0,1-2.592-.96c-.192-.192-.32-.288-.448-.288s-.192.16-.192.416a2.334,2.334,0,0,0,.9,1.664,2.721,2.721,0,0,0,2.016.928c.32,0,1.5-.1,2.144-.16,2.208-.192,4.928-.416,7.168-.608.832-.1,1.472-.1,2.08-.128.64-.032.992-.384.992-.768a1.016,1.016,0,0,0-.576-1.024A3.845,3.845,0,0,0,21.216,35.48Zm-5.7,8.96a1.423,1.423,0,0,1,.416,1.056,5.5,5.5,0,0,1-.224,1.312,20.884,20.884,0,0,1-2.592,6.08A26.257,26.257,0,0,1,8,58.872c-.384.32-.48.512-.48.7a.407.407,0,0,0,.448.384.92.92,0,0,0,.48-.16,20.529,20.529,0,0,0,6.3-5.76,19.811,19.811,0,0,0,3.328-6.752,2.991,2.991,0,0,1,.448-.96.929.929,0,0,0,.192-.512c0-.48-.672-1.056-1.472-1.5,1.472-.1,3.3-.16,4.672-.16a33.49,33.49,0,0,1,3.584.064,19.152,19.152,0,0,0,2.048.128.706.706,0,0,0,.736-.736,1.175,1.175,0,0,0-.672-1.024,5.452,5.452,0,0,0-2.528-.768,2.683,2.683,0,0,0-1.024.256,3.61,3.61,0,0,1-1.152.288c-2.24.224-4.416.384-6.816.544-2.944.224-5.024.448-7.488.736-.7.064-1.28.128-1.856.128a3.454,3.454,0,0,1-2.144-.992c-.288-.224-.448-.352-.544-.352-.16,0-.288.256-.288.64a2.593,2.593,0,0,0,.96,1.7,3.4,3.4,0,0,0,2.016,1.248,1.44,1.44,0,0,0,.768-.192,6.9,6.9,0,0,1,2.3-.672A53.248,53.248,0,0,1,15.52,44.44Zm40.544-3.616a4.677,4.677,0,0,0,1.664.416,11.452,11.452,0,0,0,1.888-.256c1.248-.256,3.008-.576,3.488-.608a.146.146,0,0,1,.16.128.989.989,0,0,1-.064.256,44.458,44.458,0,0,1-6.048,9.376,41.531,41.531,0,0,1-9.92,8.576c-.288.192-.416.32-.416.512a.445.445,0,0,0,.384.416,1.565,1.565,0,0,0,.608-.16,33.385,33.385,0,0,0,10.816-8.032,49.237,49.237,0,0,0,6.464-9.056,1.791,1.791,0,0,1,1.024-.928c.416-.192.736-.416.736-.832,0-.512-.48-.96-1.216-1.536A3.361,3.361,0,0,0,64,38.232a1.044,1.044,0,0,0-.736.384,1.4,1.4,0,0,1-.736.416c-1.088.192-2.08.352-3.52.576a12.141,12.141,0,0,1-1.824.192,1.825,1.825,0,0,1-.416-.032c.9-1.216,1.056-1.44,1.376-1.632a1.105,1.105,0,0,0,.64-.928c0-.48-.32-.864-1.088-1.376a5.929,5.929,0,0,0-2.432-1.12c-.576,0-1.152.224-1.152.384s.192.224.416.352c.832.48,1.152.9,1.152,1.248a5.106,5.106,0,0,1-.736,1.856,37.987,37.987,0,0,1-2.88,4.224A40.687,40.687,0,0,1,47.456,47.8c-.448.416-.736.736-.736.96a.4.4,0,0,0,.416.448,1.077,1.077,0,0,0,.608-.224,29.044,29.044,0,0,0,4.608-3.808A40.185,40.185,0,0,0,56.064,40.824Zm42.592-4.768c-.32,0-1.152.288-1.152.576,0,.16.1.256.288.32a5.732,5.732,0,0,1,1.088.544c.576.352.7.608.7,1.024a4.243,4.243,0,0,1-.416,1.664A43.437,43.437,0,0,1,94.5,48.7a39.883,39.883,0,0,1-8.96,9.152c-.32.224-.512.352-.512.608a.426.426,0,0,0,.384.448,1.437,1.437,0,0,0,.64-.192A30.431,30.431,0,0,0,95.84,50.36a43.58,43.58,0,0,0,5.568-9.024c.352-.7.576-1.088,1.024-1.312a1.079,1.079,0,0,0,.672-.96c0-.7-.48-1.216-1.888-2.112A6.011,6.011,0,0,0,98.656,36.056Zm32.064,4.992a7.72,7.72,0,0,0-3.36-1.6c-.48,0-.96.256-.96.48,0,.16.192.256.416.384a2.957,2.957,0,0,1,1.7,2.784c.224,3.584.48,7.3.7,11.2.064,1.024.544,1.6,1.216,1.6q.816,0,.864-1.056a9.017,9.017,0,0,0,.032-.992c3.584-.224,6.208-.32,8.864-.32,1.024,0,2.24.064,2.944.064a5.167,5.167,0,0,0,1.056-.1.653.653,0,0,0,.544-.736.758.758,0,0,0-.416-.672,3.3,3.3,0,0,0-1.344-.352c.768-3.328,1.376-5.888,1.92-8.064.224-.928.384-1.184.608-1.312.352-.192.608-.352.608-.768,0-.384-.352-.736-1.376-1.568a2.228,2.228,0,0,0-1.408-.64c-.192,0-.448.16-.832.512a2.171,2.171,0,0,1-1.376.48C138.144,40.536,133.888,40.792,130.72,41.048Zm11.552.736c.128,0,.192.032.192.16a4.6,4.6,0,0,1-.032.576c-.384,2.784-.8,6.048-1.344,9.44-2.752.128-6.3.288-9.856.512-.192-3.648-.32-6.624-.448-9.952,3.776-.352,7.776-.608,10.912-.736Zm28.384-4.64c-.352,0-.608.16-.608.32,0,.192.1.288.288.416a10.426,10.426,0,0,1,3.008,3.04c.512.864.768,1.216,1.28,1.216a1.411,1.411,0,0,0,1.312-1.568c0-.96-.7-1.76-1.888-2.368A8.581,8.581,0,0,0,170.656,37.144Zm2.464,19.712a69.986,69.986,0,0,0,9.088-6.688,43.051,43.051,0,0,0,7.1-7.36,1.061,1.061,0,0,0,.288-.672c0-.192-.256-.384-.48-.384-.16,0-.384.288-.736.608a86.863,86.863,0,0,1-7.392,6.432,72.235,72.235,0,0,1-8.928,5.792,3.551,3.551,0,0,1-1.6.544c-.544,0-1.184-.736-1.568-1.184-.224-.288-.448-.576-.608-.576-.224,0-.384.448-.384.96a4.513,4.513,0,0,0,1.44,2.592c.992,1.056,1.408,1.248,1.952,1.248a1.47,1.47,0,0,0,1.056-.64A2.393,2.393,0,0,1,173.12,56.856Zm-6.3-13.088c-.544,0-.768.16-.768.352s.1.32.32.448a10.7,10.7,0,0,1,3.232,2.816c.448.576.832.992,1.216.992A1.3,1.3,0,0,0,172.16,46.9c0-1.024-.8-1.792-2.368-2.4A10.29,10.29,0,0,0,166.816,43.768Zm17.6-8.544a.329.329,0,0,0-.352.32.5.5,0,0,0,.224.32,11.074,11.074,0,0,1,2.688,3.072q.432.864,1.056.864a.89.89,0,0,0,.9-.96c0-.672-.448-1.248-1.216-1.92a7.2,7.2,0,0,0-2.784-1.6A1.82,1.82,0,0,0,184.416,35.224Zm2.592-2.176a.321.321,0,0,0-.32.32.385.385,0,0,0,.224.32,9.758,9.758,0,0,1,2.944,3.008c.352.608.608.768,1.024.768a.908.908,0,0,0,.864-1.024c0-.736-.7-1.472-1.472-2.016a7.557,7.557,0,0,0-2.56-1.248A4.178,4.178,0,0,0,187.008,33.048Zm23.1,15.936a6.7,6.7,0,0,1,2.208-.48c4.192-.352,9.856-.544,12.7-.544,1.568,0,3.3.128,4.512.128.7,0,1.12-.32,1.12-.96,0-.576-.192-.928-1.7-1.5a4.247,4.247,0,0,0-1.312-.288,2.383,2.383,0,0,0-.992.224,4.176,4.176,0,0,1-1.952.384c-2.72.1-7.04.256-11.392.512-2.176.128-3.392.192-4.064.192-.736,0-1.184-.224-2.3-1.312-.224-.224-.352-.384-.512-.384-.224,0-.288.384-.288.8a3.26,3.26,0,0,0,.736,1.664c.832,1.152,1.6,1.856,2.24,1.856A1.662,1.662,0,0,0,210.112,48.984ZM19.264,99.6a26.2,26.2,0,0,0-2.432,2.688.59.59,0,0,0-.192.416.376.376,0,0,0,.32.288.488.488,0,0,0,.384-.192,12.716,12.716,0,0,1,3.392-2.56,5.467,5.467,0,0,1,2.048-.352c.512,0,1.376.1,1.824.1.832,0,1.28-.16,1.28-.96,0-.7-.448-1.408-2.656-1.408a18.347,18.347,0,0,0-4.832.608,16.986,16.986,0,0,0-4.32,1.92c-.256.16-.384.288-.384.512a.362.362,0,0,0,.384.352,1.372,1.372,0,0,0,.48-.16,21.853,21.853,0,0,1,4.48-1.408C19.328,99.376,19.36,99.5,19.264,99.6Zm-6.112,10.528a4.885,4.885,0,0,0,1.6,3.744c1.92,1.728,5.056,1.92,7.712,1.92a17.834,17.834,0,0,0,4.448-.416.957.957,0,0,0,.8-.96,1.256,1.256,0,0,0-.864-1.088,4.684,4.684,0,0,0-1.312-.256,5.065,5.065,0,0,0-1.216.16,9.27,9.27,0,0,1-1.184.256,15.021,15.021,0,0,1-2.272.128c-1.856,0-4.16-.192-5.472-1.312a3.619,3.619,0,0,1-1.184-3.008,10.723,10.723,0,0,1,.32-2.112c0-.192-.16-.288-.352-.288-.16,0-.256.1-.384.32A7.169,7.169,0,0,0,13.152,110.128Zm-3.424-3.84c-.768,1.984-1.536,4.064-2.272,5.952-.064.16-.16.224-.224.224-.1,0-.192-.064-.224-.224a10.726,10.726,0,0,1-.224-2.592,26.236,26.236,0,0,1,1.6-8.256,4.985,4.985,0,0,1,.736-1.408,1.412,1.412,0,0,0,.448-1.056A4.1,4.1,0,0,0,8.7,96.72a3.62,3.62,0,0,0-2.336-1.7.259.259,0,0,0-.288.224.432.432,0,0,0,.16.32A3.259,3.259,0,0,1,7.2,97.84a13.623,13.623,0,0,1-.48,2.624,42.471,42.471,0,0,0-1.44,9.408,17.5,17.5,0,0,0,1.056,6.048c.48,1.152.9,1.5,1.472,1.5.416,0,.768-.256.768-.9,0-.448-.1-1.5-.1-2.08A9.682,9.682,0,0,1,8.8,112.4c.288-1.248.9-3.264,1.664-5.824a1.408,1.408,0,0,0,.064-.32.409.409,0,0,0-.384-.352C9.984,105.9,9.824,106,9.728,106.288Zm51.008-8.064a15.951,15.951,0,0,0-6.688,1.664c-1.632.736-3.392,1.632-6.016,3.008a4.077,4.077,0,0,1-1.888.608,2.556,2.556,0,0,1-1.5-.864c-.224-.224-.352-.352-.512-.352-.192,0-.384.288-.384.608a3.571,3.571,0,0,0,1.024,2.016,4.147,4.147,0,0,0,2.528,1.44c.48,0,.7-.224,1.024-.64a8.177,8.177,0,0,1,1.824-1.568,43.017,43.017,0,0,1,4.864-3.072,12.279,12.279,0,0,1,5.632-1.6c3.552,0,6.176,2.112,6.176,5.76,0,2.528-1.856,4.7-4.544,6.368a28.3,28.3,0,0,1-9.376,3.36c-.48.1-.672.256-.672.448a.545.545,0,0,0,.64.448,28.109,28.109,0,0,0,11.52-3.008c2.816-1.6,4.9-3.776,4.9-7.1C69.28,100.88,65.216,98.224,60.736,98.224Zm42.208,1.952c-.224,0-.352.128-.352.288,0,.224.1.32.288.448a10.781,10.781,0,0,1,3.52,3.232,8.788,8.788,0,0,1,1.6,3.968c0,.48-.16.64-.64.736-.7.128-1.44.16-2.336.256-.32.032-.576.1-.576.256,0,.224.128.32.512.416.768.192,1.44.352,1.984.512a2.052,2.052,0,0,1,1.248.9.946.946,0,0,0,.864.512,1.207,1.207,0,0,0,.928-.512,3.1,3.1,0,0,0,.48-1.888,8.929,8.929,0,0,0-1.184-4.064,10.538,10.538,0,0,0-3.488-3.744A8.62,8.62,0,0,0,102.944,100.176Zm-9.952,15.9c.736,0,1.088-.448,1.056-.96a2.3,2.3,0,0,0-.32-.928,1.618,1.618,0,0,1-.192-.8,4.774,4.774,0,0,1,.448-1.568c.512-1.312,1.664-3.84,2.656-5.888a1.043,1.043,0,0,0,.128-.416.442.442,0,0,0-.384-.352.854.854,0,0,0-.544.416c-1.344,2.144-2.72,4.48-3.68,6.048-.288.448-.512.608-.768.608-.448,0-1.088-.576-1.664-2.016a13.416,13.416,0,0,1-.768-4.416,16.411,16.411,0,0,1,.48-4.576,2.914,2.914,0,0,0,.288-.992,3.674,3.674,0,0,0-1.5-2.5,4.252,4.252,0,0,0-2.08-1.056c-.256,0-.512.032-.512.192,0,.1.032.16.224.32a3.37,3.37,0,0,1,1.28,2.08,34.791,34.791,0,0,1,.1,4.064,29.542,29.542,0,0,0,.384,5.312,10.383,10.383,0,0,0,3.1,6.208A4.3,4.3,0,0,0,92.992,116.08ZM141.12,98.832a13.7,13.7,0,0,0-4.448,4.576,10.215,10.215,0,0,0-1.44,5.472,7.72,7.72,0,0,0,3.424,6.336,14.245,14.245,0,0,0,7.488,2.368c1.344,0,1.7-.384,1.7-.928a1.456,1.456,0,0,0-.864-1.376,4.263,4.263,0,0,0-2.208-.544,10.9,10.9,0,0,1-5.856-1.952,6.033,6.033,0,0,1-2.208-4.8,9.223,9.223,0,0,1,2.528-6.208A10.291,10.291,0,0,1,143.84,98.8a20.558,20.558,0,0,1,5.632-.7c.8-.032,1.152-.32,1.12-.992,0-.48-.416-.8-.864-.992a5.159,5.159,0,0,0-2.08-.544,2.185,2.185,0,0,0-1.088.32,3.832,3.832,0,0,1-1.248.48c-4.7,1.216-9.5,2.464-14.144,3.648a11.383,11.383,0,0,1-1.92.352,2.835,2.835,0,0,1-2.4-1.12.654.654,0,0,0-.416-.256c-.16,0-.288.352-.288.8a3.425,3.425,0,0,0,.96,1.792c.832.96,1.6,1.376,2.144,1.344a1.184,1.184,0,0,0,.864-.32,4.432,4.432,0,0,1,1.376-.736c2.464-.864,6.08-2.08,9.6-3.168Z" transform="translate(-1.248 24.352)"/>
</svg>
