<svg xmlns="http://www.w3.org/2000/svg" width="551" height="114" viewBox="0 0 551 114">
  <g id="グループ_9866" data-name="グループ 9866" transform="translate(-183 -589)">
    <rect id="長方形_13792" data-name="長方形 13792" width="551" height="44" transform="translate(183 659)" fill="#fff"/>
    <path id="パス_4194" data-name="パス 4194" d="M19.28-11.62c.2,0,.26-.06.26-.2s-.16-.32-.46-.58c-.72-.62-.92-.78-1.1-.78-.14,0-.38.16-1.1,1.1H15.02c.34-.88.64-1.88.96-3.04.46-.18.62-.32.62-.52,0-.28-.48-.46-2.48-.86a23.885,23.885,0,0,1-.32,3.32,21.962,21.962,0,0,1-1.3,4.82c-.48-.36-.66-.48-.82-.48-.14,0-.38.16-.96.92H6.06a4.585,4.585,0,0,1-1.18-.16l.22.74a4.811,4.811,0,0,1,.98-.12h.44C6.48-3.24,5.96-1.6,4.24.3c-.06.08.08.26.16.2C7.3-1.36,8.2-3.2,8.28-7.46h1.3v4.68a6.418,6.418,0,0,1-1.34.28c.54,1.84.62,2.06.86,2.06.22,0,.34-.16.42-.56a19.657,19.657,0,0,0,3.9-3.22c.06-.08,0-.26-.08-.22a20.018,20.018,0,0,1-2.08,1.02V-7.46h1.66c.2,0,.26-.06.26-.2,0-.12-.14-.28-.38-.46.26-.34.52-.68.76-1.04a27.547,27.547,0,0,0,1.08,5.12,14.865,14.865,0,0,1-5,5.46c-.08.06.04.28.14.24a14.5,14.5,0,0,0,5.46-4.18A13.253,13.253,0,0,0,17.48.86c.32.34.58.56.7.56.16,0,.18-.02.36-.46A2.461,2.461,0,0,1,19.8-.32c.1-.04.14-.16.04-.2a8.956,8.956,0,0,1-3.8-3.16,15.423,15.423,0,0,0,1.64-4.14,24.554,24.554,0,0,0,.48-3.38,2.984,2.984,0,0,0,.04-.42Zm-2.9,0a27.691,27.691,0,0,1-.36,3.38,16.2,16.2,0,0,1-.86,3.02A17.837,17.837,0,0,1,13.84-9.6a18.95,18.95,0,0,0,1-2.02ZM2.26-4.14c0,3.06-.12,4.6-.12,5.1,0,.58.42.76.84.76C3.66,1.72,4,1.46,4,.88v-8.3c.4-.18.52-.3.52-.48,0-.22-.14-.3-1.04-.44A12.079,12.079,0,0,0,5.2-10.92a2.884,2.884,0,0,0,.54-.2c-.02.7-.04,1.06-.04,1.18,0,.42.22.62.72.62.58,0,.84-.24.84-.7v-.3h3.86v.1c0,.38.22.56.66.56.54,0,.98-.26.98-.66,0-.34-.06-1.4-.06-2.94v-.58c.36-.14.52-.26.52-.44,0-.28-.26-.34-2.2-.64a11.844,11.844,0,0,1,.1,1.66v2.48H10v-4.4c.38-.16.6-.32.6-.48,0-.2-.2-.4-2.3-.62a11.738,11.738,0,0,1,.1,1.64v3.86H7.26v-3.08c.42-.14.6-.26.6-.48,0-.28-.12-.3-2.24-.6a23.994,23.994,0,0,1,.12,3.36,13.889,13.889,0,0,0-2-.82,10.635,10.635,0,0,1-.78,2.28A21,21,0,0,1,.26-5.74c-.06.08.08.26.16.2a18.819,18.819,0,0,0,1.84-1.5Zm3.66-11.4c0-.26-.78-.66-2.36-1.14a8.746,8.746,0,0,1-.82,2.12A14.639,14.639,0,0,1,.48-11.28c-.06.08.06.24.14.2A13.628,13.628,0,0,0,5.1-15.14C5.7-15.2,5.92-15.3,5.92-15.54Zm28.44,4.7h6.58c.2,0,.26-.06.26-.2s-.14-.34-.6-.72c-1.02-.86-1.22-1.02-1.4-1.02-.14,0-.38.16-1.4,1.48H34.36v-4c.5-.16.74-.34.74-.56,0-.24-.26-.48-2.8-.72a27,27,0,0,1,.12,2.84v2.44H29.06a20.915,20.915,0,0,0,.92-2.24c.58-.16.8-.28.8-.52,0-.32-.72-.6-2.58-1.08a17.766,17.766,0,0,1-.48,2.32,18.1,18.1,0,0,1-2.96,6.14c-.06.08.12.22.2.16a11.481,11.481,0,0,0,3.86-4.32h3.6v4.72H28.84a10.462,10.462,0,0,1-1.8-.16l.22.74a14.036,14.036,0,0,1,1.68-.12h3.48V-.08H26.68a14.345,14.345,0,0,1-2.12-.16l.22.74A17.9,17.9,0,0,1,26.7.38H42.08c.2,0,.26-.06.26-.2s-.16-.32-.64-.72c-1.06-.88-1.28-1.04-1.46-1.04-.14,0-.38.16-1.52,1.5H34.36V-5.66H40.4c.2,0,.26-.06.26-.2s-.16-.32-.6-.7c-.98-.84-1.18-1-1.36-1-.14,0-.38.16-1.38,1.44H34.36Zm26.9-1.18c-.9,5.46-3.06,9.18-6.82,11.86-.08.06.04.28.14.24,4.9-2.24,7.42-5.8,8.56-12.1h.42a54.3,54.3,0,0,1-.8,9.72C62.42-.76,62.42-.76,61.3-.76c-.16,0-1.14-.04-2.32-.12-.1,0-.12.28-.02.3,1.42.34,2.04.82,2.22,1.62.1.44.12.46.46.46A2.753,2.753,0,0,0,63.28,1a2.678,2.678,0,0,0,.94-1.34c.7-1.96.96-4.42,1.2-11.16.56-.42.62-.48.62-.62,0-.16-.12-.3-.46-.58-.76-.62-.92-.74-1.12-.74-.16,0-.32.12-1.08.96h-6.1a20.781,20.781,0,0,0,1.32-2.98c.56-.14.76-.26.76-.5,0-.32-.62-.5-2.7-.8a13.63,13.63,0,0,1-.52,2.94,17.5,17.5,0,0,1-2.26,5.2c-.06.08.1.22.18.16a13.017,13.017,0,0,0,2.96-3.56h1.16A15.466,15.466,0,0,1,53.3-3.78c-.08.06.04.24.14.2a12.377,12.377,0,0,0,6.64-8.44Zm-8.42.56h2.22c.2,0,.26-.06.26-.2s-.16-.34-.38-.54c-.6-.56-.78-.72-.96-.72-.14,0-.38.16-.96,1h-.18v-3.64c.54-.24.7-.36.7-.56,0-.3-.16-.36-2.58-.64.06.88.08,1.22.08,3.02v1.82H49.76a17.332,17.332,0,0,0,.44-1.68c.48-.14.62-.22.62-.42,0-.26-.56-.46-2.24-.9-.02.68-.06,1.44-.16,2.22a26.065,26.065,0,0,1-1,4.96c-.04.1.16.14.22.06a12.345,12.345,0,0,0,1.96-3.78h1.44c0,1.38-.02,2.74-.04,4.86-.52.1-1.04.2-1.52.28a9.253,9.253,0,0,1-1.8.16c.52,1.98.7,2.4,1,2.4.24,0,.36-.2.42-.72.68-.24,1.32-.48,1.9-.72-.04,3.2-.08,5.28-.08,6.22,0,.48.2.68.82.68.86,0,1.14-.26,1.14-.9,0-1.04-.02-3.42-.02-6.86a19.558,19.558,0,0,0,2.3-1.42c.08-.06.02-.26-.08-.22-.66.22-1.42.46-2.24.66Zm31.06-3.2a.859.859,0,0,0-.32,0c-.06.02-.1.04-.1.12s.14.18.22.26a7.486,7.486,0,0,1,1.26,1.76.717.717,0,0,0,.68.46.672.672,0,0,0,.66-.7,1.5,1.5,0,0,0-.74-1.2A3.9,3.9,0,0,0,83.9-14.66Zm1.6-1.26a.524.524,0,0,0-.32.02.121.121,0,0,0-.06.12c0,.08.16.18.24.24a5.075,5.075,0,0,1,1.4,1.56.765.765,0,0,0,.74.44.67.67,0,0,0,.62-.74,1.285,1.285,0,0,0-.72-1.02A4.108,4.108,0,0,0,85.5-15.92ZM86.32-5.3a.891.891,0,0,1,.68.36.945.945,0,0,0,.82.32c.34-.02.84-.3.84-1.1a4.7,4.7,0,0,0-1.68-3.7,6.165,6.165,0,0,0-3.24-1.66c-.06,0-.1-.02-.14-.02-.2,0-.3.06-.3.2,0,.12.16.2.36.28a4.855,4.855,0,0,1,2.3,2.04,3.3,3.3,0,0,1,.6,1.64c0,.32-.66.7-2.42,1.4-.18.08-.18.1-.18.18s.04.14.22.14c.14,0,.38-.02.6-.04C85.18-5.28,85.62-5.3,86.32-5.3Zm-7.44-5.62c.3-.66.58-1.22.76-1.64a1.473,1.473,0,0,1,.42-.62.787.787,0,0,0,.46-.64.783.783,0,0,0-.18-.56,3.265,3.265,0,0,0-2.1-1.14,3.158,3.158,0,0,0-.98.16c-.2.06-.34.18-.34.36,0,.12.14.14.3.2a5,5,0,0,1,.78.34.6.6,0,0,1,.3.58,11.5,11.5,0,0,1-.94,3.2c-.82.2-1.58.42-2.32.56a8.289,8.289,0,0,1-1.72.24,1.523,1.523,0,0,1-1.02-.7c-.08-.12-.1-.22-.26-.22-.18,0-.3.3-.3.72a2.3,2.3,0,0,0,.76,1.36,1.716,1.716,0,0,0,1.12.54.785.785,0,0,0,.52-.18,3.984,3.984,0,0,1,.58-.28c.64-.28,1.4-.58,2.18-.88A64.134,64.134,0,0,1,72.48-1.8,1.86,1.86,0,0,0,72.1-.72a.809.809,0,0,0,.76.8.961.961,0,0,0,.88-.44c.52-.86,1.24-2.2,1.98-3.72.84-1.7,1.92-4.06,2.82-5.96a5.506,5.506,0,0,1,1.04-.16c.9,0,1.18.56,1.18,2.44a12.277,12.277,0,0,1-.48,3.18A7.085,7.085,0,0,1,79.24-2.3a.867.867,0,0,1-.76.36,2.12,2.12,0,0,1-.76-.22,8.683,8.683,0,0,1-1.36-.78.447.447,0,0,0-.26-.12.147.147,0,0,0-.16.16c0,.06.04.12.14.24a11.9,11.9,0,0,1,.86,1.08,1.6,1.6,0,0,1,.4,1.06c-.02.64.38.9.98.9.68,0,1.26-.46,1.96-1.2a6.5,6.5,0,0,0,1.18-2.14A13.339,13.339,0,0,0,82.2-7.5c0-2.02-.98-3.48-2.28-3.48A6.655,6.655,0,0,0,78.88-10.92Zm27.58,1.1h6.02c.2,0,.26-.06.26-.2s-.16-.3-.66-.72c-1.12-.88-1.34-1.04-1.52-1.04-.14,0-.38.16-1.46,1.5H96.66a14.039,14.039,0,0,1-2.08-.16l.22.74a16.558,16.558,0,0,1,1.84-.12h3.28a16.658,16.658,0,0,1-.88,6.18c-.8,2.06-2.24,3.44-4.72,4.9a.1.1,0,0,0,.08.18c3.1-.96,5-2.12,6.12-4.14.92-1.66,1.36-3.94,1.38-7.12h2.64v4.9c0,1.5-.02,2.66-.02,3.94,0,1.66.7,2.02,3.6,2.02A13.191,13.191,0,0,0,111.8.7c.72-.22,1.02-.58,1.02-1.12a.775.775,0,0,0-.44-.76c-.34-.16-.36-.2-.36-.7V-4.36c0-.1-.22-.12-.24-.02-.52,2.16-.76,3.06-1.4,3.46a4.47,4.47,0,0,1-2.12.28c-1.48,0-1.8-.14-1.8-.82ZM98.94-15a11.555,11.555,0,0,1-1.9-.16l.22.74A14.956,14.956,0,0,1,99-14.54h11.04c.2,0,.26-.06.26-.2s-.14-.34-.64-.72c-1.04-.78-1.26-.94-1.44-.94-.14,0-.38.16-1.44,1.4Zm35.26,1.44c.2,0,.26-.06.26-.2s-.16-.3-.62-.68c-1-.76-1.22-.92-1.4-.92-.14,0-.38.16-1.4,1.34h-8.06q.27-.54.54-1.14c.66-.04.9-.18.9-.46,0-.3-.56-.56-2.54-1.1a11.8,11.8,0,0,1-.68,2.4,18.322,18.322,0,0,1-3.26,5.52c-.06.08.08.24.16.18a12.442,12.442,0,0,0,4.62-4.94ZM125.52-2.54a9.24,9.24,0,0,1,1.16,1.86c.44.8.7,1.02,1.2,1.02a.953.953,0,0,0,.92-1.08c0-.94-.78-1.98-2.18-3.02a18.921,18.921,0,0,0,1.64-2.42c.64,0,.88-.12.88-.42,0-.34-.54-.64-2.34-1.32a15.181,15.181,0,0,1-.74,1.64,12.418,12.418,0,0,1-.94,1.56,29.384,29.384,0,0,0-3.94-1.84c-.1-.04-.24.14-.16.2a22.668,22.668,0,0,1,3.4,2.62,17.37,17.37,0,0,1-6,4.7c-.08.04.02.26.12.24A14.062,14.062,0,0,0,125.52-2.54Zm-2.12-9a6.218,6.218,0,0,1-1.38-.16l.22.74a6.711,6.711,0,0,1,1.16-.12h8.88c.2,0,.26-.06.26-.2s-.16-.3-.54-.6c-.86-.64-1.1-.8-1.28-.8-.14,0-.38.16-1.26,1.14Zm-2.12,2.6a11.271,11.271,0,0,1-1.48-.14l.22.74a5.655,5.655,0,0,1,1.32-.14h9.34c.06,3.32.4,5.08,1.24,6.84A6.779,6.779,0,0,0,133.98.94a2.43,2.43,0,0,0,1.36.5.831.831,0,0,0,.92-.84.981.981,0,0,0-.24-.64c-.32-.36-.36-.44-.36-.72,0-.2.04-.6.36-3.06.02-.1-.2-.18-.24-.08-.66,1.86-1.02,2.62-1.22,2.62s-.36-.2-.54-.46a7.086,7.086,0,0,1-1.06-2.16,16.394,16.394,0,0,1-.48-4.04c.46-.28.64-.46.64-.68,0-.16-.12-.3-.46-.58-.76-.62-.92-.74-1.12-.74-.16,0-.32.12-1.08,1Zm33.48-.42c-1.32.3-2.66,1.04-2.66,2.76,0,.86.06,1.92.14,2.98a9.863,9.863,0,0,0-1.44-.1,4.112,4.112,0,0,0-2.4.72,2.086,2.086,0,0,0-.84,1.66,1.964,1.964,0,0,0,.8,1.52,3.6,3.6,0,0,0,2.28.76,3.962,3.962,0,0,0,2.32-.56,2.483,2.483,0,0,0,1-2.2,8.451,8.451,0,0,1,1.88,1.4A1.591,1.591,0,0,0,157,.14a.787.787,0,0,0,.78-.88c0-.78-.82-1.6-3.9-2.64a16.3,16.3,0,0,1-.68-3.72,1.411,1.411,0,0,1,.74-1.4,1.454,1.454,0,0,1,.9-.26,2.3,2.3,0,0,1,1.56.7,1.584,1.584,0,0,0,.78.32c.5,0,.7-.32.7-.78a1.541,1.541,0,0,0-.92-1.3,6.975,6.975,0,0,0-3.38-.88,4.871,4.871,0,0,0-2.08.4c-.14.06-.24.14-.24.26,0,.1.08.14.2.14a3.526,3.526,0,0,0,.38-.04,6.96,6.96,0,0,1,.94-.02A4.135,4.135,0,0,1,154.76-9.36Zm-2.42,7a1.417,1.417,0,0,1,.02.28,1.745,1.745,0,0,1-.44,1.3,2.546,2.546,0,0,1-1.68.48,2.925,2.925,0,0,1-1.42-.32,1.085,1.085,0,0,1-.5-.92,1.087,1.087,0,0,1,.5-.84,3.38,3.38,0,0,1,1.72-.32A5.272,5.272,0,0,1,152.34-2.36ZM151.2-13.1a1.705,1.705,0,0,0-.84.26,5.2,5.2,0,0,1-1.32.6c.52-1.28.72-1.62,1-1.84a.609.609,0,0,0,.26-.52.761.761,0,0,0-.44-.74,4.241,4.241,0,0,0-2-.66,1.735,1.735,0,0,0-.88.2.349.349,0,0,0-.2.26c0,.08.06.14.16.18,1.06.4,1.2.52,1.2,1a7.62,7.62,0,0,1-.66,2.52,14.872,14.872,0,0,1-2.7.38,4,4,0,0,1-.98-.1,2.327,2.327,0,0,1-.9-.48c-.12-.1-.16-.12-.22-.12-.04,0-.14.02-.14.12a.825.825,0,0,0,.08.34,2.649,2.649,0,0,0,1.18,1.28,2.515,2.515,0,0,0,1.3.26c.46,0,1.34-.12,1.82-.18a42.4,42.4,0,0,1-3.3,6.08,3.373,3.373,0,0,0-.66,1.32.8.8,0,0,0,.28.64.785.785,0,0,0,.62.26,1.049,1.049,0,0,0,.52-.16,3.811,3.811,0,0,0,.8-1.26c.96-2.02,2.1-4.6,3.22-7.22,1.26-.3,2.32-.54,2.96-.76.6-.22.84-.48.84-.94C152.2-12.66,151.84-13.06,151.2-13.1ZM173.94-.58h6.3V.4c0,.44.24.6.82.6.74,0,1.04-.22,1.04-.76,0-1.36-.1-5.5-.1-11.52v-2.26c.48-.3.66-.46.66-.66,0-.16-.12-.3-.46-.62-.76-.68-.92-.8-1.12-.8-.16,0-.32.12-1.06.94h-5.94c-.86-.52-1.02-.6-2.02-1.12.1,2.06.12,2.92.12,4.96,0,6.76-.1,9.68-.1,11.36,0,.44.22.6.74.6.78,0,1.12-.2,1.12-.72Zm0-7.58v-6.06h2.2v6.06Zm0,.46h2.2v6.66h-2.2Zm6.3,6.66h-2.38V-7.7h2.38Zm0-7.12h-2.38v-6.06h2.38ZM168.46-4.38a5.3,5.3,0,0,1,1.12,2.72c.16.74.4.98.84.98.6,0,.96-.52.96-1.2,0-1.1-.88-2.12-2.82-2.84a21.916,21.916,0,0,0,.62-4.24A13.476,13.476,0,0,0,171.3-11c.52,0,.72-.1.72-.34,0-.22-.46-.54-1.8-1.26a9.617,9.617,0,0,1-.36,1.4,9.9,9.9,0,0,1-.66,1.54c.02-.26.02-.52.02-.8.04-3.8.04-4.14.06-4.7.48-.2.62-.32.62-.5,0-.28-.26-.36-2.58-.64.1,1.02.14,2.26.14,5.16,0,6.04-.7,8.8-3.08,12.18-.06.08.16.24.24.18A11.138,11.138,0,0,0,168.46-4.38Zm-2.36-7.64a.094.094,0,0,0-.18.04,3.414,3.414,0,0,1-.8,2.58c-.66.7-.72.86-.72,1.26a.868.868,0,0,0,.94.88c.84,0,1.3-.94,1.3-2.18A7.024,7.024,0,0,0,166.1-12.02Zm35.54,8.4c-.1-1.54-.2-3.34-.2-5.74a15.689,15.689,0,0,0,2.66-.66c.46-.18.6-.42.6-.76,0-.36-.34-.76-1.26-.76a1.454,1.454,0,0,0-.78.22,1.487,1.487,0,0,1-.42.26,6.87,6.87,0,0,1-.74.2,11.875,11.875,0,0,1,.18-1.88,1.446,1.446,0,0,1,.32-.76.574.574,0,0,0,.18-.46c0-.42-.36-.68-.92-.98a2.661,2.661,0,0,0-1.4-.36,1.515,1.515,0,0,0-.82.26c-.26.16-.5.38-.5.5a.172.172,0,0,0,.16.16c.06,0,.16.02.24.02a3.247,3.247,0,0,1,.42.02.649.649,0,0,1,.64.66c.06.52.06,1.3.08,3.16a17.437,17.437,0,0,1-3.02.34,3.8,3.8,0,0,1-1.72-.36,1.105,1.105,0,0,0-.38-.16c-.08,0-.12.08-.12.16s.02.14.14.32a3.047,3.047,0,0,0,1.02.9,2.753,2.753,0,0,0,1.36.3,17.52,17.52,0,0,0,2.7-.18c.02,1.82.06,3.44.08,5.26a8.217,8.217,0,0,0-1.7-.2,4.339,4.339,0,0,0-2.18.48,2.047,2.047,0,0,0-1.02,1.7,2.094,2.094,0,0,0,1.1,1.74,4.855,4.855,0,0,0,2.14.46c1.84,0,3.08-.96,3.1-2.26a9.469,9.469,0,0,1,1.74,1.48,1,1,0,0,0,.72.36.793.793,0,0,0,.54-.2.858.858,0,0,0,.3-.68,1.294,1.294,0,0,0-.38-.9A8.277,8.277,0,0,0,201.64-3.62Zm-1.58.9a2.483,2.483,0,0,1-.06.54,1.326,1.326,0,0,1-.54.84,2.959,2.959,0,0,1-1.5.38,2.888,2.888,0,0,1-1.5-.26,1.018,1.018,0,0,1-.52-.88,1.016,1.016,0,0,1,.64-.9A3.694,3.694,0,0,1,198-3.22,5.189,5.189,0,0,1,200.06-2.72Zm-6.6-4.12a.19.19,0,0,0-.16-.2c-.12-.02-.2.12-.26.26-.5,1.2-.92,2.1-1.44,3.14-.08.16-.28.16-.34-.06a7.267,7.267,0,0,1-.14-1.62,16.238,16.238,0,0,1,1.02-5.16,3.048,3.048,0,0,1,.68-1.38.787.787,0,0,0,.3-.64,3.453,3.453,0,0,0-1.18-2.18,1.517,1.517,0,0,0-1.06-.56c-.22,0-.32.04-.32.12,0,.1.04.14.16.32a2.442,2.442,0,0,1,.46,1.4,8.329,8.329,0,0,1-.32,1.8,31.132,31.132,0,0,0-.92,6.84A9.946,9.946,0,0,0,190.6-.5a1.25,1.25,0,0,0,1.08.9.719.719,0,0,0,.76-.68c0-.56-.14-.94-.14-1.38a4.68,4.68,0,0,1,.04-.86,35.5,35.5,0,0,1,1.04-3.96A2.028,2.028,0,0,0,193.46-6.84ZM211.78-2.9A6.848,6.848,0,0,1,214.34.46a1.192,1.192,0,0,0,1.06.9A1.164,1.164,0,0,0,216.6.12a2.532,2.532,0,0,0-1.28-2.02,9.944,9.944,0,0,0-3.5-1.38.179.179,0,0,0-.18.18A.253.253,0,0,0,211.78-2.9Zm36.58-6.46c-1.32.3-2.66,1.04-2.66,2.76,0,.86.06,1.92.14,2.98a9.863,9.863,0,0,0-1.44-.1A4.112,4.112,0,0,0,242-3a2.086,2.086,0,0,0-.84,1.66,1.964,1.964,0,0,0,.8,1.52,3.6,3.6,0,0,0,2.28.76,3.962,3.962,0,0,0,2.32-.56,2.483,2.483,0,0,0,1-2.2,8.451,8.451,0,0,1,1.88,1.4,1.591,1.591,0,0,0,1.16.56.787.787,0,0,0,.78-.88c0-.78-.82-1.6-3.9-2.64a16.3,16.3,0,0,1-.68-3.72,1.411,1.411,0,0,1,.74-1.4,1.454,1.454,0,0,1,.9-.26,2.3,2.3,0,0,1,1.56.7,1.584,1.584,0,0,0,.78.32c.5,0,.7-.32.7-.78a1.541,1.541,0,0,0-.92-1.3,6.975,6.975,0,0,0-3.38-.88,4.871,4.871,0,0,0-2.08.4c-.14.06-.24.14-.24.26,0,.1.08.14.2.14a3.526,3.526,0,0,0,.38-.04,6.96,6.96,0,0,1,.94-.02A4.135,4.135,0,0,1,248.36-9.36Zm-2.42,7a1.417,1.417,0,0,1,.02.28,1.745,1.745,0,0,1-.44,1.3,2.546,2.546,0,0,1-1.68.48,2.925,2.925,0,0,1-1.42-.32,1.085,1.085,0,0,1-.5-.92,1.087,1.087,0,0,1,.5-.84,3.38,3.38,0,0,1,1.72-.32A5.272,5.272,0,0,1,245.94-2.36ZM244.8-13.1a1.705,1.705,0,0,0-.84.26,5.2,5.2,0,0,1-1.32.6c.52-1.28.72-1.62,1-1.84a.609.609,0,0,0,.26-.52.761.761,0,0,0-.44-.74,4.241,4.241,0,0,0-2-.66,1.735,1.735,0,0,0-.88.2.349.349,0,0,0-.2.26c0,.08.06.14.16.18,1.06.4,1.2.52,1.2,1a7.62,7.62,0,0,1-.66,2.52,14.872,14.872,0,0,1-2.7.38,4,4,0,0,1-.98-.1,2.327,2.327,0,0,1-.9-.48c-.12-.1-.16-.12-.22-.12-.04,0-.14.02-.14.12a.825.825,0,0,0,.08.34,2.649,2.649,0,0,0,1.18,1.28,2.515,2.515,0,0,0,1.3.26c.46,0,1.34-.12,1.82-.18a42.4,42.4,0,0,1-3.3,6.08,3.373,3.373,0,0,0-.66,1.32.8.8,0,0,0,.28.64.785.785,0,0,0,.62.26,1.049,1.049,0,0,0,.52-.16,3.811,3.811,0,0,0,.8-1.26c.96-2.02,2.1-4.6,3.22-7.22,1.26-.3,2.32-.54,2.96-.76.6-.22.84-.48.84-.94C245.8-12.66,245.44-13.06,244.8-13.1Zm27.54-2.26a.859.859,0,0,0-.32,0c-.06.02-.1.04-.1.12s.14.18.22.26a7.485,7.485,0,0,1,1.26,1.76.717.717,0,0,0,.68.46.624.624,0,0,0,.6-.7,1.382,1.382,0,0,0-.7-1.16A4.418,4.418,0,0,0,272.34-15.36Zm1.56-1.22a.524.524,0,0,0-.32.02.121.121,0,0,0-.06.12c0,.08.16.18.24.24a5.076,5.076,0,0,1,1.4,1.56.741.741,0,0,0,.68.44.622.622,0,0,0,.62-.7,1.319,1.319,0,0,0-.7-1.02A4.016,4.016,0,0,0,273.9-16.58Zm-2.2,4.5c-.06,0-.1.04-.1.12,0,.06.04.1.16.26.2.26.6.78.74.98-.38.08-1.02.2-1.64.32.02-.58.04-1.16.06-1.84a2.805,2.805,0,0,1,.2-1.22,1.162,1.162,0,0,0,.22-.62.787.787,0,0,0-.26-.6,3.265,3.265,0,0,0-1.98-.96,1.447,1.447,0,0,0-.8.22c-.22.14-.36.3-.36.38s.04.2.14.22a4.653,4.653,0,0,1,.82.22.688.688,0,0,1,.46.68c.04.62.04,1.2.04,2.34v1.52c-1.44.36-2.96.7-4.44,1.12.04-.8.06-1.18.08-1.42a.643.643,0,0,1,.2-.42.623.623,0,0,0,.14-.42,1.15,1.15,0,0,0-.48-.84,2.728,2.728,0,0,0-1.74-.86,2.167,2.167,0,0,0-1,.3.317.317,0,0,0-.16.26c0,.08.04.12.28.16.48.1.76.24.92.62a3.953,3.953,0,0,1,.16,1.36c.02.56.04,1.16.04,1.74-1.04.32-2.18.62-3.16.9a2.943,2.943,0,0,1-.66.1,1.256,1.256,0,0,1-.6-.16,3.768,3.768,0,0,1-.46-.32c-.2-.16-.24-.22-.34-.22-.12,0-.22.16-.22.48a1.96,1.96,0,0,0,.84,1.28,3.111,3.111,0,0,0,1.5.74.766.766,0,0,0,.66-.34,8.285,8.285,0,0,1,2.42-1.2c.02.92,0,1.82.02,2.82a5.548,5.548,0,0,0,.44,2.48,2.86,2.86,0,0,0,1.42,1.28,10.463,10.463,0,0,0,3.28.5,22.135,22.135,0,0,0,3.66-.2c.76-.14,1.1-.36,1.1-.96,0-.44-.3-.66-.7-.8a3.418,3.418,0,0,0-1.14-.16A3.326,3.326,0,0,0,270.4-2a13.159,13.159,0,0,1-2.96.3c-1.5,0-2.02-.26-2.36-.68a3.89,3.89,0,0,1-.32-2.1c0-.64.04-2.04.06-3.26a35.9,35.9,0,0,1,4.54-1.24,12.229,12.229,0,0,1-.22,3.12c-.08.3-.1.4-.6.4a8.445,8.445,0,0,1-1.62-.22,2.7,2.7,0,0,0-.36-.06c-.1,0-.18.02-.18.12,0,.12.1.18.26.28.94.62,1.26.78,1.42,1.28a.74.74,0,0,0,.7.54,1.818,1.818,0,0,0,.94-.3,2.671,2.671,0,0,0,.94-1.58,33.747,33.747,0,0,0,.16-3.9c.66-.08,1.28-.16,1.94-.18a6.061,6.061,0,0,1,1.04.02c.56.06.94.12,1.32.12.42,0,.94-.18.94-.74,0-.74-.46-.8-.94-.9-.5-.1-1.1-.12-1.64-.22a4.247,4.247,0,0,1-1.4-.72A.952.952,0,0,0,271.7-12.08ZM281.98-2.9A6.848,6.848,0,0,1,284.54.46a1.192,1.192,0,0,0,1.06.9A1.164,1.164,0,0,0,286.8.12a2.532,2.532,0,0,0-1.28-2.02,9.944,9.944,0,0,0-3.5-1.38.179.179,0,0,0-.18.18A.253.253,0,0,0,281.98-2.9Zm35.46-8.48c0,.08.06.1.14.1a1.808,1.808,0,0,0,.32-.1,3.127,3.127,0,0,1,.84-.12,2.4,2.4,0,0,1,2.12,1.08.459.459,0,0,1,.08.28.372.372,0,0,1-.14.26,15.012,15.012,0,0,1-1.32.94c-.18.12-.26.16-.26.26s.1.1.16.1a3.34,3.34,0,0,0,.48-.1,4.822,4.822,0,0,1,.76-.14c.24-.02.46-.02.62-.02a.878.878,0,0,1,.6.26,1.038,1.038,0,0,0,.6.18c.46,0,.76-.34.76-.92a2.679,2.679,0,0,0-.96-2.04,4.139,4.139,0,0,0-2.66-.96,3.147,3.147,0,0,0-1.98.66A.345.345,0,0,0,317.44-11.38ZM312.7-6.44c-.02-1.08-.02-2.6-.02-3.52a16.78,16.78,0,0,0,1.76-.56,10.273,10.273,0,0,0,1.32-.64c.48-.32.54-.46.54-.8s-.38-.66-1.2-.66a1.539,1.539,0,0,0-.96.34,4.987,4.987,0,0,1-1.38.82,4.76,4.76,0,0,1,.22-1.6,2.024,2.024,0,0,1,.3-.4.829.829,0,0,0,.18-.54c0-.28-.28-.68-.86-1.1a2.487,2.487,0,0,0-1.42-.52,1.923,1.923,0,0,0-.88.32.632.632,0,0,0-.32.48c0,.1.16.16.46.16a1.72,1.72,0,0,1,.52.1c.2.06.32.14.36.46a2.628,2.628,0,0,1,.08.96v2.16a10.809,10.809,0,0,1-2.46.34,1.949,1.949,0,0,1-1.52-.72c-.16-.2-.26-.34-.38-.34-.14,0-.14.1-.14.26a1.846,1.846,0,0,0,.44.98,2.362,2.362,0,0,0,1.88,1.1,15.382,15.382,0,0,0,2.16-.26c.02,1.06.02,2.38.04,3.82-.66.4-1.58.96-2.28,1.36a10.8,10.8,0,0,1-2.08.98c-.2.02-.26,0-.34-.08a1.554,1.554,0,0,1-.22-.48c-.04-.12-.08-.16-.16-.16a1.158,1.158,0,0,0-.54,1.04,1.68,1.68,0,0,0,.88,1.32,1.784,1.784,0,0,0,.88.3.994.994,0,0,0,.8-.38,7.056,7.056,0,0,1,.92-.86,4.575,4.575,0,0,1,1.8,2.54c.12.48.34.66.68.66.36,0,.7-.22.98-.94a3.623,3.623,0,0,0,.16-1.28c0-.38-.02-.62-.04-.98-.04-.72-.08-1.44-.12-2.62.4-.24.82-.5,1.3-.76a6.315,6.315,0,0,1,2.92-.96,3.075,3.075,0,0,1,1.6.38,2.02,2.02,0,0,1,.96,1.82,2.357,2.357,0,0,1-.58,1.76,2.99,2.99,0,0,1-1.96.66,4.263,4.263,0,0,1-3.12-1.42.292.292,0,0,0-.26-.14.112.112,0,0,0-.12.1,4.069,4.069,0,0,0,.6,1.04,4.2,4.2,0,0,0,3.54,1.78,3.984,3.984,0,0,0,2.52-.78,2.961,2.961,0,0,0,1.3-2.52,3.219,3.219,0,0,0-1.56-2.68,4.543,4.543,0,0,0-2.58-.72A9.413,9.413,0,0,0,312.7-6.44Zm-1.26,1.88c.02.64.02,1.38.02,1.96,0,.2-.08.28-.2.28a1.719,1.719,0,0,1-.66-.22c-.34-.18-.58-.3-.98-.54C310.12-3.54,310.84-4.1,311.44-4.56Zm29.1-6.36c-.1,0-.18.04-.18.14,0,.12.12.18.26.28a6.752,6.752,0,0,1,2.08,2.04,5.619,5.619,0,0,1,.96,2.54.461.461,0,0,1-.32.48,13.768,13.768,0,0,1-1.4.48c-.2.06-.38.1-.38.22s.06.18.3.2c1.28.1,1.74.44,2.1,1a.727.727,0,0,0,.74.38.77.77,0,0,0,.7-.42,2.307,2.307,0,0,0,.3-1.44,6.179,6.179,0,0,0-.72-2.62,6.9,6.9,0,0,0-2.68-2.68A4.433,4.433,0,0,0,340.54-10.92Zm-3.92,3.56a.838.838,0,0,0,.08-.32c0-.1-.1-.14-.2-.14s-.24.16-.4.4c-1.1,1.72-1.62,2.64-2.24,3.5a.739.739,0,0,1-.48.36c-.34,0-.66-.4-.88-.98a7.793,7.793,0,0,1-.44-2.8,9.841,9.841,0,0,1,.34-2.88,1.4,1.4,0,0,0,.18-.78,2.572,2.572,0,0,0-1.14-1.76,2.513,2.513,0,0,0-1.44-.72c-.34,0-.42.04-.42.2,0,.12.04.12.14.22a2.172,2.172,0,0,1,.82,1.5c.04.98,0,1.92,0,2.78a18.642,18.642,0,0,0,.26,3.28,6.669,6.669,0,0,0,2.08,3.92,2.814,2.814,0,0,0,1.92.86.77.77,0,0,0,.76-.82,1.841,1.841,0,0,0-.32-.86,1.2,1.2,0,0,1-.14-.54A7.012,7.012,0,0,1,335.36-4,27.923,27.923,0,0,1,336.62-7.36Zm22.2-5.32a.98.98,0,0,0,.28-.68,1.4,1.4,0,0,0-.58-1.02,3.094,3.094,0,0,0-1.92-.9,2.675,2.675,0,0,0-.92.18c-.2.1-.34.18-.34.36,0,.12.06.14.62.34.64.26.78.58.76,1.32-.08,3.04-.22,6.32-.3,9.66-.06,2.46,1.22,3.9,3.32,3.9a9,9,0,0,0,5.34-1.62,11.582,11.582,0,0,0,3.48-3.56,1.862,1.862,0,0,0,.26-.56.188.188,0,0,0-.2-.2c-.12,0-.24.12-.36.26a11.629,11.629,0,0,1-3.5,2.7,9.818,9.818,0,0,1-4.36,1.22,3.156,3.156,0,0,1-1.92-.46c-.3-.28-.46-.86-.46-1.9,0-1.26.08-3.08.24-5.18a25.832,25.832,0,0,1,.34-3.52C358.64-12.5,358.74-12.56,358.82-12.68Zm28.52,1.76c-.1,0-.18.04-.18.14,0,.12.12.18.26.28a6.752,6.752,0,0,1,2.08,2.04,5.619,5.619,0,0,1,.96,2.54.461.461,0,0,1-.32.48,13.768,13.768,0,0,1-1.4.48c-.2.06-.38.1-.38.22s.06.18.3.2c1.28.1,1.74.44,2.1,1a.727.727,0,0,0,.74.38.77.77,0,0,0,.7-.42,2.307,2.307,0,0,0,.3-1.44,6.179,6.179,0,0,0-.72-2.62,6.9,6.9,0,0,0-2.68-2.68A4.433,4.433,0,0,0,387.34-10.92Zm-3.92,3.56a.838.838,0,0,0,.08-.32c0-.1-.1-.14-.2-.14s-.24.16-.4.4c-1.1,1.72-1.62,2.64-2.24,3.5a.739.739,0,0,1-.48.36c-.34,0-.66-.4-.88-.98a7.793,7.793,0,0,1-.44-2.8,9.841,9.841,0,0,1,.34-2.88,1.4,1.4,0,0,0,.18-.78,2.572,2.572,0,0,0-1.14-1.76,2.513,2.513,0,0,0-1.44-.72c-.34,0-.42.04-.42.2,0,.12.04.12.14.22a2.172,2.172,0,0,1,.82,1.5c.04.98,0,1.92,0,2.78a18.642,18.642,0,0,0,.26,3.28,6.669,6.669,0,0,0,2.08,3.92,2.814,2.814,0,0,0,1.92.86.77.77,0,0,0,.76-.82,1.841,1.841,0,0,0-.32-.86,1.2,1.2,0,0,1-.14-.54A7.012,7.012,0,0,1,382.16-4,27.923,27.923,0,0,1,383.42-7.36Zm20.2,1.54c1.56-2.74,2.92-5.12,3.8-6.5a1.563,1.563,0,0,1,.64-.62.68.68,0,0,0,.46-.62,1.722,1.722,0,0,0-.72-1.26c-.9-.78-1.38-.96-1.92-.96-.46,0-.84.1-.84.32,0,.14.06.12.2.18a2.035,2.035,0,0,1,.76.58.892.892,0,0,1,.16.94c-.42,1.1-.92,2-2.2,4.52-.62,1.22-1.6,2.98-3.24,6.06-.36.66-.6,1.18-.7,1.4a1.769,1.769,0,0,0-.16.82.964.964,0,0,0,.26.6,1.359,1.359,0,0,0,.84.32.6.6,0,0,0,.48-.22,2.748,2.748,0,0,0,.46-.98,16.27,16.27,0,0,1,1.76-3.64,2.59,2.59,0,0,1,2.08-1.42c.86,0,1.26.78,1.28,2.76a5.44,5.44,0,0,0,.48,2.62,2.3,2.3,0,0,0,2.1,1.2,4.943,4.943,0,0,0,3.78-1.56,9.372,9.372,0,0,0,2.08-3.46,14.368,14.368,0,0,0,.58-2.58c0-.24-.04-.36-.18-.36-.16,0-.2.1-.28.32a12.084,12.084,0,0,1-2.1,3.98A4.675,4.675,0,0,1,410.1-1.5a1.24,1.24,0,0,1-1.2-.68,4.622,4.622,0,0,1-.34-1.76c-.1-2.16-1.02-3.12-2.5-3.12a3.257,3.257,0,0,0-2.4,1.26Zm31.36-9.02a.859.859,0,0,0-.32,0c-.06.02-.1.04-.1.12s.14.18.22.26a7.484,7.484,0,0,1,1.26,1.76.717.717,0,0,0,.68.46.672.672,0,0,0,.66-.7,1.5,1.5,0,0,0-.74-1.2A3.9,3.9,0,0,0,434.98-14.84ZM436.66-16a.524.524,0,0,0-.32.02.121.121,0,0,0-.06.12c0,.08.16.18.24.24a5.076,5.076,0,0,1,1.4,1.56.765.765,0,0,0,.74.44.67.67,0,0,0,.62-.74,1.285,1.285,0,0,0-.72-1.02A4.108,4.108,0,0,0,436.66-16Zm-1.9,7.32A20.491,20.491,0,0,0,432.84-7c0,.06-.02.14.08.14a.452.452,0,0,0,.3-.1,7.012,7.012,0,0,1,2.82-1.14,4.616,4.616,0,0,1,.74.06,3.475,3.475,0,0,0,.78.1.641.641,0,0,0,.7-.6,1.017,1.017,0,0,0-.68-.98,5.63,5.63,0,0,0-2.22-.44,7,7,0,0,0-2.54.48,6.858,6.858,0,0,0-1.84,1.22.479.479,0,0,0-.14.26.159.159,0,0,0,.18.18.279.279,0,0,0,.18-.06,6.94,6.94,0,0,1,2.28-.78A5.549,5.549,0,0,1,434.76-8.68Zm-3.28,3.84c0-.1-.02-.16-.12-.16s-.26.16-.36.34a3.652,3.652,0,0,0-.56,1.94,2.972,2.972,0,0,0,2.4,2.84,10.1,10.1,0,0,0,2.66.34,15.625,15.625,0,0,0,2.2-.1c.6-.1,1.08-.34,1.08-.86a.943.943,0,0,0-.5-.84,2.472,2.472,0,0,0-1-.26,2.964,2.964,0,0,0-1.04.14,8.059,8.059,0,0,1-2.02.16c-2.1,0-3.04-.82-3.04-1.9a3.762,3.762,0,0,1,.18-1.22A2.3,2.3,0,0,0,431.48-4.84Zm-.54-7.6a4.636,4.636,0,0,1-1.22.58,5.134,5.134,0,0,1,.96-1.96.989.989,0,0,0,.28-.6.754.754,0,0,0-.3-.56,3.822,3.822,0,0,0-2.06-.8,2.024,2.024,0,0,0-.94.24c-.22.12-.28.22-.28.34,0,.08.08.12.22.16a4.6,4.6,0,0,1,.74.24.694.694,0,0,1,.42.7,13.279,13.279,0,0,1-.62,2.62,12.8,12.8,0,0,1-3.06.48,2.442,2.442,0,0,1-1.64-.52c-.14-.1-.22-.18-.34-.18-.06,0-.1.06-.1.18a1.9,1.9,0,0,0,.54,1.04,2.181,2.181,0,0,0,1.92.78,12.418,12.418,0,0,0,2.18-.28A70.52,70.52,0,0,1,424.08-2a3.484,3.484,0,0,0-.54,1.4.889.889,0,0,0,.22.72.964.964,0,0,0,.58.3c.5,0,.86-.26,1.16-1.02,1.06-2.7,1.76-4.5,2.24-5.8.44-1.2,1.08-3,1.4-3.84a34.608,34.608,0,0,0,3.32-1.02c.42-.16.62-.42.62-.72a.671.671,0,0,0-.44-.6,1.762,1.762,0,0,0-.9-.18A1.717,1.717,0,0,0,430.94-12.44Zm20.28,5.52c1.12-1.08,1.7-1.64,2.72-2.72,1.12-1.16,2.16-2.28,3.34-3.38a2.109,2.109,0,0,1,.52-.34.627.627,0,0,0,.4-.6c0-.3-.28-.74-1-1.12a3.875,3.875,0,0,0-1.42-.48.845.845,0,0,0-.66.28.978.978,0,0,1-.5.34,13.207,13.207,0,0,1-3.32.82c-.36,0-.68-.14-1.08-.82-.12-.22-.2-.34-.32-.34-.08,0-.16.1-.22.22a1.368,1.368,0,0,0-.12.58,3.1,3.1,0,0,0,.6,1.52,1.537,1.537,0,0,0,1.02.7.878.878,0,0,0,.66-.24,6.034,6.034,0,0,1,1.36-.74c1.22-.52,1.76-.74,2.08-.84.28-.08.5-.08.5.06,0,.16-.06.24-.38.64-1.6,1.92-2.96,3.48-5.28,5.94-.56.58-1.32,1.34-1.92,1.88a1.625,1.625,0,0,0-.66,1.28c0,.48.26,1.22.88,1.22.42,0,.64-.28.9-.74a8.4,8.4,0,0,1,2.52-2.84,6.782,6.782,0,0,1,4-1.54,4.088,4.088,0,0,1,2.54.64,2.506,2.506,0,0,1,1.08,2.32c0,2.06-1.56,3.5-3.4,4.3A17.405,17.405,0,0,1,451.52.3c-.3.04-.44.06-.44.24,0,.14.08.2.22.24.08.02.32,0,.76,0A15.989,15.989,0,0,0,458.64-.7c2.04-1.1,2.9-2.58,2.9-4.08a3.6,3.6,0,0,0-.62-2.3,4.333,4.333,0,0,0-1.62-1.36,5.875,5.875,0,0,0-2.72-.62,7.687,7.687,0,0,0-5.3,2.18Zm26.34-6.5c-.4.32-1.1.72-1.54,1-.2.14-.32.2-.32.3s.06.14.16.14a1.218,1.218,0,0,0,.46-.14,11.587,11.587,0,0,1,1.48-.46,7.181,7.181,0,0,1,1.3-.22,8.328,8.328,0,0,1,1.24.04c.7,0,1.02-.24,1.02-.62a1.373,1.373,0,0,0-.86-1.14,3.4,3.4,0,0,0-1.7-.26,4.5,4.5,0,0,1-3.32-1.2c-.12-.12-.18-.16-.26-.16-.06,0-.08.08-.08.22a1.032,1.032,0,0,0,.04.22A3.541,3.541,0,0,0,477.56-13.42Zm-1.8,3.52a3.534,3.534,0,0,1-1.34.42.4.4,0,0,1-.46-.36,3.009,3.009,0,0,1,0-.6c.02-.16,0-.26-.14-.26a.3.3,0,0,0-.2.12,1.922,1.922,0,0,0-.32.44,1.947,1.947,0,0,0-.24.9,1.929,1.929,0,0,0,.46,1.18,1.938,1.938,0,0,0,1.24.78c.34,0,.46-.14.74-.48.96-1.18,2.26-2.14,3.2-2.14a1.565,1.565,0,0,1,1.44.84,4.981,4.981,0,0,1,.44,2.44,7.3,7.3,0,0,1-1.52,4.76,9.148,9.148,0,0,1-3.4,2.68c-.2.1-.34.16-.34.28,0,.1.1.16.28.14a7.341,7.341,0,0,0,1.04-.26A9.718,9.718,0,0,0,479.08-.2a8.029,8.029,0,0,0,2.2-2.12,7.318,7.318,0,0,0,1.34-3.92,4.764,4.764,0,0,0-.94-3.26,3.39,3.39,0,0,0-2.66-1.3A7.853,7.853,0,0,0,475.76-9.9Zm25.66-6c-2.9,0-4.78,2.34-4.78,3.72,0,.66.32.82.82.82.82,0,1.56-.42,1.56-1.02a4.038,4.038,0,0,1,.3-1.76,2.227,2.227,0,0,1,2.02-1.1c1.72,0,2.42,1.4,2.42,3.08,0,1.74-1.26,2.82-2.2,4a5.729,5.729,0,0,0-1.16,4.14c0,.2.06.26.26.26.38,0,.56-.16.56-.38a3.273,3.273,0,0,1,1.54-3.38c1.36-1.08,3.28-2.24,3.28-4.58C506.04-14.22,504.42-15.9,501.42-15.9Zm-.6,13.88a1.4,1.4,0,0,0-1.4,1.4,1.4,1.4,0,0,0,1.4,1.38A1.409,1.409,0,0,0,502.2-.62,1.413,1.413,0,0,0,500.82-2.02Z" transform="translate(203 689)"/>
    <g id="長方形_13791" data-name="長方形 13791" transform="translate(183 589)" fill="#fff" stroke="#000" stroke-width="1">
      <rect width="268" height="55" stroke="none"/>
      <rect x="0.5" y="0.5" width="267" height="54" fill="none"/>
    </g>
    <path id="パス_4196" data-name="パス 4196" d="M6.528-8.592c2.352,1.2,3.5,2.208,3.5,4.152a3.337,3.337,0,0,1-3.6,3.384c-1.944,0-3.768-1.632-4.752-4.08-.048-.12-.12-.192-.384-.144-.216.048-.24.168-.24.288a31.625,31.625,0,0,0,.792,3.864,13.281,13.281,0,0,0,4.32.84c4.2,0,6.024-2.3,6.024-5.088,0-2.808-1.656-4.008-4.464-5.328L6.5-11.28c-2.112-1.008-2.688-2.064-2.688-3.24a2.84,2.84,0,0,1,3-2.976c1.8,0,3.288,1.368,4.08,3.6.024.12.072.192.288.168.24-.048.288-.12.288-.24-.1-1.248-.24-2.64-.264-3.84a5.894,5.894,0,0,1-2.328-.12,6.714,6.714,0,0,0-2.112-.336c-3.12,0-5.088,1.968-5.088,4.272,0,2.424,1.32,3.6,3.72,4.824Zm21.048-9.672A8.651,8.651,0,0,0,18.7-9.288a8.67,8.67,0,0,0,8.88,9,8.7,8.7,0,0,0,8.9-9.048A8.6,8.6,0,0,0,27.576-18.264Zm0,.816c3.648,0,6.24,3.216,6.24,8.184,0,4.92-2.544,8.136-6.24,8.136-3.72,0-6.24-3.216-6.24-8.208C21.336-14.184,23.9-17.448,27.576-17.448Zm19.7,3.888a7.734,7.734,0,0,1,.288-3.072c.288-.456.912-.48,1.752-.576.144-.024.216-.048.216-.288,0-.312-.048-.384-.216-.384-.96.072-2.184.144-3.192.144-.936,0-2.208-.072-3.216-.144-.144,0-.192.072-.192.36,0,.264.048.288.192.312.912.1,1.608.12,1.872.576.288.528.288.792.288,3.072v8.52c0,1.608.024,2.64-.312,3.168-.288.48-.912.48-1.728.576-.144.024-.192.072-.192.312s.048.312.192.312c.936-.048,2.16-.1,3.1-.1,1.008,0,2.256.048,3.288.1.192,0,.24-.072.24-.312s-.048-.288-.216-.312c-.912-.1-1.632-.12-1.9-.576-.288-.456-.264-.792-.264-3.168Zm13.008,0a8.149,8.149,0,0,1,.288-3.072c.264-.456.912-.48,1.728-.576.192-.024.24-.048.24-.288,0-.312-.048-.384-.24-.384-.96.072-2.208.144-3.168.144-1.008,0-2.232-.072-3.216-.144-.168,0-.216.072-.216.384,0,.24.048.264.216.288.912.1,1.584.12,1.848.576.264.5.264.792.264,3.072v8.52a7.9,7.9,0,0,1-.288,3.168c-.288.456-.936.48-1.776.576-.144.024-.192.072-.192.312s.048.312.192.312c2.04-.072,4.248-.1,6.264-.1,1.944,0,3.984.024,6.072.1a31.536,31.536,0,0,0,1.248-4.056c.048-.144.024-.24-.24-.336-.264-.072-.312-.024-.384.144a7.339,7.339,0,0,1-1.8,2.4c-.744.528-1.776,1.008-4.176,1.008-1.08,0-1.944-.024-2.328-.648a6.776,6.776,0,0,1-.336-2.88ZM91.9-8.616a15.5,15.5,0,0,0,1.872.1c5.736,0,7.3-2.328,7.3-4.872,0-2.664-1.632-4.512-6.36-4.512-1.56,0-3.048.144-3.96.144-.984,0-2.3-.048-3.312-.12-.168,0-.216.072-.216.36,0,.264.048.288.216.312.888.1,1.728.12,1.992.576.24.528.24.792.24,3.072v8.52A8.95,8.95,0,0,1,89.4-1.9c-.288.5-.912.528-1.776.6-.144.024-.192.048-.192.312,0,.288.024.312.192.312.936-.072,2.208-.1,3.216-.1.96,0,2.208.024,3.24.1.192,0,.24-.072.24-.312s-.048-.288-.24-.312c-.912-.1-1.68-.12-1.944-.6-.24-.432-.24-.768-.24-3.144Zm0-4.968a6.667,6.667,0,0,1,.336-3c.312-.456,1.248-.5,1.968-.5,2.76,0,4.392,1.3,4.392,3.792,0,2.184-1.32,3.96-4.92,3.96A9.849,9.849,0,0,1,91.9-9.48ZM111.84-8.928c.576.048,1.128.072,1.728.072.336,0,.768-.024,1.056-.048,1.152,2.112,2.3,4.2,3.48,6.312a16.207,16.207,0,0,1,.888,1.848c.72-.024,1.176-.024,1.8-.024.7,0,1.392.048,2.28.1.144,0,.216-.048.216-.312,0-.24-.048-.288-.192-.312a3.99,3.99,0,0,1-1.464-.336,5.424,5.424,0,0,1-1.44-1.8c-1.272-2.016-2.376-3.984-3.336-5.832,2.712-.744,3.864-2.5,3.864-4.272,0-2.448-1.752-4.368-6.144-4.368-1.56,0-3.072.12-3.936.12-.96,0-2.208-.048-3.24-.1-.144,0-.192.048-.192.36,0,.24.048.264.192.288.912.1,1.752.12,2.016.6.264.5.264.768.264,3.048v8.52a8.533,8.533,0,0,1-.288,3.192c-.264.456-.936.48-1.752.576-.192.024-.24.072-.24.336,0,.216.048.288.24.288.936-.048,2.16-.1,3.12-.1.984,0,2.16.048,3.192.1.192,0,.24-.072.24-.288,0-.264-.048-.312-.24-.336-.888-.1-1.56-.1-1.848-.576-.24-.48-.264-.816-.264-3.192Zm0-4.656a7.252,7.252,0,0,1,.312-3.048c.312-.48,1.128-.456,1.92-.456,2.88,0,4.176,1.344,4.176,3.7,0,2.064-1.272,3.768-4.68,3.768a13.024,13.024,0,0,1-1.728-.12Zm24.888-4.68a8.651,8.651,0,0,0-8.88,8.976,8.67,8.67,0,0,0,8.88,9,8.7,8.7,0,0,0,8.9-9.048A8.6,8.6,0,0,0,136.728-18.264Zm0,.816c3.648,0,6.24,3.216,6.24,8.184,0,4.92-2.544,8.136-6.24,8.136-3.72,0-6.24-3.216-6.24-8.208C130.488-14.184,133.056-17.448,136.728-17.448Zm17.76,14.112a21.279,21.279,0,0,1-.36,5.328c-.168.576-.432.864-.768.864-.624,0-.864-.384-1.464-.384-.672,0-1.464,1.008-1.464,1.848,0,.48.312.672,1.056.672,1.1,0,2.448-1.08,3.456-2.5a9.475,9.475,0,0,0,1.8-5.544c0-2.424-.072-3.384-.072-5.76v-4.8a7.423,7.423,0,0,1,.312-3.048c.264-.48.912-.5,1.776-.6.144-.024.192-.048.192-.312,0-.288-.048-.312-.192-.312-.96.024-2.232.072-3.216.072-.96,0-2.208-.048-3.216-.072-.144,0-.192.024-.192.312,0,.264.048.288.192.312.888.1,1.632.144,1.9.6.264.5.264.792.264,3.048ZM169.56-9.288c.384-.024.96-.024,1.488-.024a6.66,6.66,0,0,1,3.048.5,2.748,2.748,0,0,1,.84,1.776c.024.144.072.24.288.24.312,0,.336-.072.336-.24-.024-.864-.048-1.824-.048-2.712,0-.816.024-1.584.048-2.424,0-.144-.024-.216-.336-.216-.24,0-.264.072-.288.216a2.16,2.16,0,0,1-.792,1.56c-.432.384-1.584.5-3.1.5-.528,0-1.1,0-1.488-.024V-13.56a7.511,7.511,0,0,1,.24-2.856c.336-.552,1.152-.6,2.064-.6,1.9,0,2.928.192,3.576.768A5.421,5.421,0,0,1,177-13.872c.048.144.12.216.408.168.192-.048.24-.144.216-.288-.168-1.2-.312-2.664-.408-3.888-2.064.12-4.032.12-5.928.12-1.968,0-4.1,0-6.1-.12-.168,0-.216.072-.216.384,0,.24.048.264.216.288.912.1,1.584.12,1.848.552.264.528.264.816.264,3.1v8.52a8.385,8.385,0,0,1-.288,3.168c-.288.456-.864.48-1.7.576-.144.024-.192.072-.192.312s.048.312.192.312c2.04-.072,4.248-.1,6.288-.1,1.944,0,3.984.024,6.048.1A25.43,25.43,0,0,0,178.9-4.728c.048-.144.048-.24-.24-.336-.24-.072-.288,0-.36.144A7.482,7.482,0,0,1,176.448-2.5c-.744.576-1.8.984-4.176.984-1.08,0-1.992-.024-2.376-.648a6.83,6.83,0,0,1-.336-2.88Zm29.616-8.328a5.458,5.458,0,0,1-2.664-.264,12.068,12.068,0,0,0-2.928-.36,8.548,8.548,0,0,0-8.76,8.952c0,5.328,3.648,9,8.688,9A7.43,7.43,0,0,0,200.4-4.56a.281.281,0,0,0-.168-.432c-.288-.144-.384-.1-.48.024a6.4,6.4,0,0,1-5.9,3.312c-3.7,0-6.36-3.336-6.36-7.68,0-4.9,2.616-8.088,6.192-8.088a5.631,5.631,0,0,1,3.216,1.032,7.5,7.5,0,0,1,2.04,2.88.284.284,0,0,0,.384.168c.192-.048.264-.12.24-.288C199.416-14.88,199.272-16.368,199.176-17.616Zm13.2,12.576a8.459,8.459,0,0,1-.264,3.144c-.264.456-.96.48-1.752.576-.168.024-.216.072-.216.336,0,.24.048.312.216.312.912-.072,2.16-.1,3.144-.1.96,0,2.3.024,3.312.1.168,0,.216-.072.216-.336,0-.24-.048-.288-.216-.312-.864-.1-1.68-.12-1.944-.576-.288-.5-.264-.768-.264-3.144v-8.52a6.821,6.821,0,0,1,.312-2.976c.336-.528.96-.48,1.56-.48a4.428,4.428,0,0,1,2.88.744,5.5,5.5,0,0,1,1.584,2.472c.048.144.1.216.384.168.216-.048.24-.12.24-.288-.144-1.2-.312-2.736-.408-3.96-2.64.12-5.184.12-7.632.12-2.472,0-4.92,0-7.56-.12-.1,1.224-.264,2.76-.432,3.96,0,.168.024.24.264.288s.312-.024.36-.168a5.832,5.832,0,0,1,1.608-2.472,4.422,4.422,0,0,1,2.808-.744c.6,0,1.3,0,1.536.432.24.48.264.84.264,3.024Z" transform="translate(206 625)"/>
  </g>
</svg>
