<svg xmlns="http://www.w3.org/2000/svg" width="219" height="121" viewBox="0 0 219 121">
  <g id="グループ_9867" data-name="グループ 9867" transform="translate(-30 -508)">
    <rect id="長方形_13792" data-name="長方形 13792" width="184" height="33" transform="translate(30 560)" fill="#fff"/>
    <rect id="長方形_14248" data-name="長方形 14248" width="219" height="33" transform="translate(30 596)" fill="#fff"/>
    <path id="パス_5669" data-name="パス 5669" d="M13.5-8.134c.14,0,.182-.042.182-.14s-.112-.224-.322-.406c-.5-.434-.644-.546-.77-.546-.1,0-.266.112-.77.77h-1.3c.238-.616.448-1.316.672-2.128.322-.126.434-.224.434-.364,0-.2-.336-.322-1.736-.6A16.719,16.719,0,0,1,9.66-9.226a15.373,15.373,0,0,1-.91,3.374c-.336-.252-.462-.336-.574-.336s-.266.112-.672.644H4.242a3.209,3.209,0,0,1-.826-.112l.154.518a3.368,3.368,0,0,1,.686-.084h.308c-.028,2.954-.392,4.1-1.6,5.432-.042.056.056.182.112.14C5.11-.952,5.74-2.24,5.8-5.222h.91v3.276a4.493,4.493,0,0,1-.938.2c.378,1.288.434,1.442.6,1.442S6.608-.42,6.664-.7a13.76,13.76,0,0,0,2.73-2.254c.042-.056,0-.182-.056-.154a14.013,14.013,0,0,1-1.456.714V-5.222H9.044c.14,0,.182-.042.182-.14s-.1-.2-.266-.322c.182-.238.364-.476.532-.728a19.283,19.283,0,0,0,.756,3.584A10.405,10.405,0,0,1,6.748.994c-.056.042.028.2.1.168a10.153,10.153,0,0,0,3.822-2.926A9.277,9.277,0,0,0,12.236.6c.224.238.406.392.49.392.112,0,.126-.014.252-.322a1.723,1.723,0,0,1,.882-.9c.07-.028.1-.112.028-.14a6.269,6.269,0,0,1-2.66-2.212,10.8,10.8,0,0,0,1.148-2.9,17.187,17.187,0,0,0,.336-2.366,2.089,2.089,0,0,0,.028-.294Zm-2.03,0a19.384,19.384,0,0,1-.252,2.366,11.343,11.343,0,0,1-.6,2.114A12.486,12.486,0,0,1,9.688-6.72a13.265,13.265,0,0,0,.7-1.414ZM1.582-2.9C1.582-.756,1.5.322,1.5.672c0,.406.294.532.588.532.476,0,.714-.182.714-.588v-5.81c.28-.126.364-.21.364-.336,0-.154-.1-.21-.728-.308a8.455,8.455,0,0,0,1.2-1.806,2.019,2.019,0,0,0,.378-.14c-.014.49-.028.742-.028.826,0,.294.154.434.5.434.406,0,.588-.168.588-.49v-.21h2.7v.07c0,.266.154.392.462.392.378,0,.686-.182.686-.462,0-.238-.042-.98-.042-2.058v-.406c.252-.1.364-.182.364-.308,0-.2-.182-.238-1.54-.448a8.29,8.29,0,0,1,.07,1.162v1.736H7v-3.08c.266-.112.42-.224.42-.336,0-.14-.14-.28-1.61-.434a8.216,8.216,0,0,1,.07,1.148v2.7h-.8V-9.7c.294-.1.42-.182.42-.336,0-.2-.084-.21-1.568-.42a16.8,16.8,0,0,1,.084,2.352,9.723,9.723,0,0,0-1.4-.574,7.445,7.445,0,0,1-.546,1.6A14.7,14.7,0,0,1,.182-4.018c-.042.056.056.182.112.14a13.174,13.174,0,0,0,1.288-1.05Zm2.562-7.98c0-.182-.546-.462-1.652-.8a6.122,6.122,0,0,1-.574,1.484A10.247,10.247,0,0,1,.336-7.9c-.042.056.042.168.1.14A9.54,9.54,0,0,0,3.57-10.6C3.99-10.64,4.144-10.71,4.144-10.878Zm19.908,3.29h4.606c.14,0,.182-.042.182-.14s-.1-.238-.42-.5c-.714-.6-.854-.714-.98-.714-.1,0-.266.112-.98,1.036H24.052v-2.8c.35-.112.518-.238.518-.392s-.182-.336-1.96-.5a18.9,18.9,0,0,1,.084,1.988V-7.91H20.342a14.64,14.64,0,0,0,.644-1.568c.406-.112.56-.2.56-.364,0-.224-.5-.42-1.806-.756A12.436,12.436,0,0,1,19.4-8.974a12.671,12.671,0,0,1-2.072,4.3c-.042.056.084.154.14.112a8.037,8.037,0,0,0,2.7-3.024h2.52v3.3H20.188a7.324,7.324,0,0,1-1.26-.112l.154.518a9.825,9.825,0,0,1,1.176-.084h2.436V-.056H18.676a10.041,10.041,0,0,1-1.484-.112l.154.518A12.529,12.529,0,0,1,18.69.266H29.456c.14,0,.182-.042.182-.14s-.112-.224-.448-.5c-.742-.616-.9-.728-1.022-.728-.1,0-.266.112-1.064,1.05H24.052V-3.962H28.28c.14,0,.182-.042.182-.14s-.112-.224-.42-.49c-.686-.588-.826-.7-.952-.7-.1,0-.266.112-.966,1.008H24.052Zm18.83-.826c-.63,3.822-2.142,6.426-4.774,8.3-.056.042.028.2.1.168C41.636-1.512,43.4-4,44.2-8.414h.294a38.014,38.014,0,0,1-.56,6.8C43.694-.532,43.694-.532,42.91-.532c-.112,0-.8-.028-1.624-.084-.07,0-.084.2-.014.21.994.238,1.428.574,1.554,1.134.07.308.084.322.322.322A1.927,1.927,0,0,0,44.3.7a1.875,1.875,0,0,0,.658-.938c.49-1.372.672-3.094.84-7.812.392-.294.434-.336.434-.434s-.084-.21-.322-.406c-.532-.434-.644-.518-.784-.518-.112,0-.224.084-.756.672H40.1a14.546,14.546,0,0,0,.924-2.086c.392-.1.532-.182.532-.35,0-.224-.434-.35-1.89-.56A9.541,9.541,0,0,1,39.3-9.674a12.252,12.252,0,0,1-1.582,3.64c-.042.056.07.154.126.112a9.112,9.112,0,0,0,2.072-2.492h.812A10.826,10.826,0,0,1,37.31-2.646c-.056.042.028.168.1.14a8.664,8.664,0,0,0,4.648-5.908Zm-5.894.392h1.554c.14,0,.182-.042.182-.14s-.112-.238-.266-.378c-.42-.392-.546-.5-.672-.5-.1,0-.266.112-.672.7h-.126v-2.548c.378-.168.49-.252.49-.392,0-.21-.112-.252-1.806-.448.042.616.056.854.056,2.114v1.274h-.9A12.132,12.132,0,0,0,35.14-9.52c.336-.1.434-.154.434-.294,0-.182-.392-.322-1.568-.63-.014.476-.042,1.008-.112,1.554a18.246,18.246,0,0,1-.7,3.472c-.028.07.112.1.154.042A8.642,8.642,0,0,0,34.72-8.022h1.008c0,.966-.014,1.918-.028,3.4-.364.07-.728.14-1.064.2a6.477,6.477,0,0,1-1.26.112c.364,1.386.49,1.68.7,1.68.168,0,.252-.14.294-.5.476-.168.924-.336,1.33-.5-.028,2.24-.056,3.7-.056,4.354,0,.336.14.476.574.476.6,0,.8-.182.8-.63,0-.728-.014-2.394-.014-4.8a13.691,13.691,0,0,0,1.61-.994c.056-.042.014-.182-.056-.154-.462.154-.994.322-1.568.462Zm21.742-2.24a.6.6,0,0,0-.224,0c-.042.014-.07.028-.07.084s.1.126.154.182a5.24,5.24,0,0,1,.882,1.232.5.5,0,0,0,.476.322.47.47,0,0,0,.462-.49,1.049,1.049,0,0,0-.518-.84A2.733,2.733,0,0,0,58.73-10.262Zm1.12-.882a.367.367,0,0,0-.224.014.085.085,0,0,0-.042.084c0,.056.112.126.168.168a3.553,3.553,0,0,1,.98,1.092.536.536,0,0,0,.518.308A.469.469,0,0,0,61.684-10a.9.9,0,0,0-.5-.714A2.876,2.876,0,0,0,59.85-11.144Zm.574,7.434a.624.624,0,0,1,.476.252.661.661,0,0,0,.574.224c.238-.014.588-.21.588-.77a3.293,3.293,0,0,0-1.176-2.59,4.315,4.315,0,0,0-2.268-1.162c-.042,0-.07-.014-.1-.014-.14,0-.21.042-.21.14s.112.14.252.2a3.4,3.4,0,0,1,1.61,1.428,2.31,2.31,0,0,1,.42,1.148c0,.224-.462.49-1.694.98-.126.056-.126.07-.126.126s.028.1.154.1c.1,0,.266-.014.42-.028C59.626-3.7,59.934-3.71,60.424-3.71ZM55.216-7.644c.21-.462.406-.854.532-1.148a1.031,1.031,0,0,1,.294-.434.551.551,0,0,0,.322-.448.548.548,0,0,0-.126-.392,2.286,2.286,0,0,0-1.47-.8,2.21,2.21,0,0,0-.686.112c-.14.042-.238.126-.238.252,0,.084.1.1.21.14a3.5,3.5,0,0,1,.546.238.418.418,0,0,1,.21.406,8.048,8.048,0,0,1-.658,2.24c-.574.14-1.106.294-1.624.392a5.8,5.8,0,0,1-1.2.168,1.066,1.066,0,0,1-.714-.49c-.056-.084-.07-.154-.182-.154s-.21.21-.21.5a1.61,1.61,0,0,0,.532.952,1.2,1.2,0,0,0,.784.378.549.549,0,0,0,.364-.126,2.789,2.789,0,0,1,.406-.2c.448-.2.98-.406,1.526-.616a44.894,44.894,0,0,1-3.094,5.4A1.3,1.3,0,0,0,50.47-.5.566.566,0,0,0,51,.056a.673.673,0,0,0,.616-.308c.364-.6.868-1.54,1.386-2.6.588-1.19,1.344-2.842,1.974-4.172a3.854,3.854,0,0,1,.728-.112c.63,0,.826.392.826,1.708A8.594,8.594,0,0,1,56.2-3.206a4.959,4.959,0,0,1-.728,1.6.607.607,0,0,1-.532.252,1.484,1.484,0,0,1-.532-.154,6.078,6.078,0,0,1-.952-.546.313.313,0,0,0-.182-.084.1.1,0,0,0-.112.112c0,.042.028.084.1.168a8.328,8.328,0,0,1,.6.756,1.119,1.119,0,0,1,.28.742c-.014.448.266.63.686.63.476,0,.882-.322,1.372-.84a4.552,4.552,0,0,0,.826-1.5A9.337,9.337,0,0,0,57.54-5.25c0-1.414-.686-2.436-1.6-2.436A4.658,4.658,0,0,0,55.216-7.644Zm19.306.77h4.214c.14,0,.182-.042.182-.14s-.112-.21-.462-.5c-.784-.616-.938-.728-1.064-.728-.1,0-.266.112-1.022,1.05H67.662a9.828,9.828,0,0,1-1.456-.112l.154.518a11.59,11.59,0,0,1,1.288-.084h2.3a11.66,11.66,0,0,1-.616,4.326,6.814,6.814,0,0,1-3.3,3.43.072.072,0,0,0,.056.126c2.17-.672,3.5-1.484,4.284-2.9a10.429,10.429,0,0,0,.966-4.984h1.848v3.43c0,1.05-.014,1.862-.014,2.758,0,1.162.49,1.414,2.52,1.414A9.233,9.233,0,0,0,78.26.49c.5-.154.714-.406.714-.784a.543.543,0,0,0-.308-.532c-.238-.112-.252-.14-.252-.49V-3.052c0-.07-.154-.084-.168-.014-.364,1.512-.532,2.142-.98,2.422a3.129,3.129,0,0,1-1.484.2c-1.036,0-1.26-.1-1.26-.574ZM69.258-10.5a8.089,8.089,0,0,1-1.33-.112l.154.518a10.469,10.469,0,0,1,1.218-.084h7.728c.14,0,.182-.042.182-.14s-.1-.238-.448-.5c-.728-.546-.882-.658-1.008-.658-.1,0-.266.112-1.008.98ZM93.94-9.492c.14,0,.182-.042.182-.14s-.112-.21-.434-.476c-.7-.532-.854-.644-.98-.644-.1,0-.266.112-.98.938H86.086q.189-.378.378-.8c.462-.028.63-.126.63-.322s-.392-.392-1.778-.77a8.26,8.26,0,0,1-.476,1.68A12.825,12.825,0,0,1,82.558-6.16c-.042.056.056.168.112.126A8.71,8.71,0,0,0,85.9-9.492ZM87.864-1.778a6.467,6.467,0,0,1,.812,1.3c.308.56.49.714.84.714a.667.667,0,0,0,.644-.756c0-.658-.546-1.386-1.526-2.114a13.246,13.246,0,0,0,1.148-1.694c.448,0,.616-.084.616-.294,0-.238-.378-.448-1.638-.924A10.627,10.627,0,0,1,88.242-4.4,8.692,8.692,0,0,1,87.584-3.3a20.569,20.569,0,0,0-2.758-1.288c-.07-.028-.168.1-.112.14a15.868,15.868,0,0,1,2.38,1.834,12.159,12.159,0,0,1-4.2,3.29c-.056.028.014.182.084.168A9.843,9.843,0,0,0,87.864-1.778Zm-1.484-6.3a4.353,4.353,0,0,1-.966-.112l.154.518a4.7,4.7,0,0,1,.812-.084H92.6c.14,0,.182-.042.182-.14s-.112-.21-.378-.42c-.6-.448-.77-.56-.9-.56-.1,0-.266.112-.882.8ZM84.9-6.258a7.889,7.889,0,0,1-1.036-.1l.154.518a3.958,3.958,0,0,1,.924-.1h6.538a10.681,10.681,0,0,0,.868,4.788A4.745,4.745,0,0,0,93.786.658a1.7,1.7,0,0,0,.952.35A.582.582,0,0,0,95.382.42a.687.687,0,0,0-.168-.448c-.224-.252-.252-.308-.252-.5,0-.14.028-.42.252-2.142.014-.07-.14-.126-.168-.056-.462,1.3-.714,1.834-.854,1.834s-.252-.14-.378-.322a4.96,4.96,0,0,1-.742-1.512,11.475,11.475,0,0,1-.336-2.828c.322-.2.448-.322.448-.476,0-.112-.084-.21-.322-.406-.532-.434-.644-.518-.784-.518-.112,0-.224.084-.756.7Zm23.436-.294c-.924.21-1.862.728-1.862,1.932,0,.6.042,1.344.1,2.086a6.9,6.9,0,0,0-1.008-.07,2.879,2.879,0,0,0-1.68.5,1.461,1.461,0,0,0-.588,1.162,1.375,1.375,0,0,0,.56,1.064,2.519,2.519,0,0,0,1.6.532,2.773,2.773,0,0,0,1.624-.392,1.738,1.738,0,0,0,.7-1.54,5.916,5.916,0,0,1,1.316.98A1.114,1.114,0,0,0,109.9.1a.551.551,0,0,0,.546-.616c0-.546-.574-1.12-2.73-1.848a11.407,11.407,0,0,1-.476-2.6.988.988,0,0,1,.518-.98,1.017,1.017,0,0,1,.63-.182,1.61,1.61,0,0,1,1.092.49,1.109,1.109,0,0,0,.546.224c.35,0,.49-.224.49-.546a1.078,1.078,0,0,0-.644-.91,4.883,4.883,0,0,0-2.366-.616,3.41,3.41,0,0,0-1.456.28c-.1.042-.168.1-.168.182s.056.1.14.1a2.468,2.468,0,0,0,.266-.028,4.872,4.872,0,0,1,.658-.014A2.894,2.894,0,0,1,108.332-6.552Zm-1.694,4.9a.992.992,0,0,1,.014.2,1.222,1.222,0,0,1-.308.91,1.782,1.782,0,0,1-1.176.336,2.047,2.047,0,0,1-.994-.224.759.759,0,0,1-.35-.644.761.761,0,0,1,.35-.588,2.366,2.366,0,0,1,1.2-.224A3.69,3.69,0,0,1,106.638-1.652Zm-.8-7.518a1.194,1.194,0,0,0-.588.182,3.639,3.639,0,0,1-.924.42c.364-.9.5-1.134.7-1.288a.427.427,0,0,0,.182-.364.533.533,0,0,0-.308-.518,2.968,2.968,0,0,0-1.4-.462,1.215,1.215,0,0,0-.616.14.244.244,0,0,0-.14.182c0,.056.042.1.112.126.742.28.84.364.84.7a5.334,5.334,0,0,1-.462,1.764,10.41,10.41,0,0,1-1.89.266,2.8,2.8,0,0,1-.686-.07,1.629,1.629,0,0,1-.63-.336c-.084-.07-.112-.084-.154-.084s-.1.014-.1.084a.577.577,0,0,0,.056.238,1.854,1.854,0,0,0,.826.9,1.76,1.76,0,0,0,.91.182c.322,0,.938-.084,1.274-.126a29.683,29.683,0,0,1-2.31,4.256,2.361,2.361,0,0,0-.462.924.562.562,0,0,0,.2.448.549.549,0,0,0,.434.182.734.734,0,0,0,.364-.112,2.668,2.668,0,0,0,.56-.882c.672-1.414,1.47-3.22,2.254-5.054.882-.21,1.624-.378,2.072-.532.42-.154.588-.336.588-.658C106.54-8.862,106.288-9.142,105.84-9.17ZM121.758-.406h4.41V.28c0,.308.168.42.574.42.518,0,.728-.154.728-.532,0-.952-.07-3.85-.07-8.064V-9.478c.336-.21.462-.322.462-.462,0-.112-.084-.21-.322-.434-.532-.476-.644-.56-.784-.56-.112,0-.224.084-.742.658h-4.158c-.6-.364-.714-.42-1.414-.784.07,1.442.084,2.044.084,3.472,0,4.732-.07,6.776-.07,7.952,0,.308.154.42.518.42.546,0,.784-.14.784-.5Zm0-5.306V-9.954h1.54v4.242Zm0,.322h1.54V-.728h-1.54Zm4.41,4.662H124.5V-5.39h1.666Zm0-4.984H124.5V-9.954h1.666Zm-8.246,2.646a3.707,3.707,0,0,1,.784,1.9c.112.518.28.686.588.686.42,0,.672-.364.672-.84,0-.77-.616-1.484-1.974-1.988a15.341,15.341,0,0,0,.434-2.968A9.433,9.433,0,0,0,119.91-7.7c.364,0,.5-.07.5-.238s-.322-.378-1.26-.882a6.731,6.731,0,0,1-.252.98,6.931,6.931,0,0,1-.462,1.078c.014-.182.014-.364.014-.56.028-2.66.028-2.9.042-3.29.336-.14.434-.224.434-.35,0-.2-.182-.252-1.806-.448.07.714.1,1.582.1,3.612,0,4.228-.49,6.16-2.156,8.526-.042.056.112.168.168.126A7.8,7.8,0,0,0,117.922-3.066ZM116.27-8.414a.066.066,0,0,0-.126.028,2.39,2.39,0,0,1-.56,1.806c-.462.49-.5.6-.5.882a.607.607,0,0,0,.658.616c.588,0,.91-.658.91-1.526A4.917,4.917,0,0,0,116.27-8.414Zm24.878,5.88c-.07-1.078-.14-2.338-.14-4.018a10.982,10.982,0,0,0,1.862-.462c.322-.126.42-.294.42-.532s-.238-.532-.882-.532a1.018,1.018,0,0,0-.546.154,1.041,1.041,0,0,1-.294.182,4.809,4.809,0,0,1-.518.14,8.313,8.313,0,0,1,.126-1.316,1.012,1.012,0,0,1,.224-.532.4.4,0,0,0,.126-.322c0-.294-.252-.476-.644-.686a1.863,1.863,0,0,0-.98-.252,1.061,1.061,0,0,0-.574.182c-.182.112-.35.266-.35.35a.12.12,0,0,0,.112.112c.042,0,.112.014.168.014a2.272,2.272,0,0,1,.294.014.454.454,0,0,1,.448.462c.042.364.042.91.056,2.212a12.206,12.206,0,0,1-2.114.238,2.663,2.663,0,0,1-1.2-.252.774.774,0,0,0-.266-.112c-.056,0-.084.056-.084.112s.014.1.1.224a2.133,2.133,0,0,0,.714.63,1.927,1.927,0,0,0,.952.21,12.264,12.264,0,0,0,1.89-.126c.014,1.274.042,2.408.056,3.682a5.752,5.752,0,0,0-1.19-.14,3.037,3.037,0,0,0-1.526.336,1.433,1.433,0,0,0-.714,1.19,1.466,1.466,0,0,0,.77,1.218,3.4,3.4,0,0,0,1.5.322c1.288,0,2.156-.672,2.17-1.582a6.628,6.628,0,0,1,1.218,1.036.7.7,0,0,0,.5.252.555.555,0,0,0,.378-.14.6.6,0,0,0,.21-.476.906.906,0,0,0-.266-.63A5.794,5.794,0,0,0,141.148-2.534Zm-1.106.63a1.738,1.738,0,0,1-.042.378.928.928,0,0,1-.378.588,2.072,2.072,0,0,1-1.05.266,2.022,2.022,0,0,1-1.05-.182.712.712,0,0,1-.364-.616.711.711,0,0,1,.448-.63,2.586,2.586,0,0,1,.994-.154A3.633,3.633,0,0,1,140.042-1.9Zm-4.62-2.884a.133.133,0,0,0-.112-.14c-.084-.014-.14.084-.182.182-.35.84-.644,1.47-1.008,2.2-.056.112-.2.112-.238-.042a5.087,5.087,0,0,1-.1-1.134,11.367,11.367,0,0,1,.714-3.612,2.134,2.134,0,0,1,.476-.966.551.551,0,0,0,.21-.448,2.417,2.417,0,0,0-.826-1.526,1.062,1.062,0,0,0-.742-.392c-.154,0-.224.028-.224.084s.028.1.112.224a1.709,1.709,0,0,1,.322.98,5.83,5.83,0,0,1-.224,1.26,21.793,21.793,0,0,0-.644,4.788A6.962,6.962,0,0,0,133.42-.35a.875.875,0,0,0,.756.63.5.5,0,0,0,.532-.476c0-.392-.1-.658-.1-.966a3.275,3.275,0,0,1,.028-.6,24.849,24.849,0,0,1,.728-2.772A1.42,1.42,0,0,0,135.422-4.788ZM148.246-2.03A4.794,4.794,0,0,1,150.038.322a.835.835,0,0,0,.742.63.815.815,0,0,0,.84-.868,1.773,1.773,0,0,0-.9-1.414,6.961,6.961,0,0,0-2.45-.966.125.125,0,0,0-.126.126A.177.177,0,0,0,148.246-2.03ZM10.052,29.448c-.924.21-1.862.728-1.862,1.932,0,.6.042,1.344.1,2.086A6.9,6.9,0,0,0,7.28,33.4a2.879,2.879,0,0,0-1.68.5,1.461,1.461,0,0,0-.588,1.162,1.375,1.375,0,0,0,.56,1.064,2.519,2.519,0,0,0,1.6.532,2.773,2.773,0,0,0,1.624-.392,1.738,1.738,0,0,0,.7-1.54,5.916,5.916,0,0,1,1.316.98,1.114,1.114,0,0,0,.812.392.551.551,0,0,0,.546-.616c0-.546-.574-1.12-2.73-1.848a11.408,11.408,0,0,1-.476-2.6.988.988,0,0,1,.518-.98,1.017,1.017,0,0,1,.63-.182,1.61,1.61,0,0,1,1.092.49,1.109,1.109,0,0,0,.546.224c.35,0,.49-.224.49-.546a1.078,1.078,0,0,0-.644-.91,4.883,4.883,0,0,0-2.366-.616,3.41,3.41,0,0,0-1.456.28c-.1.042-.168.1-.168.182s.056.1.14.1a2.468,2.468,0,0,0,.266-.028,4.872,4.872,0,0,1,.658-.014A2.894,2.894,0,0,1,10.052,29.448Zm-1.694,4.9a.992.992,0,0,1,.014.2,1.222,1.222,0,0,1-.308.91,1.782,1.782,0,0,1-1.176.336,2.047,2.047,0,0,1-.994-.224.717.717,0,0,1,0-1.232,2.366,2.366,0,0,1,1.2-.224A3.69,3.69,0,0,1,8.358,34.348Zm-.8-7.518a1.194,1.194,0,0,0-.588.182,3.639,3.639,0,0,1-.924.42c.364-.9.5-1.134.7-1.288a.427.427,0,0,0,.182-.364.533.533,0,0,0-.308-.518,2.968,2.968,0,0,0-1.4-.462,1.215,1.215,0,0,0-.616.14.245.245,0,0,0-.14.182c0,.056.042.1.112.126.742.28.84.364.84.7a5.334,5.334,0,0,1-.462,1.764,10.41,10.41,0,0,1-1.89.266,2.8,2.8,0,0,1-.686-.07,1.629,1.629,0,0,1-.63-.336c-.084-.07-.112-.084-.154-.084s-.1.014-.1.084a.577.577,0,0,0,.056.238,1.854,1.854,0,0,0,.826.9,1.76,1.76,0,0,0,.91.182c.322,0,.938-.084,1.274-.126a29.683,29.683,0,0,1-2.31,4.256,2.361,2.361,0,0,0-.462.924.562.562,0,0,0,.2.448.549.549,0,0,0,.434.182.734.734,0,0,0,.364-.112,2.668,2.668,0,0,0,.56-.882c.672-1.414,1.47-3.22,2.254-5.054.882-.21,1.624-.378,2.072-.532.42-.154.588-.336.588-.658C8.26,27.138,8.008,26.858,7.56,26.83Zm19.278-1.582a.6.6,0,0,0-.224,0c-.042.014-.07.028-.07.084s.1.126.154.182a5.24,5.24,0,0,1,.882,1.232.5.5,0,0,0,.476.322.437.437,0,0,0,.42-.49.968.968,0,0,0-.49-.812A3.093,3.093,0,0,0,26.838,25.248Zm1.092-.854a.367.367,0,0,0-.224.014.085.085,0,0,0-.042.084c0,.056.112.126.168.168a3.553,3.553,0,0,1,.98,1.092.519.519,0,0,0,.476.308.435.435,0,0,0,.434-.49.923.923,0,0,0-.49-.714A2.811,2.811,0,0,0,27.93,24.394Zm-1.54,3.15c-.042,0-.07.028-.07.084s.028.07.112.182c.14.182.42.546.518.686-.266.056-.714.14-1.148.224.014-.406.028-.812.042-1.288a1.964,1.964,0,0,1,.14-.854.814.814,0,0,0,.154-.434.551.551,0,0,0-.182-.42,2.285,2.285,0,0,0-1.386-.672,1.013,1.013,0,0,0-.56.154c-.154.1-.252.21-.252.266s.028.14.1.154a3.258,3.258,0,0,1,.574.154.482.482,0,0,1,.322.476c.028.434.028.84.028,1.638v1.064c-1.008.252-2.072.49-3.108.784.028-.56.042-.826.056-.994a.45.45,0,0,1,.14-.294.436.436,0,0,0,.1-.294.805.805,0,0,0-.336-.588,1.909,1.909,0,0,0-1.218-.6,1.517,1.517,0,0,0-.7.21.222.222,0,0,0-.112.182c0,.056.028.084.2.112.336.07.532.168.644.434a2.767,2.767,0,0,1,.112.952c.014.392.028.812.028,1.218-.728.224-1.526.434-2.212.63a2.06,2.06,0,0,1-.462.07.879.879,0,0,1-.42-.112,2.635,2.635,0,0,1-.322-.224c-.14-.112-.168-.154-.238-.154s-.154.112-.154.336a1.372,1.372,0,0,0,.588.9,2.178,2.178,0,0,0,1.05.518.537.537,0,0,0,.462-.238,5.8,5.8,0,0,1,1.694-.84c.014.644,0,1.274.014,1.974a3.883,3.883,0,0,0,.308,1.736,2,2,0,0,0,.994.9,7.324,7.324,0,0,0,2.3.35,15.5,15.5,0,0,0,2.562-.14c.532-.1.77-.252.77-.672,0-.308-.21-.462-.49-.56a2.393,2.393,0,0,0-.8-.112,2.328,2.328,0,0,0-.742.168,9.211,9.211,0,0,1-2.072.21c-1.05,0-1.414-.182-1.652-.476a2.723,2.723,0,0,1-.224-1.47c0-.448.028-1.428.042-2.282a25.13,25.13,0,0,1,3.178-.868A8.562,8.562,0,0,1,24.6,31.9c-.056.21-.07.28-.42.28a5.911,5.911,0,0,1-1.134-.154,1.888,1.888,0,0,0-.252-.042c-.07,0-.126.014-.126.084s.07.126.182.2c.658.434.882.546.994.9a.518.518,0,0,0,.49.378,1.273,1.273,0,0,0,.658-.21,1.87,1.87,0,0,0,.658-1.106,23.624,23.624,0,0,0,.112-2.73c.462-.056.9-.112,1.358-.126a4.243,4.243,0,0,1,.728.014c.392.042.658.084.924.084.294,0,.658-.126.658-.518,0-.518-.322-.56-.658-.63s-.77-.084-1.148-.154a2.973,2.973,0,0,1-.98-.5A.666.666,0,0,0,26.39,27.544Zm7.2,6.426a4.794,4.794,0,0,1,1.792,2.352.835.835,0,0,0,.742.63.815.815,0,0,0,.84-.868,1.773,1.773,0,0,0-.9-1.414,6.961,6.961,0,0,0-2.45-.966.125.125,0,0,0-.126.126A.177.177,0,0,0,33.586,33.97Zm24.822-5.936c0,.056.042.07.1.07a1.265,1.265,0,0,0,.224-.07,2.189,2.189,0,0,1,.588-.084,1.681,1.681,0,0,1,1.484.756.321.321,0,0,1,.056.2.26.26,0,0,1-.1.182,10.507,10.507,0,0,1-.924.658c-.126.084-.182.112-.182.182s.07.07.112.07a2.338,2.338,0,0,0,.336-.07,3.375,3.375,0,0,1,.532-.1c.168-.014.322-.014.434-.014a.614.614,0,0,1,.42.182.727.727,0,0,0,.42.126c.322,0,.532-.238.532-.644a1.875,1.875,0,0,0-.672-1.428,2.9,2.9,0,0,0-1.862-.672,2.2,2.2,0,0,0-1.386.462A.241.241,0,0,0,58.408,28.034ZM55.09,31.492c-.014-.756-.014-1.82-.014-2.464a11.747,11.747,0,0,0,1.232-.392,7.192,7.192,0,0,0,.924-.448c.336-.224.378-.322.378-.56s-.266-.462-.84-.462a1.077,1.077,0,0,0-.672.238,3.491,3.491,0,0,1-.966.574,3.332,3.332,0,0,1,.154-1.12,1.417,1.417,0,0,1,.21-.28.58.58,0,0,0,.126-.378c0-.2-.2-.476-.6-.77a1.741,1.741,0,0,0-.994-.364,1.346,1.346,0,0,0-.616.224.442.442,0,0,0-.224.336c0,.07.112.112.322.112a1.2,1.2,0,0,1,.364.07c.14.042.224.1.252.322a1.84,1.84,0,0,1,.056.672v1.512a7.566,7.566,0,0,1-1.722.238,1.364,1.364,0,0,1-1.064-.5c-.112-.14-.182-.238-.266-.238s-.1.07-.1.182a1.292,1.292,0,0,0,.308.686,1.653,1.653,0,0,0,1.316.77,10.768,10.768,0,0,0,1.512-.182c.014.742.014,1.666.028,2.674-.462.28-1.106.672-1.6.952a7.561,7.561,0,0,1-1.456.686c-.14.014-.182,0-.238-.056a1.087,1.087,0,0,1-.154-.336c-.028-.084-.056-.112-.112-.112a.81.81,0,0,0-.378.728,1.176,1.176,0,0,0,.616.924,1.249,1.249,0,0,0,.616.21.7.7,0,0,0,.56-.266,4.94,4.94,0,0,1,.644-.6,3.2,3.2,0,0,1,1.26,1.778c.084.336.238.462.476.462s.49-.154.686-.658a2.536,2.536,0,0,0,.112-.9c0-.266-.014-.434-.028-.686-.028-.5-.056-1.008-.084-1.834.28-.168.574-.35.91-.532a4.42,4.42,0,0,1,2.044-.672,2.153,2.153,0,0,1,1.12.266,1.414,1.414,0,0,1,.672,1.274,1.65,1.65,0,0,1-.406,1.232,2.093,2.093,0,0,1-1.372.462A2.984,2.984,0,0,1,55.9,33.27a.2.2,0,0,0-.182-.1.078.078,0,0,0-.084.07,2.848,2.848,0,0,0,.42.728,2.941,2.941,0,0,0,2.478,1.246A2.788,2.788,0,0,0,60.3,34.67a2.072,2.072,0,0,0,.91-1.764,2.253,2.253,0,0,0-1.092-1.876,3.18,3.18,0,0,0-1.806-.5A6.589,6.589,0,0,0,55.09,31.492Zm-.882,1.316c.014.448.014.966.014,1.372,0,.14-.056.2-.14.2a1.2,1.2,0,0,1-.462-.154c-.238-.126-.406-.21-.686-.378C53.284,33.522,53.788,33.13,54.208,32.808Zm20.37-4.452c-.07,0-.126.028-.126.1s.084.126.182.2a4.727,4.727,0,0,1,1.456,1.428,3.933,3.933,0,0,1,.672,1.778.322.322,0,0,1-.224.336,9.639,9.639,0,0,1-.98.336c-.14.042-.266.07-.266.154s.042.126.21.14c.9.07,1.218.308,1.47.7a.509.509,0,0,0,.518.266.539.539,0,0,0,.49-.294,1.615,1.615,0,0,0,.21-1.008,4.325,4.325,0,0,0-.5-1.834,4.829,4.829,0,0,0-1.876-1.876A3.1,3.1,0,0,0,74.578,28.356Zm-2.744,2.492a.587.587,0,0,0,.056-.224c0-.07-.07-.1-.14-.1s-.168.112-.28.28c-.77,1.2-1.134,1.848-1.568,2.45a.518.518,0,0,1-.336.252c-.238,0-.462-.28-.616-.686a5.455,5.455,0,0,1-.308-1.96,6.888,6.888,0,0,1,.238-2.016.978.978,0,0,0,.126-.546,1.8,1.8,0,0,0-.8-1.232,1.759,1.759,0,0,0-1.008-.5c-.238,0-.294.028-.294.14,0,.084.028.084.1.154a1.52,1.52,0,0,1,.574,1.05c.028.686,0,1.344,0,1.946a13.051,13.051,0,0,0,.182,2.3,4.668,4.668,0,0,0,1.456,2.744,1.97,1.97,0,0,0,1.344.6.539.539,0,0,0,.532-.574,1.288,1.288,0,0,0-.224-.6.842.842,0,0,1-.1-.378,4.908,4.908,0,0,1,.182-.742A19.546,19.546,0,0,1,71.834,30.848Zm15.54-3.724a.686.686,0,0,0,.2-.476.979.979,0,0,0-.406-.714,2.166,2.166,0,0,0-1.344-.63,1.873,1.873,0,0,0-.644.126c-.14.07-.238.126-.238.252,0,.084.042.1.434.238.448.182.546.406.532.924-.056,2.128-.154,4.424-.21,6.762-.042,1.722.854,2.73,2.324,2.73A6.3,6.3,0,0,0,91.756,35.2a8.108,8.108,0,0,0,2.436-2.492,1.3,1.3,0,0,0,.182-.392.132.132,0,0,0-.14-.14c-.084,0-.168.084-.252.182a8.14,8.14,0,0,1-2.45,1.89,6.872,6.872,0,0,1-3.052.854,2.21,2.21,0,0,1-1.344-.322c-.21-.2-.322-.6-.322-1.33,0-.882.056-2.156.168-3.626a18.085,18.085,0,0,1,.238-2.464C87.248,27.25,87.318,27.208,87.374,27.124Zm19.964,1.232c-.07,0-.126.028-.126.1s.084.126.182.2a4.727,4.727,0,0,1,1.456,1.428,3.933,3.933,0,0,1,.672,1.778.322.322,0,0,1-.224.336,9.639,9.639,0,0,1-.98.336c-.14.042-.266.07-.266.154s.042.126.21.14c.9.07,1.218.308,1.47.7a.509.509,0,0,0,.518.266.539.539,0,0,0,.49-.294,1.615,1.615,0,0,0,.21-1.008,4.325,4.325,0,0,0-.5-1.834,4.829,4.829,0,0,0-1.876-1.876A3.1,3.1,0,0,0,107.338,28.356Zm-2.744,2.492a.587.587,0,0,0,.056-.224c0-.07-.07-.1-.14-.1s-.168.112-.28.28c-.77,1.2-1.134,1.848-1.568,2.45a.518.518,0,0,1-.336.252c-.238,0-.462-.28-.616-.686a5.455,5.455,0,0,1-.308-1.96,6.888,6.888,0,0,1,.238-2.016.978.978,0,0,0,.126-.546,1.8,1.8,0,0,0-.8-1.232,1.759,1.759,0,0,0-1.008-.5c-.238,0-.294.028-.294.14,0,.084.028.084.1.154a1.52,1.52,0,0,1,.574,1.05c.028.686,0,1.344,0,1.946a13.051,13.051,0,0,0,.182,2.3,4.668,4.668,0,0,0,1.456,2.744,1.97,1.97,0,0,0,1.344.6.539.539,0,0,0,.532-.574,1.288,1.288,0,0,0-.224-.6.842.842,0,0,1-.1-.378,4.908,4.908,0,0,1,.182-.742A19.546,19.546,0,0,1,104.594,30.848Zm14.14,1.078c1.092-1.918,2.044-3.584,2.66-4.55a1.094,1.094,0,0,1,.448-.434.476.476,0,0,0,.322-.434,1.205,1.205,0,0,0-.5-.882c-.63-.546-.966-.672-1.344-.672-.322,0-.588.07-.588.224,0,.1.042.084.14.126a1.425,1.425,0,0,1,.532.406.624.624,0,0,1,.112.658c-.294.77-.644,1.4-1.54,3.164-.434.854-1.12,2.086-2.268,4.242-.252.462-.42.826-.49.98a1.238,1.238,0,0,0-.112.574.675.675,0,0,0,.182.42.951.951,0,0,0,.588.224.422.422,0,0,0,.336-.154,1.924,1.924,0,0,0,.322-.686,11.388,11.388,0,0,1,1.232-2.548,1.813,1.813,0,0,1,1.456-.994c.6,0,.882.546.9,1.932a3.809,3.809,0,0,0,.336,1.834,1.607,1.607,0,0,0,1.47.84,3.46,3.46,0,0,0,2.646-1.092,6.56,6.56,0,0,0,1.456-2.422,10.057,10.057,0,0,0,.406-1.806c0-.168-.028-.252-.126-.252s-.14.07-.2.224a8.458,8.458,0,0,1-1.47,2.786,3.273,3.273,0,0,1-2.366,1.316.868.868,0,0,1-.84-.476,3.236,3.236,0,0,1-.238-1.232c-.07-1.512-.714-2.184-1.75-2.184a2.28,2.28,0,0,0-1.68.882Zm21.952-6.314a.6.6,0,0,0-.224,0c-.042.014-.07.028-.07.084s.1.126.154.182a5.24,5.24,0,0,1,.882,1.232.5.5,0,0,0,.476.322.47.47,0,0,0,.462-.49,1.049,1.049,0,0,0-.518-.84A2.733,2.733,0,0,0,140.686,25.612Zm1.176-.812a.367.367,0,0,0-.224.014.085.085,0,0,0-.042.084c0,.056.112.126.168.168a3.553,3.553,0,0,1,.98,1.092.536.536,0,0,0,.518.308.469.469,0,0,0,.434-.518.9.9,0,0,0-.5-.714A2.876,2.876,0,0,0,141.862,24.8Zm-1.33,5.124a14.347,14.347,0,0,0-1.344,1.176c0,.042-.014.1.056.1a.316.316,0,0,0,.21-.07,4.908,4.908,0,0,1,1.974-.8,3.231,3.231,0,0,1,.518.042,2.432,2.432,0,0,0,.546.07.449.449,0,0,0,.49-.42.712.712,0,0,0-.476-.686,3.941,3.941,0,0,0-1.554-.308,4.9,4.9,0,0,0-1.778.336,4.8,4.8,0,0,0-1.288.854.335.335,0,0,0-.1.182.111.111,0,0,0,.126.126.2.2,0,0,0,.126-.042,4.858,4.858,0,0,1,1.6-.546A3.884,3.884,0,0,1,140.532,29.924Zm-2.3,2.688c0-.07-.014-.112-.084-.112s-.182.112-.252.238a2.556,2.556,0,0,0-.392,1.358,2.08,2.08,0,0,0,1.68,1.988,7.073,7.073,0,0,0,1.862.238,10.937,10.937,0,0,0,1.54-.07c.42-.07.756-.238.756-.6a.66.66,0,0,0-.35-.588,1.73,1.73,0,0,0-.7-.182,2.075,2.075,0,0,0-.728.1,5.641,5.641,0,0,1-1.414.112c-1.47,0-2.128-.574-2.128-1.33a2.634,2.634,0,0,1,.126-.854A1.613,1.613,0,0,0,138.236,32.612Zm-.378-5.32A3.245,3.245,0,0,1,137,27.7a3.594,3.594,0,0,1,.672-1.372.692.692,0,0,0,.2-.42.527.527,0,0,0-.21-.392,2.676,2.676,0,0,0-1.442-.56,1.417,1.417,0,0,0-.658.168c-.154.084-.2.154-.2.238,0,.056.056.084.154.112a3.222,3.222,0,0,1,.518.168.486.486,0,0,1,.294.49,9.3,9.3,0,0,1-.434,1.834,8.961,8.961,0,0,1-2.142.336,1.71,1.71,0,0,1-1.148-.364c-.1-.07-.154-.126-.238-.126-.042,0-.07.042-.07.126a1.33,1.33,0,0,0,.378.728,1.527,1.527,0,0,0,1.344.546,8.692,8.692,0,0,0,1.526-.2,49.361,49.361,0,0,1-2.492,5.586,2.439,2.439,0,0,0-.378.98.622.622,0,0,0,.154.5.675.675,0,0,0,.406.21c.35,0,.6-.182.812-.714.742-1.89,1.232-3.15,1.568-4.06.308-.84.756-2.1.98-2.688a24.227,24.227,0,0,0,2.324-.714c.294-.112.434-.294.434-.5a.47.47,0,0,0-.308-.42,1.233,1.233,0,0,0-.63-.126A1.2,1.2,0,0,0,137.858,27.292Zm14.2,3.864c.784-.756,1.19-1.148,1.9-1.9.784-.812,1.512-1.6,2.338-2.366a1.476,1.476,0,0,1,.364-.238.439.439,0,0,0,.28-.42c0-.21-.2-.518-.7-.784a2.712,2.712,0,0,0-.994-.336.591.591,0,0,0-.462.2.685.685,0,0,1-.35.238,9.244,9.244,0,0,1-2.324.574c-.252,0-.476-.1-.756-.574-.084-.154-.14-.238-.224-.238-.056,0-.112.07-.154.154a.957.957,0,0,0-.084.406,2.171,2.171,0,0,0,.42,1.064,1.076,1.076,0,0,0,.714.49.615.615,0,0,0,.462-.168,4.223,4.223,0,0,1,.952-.518c.854-.364,1.232-.518,1.456-.588.2-.056.35-.056.35.042s-.042.168-.266.448c-1.12,1.344-2.072,2.436-3.7,4.158-.392.406-.924.938-1.344,1.316a1.137,1.137,0,0,0-.462.9c0,.336.182.854.616.854.294,0,.448-.2.63-.518a5.879,5.879,0,0,1,1.764-1.988,4.748,4.748,0,0,1,2.8-1.078,2.862,2.862,0,0,1,1.778.448,1.754,1.754,0,0,1,.756,1.624,3.442,3.442,0,0,1-2.38,3.01,12.184,12.184,0,0,1-3.178.854c-.21.028-.308.042-.308.168,0,.1.056.14.154.168.056.014.224,0,.532,0a11.192,11.192,0,0,0,4.606-1.036,3.292,3.292,0,0,0,2.03-2.856,2.517,2.517,0,0,0-.434-1.61,3.033,3.033,0,0,0-1.134-.952,4.112,4.112,0,0,0-1.9-.434,5.381,5.381,0,0,0-3.71,1.526Zm18.438-4.55c-.28.224-.77.5-1.078.7-.14.1-.224.14-.224.21s.042.1.112.1a.852.852,0,0,0,.322-.1,8.11,8.11,0,0,1,1.036-.322,5.027,5.027,0,0,1,.91-.154,5.83,5.83,0,0,1,.868.028c.49,0,.714-.168.714-.434a.961.961,0,0,0-.6-.8,2.376,2.376,0,0,0-1.19-.182,3.149,3.149,0,0,1-2.324-.84c-.084-.084-.126-.112-.182-.112s-.056.056-.056.154a.722.722,0,0,0,.028.154A2.479,2.479,0,0,0,170.492,26.606Zm-1.26,2.464a2.474,2.474,0,0,1-.938.294.279.279,0,0,1-.322-.252,2.106,2.106,0,0,1,0-.42c.014-.112,0-.182-.1-.182a.213.213,0,0,0-.14.084,1.345,1.345,0,0,0-.224.308,1.43,1.43,0,0,0,1.022,2c.238,0,.322-.1.518-.336a3.636,3.636,0,0,1,2.24-1.5,1.1,1.1,0,0,1,1.008.588,3.487,3.487,0,0,1,.308,1.708,5.113,5.113,0,0,1-1.064,3.332,6.4,6.4,0,0,1-2.38,1.876c-.14.07-.238.112-.238.2s.07.112.2.1a5.138,5.138,0,0,0,.728-.182,6.8,6.8,0,0,0,1.708-.826,5.62,5.62,0,0,0,1.54-1.484,5.123,5.123,0,0,0,.938-2.744,3.335,3.335,0,0,0-.658-2.282,2.373,2.373,0,0,0-1.862-.91A5.5,5.5,0,0,0,169.232,29.07Zm17.962-4.2a3.286,3.286,0,0,0-3.346,2.6c0,.462.224.574.574.574.574,0,1.092-.294,1.092-.714a2.827,2.827,0,0,1,.21-1.232,1.559,1.559,0,0,1,1.414-.77c1.2,0,1.694.98,1.694,2.156,0,1.218-.882,1.974-1.54,2.8a4.01,4.01,0,0,0-.812,2.9c0,.14.042.182.182.182.266,0,.392-.112.392-.266a2.291,2.291,0,0,1,1.078-2.366c.952-.756,2.3-1.568,2.3-3.206C190.428,26.046,189.294,24.87,187.194,24.87Zm-.42,9.716a.973.973,0,1,0,.966.98A.983.983,0,0,0,186.774,34.586Z" transform="translate(45 581)"/>
    <g id="長方形_13791" data-name="長方形 13791" transform="translate(30 508)" fill="#fff" stroke="#000" stroke-width="1">
      <rect width="200" height="41" stroke="none"/>
      <rect x="0.5" y="0.5" width="199" height="40" fill="none"/>
    </g>
    <path id="パス_5683" data-name="パス 5683" d="M4.624-6.086c1.666.85,2.482,1.564,2.482,2.941a2.363,2.363,0,0,1-2.55,2.4C3.179-.748,1.887-1.9,1.19-3.638c-.034-.085-.085-.136-.272-.1-.153.034-.17.119-.17.2A22.4,22.4,0,0,0,1.309-.8,9.407,9.407,0,0,0,4.369-.2c2.975,0,4.267-1.632,4.267-3.6,0-1.989-1.173-2.839-3.162-3.774L4.607-7.99c-1.5-.714-1.9-1.462-1.9-2.3a2.012,2.012,0,0,1,2.125-2.108c1.275,0,2.329.969,2.89,2.55.017.085.051.136.2.119.17-.034.2-.085.2-.17-.068-.884-.17-1.87-.187-2.72A4.175,4.175,0,0,1,6.29-12.7a4.756,4.756,0,0,0-1.5-.238c-2.21,0-3.6,1.394-3.6,3.026,0,1.717.935,2.55,2.635,3.417Zm14.909-6.851a6.128,6.128,0,0,0-6.29,6.358A6.142,6.142,0,0,0,19.533-.2,6.164,6.164,0,0,0,25.84-6.613,6.094,6.094,0,0,0,19.533-12.937Zm0,.578c2.584,0,4.42,2.278,4.42,5.8,0,3.485-1.8,5.763-4.42,5.763-2.635,0-4.42-2.278-4.42-5.814C15.113-10.047,16.932-12.359,19.533-12.359ZM33.49-9.6a5.478,5.478,0,0,1,.2-2.176c.2-.323.646-.34,1.241-.408.1-.017.153-.034.153-.2,0-.221-.034-.272-.153-.272-.68.051-1.547.1-2.261.1-.663,0-1.564-.051-2.278-.1-.1,0-.136.051-.136.255,0,.187.034.2.136.221.646.068,1.139.085,1.326.408.2.374.2.561.2,2.176V-3.57A5.173,5.173,0,0,1,31.7-1.326c-.2.34-.646.34-1.224.408-.1.017-.136.051-.136.221s.034.221.136.221c.663-.034,1.53-.068,2.193-.068.714,0,1.6.034,2.329.068.136,0,.17-.051.17-.221s-.034-.2-.153-.221c-.646-.068-1.156-.085-1.343-.408-.2-.323-.187-.561-.187-2.244Zm9.214,0a5.772,5.772,0,0,1,.2-2.176c.187-.323.646-.34,1.224-.408.136-.017.17-.034.17-.2,0-.221-.034-.272-.17-.272-.68.051-1.564.1-2.244.1-.714,0-1.581-.051-2.278-.1-.119,0-.153.051-.153.272,0,.17.034.187.153.2.646.068,1.122.085,1.309.408.187.357.187.561.187,2.176V-3.57a5.6,5.6,0,0,1-.2,2.244c-.2.323-.663.34-1.258.408-.1.017-.136.051-.136.221s.034.221.136.221c1.445-.051,3.009-.068,4.437-.068,1.377,0,2.822.017,4.3.068a22.337,22.337,0,0,0,.884-2.873c.034-.1.017-.17-.17-.238-.187-.051-.221-.017-.272.1a5.2,5.2,0,0,1-1.275,1.7,4.643,4.643,0,0,1-2.958.714c-.765,0-1.377-.017-1.649-.459A4.8,4.8,0,0,1,42.7-3.57ZM65.093-6.1a10.976,10.976,0,0,0,1.326.068c4.063,0,5.168-1.649,5.168-3.451,0-1.887-1.156-3.2-4.5-3.2-1.105,0-2.159.1-2.805.1-.7,0-1.632-.034-2.346-.085-.119,0-.153.051-.153.255,0,.187.034.2.153.221.629.068,1.224.085,1.411.408.17.374.17.561.17,2.176V-3.57a6.339,6.339,0,0,1-.187,2.227c-.2.357-.646.374-1.258.425-.1.017-.136.034-.136.221,0,.2.017.221.136.221.663-.051,1.564-.068,2.278-.068.68,0,1.564.017,2.295.068.136,0,.17-.051.17-.221s-.034-.2-.17-.221c-.646-.068-1.19-.085-1.377-.425-.17-.306-.17-.544-.17-2.227Zm0-3.519a4.722,4.722,0,0,1,.238-2.125c.221-.323.884-.357,1.394-.357,1.955,0,3.111.918,3.111,2.686,0,1.547-.935,2.805-3.485,2.805a6.976,6.976,0,0,1-1.258-.1Zm14.127,3.3c.408.034.8.051,1.224.051.238,0,.544-.017.748-.034.816,1.5,1.632,2.975,2.465,4.471a11.479,11.479,0,0,1,.629,1.309c.51-.017.833-.017,1.275-.017.493,0,.986.034,1.615.068.1,0,.153-.034.153-.221,0-.17-.034-.2-.136-.221a2.827,2.827,0,0,1-1.037-.238,3.842,3.842,0,0,1-1.02-1.275c-.9-1.428-1.683-2.822-2.363-4.131,1.921-.527,2.737-1.768,2.737-3.026,0-1.734-1.241-3.094-4.352-3.094-1.105,0-2.176.085-2.788.085-.68,0-1.564-.034-2.295-.068-.1,0-.136.034-.136.255,0,.17.034.187.136.2.646.068,1.241.085,1.428.425.187.357.187.544.187,2.159v6.035a6.044,6.044,0,0,1-.2,2.261c-.187.323-.663.34-1.241.408-.136.017-.17.051-.17.238,0,.153.034.2.17.2.663-.034,1.53-.068,2.21-.068.7,0,1.53.034,2.261.068.136,0,.17-.051.17-.2,0-.187-.034-.221-.17-.238-.629-.068-1.105-.068-1.309-.408-.17-.34-.187-.578-.187-2.261Zm0-3.3a5.137,5.137,0,0,1,.221-2.159c.221-.34.8-.323,1.36-.323,2.04,0,2.958.952,2.958,2.618,0,1.462-.9,2.669-3.315,2.669A9.225,9.225,0,0,1,79.22-6.9Zm17.629-3.315a6.128,6.128,0,0,0-6.29,6.358A6.142,6.142,0,0,0,96.849-.2a6.164,6.164,0,0,0,6.307-6.409A6.094,6.094,0,0,0,96.849-12.937Zm0,.578c2.584,0,4.42,2.278,4.42,5.8,0,3.485-1.8,5.763-4.42,5.763-2.635,0-4.42-2.278-4.42-5.814C92.429-10.047,94.248-12.359,96.849-12.359Zm12.58,10a15.073,15.073,0,0,1-.255,3.774c-.119.408-.306.612-.544.612-.442,0-.612-.272-1.037-.272-.476,0-1.037.714-1.037,1.309,0,.34.221.476.748.476a3.667,3.667,0,0,0,2.448-1.768,6.711,6.711,0,0,0,1.275-3.927c0-1.717-.051-2.4-.051-4.08v-3.4A5.258,5.258,0,0,1,111.2-11.8c.187-.34.646-.357,1.258-.425.1-.017.136-.034.136-.221,0-.2-.034-.221-.136-.221-.68.017-1.581.051-2.278.051-.68,0-1.564-.034-2.278-.051-.1,0-.136.017-.136.221,0,.187.034.2.136.221.629.068,1.156.1,1.343.425.187.357.187.561.187,2.159Zm10.676-4.216c.272-.017.68-.017,1.054-.017a4.717,4.717,0,0,1,2.159.357,1.947,1.947,0,0,1,.6,1.258c.017.1.051.17.2.17.221,0,.238-.051.238-.17-.017-.612-.034-1.292-.034-1.921,0-.578.017-1.122.034-1.717,0-.1-.017-.153-.238-.153-.17,0-.187.051-.2.153a1.53,1.53,0,0,1-.561,1.105,4.044,4.044,0,0,1-2.193.357c-.374,0-.782,0-1.054-.017V-9.6a5.32,5.32,0,0,1,.17-2.023c.238-.391.816-.425,1.462-.425a3.754,3.754,0,0,1,2.533.544,3.84,3.84,0,0,1,1.1,1.683c.034.1.085.153.289.119.136-.034.17-.1.153-.2-.119-.85-.221-1.887-.289-2.754-1.462.085-2.856.085-4.2.085-1.394,0-2.907,0-4.318-.085-.119,0-.153.051-.153.272,0,.17.034.187.153.2.646.068,1.122.085,1.309.391.187.374.187.578.187,2.193V-3.57a5.939,5.939,0,0,1-.2,2.244c-.2.323-.612.34-1.207.408-.1.017-.136.051-.136.221s.034.221.136.221c1.445-.051,3.009-.068,4.454-.068,1.377,0,2.822.017,4.284.068a18.013,18.013,0,0,0,.884-2.873c.034-.1.034-.17-.17-.238-.17-.051-.2,0-.255.1a5.3,5.3,0,0,1-1.309,1.717,4.488,4.488,0,0,1-2.958.7c-.765,0-1.411-.017-1.683-.459a4.838,4.838,0,0,1-.238-2.04Zm20.978-5.9a3.866,3.866,0,0,1-1.887-.187,8.548,8.548,0,0,0-2.074-.255,6.055,6.055,0,0,0-6.2,6.341A6.015,6.015,0,0,0,137.071-.2,5.263,5.263,0,0,0,141.95-3.23a.2.2,0,0,0-.119-.306c-.2-.1-.272-.068-.34.017a4.531,4.531,0,0,1-4.182,2.346c-2.618,0-4.505-2.363-4.505-5.44,0-3.468,1.853-5.729,4.386-5.729a3.988,3.988,0,0,1,2.278.731,5.313,5.313,0,0,1,1.445,2.04.2.2,0,0,0,.272.119c.136-.034.187-.085.17-.2C141.253-10.54,141.151-11.594,141.083-12.478Zm9.35,8.908a5.992,5.992,0,0,1-.187,2.227c-.187.323-.68.34-1.241.408-.119.017-.153.051-.153.238,0,.17.034.221.153.221.646-.051,1.53-.068,2.227-.068.68,0,1.632.017,2.346.068.119,0,.153-.051.153-.238,0-.17-.034-.2-.153-.221-.612-.068-1.19-.085-1.377-.408-.2-.357-.187-.544-.187-2.227V-9.6a4.832,4.832,0,0,1,.221-2.108c.238-.374.68-.34,1.1-.34a3.136,3.136,0,0,1,2.04.527A3.9,3.9,0,0,1,156.5-9.775c.034.1.068.153.272.119.153-.034.17-.085.17-.2-.1-.85-.221-1.938-.289-2.805-1.87.085-3.672.085-5.406.085-1.751,0-3.485,0-5.355-.085-.068.867-.187,1.955-.306,2.805,0,.119.017.17.187.2s.221-.017.255-.119a4.131,4.131,0,0,1,1.139-1.751,3.133,3.133,0,0,1,1.989-.527c.425,0,.918,0,1.088.306.17.34.187.595.187,2.142Z" transform="translate(47 534)"/>
  </g>
</svg>
