<svg xmlns="http://www.w3.org/2000/svg" width="300.857" height="147.88" viewBox="0 0 300.857 147.88">
  <path id="パス_5587" data-name="パス 5587" d="M19.04-17.06H12.68V-.46h.8V-16.3h5.56ZM34.74-2.54A16.144,16.144,0,0,1,38.9-.12a1.686,1.686,0,0,0,.92.42.694.694,0,0,0,.6-.8,1.289,1.289,0,0,0-.72-1,17.513,17.513,0,0,0-4.98-2.14,63.546,63.546,0,0,1-.36-6.58,1.73,1.73,0,0,0,1.14.36,7.674,7.674,0,0,0,1.68-.3,16.327,16.327,0,0,0,1.72-.54c.3-.12.5-.26.5-.62,0-.4-.46-.64-1.16-.64a1.41,1.41,0,0,0-.98.4,4.206,4.206,0,0,1-1.28.58,5.02,5.02,0,0,1-1.14.26c-.3,0-.46-.02-.46-.28,0-.34.04-1.12.08-1.6a.917.917,0,0,1,.28-.66.661.661,0,0,0,.22-.48c0-.36-.26-.56-.7-.9a2.993,2.993,0,0,0-1.6-.62,1.714,1.714,0,0,0-.86.3.243.243,0,0,0-.14.24c0,.12.08.16.2.18s.22.02.42.06a1.172,1.172,0,0,1,.72.44c.16.2.18.46.18,1.14.02,3.26.12,5.9.28,9.04a12.292,12.292,0,0,0-1.7-.12c-1.86,0-3.66.68-3.66,2.26,0,1.6,1.6,2.18,3.32,2.18,1.68,0,3.32-.58,3.32-2.66Zm-1.28-.34A2.248,2.248,0,0,1,33-1.18a2.442,2.442,0,0,1-1.9.64c-1.54,0-2.3-.32-2.3-1.2,0-1,1.36-1.36,2.92-1.36A8.4,8.4,0,0,1,33.46-2.88Zm27.68-8.26c-.14,0-.22.08-.22.18,0,.14.06.2.18.28a6.738,6.738,0,0,1,2.2,2.02,5.492,5.492,0,0,1,1,2.48c0,.3-.1.4-.4.46-.44.08-.9.1-1.46.16-.2.02-.36.06-.36.16,0,.14.08.2.32.26.48.12.9.22,1.24.32a1.282,1.282,0,0,1,.78.56.591.591,0,0,0,.54.32.754.754,0,0,0,.58-.32,1.936,1.936,0,0,0,.3-1.18,5.581,5.581,0,0,0-.74-2.54,6.586,6.586,0,0,0-2.18-2.34A5.387,5.387,0,0,0,61.14-11.14ZM54.92-1.2c.46,0,.68-.28.66-.6a1.436,1.436,0,0,0-.2-.58,1.011,1.011,0,0,1-.12-.5,2.984,2.984,0,0,1,.28-.98c.32-.82,1.04-2.4,1.66-3.68a.652.652,0,0,0,.08-.26.277.277,0,0,0-.24-.22.534.534,0,0,0-.34.26c-.84,1.34-1.7,2.8-2.3,3.78-.18.28-.32.38-.48.38-.28,0-.68-.36-1.04-1.26a8.385,8.385,0,0,1-.48-2.76,10.257,10.257,0,0,1,.3-2.86,1.822,1.822,0,0,0,.18-.62,2.3,2.3,0,0,0-.94-1.56,2.658,2.658,0,0,0-1.3-.66c-.16,0-.32.02-.32.12,0,.06.02.1.14.2a2.106,2.106,0,0,1,.8,1.3,21.743,21.743,0,0,1,.06,2.54,18.464,18.464,0,0,0,.24,3.32A6.49,6.49,0,0,0,53.5-1.96,2.686,2.686,0,0,0,54.92-1.2ZM82.54-.08V-8.62H89.3c.2,0,.26-.08.26-.2s-.08-.26-.56-.64c-1-.8-1.14-.9-1.28-.9-.12,0-.26.1-1.22,1.24H82.54v-6.22c.58-.2.74-.36.74-.54,0-.22-.26-.42-2.42-.62.08.82.1,1.98.1,4.14v3.24h-4.4a13.156,13.156,0,0,1-1.92-.14l.2.78a10.42,10.42,0,0,1,1.7-.14h4.42V-.08H74.94a12.186,12.186,0,0,1-2-.16l.2.78a11.487,11.487,0,0,1,1.8-.12H90.82c.2,0,.26-.06.26-.2,0-.12-.1-.24-.6-.66-1.06-.88-1.2-.98-1.34-.98-.12,0-.26.1-1.28,1.34ZM96.96,1.86h6.36v-16.6h-.8V1.1H96.96ZM131.84-9.22a7.987,7.987,0,0,0-3.24.82c-1.06.46-2.14,1.04-3.24,1.58a1.515,1.515,0,0,1-.66.16c-.26,0-.5-.22-.86-.54-.12-.12-.2-.2-.28-.2-.1,0-.18.12-.18.4a1.74,1.74,0,0,0,.5,1.06,2.172,2.172,0,0,0,1.38.88.686.686,0,0,0,.56-.3,4.374,4.374,0,0,1,.86-.8,26.3,26.3,0,0,1,2.46-1.58,5.827,5.827,0,0,1,2.66-.74,2.581,2.581,0,0,1,2.86,2.68,3.719,3.719,0,0,1-2.16,3.18,13.932,13.932,0,0,1-4.58,1.56.353.353,0,0,0-.32.34c0,.12.12.24.34.24a4.7,4.7,0,0,0,.52-.02,14.2,14.2,0,0,0,5.32-1.52,4.04,4.04,0,0,0,2.36-3.54C136.14-7.86,134.24-9.22,131.84-9.22Zm22.56-2.76a8.564,8.564,0,0,0-2.78,2.86,6.384,6.384,0,0,0-.9,3.42,4.825,4.825,0,0,0,2.14,3.96,8.9,8.9,0,0,0,4.68,1.48c.84,0,1.06-.24,1.06-.58a.91.91,0,0,0-.54-.86,2.665,2.665,0,0,0-1.38-.34,6.81,6.81,0,0,1-3.66-1.22,3.771,3.771,0,0,1-1.38-3,5.765,5.765,0,0,1,1.58-3.88A6.432,6.432,0,0,1,156.1-12a12.848,12.848,0,0,1,3.52-.44c.5-.02.72-.2.7-.62,0-.3-.26-.5-.54-.62a3.225,3.225,0,0,0-1.3-.34,1.365,1.365,0,0,0-.68.2,2.4,2.4,0,0,1-.78.3c-2.94.76-5.94,1.54-8.84,2.28a7.114,7.114,0,0,1-1.2.22,1.772,1.772,0,0,1-1.5-.7.409.409,0,0,0-.26-.16c-.1,0-.18.22-.18.5a2.14,2.14,0,0,0,.6,1.12c.52.6,1,.86,1.34.84a.74.74,0,0,0,.54-.2,2.77,2.77,0,0,1,.86-.46c1.54-.54,3.8-1.3,6-1.98Zm19.48,1.34a53.777,53.777,0,0,1-3.68,6.96,1.112,1.112,0,0,0-.26.66.679.679,0,0,0,.72.72.8.8,0,0,0,.72-.54c1.32-2.68,2.52-5.2,3.68-8.02,1.22-.28,2.44-.62,3.14-.86.54-.18.74-.34.74-.68s-.28-.6-.8-.6a2.72,2.72,0,0,0-.96.3,12.682,12.682,0,0,1-1.62.62c.16-.4.34-.82.48-1.12a2.218,2.218,0,0,1,.54-.88.61.61,0,0,0,.32-.52c0-.3-.18-.44-.48-.64a4.272,4.272,0,0,0-1.7-.56,1.2,1.2,0,0,0-.74.18c-.08.06-.16.14-.16.22,0,.06.04.08.12.1a4.233,4.233,0,0,1,.82.26.525.525,0,0,1,.38.48,2.826,2.826,0,0,1-.12.7,17.986,17.986,0,0,1-.68,2.1,12.734,12.734,0,0,1-2.62.34,2.564,2.564,0,0,1-1.68-.54.3.3,0,0,0-.24-.12.191.191,0,0,0-.16.16.4.4,0,0,0,.04.2,2.194,2.194,0,0,0,1,.96,2.979,2.979,0,0,0,1.4.28A17.2,17.2,0,0,0,173.88-10.64Zm7.28,1.42c-1.42.32-2.38.94-2.38,2.8,0,.98.18,2.06.26,3.1a8.86,8.86,0,0,0-1.56-.12c-1.72,0-3.04.76-3.04,2.06,0,1.26,1.16,2.1,2.8,2.1a3.239,3.239,0,0,0,2.34-.7,2.318,2.318,0,0,0,.76-1.92,10.7,10.7,0,0,1,2.6,1.64,1.16,1.16,0,0,0,.74.34.635.635,0,0,0,.66-.68.965.965,0,0,0-.4-.78,13.262,13.262,0,0,0-3.64-1.7,22.873,22.873,0,0,1-.68-3.74c0-1.58.98-1.86,1.94-1.86a2.723,2.723,0,0,1,1.66.86.964.964,0,0,0,.6.26.606.606,0,0,0,.6-.62,1.634,1.634,0,0,0-.9-1.18,6.735,6.735,0,0,0-3.44-.96,5.323,5.323,0,0,0-1.86.34c-.12.04-.2.12-.2.2a.2.2,0,0,0,.18.22,1.435,1.435,0,0,0,.26-.02,6.553,6.553,0,0,1,.94-.06,3.955,3.955,0,0,1,1.76.34Zm-2.02,6.94a1.727,1.727,0,0,1,.02.3,1.561,1.561,0,0,1-.54,1.22,2.238,2.238,0,0,1-1.58.5c-1.38,0-1.94-.5-1.94-1.1,0-.82.98-1.26,2.1-1.26A6.172,6.172,0,0,1,179.14-2.28Zm17.3-3.42c1.64-2.76,2.76-4.72,3.72-6.32a2.011,2.011,0,0,1,.8-.9.618.618,0,0,0,.38-.6c0-.28-.16-.58-.72-1.08a2.666,2.666,0,0,0-1.6-.82c-.36,0-.64.12-.64.24,0,.1.08.14.24.24.6.36.8.64.8.98a2.709,2.709,0,0,1-.26.92c-.32.78-1.08,2.28-2.02,4.08-1.16,2.2-2.58,4.78-3.82,7.2a1.283,1.283,0,0,0-.2.68c0,.54.3.76.64.76a.931.931,0,0,0,.9-.72,19.941,19.941,0,0,1,1.94-3.9,2.808,2.808,0,0,1,2.24-1.36,1.067,1.067,0,0,1,1.06.62,5.086,5.086,0,0,1,.38,2.14,4.7,4.7,0,0,0,.66,2.68,2.322,2.322,0,0,0,2.02.92,5.07,5.07,0,0,0,4-2.12,10.953,10.953,0,0,0,2.06-4.9c.02-.14.04-.26.04-.32a.233.233,0,0,0-.22-.26c-.16,0-.22.1-.28.28a12.236,12.236,0,0,1-2.14,4.02,4.892,4.892,0,0,1-3.38,1.9,1.212,1.212,0,0,1-1.16-.58,4.938,4.938,0,0,1-.42-1.96,4.255,4.255,0,0,0-.72-2.26,2.151,2.151,0,0,0-1.78-.8,3.406,3.406,0,0,0-2.48,1.26Zm32.48-8.92a.206.206,0,0,0-.22.2.31.31,0,0,0,.14.2,6.921,6.921,0,0,1,1.68,1.92q.27.54.66.54a.557.557,0,0,0,.56-.6c0-.42-.28-.78-.76-1.2a4.5,4.5,0,0,0-1.74-1A1.138,1.138,0,0,0,228.92-14.62Zm1.62-1.36a.2.2,0,0,0-.2.2.241.241,0,0,0,.14.2,6.1,6.1,0,0,1,1.84,1.88c.22.38.38.48.64.48a.568.568,0,0,0,.54-.64c0-.46-.44-.92-.92-1.26a4.723,4.723,0,0,0-1.6-.78A2.612,2.612,0,0,0,230.54-15.98Zm-7.16,4.48a10.816,10.816,0,0,1,.46-1.2,1.778,1.778,0,0,1,.58-.88.6.6,0,0,0,.26-.5c0-.18-.04-.36-.38-.62a3.8,3.8,0,0,0-1.8-.76,1.486,1.486,0,0,0-.76.22c-.08.04-.18.1-.18.2,0,.08.04.14.18.18a3.382,3.382,0,0,1,.8.26.565.565,0,0,1,.36.54,3.574,3.574,0,0,1-.16.98c-.14.54-.32,1.12-.56,1.9a13.9,13.9,0,0,1-2.84.54,2.854,2.854,0,0,1-1.7-.48.528.528,0,0,0-.3-.1.214.214,0,0,0-.18.2c0,.22.22.44.54.7a3.2,3.2,0,0,0,1.94.66,10.371,10.371,0,0,0,2.12-.3c-1.16,3.04-2.34,5.86-3.74,8.7a1.888,1.888,0,0,0-.26.76.93.93,0,0,0,.2.54.714.714,0,0,0,.46.22c.32,0,.62-.18.82-.68,1.34-3.22,2.5-6.52,3.7-9.8a33.143,33.143,0,0,0,3.28-1.08c.44-.16.66-.36.64-.7,0-.38-.4-.58-.72-.58a2.5,2.5,0,0,0-.72.22A20.065,20.065,0,0,1,223.38-11.5Zm.74,8.8a2.377,2.377,0,0,0,1.06,2.08,6.627,6.627,0,0,0,3.9.94c.68,0,1.62-.06,2.16-.12.68-.1,1.06-.28,1.06-.66a.721.721,0,0,0-.42-.68,2.036,2.036,0,0,0-.9-.2,2.409,2.409,0,0,0-.84.16,8,8,0,0,1-2.08.2,4.463,4.463,0,0,1-2.6-.68,1.716,1.716,0,0,1-.66-1.4,3.6,3.6,0,0,1,.1-.92,1.8,1.8,0,0,0,.06-.32.155.155,0,0,0-.16-.14c-.12,0-.24.14-.36.36A2.807,2.807,0,0,0,224.12-2.7Zm4.6-5.74c.12,0,.14.06.06.12-.76.58-1.44,1.2-1.9,1.62a.351.351,0,0,0-.14.22c0,.08.12.22.18.22a.527.527,0,0,0,.3-.12c.68-.42,1.46-.96,1.96-1.26a1.626,1.626,0,0,1,.82-.28,1.947,1.947,0,0,1,.64.14,1.211,1.211,0,0,0,.46.1.5.5,0,0,0,.56-.5c0-.44-.26-.62-.72-.82a6.07,6.07,0,0,0-2.34-.4,6.6,6.6,0,0,0-2.44.48,4.612,4.612,0,0,0-1.34.82.315.315,0,0,0-.14.26.2.2,0,0,0,.2.16.9.9,0,0,0,.22-.06,7.667,7.667,0,0,1,2.54-.68A10.379,10.379,0,0,1,228.72-8.44Zm16.56,1.8c1.1-1.06,2.12-2.06,3.04-3.02,1.26-1.3,2.12-2.14,3.06-3.12a3.078,3.078,0,0,1,.9-.54c.24-.12.34-.24.34-.44a.766.766,0,0,0-.26-.58,6.61,6.61,0,0,0-1.3-.96.989.989,0,0,0-.54-.14.663.663,0,0,0-.5.2,1.256,1.256,0,0,1-.54.34c-.46.14-1.2.38-1.72.54a9.648,9.648,0,0,1-1.66.38c-.36,0-.66-.18-1.16-.92-.1-.16-.18-.22-.26-.22-.06,0-.16.08-.2.22a1.6,1.6,0,0,0-.06.52,2.6,2.6,0,0,0,.72,1.42,1.16,1.16,0,0,0,.86.48,1.1,1.1,0,0,0,.64-.3,4.849,4.849,0,0,1,1-.5c.96-.4,2.2-.9,2.54-1a1,1,0,0,1,.32-.06.162.162,0,0,1,.18.14.441.441,0,0,1-.12.3c-1.32,1.68-2.22,2.76-3.48,4.16-1.3,1.46-2.54,2.7-3.62,3.82-.32.32-.64.56-.76.68a1.309,1.309,0,0,0-.5.98c0,.46.26.9.64.9a.773.773,0,0,0,.62-.42,9.83,9.83,0,0,1,1.18-1.36c1.76-1.62,3.72-2.98,6-2.98a3.959,3.959,0,0,1,2.44.68,2.633,2.633,0,0,1,1.02,2.18,4.334,4.334,0,0,1-2.56,3.76A15.027,15.027,0,0,1,245.96.1c-.28.04-.4.14-.4.32,0,.14.08.24.3.26a5.12,5.12,0,0,0,.66.02,15.6,15.6,0,0,0,6.26-1.44c1.78-.96,2.92-2.28,2.92-4.22a3.675,3.675,0,0,0-1.94-3.2,5.582,5.582,0,0,0-2.82-.72,8.742,8.742,0,0,0-5.62,2.3Zm27.3-7.2c-.58.38-1.18.78-1.68,1.12-.14.1-.2.16-.2.24s.08.22.18.22a.6.6,0,0,0,.28-.08c.46-.2,1.2-.56,1.64-.72a3.976,3.976,0,0,1,1.4-.3c.42,0,.74.02.94.02.34,0,.62-.14.62-.48a.755.755,0,0,0-.48-.76,3.278,3.278,0,0,0-1.7-.26,3.519,3.519,0,0,1-2.94-1.06.243.243,0,0,0-.2-.1.183.183,0,0,0-.16.2.53.53,0,0,0,.06.2A3.226,3.226,0,0,0,272.58-13.84Zm1.26,2.94a6.827,6.827,0,0,0-3.18,1.06,3.891,3.891,0,0,1-1.3.5.438.438,0,0,1-.38-.24,2.513,2.513,0,0,1-.26-.62.155.155,0,0,0-.16-.14.416.416,0,0,0-.24.22,1.711,1.711,0,0,0-.1.6,2.3,2.3,0,0,0,.56,1.26,1.475,1.475,0,0,0,.92.56c.26,0,.44-.16.98-.74a4.733,4.733,0,0,1,3-1.66,1.705,1.705,0,0,1,1.52.84,4.629,4.629,0,0,1,.54,2.32,6.816,6.816,0,0,1-1.46,4.34A10.021,10.021,0,0,1,270.46.3c-.16.08-.28.16-.28.28,0,.16.08.24.2.24a1.887,1.887,0,0,0,.6-.12,10.04,10.04,0,0,0,4.58-2.9,6.667,6.667,0,0,0,1.74-4.42,4.816,4.816,0,0,0-.8-2.86A3.076,3.076,0,0,0,273.84-10.9Zm23.2-4.86c-2.86,0-4.58,2.28-4.58,3.66,0,.64.28.8.68.8.66,0,1.42-.42,1.42-1a3.242,3.242,0,0,1,.32-1.72,2.23,2.23,0,0,1,2.08-1.1c1.76,0,2.56,1.36,2.56,3.02,0,1.72-1.14,2.76-2.06,3.92a5.891,5.891,0,0,0-1.26,4.1q0,.24.18.24c.42,0,.6-.14.6-.36a3.411,3.411,0,0,1,1.36-3.36c1.28-1.08,3.06-2.22,3.06-4.46C301.4-14.14,299.86-15.76,297.04-15.76ZM296.56-1.9A1.235,1.235,0,0,0,295.3-.62,1.222,1.222,0,0,0,296.56.6,1.229,1.229,0,0,0,297.8-.62,1.243,1.243,0,0,0,296.56-1.9ZM6.34,61.56a7.216,7.216,0,0,1-1.54-.14l.2.76a9.694,9.694,0,0,1,1.42-.12H8.98c-.04,2.38-.08,3.68-.08,4.02,0,.4.18.58.68.58.64,0,1-.22,1-.68s-.02-1.62-.06-3.92h3.96c.2,0,.26-.06.26-.18s-.1-.26-.46-.56c-.84-.7-.98-.8-1.1-.8s-.28.1-1.02,1.04H10.5c-.04-2.66-.1-5.34-.14-8a20.7,20.7,0,0,0,2.82,5.26,17.34,17.34,0,0,0,4.04,3.72,2.157,2.157,0,0,0,.84.38c.14,0,.22-.1.3-.3.3-.76.56-.98,1.1-1.12.08-.02.1-.18.02-.2a14.593,14.593,0,0,1-5.44-3.28,15.249,15.249,0,0,1-3.36-4.84h7.78c.2,0,.28-.06.28-.2,0-.12-.1-.24-.54-.6-.96-.78-1.12-.88-1.24-.88s-.28.1-1.12,1.18H10.46v-3.3c.54-.26.66-.4.66-.56,0-.26-.38-.4-2.24-.58A31.3,31.3,0,0,1,9,51.94v.74H3.06a9.429,9.429,0,0,1-1.76-.14l.2.76a11.577,11.577,0,0,1,1.58-.12H8.2A22.556,22.556,0,0,1,.58,62.84c-.12.08.08.32.2.26A20.1,20.1,0,0,0,9.1,54.82c-.02,2.24-.06,4.5-.1,6.74Zm28-5V49.62c.54-.22.7-.36.7-.52,0-.22-.24-.38-2.28-.58a20.236,20.236,0,0,1,.1,2.4v5.64H28.2a9.181,9.181,0,0,1-1.76-.14l.22.8a7.063,7.063,0,0,1,1.58-.16H39.22V60.5H28.62a8.322,8.322,0,0,1-1.66-.14l.24.78A7.029,7.029,0,0,1,28.64,61H39.22v3.82H27.82a9.787,9.787,0,0,1-1.66-.14l.2.78a7.281,7.281,0,0,1,1.48-.14H39.22v.58c0,.38.2.54.62.54.64,0,.94-.22.94-.66,0-.58-.1-2.42-.1-6.16V57.48c.52-.34.56-.42.56-.54s-.06-.26-.38-.5c-.66-.56-.8-.64-.92-.64s-.24.08-.88.76Zm-4.8-1.44c.5,0,.84-.46.84-1.12,0-1.16-1.3-2.84-3.32-3.98-.06-.04-.18.1-.14.16a10.055,10.055,0,0,1,1.84,3.94C28.9,54.9,29.08,55.12,29.54,55.12Zm7.06.74a19.555,19.555,0,0,0,3.82-4.54c.7-.1.76-.18.76-.4,0-.24-.44-.5-2.04-1.16a9.025,9.025,0,0,1-.5,1.66,22.183,22.183,0,0,1-2.26,4.26C36.32,55.78,36.5,55.94,36.6,55.86ZM60.04,53.5a16.374,16.374,0,0,0-1.52,1.68.369.369,0,0,0-.12.26.235.235,0,0,0,.2.18.305.305,0,0,0,.24-.12,7.947,7.947,0,0,1,2.12-1.6,3.417,3.417,0,0,1,1.28-.22c.32,0,.86.06,1.14.06.52,0,.8-.1.8-.6,0-.44-.28-.88-1.66-.88a11.467,11.467,0,0,0-3.02.38,10.616,10.616,0,0,0-2.7,1.2c-.16.1-.24.18-.24.32a.226.226,0,0,0,.24.22.857.857,0,0,0,.3-.1,13.658,13.658,0,0,1,2.8-.88C60.08,53.36,60.1,53.44,60.04,53.5Zm-3.82,6.58a3.053,3.053,0,0,0,1,2.34c1.2,1.08,3.16,1.2,4.82,1.2a11.146,11.146,0,0,0,2.78-.26.6.6,0,0,0,.5-.6.785.785,0,0,0-.54-.68,2.928,2.928,0,0,0-.82-.16,3.165,3.165,0,0,0-.76.1,5.793,5.793,0,0,1-.74.16,9.388,9.388,0,0,1-1.42.08,5.561,5.561,0,0,1-3.42-.82,2.262,2.262,0,0,1-.74-1.88,6.7,6.7,0,0,1,.2-1.32c0-.12-.1-.18-.22-.18-.1,0-.16.06-.24.2A4.481,4.481,0,0,0,56.22,60.08Zm-2.14-2.4c-.48,1.24-.96,2.54-1.42,3.72-.04.1-.1.14-.14.14-.06,0-.12-.04-.14-.14a6.7,6.7,0,0,1-.14-1.62,16.4,16.4,0,0,1,1-5.16,3.115,3.115,0,0,1,.46-.88.882.882,0,0,0,.28-.66,2.561,2.561,0,0,0-.54-1.38,2.262,2.262,0,0,0-1.46-1.06.162.162,0,0,0-.18.14.27.27,0,0,0,.1.2,2.037,2.037,0,0,1,.6,1.42,8.515,8.515,0,0,1-.3,1.64,26.545,26.545,0,0,0-.9,5.88,10.935,10.935,0,0,0,.66,3.78c.3.72.56.94.92.94.26,0,.48-.16.48-.56,0-.28-.06-.94-.06-1.3a6.051,6.051,0,0,1,.2-1.28c.18-.78.56-2.04,1.04-3.64a.88.88,0,0,0,.04-.2.256.256,0,0,0-.24-.22C54.24,57.44,54.14,57.5,54.08,57.68Zm36.96-9.74H84.68v16.6h.8V48.7h5.56Zm20.32,5.54a3.428,3.428,0,0,0-2.02.66.319.319,0,0,0-.16.28.2.2,0,0,0,.2.2.857.857,0,0,0,.26-.1,2.881,2.881,0,0,1,1.2-.32,2.517,2.517,0,0,1,1.88.88.365.365,0,0,1,.1.22.257.257,0,0,1-.08.2,11.682,11.682,0,0,1-1.28,1c-.12.08-.16.14-.16.22a.172.172,0,0,0,.16.16.88.88,0,0,0,.2-.04c.32-.1.6-.22,1-.36a2.423,2.423,0,0,1,.58-.14.716.716,0,0,1,.46.16.611.611,0,0,0,.4.14.577.577,0,0,0,.6-.6,2.124,2.124,0,0,0-.96-1.66A4.2,4.2,0,0,0,111.36,53.48Zm-8.1.78a10.493,10.493,0,0,1-2.34.34,1.828,1.828,0,0,1-1.44-.78.344.344,0,0,0-.26-.16.2.2,0,0,0-.18.2,1.694,1.694,0,0,0,.3.74,2.034,2.034,0,0,0,1.72.98,11.3,11.3,0,0,0,2.2-.26c-.02,1.26-.06,2.48-.06,4-1.22.74-2.28,1.46-3.66,2.24a1.43,1.43,0,0,1-.64.22.466.466,0,0,1-.3-.14,1.2,1.2,0,0,1-.3-.42.289.289,0,0,0-.2-.14c-.12,0-.18.2-.18.46a1.773,1.773,0,0,0,.76,1.38,1.419,1.419,0,0,0,.82.4.46.46,0,0,0,.44-.28,2.262,2.262,0,0,1,.64-.66,23.339,23.339,0,0,1,1.82,1.48,1.471,1.471,0,0,1,.52.7c.1.4.26.52.54.52.32,0,.54-.24.78-.96a2.79,2.79,0,0,0,.14-.88c0-.1-.02-.52-.04-.76-.04-.7-.08-1.7-.1-2.7.5-.3,1.04-.6,1.56-.9a6.294,6.294,0,0,1,2.82-.92,2.674,2.674,0,0,1,1.82.54,2.064,2.064,0,0,1,.76,1.6,2.113,2.113,0,0,1-.68,1.74,2.765,2.765,0,0,1-1.92.66,4.114,4.114,0,0,1-2.82-1.12.3.3,0,0,0-.24-.12.171.171,0,0,0-.16.16.614.614,0,0,0,.08.3,4.209,4.209,0,0,0,3.68,1.78,3.776,3.776,0,0,0,2.42-.78,2.839,2.839,0,0,0,1.1-2.24,2.89,2.89,0,0,0-1.18-2.3,4.238,4.238,0,0,0-2.66-.86,9.1,9.1,0,0,0-4.6,1.46c-.02-1.26.02-2.52.06-3.72a16.7,16.7,0,0,0,3.16-1.14.586.586,0,0,0,.38-.54c0-.34-.34-.58-.78-.58a1.714,1.714,0,0,0-1.16.38,5.771,5.771,0,0,1-1.58.76,8.2,8.2,0,0,1,.14-1.52,1.074,1.074,0,0,1,.38-.6.479.479,0,0,0,.2-.42c0-.3-.32-.64-.82-.94a2.629,2.629,0,0,0-1.3-.44,1.419,1.419,0,0,0-.86.26c-.16.12-.2.2-.2.28,0,.06.1.1.26.12a2.937,2.937,0,0,1,.58.1.678.678,0,0,1,.46.36,3.5,3.5,0,0,1,.12,1.36Zm-.06,8.36c0,.3-.04.38-.2.38a1.925,1.925,0,0,1-.62-.2,9.1,9.1,0,0,1-1.38-.76c.64-.5,1.44-1.14,2.2-1.7Zm29.94-8.76c-.14,0-.22.08-.22.18,0,.14.06.2.18.28a6.739,6.739,0,0,1,2.2,2.02,5.492,5.492,0,0,1,1,2.48c0,.3-.1.4-.4.46-.44.08-.9.1-1.46.16-.2.02-.36.06-.36.16,0,.14.08.2.32.26.48.12.9.22,1.24.32a1.282,1.282,0,0,1,.78.56.591.591,0,0,0,.54.32.754.754,0,0,0,.58-.32,1.936,1.936,0,0,0,.3-1.18,5.581,5.581,0,0,0-.74-2.54,6.586,6.586,0,0,0-2.18-2.34A5.387,5.387,0,0,0,133.14,53.86Zm-6.22,9.94c.46,0,.68-.28.66-.6a1.436,1.436,0,0,0-.2-.58,1.011,1.011,0,0,1-.12-.5,2.984,2.984,0,0,1,.28-.98c.32-.82,1.04-2.4,1.66-3.68a.652.652,0,0,0,.08-.26.277.277,0,0,0-.24-.22.534.534,0,0,0-.34.26c-.84,1.34-1.7,2.8-2.3,3.78-.18.28-.32.38-.48.38-.28,0-.68-.36-1.04-1.26a8.385,8.385,0,0,1-.48-2.76,10.257,10.257,0,0,1,.3-2.86,1.822,1.822,0,0,0,.18-.62,2.3,2.3,0,0,0-.94-1.56,2.658,2.658,0,0,0-1.3-.66c-.16,0-.32.02-.32.12,0,.06.02.1.14.2a2.106,2.106,0,0,1,.8,1.3,21.744,21.744,0,0,1,.06,2.54,18.464,18.464,0,0,0,.24,3.32,6.49,6.49,0,0,0,1.94,3.88A2.686,2.686,0,0,0,126.92,63.8Zm26.22,1.34a9.454,9.454,0,0,0,4.56-1.26,12.011,12.011,0,0,0,3.66-3.28.573.573,0,0,0,.16-.4.218.218,0,0,0-.22-.18c-.08,0-.16.06-.26.16a13.745,13.745,0,0,1-3.14,2.36,10.954,10.954,0,0,1-4.48,1.3,2.8,2.8,0,0,1-1.74-.42,2.545,2.545,0,0,1-.5-1.9c0-1.04.08-3,.2-4.86.1-1.6.22-2.82.34-3.78a.955.955,0,0,1,.28-.64.8.8,0,0,0,.28-.56,1.615,1.615,0,0,0-.72-1.08,3.258,3.258,0,0,0-1.62-.76,2.013,2.013,0,0,0-.72.12c-.16.06-.24.16-.24.26s.08.12.24.18a3.265,3.265,0,0,1,.7.32c.3.2.4.5.38,1.24-.04,1.6-.08,3.16-.14,4.74-.08,1.94-.16,3.84-.16,5.1C150,64.2,151.22,65.14,153.14,65.14Zm28-11.28c-.14,0-.22.08-.22.18,0,.14.06.2.18.28a6.739,6.739,0,0,1,2.2,2.02,5.492,5.492,0,0,1,1,2.48c0,.3-.1.4-.4.46-.44.08-.9.1-1.46.16-.2.02-.36.06-.36.16,0,.14.08.2.32.26.48.12.9.22,1.24.32a1.282,1.282,0,0,1,.78.56.591.591,0,0,0,.54.32.754.754,0,0,0,.58-.32,1.936,1.936,0,0,0,.3-1.18,5.581,5.581,0,0,0-.74-2.54,6.586,6.586,0,0,0-2.18-2.34A5.387,5.387,0,0,0,181.14,53.86Zm-6.22,9.94c.46,0,.68-.28.66-.6a1.437,1.437,0,0,0-.2-.58,1.011,1.011,0,0,1-.12-.5,2.984,2.984,0,0,1,.28-.98c.32-.82,1.04-2.4,1.66-3.68a.652.652,0,0,0,.08-.26.277.277,0,0,0-.24-.22.534.534,0,0,0-.34.26c-.84,1.34-1.7,2.8-2.3,3.78-.18.28-.32.38-.48.38-.28,0-.68-.36-1.04-1.26a8.385,8.385,0,0,1-.48-2.76,10.257,10.257,0,0,1,.3-2.86,1.822,1.822,0,0,0,.18-.62,2.3,2.3,0,0,0-.94-1.56,2.658,2.658,0,0,0-1.3-.66c-.16,0-.32.02-.32.12,0,.06.02.1.14.2a2.106,2.106,0,0,1,.8,1.3,21.743,21.743,0,0,1,.06,2.54,18.464,18.464,0,0,0,.24,3.32,6.49,6.49,0,0,0,1.94,3.88A2.686,2.686,0,0,0,174.92,63.8Zm18.04,3.06h6.36V50.26h-.8V66.1h-5.56Zm34.88-11.08a7.987,7.987,0,0,0-3.24.82c-1.06.46-2.14,1.04-3.24,1.58a1.515,1.515,0,0,1-.66.16c-.26,0-.5-.22-.86-.54-.12-.12-.2-.2-.28-.2-.1,0-.18.12-.18.4a1.74,1.74,0,0,0,.5,1.06,2.172,2.172,0,0,0,1.38.88.686.686,0,0,0,.56-.3,4.374,4.374,0,0,1,.86-.8,26.3,26.3,0,0,1,2.46-1.58,5.827,5.827,0,0,1,2.66-.74,2.581,2.581,0,0,1,2.86,2.68,3.719,3.719,0,0,1-2.16,3.18,13.932,13.932,0,0,1-4.58,1.56.353.353,0,0,0-.32.34c0,.12.12.24.34.24a4.7,4.7,0,0,0,.52-.02,14.2,14.2,0,0,0,5.32-1.52,4.04,4.04,0,0,0,2.36-3.54C232.14,57.14,230.24,55.78,227.84,55.78Zm22.56-2.76a8.564,8.564,0,0,0-2.78,2.86,6.384,6.384,0,0,0-.9,3.42,4.825,4.825,0,0,0,2.14,3.96,8.9,8.9,0,0,0,4.68,1.48c.84,0,1.06-.24,1.06-.58a.91.91,0,0,0-.54-.86,2.665,2.665,0,0,0-1.38-.34,6.81,6.81,0,0,1-3.66-1.22,3.771,3.771,0,0,1-1.38-3,5.765,5.765,0,0,1,1.58-3.88A6.432,6.432,0,0,1,252.1,53a12.848,12.848,0,0,1,3.52-.44c.5-.02.72-.2.7-.62,0-.3-.26-.5-.54-.62a3.225,3.225,0,0,0-1.3-.34,1.365,1.365,0,0,0-.68.2,2.4,2.4,0,0,1-.78.3c-2.94.76-5.94,1.54-8.84,2.28a7.114,7.114,0,0,1-1.2.22,1.772,1.772,0,0,1-1.5-.7.409.409,0,0,0-.26-.16c-.1,0-.18.22-.18.5a2.14,2.14,0,0,0,.6,1.12c.52.6,1,.86,1.34.84a.74.74,0,0,0,.54-.2,2.77,2.77,0,0,1,.86-.46c1.54-.54,3.8-1.3,6-1.98ZM8.38,122.38a11.441,11.441,0,0,0-2.9,2.18,3.5,3.5,0,0,0-.98,2.34,2.648,2.648,0,0,0,1.62,2.46,9.806,9.806,0,0,0,4.16.74,28.745,28.745,0,0,0,3.74-.2c.86-.14,1.1-.32,1.1-.72,0-.32-.22-.56-.66-.76a2.212,2.212,0,0,0-.86-.18,5.567,5.567,0,0,0-1,.22,16.056,16.056,0,0,1-3,.3,7,7,0,0,1-3.2-.48,1.7,1.7,0,0,1-1-1.5,2.9,2.9,0,0,1,1.36-2.34,12.388,12.388,0,0,1,2.98-1.64c1.1-.42,2.18-.78,3.2-1.08.42-.12.8-.22,1.12-.3s.62-.24.62-.6a1.7,1.7,0,0,0-.68-1.08,2.664,2.664,0,0,0-1.46-.82c-.22,0-.42.16-.42.24,0,.06.06.08.18.16.34.22.64.54.64.76,0,.14-.08.2-.26.3-.86.46-1.92.94-2.78,1.32a2.174,2.174,0,0,1-.66.14c-.32,0-.46-.34-.5-.86a26.736,26.736,0,0,1,.06-3.84,1.053,1.053,0,0,1,.14-.48.77.77,0,0,0,.22-.48.93.93,0,0,0-.38-.72,2.975,2.975,0,0,0-1.74-.76,1.22,1.22,0,0,0-.74.28.518.518,0,0,0-.24.34c0,.08.04.1.14.12.18.02.26.02.48.06a1.124,1.124,0,0,1,.56.26c.14.16.16.3.18.74.08,1.68.1,3.16.2,4.2A2,2,0,0,0,8.38,122.38Zm5.92-6.54a.206.206,0,0,0-.22.2.31.31,0,0,0,.14.2,6.921,6.921,0,0,1,1.68,1.92q.27.54.66.54a.557.557,0,0,0,.56-.6c0-.42-.28-.78-.76-1.2a4.5,4.5,0,0,0-1.74-1A1.138,1.138,0,0,0,14.3,115.84Zm1.62-1.36a.2.2,0,0,0-.2.2.241.241,0,0,0,.14.2,6.1,6.1,0,0,1,1.84,1.88c.22.38.38.48.64.48a.568.568,0,0,0,.54-.64c0-.46-.44-.92-.92-1.26a4.723,4.723,0,0,0-1.6-.78A2.612,2.612,0,0,0,15.92,114.48Zm12.52,9.82c1.64-2.76,2.76-4.72,3.72-6.32a2.011,2.011,0,0,1,.8-.9.618.618,0,0,0,.38-.6c0-.28-.16-.58-.72-1.08a2.666,2.666,0,0,0-1.6-.82c-.36,0-.64.12-.64.24,0,.1.08.14.24.24.6.36.8.64.8.98a2.709,2.709,0,0,1-.26.92c-.32.78-1.08,2.28-2.02,4.08-1.16,2.2-2.58,4.78-3.82,7.2a1.283,1.283,0,0,0-.2.68c0,.54.3.76.64.76a.931.931,0,0,0,.9-.72,19.942,19.942,0,0,1,1.94-3.9,2.808,2.808,0,0,1,2.24-1.36,1.067,1.067,0,0,1,1.06.62,5.086,5.086,0,0,1,.38,2.14,4.7,4.7,0,0,0,.66,2.68,2.322,2.322,0,0,0,2.02.92,5.07,5.07,0,0,0,4-2.12,10.953,10.953,0,0,0,2.06-4.9c.02-.14.04-.26.04-.32a.233.233,0,0,0-.22-.26c-.16,0-.22.1-.28.28a12.236,12.236,0,0,1-2.14,4.02,4.892,4.892,0,0,1-3.38,1.9,1.212,1.212,0,0,1-1.16-.58,4.939,4.939,0,0,1-.42-1.96,4.255,4.255,0,0,0-.72-2.26,2.151,2.151,0,0,0-1.78-.8,3.406,3.406,0,0,0-2.48,1.26Zm25.44-4.94a53.779,53.779,0,0,1-3.68,6.96,1.112,1.112,0,0,0-.26.66.679.679,0,0,0,.72.72.8.8,0,0,0,.72-.54c1.32-2.68,2.52-5.2,3.68-8.02,1.22-.28,2.44-.62,3.14-.86.54-.18.74-.34.74-.68s-.28-.6-.8-.6a2.72,2.72,0,0,0-.96.3,12.682,12.682,0,0,1-1.62.62c.16-.4.34-.82.48-1.12a2.218,2.218,0,0,1,.54-.88.61.61,0,0,0,.32-.52c0-.3-.18-.44-.48-.64a4.272,4.272,0,0,0-1.7-.56,1.2,1.2,0,0,0-.74.18c-.08.06-.16.14-.16.22,0,.06.04.08.12.1a4.233,4.233,0,0,1,.82.26.525.525,0,0,1,.38.48,2.826,2.826,0,0,1-.12.7,17.986,17.986,0,0,1-.68,2.1,12.734,12.734,0,0,1-2.62.34,2.564,2.564,0,0,1-1.68-.54.305.305,0,0,0-.24-.12.191.191,0,0,0-.16.16.4.4,0,0,0,.04.2,2.194,2.194,0,0,0,1,.96,2.979,2.979,0,0,0,1.4.28A17.2,17.2,0,0,0,53.88,119.36Zm7.28,1.42c-1.42.32-2.38.94-2.38,2.8,0,.98.18,2.06.26,3.1a8.86,8.86,0,0,0-1.56-.12c-1.72,0-3.04.76-3.04,2.06,0,1.26,1.16,2.1,2.8,2.1a3.239,3.239,0,0,0,2.34-.7,2.318,2.318,0,0,0,.76-1.92,10.7,10.7,0,0,1,2.6,1.64,1.16,1.16,0,0,0,.74.34.635.635,0,0,0,.66-.68.965.965,0,0,0-.4-.78,13.262,13.262,0,0,0-3.64-1.7,22.873,22.873,0,0,1-.68-3.74c0-1.58.98-1.86,1.94-1.86a2.723,2.723,0,0,1,1.66.86.964.964,0,0,0,.6.26.606.606,0,0,0,.6-.62,1.634,1.634,0,0,0-.9-1.18,6.735,6.735,0,0,0-3.44-.96,5.323,5.323,0,0,0-1.86.34c-.12.04-.2.12-.2.2a.2.2,0,0,0,.18.22,1.434,1.434,0,0,0,.26-.02,6.553,6.553,0,0,1,.94-.06,3.955,3.955,0,0,1,1.76.34Zm-2.02,6.94a1.727,1.727,0,0,1,.02.3,1.562,1.562,0,0,1-.54,1.22,2.238,2.238,0,0,1-1.58.5c-1.38,0-1.94-.5-1.94-1.1,0-.82.98-1.26,2.1-1.26A6.172,6.172,0,0,1,59.14,127.72Zm25.78-12.34a.206.206,0,0,0-.22.2.31.31,0,0,0,.14.2,6.921,6.921,0,0,1,1.68,1.92q.27.54.66.54a.557.557,0,0,0,.56-.6c0-.42-.28-.78-.76-1.2a4.5,4.5,0,0,0-1.74-1A1.137,1.137,0,0,0,84.92,115.38Zm1.62-1.36a.2.2,0,0,0-.2.2.241.241,0,0,0,.14.2,6.1,6.1,0,0,1,1.84,1.88c.22.38.38.48.64.48a.568.568,0,0,0,.54-.64c0-.46-.44-.92-.92-1.26a4.723,4.723,0,0,0-1.6-.78A2.612,2.612,0,0,0,86.54,114.02Zm-7.16,4.48a10.818,10.818,0,0,1,.46-1.2,1.778,1.778,0,0,1,.58-.88.6.6,0,0,0,.26-.5c0-.18-.04-.36-.38-.62a3.8,3.8,0,0,0-1.8-.76,1.486,1.486,0,0,0-.76.22c-.08.04-.18.1-.18.2,0,.08.04.14.18.18a3.382,3.382,0,0,1,.8.26.565.565,0,0,1,.36.54,3.574,3.574,0,0,1-.16.98c-.14.54-.32,1.12-.56,1.9a13.9,13.9,0,0,1-2.84.54,2.854,2.854,0,0,1-1.7-.48.528.528,0,0,0-.3-.1.214.214,0,0,0-.18.2c0,.22.22.44.54.7a3.2,3.2,0,0,0,1.94.66,10.371,10.371,0,0,0,2.12-.3c-1.16,3.04-2.34,5.86-3.74,8.7a1.888,1.888,0,0,0-.26.76.93.93,0,0,0,.2.54.714.714,0,0,0,.46.22c.32,0,.62-.18.82-.68,1.34-3.22,2.5-6.52,3.7-9.8a33.142,33.142,0,0,0,3.28-1.08c.44-.16.66-.36.64-.7,0-.38-.4-.58-.72-.58a2.5,2.5,0,0,0-.72.22A20.063,20.063,0,0,1,79.38,118.5Zm.74,8.8a2.377,2.377,0,0,0,1.06,2.08,6.627,6.627,0,0,0,3.9.94c.68,0,1.62-.06,2.16-.12.68-.1,1.06-.28,1.06-.66a.721.721,0,0,0-.42-.68,2.036,2.036,0,0,0-.9-.2,2.409,2.409,0,0,0-.84.16,8,8,0,0,1-2.08.2,4.463,4.463,0,0,1-2.6-.68,1.716,1.716,0,0,1-.66-1.4,3.6,3.6,0,0,1,.1-.92,1.8,1.8,0,0,0,.06-.32.155.155,0,0,0-.16-.14c-.12,0-.24.14-.36.36A2.807,2.807,0,0,0,80.12,127.3Zm4.6-5.74c.12,0,.14.06.06.12-.76.58-1.44,1.2-1.9,1.62a.351.351,0,0,0-.14.22c0,.08.12.22.18.22a.527.527,0,0,0,.3-.12c.68-.42,1.46-.96,1.96-1.26a1.626,1.626,0,0,1,.82-.28,1.947,1.947,0,0,1,.64.14,1.211,1.211,0,0,0,.46.1.5.5,0,0,0,.56-.5c0-.44-.26-.62-.72-.82a6.07,6.07,0,0,0-2.34-.4,6.6,6.6,0,0,0-2.44.48,4.612,4.612,0,0,0-1.34.82.315.315,0,0,0-.14.26.2.2,0,0,0,.2.16.9.9,0,0,0,.22-.06,7.668,7.668,0,0,1,2.54-.68A10.379,10.379,0,0,1,84.72,121.56Zm16.56,1.8c1.1-1.06,2.12-2.06,3.04-3.02,1.26-1.3,2.12-2.14,3.06-3.12a3.078,3.078,0,0,1,.9-.54c.24-.12.34-.24.34-.44a.766.766,0,0,0-.26-.58,6.61,6.61,0,0,0-1.3-.96.989.989,0,0,0-.54-.14.663.663,0,0,0-.5.2,1.256,1.256,0,0,1-.54.34c-.46.14-1.2.38-1.72.54a9.648,9.648,0,0,1-1.66.38c-.36,0-.66-.18-1.16-.92-.1-.16-.18-.22-.26-.22-.06,0-.16.08-.2.22a1.6,1.6,0,0,0-.06.52,2.6,2.6,0,0,0,.72,1.42,1.16,1.16,0,0,0,.86.48,1.1,1.1,0,0,0,.64-.3,4.849,4.849,0,0,1,1-.5c.96-.4,2.2-.9,2.54-1a1,1,0,0,1,.32-.06.162.162,0,0,1,.18.14.441.441,0,0,1-.12.3c-1.32,1.68-2.22,2.76-3.48,4.16-1.3,1.46-2.54,2.7-3.62,3.82-.32.32-.64.56-.76.68a1.309,1.309,0,0,0-.5.98c0,.46.26.9.64.9a.773.773,0,0,0,.62-.42,9.831,9.831,0,0,1,1.18-1.36c1.76-1.62,3.72-2.98,6-2.98a3.959,3.959,0,0,1,2.44.68,2.633,2.633,0,0,1,1.02,2.18,4.334,4.334,0,0,1-2.56,3.76,15.027,15.027,0,0,1-5.58,1.6c-.28.04-.4.14-.4.32,0,.14.08.24.3.26a5.119,5.119,0,0,0,.66.02,15.6,15.6,0,0,0,6.26-1.44c1.78-.96,2.92-2.28,2.92-4.22a3.675,3.675,0,0,0-1.94-3.2,5.582,5.582,0,0,0-2.82-.72,8.742,8.742,0,0,0-5.62,2.3Zm27.3-7.2c-.58.38-1.18.78-1.68,1.12-.14.1-.2.16-.2.24s.08.22.18.22a.6.6,0,0,0,.28-.08c.46-.2,1.2-.56,1.64-.72a3.975,3.975,0,0,1,1.4-.3c.42,0,.74.02.94.02.34,0,.62-.14.62-.48a.755.755,0,0,0-.48-.76,3.278,3.278,0,0,0-1.7-.26,3.519,3.519,0,0,1-2.94-1.06.243.243,0,0,0-.2-.1.183.183,0,0,0-.16.2.53.53,0,0,0,.06.2A3.226,3.226,0,0,0,128.58,116.16Zm1.26,2.94a6.827,6.827,0,0,0-3.18,1.06,3.891,3.891,0,0,1-1.3.5.438.438,0,0,1-.38-.24,2.513,2.513,0,0,1-.26-.62.155.155,0,0,0-.16-.14.416.416,0,0,0-.24.22,1.711,1.711,0,0,0-.1.6,2.3,2.3,0,0,0,.56,1.26,1.475,1.475,0,0,0,.92.56c.26,0,.44-.16.98-.74a4.733,4.733,0,0,1,3-1.66,1.705,1.705,0,0,1,1.52.84,4.629,4.629,0,0,1,.54,2.32,6.816,6.816,0,0,1-1.46,4.34,10.021,10.021,0,0,1-3.82,2.9c-.16.08-.28.16-.28.28,0,.16.08.24.2.24a1.887,1.887,0,0,0,.6-.12,10.04,10.04,0,0,0,4.58-2.9,6.667,6.667,0,0,0,1.74-4.42,4.816,4.816,0,0,0-.8-2.86A3.076,3.076,0,0,0,129.84,119.1Zm23.2-4.86c-2.86,0-4.58,2.28-4.58,3.66,0,.64.28.8.68.8.66,0,1.42-.42,1.42-1a3.242,3.242,0,0,1,.32-1.72,2.23,2.23,0,0,1,2.08-1.1c1.76,0,2.56,1.36,2.56,3.02,0,1.72-1.14,2.76-2.06,3.92a5.891,5.891,0,0,0-1.26,4.1q0,.24.18.24c.42,0,.6-.14.6-.36a3.411,3.411,0,0,1,1.36-3.36c1.28-1.08,3.06-2.22,3.06-4.46C157.4,115.86,155.86,114.24,153.04,114.24Zm-.48,13.86a1.235,1.235,0,0,0-1.26,1.28,1.25,1.25,0,0,0,2.5,0A1.243,1.243,0,0,0,152.56,128.1Z" transform="translate(-0.543 17.06)"/>
</svg>
