<svg xmlns="http://www.w3.org/2000/svg" width="336.72" height="36.96" viewBox="0 0 336.72 36.96">
  <path id="パス_3340" data-name="パス 3340" d="M-152.12-5.08A32.288,32.288,0,0,1-143.8-.24a3.373,3.373,0,0,0,1.84.84,1.388,1.388,0,0,0,1.2-1.6,2.577,2.577,0,0,0-1.44-2,35.027,35.027,0,0,0-9.96-4.28,127.088,127.088,0,0,1-.72-13.16,3.46,3.46,0,0,0,2.28.72,15.348,15.348,0,0,0,3.36-.6,32.653,32.653,0,0,0,3.44-1.08c.6-.24,1-.52,1-1.24,0-.8-.92-1.28-2.32-1.28a2.819,2.819,0,0,0-1.96.8,8.412,8.412,0,0,1-2.56,1.16,10.041,10.041,0,0,1-2.28.52c-.6,0-.92-.04-.92-.56,0-.68.08-2.24.16-3.2a1.834,1.834,0,0,1,.56-1.32,1.322,1.322,0,0,0,.44-.96c0-.72-.52-1.12-1.4-1.8a5.985,5.985,0,0,0-3.2-1.24,3.428,3.428,0,0,0-1.72.6.485.485,0,0,0-.28.48c0,.24.16.32.4.36s.44.04.84.12a2.343,2.343,0,0,1,1.44.88c.32.4.36.92.36,2.28.04,6.52.24,11.8.56,18.08a24.583,24.583,0,0,0-3.4-.24c-3.72,0-7.32,1.36-7.32,4.52,0,3.2,3.2,4.36,6.64,4.36,3.36,0,6.64-1.16,6.64-5.32Zm-2.56-.68c0,1.48-.12,2.6-.92,3.4a4.884,4.884,0,0,1-3.8,1.28c-3.08,0-4.6-.64-4.6-2.4,0-2,2.72-2.72,5.84-2.72A16.8,16.8,0,0,1-154.68-5.76Zm52.92-25.84c-.56,0-1,.2-1,.44,0,.16.12.2.48.48.96.68,1.52,1.28,1.52,1.72,0,.52-.36,1.08-1.12,2-1.44,1.72-2.72,3.16-3.84,4.4-2.04,2.32-3.44,3.88-4.56,5.24a2.974,2.974,0,0,0-.92,2.2,3.76,3.76,0,0,0,1.48,2.6c4.48,4.12,8.2,8,10.72,12.44.68,1.2,1.12,1.68,1.76,1.68.84,0,1.56-.68,1.56-2,0-1-.6-2-2.04-3.76a65,65,0,0,0-9-8.56c-.72-.6-1.36-1.16-1.76-1.52-.48-.48-.68-.8-.68-1.16a1.517,1.517,0,0,1,.52-1c1.36-1.56,3.32-3.56,5.16-5.36,1.48-1.4,3.04-2.76,4.24-3.76a4.952,4.952,0,0,1,1.4-.84,1.372,1.372,0,0,0,.92-1.28c0-.64-.56-1.32-1.4-2.2A5.822,5.822,0,0,0-101.76-31.6Zm56.6,13.28a2.969,2.969,0,0,0,.12-.64,1.555,1.555,0,0,0-.52-.92,4.185,4.185,0,0,0-2.96-1.56c-.52,0-.88.2-.88.4,0,.12.08.28.36.4a1.881,1.881,0,0,1,1.32,1.56,1.658,1.658,0,0,1-.12.64,28.941,28.941,0,0,0-6.76,1.32,43.859,43.859,0,0,1,.76-5.76c2.04-.36,3.76-.76,5.4-1.2a26.189,26.189,0,0,0,4.32-1.48c.56-.28.8-.56.8-1.08,0-.72-.8-1.12-1.56-1.12a5.078,5.078,0,0,0-2,.52,31.927,31.927,0,0,1-6.44,2.2c.44-2,.68-2.68,1.16-3a1.144,1.144,0,0,0,.6-1c0-.68-.72-1.32-1.4-1.76a5.65,5.65,0,0,0-2.68-.92,4.3,4.3,0,0,0-1.6.24c-.24.08-.52.28-.52.48a.429.429,0,0,0,.4.4,4.878,4.878,0,0,1,1.2.32c.8.4,1.04.6,1.04,1.4,0,.4-.08.92-.12,1.4-.12,1-.24,1.72-.4,2.84a21.147,21.147,0,0,1-3.2.28,5.076,5.076,0,0,1-4.24-1.56.934.934,0,0,0-.56-.28.3.3,0,0,0-.28.28,2.334,2.334,0,0,0,.4,1,5.383,5.383,0,0,0,4.92,2.48,23.554,23.554,0,0,0,2.64-.16c-.28,2.08-.48,3.96-.6,6.28a23.461,23.461,0,0,0-4.64,2.8C-63.88-11.44-66-8.28-66-5.44c0,1.92.76,3.4,2.92,3.4,1.88,0,4.88-1.6,7.6-3.8a5.936,5.936,0,0,0,.68,1.32c.48.64.88,1,1.36,1a.976.976,0,0,0,1.08-.92,2.889,2.889,0,0,0-.28-1.12c-.28-.6-.56-1.16-.88-2a47.869,47.869,0,0,0,7.8-9.68,7.7,7.7,0,0,1,4.6,1.88c1.28,1.2,1.92,2.52,1.92,5.04,0,3.28-2.92,6.24-5.48,7.68A27.182,27.182,0,0,1-53.2.24q-.6.12-.6.6c0,.28.24.48.68.48a33.329,33.329,0,0,0,9.2-2.08c4.48-1.72,7.8-5.16,7.8-8.92a7.279,7.279,0,0,0-3.08-6.24A11.731,11.731,0,0,0-45.16-18.32Zm-9.56,2.64A23.741,23.741,0,0,1-48.2-17.2a33.392,33.392,0,0,1-6,7.92A23.714,23.714,0,0,1-54.72-15.68Zm-1.32,8c-2.68,1.96-4.6,3.16-6.56,3.16-.68,0-1.08-.4-1.08-1.68,0-3.32,4.04-6.96,7.04-8.56A30.083,30.083,0,0,0-56.04-7.68Zm50.16-5.96c1.6-1.8,3.76-3.88,5.24-5.6,2.36-2.76,4-4.48,5.32-5.8.88-.88,1.24-1.08,1.64-1.16.72-.16,1.04-.44,1.04-.84,0-.64-.4-1.16-1.2-1.72A5.606,5.606,0,0,0,3.64-30a1.278,1.278,0,0,0-.92.4,2.543,2.543,0,0,1-1.2.72c-1.8.6-3.48,1.08-5.28,1.52a9.622,9.622,0,0,1-2.08.28c-.68,0-1.24-.4-2.12-1.56-.2-.28-.36-.44-.52-.44-.24,0-.48.44-.48.84a4.54,4.54,0,0,0,1.44,2.92,3.205,3.205,0,0,0,2,1.16,1.5,1.5,0,0,0,1.08-.44,2.942,2.942,0,0,1,1.36-.84c1.6-.64,3.64-1.4,5.44-2a3.591,3.591,0,0,1,.76-.2c.16,0,.28.08,0,.44-2,2.64-3.64,4.64-5.36,6.76-2.88,3.52-6.2,6.96-9.28,10.28a2.015,2.015,0,0,0-.68,1.44,1.489,1.489,0,0,0,1.44,1.56,1.306,1.306,0,0,0,1-.52A31.378,31.378,0,0,1-6.64-11.2,12.781,12.781,0,0,1,2.4-15.28c3.4,0,6.32,1.92,6.32,6.36A7.158,7.158,0,0,1,3.68-2c-.6-1.84-3-5.12-6.72-5.12-2.2,0-4,1.16-4,3.32C-7.04-1.08-3.96.72.4.72c5.88,0,11.32-3.4,11.32-9.44,0-4.32-3.24-8-9.12-8a13.78,13.78,0,0,0-8.4,3.16ZM1.2-1.4a8.117,8.117,0,0,1-1.6.12c-3.2,0-5.32-1.12-5.32-2.76a1.944,1.944,0,0,1,2.2-1.84C-1.56-5.88.6-3.68,1.2-1.4Zm47-21.2c-1.44,1.28-3.2,2.8-4.08,3.6a1.5,1.5,0,0,0-.44.64.613.613,0,0,0,.44.44,2.138,2.138,0,0,0,.88-.36c2.2-1.6,4.88-3.44,6.6-3.96a26.5,26.5,0,0,1,5.56-.96c1.36-.12,1.84-.52,1.84-1.28,0-.72-.32-1.24-1.32-1.56a5.144,5.144,0,0,0-1.44-.2,4.847,4.847,0,0,0-1.16.28,23.234,23.234,0,0,1-3.56.8,26.929,26.929,0,0,1-3.8.36,15.8,15.8,0,0,1-2.96-.24,7.645,7.645,0,0,1-2.68-1.04.942.942,0,0,0-.52-.2.436.436,0,0,0-.4.44.7.7,0,0,0,.16.48,6.161,6.161,0,0,0,2.52,1.96A10.605,10.605,0,0,0,48.2-22.6Zm-7.44,9.08a.667.667,0,0,0-.52.4,6.522,6.522,0,0,0-1.08,3.84c0,2.72,1.52,4.88,4.36,6.08a19.345,19.345,0,0,0,7.56,1.28A60.485,60.485,0,0,0,60-2.56c1.44-.2,2.28-.6,2.28-1.64S61.2-5.92,59.72-5.92a7.637,7.637,0,0,0-2.44.36,23.827,23.827,0,0,1-6.84.84c-3.16,0-5.48-.36-7.24-1.32-1.88-1.04-2.56-2.12-2.56-3.92a7.047,7.047,0,0,1,.48-2.64,1.57,1.57,0,0,0,.12-.56C41.24-13.36,41-13.52,40.76-13.52ZM59.64-30.24a.411.411,0,0,0-.44.4.62.62,0,0,0,.28.4,13.842,13.842,0,0,1,3.36,3.84q.54,1.08,1.32,1.08a1.113,1.113,0,0,0,1.12-1.2c0-.84-.56-1.56-1.52-2.4a9,9,0,0,0-3.48-2A2.275,2.275,0,0,0,59.64-30.24Zm3.24-2.72a.4.4,0,0,0-.4.4.482.482,0,0,0,.28.4,12.2,12.2,0,0,1,3.68,3.76c.44.76.76.96,1.28.96a1.136,1.136,0,0,0,1.08-1.28c0-.92-.88-1.84-1.84-2.52a9.446,9.446,0,0,0-3.2-1.56A5.223,5.223,0,0,0,62.88-32.96Zm27.16,6.6c.04-.56.04-1.16.04-1.8V-29a31.261,31.261,0,0,0,8.72-1.68c1.44.32,1.84.12,1.84-.2,0-.4-.56-.92-2.96-2.52a8.034,8.034,0,0,1-1.92,1.44,24.576,24.576,0,0,1-5.56,2.08,17.066,17.066,0,0,0-2.84-1.4,23.368,23.368,0,0,1,.16,3.24,23.929,23.929,0,0,1-.44,4.88,10.874,10.874,0,0,1-2.92,5.48c-.16.16.2.56.4.44a9.893,9.893,0,0,0,4.52-4.8,11.527,11.527,0,0,0,.88-3.32h4.52v2c0,1.68-.04,2.48-.04,2.72,0,.68.28.92,1.04.92,1.16,0,1.68-.32,1.68-1.12,0-.28-.08-1.24-.08-2.48v-2.04h4.96c.4,0,.56-.12.56-.4,0-.24-.24-.56-.8-1-1.4-1.12-1.68-1.32-1.96-1.32-.24,0-.52.2-1.72,1.72Zm20.64,1c.04.68.04,1.24.04,1.72,0,1.56-.12,2.52-.12,2.72,0,.68.32.96,1.08.96h.08c-.24.08-.56.4-1.48,1.36H94.2a19.135,19.135,0,0,0-3.44-1.6c.16,2.04.2,3.8.2,7.16,0,6.36-.16,8.16-.16,9.28,0,.8.28,1.08,1.24,1.08,1.2,0,1.76-.36,1.76-1.2h16.8v.28c0,.68.36.92,1.16.92,1.28,0,1.84-.36,1.84-1.2,0-.88-.12-3.68-.12-9.6v-3.2c.88-.64,1.08-.88,1.08-1.16,0-.24-.2-.44-.8-.96-1.04-.84-1.4-1.12-1.64-1.16.88-.08,1.24-.44,1.24-1.12,0-.32-.08-1.48-.08-2.64v-1.64h7.04c.4,0,.52-.12.52-.4,0-.24-.2-.56-.84-1.08-1.6-1.28-1.88-1.44-2.12-1.44-.28,0-.56.16-1.96,1.92h-9.76c.04-.48.08-1,.08-1.6v-.96a35.509,35.509,0,0,0,9.04-1.76c1.4.32,1.84.12,1.84-.2,0-.4-.6-.92-2.96-2.52a8.136,8.136,0,0,1-1.84,1.36,45.9,45.9,0,0,1-5.92,2.24,19.345,19.345,0,0,0-2.88-1.44c.12,1.52.16,2,.16,2.96a17.34,17.34,0,0,1-.4,4.2,9.335,9.335,0,0,1-2.6,4.28c-.16.16.08.44.28.36a8.753,8.753,0,0,0,4.4-3.8,6.943,6.943,0,0,0,.68-2.12ZM93.8-13.12h16.8v3.4H93.8Zm16.8-1H93.8V-17.6h16.8ZM93.8-8.72h16.8v3.84H93.8ZM115,3.56a1.4,1.4,0,0,0,1.36-1.48c0-2.4-3.84-4.04-11.16-4.52-.2,0-.32.36-.12.44a22.1,22.1,0,0,1,8.04,4.48C113.96,3.28,114.4,3.56,115,3.56Zm-29.68-.4A30.947,30.947,0,0,0,97.56-.16C99-.04,99.6-.2,99.6-.64s-1.2-1.24-3.56-2.44A11.082,11.082,0,0,1,93.4-.88a31.211,31.211,0,0,1-8.2,3.52C84.96,2.72,85.08,3.2,85.32,3.16Zm63.24-8.12h9.36v1.52c0,.76.32,1.04,1.2,1.04,1.08,0,1.68-.36,1.68-1.24,0-.56-.08-2.56-.08-6.56v-2c.88-.6,1.04-.76,1.04-1.12,0-.24-.12-.44-.68-.92-1.24-1.04-1.44-1.16-1.72-1.16-.24,0-.48.12-1.64,1.4h-8.84a20.705,20.705,0,0,0-3.28-1.6c.2,2.16.2,3.88.2,6.64,0,4.2-.12,5.48-.12,6.16s.32.96,1.24.96c1.12,0,1.64-.36,1.64-1.28Zm9.36-1h-9.36V-13h9.36Zm.48-13.92h8.92V-.92c0,.48-.12.64-.6.64-1.32,0-2.24-.08-5.04-.28-.2,0-.2.44,0,.48,3.28.76,4.04,1.2,4.2,2.48.08.48.24.56.68.56A4.181,4.181,0,0,0,169,2.32a2.518,2.518,0,0,0,1.28-2.44c0-1.08-.04-1.96-.04-20.4v-8.96c.88-.52,1.08-.72,1.08-1.04,0-.28-.16-.48-.8-1-1.32-1.12-1.52-1.28-1.8-1.28-.24,0-.44.16-1.68,1.48h-8.28a24.366,24.366,0,0,0-3.24-1.6,53.268,53.268,0,0,1,.16,5.52c0,5.28-.08,6.96-.08,8.12,0,.72.36,1,1.2,1,1.08,0,1.6-.36,1.6-1.2Zm0-5.36h8.92v4.36H158.4Zm8.92-1H158.4v-4.08h8.92Zm-27.48,6.36h8.44v.56c0,.68.32,1,1.12,1,1.12,0,1.76-.36,1.76-1.2,0-.64-.12-2.84-.12-7.48v-2.52c.88-.52,1.08-.8,1.08-1.08,0-.24-.16-.48-.76-.96-1.28-1.08-1.48-1.24-1.76-1.24-.24,0-.44.16-1.64,1.48h-7.84a18.94,18.94,0,0,0-3.4-1.6c.2,3.72.24,7.68.24,15.8,0,11.92-.2,16.64-.2,19.28,0,.72.36,1.04,1.28,1.04,1.24,0,1.84-.4,1.84-1.24,0-3.12-.04-7-.04-19.96Zm0-5.36h8.44v4.36h-8.44Zm8.44-1h-8.44v-4.08h8.44Z" transform="translate(165.4 33.4)"/>
</svg>
