<svg xmlns="http://www.w3.org/2000/svg" width="618.762" height="33.64" viewBox="0 0 618.762 33.64">
  <path id="パス_3311" data-name="パス 3311" d="M-307.28-8.4c0,2.64.04,4.4-.4,5.24-.48.76-1.64.88-3,1-.28.04-.36.12-.36.52s.08.52.36.52c1.48-.12,3.16-.16,4.92-.16,2.36,0,5.2.24,7.52.24,11,0,16.72-6.2,16.72-14.72,0-8.44-5.48-14.12-16.4-14.12-2.6,0-5.96.24-7.92.24-1.76,0-3.44-.04-5.08-.16-.28,0-.36.12-.36.6s.08.48.36.52c1.52.16,2.8.2,3.24.92.4.84.4,1.36.4,5.12Zm3.76-14.24c0-2.32-.04-4,.52-4.8.52-.8,2.2-1.04,4.96-1.04,7.84,0,12.24,5.04,12.24,12.88,0,7.8-4.12,13.2-12.52,13.2-2.12,0-3.8-.24-4.56-1.2-.68-.84-.64-2.56-.64-4.8Zm61.64-6.72a10.044,10.044,0,0,1-4.4-.4,18.74,18.74,0,0,0-4.92-.68c-9,0-15.12,6.6-15.12,14.96,0,8.52,5.72,15,15,15,4.48,0,6.76-1.08,8.8-1.08a19.222,19.222,0,0,1,2.08.12c.24.04.4-.08.4-.24a54.423,54.423,0,0,1-.24-5.8c0-2.12.04-3.8.52-4.72.48-.84,1.16-.84,2.52-1,.28-.04.36-.12.36-.56,0-.4-.08-.48-.36-.48-1.68.08-3.12.16-4.8.16-1.56,0-3.56-.08-5.2-.16-.28,0-.36.08-.36.48,0,.48.08.52.36.56,1.52.16,2.64.2,3.08,1,.44.88.48,1.28.48,5.28a17.868,17.868,0,0,1-.2,2.68,9.987,9.987,0,0,1-6.76,2.32c-6.6,0-11.28-5.6-11.28-13.64,0-7.92,4.72-13.52,10.72-13.52a9.038,9.038,0,0,1,5.52,1.8,11.073,11.073,0,0,1,3.44,4.72c.08.24.2.36.6.24.44-.04.48-.2.44-.48C-241.52-24.88-241.76-27.32-241.88-29.36Zm42.72,0a9.1,9.1,0,0,1-4.44-.44,20.113,20.113,0,0,0-4.88-.6c-8.48,0-14.6,6.24-14.6,14.92,0,8.88,6.08,15,14.48,15,5.76,0,9.2-3,11.48-7.12a.468.468,0,0,0-.28-.72c-.48-.24-.64-.16-.8.04-2.32,3.68-5.28,5.52-9.84,5.52-6.16,0-10.6-5.56-10.6-12.8,0-8.16,4.36-13.48,10.32-13.48a9.384,9.384,0,0,1,5.36,1.72,12.5,12.5,0,0,1,3.4,4.8.473.473,0,0,0,.64.28c.32-.08.44-.2.4-.48C-198.76-24.8-199-27.28-199.16-29.36Zm40.52-.04a5.04,5.04,0,0,0-1.48.44,12.111,12.111,0,0,1-2,.48,45.616,45.616,0,0,1-4.6.64,39.941,39.941,0,0,1-4.04.24A4.214,4.214,0,0,1-174-28.8c-.24-.24-.4-.36-.56-.36s-.24.2-.24.52a2.918,2.918,0,0,0,1.12,2.08,3.4,3.4,0,0,0,2.52,1.16c.4,0,1.88-.12,2.68-.2,2.76-.24,6.16-.52,8.96-.76,1.04-.12,1.84-.12,2.6-.16.8-.04,1.24-.48,1.24-.96a1.271,1.271,0,0,0-.72-1.28A4.807,4.807,0,0,0-158.64-29.4Zm-7.12,11.2a1.778,1.778,0,0,1,.52,1.32,6.869,6.869,0,0,1-.28,1.64,26.105,26.105,0,0,1-3.24,7.6,32.821,32.821,0,0,1-6.4,7.48c-.48.4-.6.64-.6.88a.509.509,0,0,0,.56.48,1.15,1.15,0,0,0,.6-.2,25.661,25.661,0,0,0,7.88-7.2,24.764,24.764,0,0,0,4.16-8.44,3.739,3.739,0,0,1,.56-1.2,1.161,1.161,0,0,0,.24-.64c0-.6-.84-1.32-1.84-1.88,1.84-.12,4.12-.2,5.84-.2a41.863,41.863,0,0,1,4.48.08,23.938,23.938,0,0,0,2.56.16.882.882,0,0,0,.92-.92,1.468,1.468,0,0,0-.84-1.28,6.816,6.816,0,0,0-3.16-.96,3.354,3.354,0,0,0-1.28.32,4.513,4.513,0,0,1-1.44.36c-2.8.28-5.52.48-8.52.68-3.68.28-6.28.56-9.36.92-.88.08-1.6.16-2.32.16a4.317,4.317,0,0,1-2.68-1.24c-.36-.28-.56-.44-.68-.44-.2,0-.36.32-.36.8a3.242,3.242,0,0,0,1.2,2.12,4.245,4.245,0,0,0,2.52,1.56,1.8,1.8,0,0,0,.96-.24,8.625,8.625,0,0,1,2.88-.84A66.561,66.561,0,0,1-165.76-18.2Zm50.68-4.52a5.847,5.847,0,0,0,2.08.52,14.315,14.315,0,0,0,2.36-.32c1.56-.32,3.76-.72,4.36-.76a.183.183,0,0,1,.2.16,1.237,1.237,0,0,1-.08.32,55.572,55.572,0,0,1-7.56,11.72A51.913,51.913,0,0,1-126.12-.36c-.36.24-.52.4-.52.64a.556.556,0,0,0,.48.52,1.956,1.956,0,0,0,.76-.2A41.731,41.731,0,0,0-111.88-9.44a61.546,61.546,0,0,0,8.08-11.32,2.239,2.239,0,0,1,1.28-1.16c.52-.24.92-.52.92-1.04,0-.64-.6-1.2-1.52-1.92a4.2,4.2,0,0,0-2.04-1.08,1.305,1.305,0,0,0-.92.48,1.745,1.745,0,0,1-.92.52c-1.36.24-2.6.44-4.4.72a15.176,15.176,0,0,1-2.28.24,2.281,2.281,0,0,1-.52-.04c1.12-1.52,1.32-1.8,1.72-2.04a1.382,1.382,0,0,0,.8-1.16c0-.6-.4-1.08-1.36-1.72a7.411,7.411,0,0,0-3.04-1.4c-.72,0-1.44.28-1.44.48s.24.28.52.44c1.04.6,1.44,1.12,1.44,1.56a6.382,6.382,0,0,1-.92,2.32,47.482,47.482,0,0,1-3.6,5.28A50.859,50.859,0,0,1-125.84-14c-.56.52-.92.92-.92,1.2a.5.5,0,0,0,.52.56,1.346,1.346,0,0,0,.76-.28,36.305,36.305,0,0,0,5.76-4.76A50.232,50.232,0,0,0-115.08-22.72Zm53.24-5.96c-.4,0-1.44.36-1.44.72,0,.2.12.32.36.4a7.165,7.165,0,0,1,1.36.68c.72.44.88.76.88,1.28a5.3,5.3,0,0,1-.52,2.08,54.3,54.3,0,0,1-5.84,10.64A49.854,49.854,0,0,1-78.24-1.44c-.4.28-.64.44-.64.76a.533.533,0,0,0,.48.56,1.8,1.8,0,0,0,.8-.24A38.039,38.039,0,0,0-65.36-10.8,54.475,54.475,0,0,0-58.4-22.08c.44-.88.72-1.36,1.28-1.64a1.348,1.348,0,0,0,.84-1.2c0-.88-.6-1.52-2.36-2.64A7.514,7.514,0,0,0-61.84-28.68Zm40.08,6.24a9.649,9.649,0,0,0-4.2-2c-.6,0-1.2.32-1.2.6,0,.2.24.32.52.48a3.7,3.7,0,0,1,2.12,3.48c.28,4.48.6,9.12.88,14,.08,1.28.68,2,1.52,2q1.02,0,1.08-1.32A11.271,11.271,0,0,0-21-6.44c4.48-.28,7.76-.4,11.08-.4,1.28,0,2.8.08,3.68.08a6.459,6.459,0,0,0,1.32-.12.816.816,0,0,0,.68-.92.947.947,0,0,0-.52-.84,4.129,4.129,0,0,0-1.68-.44c.96-4.16,1.72-7.36,2.4-10.08.28-1.16.48-1.48.76-1.64.44-.24.76-.44.76-.96,0-.48-.44-.92-1.72-1.96A2.786,2.786,0,0,0-6-24.52c-.24,0-.56.2-1.04.64a2.714,2.714,0,0,1-1.72.6C-12.48-23.08-17.8-22.76-21.76-22.44Zm14.44.92c.16,0,.24.04.24.2a5.75,5.75,0,0,1-.04.72c-.48,3.48-1,7.56-1.68,11.8-3.44.16-7.88.36-12.32.64-.24-4.56-.4-8.28-.56-12.44,4.72-.44,9.72-.76,13.64-.92Zm35.48-5.8c-.44,0-.76.2-.76.4,0,.24.12.36.36.52a13.032,13.032,0,0,1,3.76,3.8c.64,1.08.96,1.52,1.6,1.52a1.764,1.764,0,0,0,1.64-1.96c0-1.2-.88-2.2-2.36-2.96A10.726,10.726,0,0,0,28.16-27.32ZM31.24-2.68A87.482,87.482,0,0,0,42.6-11.04c3.68-3.24,6.76-6.12,8.88-9.2a1.326,1.326,0,0,0,.36-.84c0-.24-.32-.48-.6-.48-.2,0-.48.36-.92.76a108.58,108.58,0,0,1-9.24,8.04A90.294,90.294,0,0,1,29.92-5.52a4.438,4.438,0,0,1-2,.68c-.68,0-1.48-.92-1.96-1.48-.28-.36-.56-.72-.76-.72-.28,0-.48.56-.48,1.2a5.642,5.642,0,0,0,1.8,3.24c1.24,1.32,1.76,1.56,2.44,1.56a1.837,1.837,0,0,0,1.32-.8A2.992,2.992,0,0,1,31.24-2.68ZM23.36-19.04c-.68,0-.96.2-.96.44s.12.4.4.56a13.379,13.379,0,0,1,4.04,3.52c.56.72,1.04,1.24,1.52,1.24a1.623,1.623,0,0,0,1.68-1.84c0-1.28-1-2.24-2.96-3A12.863,12.863,0,0,0,23.36-19.04Zm22-10.68a.411.411,0,0,0-.44.4.62.62,0,0,0,.28.4,13.842,13.842,0,0,1,3.36,3.84Q49.1-24,49.88-24A1.113,1.113,0,0,0,51-25.2c0-.84-.56-1.56-1.52-2.4a9,9,0,0,0-3.48-2A2.275,2.275,0,0,0,45.36-29.72Zm3.24-2.72a.4.4,0,0,0-.4.4.482.482,0,0,0,.28.4,12.2,12.2,0,0,1,3.68,3.76c.44.76.76.96,1.28.96a1.136,1.136,0,0,0,1.08-1.28c0-.92-.88-1.84-1.84-2.52a9.446,9.446,0,0,0-3.2-1.56A5.223,5.223,0,0,0,48.6-32.44ZM77.48-12.52a8.375,8.375,0,0,1,2.76-.6c5.24-.44,12.32-.68,15.88-.68,1.96,0,4.12.16,5.64.16.88,0,1.4-.4,1.4-1.2,0-.72-.24-1.16-2.12-1.88a5.309,5.309,0,0,0-1.64-.36,2.979,2.979,0,0,0-1.24.28,5.22,5.22,0,0,1-2.44.48c-3.4.12-8.8.32-14.24.64-2.72.16-4.24.24-5.08.24-.92,0-1.48-.28-2.88-1.64-.28-.28-.44-.48-.64-.48-.28,0-.36.48-.36,1a4.075,4.075,0,0,0,.92,2.08c1.04,1.44,2,2.32,2.8,2.32A2.078,2.078,0,0,0,77.48-12.52ZM143.32-23a32.746,32.746,0,0,0-3.04,3.36.737.737,0,0,0-.24.52.469.469,0,0,0,.4.36.61.61,0,0,0,.48-.24c1.88-1.72,3.16-2.8,4.24-3.2a6.834,6.834,0,0,1,2.56-.44c.64,0,1.72.12,2.28.12,1.04,0,1.6-.2,1.6-1.2,0-.88-.56-1.76-3.32-1.76a22.933,22.933,0,0,0-6.04.76,21.232,21.232,0,0,0-5.4,2.4c-.32.2-.48.36-.48.64a.453.453,0,0,0,.48.44,1.715,1.715,0,0,0,.6-.2,27.316,27.316,0,0,1,5.6-1.76C143.4-23.28,143.44-23.12,143.32-23ZM135.68-9.84a6.106,6.106,0,0,0,2,4.68c2.4,2.16,6.32,2.4,9.64,2.4a22.292,22.292,0,0,0,5.56-.52,1.2,1.2,0,0,0,1-1.2,1.571,1.571,0,0,0-1.08-1.36,5.855,5.855,0,0,0-1.64-.32,6.331,6.331,0,0,0-1.52.2,11.586,11.586,0,0,1-1.48.32,18.776,18.776,0,0,1-2.84.16c-2.32,0-5.2-.24-6.84-1.64A4.524,4.524,0,0,1,137-10.88a13.4,13.4,0,0,1,.4-2.64c0-.24-.2-.36-.44-.36-.2,0-.32.12-.48.4A8.961,8.961,0,0,0,135.68-9.84Zm-4.28-4.8c-.96,2.48-1.92,5.08-2.84,7.44-.08.2-.2.28-.28.28-.12,0-.24-.08-.28-.28a13.408,13.408,0,0,1-.28-3.24,32.8,32.8,0,0,1,2-10.32,6.231,6.231,0,0,1,.92-1.76,1.765,1.765,0,0,0,.56-1.32,5.122,5.122,0,0,0-1.08-2.76c-.76-1.08-1.96-2.12-2.92-2.12a.323.323,0,0,0-.36.28.54.54,0,0,0,.2.4,4.074,4.074,0,0,1,1.2,2.84,17.029,17.029,0,0,1-.6,3.28,53.089,53.089,0,0,0-1.8,11.76,21.87,21.87,0,0,0,1.32,7.56c.6,1.44,1.12,1.88,1.84,1.88.52,0,.96-.32.96-1.12,0-.56-.12-1.88-.12-2.6a12.1,12.1,0,0,1,.4-2.56c.36-1.56,1.12-4.08,2.08-7.28a1.761,1.761,0,0,0,.08-.4.511.511,0,0,0-.48-.44C131.72-15.12,131.52-15,131.4-14.64Zm63.76-10.08a19.939,19.939,0,0,0-8.36,2.08c-2.04.92-4.24,2.04-7.52,3.76a5.1,5.1,0,0,1-2.36.76,3.2,3.2,0,0,1-1.88-1.08c-.28-.28-.44-.44-.64-.44-.24,0-.48.36-.48.76a4.464,4.464,0,0,0,1.28,2.52,5.184,5.184,0,0,0,3.16,1.8c.6,0,.88-.28,1.28-.8a10.222,10.222,0,0,1,2.28-1.96A53.772,53.772,0,0,1,188-21.16a15.349,15.349,0,0,1,7.04-2c4.44,0,7.72,2.64,7.72,7.2,0,3.16-2.32,5.88-5.68,7.96a35.371,35.371,0,0,1-11.72,4.2c-.6.12-.84.32-.84.56a.681.681,0,0,0,.8.56c4.72-.28,10.28-1.44,14.4-3.76,3.52-2,6.12-4.72,6.12-8.88C205.84-21.4,200.76-24.72,195.16-24.72Zm52.76,2.44c-.28,0-.44.16-.44.36,0,.28.12.4.36.56a13.477,13.477,0,0,1,4.4,4.04,10.985,10.985,0,0,1,2,4.96c0,.6-.2.8-.8.92-.88.16-1.8.2-2.92.32-.4.04-.72.12-.72.32,0,.28.16.4.64.52.96.24,1.8.44,2.48.64a2.565,2.565,0,0,1,1.56,1.12,1.183,1.183,0,0,0,1.08.64,1.509,1.509,0,0,0,1.16-.64,3.872,3.872,0,0,0,.6-2.36,11.161,11.161,0,0,0-1.48-5.08,13.172,13.172,0,0,0-4.36-4.68A10.775,10.775,0,0,0,247.92-22.28ZM235.48-2.4c.92,0,1.36-.56,1.32-1.2a2.873,2.873,0,0,0-.4-1.16,2.022,2.022,0,0,1-.24-1,5.967,5.967,0,0,1,.56-1.96c.64-1.64,2.08-4.8,3.32-7.36a1.3,1.3,0,0,0,.16-.52.553.553,0,0,0-.48-.44,1.067,1.067,0,0,0-.68.52c-1.68,2.68-3.4,5.6-4.6,7.56-.36.56-.64.76-.96.76-.56,0-1.36-.72-2.08-2.52a16.77,16.77,0,0,1-.96-5.52,20.514,20.514,0,0,1,.6-5.72,3.643,3.643,0,0,0,.36-1.24,4.593,4.593,0,0,0-1.88-3.12,5.315,5.315,0,0,0-2.6-1.32c-.32,0-.64.04-.64.24,0,.12.04.2.28.4a4.212,4.212,0,0,1,1.6,2.6,43.488,43.488,0,0,1,.12,5.08,36.927,36.927,0,0,0,.48,6.64c.64,3.52,2.04,6.24,3.88,7.76A5.372,5.372,0,0,0,235.48-2.4Zm60.16-21.56a17.127,17.127,0,0,0-5.56,5.72,12.769,12.769,0,0,0-1.8,6.84,9.65,9.65,0,0,0,4.28,7.92,17.807,17.807,0,0,0,9.36,2.96c1.68,0,2.12-.48,2.12-1.16a1.82,1.82,0,0,0-1.08-1.72,5.329,5.329,0,0,0-2.76-.68,13.619,13.619,0,0,1-7.32-2.44,7.541,7.541,0,0,1-2.76-6,11.529,11.529,0,0,1,3.16-7.76A12.863,12.863,0,0,1,299.04-24a25.7,25.7,0,0,1,7.04-.88c1-.04,1.44-.4,1.4-1.24,0-.6-.52-1-1.08-1.24a6.449,6.449,0,0,0-2.6-.68,2.731,2.731,0,0,0-1.36.4,4.79,4.79,0,0,1-1.56.6C295-25.52,289-23.96,283.2-22.48a14.229,14.229,0,0,1-2.4.44,3.544,3.544,0,0,1-3-1.4.817.817,0,0,0-.52-.32c-.2,0-.36.44-.36,1a4.281,4.281,0,0,0,1.2,2.24c1.04,1.2,2,1.72,2.68,1.68a1.48,1.48,0,0,0,1.08-.4,5.541,5.541,0,0,1,1.72-.92c3.08-1.08,7.6-2.6,12-3.96Z" transform="translate(311.28 32.44)"/>
</svg>
