<svg xmlns="http://www.w3.org/2000/svg" width="287.86" height="106.518" viewBox="0 0 287.86 106.518">
  <g id="グループ_9865" data-name="グループ 9865" transform="translate(-57.64 -165.696)">
    <g id="グループ_712" data-name="グループ 712" transform="translate(25 18.635)">
      <path id="パス_4720" data-name="パス 4720" d="M20.7-20.376c-.792-2.7-1.116-3.744-.756-4.536.324-.72,1.008-.756,2.268-.9.288-.036.36-.072.36-.468,0-.468-.072-.54-.36-.54-1.4.108-2.916.18-4.356.18s-3.06-.072-4.536-.18c-.324,0-.36.072-.36.54,0,.4.072.432.36.468,1.3.108,1.836.216,2.448.9A9.17,9.17,0,0,1,16.92-22.14c-.36,1.224-.648,2.268-1.332,4.428L13.032-9.36c-.648,2.124-.9,3.024-1.224,4.032-.252-1.008-.468-1.908-1.116-4.1L7.6-20.34c-.648-2.268-1.044-3.78-.72-4.572.324-.72,1.4-.756,2.592-.9.216-.036.324-.072.324-.468,0-.468-.072-.54-.324-.54-1.44.108-3.636.18-5.04.18-1.476,0-2.952-.072-4.464-.18-.252,0-.324.072-.324.576,0,.36.072.4.324.432,1.368.144,1.908.288,2.448.936A16.185,16.185,0,0,1,4.176-20.34L7.884-7.56C8.712-4.788,9.216-2.88,9.756-.648a.263.263,0,0,0,.252.216,8.807,8.807,0,0,0,1.908-.828c.5-1.692.792-2.844,1.908-6.336l2.952-9.252c.4-1.224.684-2.232.936-3.132.252.9.5,1.944.864,3.24l2.772,9.18c.9,2.916,1.4,4.824,1.98,6.876a.3.3,0,0,0,.252.252,11.508,11.508,0,0,0,1.908-.828c.468-1.8.756-2.916,1.764-6.372l3.78-12.744c.612-2.088,1.044-3.672,1.656-4.428a3.811,3.811,0,0,1,2.448-1.008c.252-.036.36-.072.36-.468,0-.468-.108-.54-.36-.54-1.188.108-2.232.18-3.528.18-1.332,0-3.24-.108-4.5-.18-.252,0-.324.072-.324.54,0,.4.072.432.324.468,1.26.144,2.2.288,2.556,1.008a1.958,1.958,0,0,1,.18.972,15.569,15.569,0,0,1-.612,3.456L26.352-9.5c-.576,2.16-.792,3.132-1.08,4.176-.36-1.116-.576-1.944-1.26-4.1ZM47.988-10.44c3.168-.072,6.912-.036,10.44.072a.624.624,0,0,0,.576-.18.815.815,0,0,0,.18-.612,6.729,6.729,0,0,0-6.66-6.372c-4.644,0-7.884,3.96-7.884,8.676,0,4.86,3.2,8.424,7.92,8.424a6.828,6.828,0,0,0,6.264-3.456c.144-.216.18-.252.18-.36,0-.288-.468-.54-.612-.54a.367.367,0,0,0-.288.18,5.433,5.433,0,0,1-4.9,2.52c-2.376,0-5.328-2.376-5.328-6.948A10.046,10.046,0,0,1,47.988-10.44Zm.216-1.3c.648-2.844,2.2-4.752,4.32-4.752,2.232,0,3.2,2.16,3.384,4.068.036.324-.072.576-.36.576A71.412,71.412,0,0,1,48.2-11.736ZM95.8-6.264c0,2.088,0,3.168-.324,3.744-.252.576-.9.576-1.872.684-.252.036-.324.144-.324.432,0,.324.072.4.324.4,1.224-.072,2.664-.108,3.852-.108,1.044,0,2.376.036,3.564.108.216,0,.288-.072.288-.4,0-.288-.036-.4-.288-.432-1.044-.108-1.728-.144-2.052-.684-.288-.54-.252-1.584-.252-3.744V-19.3c0-3.456.072-6.156.144-8.712,0-.18-.216-.252-.4-.252a53.525,53.525,0,0,1-5.184,1.512c-.324.072-.4.108-.4.5.036.432.144.468.468.432l.936-.072a1.11,1.11,0,0,1,1.26.756,10.455,10.455,0,0,1,.252,2.952Zm25.632-11.268c-4.644,0-7.92,3.96-7.92,8.64,0,4.824,3.276,8.46,7.92,8.46,4.752,0,7.92-3.888,7.92-8.6C129.348-13.932,126.036-17.532,121.428-17.532Zm0,1.044c3.168,0,4.572,3.1,4.572,7.524,0,4.14-1.512,7.488-4.572,7.488-3.132,0-4.536-3.1-4.536-7.488C116.892-13.176,118.368-16.488,121.428-16.488Zm26.208,4.536c-.684-1.944-1.116-3.1-.9-3.564.252-.5,1.044-.576,1.98-.612.18,0,.252-.072.252-.432s-.072-.432-.288-.432c-1.224.072-2.844.108-3.96.108s-2.592-.036-3.78-.108c-.216,0-.288.072-.288.432s.072.4.288.432c.936.072,1.4.072,1.872.576a13.658,13.658,0,0,1,1.728,3.6l2.484,6.66c.756,1.908,1.152,3.132,1.62,4.644a.367.367,0,0,0,.288.18c.144,0,.288-.036,1.548-.612.5-1.512.828-2.412,1.584-4.248l2.52-6.624a11.642,11.642,0,0,1,1.764-3.384,2.563,2.563,0,0,1,1.764-.792c.288-.036.36-.072.36-.432s-.072-.432-.36-.432c-.9.072-1.908.108-2.916.108-.972,0-2.232-.036-3.24-.108-.216,0-.288.072-.288.432s.072.4.252.432c.972.108,1.692.18,1.944.648.288.5,0,1.764-.648,3.528l-1.692,4.68c-.432,1.26-.684,1.872-1.08,3.024-.36-1.116-.612-1.764-1.044-2.952Zm25.848,1.512c3.168-.072,6.912-.036,10.44.072a.624.624,0,0,0,.576-.18.815.815,0,0,0,.18-.612,6.729,6.729,0,0,0-6.66-6.372c-4.644,0-7.884,3.96-7.884,8.676,0,4.86,3.2,8.424,7.92,8.424a6.828,6.828,0,0,0,6.264-3.456c.144-.216.18-.252.18-.36,0-.288-.468-.54-.612-.54a.367.367,0,0,0-.288.18,5.433,5.433,0,0,1-4.9,2.52c-2.376,0-5.328-2.376-5.328-6.948A10.045,10.045,0,0,1,173.484-10.44Zm.216-1.3c.648-2.844,2.2-4.752,4.32-4.752,2.232,0,3.2,2.16,3.384,4.068.036.324-.072.576-.36.576A71.412,71.412,0,0,1,173.7-11.736ZM8.46,42.248a22.02,22.02,0,0,1,2.232-.072c2.3,0,4,.288,4.716.756A4.186,4.186,0,0,1,16.56,45.56c.072.216.108.4.54.4s.468-.144.468-.4c-.036-1.26-.108-2.736-.108-4.068,0-1.188.072-2.376.108-3.6,0-.288-.036-.36-.5-.36-.4,0-.432.108-.5.36a3.814,3.814,0,0,1-1.08,2.376c-.684.5-2.448.684-4.788.684-.684,0-1.656,0-2.232-.036V35.66c0-1.908-.036-3.564.36-4.284.468-.828,1.728-.9,3.06-.9,2.988,0,4.464.288,5.544,1.08a8.786,8.786,0,0,1,2.3,3.636c.072.216.18.324.54.252.432-.072.468-.216.432-.432-.252-1.836-.54-4-.684-5.832-3.132.18-6.156.18-9,.18-2.88,0-6.264-.036-9.288-.18-.216,0-.288.108-.288.576,0,.324.072.4.288.432,1.4.144,2.556.144,2.916.828.4.792.4,1.224.4,4.644V48.44c0,2.412,0,3.96-.432,4.752-.4.756-1.332.756-2.592.9-.252.036-.324.072-.324.468,0,.36.072.432.36.432,1.4-.108,3.168-.144,4.644-.144,1.512,0,3.492.036,5.04.144.288,0,.36-.072.36-.468,0-.36-.072-.4-.36-.432-1.368-.144-2.52-.18-2.916-.9-.36-.684-.36-1.188-.36-4.752Zm35.5,1.44c.036-2.736-.036-5.22-4.932-5.22-3.96,0-6.66,2.556-6.66,4.212,0,.684.324,1.044,1.116,1.044,1.44,0,2.484-.648,2.484-1.62a2.2,2.2,0,0,1,.612-1.836,2.866,2.866,0,0,1,2.2-.828c1.548,0,2.268,1.116,2.268,3.708v1.008a1.944,1.944,0,0,1-.828,1.4A8.823,8.823,0,0,1,37.4,46.784c-2.16.684-3.384,1.008-4.32,1.944A3.867,3.867,0,0,0,31.86,51.86c0,1.62,1.044,3.708,4.284,3.708a6.744,6.744,0,0,0,5.076-2.016,2.708,2.708,0,0,0,2.664,1.836,4.58,4.58,0,0,0,2.736-.864c.216-.144.252-.252.072-.54-.144-.252-.324-.252-.468-.18a1.742,1.742,0,0,1-.972.324c-.864,0-1.4-.864-1.368-3.1ZM41,51.14a3.221,3.221,0,0,1-3.492,3.06,2.678,2.678,0,0,1-2.484-2.844c0-1.692.828-2.88,2.88-3.6C40,46.964,40.644,46.64,41.04,46.1ZM59.652,40.952a1.064,1.064,0,0,1,1.224.792,8.036,8.036,0,0,1,.288,2.916v5.148c0,2.052,0,3.1-.36,3.708-.252.576-.936.576-1.908.684-.216.036-.288.072-.288.4s.072.4.288.4c1.188-.036,2.736-.108,3.852-.108,1.08,0,2.52.072,3.708.108.18,0,.252-.072.252-.4s-.072-.4-.252-.4c-1.08-.108-1.836-.108-2.124-.684-.288-.5-.252-1.584-.252-3.708V45.56a4.7,4.7,0,0,1,1.008-3.1c.648-.864,1.188-1.224,1.728-1.224.684,0,1.224.684,1.98.684a2.468,2.468,0,0,0,1.836-2.412c0-.612-.9-1.044-1.98-1.044-1.944,0-3.456,1.98-4.572,3.852,0-1.368.036-2.412.072-3.456,0-.18-.216-.288-.432-.288a32.631,32.631,0,0,1-5.04,1.512c-.36.108-.432.144-.432.54.036.432.18.432.5.4Zm23.616,0a1.025,1.025,0,0,1,1.26.756,9.377,9.377,0,0,1,.252,2.952v5.148c0,2.052.072,3.132-.288,3.708-.288.576-.936.576-1.872.684-.252.036-.324.108-.324.4,0,.324.072.4.324.4,1.188-.036,2.52-.108,3.672-.108,1.116,0,2.52.072,3.636.108.216,0,.288-.072.288-.4,0-.288-.072-.36-.288-.4-.9-.108-1.764-.144-2.016-.684s-.216-1.584-.216-3.708V45.092a4.178,4.178,0,0,1,.756-2.772,3.839,3.839,0,0,1,3.312-2.052A2.878,2.878,0,0,1,94.608,42.1a6.524,6.524,0,0,1,.4,2.952v4.752c0,2.052,0,3.132-.288,3.708s-1.008.576-1.908.684c-.252,0-.324.072-.324.4,0,.288.036.4.324.4,1.188-.036,2.592-.108,3.78-.108,1.008,0,2.412.072,3.6.108.252,0,.288-.108.288-.4,0-.324-.036-.36-.252-.4-1.008-.108-1.8-.144-2.124-.684-.252-.54-.252-1.584-.252-3.708V45.092a3.971,3.971,0,0,1,.792-2.772,3.91,3.91,0,0,1,3.384-2.052A2.733,2.733,0,0,1,104.8,42.1a6.524,6.524,0,0,1,.4,2.952v4.752c0,2.052.036,3.132-.288,3.708s-.972.576-1.908.684c-.252,0-.324.072-.324.4s.072.4.324.4c1.3-.036,2.664-.108,3.816-.108,1.116,0,2.52.072,3.6.108.252,0,.288-.108.288-.4,0-.324-.072-.36-.288-.4-.864-.108-1.764-.144-2.052-.684-.252-.5-.216-1.584-.216-3.708v-2.34c0-.9.036-2.664.036-3.96a4.724,4.724,0,0,0-4.932-5.04c-2.412,0-4.176,1.3-5.616,3.564a4.622,4.622,0,0,0-4.716-3.564,6.152,6.152,0,0,0-5.22,3.384c0-.936.036-1.98.072-2.952a.366.366,0,0,0-.4-.324,47.256,47.256,0,0,1-5,1.512c-.36.108-.432.144-.432.468.036.54.144.5.5.468ZM126.4,45.56c3.168-.072,6.912-.036,10.44.072a.624.624,0,0,0,.576-.18.815.815,0,0,0,.18-.612,6.729,6.729,0,0,0-6.66-6.372c-4.644,0-7.884,3.96-7.884,8.676,0,4.86,3.2,8.424,7.92,8.424a6.828,6.828,0,0,0,6.264-3.456c.144-.216.18-.252.18-.36,0-.288-.468-.54-.612-.54a.367.367,0,0,0-.288.18,5.433,5.433,0,0,1-4.9,2.52c-2.376,0-5.328-2.376-5.328-6.948A10.047,10.047,0,0,1,126.4,45.56Zm.216-1.3c.648-2.844,2.2-4.752,4.32-4.752,2.232,0,3.2,2.16,3.384,4.068.036.324-.072.576-.36.576A71.412,71.412,0,0,1,126.612,44.264ZM151.2,40.952a1.064,1.064,0,0,1,1.224.792,8.036,8.036,0,0,1,.288,2.916v5.148c0,2.052,0,3.1-.36,3.708-.252.576-.936.576-1.908.684-.216.036-.288.072-.288.4s.072.4.288.4c1.188-.036,2.736-.108,3.852-.108,1.08,0,2.52.072,3.708.108.18,0,.252-.072.252-.4s-.072-.4-.252-.4c-1.08-.108-1.836-.108-2.124-.684-.288-.5-.252-1.584-.252-3.708V45.56a4.7,4.7,0,0,1,1.008-3.1c.648-.864,1.188-1.224,1.728-1.224.684,0,1.224.684,1.98.684a2.468,2.468,0,0,0,1.836-2.412c0-.612-.9-1.044-1.98-1.044-1.944,0-3.456,1.98-4.572,3.852,0-1.368.036-2.412.072-3.456,0-.18-.216-.288-.432-.288a32.631,32.631,0,0,1-5.04,1.512c-.36.108-.432.144-.432.54.036.432.18.432.5.4Z" transform="translate(33 198.011)"/>
    </g>
    <g id="グループ_709" data-name="グループ 709" transform="translate(-76 -85.854)">
      <path id="パス_4721" data-name="パス 4721" d="M7.518-.56V-6.2h4.83V-7.224H7.518v-4.438H6.426v4.438H1.666V-6.2h4.76V-.56H.784V.462h12.46V-.56ZM13.3,7.374H9.394V6.3H8.4V7.374H4.634v.84H13.3Zm-.014,2.45a15.881,15.881,0,0,0-2.814-1.5l-.658.518A17.484,17.484,0,0,1,12.6,10.412ZM7.238,8.368A10.05,10.05,0,0,1,4.592,9.8a6.082,6.082,0,0,1,.672.672A12.993,12.993,0,0,0,8.078,8.676Zm-2.968,5.6-1.134.546V10.636H4.354V9.67H3.136V6.464H2.184V9.67H.77v.966H2.184v4.326c-.658.308-1.246.588-1.722.784l.406.98c1.064-.546,2.408-1.218,3.668-1.862Zm3.556-.8H10.01v.854H7.826Zm0-1.6H10.01V12.4H7.826Zm4.648,3.542a18.632,18.632,0,0,1-1.82,1.232,6.142,6.142,0,0,1-.84-1.512h3.472v-.812H10.92V13.17H12.6V12.4H10.92v-.826h1.988V10.79H10.92V9.81h-.91v.98H7.826V9.81h-.91v.98H5v.784H6.916V12.4H5.32v.77h1.6v.854H4.592v.812H7.616a12.311,12.311,0,0,1-3.64,1.512,4.888,4.888,0,0,1,.588.77,18.141,18.141,0,0,0,1.918-.756v1.5c-.546.1-1.05.168-1.47.238l.182.854c1.3-.224,3.052-.546,4.76-.854L9.9,17.286l-2.506.42V15.9a8.408,8.408,0,0,0,1.526-1.064,6.378,6.378,0,0,0,4.018,4.242,4.327,4.327,0,0,1,.616-.8,5.49,5.49,0,0,1-2.408-1.386,15.267,15.267,0,0,0,1.96-1.232Zm-7.91,9.46A11.891,11.891,0,0,1,.378,29.84a6.051,6.051,0,0,1,.882.8,14.424,14.424,0,0,0,4.4-5.754Zm-1.918,4.97v1.008H5.5C5.18,32.92,4.41,35.132,1.12,36.224a4.129,4.129,0,0,1,.672.91c3.556-1.288,4.452-3.822,4.816-6.58H10.22c-.168,3.528-.364,4.928-.728,5.278-.126.154-.294.182-.588.182-.322,0-1.19-.014-2.1-.1a2.531,2.531,0,0,1,.35,1.036,20.056,20.056,0,0,0,2.2.028,1.4,1.4,0,0,0,1.078-.49c.476-.532.686-2.142.882-6.44.014-.14.028-.5.028-.5ZM8.414,24.94a18.515,18.515,0,0,0,4.34,5.572,5.353,5.353,0,0,1,.854-.924,14.814,14.814,0,0,1-4.214-5.04ZM5.88,49.884c-.294-.378-1.526-1.9-1.96-2.394V46.258H5.838v-.98H3.92v-3H2.94v3H.77v.98H2.8A14.992,14.992,0,0,1,.448,51.522a6.3,6.3,0,0,1,.546.938A15.254,15.254,0,0,0,2.94,48.372V55.05h.98V48.722c.49.686,1.064,1.54,1.316,2Zm7.546-2.842H7.8V44.564a25.662,25.662,0,0,0,5-1.316l-.882-.8a23.014,23.014,0,0,1-4.242,1.232l-.882-.266V47.35c0,2.086-.154,4.9-1.722,6.972a3.107,3.107,0,0,1,.784.686c1.54-2.044,1.89-4.83,1.932-6.972h2.534v7.028h1.036V48.036h2.072Z" transform="translate(396 267)"/>
      <g id="グループ_505" data-name="グループ 505" transform="translate(227.295 -33)">
        <path id="パス_4722" data-name="パス 4722" d="M10.08-6.426v-.5h1.54c.616,0,1.134.028,1.288.042V-8.064a10.294,10.294,0,0,1-1.288.07H10.08v-1.75a10.614,10.614,0,0,1,.07-1.148H8.89a7.8,7.8,0,0,1,.07,1.148v1.75H4.97V-9.786a8.641,8.641,0,0,1,.07-1.022H3.794A8.646,8.646,0,0,1,3.85-9.786v1.792H2.338a10.264,10.264,0,0,1-1.4-.1v1.218c.168-.014.8-.056,1.4-.056H3.85v2.268c0,.532-.042,1.134-.056,1.274H5.026c-.014-.14-.056-.756-.056-1.274V-6.93H8.96v.588c0,3.92-1.274,5.124-3.822,6.1l.938.882C9.282-.784,10.08-2.7,10.08-6.426Zm.112,31.45-.742.322a16,16,0,0,1,1.134,1.946l.756-.35A21.7,21.7,0,0,0,10.192,25.024Zm1.54-.56-.742.322a14.718,14.718,0,0,1,1.162,1.932l.756-.35A20.031,20.031,0,0,0,11.732,24.464ZM3.906,25.5H2.6a7.588,7.588,0,0,1,.084,1.134v7.7c0,1.134.6,1.624,1.68,1.82a14.712,14.712,0,0,0,2.24.14A39.143,39.143,0,0,0,11.452,36V34.726a22.913,22.913,0,0,1-4.788.448,13.3,13.3,0,0,1-1.848-.112c-.686-.14-.98-.322-.98-1.036v-3.08a53.671,53.671,0,0,0,5.726-1.82c.42-.154.924-.378,1.316-.546l-.49-1.12a10.206,10.206,0,0,1-1.232.63A38.134,38.134,0,0,1,3.836,29.8V26.634A9.3,9.3,0,0,1,3.906,25.5ZM11.2,44.634l-.714-.546a3.834,3.834,0,0,1-1.05.112h-5.4c-.42,0-1.218-.056-1.414-.084V45.39c.154-.014.924-.07,1.414-.07h5.46a12.319,12.319,0,0,1-2.324,3.892A16.009,16.009,0,0,1,1.4,53.37l.9.938a17.748,17.748,0,0,0,5.46-4.088,32.324,32.324,0,0,1,3.85,4.158l.98-.84A38.835,38.835,0,0,0,8.5,49.352a17.719,17.719,0,0,0,2.352-4.1A4.016,4.016,0,0,1,11.2,44.634Z" transform="translate(132 299)"/>
        <path id="パス_4723" data-name="パス 4723" d="M1.428-6.062V-4.69c.434-.042,1.176-.07,1.946-.07H11.06c.63,0,1.218.056,1.5.07V-6.062c-.308.028-.812.07-1.512.07H3.374C2.59-5.992,1.848-6.034,1.428-6.062Z" transform="translate(134 304) rotate(90)"/>
      </g>
      <path id="パス_361" data-name="パス 361" d="M16998.705,4781.549V4854" transform="translate(-16577.705 -4530)" fill="none" stroke="#000" stroke-width="1"/>
      <path id="パス_362" data-name="パス 362" d="M16998.705,4781.55V4854" transform="translate(-16614.525 -4530)" fill="none" stroke="#000" stroke-width="1"/>
    </g>
  </g>
</svg>
