<svg xmlns="http://www.w3.org/2000/svg" width="544.92" height="36.92" viewBox="0 0 544.92 36.92">
  <path id="パス_3930" data-name="パス 3930" d="M-245.28-23.04a6.855,6.855,0,0,0-4.04,1.32.638.638,0,0,0-.32.56.4.4,0,0,0,.4.4,1.714,1.714,0,0,0,.52-.2,5.762,5.762,0,0,1,2.4-.64,5.033,5.033,0,0,1,3.76,1.76.729.729,0,0,1,.2.44.514.514,0,0,1-.16.4,23.364,23.364,0,0,1-2.56,2c-.24.16-.32.28-.32.44a.344.344,0,0,0,.32.32,1.76,1.76,0,0,0,.4-.08c.64-.2,1.2-.44,2-.72a4.846,4.846,0,0,1,1.16-.28,1.433,1.433,0,0,1,.92.32,1.223,1.223,0,0,0,.8.28,1.154,1.154,0,0,0,1.2-1.2,4.248,4.248,0,0,0-1.92-3.32A8.408,8.408,0,0,0-245.28-23.04Zm-16.2,1.56a20.986,20.986,0,0,1-4.68.68,3.656,3.656,0,0,1-2.88-1.56.688.688,0,0,0-.52-.32.4.4,0,0,0-.36.4,3.389,3.389,0,0,0,.6,1.48,4.068,4.068,0,0,0,3.44,1.96,22.6,22.6,0,0,0,4.4-.52c-.04,2.52-.12,4.96-.12,8-2.44,1.48-4.56,2.92-7.32,4.48a2.859,2.859,0,0,1-1.28.44.932.932,0,0,1-.6-.28,2.391,2.391,0,0,1-.6-.84.578.578,0,0,0-.4-.28c-.24,0-.36.4-.36.92a3.545,3.545,0,0,0,1.52,2.76,2.839,2.839,0,0,0,1.64.8.919.919,0,0,0,.88-.56,4.524,4.524,0,0,1,1.28-1.32,46.675,46.675,0,0,1,3.64,2.96,2.942,2.942,0,0,1,1.04,1.4c.2.8.52,1.04,1.08,1.04.64,0,1.08-.48,1.56-1.92a5.58,5.58,0,0,0,.28-1.76c0-.2-.04-1.04-.08-1.52-.08-1.4-.16-3.4-.2-5.4,1-.6,2.08-1.2,3.12-1.8a12.588,12.588,0,0,1,5.64-1.84A5.348,5.348,0,0,1-247.12-13a4.128,4.128,0,0,1,1.52,3.2,4.226,4.226,0,0,1-1.36,3.48A5.529,5.529,0,0,1-250.8-5a8.229,8.229,0,0,1-5.64-2.24.61.61,0,0,0-.48-.24.342.342,0,0,0-.32.32,1.228,1.228,0,0,0,.16.6A8.417,8.417,0,0,0-249.72-3a7.553,7.553,0,0,0,4.84-1.56,5.677,5.677,0,0,0,2.2-4.48,5.78,5.78,0,0,0-2.36-4.6,8.476,8.476,0,0,0-5.32-1.72,18.208,18.208,0,0,0-9.2,2.92c-.04-2.52.04-5.04.12-7.44a33.4,33.4,0,0,0,6.32-2.28,1.172,1.172,0,0,0,.76-1.08c0-.68-.68-1.16-1.56-1.16a3.428,3.428,0,0,0-2.32.76,11.542,11.542,0,0,1-3.16,1.52,16.409,16.409,0,0,1,.28-3.04,2.148,2.148,0,0,1,.76-1.2.957.957,0,0,0,.4-.84c0-.6-.64-1.28-1.64-1.88a5.258,5.258,0,0,0-2.6-.88,2.837,2.837,0,0,0-1.72.52c-.32.24-.4.4-.4.56,0,.12.2.2.52.24a5.873,5.873,0,0,1,1.16.2,1.356,1.356,0,0,1,.92.72,7.009,7.009,0,0,1,.24,2.72Zm-.12,16.72c0,.6-.08.76-.4.76a3.849,3.849,0,0,1-1.24-.4A18.21,18.21,0,0,1-266-5.92c1.28-1,2.88-2.28,4.4-3.4Zm45.6-21.4a20.36,20.36,0,0,0-3.64-1.76c.2,2.4.2,4.6.2,8.8,0,7.76-.16,10.2-.16,11.6,0,.68.36,1.04,1.28,1.04,1.32,0,1.92-.36,1.92-1.32V-9.2h9.88c-.08,7.24-.2,10.4-.2,11.32,0,.84.4,1.2,1.44,1.2,1.36,0,1.92-.44,1.92-1.44,0-1.28-.08-3.84-.16-11.08h10.36v1.56c0,.72.4,1.04,1.28,1.04,1.24,0,1.84-.4,1.84-1.28,0-1.12-.16-4.76-.16-12.16v-4.08c1.08-.64,1.24-.92,1.24-1.24,0-.24-.16-.48-.84-1.04-1.4-1.24-1.64-1.36-1.88-1.36-.28,0-.48.12-1.84,1.6h-10.04V-31.2c1.2-.48,1.4-.72,1.4-1.04,0-.6-.48-.76-4.64-1.16a57.171,57.171,0,0,1,.32,7.24Zm22.84,8.8v7.16h-10.36c0-2.4-.04-4.76-.04-7.16Zm-13.32,0c0,2.4,0,5.08-.04,7.16h-9.88v-7.16Zm2.92-7.8h10.4v6.8h-10.4Zm-2.92,0v6.8h-9.92v-6.8Zm41.64.16a1.846,1.846,0,0,0,1.72-2.04c0-1.84-1.96-3.96-6-5.24-.2-.08-.48.2-.32.32a12.946,12.946,0,0,1,3.08,5.16C-165.96-25.4-165.52-25-164.84-25Zm9.28-5.96a11,11,0,0,1-3-.36l.4,1.6a13.616,13.616,0,0,1,2.68-.24h5.56c-.76,10.92-4.28,18.64-11.48,24.76-.2.2.12.68.36.52,6.64-3.92,11.04-9.56,12.8-16.48a24.674,24.674,0,0,0,3.72,9.92,21.779,21.779,0,0,0,5.28,6.2c.72.6,1.2.92,1.48.92s.4-.12.6-.64c.56-1.44.96-1.92,2-2.32.2-.08.28-.36.08-.44a20.266,20.266,0,0,1-9-7.36,27.156,27.156,0,0,1-4.32-14.08c1.24-.6,1.72-1.04,1.72-1.4,0-.24-.16-.52-.6-.92-1-.84-1.2-1-1.48-1-.24,0-.44.16-1.56,1.32Zm-7.52,15.8c1-.72,1.12-.88,1.12-1.12s-.16-.48-.76-1.08c-1.32-1.12-1.56-1.24-1.84-1.24-.24,0-.44.12-1.72,1.56h-2.4a12.17,12.17,0,0,1-3.12-.32l.4,1.64a9.948,9.948,0,0,1,2.72-.32H-166V-5.72a19.128,19.128,0,0,1-3.48,2.36,14.982,14.982,0,0,1-2.44,1c1.6,3.24,2.2,4.12,2.64,4.12.48,0,.68-.4.64-1.8a56.206,56.206,0,0,0,4.52-5.84,10.1,10.1,0,0,0,3.68,5.16c2.12,1.52,5.68,2.28,13.6,2.28,3.4,0,7-.08,10.16-.36.48-.04.68-.16.76-.64a2.271,2.271,0,0,1,1.4-2.28c.16-.08.16-.48-.04-.44a111.926,111.926,0,0,1-14.28.96c-5.92,0-8.8-.48-10.6-1.12a6.479,6.479,0,0,1-3.64-3.4Zm70,2.84c.4-1.4.72-2.56,1.08-3.92a2.479,2.479,0,0,1,.72-1.32,1.2,1.2,0,0,0,.36-.92c0-.6-.6-1.32-1.52-2a7.229,7.229,0,0,0-3-1.32,2.223,2.223,0,0,0-.92.16c-.2.08-.4.24-.4.36s.08.24.28.32a5.748,5.748,0,0,1,1.48.84,1.73,1.73,0,0,1,.64,1.6,26.084,26.084,0,0,1-1.12,5.36A37.3,37.3,0,0,0-105.6-15.2c1.12-2.44,2.4-4.64,3.32-6.68,1.08-2.32,1.84-4,2.6-5.4.32-.56.6-.84.6-1.36,0-.44-.44-.84-.88-1.08a4.889,4.889,0,0,0-1.96-.76,1.26,1.26,0,0,0-.92.56,3.154,3.154,0,0,1-1.68,1,19.77,19.77,0,0,1-4.6,1.04,1.846,1.846,0,0,1-1.56-.8,5.016,5.016,0,0,1-.64-.96c-.16-.28-.28-.44-.44-.44-.12,0-.24.12-.32.32a2.555,2.555,0,0,0-.2.96,5.424,5.424,0,0,0,1,2.48,2.248,2.248,0,0,0,1.64,1.16,1.89,1.89,0,0,0,.88-.28,7.671,7.671,0,0,1,1.48-.68c1-.4,2.28-.84,4.04-1.4.44-.12.56.04.44.36a118.378,118.378,0,0,1-5.08,12.04,13.539,13.539,0,0,0-6.88,2c-2,1.32-3.24,3.16-3.24,5.04,0,2.44,1.32,3.36,3.16,3.36a4.87,4.87,0,0,0,3.48-1.44,28.406,28.406,0,0,0,5.04-7.4A27.2,27.2,0,0,1-96.16-11,25.776,25.776,0,0,1-100-4.28,23.3,23.3,0,0,1-106.2.88c-.36.2-.48.32-.48.56a.369.369,0,0,0,.4.36,2.15,2.15,0,0,0,.84-.2,21.685,21.685,0,0,0,6.68-4.28,22.743,22.743,0,0,0,4.84-7.2,31.307,31.307,0,0,1,4.88,3.24,2.9,2.9,0,0,0,1.6.8,1.41,1.41,0,0,0,1.4-1.36,2.35,2.35,0,0,0-1.08-1.96A27.309,27.309,0,0,0-93.08-12.32ZM-108.6-13.6a27.069,27.069,0,0,1-3.44,5.12A4.046,4.046,0,0,1-114.8-6.8a1.336,1.336,0,0,1-1.44-1.48,4.531,4.531,0,0,1,2.12-3.6A12.157,12.157,0,0,1-108.6-13.6Zm57.36-5.04a3.406,3.406,0,0,0-3.4,3.44,3.4,3.4,0,0,0,3.4,3.4,3.406,3.406,0,0,0,3.44-3.4A3.415,3.415,0,0,0-51.24-18.64Zm61.96-4.4a6.855,6.855,0,0,0-4.04,1.32.638.638,0,0,0-.32.56.4.4,0,0,0,.4.4,1.714,1.714,0,0,0,.52-.2,5.762,5.762,0,0,1,2.4-.64,5.033,5.033,0,0,1,3.76,1.76.729.729,0,0,1,.2.44.514.514,0,0,1-.16.4,23.364,23.364,0,0,1-2.56,2c-.24.16-.32.28-.32.44a.344.344,0,0,0,.32.32,1.76,1.76,0,0,0,.4-.08c.64-.2,1.2-.44,2-.72a4.847,4.847,0,0,1,1.16-.28,1.433,1.433,0,0,1,.92.32,1.223,1.223,0,0,0,.8.28,1.154,1.154,0,0,0,1.2-1.2,4.248,4.248,0,0,0-1.92-3.32A8.408,8.408,0,0,0,10.72-23.04Zm-16.2,1.56a20.986,20.986,0,0,1-4.68.68,3.656,3.656,0,0,1-2.88-1.56.688.688,0,0,0-.52-.32.4.4,0,0,0-.36.4,3.389,3.389,0,0,0,.6,1.48,4.068,4.068,0,0,0,3.44,1.96,22.6,22.6,0,0,0,4.4-.52c-.04,2.52-.12,4.96-.12,8-2.44,1.48-4.56,2.92-7.32,4.48a2.86,2.86,0,0,1-1.28.44.932.932,0,0,1-.6-.28,2.391,2.391,0,0,1-.6-.84.578.578,0,0,0-.4-.28c-.24,0-.36.4-.36.92a3.545,3.545,0,0,0,1.52,2.76,2.839,2.839,0,0,0,1.64.8.919.919,0,0,0,.88-.56,4.525,4.525,0,0,1,1.28-1.32A46.677,46.677,0,0,1-7.2-2.28,2.942,2.942,0,0,1-6.16-.88c.2.8.52,1.04,1.08,1.04C-4.44.16-4-.32-3.52-1.76a5.58,5.58,0,0,0,.28-1.76c0-.2-.04-1.04-.08-1.52-.08-1.4-.16-3.4-.2-5.4,1-.6,2.08-1.2,3.12-1.8a12.588,12.588,0,0,1,5.64-1.84A5.348,5.348,0,0,1,8.88-13,4.128,4.128,0,0,1,10.4-9.8,4.226,4.226,0,0,1,9.04-6.32,5.529,5.529,0,0,1,5.2-5,8.229,8.229,0,0,1-.44-7.24a.61.61,0,0,0-.48-.24.342.342,0,0,0-.32.32,1.228,1.228,0,0,0,.16.6A8.417,8.417,0,0,0,6.28-3a7.553,7.553,0,0,0,4.84-1.56,5.677,5.677,0,0,0,2.2-4.48,5.78,5.78,0,0,0-2.36-4.6,8.476,8.476,0,0,0-5.32-1.72,18.208,18.208,0,0,0-9.2,2.92c-.04-2.52.04-5.04.12-7.44a33.4,33.4,0,0,0,6.32-2.28,1.172,1.172,0,0,0,.76-1.08c0-.68-.68-1.16-1.56-1.16a3.428,3.428,0,0,0-2.32.76A11.541,11.541,0,0,1-3.4-22.12a16.41,16.41,0,0,1,.28-3.04,2.148,2.148,0,0,1,.76-1.2.957.957,0,0,0,.4-.84c0-.6-.64-1.28-1.64-1.88a5.258,5.258,0,0,0-2.6-.88,2.837,2.837,0,0,0-1.72.52c-.32.24-.4.4-.4.56,0,.12.2.2.52.24a5.873,5.873,0,0,1,1.16.2,1.356,1.356,0,0,1,.92.72A7.008,7.008,0,0,1-5.48-25ZM-5.6-4.76c0,.6-.08.76-.4.76a3.849,3.849,0,0,1-1.24-.4A18.21,18.21,0,0,1-10-5.92c1.28-1,2.88-2.28,4.4-3.4Zm51.76-.2h9.36v1.52c0,.76.32,1.04,1.2,1.04,1.08,0,1.68-.36,1.68-1.24,0-.56-.08-2.56-.08-6.56v-2c.88-.6,1.04-.76,1.04-1.12,0-.24-.12-.44-.68-.92-1.24-1.04-1.44-1.16-1.72-1.16-.24,0-.48.12-1.64,1.4H46.48a20.705,20.705,0,0,0-3.28-1.6c.2,2.16.2,3.88.2,6.64,0,4.2-.12,5.48-.12,6.16s.32.96,1.24.96c1.12,0,1.64-.36,1.64-1.28Zm9.36-1H46.16V-13h9.36ZM56-19.88h8.92V-.92c0,.48-.12.64-.6.64-1.32,0-2.24-.08-5.04-.28-.2,0-.2.44,0,.48,3.28.76,4.04,1.2,4.2,2.48.08.48.24.56.68.56a4.181,4.181,0,0,0,2.44-.64A2.518,2.518,0,0,0,67.88-.12c0-1.08-.04-1.96-.04-20.4v-8.96c.88-.52,1.08-.72,1.08-1.04,0-.28-.16-.48-.8-1-1.32-1.12-1.52-1.28-1.8-1.28-.24,0-.44.16-1.68,1.48H56.36a24.366,24.366,0,0,0-3.24-1.6,53.268,53.268,0,0,1,.16,5.52c0,5.28-.08,6.96-.08,8.12,0,.72.36,1,1.2,1,1.08,0,1.6-.36,1.6-1.2Zm0-5.36h8.92v4.36H56Zm8.92-1H56v-4.08h8.92ZM37.44-19.88h8.44v.56c0,.68.32,1,1.12,1,1.12,0,1.76-.36,1.76-1.2,0-.64-.12-2.84-.12-7.48v-2.52c.88-.52,1.08-.8,1.08-1.08,0-.24-.16-.48-.76-.96-1.28-1.08-1.48-1.24-1.76-1.24-.24,0-.44.16-1.64,1.48H37.72a18.94,18.94,0,0,0-3.4-1.6c.2,3.72.24,7.68.24,15.8,0,11.92-.2,16.64-.2,19.28,0,.72.36,1.04,1.28,1.04,1.24,0,1.84-.4,1.84-1.24,0-3.12-.04-7-.04-19.96Zm0-5.36h8.44v4.36H37.44Zm8.44-1H37.44v-4.08h8.44Zm62.8,3.96c-.28,0-.44.16-.44.36,0,.28.12.4.36.56a13.477,13.477,0,0,1,4.4,4.04,10.985,10.985,0,0,1,2,4.96c0,.6-.2.8-.8.92-.88.16-1.8.2-2.92.32-.4.04-.72.12-.72.32,0,.28.16.4.64.52.96.24,1.8.44,2.48.64a2.565,2.565,0,0,1,1.56,1.12,1.183,1.183,0,0,0,1.08.64,1.509,1.509,0,0,0,1.16-.64,3.872,3.872,0,0,0,.6-2.36,11.161,11.161,0,0,0-1.48-5.08,13.172,13.172,0,0,0-4.36-4.68A10.775,10.775,0,0,0,108.68-22.28ZM96.24-2.4c.92,0,1.36-.56,1.32-1.2a2.873,2.873,0,0,0-.4-1.16,2.022,2.022,0,0,1-.24-1,5.967,5.967,0,0,1,.56-1.96c.64-1.64,2.08-4.8,3.32-7.36a1.3,1.3,0,0,0,.16-.52.553.553,0,0,0-.48-.44,1.067,1.067,0,0,0-.68.52c-1.68,2.68-3.4,5.6-4.6,7.56-.36.56-.64.76-.96.76-.56,0-1.36-.72-2.08-2.52a16.77,16.77,0,0,1-.96-5.52,20.514,20.514,0,0,1,.6-5.72,3.643,3.643,0,0,0,.36-1.24,4.593,4.593,0,0,0-1.88-3.12,5.315,5.315,0,0,0-2.6-1.32c-.32,0-.64.04-.64.24,0,.12.04.2.28.4a4.212,4.212,0,0,1,1.6,2.6,43.487,43.487,0,0,1,.12,5.08,36.927,36.927,0,0,0,.48,6.64c.64,3.52,2.04,6.24,3.88,7.76A5.372,5.372,0,0,0,96.24-2.4Zm58-28.64c1.04-.24,1.44-.4,1.44-.72,0-.44-.16-.56-4.68-1.84a22.765,22.765,0,0,1-2.04,4.72,41.074,41.074,0,0,1-14.28,14.44c-.24.12.04.68.28.56A36.986,36.986,0,0,0,153.6-30.52a34.428,34.428,0,0,0,7.64,10.56,34.457,34.457,0,0,0,7.16,5.08,5.181,5.181,0,0,0,1.4.52q.36,0,.6-.6c.52-1.68,1.08-2.16,2.24-2.32.2-.04.24-.4.04-.44A28.959,28.959,0,0,1,162.76-22,30.318,30.318,0,0,1,154.24-31.04Zm-9.84,31h16.96V1.72c0,.72.36,1.12,1.24,1.12,1.24,0,1.92-.48,1.92-1.32,0-.76-.12-3.32-.12-8.76V-10.2c1.04-.56,1.24-.8,1.24-1.16,0-.24-.16-.48-.88-1.08-1.44-1.28-1.68-1.4-1.96-1.4-.24,0-.44.12-1.72,1.64H144.84c-1.44-.8-2.04-1.16-3.56-1.88.12,2.2.16,3.96.16,7.28,0,5.88-.16,7.52-.16,8.52,0,.76.36,1.12,1.24,1.12,1.28,0,1.88-.44,1.88-1.28Zm16.96-1H144.4V-11.2h16.96ZM145.92-17.68a13.521,13.521,0,0,1,2.4-.24h11.84c.36,0,.52-.12.52-.4,0-.24-.2-.48-.92-1.16-1.72-1.32-2-1.52-2.28-1.52-.24,0-.52.2-2.08,2.08h-7.04a14.809,14.809,0,0,1-2.84-.28Zm54.2-.2a18.031,18.031,0,0,1,2.28-3.32c.28-.32.6-.64.6-.96a1.028,1.028,0,0,0-.56-.92,1.6,1.6,0,0,0-.96-.36,1.628,1.628,0,0,0-.88.24c.08-1.2.2-2.24.32-3.2a1.856,1.856,0,0,1,.64-1.24,1.394,1.394,0,0,0,.48-.96c0-.68-.72-1.36-1.84-2.12a4.771,4.771,0,0,0-2.56-.92,2.807,2.807,0,0,0-1.4.36c-.2.12-.32.24-.32.4,0,.2.08.2.48.28a3.956,3.956,0,0,1,1.64.68c.52.52.48.96.48,1.84,0,1.72-.04,3.8-.08,5.84a38.835,38.835,0,0,1-4.68,1.68,3.718,3.718,0,0,1-1.08.16c-.64,0-1.24-.52-1.96-1.44-.08-.08-.24-.24-.36-.24-.2,0-.36.24-.36.8a4.12,4.12,0,0,0,1.28,2.48c.64.68,1.04.96,1.64.96a1.313,1.313,0,0,0,.96-.48,11.067,11.067,0,0,1,1.36-.8,22.706,22.706,0,0,1,3.12-1.32c0,.92,0,2-.04,3.04a44.594,44.594,0,0,1-3.48,5.08c-1.8,2.36-3.68,4.56-5.28,6.36a2.635,2.635,0,0,0-.8,1.68,1.114,1.114,0,0,0,1.12,1.2,1.689,1.689,0,0,0,1.28-.76c.6-.72.96-1.28,1.8-2.44a34.091,34.091,0,0,1,3.52,3.92A4.22,4.22,0,0,1,197.56.08c.08,1.08.52,1.44,1.04,1.44,1,0,1.72-1.4,1.72-4.2,0-.8-.12-2.04-.12-2.88-.08-2.72-.16-6.04-.08-9.28,2.52-2.28,6.92-4.84,10.48-4.84a6.843,6.843,0,0,1,5.08,2.08,6.416,6.416,0,0,1,1.56,4.2,9.738,9.738,0,0,1-3.12,7.08,23.28,23.28,0,0,1-8.88,4.92.544.544,0,0,0-.44.6.493.493,0,0,0,.52.4,4.36,4.36,0,0,0,1.04-.12,22.288,22.288,0,0,0,9.72-4.08,10.106,10.106,0,0,0,4.28-8.36,7.626,7.626,0,0,0-2.56-5.68,10.191,10.191,0,0,0-6.64-2.48c-3.56,0-7.08,1.6-11.08,4.6Zm-6.6,10.8c1.4-1.8,3.08-4.04,4.68-6.04-.04,2.92-.08,6.2-.12,8.6,0,.48-.04.64-.24.64a1.8,1.8,0,0,1-.84-.44C195.88-5.16,194.6-6.12,193.52-7.08Zm66.92-12.4c-3.12.76-6.2,1.52-9.28,2.4.04-1,.08-1.68.12-2.48.04-1,.16-1.2.36-1.48A1.667,1.667,0,0,0,252-22a1.878,1.878,0,0,0-.96-1.32,5.913,5.913,0,0,0-3.2-1.2,2.564,2.564,0,0,0-1.2.32c-.2.12-.44.32-.44.44,0,.16.08.28.52.36a3.458,3.458,0,0,1,1.76.84,1.905,1.905,0,0,1,.36,1.16c.08,1.72.08,3.28.08,5-2.2.68-4.44,1.4-6.4,1.92a5.83,5.83,0,0,1-1.4.2,2.536,2.536,0,0,1-1.76-.96c-.4-.4-.56-.52-.72-.52s-.32.12-.32.88a3.8,3.8,0,0,0,1.36,2.4,3.225,3.225,0,0,0,2.28,1.2,1.708,1.708,0,0,0,1.04-.4,6.462,6.462,0,0,1,.96-.56c1.6-.8,2.84-1.32,4.92-2.16.04,2.36.04,4.52.08,6.88a7.109,7.109,0,0,0,.96,4.08,5.547,5.547,0,0,0,2.84,1.96,20.3,20.3,0,0,0,5.76.72,53.589,53.589,0,0,0,7.4-.44c1.12-.2,1.56-.64,1.56-1.44a1.4,1.4,0,0,0-1-1.16,4.918,4.918,0,0,0-2.2-.4,9.1,9.1,0,0,0-1.84.44,31.28,31.28,0,0,1-6.6.56,5.3,5.3,0,0,1-3.96-1.24,5.575,5.575,0,0,1-.8-3.48c0-2.08,0-4.76.04-7.28a78.443,78.443,0,0,1,9.28-2.52,29.811,29.811,0,0,1-.64,6.4c-.2.84-.6.96-1.4.96a25.558,25.558,0,0,1-2.92-.32c-.24-.04-.56-.12-.68-.12a.342.342,0,0,0-.32.32c0,.24.08.36.48.52.76.28,1.68.64,2.12.84a1.47,1.47,0,0,1,1,1.04c.2.64.4.8.92.8a3.329,3.329,0,0,0,1.92-.92,6.768,6.768,0,0,0,1.48-3.96,59.6,59.6,0,0,0,.32-6,32.414,32.414,0,0,1,4.76-.48c.88,0,3.08.24,3.76.24.84,0,1.56-.28,1.56-1.16,0-1-.72-1.48-2-1.56a12.336,12.336,0,0,1-2.72-.32,4.8,4.8,0,0,0-1.16-.36c-.16,0-.28.08-.44.48-.12.56-.56.76-1.16.88s-1.28.24-2.56.48c.04-1.8.12-3.16.2-4.36a3.2,3.2,0,0,1,.4-1.72,1.6,1.6,0,0,0,.36-.96,1.643,1.643,0,0,0-.6-1.2,6.721,6.721,0,0,0-3.52-1.72,2.913,2.913,0,0,0-1.44.4c-.4.24-.56.44-.56.6a.273.273,0,0,0,.28.28,8.582,8.582,0,0,1,1.76.4c.36.12.68.44.76,1.28.12,1.24.12,2.4.12,3.96Z" transform="translate(272.16 33.6)"/>
</svg>
