<svg xmlns="http://www.w3.org/2000/svg" width="315.5" height="215.665" viewBox="0 0 315.5 215.665">
  <g id="グループ_9862" data-name="グループ 9862" transform="translate(-30 -106.696)">
    <g id="グループ_712" data-name="グループ 712" transform="translate(0 -5)">
      <path id="パス_4377" data-name="パス 4377" d="M16.864-.128V-13.792H27.68c.32,0,.416-.128.416-.32s-.128-.416-.9-1.024c-1.6-1.28-1.824-1.44-2.048-1.44-.192,0-.416.16-1.952,1.984H16.864v-9.952c.928-.32,1.184-.576,1.184-.864,0-.352-.416-.672-3.872-.992.128,1.312.16,3.168.16,6.624v5.184H7.3a21.05,21.05,0,0,1-3.072-.224l.32,1.248a16.672,16.672,0,0,1,2.72-.224h7.072V-.128H4.7A19.5,19.5,0,0,1,1.5-.384L1.824.864A18.38,18.38,0,0,1,4.7.672H30.112c.32,0,.416-.1.416-.32,0-.192-.16-.384-.96-1.056-1.7-1.408-1.92-1.568-2.144-1.568-.192,0-.416.16-2.048,2.144ZM48.1-16.7H51.84c.288,0,.416-.1.416-.32s-.16-.448-.576-.832c-1.024-.96-1.248-1.088-1.44-1.088s-.48.128-1.344,1.44h-.8v-6.464c.928-.448,1.12-.608,1.12-.864,0-.352-.384-.576-3.552-.9a45.667,45.667,0,0,1,.16,5.344v2.88H44.352a9.6,9.6,0,0,1-2.08-.224l.32,1.216a10.44,10.44,0,0,1,1.856-.192h1.376v9.28c-.7.288-1.344.512-1.952.736a10.3,10.3,0,0,1-1.984.48c1.28,3.04,1.408,3.136,1.76,3.136s.512-.32.576-1.28A38.251,38.251,0,0,0,50.848-8.7L51.1-7.68a10.966,10.966,0,0,1,2.24-.192h3.968a25.764,25.764,0,0,1-9.76,5.984c-.224.064-.064.544.16.48a33.674,33.674,0,0,0,7.136-2.464V-.256c-.512.064-1.024.128-1.5.192A14.378,14.378,0,0,1,51.36.064c.864,2.592,1.152,3.1,1.408,3.1.288,0,.512-.256.608-1.056a40.717,40.717,0,0,0,9.184-3.52c.16-.1.032-.48-.16-.416A49.954,49.954,0,0,1,57.024-.608V-5.12a24.812,24.812,0,0,0,3.392-2.656,15.079,15.079,0,0,0,3.84,6.5,18.039,18.039,0,0,0,4.9,3.36,3.717,3.717,0,0,0,1.024.352c.224,0,.32-.128.448-.576.384-1.024.736-1.344,1.5-1.568.192-.064.224-.384.032-.416A17.694,17.694,0,0,1,65.088-2.88a9.64,9.64,0,0,1-.9-.7A19.25,19.25,0,0,0,67.9-5.312c1.056.064,1.408-.032,1.408-.288,0-.32-.544-.672-2.592-1.856a4.6,4.6,0,0,1-.864,1.344A16.817,16.817,0,0,1,63.712-4,13.324,13.324,0,0,1,60.96-7.872H71.072c.32,0,.416-.128.416-.32s-.128-.384-.64-.832c-1.152-.864-1.408-1.024-1.632-1.024-.192,0-.352.128-1.408,1.376h-3.2v-2.944h4.9c.32,0,.416-.1.416-.32,0-.192-.128-.416-.608-.8-1.088-.832-1.312-.992-1.536-.992-.192,0-.352.16-1.312,1.312H64.608V-15.1h5.408c.32,0,.448-.1.448-.32,0-.192-.16-.416-.608-.8-1.152-.864-1.376-1.024-1.6-1.024-.192,0-.416.16-1.312,1.344H64.608v-1.5c.64-.256.8-.448.8-.672,0-.256-.256-.448-2.976-.672a21.809,21.809,0,0,1,.1,2.752v.1H58.5v-1.5c.64-.288.832-.48.832-.672,0-.256-.256-.448-3.008-.7a21.809,21.809,0,0,1,.1,2.752v.128H54.24a13.733,13.733,0,0,1-2.432-.224l.352,1.216A13.615,13.615,0,0,1,54.3-15.1h2.112v2.688h-1.6a13.4,13.4,0,0,1-2.4-.224l.352,1.216a10.434,10.434,0,0,1,2.08-.192h1.568v2.944h-3.1a13.611,13.611,0,0,1-2.272-.192c.384-.32.768-.672,1.12-1.024.128-.128-.064-.416-.192-.352-1.152.64-2.5,1.28-3.872,1.888ZM58.5-8.672v-2.944h4.032v2.944Zm0-3.744V-15.1h4.032v2.688Zm3.2-10.816v-1.824c.736-.288.992-.512.992-.736,0-.32-.352-.576-3.392-.864.064.9.1,1.5.1,2.048v1.376H53.92a12.826,12.826,0,0,1-2.624-.224l.32,1.216a16.8,16.8,0,0,1,2.4-.192H70.688c.32,0,.416-.1.416-.288s-.1-.416-.7-.928c-1.28-1.024-1.6-1.152-1.792-1.152s-.448.16-1.632,1.568ZM68.7-17.6a.936.936,0,0,0,.928-1.024c0-1.44-2.912-2.912-6.88-3.168-.192,0-.288.352-.1.416a13.3,13.3,0,0,1,4.864,3.04C68.1-17.76,68.352-17.6,68.7-17.6Zm-16.288.16A15.41,15.41,0,0,0,58.4-20.256c.96,0,1.216-.128,1.216-.384,0-.288-.448-.544-2.656-1.472a6.838,6.838,0,0,1-1.408,1.824,16.3,16.3,0,0,1-3.3,2.432C52.1-17.76,52.224-17.408,52.416-17.44ZM91.84-12.768a7.969,7.969,0,0,1-2.048-.256l.32,1.216a9.407,9.407,0,0,1,1.76-.16h.8c-.064,6.592-.992,9.44-4,12.416-.128.128.128.48.288.384,4.288-2.816,5.856-6.08,5.888-12.8h2.72v7.552a13.837,13.837,0,0,1-2.528.7c.864,2.56,1.088,2.848,1.408,2.848.288,0,.48-.288.64-1.056a33.279,33.279,0,0,0,6.3-4.8c.128-.128-.032-.48-.192-.384A34.108,34.108,0,0,1,99.616-5.28v-6.688h2.88c.32,0,.416-.1.416-.32,0-.192-.16-.416-.576-.768a14.71,14.71,0,0,0,1.28-1.856A44.057,44.057,0,0,0,105.568-6.5a23.567,23.567,0,0,1-8.1,8.64c-.192.128.032.544.224.448a23.026,23.026,0,0,0,8.7-7.04,20.157,20.157,0,0,0,3.936,5.792c.512.544.9.832,1.088.832s.256-.064.48-.512a2.347,2.347,0,0,1,1.5-1.5c.128-.032.256-.256.128-.32a14.118,14.118,0,0,1-5.824-5.248,4.818,4.818,0,0,1-.32-.544,23.831,23.831,0,0,0,2.528-6.688,42.878,42.878,0,0,0,.8-6.048h2.016c.288,0,.448-.1.448-.288,0-.224-.192-.416-.672-.864-1.152-1.088-1.376-1.248-1.6-1.248-.192,0-.416.16-1.536,1.6h-3.648a49.576,49.576,0,0,0,1.408-5.024c.736-.256.96-.448.96-.736,0-.352-.768-.64-3.232-1.152a23.052,23.052,0,0,1-.384,4.128,31.261,31.261,0,0,1-2.56,8.864c-.768-.64-.992-.768-1.152-.768-.192,0-.448.16-1.376,1.408Zm16.576-5.92a36.143,36.143,0,0,1-.608,5.568,24.877,24.877,0,0,1-1.5,5.056,31.739,31.739,0,0,1-2.208-7.648,24.883,24.883,0,0,0,1.344-2.976ZM88.032-12.032c.768-.32.9-.512.9-.736,0-.32-.224-.48-1.568-.672a22.313,22.313,0,0,0,2.656-4.224c.96-.1,1.152-.256,1.152-.544,0-.32-.48-.64-2.848-1.536a15.754,15.754,0,0,1-1.056,3.04,29.5,29.5,0,0,1-4.9,7.36c-.128.128.128.512.288.384a25.7,25.7,0,0,0,3.264-2.848c-.032,1.44-.032,2.88-.064,4.288-.032,6.368-.16,8.64-.16,9.312,0,.7.416.96,1.024.96.9,0,1.344-.32,1.344-1.088,0-.928-.032-3.968-.032-10.048Zm7.488-5.376H93.152v-5.024c.7-.256.9-.416.9-.672,0-.416-.224-.48-2.944-.864a31.442,31.442,0,0,1,.128,3.936c0,2.88-.064,4-.064,4.224,0,.544.256.8.864.8.736,0,1.12-.32,1.12-.9v-.7H99.9v.352c0,.48.256.736.832.736.7,0,1.184-.32,1.184-.864,0-.416-.064-1.728-.064-4.48v-1.568c.64-.256.8-.416.8-.64,0-.352-.352-.512-2.912-.864a22.7,22.7,0,0,1,.16,2.88v3.648H97.5v-7.136c.672-.288.9-.512.9-.7,0-.32-.288-.576-3.04-.864a24.211,24.211,0,0,1,.16,3.008Zm-12.512-.32a21.9,21.9,0,0,0,6.752-6.848c.992-.032,1.344-.192,1.344-.512,0-.352-.992-.864-3.1-1.632a10.109,10.109,0,0,1-.928,2.432,22.774,22.774,0,0,1-4.352,6.176C82.592-17.984,82.848-17.632,83.008-17.728ZM140.064-.16V-9.024h9.856c.32,0,.416-.128.416-.32s-.128-.416-.832-.992c-1.536-1.312-1.76-1.472-1.984-1.472-.192,0-.416.16-1.92,1.984h-5.536v-7.552h10.752c.32,0,.416-.1.416-.288,0-.224-.128-.448-.864-1.056-1.6-1.312-1.792-1.5-2.016-1.5-.192,0-.416.192-1.952,2.048h-6.336v-6.336c.928-.352,1.184-.576,1.184-.9,0-.384-.384-.672-3.776-.992a60.7,60.7,0,0,1,.192,6.528v1.7h-6.08a33.786,33.786,0,0,0,1.5-3.744c.928-.224,1.248-.384,1.248-.7,0-.448-.7-.736-3.456-1.536a22.337,22.337,0,0,1-.672,3.3,27.62,27.62,0,0,1-5.216,10.016c-.16.16.192.48.384.352a20.545,20.545,0,0,0,5.792-6.88h6.5v7.552H131.52a17.721,17.721,0,0,1-2.784-.224l.32,1.216a14.524,14.524,0,0,1,2.528-.192h6.08V-.16h-9.792a18.078,18.078,0,0,1-3.136-.224l.32,1.248A16.974,16.974,0,0,1,127.872.64H152.7c.32,0,.416-.1.416-.288s-.128-.416-.96-1.056C150.528-2.08,150.3-2.24,150.08-2.24c-.192,0-.416.16-2.08,2.08Zm40.352-19.968a28.808,28.808,0,0,0,2.016-4.832c.96-.192,1.152-.416,1.152-.7,0-.416-.8-.7-3.456-1.216a17.473,17.473,0,0,1-.7,3.9,28.7,28.7,0,0,1-4.256,9.056c-.1.128.16.384.288.288a23.29,23.29,0,0,0,4.544-5.7h2.432a23.919,23.919,0,0,1-8.1,13.184c-.128.1.128.384.256.32,5.184-2.688,8.576-7.264,10.176-13.5h2.624c-1.44,9.152-5.376,14.976-11.168,18.976-.16.1.064.448.224.352,7.424-3.584,11.424-8.864,13.28-19.328h1.408c-.192,7.52-.544,12.8-1.472,16.32-.512,2.08-.8,2.4-2.08,2.4a34.089,34.089,0,0,1-4.1-.416c-.224-.032-.288.416-.064.48,2.72.7,3.424,1.248,3.648,2.272.128.48.192.576.576.576a3.818,3.818,0,0,0,2.368-.768,5.256,5.256,0,0,0,1.568-2.688c1.216-3.616,1.5-7.9,1.888-17.5.736-.48.864-.608.864-.8,0-.224-.1-.416-.608-.9-1.024-.928-1.28-1.024-1.5-1.024-.192,0-.384.128-1.376,1.248Zm-7.328,1.92H176.9c.32,0,.416-.1.416-.288,0-.224-.16-.448-.544-.768-1.056-.96-1.248-1.12-1.44-1.12s-.416.16-1.312,1.376h-.928V-25.12c.9-.384,1.088-.576,1.088-.832,0-.416-.288-.544-3.456-.928.1,1.248.128,2.592.128,7.872h-2.432c.288-.96.544-1.952.736-2.912.8-.224.992-.384.992-.64,0-.384-.8-.672-3.008-1.248a28.05,28.05,0,0,1-.32,3.36,37.45,37.45,0,0,1-2.048,8c-.064.192.288.32.416.16a18.739,18.739,0,0,0,3.008-5.92h2.656v.352c0,2.848,0,5.312-.032,7.456-1.12.288-2.24.512-3.3.7a12.7,12.7,0,0,1-2.144.192c.736,2.688,1.024,3.2,1.408,3.2.288,0,.48-.256.608-1.152,1.216-.384,2.336-.8,3.424-1.248-.032,6.336-.128,9.312-.128,10.464,0,.608.256.9,1.024.9,1.024,0,1.472-.384,1.472-1.152,0-1.216-.064-4.448-.1-11.2a26.018,26.018,0,0,0,3.936-2.208c.16-.1.064-.48-.128-.416-1.216.48-2.5.928-3.808,1.312ZM25.6,47.256c-4.064,7.1-9.856,11.1-20.384,13.792-.224.064-.128.576.1.544,11.3-1.5,17.856-5.28,22.656-13.536.992-.32,1.152-.448,1.152-.8,0-.192-.1-.384-.64-.864-1.184-.928-1.376-1.056-1.6-1.056-.192,0-.384.128-1.344,1.12H19.36c.512-.64.992-1.312,1.472-2.016.928-.1,1.248-.256,1.248-.576,0-.384-.416-.576-2.944-1.472a13.732,13.732,0,0,1-1.472,2.624A26.978,26.978,0,0,1,7.04,53.784c-.192.1.064.544.288.48a27.134,27.134,0,0,0,7.9-3.84A6.743,6.743,0,0,1,17.44,53.5c.32.864.512,1.056,1.024,1.056a1.27,1.27,0,0,0,1.152-1.376c0-1.312-1.408-2.528-3.84-3.168a23.7,23.7,0,0,0,2.912-2.752ZM19.136,36.824C15.744,42.872,10.368,47.384,2.4,50.456c-.224.1-.128.544.1.48,8.96-2.08,14.784-6.24,18.976-13.312,1.056-.352,1.184-.448,1.184-.736,0-.192-.128-.384-.608-.832-1.184-1.024-1.376-1.152-1.6-1.152-.192,0-.384.128-1.344,1.12H13.44c.384-.544.768-1.152,1.152-1.76.96-.128,1.216-.288,1.216-.608,0-.384-.768-.768-3.008-1.568a10.84,10.84,0,0,1-1.408,2.88,25.557,25.557,0,0,1-8.64,8.608c-.192.128.032.576.224.48a27.1,27.1,0,0,0,6.5-3.744,6.1,6.1,0,0,1,2.048,2.816c.288.64.48.864.9.864a1.213,1.213,0,0,0,1.088-1.28c0-1.216-1.28-2.3-3.584-2.784a20.542,20.542,0,0,0,2.912-3.1Zm42.656,1.632h9.12c.32,0,.416-.1.416-.32,0-.192-.128-.416-.64-.832-1.12-.928-1.376-1.056-1.632-1.056-.192,0-.416.16-1.472,1.408h-4.64a18.32,18.32,0,0,0,3.04-3.2c1.056-.1,1.248-.224,1.248-.576,0-.384-.544-.64-3.072-1.664a10.275,10.275,0,0,1-.608,2.144,23.277,23.277,0,0,1-1.536,3.3h-7.04a11.61,11.61,0,0,1-2.272-.224l.352,1.184a14.98,14.98,0,0,1,1.952-.16H59.68v3.552H55.84a12.125,12.125,0,0,1-2.336-.256l.32,1.216a12.44,12.44,0,0,1,2.048-.16H59.68v3.648H55.3a16.211,16.211,0,0,1-2.656-.224l.32,1.184a16.45,16.45,0,0,1,2.4-.16h4.32v5.92A46.662,46.662,0,0,1,52.7,55.608a14.486,14.486,0,0,1-2.3.448c1.12,2.56,1.44,3.008,1.7,3.008.288,0,.416-.224.512-1.216a40.317,40.317,0,0,0,7.072-4.064V58.3c0,.48-.128.64-.512.64-.96,0-2.3-.032-3.936-.192-.192-.032-.224.384-.032.416,2.624.576,3.1.992,3.264,1.824.1.512.192.608.48.608a3.453,3.453,0,0,0,2.048-.608,2.21,2.21,0,0,0,.9-1.888c0-1.152-.064-3.648-.288-11.232A21.606,21.606,0,0,0,64.7,55.1a21.783,21.783,0,0,0,4.384,4.512,1.832,1.832,0,0,0,1.056.512c.192,0,.288-.1.448-.576a2.137,2.137,0,0,1,1.472-1.44c.16-.064.224-.32.064-.384a15.992,15.992,0,0,1-6.272-3.9,13.187,13.187,0,0,1-.9-.992,22.881,22.881,0,0,0,3.9-2.5c1.024.1,1.344-.064,1.344-.352,0-.32-.512-.7-2.688-1.856a7.31,7.31,0,0,1-.672,1.408,14.694,14.694,0,0,1-2.24,2.816,18.538,18.538,0,0,1-2.56-5.088h9.344c.288,0,.416-.128.416-.32s-.128-.416-.7-.864c-1.248-1.088-1.472-1.248-1.664-1.248s-.512.192-1.664,1.632H61.792V42.808h7.2c.352,0,.448-.128.448-.32s-.16-.384-.672-.864c-1.12-.96-1.344-1.12-1.568-1.12-.192,0-.416.16-1.568,1.5h-3.84Zm-12.96,2.016h4c.352,0,.448-.1.448-.32,0-.16-.16-.416-.544-.768-1.12-1.088-1.312-1.248-1.5-1.248s-.416.16-1.312,1.536H48.832v-5.76c.9-.384,1.152-.608,1.152-.9,0-.416-.448-.576-3.488-.9a25.946,25.946,0,0,1,.224,4.1v3.456H44.448a11.534,11.534,0,0,1-2.24-.224l.32,1.184a12.335,12.335,0,0,1,2.016-.16H46.4A43.716,43.716,0,0,1,41.728,53.72c-.1.16.224.384.352.256a24.343,24.343,0,0,0,4.768-8.288c-.1,9.7-.256,14.144-.256,15.232,0,.576.288.8.992.8.864,0,1.376-.288,1.376-.928,0-1.7-.128-7.1-.128-16.448V43.9a6.326,6.326,0,0,1,1.408,3.36c.1.7.352.992.832.992a1.218,1.218,0,0,0,1.12-1.344c0-1.28-1.184-2.72-3.36-3.712ZM55.968,53.08a1.268,1.268,0,0,0,1.216-1.344c0-1.344-1.568-2.688-4.1-3.456-.16-.032-.384.192-.256.288A6.8,6.8,0,0,1,54.944,51.8C55.328,52.984,55.456,53.08,55.968,53.08Zm1.984-15.9A1.394,1.394,0,0,0,59.2,35.7c0-1.216-1.376-2.432-3.808-3.2-.128-.032-.32.128-.224.224a6.442,6.442,0,0,1,1.728,3.1C57.12,36.92,57.312,37.176,57.952,37.176Zm42.88,5.088v7.328H96.544a10.377,10.377,0,0,1-2.368-.224l.32,1.216a12.264,12.264,0,0,1,2.08-.192h4.256v8.9H94.3a13.742,13.742,0,0,1-2.72-.224l.32,1.216a17.724,17.724,0,0,1,2.5-.192h17.952c.32,0,.416-.1.416-.288s-.16-.384-.864-.992c-1.536-1.248-1.792-1.408-2.016-1.408-.192,0-.416.16-1.856,1.888h-4.8v-8.9h7.456c.32,0,.416-.1.416-.288s-.128-.416-.8-.96c-1.472-1.28-1.7-1.408-1.92-1.408-.192,0-.416.128-1.792,1.856h-3.36V42.264h8.288c.32,0,.416-.1.416-.32,0-.192-.128-.416-.8-.96-1.44-1.216-1.664-1.376-1.856-1.376s-.448.16-1.728,1.856h-4.32V34.456c.9-.32,1.152-.576,1.152-.832,0-.384-.352-.672-3.712-.992.128,1.184.16,3.2.16,6.624v2.208H96.608a34.609,34.609,0,0,0,1.376-3.9c.96-.288,1.056-.448,1.056-.736,0-.384-.128-.48-3.328-1.312A23.578,23.578,0,0,1,95.2,39.1a28.038,28.038,0,0,1-3.648,9.024c-.1.128.192.352.32.256a19.534,19.534,0,0,0,4.384-6.112Zm-8.64,1.024c.576,0,1.024-.576,1.024-1.376,0-1.184-.9-2.528-2.528-3.616-.1-.064-.288.032-.224.16a7.556,7.556,0,0,1,.928,3.392C91.392,42.9,91.616,43.288,92.192,43.288Zm-8.256,2.72c1.408,0,2.208-1.792,2.208-4.192a12.129,12.129,0,0,0-.32-2.752c-.032-.16-.352-.128-.352.032-.128,2.3-.544,3.328-1.952,4.352a1.47,1.47,0,0,0-.736,1.248A1.192,1.192,0,0,0,83.936,46.008ZM89.792,34.04c.864-.32,1.088-.576,1.088-.8,0-.416-.224-.512-3.52-.864a82.777,82.777,0,0,1,.16,8.48c0,13.5-.16,18.368-.16,19.872,0,.64.384.928,1.152.928.928,0,1.408-.384,1.408-1.152,0-1.6-.128-6.688-.128-18.784Zm49.056,10.048A2.736,2.736,0,1,0,141.6,46.84,2.725,2.725,0,0,0,138.848,44.088Zm38.976,15.3h11.2v.928c0,.544.256.832,1.024.832.928,0,1.408-.32,1.408-1.024,0-.576-.128-2.56-.128-6.5V51.672c.832-.576.9-.7.9-.928,0-.192-.128-.384-.608-.832-1.056-.832-1.216-.96-1.44-.96-.192,0-.352.128-1.408,1.248h-4.32V43.64h9.664c.32,0,.416-.1.416-.32,0-.192-.128-.384-.768-.928-1.472-1.248-1.664-1.408-1.888-1.408-.192,0-.416.16-1.824,1.856h-5.6V36.408a35.57,35.57,0,0,0,5.76-1.792c1.216.288,1.536.032,1.536-.224,0-.288-.512-.8-2.368-2.272a11.028,11.028,0,0,1-2.816,1.7,48.79,48.79,0,0,1-11.936,3.3c-.224.032-.16.48.064.48a58.816,58.816,0,0,0,7.456-.736V42.84h-5.792a11.768,11.768,0,0,1-2.528-.224l.32,1.216a14.054,14.054,0,0,1,2.208-.192h5.792V50.2h-4a14.946,14.946,0,0,0-2.784-1.344,42.963,42.963,0,0,1,.192,5.312c0,4.32-.1,5.6-.1,6.336,0,.576.288.8.96.8.928,0,1.408-.32,1.408-1.024Zm11.2-.8h-11.2V51h11.2ZM168.96,61.112c.928,0,1.632-.8,1.632-2.08,0-1.5-1.12-3.1-1.12-4.512a7.05,7.05,0,0,1,.416-2.016c1.376-3.872,2.528-7.232,3.936-11.68.064-.16-.32-.32-.384-.16A113.638,113.638,0,0,1,168.256,51.9c-.48.864-.928,1.024-1.536,1.024a7.974,7.974,0,0,1-1.376-.16c-.192-.032-.256.384-.064.448,2.144.576,2.56,1.12,2.56,2.944,0,1.152-.224,2.144-.224,3.264S168.1,61.112,168.96,61.112Zm2.5-23.168c.576,0,1.12-.48,1.12-1.376,0-1.6-1.952-3.008-5.024-3.392-.128,0-.256.192-.16.256a8.082,8.082,0,0,1,2.784,3.232C170.624,37.656,170.848,37.944,171.456,37.944Zm-2.4,7.392a1.311,1.311,0,0,0,1.216-1.472c0-1.536-1.92-2.88-4.9-3.3-.128-.032-.256.224-.16.288a6.986,6.986,0,0,1,2.592,3.136C168.224,44.952,168.512,45.336,169.056,45.336Zm54.656-3.072v7.328h-4.288a10.377,10.377,0,0,1-2.368-.224l.32,1.216a12.264,12.264,0,0,1,2.08-.192h4.256v8.9h-6.528a13.742,13.742,0,0,1-2.72-.224l.32,1.216a17.725,17.725,0,0,1,2.5-.192h17.952c.32,0,.416-.1.416-.288s-.16-.384-.864-.992c-1.536-1.248-1.792-1.408-2.016-1.408-.192,0-.416.16-1.856,1.888h-4.8v-8.9h7.456c.32,0,.416-.1.416-.288s-.128-.416-.8-.96c-1.472-1.28-1.7-1.408-1.92-1.408-.192,0-.416.128-1.792,1.856h-3.36V42.264H234.4c.32,0,.416-.1.416-.32,0-.192-.128-.416-.8-.96-1.44-1.216-1.664-1.376-1.856-1.376s-.448.16-1.728,1.856h-4.32V34.456c.9-.32,1.152-.576,1.152-.832,0-.384-.352-.672-3.712-.992.128,1.184.16,3.2.16,6.624v2.208h-4.224a34.611,34.611,0,0,0,1.376-3.9c.96-.288,1.056-.448,1.056-.736,0-.384-.128-.48-3.328-1.312a23.58,23.58,0,0,1-.512,3.584,28.038,28.038,0,0,1-3.648,9.024c-.1.128.192.352.32.256a19.534,19.534,0,0,0,4.384-6.112Zm-8.64,1.024c.576,0,1.024-.576,1.024-1.376,0-1.184-.9-2.528-2.528-3.616-.1-.064-.288.032-.224.16a7.557,7.557,0,0,1,.928,3.392C214.272,42.9,214.5,43.288,215.072,43.288Zm-8.256,2.72c1.408,0,2.208-1.792,2.208-4.192a12.129,12.129,0,0,0-.32-2.752c-.032-.16-.352-.128-.352.032-.128,2.3-.544,3.328-1.952,4.352a1.47,1.47,0,0,0-.736,1.248A1.192,1.192,0,0,0,206.816,46.008Zm5.856-11.968c.864-.32,1.088-.576,1.088-.8,0-.416-.224-.512-3.52-.864a82.773,82.773,0,0,1,.16,8.48c0,13.5-.16,18.368-.16,19.872,0,.64.384.928,1.152.928.928,0,1.408-.384,1.408-1.152,0-1.6-.128-6.688-.128-18.784Zm43.3,3.584a9.532,9.532,0,0,1,2.048-.224h7.168c-.128,1.12-.256,2.24-.48,3.712h-1.152a14.636,14.636,0,0,0-2.528-1.312c.1,1.7.128,3.3.128,6.56,0,6.688-.16,8.64-.16,9.824,0,.608.288.832,1.024.832.864,0,1.28-.288,1.28-.96v-.832h7.776v.768c0,.608.224.864.96.864.864,0,1.344-.352,1.344-1.056,0-.928-.128-3.872-.128-9.792V42.584c.736-.384.9-.608.9-.832,0-.192-.128-.416-.608-.8-1.056-.832-1.248-.96-1.472-.96-.192,0-.352.1-1.248,1.12h-4.288c.352-1.216.64-2.432.9-3.712h8.64c.32,0,.416-.1.416-.288,0-.224-.16-.416-.7-.9-1.248-1.12-1.44-1.28-1.664-1.28-.192,0-.48.16-1.632,1.664h-4.9l.448-2.528c.864-.288,1.12-.48,1.12-.768,0-.384-.288-.544-3.648-.96a16.643,16.643,0,0,1-.064,2.208l-.192,2.048h-7.3a11.776,11.776,0,0,1-2.3-.192Zm7.328,16.8V50.488h7.776v3.936Zm7.776-12.512v3.552H263.3V41.912Zm0,4.352v3.424H263.3V46.264Zm-18.528-2.592c.768-.32.928-.512.928-.736,0-.352-.32-.48-2.016-.768a39.542,39.542,0,0,0,3.52-7.84c1.056-.256,1.28-.384,1.28-.7,0-.384-.7-.736-3.552-1.472a19.622,19.622,0,0,1-.864,4.384,38.683,38.683,0,0,1-5.5,11.328c-.128.192.224.544.384.384a27.406,27.406,0,0,0,3.584-4.256c0,2.144-.032,4.256-.032,6.112,0,7.264-.192,10.144-.192,10.816,0,.7.288.96,1.12.96.928,0,1.376-.32,1.376-1.088,0-1.088-.032-4.7-.032-12.384ZM258.08,58.68V42.648c.864-.384.96-.544.96-.832,0-.448-.224-.544-3.36-.928.1,1.28.1,2.4.1,5.888,0,9.152-.1,12.8-.1,13.92,0,.736.224.928,1.024.928.96,0,1.408-.32,1.408-1.056V59.48h17.952c.288,0,.416-.1.416-.32,0-.192-.16-.384-.736-.9-1.28-1.024-1.536-1.184-1.728-1.184s-.48.16-1.728,1.6Z" transform="translate(30 198.011)"/>
      <g id="グループ_710" data-name="グループ 710" transform="translate(30 286.991)">
        <rect id="長方形_13404" data-name="長方形 13404" width="141.313" height="40.37" transform="translate(0 0)" fill="#2f2013"/>
        <path id="パス_4378" data-name="パス 4378" d="M8.424-8.424A5.291,5.291,0,0,1,11.568-7.1a3.6,3.6,0,0,1,1.176,2.736A3.983,3.983,0,0,1,12.06-2.1a4.687,4.687,0,0,1-1.9,1.608A6.1,6.1,0,0,1,7.464.1q-.7,0-1.608-.072Q5.544,0,5.064-.024T3.984-.048L2.256-.024Q1.8,0,1.008,0,.936,0,.936-.144t.072-.144A3.772,3.772,0,0,0,2.16-.42.879.879,0,0,0,2.7-.888a2.659,2.659,0,0,0,.156-1.056V-13.056A2.673,2.673,0,0,0,2.7-14.1a.872.872,0,0,0-.528-.48,3.649,3.649,0,0,0-1.14-.132q-.048,0-.048-.144T1.032-15l1.248.024q1.056.048,1.7.048.672,0,1.416-.072.264-.024.636-.048t.852-.024a5.518,5.518,0,0,1,3.276.828,2.675,2.675,0,0,1,1.14,2.292,3.21,3.21,0,0,1-.756,2.064A4.942,4.942,0,0,1,8.424-8.424ZM6.48-14.592a1.367,1.367,0,0,0-1.044.312,2.035,2.035,0,0,0-.276,1.272v4.56l1.008.024A2.542,2.542,0,0,0,8.3-9.348a3.772,3.772,0,0,0,.72-2.388,3.117,3.117,0,0,0-.648-2.112A2.379,2.379,0,0,0,6.48-14.592ZM7.08-.456q3.24,0,3.24-3.336A4.339,4.339,0,0,0,9.372-6.72,3.453,3.453,0,0,0,6.6-7.824q-.864,0-1.44.048v5.832A2.106,2.106,0,0,0,5.3-1.08a.936.936,0,0,0,.552.468A3.627,3.627,0,0,0,7.08-.456ZM21.144-1.944a3.5,3.5,0,0,0,.12,1.08.723.723,0,0,0,.492.456,4.228,4.228,0,0,0,1.188.12q.072,0,.072.144T22.944,0q-.768,0-1.224-.024L19.944-.048l-1.728.024Q17.76,0,16.968,0,16.9,0,16.9-.144t.072-.144a4.228,4.228,0,0,0,1.188-.12.794.794,0,0,0,.516-.468,2.964,2.964,0,0,0,.144-1.068V-13.056a2.861,2.861,0,0,0-.144-1.056.835.835,0,0,0-.516-.468,3.862,3.862,0,0,0-1.188-.132q-.072,0-.072-.144T16.968-15l1.248.024q1.056.048,1.728.048.744,0,1.8-.048l1.2-.024q.072,0,.072.144t-.072.144a3.46,3.46,0,0,0-1.164.144.83.83,0,0,0-.5.492,3.213,3.213,0,0,0-.132,1.068ZM34.752.288A7.569,7.569,0,0,1,30.78-.756a7.151,7.151,0,0,1-2.688-2.832,8.2,8.2,0,0,1-.948-3.9,7.144,7.144,0,0,1,1.248-4.236,7.82,7.82,0,0,1,3.2-2.652,9.575,9.575,0,0,1,4-.888A7.467,7.467,0,0,1,39.6-14.2a7.238,7.238,0,0,1,2.652,2.82,7.861,7.861,0,0,1,.924,3.72,7.357,7.357,0,0,1-1.152,4.008A8.277,8.277,0,0,1,38.94-.768,8.593,8.593,0,0,1,34.752.288Zm.816-.576a4.462,4.462,0,0,0,2.58-.78,5.211,5.211,0,0,0,1.8-2.292,8.956,8.956,0,0,0,.66-3.6,10.187,10.187,0,0,0-.732-3.96,6.27,6.27,0,0,0-2.088-2.736,5.27,5.27,0,0,0-3.18-.984A4.3,4.3,0,0,0,31-12.972a7.41,7.41,0,0,0-1.284,4.62,10.81,10.81,0,0,0,.756,4.128,6.889,6.889,0,0,0,2.088,2.892A4.755,4.755,0,0,0,35.568-.288ZM50.712-14.5a3.362,3.362,0,0,0-2.412.9,5.814,5.814,0,0,0-1.452,2.724q0,.048-.132.048t-.132-.072q.1-.936.216-2.412t.12-2.22q0-.12.132-.12t.132.12q0,.528,1.344.528,2.064.072,4.824.072,1.416,0,3-.048L57.984-15a5.311,5.311,0,0,0,1.332-.12.735.735,0,0,0,.54-.48A.129.129,0,0,1,60-15.7q.12,0,.12.1-.072.744-.144,2.256T59.9-10.9q0,.072-.132.072t-.156-.072a4.548,4.548,0,0,0-1.128-2.724,3.268,3.268,0,0,0-2.4-.876,3.066,3.066,0,0,0-1,.12.684.684,0,0,0-.432.42,3.027,3.027,0,0,0-.108.948V-1.944A2.95,2.95,0,0,0,54.7-.864a.816.816,0,0,0,.576.456,5.6,5.6,0,0,0,1.368.12q.072,0,.072.144T56.64,0q-.84,0-1.32-.024L53.352-.048,51.48-.024Q50.976,0,50.088,0q-.048,0-.048-.144t.048-.144a5.76,5.76,0,0,0,1.38-.12.853.853,0,0,0,.6-.468,2.754,2.754,0,0,0,.156-1.068V-13.056a2.543,2.543,0,0,0-.12-.912.727.727,0,0,0-.432-.408A2.854,2.854,0,0,0,50.712-14.5ZM79.7-.288q.072,0,.072.144T79.7,0H75.84q-.552,0-2.052-2t-3.66-5.6a4.289,4.289,0,0,1-.792.072q-.888,0-1.248-.024v5.616a3.2,3.2,0,0,0,.132,1.08.759.759,0,0,0,.5.456,4.228,4.228,0,0,0,1.188.12q.048,0,.048.144T69.912,0q-.792,0-1.224-.024L66.912-.048l-1.728.024Q64.728,0,63.936,0q-.072,0-.072-.144t.072-.144a4.228,4.228,0,0,0,1.188-.12.794.794,0,0,0,.516-.468,2.964,2.964,0,0,0,.144-1.068V-13.056a3.1,3.1,0,0,0-.132-1.056.8.8,0,0,0-.516-.468,3.878,3.878,0,0,0-1.176-.132q-.048,0-.048-.144T63.96-15l1.248.024q1.056.048,1.7.048.72,0,1.512-.072.288-.024.7-.048t.888-.024a5.771,5.771,0,0,1,3.288.792,2.553,2.553,0,0,1,1.152,2.232,3.786,3.786,0,0,1-.672,2.136A5.2,5.2,0,0,1,72.024-8.28q1.968,3.024,3.3,4.74a13.306,13.306,0,0,0,2.364,2.484A3.392,3.392,0,0,0,79.7-.288ZM68.088-8.232a8.623,8.623,0,0,0,1.392.1A2.6,2.6,0,0,0,71.5-8.784a3.651,3.651,0,0,0,.576-2.376,4.231,4.231,0,0,0-.648-2.7,2.272,2.272,0,0,0-1.824-.756,1.634,1.634,0,0,0-1.188.336,1.858,1.858,0,0,0-.324,1.272ZM93.144-3.744q0-.048.1-.048a.252.252,0,0,1,.132.036q.06.036.06.06a25.742,25.742,0,0,0-.24,3.336.423.423,0,0,1-.072.276A.375.375,0,0,1,92.832,0H82.416q-.072,0-.072-.144t.072-.144A4.228,4.228,0,0,0,83.6-.408a.757.757,0,0,0,.5-.468,3.213,3.213,0,0,0,.132-1.068V-13.056a3.1,3.1,0,0,0-.132-1.056.8.8,0,0,0-.516-.468,3.878,3.878,0,0,0-1.176-.132q-.072,0-.072-.144T82.416-15H92.4q.24,0,.24.216l.048,3.12q0,.048-.132.072T92.4-11.64a3.1,3.1,0,0,0-3.336-2.736H88.1a1.876,1.876,0,0,0-1.224.312,1.336,1.336,0,0,0-.36,1.056v4.9h2.3q2.64,0,2.64-1.776,0-.072.132-.072t.132.072L91.7-7.8l.024,1.128q.048.768.048,1.248,0,.048-.144.048t-.144-.048q0-2.064-2.688-2.064H86.52V-2.04a1.586,1.586,0,0,0,.3,1.1,1.456,1.456,0,0,0,1.068.312h1.176A3.864,3.864,0,0,0,93.144-3.744Zm18.7,3.456q.072,0,.072.144T111.84,0q-.672,0-1.032-.024l-1.416-.024-1.944.024Q107.016,0,106.224,0q-.072,0-.072-.144t.072-.144q.936,0,.936-.408a.994.994,0,0,0-.216-.528l-3.408-5.232-2.4,3.408A3.688,3.688,0,0,0,100.32-1.2a.779.779,0,0,0,.336.672,1.685,1.685,0,0,0,.984.24q.048,0,.048.144T101.64,0q-.768,0-1.176-.024L98.736-.048l-1.1.024Q97.344,0,96.672,0,96.6,0,96.6-.144t.072-.144A3.182,3.182,0,0,0,98.436-1a9.356,9.356,0,0,0,2.052-2.172l2.76-3.744L99.384-12.84a5.289,5.289,0,0,0-1.248-1.44,2.209,2.209,0,0,0-1.32-.432q-.072,0-.072-.144T96.816-15l.984.024q.672.048.984.048.816,0,2.064-.048l1.32-.024q.048,0,.048.144t-.048.144a2.318,2.318,0,0,0-.72.084.32.32,0,0,0-.24.324,1.225,1.225,0,0,0,.216.552l3.288,5.04,2.232-3.168a3.751,3.751,0,0,0,.84-1.92q0-.912-1.3-.912-.048,0-.048-.144t.048-.144l1.176.024q.96.048,1.728.048.48,0,1.1-.048l.96-.024q.072,0,.072.144t-.072.144a3.193,3.193,0,0,0-1.8.732,9.551,9.551,0,0,0-2.064,2.22L105-8.256l4.08,6.264a4.193,4.193,0,0,0,1.248,1.308A2.841,2.841,0,0,0,111.84-.288Z" transform="translate(13.068 27.648)" fill="#fff"/>
      </g>
      <path id="パス_4379" data-name="パス 4379" d="M13.824-12.32a18.305,18.305,0,0,0-4.64,3.488A5.593,5.593,0,0,0,7.616-5.088a4.237,4.237,0,0,0,2.592,3.936A15.69,15.69,0,0,0,16.864.032a45.991,45.991,0,0,0,5.984-.32c1.376-.224,1.76-.512,1.76-1.152,0-.512-.352-.9-1.056-1.216a3.539,3.539,0,0,0-1.376-.288,8.909,8.909,0,0,0-1.6.352,25.689,25.689,0,0,1-4.8.48c-2.368,0-4-.16-5.12-.768a2.725,2.725,0,0,1-1.6-2.4,4.648,4.648,0,0,1,2.176-3.744A19.82,19.82,0,0,1,16-11.648c1.76-.672,3.488-1.248,5.12-1.728.672-.192,1.28-.352,1.792-.48s.992-.384.992-.96a2.718,2.718,0,0,0-1.088-1.728,4.263,4.263,0,0,0-2.336-1.312c-.352,0-.672.256-.672.384,0,.1.1.128.288.256.544.352,1.024.864,1.024,1.216,0,.224-.128.32-.416.48-1.376.736-3.072,1.5-4.448,2.112a3.478,3.478,0,0,1-1.056.224c-.512,0-.736-.544-.8-1.376a42.778,42.778,0,0,1,.1-6.144,1.684,1.684,0,0,1,.224-.768,1.232,1.232,0,0,0,.352-.768,1.488,1.488,0,0,0-.608-1.152,4.76,4.76,0,0,0-2.784-1.216,1.952,1.952,0,0,0-1.184.448.829.829,0,0,0-.384.544c0,.128.064.16.224.192.288.032.416.032.768.1a1.8,1.8,0,0,1,.9.416c.224.256.256.48.288,1.184.128,2.688.16,5.056.32,6.72A3.2,3.2,0,0,0,13.824-12.32ZM63.264-5.7c-.16-2.816-.288-6.08-.288-9.536A24.944,24.944,0,0,0,67.3-16.32c.64-.224.928-.544.928-1.024,0-.544-.384-.9-1.44-.9a2.312,2.312,0,0,0-1.408.384,4.3,4.3,0,0,1-.864.416c-.448.128-.9.256-1.5.384,0-1.184.1-1.952.16-2.912a1.927,1.927,0,0,1,.448-1.28.91.91,0,0,0,.352-.736c0-.672-.7-1.088-1.376-1.44A4.548,4.548,0,0,0,60.48-24a3.069,3.069,0,0,0-1.216.352c-.224.128-.512.352-.512.512,0,.1.064.16.224.16a3.446,3.446,0,0,1,.7.064,3.935,3.935,0,0,1,.928.256c.448.224.512.608.576,1.472.032,1.248.1,2.528.1,4.512a27.829,27.829,0,0,1-4.928.48,3.3,3.3,0,0,1-2.784-1.216c-.16-.192-.288-.288-.416-.288a.347.347,0,0,0-.256.256,1.436,1.436,0,0,0,.128.544,3.471,3.471,0,0,0,3.68,2.24,36.379,36.379,0,0,0,4.576-.288c.032,2.944.1,5.824.128,8.736a14.384,14.384,0,0,0-3.008-.32c-2.88,0-4.544,1.472-4.544,3.232,0,1.792,1.824,3.168,4.384,3.168,3.1,0,4.992-1.312,4.992-3.648A16.264,16.264,0,0,1,66.464-1.44a1.819,1.819,0,0,0,1.216.576,1.02,1.02,0,0,0,1.056-1.152,1.464,1.464,0,0,0-.608-1.056A18.527,18.527,0,0,0,63.264-5.7ZM61.28-4.544a1.863,1.863,0,0,1,0,.608,2.118,2.118,0,0,1-.736,1.472,4.106,4.106,0,0,1-2.656.768c-2.112,0-3.008-.768-3.008-1.664,0-1.344,1.5-1.92,2.816-1.92A8.944,8.944,0,0,1,61.28-4.544ZM46.592-8.224a29.151,29.151,0,0,1,1.984-9.312,3.637,3.637,0,0,1,.7-1.376,1.363,1.363,0,0,0,.352-1.024,3.821,3.821,0,0,0-1.088-2.5A6.785,6.785,0,0,0,46.912-23.9a.729.729,0,0,0-.352-.1c-.192,0-.32.1-.32.256a.92.92,0,0,0,.224.48,4.1,4.1,0,0,1,.7,2.3,10.169,10.169,0,0,1-.48,2.752,47,47,0,0,0-1.6,10.656A17.72,17.72,0,0,0,46.272-.48,1.628,1.628,0,0,0,47.648.608a.807.807,0,0,0,.832-.9,5.136,5.136,0,0,0-.1-.96,7.6,7.6,0,0,1-.1-1.248,6.122,6.122,0,0,1,.256-1.536C49.024-5.76,49.632-7.9,50.4-10.4a2.235,2.235,0,0,0,.1-.384.378.378,0,0,0-.352-.352c-.16,0-.32.128-.416.384-.768,1.824-1.632,3.968-2.368,5.6-.128.288-.192.416-.32.416s-.224-.128-.288-.48A17.559,17.559,0,0,1,46.592-8.224ZM96.064-25.216c-4.576,0-7.328,3.648-7.328,5.856,0,1.024.448,1.28,1.088,1.28,1.056,0,2.272-.672,2.272-1.6a5.187,5.187,0,0,1,.512-2.752,3.568,3.568,0,0,1,3.328-1.76c2.816,0,4.1,2.176,4.1,4.832,0,2.752-1.824,4.416-3.3,6.272a9.425,9.425,0,0,0-2.016,6.56q0,.384.288.384c.672,0,.96-.224.96-.576A5.457,5.457,0,0,1,98.144-12.1c2.048-1.728,4.9-3.552,4.9-7.136C103.04-22.624,100.576-25.216,96.064-25.216ZM95.3-3.04A1.976,1.976,0,0,0,93.28-.992,1.955,1.955,0,0,0,95.3.96,1.967,1.967,0,0,0,97.28-.992,1.989,1.989,0,0,0,95.3-3.04Z" transform="translate(186.07 318.521)"/>
    </g>
    <g id="グループ_709" data-name="グループ 709" transform="translate(-76 -144.854)">
      <path id="パス_4380" data-name="パス 4380" d="M7.518-.56V-6.2h4.83V-7.224H7.518v-4.438H6.426v4.438H1.666V-6.2h4.76V-.56H.784V.462h12.46V-.56ZM13.3,7.374H9.394V6.3H8.4V7.374H4.634v.84H13.3Zm-.014,2.45a15.881,15.881,0,0,0-2.814-1.5l-.658.518A17.484,17.484,0,0,1,12.6,10.412ZM7.238,8.368A10.05,10.05,0,0,1,4.592,9.8a6.082,6.082,0,0,1,.672.672A12.993,12.993,0,0,0,8.078,8.676Zm-2.968,5.6-1.134.546V10.636H4.354V9.67H3.136V6.464H2.184V9.67H.77v.966H2.184v4.326c-.658.308-1.246.588-1.722.784l.406.98c1.064-.546,2.408-1.218,3.668-1.862Zm3.556-.8H10.01v.854H7.826Zm0-1.6H10.01V12.4H7.826Zm4.648,3.542a18.632,18.632,0,0,1-1.82,1.232,6.142,6.142,0,0,1-.84-1.512h3.472v-.812H10.92V13.17H12.6V12.4H10.92v-.826h1.988V10.79H10.92V9.81h-.91v.98H7.826V9.81h-.91v.98H5v.784H6.916V12.4H5.32v.77h1.6v.854H4.592v.812H7.616a12.311,12.311,0,0,1-3.64,1.512,4.888,4.888,0,0,1,.588.77,18.141,18.141,0,0,0,1.918-.756v1.5c-.546.1-1.05.168-1.47.238l.182.854c1.3-.224,3.052-.546,4.76-.854L9.9,17.286l-2.506.42V15.9a8.408,8.408,0,0,0,1.526-1.064,6.378,6.378,0,0,0,4.018,4.242,4.327,4.327,0,0,1,.616-.8,5.49,5.49,0,0,1-2.408-1.386,15.267,15.267,0,0,0,1.96-1.232Zm-7.91,9.46A11.891,11.891,0,0,1,.378,29.84a6.051,6.051,0,0,1,.882.8,14.424,14.424,0,0,0,4.4-5.754Zm-1.918,4.97v1.008H5.5C5.18,32.92,4.41,35.132,1.12,36.224a4.129,4.129,0,0,1,.672.91c3.556-1.288,4.452-3.822,4.816-6.58H10.22c-.168,3.528-.364,4.928-.728,5.278-.126.154-.294.182-.588.182-.322,0-1.19-.014-2.1-.1a2.531,2.531,0,0,1,.35,1.036,20.056,20.056,0,0,0,2.2.028,1.4,1.4,0,0,0,1.078-.49c.476-.532.686-2.142.882-6.44.014-.14.028-.5.028-.5ZM8.414,24.94a18.515,18.515,0,0,0,4.34,5.572,5.353,5.353,0,0,1,.854-.924,14.814,14.814,0,0,1-4.214-5.04ZM5.88,49.884c-.294-.378-1.526-1.9-1.96-2.394V46.258H5.838v-.98H3.92v-3H2.94v3H.77v.98H2.8A14.992,14.992,0,0,1,.448,51.522a6.3,6.3,0,0,1,.546.938A15.254,15.254,0,0,0,2.94,48.372V55.05h.98V48.722c.49.686,1.064,1.54,1.316,2Zm7.546-2.842H7.8V44.564a25.662,25.662,0,0,0,5-1.316l-.882-.8a23.014,23.014,0,0,1-4.242,1.232l-.882-.266V47.35c0,2.086-.154,4.9-1.722,6.972a3.107,3.107,0,0,1,.784.686c1.54-2.044,1.89-4.83,1.932-6.972h2.534v7.028h1.036V48.036h2.072Z" transform="translate(396 267)"/>
      <g id="グループ_505" data-name="グループ 505" transform="translate(227.295 -33)">
        <path id="パス_4381" data-name="パス 4381" d="M10.08-6.426v-.5h1.54c.616,0,1.134.028,1.288.042V-8.064a10.294,10.294,0,0,1-1.288.07H10.08v-1.75a10.614,10.614,0,0,1,.07-1.148H8.89a7.8,7.8,0,0,1,.07,1.148v1.75H4.97V-9.786a8.641,8.641,0,0,1,.07-1.022H3.794A8.646,8.646,0,0,1,3.85-9.786v1.792H2.338a10.264,10.264,0,0,1-1.4-.1v1.218c.168-.014.8-.056,1.4-.056H3.85v2.268c0,.532-.042,1.134-.056,1.274H5.026c-.014-.14-.056-.756-.056-1.274V-6.93H8.96v.588c0,3.92-1.274,5.124-3.822,6.1l.938.882C9.282-.784,10.08-2.7,10.08-6.426Zm.112,31.45-.742.322a16,16,0,0,1,1.134,1.946l.756-.35A21.7,21.7,0,0,0,10.192,25.024Zm1.54-.56-.742.322a14.718,14.718,0,0,1,1.162,1.932l.756-.35A20.031,20.031,0,0,0,11.732,24.464ZM3.906,25.5H2.6a7.588,7.588,0,0,1,.084,1.134v7.7c0,1.134.6,1.624,1.68,1.82a14.712,14.712,0,0,0,2.24.14A39.143,39.143,0,0,0,11.452,36V34.726a22.913,22.913,0,0,1-4.788.448,13.3,13.3,0,0,1-1.848-.112c-.686-.14-.98-.322-.98-1.036v-3.08a53.671,53.671,0,0,0,5.726-1.82c.42-.154.924-.378,1.316-.546l-.49-1.12a10.206,10.206,0,0,1-1.232.63A38.134,38.134,0,0,1,3.836,29.8V26.634A9.3,9.3,0,0,1,3.906,25.5ZM11.2,44.634l-.714-.546a3.834,3.834,0,0,1-1.05.112h-5.4c-.42,0-1.218-.056-1.414-.084V45.39c.154-.014.924-.07,1.414-.07h5.46a12.319,12.319,0,0,1-2.324,3.892A16.009,16.009,0,0,1,1.4,53.37l.9.938a17.748,17.748,0,0,0,5.46-4.088,32.324,32.324,0,0,1,3.85,4.158l.98-.84A38.835,38.835,0,0,0,8.5,49.352a17.719,17.719,0,0,0,2.352-4.1A4.016,4.016,0,0,1,11.2,44.634Z" transform="translate(132 299)"/>
        <path id="パス_4382" data-name="パス 4382" d="M1.428-6.062V-4.69c.434-.042,1.176-.07,1.946-.07H11.06c.63,0,1.218.056,1.5.07V-6.062c-.308.028-.812.07-1.512.07H3.374C2.59-5.992,1.848-6.034,1.428-6.062Z" transform="translate(134 304) rotate(90)"/>
      </g>
      <path id="パス_361" data-name="パス 361" d="M16998.705,4781.549V4854" transform="translate(-16577.705 -4530)" fill="none" stroke="#000" stroke-width="1"/>
      <path id="パス_362" data-name="パス 362" d="M16998.705,4781.55V4854" transform="translate(-16614.525 -4530)" fill="none" stroke="#000" stroke-width="1"/>
    </g>
  </g>
</svg>
