<svg xmlns="http://www.w3.org/2000/svg" width="284.428" height="112.493" viewBox="0 0 284.428 112.493">
  <g id="グループ_9864" data-name="グループ 9864" transform="translate(-61.072 -165.696)">
    <g id="グループ_712" data-name="グループ 712" transform="translate(28 18.635)">
      <path id="パス_4800" data-name="パス 4800" d="M24.576-18.432a5.484,5.484,0,0,0-3.232,1.056.511.511,0,0,0-.256.448.321.321,0,0,0,.32.32,1.371,1.371,0,0,0,.416-.16,4.61,4.61,0,0,1,1.92-.512,4.027,4.027,0,0,1,3.008,1.408.583.583,0,0,1,.16.352.411.411,0,0,1-.128.32,18.692,18.692,0,0,1-2.048,1.6c-.192.128-.256.224-.256.352a.275.275,0,0,0,.256.256,1.408,1.408,0,0,0,.32-.064c.512-.16.96-.352,1.6-.576a3.877,3.877,0,0,1,.928-.224,1.146,1.146,0,0,1,.736.256.978.978,0,0,0,.64.224.924.924,0,0,0,.96-.96,3.4,3.4,0,0,0-1.536-2.656A6.727,6.727,0,0,0,24.576-18.432Zm-12.96,1.248a16.789,16.789,0,0,1-3.744.544,2.925,2.925,0,0,1-2.3-1.248.551.551,0,0,0-.416-.256.316.316,0,0,0-.288.32,2.711,2.711,0,0,0,.48,1.184A3.254,3.254,0,0,0,8.1-15.072a18.079,18.079,0,0,0,3.52-.416c-.032,2.016-.1,3.968-.1,6.4C9.568-7.9,7.872-6.752,5.664-5.5a2.288,2.288,0,0,1-1.024.352.746.746,0,0,1-.48-.224,1.913,1.913,0,0,1-.48-.672.463.463,0,0,0-.32-.224c-.192,0-.288.32-.288.736A2.836,2.836,0,0,0,4.288-3.328a2.271,2.271,0,0,0,1.312.64.736.736,0,0,0,.7-.448A3.62,3.62,0,0,1,7.328-4.192,37.342,37.342,0,0,1,10.24-1.824,2.354,2.354,0,0,1,11.072-.7c.16.64.416.832.864.832.512,0,.864-.384,1.248-1.536a4.464,4.464,0,0,0,.224-1.408c0-.16-.032-.832-.064-1.216-.064-1.12-.128-2.72-.16-4.32.8-.48,1.664-.96,2.5-1.44a10.07,10.07,0,0,1,4.512-1.472A4.279,4.279,0,0,1,23.1-10.4,3.3,3.3,0,0,1,24.32-7.84a3.381,3.381,0,0,1-1.088,2.784A4.423,4.423,0,0,1,20.16-4a6.583,6.583,0,0,1-4.512-1.792.488.488,0,0,0-.384-.192.274.274,0,0,0-.256.256.983.983,0,0,0,.128.48A6.734,6.734,0,0,0,21.024-2.4,6.042,6.042,0,0,0,24.9-3.648a4.542,4.542,0,0,0,1.76-3.584,4.624,4.624,0,0,0-1.888-3.68,6.781,6.781,0,0,0-4.256-1.376,14.566,14.566,0,0,0-7.36,2.336c-.032-2.016.032-4.032.1-5.952A26.719,26.719,0,0,0,18.3-17.728a.937.937,0,0,0,.608-.864c0-.544-.544-.928-1.248-.928a2.743,2.743,0,0,0-1.856.608A9.233,9.233,0,0,1,13.28-17.7a13.128,13.128,0,0,1,.224-2.432,1.718,1.718,0,0,1,.608-.96.766.766,0,0,0,.32-.672c0-.48-.512-1.024-1.312-1.5a4.207,4.207,0,0,0-2.08-.7,2.27,2.27,0,0,0-1.376.416c-.256.192-.32.32-.32.448,0,.1.16.16.416.192a4.7,4.7,0,0,1,.928.16,1.085,1.085,0,0,1,.736.576A5.607,5.607,0,0,1,11.616-20Zm-.1,13.376c0,.48-.064.608-.32.608a3.079,3.079,0,0,1-.992-.32A14.568,14.568,0,0,1,8-4.736c1.024-.8,2.3-1.824,3.52-2.72ZM48-20.928a16.288,16.288,0,0,0-2.912-1.408c.16,1.92.16,3.68.16,7.04,0,6.208-.128,8.16-.128,9.28,0,.544.288.832,1.024.832,1.056,0,1.536-.288,1.536-1.056V-7.36h7.9c-.064,5.792-.16,8.32-.16,9.056,0,.672.32.96,1.152.96,1.088,0,1.536-.352,1.536-1.152,0-1.024-.064-3.072-.128-8.864h8.288v1.248c0,.576.32.832,1.024.832.992,0,1.472-.32,1.472-1.024,0-.9-.128-3.808-.128-9.728V-19.3c.864-.512.992-.736.992-.992,0-.192-.128-.384-.672-.832-1.12-.992-1.312-1.088-1.5-1.088-.224,0-.384.1-1.472,1.28H57.952V-24.96c.96-.384,1.12-.576,1.12-.832,0-.48-.384-.608-3.712-.928a45.737,45.737,0,0,1,.256,5.792Zm18.272,7.04V-8.16H57.984c0-1.92-.032-3.808-.032-5.728Zm-10.656,0c0,1.92,0,4.064-.032,5.728h-7.9v-5.728Zm2.336-6.24h8.32v5.44h-8.32Zm-2.336,0v5.44H47.68v-5.44ZM96.544.224a15.127,15.127,0,0,0,7.3-2.016A19.218,19.218,0,0,0,109.7-7.04a.917.917,0,0,0,.256-.64.348.348,0,0,0-.352-.288c-.128,0-.256.1-.416.256a21.992,21.992,0,0,1-5.024,3.776,17.526,17.526,0,0,1-7.168,2.08,4.474,4.474,0,0,1-2.784-.672c-.544-.512-.8-1.44-.8-3.04,0-1.664.128-4.8.32-7.776.16-2.56.352-4.512.544-6.048a1.528,1.528,0,0,1,.448-1.024,1.28,1.28,0,0,0,.448-.9,2.584,2.584,0,0,0-1.152-1.728,5.213,5.213,0,0,0-2.592-1.216,3.22,3.22,0,0,0-1.152.192c-.256.1-.384.256-.384.416s.128.192.384.288a5.223,5.223,0,0,1,1.12.512c.48.32.64.8.608,1.984-.064,2.56-.128,5.056-.224,7.584-.128,3.1-.256,6.144-.256,8.16C91.52-1.28,93.472.224,96.544.224ZM129.888-20a1.477,1.477,0,0,0,1.376-1.632c0-1.472-1.568-3.168-4.8-4.192-.16-.064-.384.16-.256.256a10.357,10.357,0,0,1,2.464,4.128C128.992-20.32,129.344-20,129.888-20Zm7.424-4.768a8.8,8.8,0,0,1-2.4-.288l.32,1.28a10.893,10.893,0,0,1,2.144-.192h4.448c-.608,8.736-3.424,14.912-9.184,19.808-.16.16.1.544.288.416a21.236,21.236,0,0,0,10.24-13.184,19.739,19.739,0,0,0,2.976,7.936,17.424,17.424,0,0,0,4.224,4.96c.576.48.96.736,1.184.736s.32-.1.48-.512c.448-1.152.768-1.536,1.6-1.856.16-.064.224-.288.064-.352a16.213,16.213,0,0,1-7.2-5.888,21.724,21.724,0,0,1-3.456-11.264c.992-.48,1.376-.832,1.376-1.12,0-.192-.128-.416-.48-.736-.8-.672-.96-.8-1.184-.8-.192,0-.352.128-1.248,1.056ZM131.3-12.128c.8-.576.9-.7.9-.9s-.128-.384-.608-.864c-1.056-.9-1.248-.992-1.472-.992-.192,0-.352.1-1.376,1.248h-1.92a9.736,9.736,0,0,1-2.5-.256l.32,1.312a7.958,7.958,0,0,1,2.176-.256h2.144v8.256a15.3,15.3,0,0,1-2.784,1.888,11.986,11.986,0,0,1-1.952.8c1.28,2.592,1.76,3.3,2.112,3.3.384,0,.544-.32.512-1.44A44.968,44.968,0,0,0,130.464-4.7a8.076,8.076,0,0,0,2.944,4.128c1.7,1.216,4.544,1.824,10.88,1.824,2.72,0,5.6-.064,8.128-.288.384-.032.544-.128.608-.512a1.817,1.817,0,0,1,1.12-1.824c.128-.064.128-.384-.032-.352a89.54,89.54,0,0,1-11.424.768c-4.736,0-7.04-.384-8.48-.9a5.183,5.183,0,0,1-2.912-2.72Zm56,2.272c.32-1.12.576-2.048.864-3.136a1.983,1.983,0,0,1,.576-1.056.964.964,0,0,0,.288-.736c0-.48-.48-1.056-1.216-1.6a5.783,5.783,0,0,0-2.4-1.056,1.778,1.778,0,0,0-.736.128c-.16.064-.32.192-.32.288s.064.192.224.256a4.6,4.6,0,0,1,1.184.672,1.384,1.384,0,0,1,.512,1.28,20.867,20.867,0,0,1-.9,4.288,29.842,29.842,0,0,0-8.1-1.632c.9-1.952,1.92-3.712,2.656-5.344.864-1.856,1.472-3.2,2.08-4.32.256-.448.48-.672.48-1.088,0-.352-.352-.672-.7-.864a3.911,3.911,0,0,0-1.568-.608,1.008,1.008,0,0,0-.736.448,2.523,2.523,0,0,1-1.344.8,15.816,15.816,0,0,1-3.68.832,1.477,1.477,0,0,1-1.248-.64,4.013,4.013,0,0,1-.512-.768c-.128-.224-.224-.352-.352-.352-.1,0-.192.1-.256.256a2.044,2.044,0,0,0-.16.768,4.339,4.339,0,0,0,.8,1.984,1.8,1.8,0,0,0,1.312.928,1.512,1.512,0,0,0,.7-.224,6.137,6.137,0,0,1,1.184-.544c.8-.32,1.824-.672,3.232-1.12.352-.1.448.032.352.288a94.7,94.7,0,0,1-4.064,9.632,10.831,10.831,0,0,0-5.5,1.6,5.1,5.1,0,0,0-2.592,4.032c0,1.952,1.056,2.688,2.528,2.688a3.9,3.9,0,0,0,2.784-1.152,22.725,22.725,0,0,0,4.032-5.92A21.759,21.759,0,0,1,184.832-8.8a20.62,20.62,0,0,1-3.072,5.376A18.642,18.642,0,0,1,176.8.7c-.288.16-.384.256-.384.448a.3.3,0,0,0,.32.288,1.72,1.72,0,0,0,.672-.16,17.348,17.348,0,0,0,5.344-3.424,18.194,18.194,0,0,0,3.872-5.76,25.045,25.045,0,0,1,3.9,2.592,2.324,2.324,0,0,0,1.28.64,1.128,1.128,0,0,0,1.12-1.088,1.88,1.88,0,0,0-.864-1.568A21.847,21.847,0,0,0,187.3-9.856ZM174.88-10.88a21.655,21.655,0,0,1-2.752,4.1A3.237,3.237,0,0,1,169.92-5.44a1.069,1.069,0,0,1-1.152-1.184,3.625,3.625,0,0,1,1.7-2.88A9.725,9.725,0,0,1,174.88-10.88ZM15.264,38.328a13.93,13.93,0,0,1,1.7-.064,9.269,9.269,0,0,1,5.952,2.08A8.075,8.075,0,0,1,25.6,46.456a9.04,9.04,0,0,1-2.88,6.624,17.787,17.787,0,0,1-8.7,4.064c-.416.1-.576.192-.576.448a.452.452,0,0,0,.448.384c3.9-.192,8.288-1.536,10.656-3.584a9.514,9.514,0,0,0-.1-14.752,11.77,11.77,0,0,0-7.424-2.464,13.677,13.677,0,0,0-10.24,4.192A11.643,11.643,0,0,0,3.776,48.92a7.028,7.028,0,0,0,1.472,4.736,2.953,2.953,0,0,0,2.4,1.28c1.344,0,2.336-.928,3.232-2.08a32.223,32.223,0,0,0,4.576-8.288,12.783,12.783,0,0,0,.832-3.744A3.74,3.74,0,0,0,15.264,38.328Zm-.864.1a1.984,1.984,0,0,1,.512,1.472,7,7,0,0,1-.448,2.528,34,34,0,0,1-4.576,8.32c-.928,1.248-1.568,1.824-2.24,1.824a1.8,1.8,0,0,1-1.5-1.088,5.523,5.523,0,0,1-.7-2.976,9.975,9.975,0,0,1,2.784-6.912A11.292,11.292,0,0,1,14.4,38.424Zm56.7-1.088c.32,0,.416-.1.416-.288s-.128-.416-.768-.928c-1.376-1.12-1.6-1.28-1.824-1.28-.192,0-.416.16-1.76,1.7H61.056V34.008c.832-.352,1.088-.608,1.088-.832,0-.352-.384-.576-3.552-.96a12.465,12.465,0,0,1,.16,2.3v2.016H53.12a11.092,11.092,0,0,1-2.432-.224l.32,1.216a13.241,13.241,0,0,1,2.112-.192h4.064a32.49,32.49,0,0,1-1.792,5.76h-.448a27.008,27.008,0,0,1-3.872-.192c.544,2.72.768,3.2,1.088,3.2s.448-.16.7-.928a111.317,111.317,0,0,0,13.76-1.984c.192.32.352.672.544,1.056.448.928.8,1.28,1.28,1.28.736,0,1.184-.64,1.184-1.44,0-1.728-2.336-3.744-6.24-4.9-.128-.032-.288.224-.192.288a11.732,11.732,0,0,1,3.008,3.04c-3.3.32-6.592.48-9.888.544A23.967,23.967,0,0,0,60,37.336Zm-22.848.576A1.328,1.328,0,0,0,49.472,36.5c0-1.568-1.824-2.88-4.928-3.328-.128-.032-.224.192-.128.256a7.219,7.219,0,0,1,2.592,3.2C47.52,37.752,47.712,37.912,48.256,37.912ZM46.24,45.3a1.341,1.341,0,0,0,1.216-1.376c0-1.472-1.824-2.816-4.928-3.264-.128-.032-.224.224-.128.288a7.256,7.256,0,0,1,2.624,3.1C45.472,45.112,45.664,45.3,46.24,45.3Zm14.4,2.976c.832-.384.96-.576.96-.8,0-.384-.16-.48-3.264-.832a50.677,50.677,0,0,1,.16,5.472c0,4.832-.128,7.136-.128,7.744s.288.832,1.024.832c.928,0,1.408-.32,1.408-.96,0-.8-.16-3.392-.16-8.544Zm5.632-.1c.9-.416,1.024-.576,1.024-.832,0-.384-.448-.544-3.328-.832.128,1.824.16,3.84.16,7.1,0,2.848-.064,3.616-.064,4.288,0,2.08.8,2.912,3.648,2.912A10.889,10.889,0,0,0,71.1,60.44a1.572,1.572,0,0,0,1.12-1.408.931.931,0,0,0-.544-.928.729.729,0,0,1-.448-.8c0-.352.128-2.08.192-3.008,0-.128-.288-.192-.32-.064-.736,2.72-1.12,3.616-1.536,4.1-.32.352-.768.416-1.728.416-1.408,0-1.568-.192-1.568-.992Zm-10.816.1c.8-.352.96-.544.96-.8,0-.384-.288-.48-3.36-.8a20.393,20.393,0,0,1,.16,2.944,16.217,16.217,0,0,1-1.184,6.784A12.2,12.2,0,0,1,48,61.112c-.192.128.1.512.288.416A12.2,12.2,0,0,0,53.5,57.24,12.6,12.6,0,0,0,55.456,50.1ZM45.92,61.272c.928,0,1.632-.8,1.632-2.08,0-1.472-1.12-3.072-1.12-4.48a6.07,6.07,0,0,1,.384-2.048c1.376-3.648,2.528-6.752,3.968-11.008.064-.192-.384-.352-.448-.16-2.176,5.056-3.9,8.544-5.024,10.56a1.58,1.58,0,0,1-1.5.928,9.057,9.057,0,0,1-1.408-.192c-.192-.032-.288.384-.1.448,2.112.7,2.528,1.216,2.528,3.008,0,1.12-.224,2.144-.224,3.264C44.608,60.664,45.088,61.272,45.92,61.272Zm46.912-15.84a13.867,13.867,0,0,1,1.408-2.4.95.95,0,0,0,.32-.608,1,1,0,0,0-.352-.64c-.288-.288-.48-.384-.64-.384a1.449,1.449,0,0,0-.512.1c.064-1.6.192-2.72.256-3.392a1.926,1.926,0,0,1,.48-1.12.948.948,0,0,0,.352-.736c0-.672-.48-1.056-1.184-1.536a4.558,4.558,0,0,0-2.4-.9,1.813,1.813,0,0,0-.928.224c-.256.16-.288.256-.288.384s.064.192.48.32c1.472.48,1.728.864,1.728,2.24,0,1.024-.1,3.2-.16,5.12-.832.384-1.824.768-2.752,1.12a3.368,3.368,0,0,1-1.152.256c-.48,0-.832-.192-1.472-1.088-.128-.192-.224-.288-.384-.288-.128,0-.224.32-.224.7a3.656,3.656,0,0,0,.96,1.92,1.773,1.773,0,0,0,1.248.768,1.149,1.149,0,0,0,.832-.448,13.864,13.864,0,0,1,2.88-1.472c-.032.736-.064,1.568-.128,2.592a38.006,38.006,0,0,1-5.12,6.912c-.256.256-.512.48-.672.64a2.366,2.366,0,0,0-.736,1.568c0,.7.288,1.056.8,1.088a1.119,1.119,0,0,0,.928-.512c.288-.352.576-.8,1.28-1.76a24.282,24.282,0,0,1,2.432,2.976,5.935,5.935,0,0,1,.9,2.176c.128.576.416.832.8.832.736,0,1.184-.992,1.184-2.368a9.8,9.8,0,0,0-.064-1.152c-.032-.416-.064-.928-.1-1.376q-.1-1.776-.1-2.208c-.032-1.376-.032-3.168-.032-4.96a52.4,52.4,0,0,1,5.472-5.536c1.6-1.408,2.976-2.336,4-2.336.8,0,1.12.512,1.12,2.3,0,1.248-.16,2.752-.352,4.832-.224,2.56-.384,4.8-.384,6.4,0,2.624,1.28,3.968,3.68,3.968a6,6,0,0,0,4-1.856,11.314,11.314,0,0,0,2.752-4.288,1.453,1.453,0,0,0,.128-.576.411.411,0,0,0-.352-.384c-.288,0-.448.256-.576.48-1.536,2.784-4.064,4.7-5.952,4.7-1.312,0-1.824-.48-1.824-2.112,0-1.248.256-3.712.544-6.112.256-1.92.64-3.968.64-5.216a3.177,3.177,0,0,0-3.232-3.392c-1.28,0-2.944,1.152-4.448,2.432a64.4,64.4,0,0,0-5.152,5.056Zm-4.672,8.1c.736-1.12,1.952-2.784,3.04-4.224-.032,1.856-.032,4.1-.032,6.3,0,.256-.1.32-.32.16C90.08,55.16,88.992,54.3,88.16,53.528Z" transform="translate(30 198.011)"/>
    </g>
    <g id="グループ_709" data-name="グループ 709" transform="translate(-76 -85.854)">
      <path id="パス_4807" data-name="パス 4807" d="M7.518-.56V-6.2h4.83V-7.224H7.518v-4.438H6.426v4.438H1.666V-6.2h4.76V-.56H.784V.462h12.46V-.56ZM13.3,7.374H9.394V6.3H8.4V7.374H4.634v.84H13.3Zm-.014,2.45a15.881,15.881,0,0,0-2.814-1.5l-.658.518A17.484,17.484,0,0,1,12.6,10.412ZM7.238,8.368A10.05,10.05,0,0,1,4.592,9.8a6.082,6.082,0,0,1,.672.672A12.993,12.993,0,0,0,8.078,8.676Zm-2.968,5.6-1.134.546V10.636H4.354V9.67H3.136V6.464H2.184V9.67H.77v.966H2.184v4.326c-.658.308-1.246.588-1.722.784l.406.98c1.064-.546,2.408-1.218,3.668-1.862Zm3.556-.8H10.01v.854H7.826Zm0-1.6H10.01V12.4H7.826Zm4.648,3.542a18.632,18.632,0,0,1-1.82,1.232,6.142,6.142,0,0,1-.84-1.512h3.472v-.812H10.92V13.17H12.6V12.4H10.92v-.826h1.988V10.79H10.92V9.81h-.91v.98H7.826V9.81h-.91v.98H5v.784H6.916V12.4H5.32v.77h1.6v.854H4.592v.812H7.616a12.311,12.311,0,0,1-3.64,1.512,4.888,4.888,0,0,1,.588.77,18.141,18.141,0,0,0,1.918-.756v1.5c-.546.1-1.05.168-1.47.238l.182.854c1.3-.224,3.052-.546,4.76-.854L9.9,17.286l-2.506.42V15.9a8.408,8.408,0,0,0,1.526-1.064,6.378,6.378,0,0,0,4.018,4.242,4.327,4.327,0,0,1,.616-.8,5.49,5.49,0,0,1-2.408-1.386,15.267,15.267,0,0,0,1.96-1.232Zm-7.91,9.46A11.891,11.891,0,0,1,.378,29.84a6.051,6.051,0,0,1,.882.8,14.424,14.424,0,0,0,4.4-5.754Zm-1.918,4.97v1.008H5.5C5.18,32.92,4.41,35.132,1.12,36.224a4.129,4.129,0,0,1,.672.91c3.556-1.288,4.452-3.822,4.816-6.58H10.22c-.168,3.528-.364,4.928-.728,5.278-.126.154-.294.182-.588.182-.322,0-1.19-.014-2.1-.1a2.531,2.531,0,0,1,.35,1.036,20.056,20.056,0,0,0,2.2.028,1.4,1.4,0,0,0,1.078-.49c.476-.532.686-2.142.882-6.44.014-.14.028-.5.028-.5ZM8.414,24.94a18.515,18.515,0,0,0,4.34,5.572,5.353,5.353,0,0,1,.854-.924,14.814,14.814,0,0,1-4.214-5.04ZM5.88,49.884c-.294-.378-1.526-1.9-1.96-2.394V46.258H5.838v-.98H3.92v-3H2.94v3H.77v.98H2.8A14.992,14.992,0,0,1,.448,51.522a6.3,6.3,0,0,1,.546.938A15.254,15.254,0,0,0,2.94,48.372V55.05h.98V48.722c.49.686,1.064,1.54,1.316,2Zm7.546-2.842H7.8V44.564a25.662,25.662,0,0,0,5-1.316l-.882-.8a23.014,23.014,0,0,1-4.242,1.232l-.882-.266V47.35c0,2.086-.154,4.9-1.722,6.972a3.107,3.107,0,0,1,.784.686c1.54-2.044,1.89-4.83,1.932-6.972h2.534v7.028h1.036V48.036h2.072Z" transform="translate(396 267)"/>
      <g id="グループ_505" data-name="グループ 505" transform="translate(227.295 -33)">
        <path id="パス_4808" data-name="パス 4808" d="M10.08-6.426v-.5h1.54c.616,0,1.134.028,1.288.042V-8.064a10.294,10.294,0,0,1-1.288.07H10.08v-1.75a10.614,10.614,0,0,1,.07-1.148H8.89a7.8,7.8,0,0,1,.07,1.148v1.75H4.97V-9.786a8.641,8.641,0,0,1,.07-1.022H3.794A8.646,8.646,0,0,1,3.85-9.786v1.792H2.338a10.264,10.264,0,0,1-1.4-.1v1.218c.168-.014.8-.056,1.4-.056H3.85v2.268c0,.532-.042,1.134-.056,1.274H5.026c-.014-.14-.056-.756-.056-1.274V-6.93H8.96v.588c0,3.92-1.274,5.124-3.822,6.1l.938.882C9.282-.784,10.08-2.7,10.08-6.426Zm.112,31.45-.742.322a16,16,0,0,1,1.134,1.946l.756-.35A21.7,21.7,0,0,0,10.192,25.024Zm1.54-.56-.742.322a14.718,14.718,0,0,1,1.162,1.932l.756-.35A20.031,20.031,0,0,0,11.732,24.464ZM3.906,25.5H2.6a7.588,7.588,0,0,1,.084,1.134v7.7c0,1.134.6,1.624,1.68,1.82a14.712,14.712,0,0,0,2.24.14A39.143,39.143,0,0,0,11.452,36V34.726a22.913,22.913,0,0,1-4.788.448,13.3,13.3,0,0,1-1.848-.112c-.686-.14-.98-.322-.98-1.036v-3.08a53.671,53.671,0,0,0,5.726-1.82c.42-.154.924-.378,1.316-.546l-.49-1.12a10.206,10.206,0,0,1-1.232.63A38.134,38.134,0,0,1,3.836,29.8V26.634A9.3,9.3,0,0,1,3.906,25.5ZM11.2,44.634l-.714-.546a3.834,3.834,0,0,1-1.05.112h-5.4c-.42,0-1.218-.056-1.414-.084V45.39c.154-.014.924-.07,1.414-.07h5.46a12.319,12.319,0,0,1-2.324,3.892A16.009,16.009,0,0,1,1.4,53.37l.9.938a17.748,17.748,0,0,0,5.46-4.088,32.324,32.324,0,0,1,3.85,4.158l.98-.84A38.835,38.835,0,0,0,8.5,49.352a17.719,17.719,0,0,0,2.352-4.1A4.016,4.016,0,0,1,11.2,44.634Z" transform="translate(132 299)"/>
        <path id="パス_4809" data-name="パス 4809" d="M1.428-6.062V-4.69c.434-.042,1.176-.07,1.946-.07H11.06c.63,0,1.218.056,1.5.07V-6.062c-.308.028-.812.07-1.512.07H3.374C2.59-5.992,1.848-6.034,1.428-6.062Z" transform="translate(134 304) rotate(90)"/>
      </g>
      <path id="パス_361" data-name="パス 361" d="M16998.705,4781.549V4854" transform="translate(-16577.705 -4530)" fill="none" stroke="#000" stroke-width="1"/>
      <path id="パス_362" data-name="パス 362" d="M16998.705,4781.55V4854" transform="translate(-16614.525 -4530)" fill="none" stroke="#000" stroke-width="1"/>
    </g>
  </g>
</svg>
