<svg xmlns="http://www.w3.org/2000/svg" width="719.047" height="139.977" viewBox="0 0 719.047 139.977">
  <g id="グループ_934" data-name="グループ 934" transform="translate(-285.977 -212.022)">
    <g id="グループ_631" data-name="グループ 631" transform="translate(279.915 212.022)">
      <text id="土_壌_分_析" data-name="土
壌
分
析" transform="translate(51.06 17.978)" font-size="15" font-family="SourceHanSansJP-Regular, Source Han Sans JP" letter-spacing="0.08em"><tspan x="0" y="0">土</tspan><tspan x="0" y="19">壌</tspan><tspan x="0" y="38">分</tspan><tspan x="0" y="57">析</tspan></text>
      <g id="グループ_505" data-name="グループ 505" transform="translate(6.143 0)">
        <text id="サ_ビ_ス" data-name="サ

ビ
ス" transform="translate(2.292 17)" font-size="15" font-family="SourceHanSansJP-Regular, Source Han Sans JP" letter-spacing="0.08em"><tspan x="0" y="0">サ</tspan><tspan x="0" y="19"></tspan><tspan x="0" y="38">ビ</tspan><tspan x="0" y="57">ス</tspan></text>
        <text id="_ー" data-name="ー" transform="translate(3.918 23.064) rotate(90)" font-size="15" font-family="SourceHanSansJP-Regular, Source Han Sans JP" letter-spacing="0.08em"><tspan x="0" y="0">ー</tspan></text>
      </g>
      <path id="パス_361" data-name="パス 361" d="M16998.705,4781.548v82" transform="translate(-16919.646 -4780.57)" fill="none" stroke="#000" stroke-width="1"/>
      <path id="パス_499" data-name="パス 499" d="M16998.705,4781.548v82" transform="translate(-16960.645 -4780.57)" fill="none" stroke="#000" stroke-width="1"/>
    </g>
    <text id="土壌微生物多様性_活性値" data-name="土壌微生物多様性・活性値" transform="translate(401.023 273.022)" font-size="40" font-family="YuMin-Medium, YuMincho" font-weight="500" letter-spacing="0.28em"><tspan x="0" y="0">土壌微生物多様性・活性値</tspan></text>
    <text id="とは_" data-name="とは？" transform="translate(595.328 346.14)" font-size="40" font-family="YuMin-Medium, YuMincho" font-weight="500" letter-spacing="0.28em"><tspan x="0" y="0">とは？</tspan></text>
    <g id="グループ_635" data-name="グループ 635" transform="translate(400.973 303.266)">
      <rect id="長方形_13404" data-name="長方形 13404" width="183" height="44" transform="translate(-0.975 4.734)" fill="#2f2013"/>
      <text id="BIOTREX" transform="translate(9.024 37.734)" fill="#fff" font-size="35" font-family="Helvetica" letter-spacing="0.08em"><tspan x="0" y="0">BIOTREX</tspan></text>
    </g>
  </g>
</svg>
