<svg xmlns="http://www.w3.org/2000/svg" width="639.568" height="82" viewBox="0 0 639.568 82">
  <g id="グループ_1170" data-name="グループ 1170" transform="translate(-340.727 -281.958)">
    <g id="グループ_631" data-name="グループ 631" transform="translate(331.287 280.979)">
      <path id="パス_3253" data-name="パス 3253" d="M8.055-.6V-6.645H13.23V-7.74H8.055v-4.755H6.885V-7.74h-5.1v1.095h5.1V-.6H.84V.5H14.19V-.6ZM14.25,7.615H10.065V6.46H9V7.615H4.965v.9H14.25Zm-.015,2.625a17.016,17.016,0,0,0-3.015-1.6l-.705.555A18.733,18.733,0,0,1,13.5,10.87ZM7.755,8.68A10.768,10.768,0,0,1,4.92,10.21a6.517,6.517,0,0,1,.72.72A13.921,13.921,0,0,0,8.655,9.01Zm-3.18,6-1.215.585V11.11h1.3V10.075H3.36V6.64H2.34v3.435H.825V11.11H2.34v4.635c-.705.33-1.335.63-1.845.84l.435,1.05c1.14-.585,2.58-1.305,3.93-2Zm3.81-.855h2.34v.915H8.385Zm0-1.71h2.34V13H8.385Zm4.98,3.8a19.963,19.963,0,0,1-1.95,1.32,6.581,6.581,0,0,1-.9-1.62h3.72v-.87H11.7v-.915h1.8V13H11.7v-.885h2.13v-.84H11.7v-1.05h-.975v1.05H8.385v-1.05H7.41v1.05H5.355v.84H7.41V13H5.7v.825H7.41v.915H4.92v.87H8.16a13.19,13.19,0,0,1-3.9,1.62,5.237,5.237,0,0,1,.63.825,19.438,19.438,0,0,0,2.055-.81v1.6c-.585.1-1.125.18-1.575.255l.195.915c1.395-.24,3.27-.585,5.1-.915l-.06-.87-2.685.45V16.75a9.009,9.009,0,0,0,1.635-1.14,6.834,6.834,0,0,0,4.305,4.545,4.636,4.636,0,0,1,.66-.855,5.882,5.882,0,0,1-2.58-1.485,16.358,16.358,0,0,0,2.1-1.32ZM4.89,25.76A12.74,12.74,0,0,1,.405,31.4a6.483,6.483,0,0,1,.945.855A15.454,15.454,0,0,0,6.06,26.09ZM2.835,31.085v1.08h3.06c-.345,2.535-1.17,4.9-4.7,6.075a4.423,4.423,0,0,1,.72.975c3.81-1.38,4.77-4.1,5.16-7.05h3.87c-.18,3.78-.39,5.28-.78,5.655-.135.165-.315.195-.63.195-.345,0-1.275-.015-2.25-.1a2.712,2.712,0,0,1,.375,1.11,21.488,21.488,0,0,0,2.355.03,1.5,1.5,0,0,0,1.155-.525c.51-.57.735-2.3.945-6.9.015-.15.03-.54.03-.54Zm6.18-4.935a19.838,19.838,0,0,0,4.65,5.97,5.736,5.736,0,0,1,.915-.99,15.872,15.872,0,0,1-4.515-5.4ZM6.3,52.59c-.315-.4-1.635-2.04-2.1-2.565v-1.32H6.255v-1.05H4.2v-3.21H3.15v3.21H.825v1.05H3a16.063,16.063,0,0,1-2.52,5.64,6.746,6.746,0,0,1,.585,1A16.344,16.344,0,0,0,3.15,50.97v7.155H4.2v-6.78c.525.735,1.14,1.65,1.41,2.145Zm8.085-3.045H8.355V46.89a27.494,27.494,0,0,0,5.355-1.41l-.945-.855a24.659,24.659,0,0,1-4.545,1.32l-.945-.285v4.215c0,2.235-.165,5.25-1.845,7.47a3.329,3.329,0,0,1,.84.735C7.92,55.89,8.3,52.9,8.34,50.61h2.715v7.53h1.11V50.61h2.22Z" transform="translate(51.06 17.978)"/>
      <g id="グループ_505" data-name="グループ 505" transform="translate(6.143 0)">
        <path id="パス_3254" data-name="パス 3254" d="M10.8-6.885v-.54h1.65c.66,0,1.215.03,1.38.045V-8.64a11.029,11.029,0,0,1-1.38.075H10.8V-10.44a11.372,11.372,0,0,1,.075-1.23H9.525A8.362,8.362,0,0,1,9.6-10.44v1.875H5.325v-1.92a9.258,9.258,0,0,1,.075-1.1H4.065a9.264,9.264,0,0,1,.06,1.1v1.92H2.5A11,11,0,0,1,1-8.67v1.305c.18-.015.855-.06,1.5-.06h1.62v2.43c0,.57-.045,1.215-.06,1.365h1.32c-.015-.15-.06-.81-.06-1.365v-2.43H9.6v.63c0,4.2-1.365,5.49-4.095,6.54l1,.945C9.945-.84,10.8-2.895,10.8-6.885Zm.12,33.125-.8.345A17.142,17.142,0,0,1,11.34,28.67l.81-.375A23.246,23.246,0,0,0,10.92,26.24Zm1.65-.6-.795.345a15.769,15.769,0,0,1,1.245,2.07l.81-.375A21.462,21.462,0,0,0,12.57,25.64ZM4.185,26.75H2.79a8.13,8.13,0,0,1,.09,1.215v8.25c0,1.215.645,1.74,1.8,1.95a15.763,15.763,0,0,0,2.4.15A41.939,41.939,0,0,0,12.27,38V36.635a24.55,24.55,0,0,1-5.13.48,14.255,14.255,0,0,1-1.98-.12c-.735-.15-1.05-.345-1.05-1.11v-3.3a57.5,57.5,0,0,0,6.135-1.95c.45-.165.99-.405,1.41-.585l-.525-1.2a10.935,10.935,0,0,1-1.32.675,40.858,40.858,0,0,1-5.7,1.83v-3.39A9.961,9.961,0,0,1,4.185,26.75ZM12,46.965l-.765-.585a4.107,4.107,0,0,1-1.125.12H4.32c-.45,0-1.3-.06-1.515-.09v1.365c.165-.015.99-.075,1.515-.075h5.85a13.2,13.2,0,0,1-2.49,4.17A17.153,17.153,0,0,1,1.5,56.325l.96,1.005a19.016,19.016,0,0,0,5.85-4.38A34.633,34.633,0,0,1,12.435,57.4l1.05-.9A41.609,41.609,0,0,0,9.1,52.02a18.984,18.984,0,0,0,2.52-4.4A4.3,4.3,0,0,1,12,46.965Z" transform="translate(2.292 17)"/>
        <path id="パス_3255" data-name="パス 3255" d="M1.53-6.495v1.47C2-5.07,2.79-5.1,3.615-5.1H11.85c.675,0,1.3.06,1.6.075v-1.47c-.33.03-.87.075-1.62.075H3.615C2.775-6.42,1.98-6.465,1.53-6.495Z" transform="translate(3.918 23.064) rotate(90)"/>
      </g>
      <path id="パス_361" data-name="パス 361" d="M16998.705,4781.548v82" transform="translate(-16919.646 -4780.57)" fill="none" stroke="#000" stroke-width="1"/>
      <path id="パス_499" data-name="パス 499" d="M16998.705,4781.548v82" transform="translate(-16960.645 -4780.57)" fill="none" stroke="#000" stroke-width="1"/>
    </g>
    <path id="パス_3256" data-name="パス 3256" d="M28.75-28.3c-1.1-3.75-1.55-5.2-1.05-6.3.45-1,1.4-1.05,3.15-1.25.4-.05.5-.1.5-.65,0-.65-.1-.75-.5-.75-1.95.15-4.05.25-6.05.25s-4.25-.1-6.3-.25c-.45,0-.5.1-.5.75,0,.55.1.6.5.65,1.8.15,2.55.3,3.4,1.25a12.736,12.736,0,0,1,1.6,3.85c-.5,1.7-.9,3.15-1.85,6.15L18.1-13c-.9,2.95-1.25,4.2-1.7,5.6-.35-1.4-.65-2.65-1.55-5.7l-4.3-15.15c-.9-3.15-1.45-5.25-1-6.35.45-1,1.95-1.05,3.6-1.25.3-.05.45-.1.45-.65,0-.65-.1-.75-.45-.75-2,.15-5.05.25-7,.25-2.05,0-4.1-.1-6.2-.25-.35,0-.45.1-.45.8,0,.5.1.55.45.6,1.9.2,2.65.4,3.4,1.3.8,1,1.55,3.25,2.45,6.3L10.95-10.5C12.1-6.65,12.8-4,13.55-.9a.365.365,0,0,0,.35.3c.2,0,.4-.1,2.65-1.15.7-2.35,1.1-3.95,2.65-8.8L23.3-23.4c.55-1.7.95-3.1,1.3-4.35.35,1.25.7,2.7,1.2,4.5L29.65-10.5C30.9-6.45,31.6-3.8,32.4-.95a.421.421,0,0,0,.35.35A15.984,15.984,0,0,0,35.4-1.75c.65-2.5,1.05-4.05,2.45-8.85L43.1-28.3c.85-2.9,1.45-5.1,2.3-6.15a5.294,5.294,0,0,1,3.4-1.4c.35-.05.5-.1.5-.65,0-.65-.15-.75-.5-.75-1.65.15-3.1.25-4.9.25-1.85,0-4.5-.15-6.25-.25-.35,0-.45.1-.45.75,0,.55.1.6.45.65,1.75.2,3.05.4,3.55,1.4a2.72,2.72,0,0,1,.25,1.35,21.624,21.624,0,0,1-.85,4.8l-4,15.1c-.8,3-1.1,4.35-1.5,5.8-.5-1.55-.8-2.7-1.75-5.7Zm37.9,13.8c4.4-.1,9.6-.05,14.5.1a.867.867,0,0,0,.8-.25,1.132,1.132,0,0,0,.25-.85c-.15-3.35-2.95-8.85-9.25-8.85C66.5-24.35,62-18.85,62-12.3,62-5.55,66.45-.6,73-.6a9.484,9.484,0,0,0,8.7-4.8c.2-.3.25-.35.25-.5,0-.4-.65-.75-.85-.75a.51.51,0,0,0-.4.25,7.546,7.546,0,0,1-6.8,3.5c-3.3,0-7.4-3.3-7.4-9.65A13.953,13.953,0,0,1,66.65-14.5Zm.3-1.8c.9-3.95,3.05-6.6,6-6.6,3.1,0,4.45,3,4.7,5.65.05.45-.1.8-.5.8A99.183,99.183,0,0,1,66.95-16.3Zm66.1,7.6c0,2.9,0,4.4-.45,5.2-.35.8-1.25.8-2.6.95-.35.05-.45.2-.45.6,0,.45.1.55.45.55,1.7-.1,3.7-.15,5.35-.15,1.45,0,3.3.05,4.95.15.3,0,.4-.1.4-.55,0-.4-.05-.55-.4-.6-1.45-.15-2.4-.2-2.85-.95-.4-.75-.35-2.2-.35-5.2V-26.8c0-4.8.1-8.55.2-12.1,0-.25-.3-.35-.55-.35a74.341,74.341,0,0,1-7.2,2.1c-.45.1-.55.15-.55.7.05.6.2.65.65.6l1.3-.1a1.542,1.542,0,0,1,1.75,1.05,14.521,14.521,0,0,1,.35,4.1Zm35.6-15.65c-6.45,0-11,5.5-11,12,0,6.7,4.55,11.75,11,11.75,6.6,0,11-5.4,11-11.95C179.65-19.35,175.05-24.35,168.65-24.35Zm0,1.45c4.4,0,6.35,4.3,6.35,10.45,0,5.75-2.1,10.4-6.35,10.4-4.35,0-6.3-4.3-6.3-10.4C162.35-18.3,164.4-22.9,168.65-22.9Zm36.4,6.3c-.95-2.7-1.55-4.3-1.25-4.95.35-.7,1.45-.8,2.75-.85.25,0,.35-.1.35-.6s-.1-.6-.4-.6c-1.7.1-3.95.15-5.5.15s-3.6-.05-5.25-.15c-.3,0-.4.1-.4.6s.1.55.4.6c1.3.1,1.95.1,2.6.8.7.7,1.3,2.3,2.4,5l3.45,9.25C205.25-4.7,205.8-3,206.45-.9a.51.51,0,0,0,.4.25c.2,0,.4-.05,2.15-.85.7-2.1,1.15-3.35,2.2-5.9l3.5-9.2c.95-2.3,1.65-3.9,2.45-4.7a3.56,3.56,0,0,1,2.45-1.1c.4-.05.5-.1.5-.6s-.1-.6-.5-.6c-1.25.1-2.65.15-4.05.15-1.35,0-3.1-.05-4.5-.15-.3,0-.4.1-.4.6s.1.55.35.6c1.35.15,2.35.25,2.7.9.4.7,0,2.45-.9,4.9l-2.35,6.5c-.6,1.75-.95,2.6-1.5,4.2-.5-1.55-.85-2.45-1.45-4.1Zm35.9,2.1c4.4-.1,9.6-.05,14.5.1a.867.867,0,0,0,.8-.25,1.132,1.132,0,0,0,.25-.85c-.15-3.35-2.95-8.85-9.25-8.85-6.45,0-10.95,5.5-10.95,12.05,0,6.75,4.45,11.7,11,11.7A9.484,9.484,0,0,0,256-5.4c.2-.3.25-.35.25-.5,0-.4-.65-.75-.85-.75a.51.51,0,0,0-.4.25,7.546,7.546,0,0,1-6.8,3.5c-3.3,0-7.4-3.3-7.4-9.65A13.952,13.952,0,0,1,240.95-14.5Zm.3-1.8c.9-3.95,3.05-6.6,6-6.6,3.1,0,4.45,3,4.7,5.65.05.45-.1.8-.5.8A99.184,99.184,0,0,1,241.25-16.3Zm73.15-2.8a30.584,30.584,0,0,1,3.1-.1c3.2,0,5.55.4,6.55,1.05,1.05.75,1.4,2.5,1.6,3.65.1.3.15.55.75.55s.65-.2.65-.55c-.05-1.75-.15-3.8-.15-5.65,0-1.65.1-3.3.15-5,0-.4-.05-.5-.7-.5-.55,0-.6.15-.7.5a5.3,5.3,0,0,1-1.5,3.3c-.95.7-3.4.95-6.65.95-.95,0-2.3,0-3.1-.05v-7.3c0-2.65-.05-4.95.5-5.95.65-1.15,2.4-1.25,4.25-1.25,4.15,0,6.2.4,7.7,1.5a12.2,12.2,0,0,1,3.2,5.05c.1.3.25.45.75.35.6-.1.65-.3.6-.6-.35-2.55-.75-5.55-.95-8.1-4.35.25-8.55.25-12.5.25-4,0-8.7-.05-12.9-.25-.3,0-.4.15-.4.8,0,.45.1.55.4.6,1.95.2,3.55.2,4.05,1.15.55,1.1.55,1.7.55,6.45V-10.5c0,3.35,0,5.5-.6,6.6-.55,1.05-1.85,1.05-3.6,1.25-.35.05-.45.1-.45.65,0,.5.1.6.5.6,1.95-.15,4.4-.2,6.45-.2,2.1,0,4.85.05,7,.2.4,0,.5-.1.5-.65,0-.5-.1-.55-.5-.6-1.9-.2-3.5-.25-4.05-1.25-.5-.95-.5-1.65-.5-6.6Zm49.3,2c.05-3.8-.05-7.25-6.85-7.25-5.5,0-9.25,3.55-9.25,5.85,0,.95.45,1.45,1.55,1.45,2,0,3.45-.9,3.45-2.25a3.049,3.049,0,0,1,.85-2.55A3.98,3.98,0,0,1,356.5-23c2.15,0,3.15,1.55,3.15,5.15v1.4a2.7,2.7,0,0,1-1.15,1.95,12.254,12.254,0,0,1-3.9,1.7c-3,.95-4.7,1.4-6,2.7a5.371,5.371,0,0,0-1.7,4.35c0,2.25,1.45,5.15,5.95,5.15a9.366,9.366,0,0,0,7.05-2.8,3.76,3.76,0,0,0,3.7,2.55,6.361,6.361,0,0,0,3.8-1.2c.3-.2.35-.35.1-.75-.2-.35-.45-.35-.65-.25a2.419,2.419,0,0,1-1.35.45c-1.2,0-1.95-1.2-1.9-4.3ZM359.6-6.75c0,2.3-1.95,4.25-4.85,4.25a3.719,3.719,0,0,1-3.45-3.95c0-2.35,1.15-4,4-5,2.9-1.1,3.8-1.55,4.35-2.3ZM385.5-20.9a1.478,1.478,0,0,1,1.7,1.1,11.161,11.161,0,0,1,.4,4.05V-8.6c0,2.85,0,4.3-.5,5.15-.35.8-1.3.8-2.65.95-.3.05-.4.1-.4.55s.1.55.4.55c1.65-.05,3.8-.15,5.35-.15,1.5,0,3.5.1,5.15.15.25,0,.35-.1.35-.55s-.1-.55-.35-.55c-1.5-.15-2.55-.15-2.95-.95-.4-.7-.35-2.2-.35-5.15v-5.9a6.532,6.532,0,0,1,1.4-4.3c.9-1.2,1.65-1.7,2.4-1.7.95,0,1.7.95,2.75.95s2.55-1.6,2.55-3.35c0-.85-1.25-1.45-2.75-1.45-2.7,0-4.8,2.75-6.35,5.35,0-1.9.05-3.35.1-4.8,0-.25-.3-.4-.6-.4a45.319,45.319,0,0,1-7,2.1c-.5.15-.6.2-.6.75.05.6.25.6.7.55Zm32.8,0a1.423,1.423,0,0,1,1.75,1.05,13.024,13.024,0,0,1,.35,4.1V-8.6c0,2.85.1,4.35-.4,5.15-.4.8-1.3.8-2.6.95-.35.05-.45.15-.45.55,0,.45.1.55.45.55,1.65-.05,3.5-.15,5.1-.15,1.55,0,3.5.1,5.05.15.3,0,.4-.1.4-.55,0-.4-.1-.5-.4-.55-1.25-.15-2.45-.2-2.8-.95s-.3-2.2-.3-5.15v-6.55A5.8,5.8,0,0,1,425.5-19a5.332,5.332,0,0,1,4.6-2.85,4,4,0,0,1,3.95,2.55,9.061,9.061,0,0,1,.55,4.1v6.6c0,2.85,0,4.35-.4,5.15s-1.4.8-2.65.95c-.35,0-.45.1-.45.55,0,.4.05.55.45.55,1.65-.05,3.6-.15,5.25-.15,1.4,0,3.35.1,5,.15.35,0,.4-.15.4-.55,0-.45-.05-.5-.35-.55-1.4-.15-2.5-.2-2.95-.95-.35-.75-.35-2.2-.35-5.15v-6.55a5.515,5.515,0,0,1,1.1-3.85,5.43,5.43,0,0,1,4.7-2.85,3.8,3.8,0,0,1,3.85,2.55,9.061,9.061,0,0,1,.55,4.1v6.6c0,2.85.05,4.35-.4,5.15s-1.35.8-2.65.95c-.35,0-.45.1-.45.55s.1.55.45.55c1.8-.05,3.7-.15,5.3-.15,1.55,0,3.5.1,5,.15.35,0,.4-.15.4-.55,0-.45-.1-.5-.4-.55-1.2-.15-2.45-.2-2.85-.95-.35-.7-.3-2.2-.3-5.15v-3.25c0-1.25.05-3.7.05-5.5,0-6.3-5.3-7-6.85-7-3.35,0-5.8,1.8-7.8,4.95a6.419,6.419,0,0,0-6.55-4.95c-2.9,0-5.45,1.7-7.25,4.7,0-1.3.05-2.75.1-4.1a.509.509,0,0,0-.55-.45,65.633,65.633,0,0,1-6.95,2.1c-.5.15-.6.2-.6.65.05.75.2.7.7.65Zm59.9,6.4c4.4-.1,9.6-.05,14.5.1a.867.867,0,0,0,.8-.25,1.132,1.132,0,0,0,.25-.85c-.15-3.35-2.95-8.85-9.25-8.85-6.45,0-10.95,5.5-10.95,12.05,0,6.75,4.45,11.7,11,11.7a9.484,9.484,0,0,0,8.7-4.8c.2-.3.25-.35.25-.5,0-.4-.65-.75-.85-.75a.51.51,0,0,0-.4.25,7.546,7.546,0,0,1-6.8,3.5c-3.3,0-7.4-3.3-7.4-9.65A13.951,13.951,0,0,1,478.2-14.5Zm.3-1.8c.9-3.95,3.05-6.6,6-6.6,3.1,0,4.45,3,4.7,5.65.05.45-.1.8-.5.8A99.184,99.184,0,0,1,478.5-16.3Zm34.15-4.6a1.477,1.477,0,0,1,1.7,1.1,11.16,11.16,0,0,1,.4,4.05V-8.6c0,2.85,0,4.3-.5,5.15-.35.8-1.3.8-2.65.95-.3.05-.4.1-.4.55s.1.55.4.55c1.65-.05,3.8-.15,5.35-.15,1.5,0,3.5.1,5.15.15.25,0,.35-.1.35-.55s-.1-.55-.35-.55c-1.5-.15-2.55-.15-2.95-.95-.4-.7-.35-2.2-.35-5.15v-5.9a6.532,6.532,0,0,1,1.4-4.3c.9-1.2,1.65-1.7,2.4-1.7.95,0,1.7.95,2.75.95s2.55-1.6,2.55-3.35c0-.85-1.25-1.45-2.75-1.45-2.7,0-4.8,2.75-6.35,5.35,0-1.9.05-3.35.1-4.8,0-.25-.3-.4-.6-.4a45.32,45.32,0,0,1-7,2.1c-.5.15-.6.2-.6.75.05.6.25.6.7.55Z" transform="translate(452.396 341.979)"/>
  </g>
</svg>
