<svg xmlns="http://www.w3.org/2000/svg" width="231.136" height="88.28" viewBox="0 0 231.136 88.28">
  <path id="パス_4963" data-name="パス 4963" d="M24.576-18.432a5.484,5.484,0,0,0-3.232,1.056.511.511,0,0,0-.256.448.321.321,0,0,0,.32.32,1.371,1.371,0,0,0,.416-.16,4.61,4.61,0,0,1,1.92-.512,4.027,4.027,0,0,1,3.008,1.408.583.583,0,0,1,.16.352.411.411,0,0,1-.128.32,18.692,18.692,0,0,1-2.048,1.6c-.192.128-.256.224-.256.352a.275.275,0,0,0,.256.256,1.408,1.408,0,0,0,.32-.064c.512-.16.96-.352,1.6-.576a3.877,3.877,0,0,1,.928-.224,1.146,1.146,0,0,1,.736.256.978.978,0,0,0,.64.224.924.924,0,0,0,.96-.96,3.4,3.4,0,0,0-1.536-2.656A6.727,6.727,0,0,0,24.576-18.432Zm-12.96,1.248a16.789,16.789,0,0,1-3.744.544,2.925,2.925,0,0,1-2.3-1.248.551.551,0,0,0-.416-.256.316.316,0,0,0-.288.32,2.711,2.711,0,0,0,.48,1.184A3.254,3.254,0,0,0,8.1-15.072a18.079,18.079,0,0,0,3.52-.416c-.032,2.016-.1,3.968-.1,6.4C9.568-7.9,7.872-6.752,5.664-5.5a2.288,2.288,0,0,1-1.024.352.746.746,0,0,1-.48-.224,1.913,1.913,0,0,1-.48-.672.463.463,0,0,0-.32-.224c-.192,0-.288.32-.288.736A2.836,2.836,0,0,0,4.288-3.328a2.271,2.271,0,0,0,1.312.64.736.736,0,0,0,.7-.448A3.62,3.62,0,0,1,7.328-4.192,37.342,37.342,0,0,1,10.24-1.824,2.354,2.354,0,0,1,11.072-.7c.16.64.416.832.864.832.512,0,.864-.384,1.248-1.536a4.464,4.464,0,0,0,.224-1.408c0-.16-.032-.832-.064-1.216-.064-1.12-.128-2.72-.16-4.32.8-.48,1.664-.96,2.5-1.44a10.07,10.07,0,0,1,4.512-1.472A4.279,4.279,0,0,1,23.1-10.4,3.3,3.3,0,0,1,24.32-7.84a3.381,3.381,0,0,1-1.088,2.784A4.423,4.423,0,0,1,20.16-4a6.583,6.583,0,0,1-4.512-1.792.488.488,0,0,0-.384-.192.274.274,0,0,0-.256.256.983.983,0,0,0,.128.48A6.734,6.734,0,0,0,21.024-2.4,6.042,6.042,0,0,0,24.9-3.648a4.542,4.542,0,0,0,1.76-3.584,4.624,4.624,0,0,0-1.888-3.68,6.781,6.781,0,0,0-4.256-1.376,14.566,14.566,0,0,0-7.36,2.336c-.032-2.016.032-4.032.1-5.952A26.719,26.719,0,0,0,18.3-17.728a.937.937,0,0,0,.608-.864c0-.544-.544-.928-1.248-.928a2.743,2.743,0,0,0-1.856.608A9.233,9.233,0,0,1,13.28-17.7a13.128,13.128,0,0,1,.224-2.432,1.718,1.718,0,0,1,.608-.96.766.766,0,0,0,.32-.672c0-.48-.512-1.024-1.312-1.5a4.207,4.207,0,0,0-2.08-.7,2.27,2.27,0,0,0-1.376.416c-.256.192-.32.32-.32.448,0,.1.16.16.416.192a4.7,4.7,0,0,1,.928.16,1.085,1.085,0,0,1,.736.576A5.607,5.607,0,0,1,11.616-20Zm-.1,13.376c0,.48-.064.608-.32.608a3.079,3.079,0,0,1-.992-.32A14.568,14.568,0,0,1,8-4.736c1.024-.8,2.3-1.824,3.52-2.72ZM48-20.928a16.288,16.288,0,0,0-2.912-1.408c.16,1.92.16,3.68.16,7.04,0,6.208-.128,8.16-.128,9.28,0,.544.288.832,1.024.832,1.056,0,1.536-.288,1.536-1.056V-7.36h7.9c-.064,5.792-.16,8.32-.16,9.056,0,.672.32.96,1.152.96,1.088,0,1.536-.352,1.536-1.152,0-1.024-.064-3.072-.128-8.864h8.288v1.248c0,.576.32.832,1.024.832.992,0,1.472-.32,1.472-1.024,0-.9-.128-3.808-.128-9.728V-19.3c.864-.512.992-.736.992-.992,0-.192-.128-.384-.672-.832-1.12-.992-1.312-1.088-1.5-1.088-.224,0-.384.1-1.472,1.28H57.952V-24.96c.96-.384,1.12-.576,1.12-.832,0-.48-.384-.608-3.712-.928a45.737,45.737,0,0,1,.256,5.792Zm18.272,7.04V-8.16H57.984c0-1.92-.032-3.808-.032-5.728Zm-10.656,0c0,1.92,0,4.064-.032,5.728h-7.9v-5.728Zm2.336-6.24h8.32v5.44h-8.32Zm-2.336,0v5.44H47.68v-5.44ZM88.928-20A1.477,1.477,0,0,0,90.3-21.632c0-1.472-1.568-3.168-4.8-4.192-.16-.064-.384.16-.256.256a10.357,10.357,0,0,1,2.464,4.128C88.032-20.32,88.384-20,88.928-20Zm7.424-4.768a8.8,8.8,0,0,1-2.4-.288l.32,1.28a10.893,10.893,0,0,1,2.144-.192h4.448C100.256-15.232,97.44-9.056,91.68-4.16c-.16.16.1.544.288.416a21.236,21.236,0,0,0,10.24-13.184,19.739,19.739,0,0,0,2.976,7.936,17.424,17.424,0,0,0,4.224,4.96c.576.48.96.736,1.184.736s.32-.1.48-.512c.448-1.152.768-1.536,1.6-1.856.16-.064.224-.288.064-.352a16.213,16.213,0,0,1-7.2-5.888,21.725,21.725,0,0,1-3.456-11.264c.992-.48,1.376-.832,1.376-1.12,0-.192-.128-.416-.48-.736-.8-.672-.96-.8-1.184-.8-.192,0-.352.128-1.248,1.056Zm-6.016,12.64c.8-.576.9-.7.9-.9s-.128-.384-.608-.864c-1.056-.9-1.248-.992-1.472-.992-.192,0-.352.1-1.376,1.248h-1.92a9.736,9.736,0,0,1-2.5-.256l.32,1.312a7.958,7.958,0,0,1,2.176-.256H88v8.256a15.3,15.3,0,0,1-2.784,1.888,11.986,11.986,0,0,1-1.952.8c1.28,2.592,1.76,3.3,2.112,3.3.384,0,.544-.32.512-1.44A44.966,44.966,0,0,0,89.5-4.7,8.076,8.076,0,0,0,92.448-.576c1.7,1.216,4.544,1.824,10.88,1.824,2.72,0,5.6-.064,8.128-.288.384-.032.544-.128.608-.512a1.817,1.817,0,0,1,1.12-1.824c.128-.064.128-.384-.032-.352a89.54,89.54,0,0,1-11.424.768c-4.736,0-7.04-.384-8.48-.9a5.183,5.183,0,0,1-2.912-2.72Zm56,2.272c.32-1.12.576-2.048.864-3.136a1.983,1.983,0,0,1,.576-1.056.964.964,0,0,0,.288-.736c0-.48-.48-1.056-1.216-1.6a5.783,5.783,0,0,0-2.4-1.056,1.778,1.778,0,0,0-.736.128c-.16.064-.32.192-.32.288s.064.192.224.256a4.6,4.6,0,0,1,1.184.672,1.384,1.384,0,0,1,.512,1.28,20.867,20.867,0,0,1-.9,4.288,29.843,29.843,0,0,0-8.1-1.632c.9-1.952,1.92-3.712,2.656-5.344.864-1.856,1.472-3.2,2.08-4.32.256-.448.48-.672.48-1.088,0-.352-.352-.672-.7-.864a3.912,3.912,0,0,0-1.568-.608,1.008,1.008,0,0,0-.736.448,2.524,2.524,0,0,1-1.344.8,15.816,15.816,0,0,1-3.68.832,1.477,1.477,0,0,1-1.248-.64,4.012,4.012,0,0,1-.512-.768c-.128-.224-.224-.352-.352-.352-.1,0-.192.1-.256.256a2.044,2.044,0,0,0-.16.768,4.339,4.339,0,0,0,.8,1.984,1.8,1.8,0,0,0,1.312.928,1.512,1.512,0,0,0,.7-.224,6.137,6.137,0,0,1,1.184-.544c.8-.32,1.824-.672,3.232-1.12.352-.1.448.032.352.288A94.7,94.7,0,0,1,134.5-12.1a10.831,10.831,0,0,0-5.5,1.6A5.1,5.1,0,0,0,126.4-6.464c0,1.952,1.056,2.688,2.528,2.688a3.9,3.9,0,0,0,2.784-1.152,22.725,22.725,0,0,0,4.032-5.92A21.759,21.759,0,0,1,143.872-8.8,20.62,20.62,0,0,1,140.8-3.424,18.642,18.642,0,0,1,135.84.7c-.288.16-.384.256-.384.448a.3.3,0,0,0,.32.288,1.72,1.72,0,0,0,.672-.16,17.348,17.348,0,0,0,5.344-3.424,18.194,18.194,0,0,0,3.872-5.76,25.046,25.046,0,0,1,3.9,2.592,2.324,2.324,0,0,0,1.28.64,1.128,1.128,0,0,0,1.12-1.088,1.88,1.88,0,0,0-.864-1.568A21.847,21.847,0,0,0,146.336-9.856ZM133.92-10.88a21.656,21.656,0,0,1-2.752,4.1A3.237,3.237,0,0,1,128.96-5.44a1.069,1.069,0,0,1-1.152-1.184,3.625,3.625,0,0,1,1.7-2.88A9.725,9.725,0,0,1,133.92-10.88Zm45.888-4.032a2.725,2.725,0,0,0-2.72,2.752,2.718,2.718,0,0,0,2.72,2.72,2.725,2.725,0,0,0,2.752-2.72A2.732,2.732,0,0,0,179.808-14.912ZM24.576,40.568a5.484,5.484,0,0,0-3.232,1.056.511.511,0,0,0-.256.448.321.321,0,0,0,.32.32,1.371,1.371,0,0,0,.416-.16,4.61,4.61,0,0,1,1.92-.512,4.027,4.027,0,0,1,3.008,1.408.583.583,0,0,1,.16.352.411.411,0,0,1-.128.32,18.692,18.692,0,0,1-2.048,1.6c-.192.128-.256.224-.256.352a.275.275,0,0,0,.256.256,1.408,1.408,0,0,0,.32-.064c.512-.16.96-.352,1.6-.576a3.877,3.877,0,0,1,.928-.224,1.146,1.146,0,0,1,.736.256.978.978,0,0,0,.64.224.924.924,0,0,0,.96-.96,3.4,3.4,0,0,0-1.536-2.656A6.727,6.727,0,0,0,24.576,40.568Zm-12.96,1.248a16.789,16.789,0,0,1-3.744.544,2.925,2.925,0,0,1-2.3-1.248.551.551,0,0,0-.416-.256.316.316,0,0,0-.288.32,2.711,2.711,0,0,0,.48,1.184A3.254,3.254,0,0,0,8.1,43.928a18.079,18.079,0,0,0,3.52-.416c-.032,2.016-.1,3.968-.1,6.4C9.568,51.1,7.872,52.248,5.664,53.5a2.288,2.288,0,0,1-1.024.352.746.746,0,0,1-.48-.224,1.913,1.913,0,0,1-.48-.672.463.463,0,0,0-.32-.224c-.192,0-.288.32-.288.736a2.836,2.836,0,0,0,1.216,2.208,2.271,2.271,0,0,0,1.312.64.736.736,0,0,0,.7-.448,3.62,3.62,0,0,1,1.024-1.056,37.343,37.343,0,0,1,2.912,2.368,2.354,2.354,0,0,1,.832,1.12c.16.64.416.832.864.832.512,0,.864-.384,1.248-1.536a4.464,4.464,0,0,0,.224-1.408c0-.16-.032-.832-.064-1.216-.064-1.12-.128-2.72-.16-4.32.8-.48,1.664-.96,2.5-1.44a10.07,10.07,0,0,1,4.512-1.472A4.279,4.279,0,0,1,23.1,48.6a3.3,3.3,0,0,1,1.216,2.56,3.381,3.381,0,0,1-1.088,2.784A4.424,4.424,0,0,1,20.16,55a6.583,6.583,0,0,1-4.512-1.792.488.488,0,0,0-.384-.192.274.274,0,0,0-.256.256.983.983,0,0,0,.128.48A6.734,6.734,0,0,0,21.024,56.6,6.042,6.042,0,0,0,24.9,55.352a4.542,4.542,0,0,0,1.76-3.584,4.624,4.624,0,0,0-1.888-3.68,6.781,6.781,0,0,0-4.256-1.376,14.566,14.566,0,0,0-7.36,2.336c-.032-2.016.032-4.032.1-5.952A26.719,26.719,0,0,0,18.3,41.272a.937.937,0,0,0,.608-.864c0-.544-.544-.928-1.248-.928a2.743,2.743,0,0,0-1.856.608A9.233,9.233,0,0,1,13.28,41.3a13.128,13.128,0,0,1,.224-2.432,1.718,1.718,0,0,1,.608-.96.766.766,0,0,0,.32-.672c0-.48-.512-1.024-1.312-1.5a4.207,4.207,0,0,0-2.08-.7,2.27,2.27,0,0,0-1.376.416c-.256.192-.32.32-.32.448,0,.1.16.16.416.192a4.7,4.7,0,0,1,.928.16,1.085,1.085,0,0,1,.736.576A5.607,5.607,0,0,1,11.616,39Zm-.1,13.376c0,.48-.064.608-.32.608a3.079,3.079,0,0,1-.992-.32A14.568,14.568,0,0,1,8,54.264c1.024-.8,2.3-1.824,3.52-2.72Zm41.408-.16h7.488v1.216c0,.608.256.832.96.832.864,0,1.344-.288,1.344-.992,0-.448-.064-2.048-.064-5.248v-1.6c.7-.48.832-.608.832-.9,0-.192-.1-.352-.544-.736-.992-.832-1.152-.928-1.376-.928-.192,0-.384.1-1.312,1.12H53.184a16.564,16.564,0,0,0-2.624-1.28c.16,1.728.16,3.1.16,5.312,0,3.36-.1,4.384-.1,4.928s.256.768.992.768c.9,0,1.312-.288,1.312-1.024Zm7.488-.8H52.928V48.6h7.488ZM60.8,43.1h7.136V58.264c0,.384-.1.512-.48.512-1.056,0-1.792-.064-4.032-.224-.16,0-.16.352,0,.384,2.624.608,3.232.96,3.36,1.984.064.384.192.448.544.448a3.345,3.345,0,0,0,1.952-.512A2.014,2.014,0,0,0,70.3,58.9c0-.864-.032-1.568-.032-16.32V35.416c.7-.416.864-.576.864-.832,0-.224-.128-.384-.64-.8-1.056-.9-1.216-1.024-1.44-1.024-.192,0-.352.128-1.344,1.184H61.088a19.491,19.491,0,0,0-2.592-1.28,42.615,42.615,0,0,1,.128,4.416c0,4.224-.064,5.568-.064,6.5,0,.576.288.8.96.8.864,0,1.28-.288,1.28-.96Zm0-4.288h7.136V42.3H60.8Zm7.136-.8H60.8V34.744h7.136ZM45.952,43.1H52.7v.448c0,.544.256.8.9.8.9,0,1.408-.288,1.408-.96,0-.512-.1-2.272-.1-5.984V35.384c.7-.416.864-.64.864-.864,0-.192-.128-.384-.608-.768-1.024-.864-1.184-.992-1.408-.992-.192,0-.352.128-1.312,1.184H46.176a15.151,15.151,0,0,0-2.72-1.28c.16,2.976.192,6.144.192,12.64,0,9.536-.16,13.312-.16,15.424,0,.576.288.832,1.024.832.992,0,1.472-.32,1.472-.992,0-2.5-.032-5.6-.032-15.968Zm0-4.288H52.7V42.3H45.952Zm6.752-.8H45.952V34.744H52.7Zm50.24,3.168c-.224,0-.352.128-.352.288,0,.224.1.32.288.448a10.781,10.781,0,0,1,3.52,3.232,8.788,8.788,0,0,1,1.6,3.968c0,.48-.16.64-.64.736-.7.128-1.44.16-2.336.256-.32.032-.576.1-.576.256,0,.224.128.32.512.416.768.192,1.44.352,1.984.512a2.052,2.052,0,0,1,1.248.9.946.946,0,0,0,.864.512,1.207,1.207,0,0,0,.928-.512,3.1,3.1,0,0,0,.48-1.888,8.929,8.929,0,0,0-1.184-4.064,10.538,10.538,0,0,0-3.488-3.744A8.62,8.62,0,0,0,102.944,41.176Zm-9.952,15.9c.736,0,1.088-.448,1.056-.96a2.3,2.3,0,0,0-.32-.928,1.618,1.618,0,0,1-.192-.8,4.774,4.774,0,0,1,.448-1.568c.512-1.312,1.664-3.84,2.656-5.888a1.043,1.043,0,0,0,.128-.416.442.442,0,0,0-.384-.352.854.854,0,0,0-.544.416c-1.344,2.144-2.72,4.48-3.68,6.048-.288.448-.512.608-.768.608-.448,0-1.088-.576-1.664-2.016a13.416,13.416,0,0,1-.768-4.416,16.411,16.411,0,0,1,.48-4.576,2.914,2.914,0,0,0,.288-.992,3.674,3.674,0,0,0-1.5-2.5,4.252,4.252,0,0,0-2.08-1.056c-.256,0-.512.032-.512.192,0,.1.032.16.224.32a3.37,3.37,0,0,1,1.28,2.08,34.791,34.791,0,0,1,.1,4.064,29.542,29.542,0,0,0,.384,5.312,10.383,10.383,0,0,0,3.1,6.208A4.3,4.3,0,0,0,92.992,57.08Zm46.4-22.912c.832-.192,1.152-.32,1.152-.576,0-.352-.128-.448-3.744-1.472a18.213,18.213,0,0,1-1.632,3.776,32.859,32.859,0,0,1-11.424,11.552c-.192.1.032.544.224.448A29.589,29.589,0,0,0,138.88,34.584,26.782,26.782,0,0,0,150.72,47.1a4.144,4.144,0,0,0,1.12.416q.288,0,.48-.48c.416-1.344.864-1.728,1.792-1.856.16-.032.192-.32.032-.352a23.168,23.168,0,0,1-7.936-3.424A24.254,24.254,0,0,1,139.392,34.168Zm-7.872,24.8h13.568v1.408c0,.576.288.9.992.9.992,0,1.536-.384,1.536-1.056,0-.608-.1-2.656-.1-7.008V50.84c.832-.448.992-.64.992-.928,0-.192-.128-.384-.7-.864-1.152-1.024-1.344-1.12-1.568-1.12-.192,0-.352.1-1.376,1.312H131.872c-1.152-.64-1.632-.928-2.848-1.5.1,1.76.128,3.168.128,5.824,0,4.7-.128,6.016-.128,6.816,0,.608.288.9.992.9,1.024,0,1.5-.352,1.5-1.024Zm13.568-.8H131.52V50.04h13.568ZM132.736,44.856a10.817,10.817,0,0,1,1.92-.192h9.472c.288,0,.416-.1.416-.32,0-.192-.16-.384-.736-.928-1.376-1.056-1.6-1.216-1.824-1.216-.192,0-.416.16-1.664,1.664h-5.632a11.847,11.847,0,0,1-2.272-.224Zm43.36-.16a14.425,14.425,0,0,1,1.824-2.656c.224-.256.48-.512.48-.768a.823.823,0,0,0-.448-.736,1.277,1.277,0,0,0-.768-.288,1.3,1.3,0,0,0-.7.192c.064-.96.16-1.792.256-2.56a1.485,1.485,0,0,1,.512-.992,1.115,1.115,0,0,0,.384-.768c0-.544-.576-1.088-1.472-1.7a3.817,3.817,0,0,0-2.048-.736,2.246,2.246,0,0,0-1.12.288c-.16.1-.256.192-.256.32,0,.16.064.16.384.224a3.165,3.165,0,0,1,1.312.544c.416.416.384.768.384,1.472,0,1.376-.032,3.04-.064,4.672a31.067,31.067,0,0,1-3.744,1.344,2.974,2.974,0,0,1-.864.128c-.512,0-.992-.416-1.568-1.152-.064-.064-.192-.192-.288-.192-.16,0-.288.192-.288.64a3.3,3.3,0,0,0,1.024,1.984c.512.544.832.768,1.312.768a1.051,1.051,0,0,0,.768-.384,8.852,8.852,0,0,1,1.088-.64,18.165,18.165,0,0,1,2.5-1.056c0,.736,0,1.6-.032,2.432a35.672,35.672,0,0,1-2.784,4.064c-1.44,1.888-2.944,3.648-4.224,5.088a2.108,2.108,0,0,0-.64,1.344.891.891,0,0,0,.9.96,1.351,1.351,0,0,0,1.024-.608c.48-.576.768-1.024,1.44-1.952a27.273,27.273,0,0,1,2.816,3.136,3.376,3.376,0,0,1,.864,1.952c.064.864.416,1.152.832,1.152.8,0,1.376-1.12,1.376-3.36,0-.64-.1-1.632-.1-2.3-.064-2.176-.128-4.832-.064-7.424,2.016-1.824,5.536-3.872,8.384-3.872a5.475,5.475,0,0,1,4.064,1.664,5.133,5.133,0,0,1,1.248,3.36,7.791,7.791,0,0,1-2.5,5.664,18.624,18.624,0,0,1-7.1,3.936.435.435,0,0,0-.352.48.4.4,0,0,0,.416.32,3.488,3.488,0,0,0,.832-.1,17.831,17.831,0,0,0,7.776-3.264,8.085,8.085,0,0,0,3.424-6.688,6.1,6.1,0,0,0-2.048-4.544,8.153,8.153,0,0,0-5.312-1.984c-2.848,0-5.664,1.28-8.864,3.68Zm-5.28,8.64c1.12-1.44,2.464-3.232,3.744-4.832-.032,2.336-.064,4.96-.1,6.88,0,.384-.032.512-.192.512a1.436,1.436,0,0,1-.672-.352C172.7,54.872,171.68,54.1,170.816,53.336Zm53.536-9.92c-2.5.608-4.96,1.216-7.424,1.92.032-.8.064-1.344.1-1.984.032-.8.128-.96.288-1.184a1.334,1.334,0,0,0,.288-.768,1.5,1.5,0,0,0-.768-1.056,4.73,4.73,0,0,0-2.56-.96,2.051,2.051,0,0,0-.96.256c-.16.1-.352.256-.352.352,0,.128.064.224.416.288a2.766,2.766,0,0,1,1.408.672,1.524,1.524,0,0,1,.288.928c.064,1.376.064,2.624.064,4-1.76.544-3.552,1.12-5.12,1.536a4.664,4.664,0,0,1-1.12.16,2.029,2.029,0,0,1-1.408-.768c-.32-.32-.448-.416-.576-.416s-.256.1-.256.7a3.04,3.04,0,0,0,1.088,1.92,2.58,2.58,0,0,0,1.824.96,1.367,1.367,0,0,0,.832-.32,5.17,5.17,0,0,1,.768-.448c1.28-.64,2.272-1.056,3.936-1.728.032,1.888.032,3.616.064,5.5a5.687,5.687,0,0,0,.768,3.264,4.438,4.438,0,0,0,2.272,1.568,16.237,16.237,0,0,0,4.608.576,42.871,42.871,0,0,0,5.92-.352c.9-.16,1.248-.512,1.248-1.152a1.117,1.117,0,0,0-.8-.928,3.934,3.934,0,0,0-1.76-.32,7.279,7.279,0,0,0-1.472.352,25.024,25.024,0,0,1-5.28.448,4.24,4.24,0,0,1-3.168-.992,4.46,4.46,0,0,1-.64-2.784c0-1.664,0-3.808.032-5.824a62.754,62.754,0,0,1,7.424-2.016,23.848,23.848,0,0,1-.512,5.12c-.16.672-.48.768-1.12.768a20.447,20.447,0,0,1-2.336-.256c-.192-.032-.448-.1-.544-.1a.274.274,0,0,0-.256.256c0,.192.064.288.384.416.608.224,1.344.512,1.7.672a1.176,1.176,0,0,1,.8.832c.16.512.32.64.736.64a2.663,2.663,0,0,0,1.536-.736,5.414,5.414,0,0,0,1.184-3.168,47.684,47.684,0,0,0,.256-4.8,25.931,25.931,0,0,1,3.808-.384c.7,0,2.464.192,3.008.192.672,0,1.248-.224,1.248-.928,0-.8-.576-1.184-1.6-1.248a9.869,9.869,0,0,1-2.176-.256,3.836,3.836,0,0,0-.928-.288c-.128,0-.224.064-.352.384-.1.448-.448.608-.928.7s-1.024.192-2.048.384c.032-1.44.1-2.528.16-3.488a2.562,2.562,0,0,1,.32-1.376,1.277,1.277,0,0,0,.288-.768,1.314,1.314,0,0,0-.48-.96,5.377,5.377,0,0,0-2.816-1.376,2.331,2.331,0,0,0-1.152.32c-.32.192-.448.352-.448.48a.219.219,0,0,0,.224.224,6.866,6.866,0,0,1,1.408.32c.288.1.544.352.608,1.024.1.992.1,1.92.1,3.168Z" transform="translate(-3.072 26.72)"/>
</svg>
