<svg xmlns="http://www.w3.org/2000/svg" width="269.376" height="29.568" viewBox="0 0 269.376 29.568">
  <path id="パス_4916" data-name="パス 4916" d="M17.184-4.064A25.83,25.83,0,0,1,23.84-.192,2.7,2.7,0,0,0,25.312.48a1.11,1.11,0,0,0,.96-1.28A2.062,2.062,0,0,0,25.12-2.4a28.021,28.021,0,0,0-7.968-3.424,101.675,101.675,0,0,1-.576-10.528,2.768,2.768,0,0,0,1.824.576,12.279,12.279,0,0,0,2.688-.48,26.123,26.123,0,0,0,2.752-.864c.48-.192.8-.416.8-.992,0-.64-.736-1.024-1.856-1.024a2.256,2.256,0,0,0-1.568.64,6.73,6.73,0,0,1-2.048.928,8.033,8.033,0,0,1-1.824.416c-.48,0-.736-.032-.736-.448,0-.544.064-1.792.128-2.56a1.467,1.467,0,0,1,.448-1.056,1.058,1.058,0,0,0,.352-.768c0-.576-.416-.9-1.12-1.44a4.788,4.788,0,0,0-2.56-.992,2.743,2.743,0,0,0-1.376.48.388.388,0,0,0-.224.384c0,.192.128.256.32.288s.352.032.672.1a1.874,1.874,0,0,1,1.152.7c.256.32.288.736.288,1.824.032,5.216.192,9.44.448,14.464a19.666,19.666,0,0,0-2.72-.192C9.44-6.368,6.56-5.28,6.56-2.752,6.56-.192,9.12.736,11.872.736c2.688,0,5.312-.928,5.312-4.256Zm-2.048-.544a3.6,3.6,0,0,1-.736,2.72A3.908,3.908,0,0,1,11.36-.864c-2.464,0-3.68-.512-3.68-1.92,0-1.6,2.176-2.176,4.672-2.176A13.439,13.439,0,0,1,15.136-4.608ZM57.472-25.28c-.448,0-.8.16-.8.352,0,.128.1.16.384.384.768.544,1.216,1.024,1.216,1.376,0,.416-.288.864-.9,1.6-1.152,1.376-2.176,2.528-3.072,3.52-1.632,1.856-2.752,3.1-3.648,4.192a2.38,2.38,0,0,0-.736,1.76,3.008,3.008,0,0,0,1.184,2.08c3.584,3.3,6.56,6.4,8.576,9.952.544.96.9,1.344,1.408,1.344.672,0,1.248-.544,1.248-1.6,0-.8-.48-1.6-1.632-3.008a52,52,0,0,0-7.2-6.848c-.576-.48-1.088-.928-1.408-1.216-.384-.384-.544-.64-.544-.928a1.214,1.214,0,0,1,.416-.8c1.088-1.248,2.656-2.848,4.128-4.288,1.184-1.12,2.432-2.208,3.392-3.008a3.962,3.962,0,0,1,1.12-.672,1.1,1.1,0,0,0,.736-1.024c0-.512-.448-1.056-1.12-1.76A4.658,4.658,0,0,0,57.472-25.28Zm45.28,10.624a2.376,2.376,0,0,0,.1-.512,1.244,1.244,0,0,0-.416-.736,3.348,3.348,0,0,0-2.368-1.248c-.416,0-.7.16-.7.32,0,.1.064.224.288.32a1.505,1.505,0,0,1,1.056,1.248,1.327,1.327,0,0,1-.1.512A23.153,23.153,0,0,0,95.2-13.7a35.087,35.087,0,0,1,.608-4.608c1.632-.288,3.008-.608,4.32-.96a20.951,20.951,0,0,0,3.456-1.184c.448-.224.64-.448.64-.864,0-.576-.64-.9-1.248-.9a4.063,4.063,0,0,0-1.6.416,25.542,25.542,0,0,1-5.152,1.76c.352-1.6.544-2.144.928-2.4a.915.915,0,0,0,.48-.8c0-.544-.576-1.056-1.12-1.408a4.52,4.52,0,0,0-2.144-.736,3.436,3.436,0,0,0-1.28.192c-.192.064-.416.224-.416.384a.343.343,0,0,0,.32.32,3.9,3.9,0,0,1,.96.256c.64.32.832.48.832,1.12,0,.32-.064.736-.1,1.12-.1.8-.192,1.376-.32,2.272a16.917,16.917,0,0,1-2.56.224,4.061,4.061,0,0,1-3.392-1.248.747.747,0,0,0-.448-.224.24.24,0,0,0-.224.224,1.867,1.867,0,0,0,.32.8A4.306,4.306,0,0,0,92-17.952a18.843,18.843,0,0,0,2.112-.128c-.224,1.664-.384,3.168-.48,5.024a18.768,18.768,0,0,0-3.712,2.24c-2.144,1.664-3.84,4.192-3.84,6.464,0,1.536.608,2.72,2.336,2.72,1.5,0,3.9-1.28,6.08-3.04a4.749,4.749,0,0,0,.544,1.056c.384.512.7.8,1.088.8a.781.781,0,0,0,.864-.736,2.312,2.312,0,0,0-.224-.9c-.224-.48-.448-.928-.7-1.6a38.3,38.3,0,0,0,6.24-7.744,6.156,6.156,0,0,1,3.68,1.5,4.857,4.857,0,0,1,1.536,4.032c0,2.624-2.336,4.992-4.384,6.144A21.746,21.746,0,0,1,96.32.192q-.48.1-.48.48c0,.224.192.384.544.384a26.663,26.663,0,0,0,7.36-1.664c3.584-1.376,6.24-4.128,6.24-7.136a5.823,5.823,0,0,0-2.464-4.992A9.385,9.385,0,0,0,102.752-14.656ZM95.1-12.544a18.993,18.993,0,0,1,5.216-1.216,26.714,26.714,0,0,1-4.8,6.336A18.971,18.971,0,0,1,95.1-12.544Zm-1.056,6.4C91.9-4.576,90.368-3.616,88.8-3.616c-.544,0-.864-.32-.864-1.344,0-2.656,3.232-5.568,5.632-6.848A24.066,24.066,0,0,0,94.048-6.144Zm40.128-4.768c1.28-1.44,3.008-3.1,4.192-4.48,1.888-2.208,3.2-3.584,4.256-4.64.7-.7.992-.864,1.312-.928.576-.128.832-.352.832-.672,0-.512-.32-.928-.96-1.376A4.485,4.485,0,0,0,141.792-24a1.022,1.022,0,0,0-.736.32,2.034,2.034,0,0,1-.96.576c-1.44.48-2.784.864-4.224,1.216a7.7,7.7,0,0,1-1.664.224c-.544,0-.992-.32-1.7-1.248-.16-.224-.288-.352-.416-.352-.192,0-.384.352-.384.672a3.632,3.632,0,0,0,1.152,2.336,2.564,2.564,0,0,0,1.6.928,1.2,1.2,0,0,0,.864-.352,2.354,2.354,0,0,1,1.088-.672c1.28-.512,2.912-1.12,4.352-1.6a2.872,2.872,0,0,1,.608-.16c.128,0,.224.064,0,.352-1.6,2.112-2.912,3.712-4.288,5.408-2.3,2.816-4.96,5.568-7.424,8.224a1.612,1.612,0,0,0-.544,1.152,1.192,1.192,0,0,0,1.152,1.248,1.045,1.045,0,0,0,.8-.416,25.1,25.1,0,0,1,2.5-2.816,10.225,10.225,0,0,1,7.232-3.264,4.69,4.69,0,0,1,5.056,5.088A5.726,5.726,0,0,1,141.824-1.6c-.48-1.472-2.4-4.1-5.376-4.1-1.76,0-3.2.928-3.2,2.656,0,2.176,2.464,3.616,5.952,3.616,4.7,0,9.056-2.72,9.056-7.552,0-3.456-2.592-6.4-7.3-6.4a11.024,11.024,0,0,0-6.72,2.528ZM139.84-1.12a6.494,6.494,0,0,1-1.28.1c-2.56,0-4.256-.9-4.256-2.208a1.556,1.556,0,0,1,1.76-1.472C137.632-4.7,139.36-2.944,139.84-1.12Zm37.6-16.96c-1.152,1.024-2.56,2.24-3.264,2.88a1.2,1.2,0,0,0-.352.512.49.49,0,0,0,.352.352,1.71,1.71,0,0,0,.7-.288,23.159,23.159,0,0,1,5.28-3.168,21.2,21.2,0,0,1,4.448-.768c1.088-.1,1.472-.416,1.472-1.024,0-.576-.256-.992-1.056-1.248a4.115,4.115,0,0,0-1.152-.16,3.877,3.877,0,0,0-.928.224,18.587,18.587,0,0,1-2.848.64,21.543,21.543,0,0,1-3.04.288,12.642,12.642,0,0,1-2.368-.192,6.116,6.116,0,0,1-2.144-.832.753.753,0,0,0-.416-.16.349.349,0,0,0-.32.352.559.559,0,0,0,.128.384,4.929,4.929,0,0,0,2.016,1.568A8.484,8.484,0,0,0,177.44-18.08Zm-5.952,7.264a.533.533,0,0,0-.416.32,5.217,5.217,0,0,0-.864,3.072A5.146,5.146,0,0,0,173.7-2.56a15.476,15.476,0,0,0,6.048,1.024,48.388,48.388,0,0,0,7.136-.512c1.152-.16,1.824-.48,1.824-1.312s-.864-1.376-2.048-1.376a6.11,6.11,0,0,0-1.952.288,19.062,19.062,0,0,1-5.472.672,12.083,12.083,0,0,1-5.792-1.056,3.227,3.227,0,0,1-2.048-3.136,5.637,5.637,0,0,1,.384-2.112,1.256,1.256,0,0,0,.1-.448C171.872-10.688,171.68-10.816,171.488-10.816Zm15.1-13.376a.329.329,0,0,0-.352.32.5.5,0,0,0,.224.32,11.073,11.073,0,0,1,2.688,3.072q.432.864,1.056.864a.89.89,0,0,0,.9-.96c0-.672-.448-1.248-1.216-1.92a7.2,7.2,0,0,0-2.784-1.6A1.82,1.82,0,0,0,186.592-24.192Zm2.592-2.176a.321.321,0,0,0-.32.32.385.385,0,0,0,.224.32,9.758,9.758,0,0,1,2.944,3.008c.352.608.608.768,1.024.768a.908.908,0,0,0,.864-1.024c0-.736-.7-1.472-1.472-2.016a7.557,7.557,0,0,0-2.56-1.248A4.179,4.179,0,0,0,189.184-26.368Zm21.728,5.28c.032-.448.032-.928.032-1.44V-23.2a25.009,25.009,0,0,0,6.976-1.344c1.152.256,1.472.1,1.472-.16,0-.32-.448-.736-2.368-2.016a6.427,6.427,0,0,1-1.536,1.152A19.661,19.661,0,0,1,211.04-23.9a13.653,13.653,0,0,0-2.272-1.12,18.7,18.7,0,0,1,.128,2.592,19.143,19.143,0,0,1-.352,3.9,8.7,8.7,0,0,1-2.336,4.384c-.128.128.16.448.32.352a7.914,7.914,0,0,0,3.616-3.84,9.222,9.222,0,0,0,.7-2.656h3.616v1.6c0,1.344-.032,1.984-.032,2.176,0,.544.224.736.832.736.928,0,1.344-.256,1.344-.9,0-.224-.064-.992-.064-1.984v-1.632h3.968c.32,0,.448-.1.448-.32,0-.192-.192-.448-.64-.8-1.12-.9-1.344-1.056-1.568-1.056-.192,0-.416.16-1.376,1.376Zm16.512.8c.032.544.032.992.032,1.376,0,1.248-.1,2.016-.1,2.176,0,.544.256.768.864.768h.064c-.192.064-.448.32-1.184,1.088H214.24a15.308,15.308,0,0,0-2.752-1.28c.128,1.632.16,3.04.16,5.728,0,5.088-.128,6.528-.128,7.424,0,.64.224.864.992.864.96,0,1.408-.288,1.408-.96h13.44v.224c0,.544.288.736.928.736,1.024,0,1.472-.288,1.472-.96,0-.7-.1-2.944-.1-7.68v-2.56c.7-.512.864-.7.864-.928,0-.192-.16-.352-.64-.768-.832-.672-1.12-.9-1.312-.928.7-.064.992-.352.992-.9,0-.256-.064-1.184-.064-2.112v-1.312h5.632c.32,0,.416-.1.416-.32,0-.192-.16-.448-.672-.864-1.28-1.024-1.5-1.152-1.7-1.152-.224,0-.448.128-1.568,1.536h-7.808c.032-.384.064-.8.064-1.28v-.768a28.407,28.407,0,0,0,7.232-1.408c1.12.256,1.472.1,1.472-.16,0-.32-.48-.736-2.368-2.016a6.509,6.509,0,0,1-1.472,1.088A36.721,36.721,0,0,1,224-23.84a15.476,15.476,0,0,0-2.3-1.152c.1,1.216.128,1.6.128,2.368a13.872,13.872,0,0,1-.32,3.36,7.468,7.468,0,0,1-2.08,3.424c-.128.128.064.352.224.288a7,7,0,0,0,3.52-3.04,5.554,5.554,0,0,0,.544-1.7ZM213.92-10.5h13.44v2.72H213.92Zm13.44-.8H213.92V-14.08h13.44Zm-13.44,4.32h13.44V-3.9H213.92Zm16.96,9.824a1.123,1.123,0,0,0,1.088-1.184c0-1.92-3.072-3.232-8.928-3.616-.16,0-.256.288-.1.352a17.683,17.683,0,0,1,6.432,3.584C230.048,2.624,230.4,2.848,230.88,2.848Zm-23.744-.32a24.757,24.757,0,0,0,9.792-2.656c1.152.1,1.632-.032,1.632-.384s-.96-.992-2.848-1.952A8.865,8.865,0,0,1,213.6-.7a24.969,24.969,0,0,1-6.56,2.816C206.848,2.176,206.944,2.56,207.136,2.528Zm50.592-6.5h7.488v1.216c0,.608.256.832.96.832.864,0,1.344-.288,1.344-.992,0-.448-.064-2.048-.064-5.248v-1.6c.7-.48.832-.608.832-.9,0-.192-.1-.352-.544-.736-.992-.832-1.152-.928-1.376-.928-.192,0-.384.1-1.312,1.12h-7.072a16.565,16.565,0,0,0-2.624-1.28c.16,1.728.16,3.1.16,5.312,0,3.36-.1,4.384-.1,4.928s.256.768.992.768c.9,0,1.312-.288,1.312-1.024Zm7.488-.8h-7.488V-10.4h7.488ZM265.6-15.9h7.136V-.736c0,.384-.1.512-.48.512-1.056,0-1.792-.064-4.032-.224-.16,0-.16.352,0,.384,2.624.608,3.232.96,3.36,1.984.064.384.192.448.544.448a3.345,3.345,0,0,0,1.952-.512A2.014,2.014,0,0,0,275.1-.1c0-.864-.032-1.568-.032-16.32v-7.168c.7-.416.864-.576.864-.832,0-.224-.128-.384-.64-.8-1.056-.9-1.216-1.024-1.44-1.024-.192,0-.352.128-1.344,1.184h-6.624a19.493,19.493,0,0,0-2.592-1.28,42.619,42.619,0,0,1,.128,4.416c0,4.224-.064,5.568-.064,6.5,0,.576.288.8.96.8.864,0,1.28-.288,1.28-.96Zm0-4.288h7.136V-16.7H265.6Zm7.136-.8H265.6v-3.264h7.136ZM250.752-15.9H257.5v.448c0,.544.256.8.9.8.9,0,1.408-.288,1.408-.96,0-.512-.1-2.272-.1-5.984v-2.016c.7-.416.864-.64.864-.864,0-.192-.128-.384-.608-.768-1.024-.864-1.184-.992-1.408-.992-.192,0-.352.128-1.312,1.184h-6.272a15.152,15.152,0,0,0-2.72-1.28c.16,2.976.192,6.144.192,12.64,0,9.536-.16,13.312-.16,15.424,0,.576.288.832,1.024.832.992,0,1.472-.32,1.472-.992,0-2.5-.032-5.6-.032-15.968Zm0-4.288H257.5V-16.7h-6.752Zm6.752-.8h-6.752v-3.264H257.5Z" transform="translate(-6.56 26.72)"/>
</svg>
