<svg xmlns="http://www.w3.org/2000/svg" width="289.814" height="112.606" viewBox="0 0 289.814 112.606">
  <g id="グループ_9863" data-name="グループ 9863" transform="translate(-55.686 -165.696)">
    <g id="グループ_712" data-name="グループ 712" transform="translate(25 18.635)">
      <path id="パス_4629" data-name="パス 4629" d="M16.864-.128V-13.792H27.68c.32,0,.416-.128.416-.32s-.128-.416-.9-1.024c-1.6-1.28-1.824-1.44-2.048-1.44-.192,0-.416.16-1.952,1.984H16.864v-9.952c.928-.32,1.184-.576,1.184-.864,0-.352-.416-.672-3.872-.992.128,1.312.16,3.168.16,6.624v5.184H7.3a21.05,21.05,0,0,1-3.072-.224l.32,1.248a16.672,16.672,0,0,1,2.72-.224h7.072V-.128H4.7A19.5,19.5,0,0,1,1.5-.384L1.824.864A18.38,18.38,0,0,1,4.7.672H30.112c.32,0,.416-.1.416-.32,0-.192-.16-.384-.96-1.056-1.7-1.408-1.92-1.568-2.144-1.568-.192,0-.416.16-2.048,2.144ZM48.1-16.7H51.84c.288,0,.416-.1.416-.32s-.16-.448-.576-.832c-1.024-.96-1.248-1.088-1.44-1.088s-.48.128-1.344,1.44h-.8v-6.464c.928-.448,1.12-.608,1.12-.864,0-.352-.384-.576-3.552-.9a45.667,45.667,0,0,1,.16,5.344v2.88H44.352a9.6,9.6,0,0,1-2.08-.224l.32,1.216a10.44,10.44,0,0,1,1.856-.192h1.376v9.28c-.7.288-1.344.512-1.952.736a10.3,10.3,0,0,1-1.984.48c1.28,3.04,1.408,3.136,1.76,3.136s.512-.32.576-1.28A38.251,38.251,0,0,0,50.848-8.7L51.1-7.68a10.966,10.966,0,0,1,2.24-.192h3.968a25.764,25.764,0,0,1-9.76,5.984c-.224.064-.064.544.16.48a33.674,33.674,0,0,0,7.136-2.464V-.256c-.512.064-1.024.128-1.5.192A14.378,14.378,0,0,1,51.36.064c.864,2.592,1.152,3.1,1.408,3.1.288,0,.512-.256.608-1.056a40.717,40.717,0,0,0,9.184-3.52c.16-.1.032-.48-.16-.416A49.954,49.954,0,0,1,57.024-.608V-5.12a24.812,24.812,0,0,0,3.392-2.656,15.079,15.079,0,0,0,3.84,6.5,18.039,18.039,0,0,0,4.9,3.36,3.717,3.717,0,0,0,1.024.352c.224,0,.32-.128.448-.576.384-1.024.736-1.344,1.5-1.568.192-.064.224-.384.032-.416A17.694,17.694,0,0,1,65.088-2.88a9.64,9.64,0,0,1-.9-.7A19.25,19.25,0,0,0,67.9-5.312c1.056.064,1.408-.032,1.408-.288,0-.32-.544-.672-2.592-1.856a4.6,4.6,0,0,1-.864,1.344A16.817,16.817,0,0,1,63.712-4,13.324,13.324,0,0,1,60.96-7.872H71.072c.32,0,.416-.128.416-.32s-.128-.384-.64-.832c-1.152-.864-1.408-1.024-1.632-1.024-.192,0-.352.128-1.408,1.376h-3.2v-2.944h4.9c.32,0,.416-.1.416-.32,0-.192-.128-.416-.608-.8-1.088-.832-1.312-.992-1.536-.992-.192,0-.352.16-1.312,1.312H64.608V-15.1h5.408c.32,0,.448-.1.448-.32,0-.192-.16-.416-.608-.8-1.152-.864-1.376-1.024-1.6-1.024-.192,0-.416.16-1.312,1.344H64.608v-1.5c.64-.256.8-.448.8-.672,0-.256-.256-.448-2.976-.672a21.809,21.809,0,0,1,.1,2.752v.1H58.5v-1.5c.64-.288.832-.48.832-.672,0-.256-.256-.448-3.008-.7a21.809,21.809,0,0,1,.1,2.752v.128H54.24a13.733,13.733,0,0,1-2.432-.224l.352,1.216A13.615,13.615,0,0,1,54.3-15.1h2.112v2.688h-1.6a13.4,13.4,0,0,1-2.4-.224l.352,1.216a10.434,10.434,0,0,1,2.08-.192h1.568v2.944h-3.1a13.611,13.611,0,0,1-2.272-.192c.384-.32.768-.672,1.12-1.024.128-.128-.064-.416-.192-.352-1.152.64-2.5,1.28-3.872,1.888ZM58.5-8.672v-2.944h4.032v2.944Zm0-3.744V-15.1h4.032v2.688Zm3.2-10.816v-1.824c.736-.288.992-.512.992-.736,0-.32-.352-.576-3.392-.864.064.9.1,1.5.1,2.048v1.376H53.92a12.826,12.826,0,0,1-2.624-.224l.32,1.216a16.8,16.8,0,0,1,2.4-.192H70.688c.32,0,.416-.1.416-.288s-.1-.416-.7-.928c-1.28-1.024-1.6-1.152-1.792-1.152s-.448.16-1.632,1.568ZM68.7-17.6a.936.936,0,0,0,.928-1.024c0-1.44-2.912-2.912-6.88-3.168-.192,0-.288.352-.1.416a13.3,13.3,0,0,1,4.864,3.04C68.1-17.76,68.352-17.6,68.7-17.6Zm-16.288.16A15.41,15.41,0,0,0,58.4-20.256c.96,0,1.216-.128,1.216-.384,0-.288-.448-.544-2.656-1.472a6.838,6.838,0,0,1-1.408,1.824,16.3,16.3,0,0,1-3.3,2.432C52.1-17.76,52.224-17.408,52.416-17.44Zm51.648,4.64a52.088,52.088,0,0,1-1.12,9.312c-.512,1.92-.928,2.656-1.856,2.656a31.617,31.617,0,0,1-4.736-.576c-.224-.032-.256.544-.032.608C99.168-.064,99.84.48,100,1.312c.1.576.288.672.864.672a3.885,3.885,0,0,0,2.464-.832,5.179,5.179,0,0,0,1.6-2.688c.8-2.3,1.184-5.728,1.472-10.432.768-.512.9-.608.9-.832,0-.192-.128-.352-.64-.864-1.12-1.024-1.312-1.152-1.5-1.152-.224,0-.384.128-1.44,1.216H91.1a11.429,11.429,0,0,1-2.848-.32l.352,1.344A11.664,11.664,0,0,1,91.2-12.8h2.88c-.7,7.136-3.68,11.3-10.528,14.784-.192.1,0,.576.224.512C91.968.032,95.9-4.64,96.672-12.8Zm6.88.864c.224,0,.352-.16.48-.64.352-1.152.7-1.568,1.5-1.664.192-.032.256-.384.064-.448a16.466,16.466,0,0,1-6.72-3.616,17.415,17.415,0,0,1-4.544-6.432,1.9,1.9,0,0,1-.16-.608c0-.16.128-.416.128-.512a.261.261,0,0,0-.288-.256c-.32,0-1.216.32-1.216.544q0,.192.288.384a1.217,1.217,0,0,1,.416.576c1.5,4.032,2.816,6.4,4.672,8.448a21.635,21.635,0,0,0,4.064,3.584A4.062,4.062,0,0,0,110.944-11.936ZM83.3-11.424a25.705,25.705,0,0,0,11.68-12.448c1.088-.1,1.344-.288,1.344-.672,0-.352-.736-.768-3.584-1.728a15.648,15.648,0,0,1-1.184,3.584,28.477,28.477,0,0,1-8.544,10.816C82.816-11.744,83.1-11.328,83.3-11.424Zm47.936-6.912h4.512c.32,0,.416-.1.416-.32,0-.192-.128-.416-.608-.832-1.152-1.088-1.376-1.248-1.568-1.248s-.448.16-1.44,1.6h-1.312V-24.96c.9-.352,1.12-.576,1.12-.9,0-.384-.352-.544-3.456-.9a35.974,35.974,0,0,1,.16,4.192v3.424h-2.464a10.17,10.17,0,0,1-2.3-.224l.352,1.216a13.143,13.143,0,0,1,2.016-.192H128.8a41.118,41.118,0,0,1-5.152,13.248c-.1.16.224.416.352.288a25.771,25.771,0,0,0,5.216-8.48c-.1,9.536-.256,14.016-.256,15.1,0,.544.32.832.992.832.864,0,1.408-.352,1.408-.992,0-1.024-.16-3.584-.128-16.16a6.263,6.263,0,0,1,2.144,3.648c.192.768.512,1.056.928,1.056a1.275,1.275,0,0,0,1.248-1.408c0-1.312-1.5-2.816-4.32-3.808Zm16.256,3.584h5.728c.32,0,.448-.1.448-.288,0-.224-.16-.416-.8-.928-1.312-1.184-1.536-1.344-1.792-1.344-.192,0-.448.16-1.76,1.76h-9.7c.032-.768.032-1.6.032-2.464V-20.8a31.069,31.069,0,0,0,10.272-3.424,3.525,3.525,0,0,0,1.056.16c.416,0,.64-.128.64-.352,0-.32-.544-.864-2.656-2.464a13.171,13.171,0,0,1-2.24,1.92,23.73,23.73,0,0,1-6.816,3.392,18.729,18.729,0,0,0-2.816-1.312,52.9,52.9,0,0,1,.224,6.176,48.983,48.983,0,0,1-.832,10.24,19.153,19.153,0,0,1-3.936,8.608c-.128.16.256.448.416.32a16.445,16.445,0,0,0,5.472-8.352,35.511,35.511,0,0,0,1.184-8.864h5.568v8.768c0,4.7-.128,6.912-.128,7.584,0,.544.32.864,1.056.864.992,0,1.5-.384,1.5-1.056,0-1.088-.128-4.576-.128-8.768Zm31.616-5.92a13.93,13.93,0,0,1,1.7-.064,9.269,9.269,0,0,1,5.952,2.08,8.075,8.075,0,0,1,2.688,6.112,9.04,9.04,0,0,1-2.88,6.624,17.787,17.787,0,0,1-8.7,4.064c-.416.1-.576.192-.576.448a.452.452,0,0,0,.448.384c3.9-.192,8.288-1.536,10.656-3.584A9.048,9.048,0,0,0,191.84-12.1a9.135,9.135,0,0,0-3.552-7.264,11.77,11.77,0,0,0-7.424-2.464,13.677,13.677,0,0,0-10.24,4.192,11.643,11.643,0,0,0-3.008,7.552,7.028,7.028,0,0,0,1.472,4.736,2.953,2.953,0,0,0,2.4,1.28c1.344,0,2.336-.928,3.232-2.08a32.223,32.223,0,0,0,4.576-8.288,12.783,12.783,0,0,0,.832-3.744A3.74,3.74,0,0,0,179.1-20.672Zm-.864.1a1.984,1.984,0,0,1,.512,1.472,7,7,0,0,1-.448,2.528,34,34,0,0,1-4.576,8.32c-.928,1.248-1.568,1.824-2.24,1.824a1.8,1.8,0,0,1-1.5-1.088,5.523,5.523,0,0,1-.7-2.976,9.975,9.975,0,0,1,2.784-6.912A11.292,11.292,0,0,1,178.24-20.576ZM21.5,42.36V39.32h8.9c.32,0,.448-.1.448-.288s-.16-.448-.768-.96c-1.344-1.056-1.568-1.216-1.792-1.216s-.448.16-1.728,1.664H21.5V35.672a39.1,39.1,0,0,0,5.28-1.152,5.2,5.2,0,0,0,1.184.192c.32,0,.512-.1.512-.224,0-.288-.48-.768-2.528-2.336a12.64,12.64,0,0,1-3.392,1.5A51.7,51.7,0,0,1,12.288,35.8c-.224.032-.16.48.064.48a65.037,65.037,0,0,0,6.976-.352V38.52h-5.92a11.61,11.61,0,0,1-2.272-.224l.32,1.216a11.155,11.155,0,0,1,1.952-.192h5.92v3.04H15.2a19.688,19.688,0,0,0-2.5-1.184c.128,1.632.16,2.912.16,5.312,0,4-.128,5.12-.128,5.824,0,.608.256.864.928.864.864,0,1.344-.32,1.344-.96V51.8h4.32v3.328H13.76a8.032,8.032,0,0,1-2.24-.256l.32,1.248a10.817,10.817,0,0,1,1.92-.192h5.568v3.52H12.352a12.891,12.891,0,0,1-2.4-.224L10.3,60.44a11.625,11.625,0,0,1,2.048-.192h18.3c.32,0,.448-.1.448-.32,0-.192-.16-.416-.7-.864-1.28-1.12-1.5-1.248-1.728-1.248-.192,0-.416.16-1.664,1.632H21.5v-3.52H29.28c.32,0,.416-.1.416-.288s-.16-.384-.672-.832c-1.184-1.024-1.408-1.184-1.632-1.184-.192,0-.416.192-1.5,1.5H21.5V51.8h4.64v.256c0,.576.288.8.992.8.832,0,1.312-.32,1.312-.992,0-.576-.1-2.336-.1-6.048V43.832c.64-.448.768-.608.768-.832,0-.192-.128-.384-.608-.832-.928-.768-1.12-.9-1.312-.9-.224,0-.384.128-1.248,1.088Zm0,.8h4.64v3.424H21.5Zm-2.176,0v3.424h-4.32V43.16Zm-4.32,4.224h4.32V51h-4.32ZM26.144,51H21.5V47.384h4.64Zm-18.4-8.64h4.064c.32,0,.448-.1.448-.32s-.16-.416-.64-.8c-1.056-.9-1.28-1.024-1.472-1.024-.224,0-.448.128-1.408,1.344H7.744V35.512a28.279,28.279,0,0,0,2.784-.96c1.088.192,1.44,0,1.44-.288s-.448-.672-2.3-2.048a9.353,9.353,0,0,1-1.952,1.44,31.017,31.017,0,0,1-6.368,2.528c-.16.032-.064.384.1.384a32.977,32.977,0,0,0,4.128-.544V41.56h-2.5a9.12,9.12,0,0,1-2.048-.224l.32,1.216A8.945,8.945,0,0,1,3.1,42.36h2.24A38.029,38.029,0,0,1,.7,54.52c-.1.16.224.352.352.224a24.354,24.354,0,0,0,4.7-7.3c-.1,8.288-.384,12.384-.384,13.344,0,.576.32.864,1.088.864.928,0,1.376-.32,1.376-1.024,0-.928-.1-5.088-.1-10.912V45.464A6.659,6.659,0,0,1,9.6,48.728c.256,1.088.512,1.312.992,1.312.576,0,.992-.608.992-1.312,0-1.376-1.312-2.784-3.84-3.712ZM50.56,40.472h5.888c.288,0,.384-.1.384-.32,0-.16-.16-.384-.512-.672-1.088-.992-1.312-1.152-1.5-1.152s-.416.16-1.312,1.344H50.56v-5.76c.8-.32.992-.48.992-.768,0-.352-.416-.512-3.136-.8.1,1.184.128,1.888.128,3.744v3.584H44.672a14.154,14.154,0,0,1-2.5-.224l.32,1.184a14.978,14.978,0,0,1,2.24-.16h2.752a18.2,18.2,0,0,1-5.7,6.976c-.16.128.064.512.224.416a15.85,15.85,0,0,0,6.592-5.7c-.128,1.984-.16,3.36-.16,3.744,0,.512.32.736.96.736.832,0,1.216-.288,1.216-.96,0-.576-.032-1.376-.064-3.424A10.645,10.645,0,0,1,53.7,45.208c.576.928.8,1.088,1.152,1.088a1.076,1.076,0,0,0,1.024-1.184c0-1.28-1.376-2.528-5.312-3.456Zm9.12,13.856h7.712v.512c0,.64.288.864.992.864.928,0,1.376-.288,1.376-1.024,0-.928-.128-4.032-.128-10.24V40.792c.7-.416.9-.64.9-.928,0-.192-.128-.384-.64-.768-1.056-.864-1.248-.992-1.472-.992-.192,0-.352.128-1.28,1.216H62.464a24.371,24.371,0,0,0,2.656-4.352h6.368c.32,0,.416-.1.416-.288s-.128-.384-.736-.864c-1.312-1.088-1.536-1.248-1.76-1.248-.192,0-.448.16-1.728,1.6h-8.9a9.744,9.744,0,0,1-2.272-.224l.32,1.216a12.109,12.109,0,0,1,1.984-.192H62.4a29,29,0,0,1-.832,4.352h-1.6a14.9,14.9,0,0,0-2.688-1.312c.16,2.208.192,3.616.192,7.52,0,6.016-.16,8.416-.16,9.408,0,.544.288.8.992.8.864,0,1.376-.288,1.376-.96Zm0-9.664h7.712V48.5H59.68Zm7.712-.8H59.68V40.12h7.712ZM59.68,49.3h7.712v4.224H59.68Zm-3.392,1.952c.32,0,.416-.1.416-.288s-.128-.448-.672-.864c-1.184-.992-1.376-1.152-1.6-1.152-.192,0-.416.16-1.472,1.5H50.272a12.9,12.9,0,0,0,.16-1.6c.832-.448.928-.576.928-.8,0-.448-.32-.576-3.328-.864a14.484,14.484,0,0,1,.064,1.6c0,.576-.032,1.152-.064,1.664H44.8a12.385,12.385,0,0,1-2.56-.256l.32,1.248a15.23,15.23,0,0,1,2.3-.192h3.072a10.916,10.916,0,0,1-1.376,4.288,14.686,14.686,0,0,1-4.928,4.9c-.192.128,0,.512.224.448A14.334,14.334,0,0,0,48.064,56.5,10.489,10.489,0,0,0,49.6,53.528a11.45,11.45,0,0,1,3.616,3.9c.384.608.64.832,1.024.832.608,0,1.056-.672,1.056-1.408,0-1.472-1.984-2.944-5.536-3.84a17.309,17.309,0,0,0,.384-1.76ZM70.336,61.368c.64,0,1.024-.544,1.024-1.28,0-1.728-2.3-3.1-6.368-3.776-.16-.032-.288.288-.128.352a10.68,10.68,0,0,1,4.384,3.968C69.664,61.208,69.92,61.368,70.336,61.368ZM45.728,38.744a1.308,1.308,0,0,0,1.216-1.408c0-1.216-1.344-2.656-3.36-3.424-.128-.032-.256.1-.192.192a8.016,8.016,0,0,1,1.44,3.488C45.024,38.456,45.216,38.744,45.728,38.744Zm6.112.352A14.029,14.029,0,0,0,55.1,35.672c.864,0,1.152-.16,1.152-.448,0-.32-.64-.7-2.592-1.6a13.889,13.889,0,0,1-.608,2.144,21.01,21.01,0,0,1-1.5,3.072C51.456,38.968,51.712,39.192,51.84,39.1Zm1.024,22.432a18.61,18.61,0,0,0,8.7-3.52c1.152.192,1.472-.064,1.472-.32,0-.352-.352-.672-2.784-1.92a9.038,9.038,0,0,1-1.984,2.144,20.136,20.136,0,0,1-5.536,3.168C52.544,61.144,52.672,61.56,52.864,61.528Zm45.024-17.44a2.736,2.736,0,1,0,2.752,2.752A2.725,2.725,0,0,0,97.888,44.088Zm34.464-.128h5.312c.32,0,.416-.1.416-.32,0-.192-.16-.448-.608-.832-1.12-.96-1.344-1.12-1.536-1.12s-.448.16-1.44,1.472h-2.144V34.04c.864-.352,1.056-.544,1.056-.8,0-.416-.352-.576-3.36-.96a38.373,38.373,0,0,1,.16,4.608V43.16h-3.392a11.535,11.535,0,0,1-2.24-.224l.32,1.216a12.11,12.11,0,0,1,1.984-.192h3.008a37.087,37.087,0,0,1-5.92,12.1c-.128.16.192.416.352.288a24.955,24.955,0,0,0,6.016-8.16c-.1,7.808-.32,11.68-.32,12.544,0,.608.256.9.992.9.928,0,1.472-.352,1.472-1.088,0-1.248-.128-5.856-.128-13.536a7.121,7.121,0,0,1,2.4,3.232c.32.992.736,1.152,1.248,1.152a1.2,1.2,0,0,0,1.056-1.248c0-1.536-1.856-2.976-4.7-3.712Zm21.408,6.528c.256-.064.352-.192.352-.352,0-.192-.1-.384-.7-.736-1.344-.864-1.568-1.024-1.792-1.024-.256,0-.416.224-1.312,1.984l-.928.16c-.032-2.208-.032-4.864-.032-8.064V34.328c.9-.416,1.056-.608,1.056-.864,0-.448-.64-.64-3.552-.96.16,1.6.16,3.424.16,9.568,0,3.584,0,6.528-.032,8.9l-8.544,1.6a12.858,12.858,0,0,1-2.432.224l.576,1.12a13.281,13.281,0,0,1,2.08-.608l8.32-1.568c-.032,5.408-.064,7.808-.064,8.9,0,.64.288.928,1.056.928,1.056,0,1.536-.352,1.536-1.12,0-.992-.1-3.424-.128-9.12Zm-10.016-9.472a1.285,1.285,0,0,0,1.248-1.44c0-1.6-1.888-2.976-5.12-3.424-.128-.032-.256.192-.16.256a7.381,7.381,0,0,1,2.656,3.1C142.976,40.856,143.1,41.016,143.744,41.016Zm-1.024,7.52a1.344,1.344,0,0,0,1.248-1.5c0-1.568-1.888-2.944-5.248-3.3-.128,0-.224.224-.128.288a7.367,7.367,0,0,1,2.944,3.456C141.92,48.216,142.176,48.536,142.72,48.536Zm-14.976-6.88c.64,0,1.152-.736,1.152-1.632,0-1.472-1.312-3.52-3.264-5.184-.128-.1-.384.064-.32.192a12.52,12.52,0,0,1,1.472,4.96C126.912,41.336,127.136,41.656,127.744,41.656Zm6.048.032a25.57,25.57,0,0,0,3.424-4.9c.832-.1,1.152-.256,1.152-.576s-.384-.544-2.88-1.568a21.232,21.232,0,0,1-.544,2.528,35.865,35.865,0,0,1-1.5,4.32C133.376,41.656,133.7,41.816,133.792,41.688Zm39.2,2.336a9.292,9.292,0,0,1,2.016-.192h2.944v5.28H170.08a12.65,12.65,0,0,1-2.4-.224L168,50.1a9.5,9.5,0,0,1,2.08-.192h7.872v9.28h-9.44a13.474,13.474,0,0,1-2.432-.224l.352,1.216a11.977,11.977,0,0,1,2.08-.192h24.576c.32,0,.416-.1.416-.32,0-.192-.16-.416-.8-.96-1.472-1.216-1.7-1.376-1.92-1.376-.192,0-.416.16-1.952,1.856h-8.48v-9.28h10.784c.32,0,.416-.128.416-.32s-.16-.384-.736-.864c-1.28-1.12-1.536-1.28-1.728-1.28-.224,0-.48.16-1.7,1.664h-7.04v-5.28h5.44c.32,0,.416-.1.416-.32,0-.192-.128-.384-.672-.832-1.28-1.088-1.5-1.216-1.728-1.216-.192,0-.416.128-1.536,1.568h-7.328a13.3,13.3,0,0,1-2.144-.192,27.692,27.692,0,0,0,7.072-8.224,28.741,28.741,0,0,0,6.336,7.808,31.1,31.1,0,0,0,5.024,3.424,3.387,3.387,0,0,0,1.152.448c.224,0,.384-.128.512-.48.416-1.312.8-1.7,1.7-1.888.16-.032.192-.352.032-.384a22.465,22.465,0,0,1-7.616-2.944,24.216,24.216,0,0,1-6.56-6.272c.864-.192,1.088-.352,1.088-.608,0-.384-.544-.608-3.808-1.44a16.392,16.392,0,0,1-1.5,3.52,33.654,33.654,0,0,1-11.488,11.008c-.192.128,0,.544.224.448a32.082,32.082,0,0,0,7.712-4.32Zm.576,13.536c.768,0,1.312-.672,1.312-1.664,0-1.472-1.792-3.392-4.256-4.576-.16-.064-.352.128-.256.256a9.343,9.343,0,0,1,1.952,4.544C172.544,57.24,172.96,57.56,173.568,57.56Zm9.12.544a20.928,20.928,0,0,0,4.992-4.8c.96-.1,1.248-.224,1.248-.576,0-.32-.32-.544-3.008-1.792a12.031,12.031,0,0,1-.864,2.336,22.26,22.26,0,0,1-2.72,4.512C182.208,57.944,182.528,58.232,182.688,58.1Z" transform="translate(30 198.011)"/>
    </g>
    <g id="グループ_709" data-name="グループ 709" transform="translate(-76 -85.854)">
      <path id="パス_4630" data-name="パス 4630" d="M7.518-.56V-6.2h4.83V-7.224H7.518v-4.438H6.426v4.438H1.666V-6.2h4.76V-.56H.784V.462h12.46V-.56ZM13.3,7.374H9.394V6.3H8.4V7.374H4.634v.84H13.3Zm-.014,2.45a15.881,15.881,0,0,0-2.814-1.5l-.658.518A17.484,17.484,0,0,1,12.6,10.412ZM7.238,8.368A10.05,10.05,0,0,1,4.592,9.8a6.082,6.082,0,0,1,.672.672A12.993,12.993,0,0,0,8.078,8.676Zm-2.968,5.6-1.134.546V10.636H4.354V9.67H3.136V6.464H2.184V9.67H.77v.966H2.184v4.326c-.658.308-1.246.588-1.722.784l.406.98c1.064-.546,2.408-1.218,3.668-1.862Zm3.556-.8H10.01v.854H7.826Zm0-1.6H10.01V12.4H7.826Zm4.648,3.542a18.632,18.632,0,0,1-1.82,1.232,6.142,6.142,0,0,1-.84-1.512h3.472v-.812H10.92V13.17H12.6V12.4H10.92v-.826h1.988V10.79H10.92V9.81h-.91v.98H7.826V9.81h-.91v.98H5v.784H6.916V12.4H5.32v.77h1.6v.854H4.592v.812H7.616a12.311,12.311,0,0,1-3.64,1.512,4.888,4.888,0,0,1,.588.77,18.141,18.141,0,0,0,1.918-.756v1.5c-.546.1-1.05.168-1.47.238l.182.854c1.3-.224,3.052-.546,4.76-.854L9.9,17.286l-2.506.42V15.9a8.408,8.408,0,0,0,1.526-1.064,6.378,6.378,0,0,0,4.018,4.242,4.327,4.327,0,0,1,.616-.8,5.49,5.49,0,0,1-2.408-1.386,15.267,15.267,0,0,0,1.96-1.232Zm-7.91,9.46A11.891,11.891,0,0,1,.378,29.84a6.051,6.051,0,0,1,.882.8,14.424,14.424,0,0,0,4.4-5.754Zm-1.918,4.97v1.008H5.5C5.18,32.92,4.41,35.132,1.12,36.224a4.129,4.129,0,0,1,.672.91c3.556-1.288,4.452-3.822,4.816-6.58H10.22c-.168,3.528-.364,4.928-.728,5.278-.126.154-.294.182-.588.182-.322,0-1.19-.014-2.1-.1a2.531,2.531,0,0,1,.35,1.036,20.056,20.056,0,0,0,2.2.028,1.4,1.4,0,0,0,1.078-.49c.476-.532.686-2.142.882-6.44.014-.14.028-.5.028-.5ZM8.414,24.94a18.515,18.515,0,0,0,4.34,5.572,5.353,5.353,0,0,1,.854-.924,14.814,14.814,0,0,1-4.214-5.04ZM5.88,49.884c-.294-.378-1.526-1.9-1.96-2.394V46.258H5.838v-.98H3.92v-3H2.94v3H.77v.98H2.8A14.992,14.992,0,0,1,.448,51.522a6.3,6.3,0,0,1,.546.938A15.254,15.254,0,0,0,2.94,48.372V55.05h.98V48.722c.49.686,1.064,1.54,1.316,2Zm7.546-2.842H7.8V44.564a25.662,25.662,0,0,0,5-1.316l-.882-.8a23.014,23.014,0,0,1-4.242,1.232l-.882-.266V47.35c0,2.086-.154,4.9-1.722,6.972a3.107,3.107,0,0,1,.784.686c1.54-2.044,1.89-4.83,1.932-6.972h2.534v7.028h1.036V48.036h2.072Z" transform="translate(396 267)"/>
      <g id="グループ_505" data-name="グループ 505" transform="translate(227.295 -33)">
        <path id="パス_4631" data-name="パス 4631" d="M10.08-6.426v-.5h1.54c.616,0,1.134.028,1.288.042V-8.064a10.294,10.294,0,0,1-1.288.07H10.08v-1.75a10.614,10.614,0,0,1,.07-1.148H8.89a7.8,7.8,0,0,1,.07,1.148v1.75H4.97V-9.786a8.641,8.641,0,0,1,.07-1.022H3.794A8.646,8.646,0,0,1,3.85-9.786v1.792H2.338a10.264,10.264,0,0,1-1.4-.1v1.218c.168-.014.8-.056,1.4-.056H3.85v2.268c0,.532-.042,1.134-.056,1.274H5.026c-.014-.14-.056-.756-.056-1.274V-6.93H8.96v.588c0,3.92-1.274,5.124-3.822,6.1l.938.882C9.282-.784,10.08-2.7,10.08-6.426Zm.112,31.45-.742.322a16,16,0,0,1,1.134,1.946l.756-.35A21.7,21.7,0,0,0,10.192,25.024Zm1.54-.56-.742.322a14.718,14.718,0,0,1,1.162,1.932l.756-.35A20.031,20.031,0,0,0,11.732,24.464ZM3.906,25.5H2.6a7.588,7.588,0,0,1,.084,1.134v7.7c0,1.134.6,1.624,1.68,1.82a14.712,14.712,0,0,0,2.24.14A39.143,39.143,0,0,0,11.452,36V34.726a22.913,22.913,0,0,1-4.788.448,13.3,13.3,0,0,1-1.848-.112c-.686-.14-.98-.322-.98-1.036v-3.08a53.671,53.671,0,0,0,5.726-1.82c.42-.154.924-.378,1.316-.546l-.49-1.12a10.206,10.206,0,0,1-1.232.63A38.134,38.134,0,0,1,3.836,29.8V26.634A9.3,9.3,0,0,1,3.906,25.5ZM11.2,44.634l-.714-.546a3.834,3.834,0,0,1-1.05.112h-5.4c-.42,0-1.218-.056-1.414-.084V45.39c.154-.014.924-.07,1.414-.07h5.46a12.319,12.319,0,0,1-2.324,3.892A16.009,16.009,0,0,1,1.4,53.37l.9.938a17.748,17.748,0,0,0,5.46-4.088,32.324,32.324,0,0,1,3.85,4.158l.98-.84A38.835,38.835,0,0,0,8.5,49.352a17.719,17.719,0,0,0,2.352-4.1A4.016,4.016,0,0,1,11.2,44.634Z" transform="translate(132 299)"/>
        <path id="パス_4632" data-name="パス 4632" d="M1.428-6.062V-4.69c.434-.042,1.176-.07,1.946-.07H11.06c.63,0,1.218.056,1.5.07V-6.062c-.308.028-.812.07-1.512.07H3.374C2.59-5.992,1.848-6.034,1.428-6.062Z" transform="translate(134 304) rotate(90)"/>
      </g>
      <path id="パス_361" data-name="パス 361" d="M16998.705,4781.549V4854" transform="translate(-16577.705 -4530)" fill="none" stroke="#000" stroke-width="1"/>
      <path id="パス_362" data-name="パス 362" d="M16998.705,4781.55V4854" transform="translate(-16614.525 -4530)" fill="none" stroke="#000" stroke-width="1"/>
    </g>
  </g>
</svg>
