<svg xmlns="http://www.w3.org/2000/svg" width="713.268" height="138.999" viewBox="0 0 713.268 138.999">
  <g id="グループ_934" data-name="グループ 934" transform="translate(-289.355 -213)">
    <g id="グループ_631" data-name="グループ 631" transform="translate(279.915 212.022)">
      <path id="パス_3175" data-name="パス 3175" d="M8.055-.6V-6.645H13.23V-7.74H8.055v-4.755H6.885V-7.74h-5.1v1.095h5.1V-.6H.84V.5H14.19V-.6ZM14.25,7.615H10.065V6.46H9V7.615H4.965v.9H14.25Zm-.015,2.625a17.016,17.016,0,0,0-3.015-1.6l-.705.555A18.733,18.733,0,0,1,13.5,10.87ZM7.755,8.68A10.768,10.768,0,0,1,4.92,10.21a6.517,6.517,0,0,1,.72.72A13.921,13.921,0,0,0,8.655,9.01Zm-3.18,6-1.215.585V11.11h1.3V10.075H3.36V6.64H2.34v3.435H.825V11.11H2.34v4.635c-.705.33-1.335.63-1.845.84l.435,1.05c1.14-.585,2.58-1.305,3.93-2Zm3.81-.855h2.34v.915H8.385Zm0-1.71h2.34V13H8.385Zm4.98,3.8a19.963,19.963,0,0,1-1.95,1.32,6.581,6.581,0,0,1-.9-1.62h3.72v-.87H11.7v-.915h1.8V13H11.7v-.885h2.13v-.84H11.7v-1.05h-.975v1.05H8.385v-1.05H7.41v1.05H5.355v.84H7.41V13H5.7v.825H7.41v.915H4.92v.87H8.16a13.19,13.19,0,0,1-3.9,1.62,5.237,5.237,0,0,1,.63.825,19.438,19.438,0,0,0,2.055-.81v1.6c-.585.1-1.125.18-1.575.255l.195.915c1.395-.24,3.27-.585,5.1-.915l-.06-.87-2.685.45V16.75a9.009,9.009,0,0,0,1.635-1.14,6.834,6.834,0,0,0,4.305,4.545,4.636,4.636,0,0,1,.66-.855,5.882,5.882,0,0,1-2.58-1.485,16.358,16.358,0,0,0,2.1-1.32ZM4.89,25.76A12.74,12.74,0,0,1,.405,31.4a6.483,6.483,0,0,1,.945.855A15.454,15.454,0,0,0,6.06,26.09ZM2.835,31.085v1.08h3.06c-.345,2.535-1.17,4.9-4.7,6.075a4.423,4.423,0,0,1,.72.975c3.81-1.38,4.77-4.1,5.16-7.05h3.87c-.18,3.78-.39,5.28-.78,5.655-.135.165-.315.195-.63.195-.345,0-1.275-.015-2.25-.1a2.712,2.712,0,0,1,.375,1.11,21.488,21.488,0,0,0,2.355.03,1.5,1.5,0,0,0,1.155-.525c.51-.57.735-2.3.945-6.9.015-.15.03-.54.03-.54Zm6.18-4.935a19.838,19.838,0,0,0,4.65,5.97,5.736,5.736,0,0,1,.915-.99,15.872,15.872,0,0,1-4.515-5.4ZM6.3,52.59c-.315-.4-1.635-2.04-2.1-2.565v-1.32H6.255v-1.05H4.2v-3.21H3.15v3.21H.825v1.05H3a16.063,16.063,0,0,1-2.52,5.64,6.746,6.746,0,0,1,.585,1A16.344,16.344,0,0,0,3.15,50.97v7.155H4.2v-6.78c.525.735,1.14,1.65,1.41,2.145Zm8.085-3.045H8.355V46.89a27.494,27.494,0,0,0,5.355-1.41l-.945-.855a24.659,24.659,0,0,1-4.545,1.32l-.945-.285v4.215c0,2.235-.165,5.25-1.845,7.47a3.329,3.329,0,0,1,.84.735C7.92,55.89,8.3,52.9,8.34,50.61h2.715v7.53h1.11V50.61h2.22Z" transform="translate(51.06 17.978)"/>
      <g id="グループ_505" data-name="グループ 505" transform="translate(6.143 0)">
        <path id="パス_3176" data-name="パス 3176" d="M10.8-6.885v-.54h1.65c.66,0,1.215.03,1.38.045V-8.64a11.029,11.029,0,0,1-1.38.075H10.8V-10.44a11.372,11.372,0,0,1,.075-1.23H9.525A8.362,8.362,0,0,1,9.6-10.44v1.875H5.325v-1.92a9.258,9.258,0,0,1,.075-1.1H4.065a9.264,9.264,0,0,1,.06,1.1v1.92H2.5A11,11,0,0,1,1-8.67v1.305c.18-.015.855-.06,1.5-.06h1.62v2.43c0,.57-.045,1.215-.06,1.365h1.32c-.015-.15-.06-.81-.06-1.365v-2.43H9.6v.63c0,4.2-1.365,5.49-4.095,6.54l1,.945C9.945-.84,10.8-2.895,10.8-6.885Zm.12,33.125-.8.345A17.142,17.142,0,0,1,11.34,28.67l.81-.375A23.246,23.246,0,0,0,10.92,26.24Zm1.65-.6-.795.345a15.769,15.769,0,0,1,1.245,2.07l.81-.375A21.462,21.462,0,0,0,12.57,25.64ZM4.185,26.75H2.79a8.13,8.13,0,0,1,.09,1.215v8.25c0,1.215.645,1.74,1.8,1.95a15.763,15.763,0,0,0,2.4.15A41.939,41.939,0,0,0,12.27,38V36.635a24.55,24.55,0,0,1-5.13.48,14.255,14.255,0,0,1-1.98-.12c-.735-.15-1.05-.345-1.05-1.11v-3.3a57.5,57.5,0,0,0,6.135-1.95c.45-.165.99-.405,1.41-.585l-.525-1.2a10.935,10.935,0,0,1-1.32.675,40.858,40.858,0,0,1-5.7,1.83v-3.39A9.961,9.961,0,0,1,4.185,26.75ZM12,46.965l-.765-.585a4.107,4.107,0,0,1-1.125.12H4.32c-.45,0-1.3-.06-1.515-.09v1.365c.165-.015.99-.075,1.515-.075h5.85a13.2,13.2,0,0,1-2.49,4.17A17.153,17.153,0,0,1,1.5,56.325l.96,1.005a19.016,19.016,0,0,0,5.85-4.38A34.633,34.633,0,0,1,12.435,57.4l1.05-.9A41.609,41.609,0,0,0,9.1,52.02a18.984,18.984,0,0,0,2.52-4.4A4.3,4.3,0,0,1,12,46.965Z" transform="translate(2.292 17)"/>
        <path id="パス_3177" data-name="パス 3177" d="M1.53-6.495v1.47C2-5.07,2.79-5.1,3.615-5.1H11.85c.675,0,1.3.06,1.6.075v-1.47c-.33.03-.87.075-1.62.075H3.615C2.775-6.42,1.98-6.465,1.53-6.495Z" transform="translate(3.918 23.064) rotate(90)"/>
      </g>
      <path id="パス_361" data-name="パス 361" d="M16998.705,4781.548v82" transform="translate(-16919.646 -4780.57)" fill="none" stroke="#000" stroke-width="1"/>
      <path id="パス_499" data-name="パス 499" d="M16998.705,4781.548v82" transform="translate(-16960.645 -4780.57)" fill="none" stroke="#000" stroke-width="1"/>
    </g>
    <path id="パス_3178" data-name="パス 3178" d="M21.08-.16V-17.24H34.6c.4,0,.52-.16.52-.4s-.16-.52-1.12-1.28c-2-1.6-2.28-1.8-2.56-1.8-.24,0-.52.2-2.44,2.48H21.08V-30.68c1.16-.4,1.48-.72,1.48-1.08,0-.44-.52-.84-4.84-1.24.16,1.64.2,3.96.2,8.28v6.48H9.12a26.312,26.312,0,0,1-3.84-.28l.4,1.56a20.839,20.839,0,0,1,3.4-.28h8.84V-.16H5.88a24.371,24.371,0,0,1-4-.32l.4,1.56A22.975,22.975,0,0,1,5.88.84H37.64c.4,0,.52-.12.52-.4,0-.24-.2-.48-1.2-1.32-2.12-1.76-2.4-1.96-2.68-1.96-.24,0-.52.2-2.56,2.68ZM60.12-20.88H64.8c.36,0,.52-.12.52-.4s-.2-.56-.72-1.04c-1.28-1.2-1.56-1.36-1.8-1.36s-.6.16-1.68,1.8h-1v-8.08c1.16-.56,1.4-.76,1.4-1.08,0-.44-.48-.72-4.44-1.12a57.084,57.084,0,0,1,.2,6.68v3.6H55.44a12.005,12.005,0,0,1-2.6-.28l.4,1.52a13.049,13.049,0,0,1,2.32-.24h1.72v11.6c-.88.36-1.68.64-2.44.92a12.873,12.873,0,0,1-2.48.6c1.6,3.8,1.76,3.92,2.2,3.92s.64-.4.72-1.6a47.813,47.813,0,0,0,8.28-5.44l.32,1.28a13.707,13.707,0,0,1,2.8-.24h4.96c-2.56,2.8-6.88,5.48-12.2,7.48-.28.08-.08.68.2.6a42.093,42.093,0,0,0,8.92-3.08V-.32c-.64.08-1.28.16-1.88.24A17.973,17.973,0,0,1,64.2.08c1.08,3.24,1.44,3.88,1.76,3.88.36,0,.64-.32.76-1.32A50.9,50.9,0,0,0,78.2-1.76c.2-.12.04-.6-.2-.52A62.442,62.442,0,0,1,71.28-.76V-6.4a31.015,31.015,0,0,0,4.24-3.32,18.849,18.849,0,0,0,4.8,8.12,22.549,22.549,0,0,0,6.12,4.2,4.646,4.646,0,0,0,1.28.44c.28,0,.4-.16.56-.72.48-1.28.92-1.68,1.88-1.96.24-.08.28-.48.04-.52A22.117,22.117,0,0,1,81.36-3.6a12.051,12.051,0,0,1-1.12-.88,24.063,24.063,0,0,0,4.64-2.16c1.32.08,1.76-.04,1.76-.36,0-.4-.68-.84-3.24-2.32a5.747,5.747,0,0,1-1.08,1.68A21.021,21.021,0,0,1,79.64-5,16.655,16.655,0,0,1,76.2-9.84H88.84c.4,0,.52-.16.52-.4s-.16-.48-.8-1.04c-1.44-1.08-1.76-1.28-2.04-1.28-.24,0-.44.16-1.76,1.72h-4v-3.68h6.12c.4,0,.52-.12.52-.4,0-.24-.16-.52-.76-1-1.36-1.04-1.64-1.24-1.92-1.24-.24,0-.44.2-1.64,1.64H80.76v-3.36h6.76c.4,0,.56-.12.56-.4,0-.24-.2-.52-.76-1-1.44-1.08-1.72-1.28-2-1.28-.24,0-.52.2-1.64,1.68H80.76v-1.88c.8-.32,1-.56,1-.84,0-.32-.32-.56-3.72-.84A27.26,27.26,0,0,1,78.16-20v.12H73.12v-1.88c.8-.36,1.04-.6,1.04-.84,0-.32-.32-.56-3.76-.88a27.26,27.26,0,0,1,.12,3.44v.16H67.8a17.167,17.167,0,0,1-3.04-.28l.44,1.52a17.019,17.019,0,0,1,2.68-.24h2.64v3.36h-2a16.745,16.745,0,0,1-3-.28l.44,1.52a13.042,13.042,0,0,1,2.6-.24h1.96v3.68H66.64a17.013,17.013,0,0,1-2.84-.24c.48-.4.96-.84,1.4-1.28.16-.16-.08-.52-.24-.44-1.44.8-3.12,1.6-4.84,2.36Zm13,10.04v-3.68h5.04v3.68Zm0-4.68v-3.36h5.04v3.36Zm4-13.52v-2.28c.92-.36,1.24-.64,1.24-.92,0-.4-.44-.72-4.24-1.08.08,1.12.12,1.88.12,2.56v1.72H67.4a16.033,16.033,0,0,1-3.28-.28l.4,1.52a21,21,0,0,1,3-.24H88.36c.4,0,.52-.12.52-.36s-.12-.52-.88-1.16C86.4-30.84,86-31,85.76-31s-.56.2-2.04,1.96ZM85.88-22a1.169,1.169,0,0,0,1.16-1.28c0-1.8-3.64-3.64-8.6-3.96-.24,0-.36.44-.12.52a16.624,16.624,0,0,1,6.08,3.8C85.12-22.2,85.44-22,85.88-22Zm-20.36.2A19.262,19.262,0,0,0,73-25.32c1.2,0,1.52-.16,1.52-.48,0-.36-.56-.68-3.32-1.84a8.548,8.548,0,0,1-1.76,2.28,20.376,20.376,0,0,1-4.12,3.04C65.12-22.2,65.28-21.76,65.52-21.8Zm49.28,5.84a9.961,9.961,0,0,1-2.56-.32l.4,1.52a11.759,11.759,0,0,1,2.2-.2h1c-.08,8.24-1.24,11.8-5,15.52-.16.16.16.6.36.48,5.36-3.52,7.32-7.6,7.36-16h3.4v9.44a17.3,17.3,0,0,1-3.16.88c1.08,3.2,1.36,3.56,1.76,3.56.36,0,.6-.36.8-1.32a41.6,41.6,0,0,0,7.88-6c.16-.16-.04-.6-.24-.48a42.636,42.636,0,0,1-4.48,2.28v-8.36h3.6c.4,0,.52-.12.52-.4,0-.24-.2-.52-.72-.96a18.385,18.385,0,0,0,1.6-2.32,55.071,55.071,0,0,0,2.44,10.52,29.459,29.459,0,0,1-10.12,10.8c-.24.16.04.68.28.56A28.783,28.783,0,0,0,133-5.56a25.2,25.2,0,0,0,4.92,7.24c.64.68,1.12,1.04,1.36,1.04s.32-.08.6-.64A2.933,2.933,0,0,1,141.76.2c.16-.04.32-.32.16-.4a17.647,17.647,0,0,1-7.28-6.56,6.02,6.02,0,0,1-.4-.68,29.788,29.788,0,0,0,3.16-8.36,53.594,53.594,0,0,0,1-7.56h2.52c.36,0,.56-.12.56-.36,0-.28-.24-.52-.84-1.08-1.44-1.36-1.72-1.56-2-1.56-.24,0-.52.2-1.92,2h-4.56a61.968,61.968,0,0,0,1.76-6.28c.92-.32,1.2-.56,1.2-.92,0-.44-.96-.8-4.04-1.44a28.817,28.817,0,0,1-.48,5.16,39.077,39.077,0,0,1-3.2,11.08c-.96-.8-1.24-.96-1.44-.96-.24,0-.56.2-1.72,1.76Zm20.72-7.4a45.18,45.18,0,0,1-.76,6.96,31.1,31.1,0,0,1-1.88,6.32,39.674,39.674,0,0,1-2.76-9.56,31.1,31.1,0,0,0,1.68-3.72Zm-25.48,8.32c.96-.4,1.12-.64,1.12-.92,0-.4-.28-.6-1.96-.84a27.891,27.891,0,0,0,3.32-5.28c1.2-.12,1.44-.32,1.44-.68,0-.4-.6-.8-3.56-1.92a19.692,19.692,0,0,1-1.32,3.8,36.878,36.878,0,0,1-6.12,9.2c-.16.16.16.64.36.48a32.131,32.131,0,0,0,4.08-3.56c-.04,1.8-.04,3.6-.08,5.36-.04,7.96-.2,10.8-.2,11.64,0,.88.52,1.2,1.28,1.2,1.12,0,1.68-.4,1.68-1.36,0-1.16-.04-4.96-.04-12.56Zm9.36-6.72h-2.96v-6.28c.88-.32,1.12-.52,1.12-.84,0-.52-.28-.6-3.68-1.08a39.3,39.3,0,0,1,.16,4.92c0,3.6-.08,5-.08,5.28,0,.68.32,1,1.08,1,.92,0,1.4-.4,1.4-1.12v-.88h8.44v.44c0,.6.32.92,1.04.92.88,0,1.48-.4,1.48-1.08,0-.52-.08-2.16-.08-5.6v-1.96c.8-.32,1-.52,1-.8,0-.44-.44-.64-3.64-1.08a28.37,28.37,0,0,1,.2,3.6v4.56h-3v-8.92c.84-.36,1.12-.64,1.12-.88,0-.4-.36-.72-3.8-1.08a30.263,30.263,0,0,1,.2,3.76Zm-15.64-.4a27.38,27.38,0,0,0,8.44-8.56c1.24-.04,1.68-.24,1.68-.64,0-.44-1.24-1.08-3.88-2.04a12.636,12.636,0,0,1-1.16,3.04,28.468,28.468,0,0,1-5.44,7.72C103.24-22.48,103.56-22.04,103.76-22.16ZM175.08-.2V-11.28H187.4c.4,0,.52-.16.52-.4s-.16-.52-1.04-1.24c-1.92-1.64-2.2-1.84-2.48-1.84-.24,0-.52.2-2.4,2.48h-6.92v-9.44h13.44c.4,0,.52-.12.52-.36,0-.28-.16-.56-1.08-1.32-2-1.64-2.24-1.88-2.52-1.88-.24,0-.52.24-2.44,2.56h-7.92v-7.92c1.16-.44,1.48-.72,1.48-1.12,0-.48-.48-.84-4.72-1.24a75.883,75.883,0,0,1,.24,8.16v2.12h-7.6a42.232,42.232,0,0,0,1.88-4.68c1.16-.28,1.56-.48,1.56-.88,0-.56-.88-.92-4.32-1.92a27.922,27.922,0,0,1-.84,4.12,34.525,34.525,0,0,1-6.52,12.52c-.2.2.24.6.48.44a25.681,25.681,0,0,0,7.24-8.6h8.12v9.44H164.4a22.15,22.15,0,0,1-3.48-.28l.4,1.52a18.155,18.155,0,0,1,3.16-.24h7.6V-.2H159.84a22.6,22.6,0,0,1-3.92-.28l.4,1.56A21.218,21.218,0,0,1,159.84.8h31.04c.4,0,.52-.12.52-.36s-.16-.52-1.2-1.32c-2.04-1.72-2.32-1.92-2.6-1.92-.24,0-.52.2-2.6,2.6Zm50.44-24.96a36.011,36.011,0,0,0,2.52-6.04c1.2-.24,1.44-.52,1.44-.88,0-.52-1-.88-4.32-1.52a21.842,21.842,0,0,1-.88,4.88,35.877,35.877,0,0,1-5.32,11.32c-.12.16.2.48.36.36A29.113,29.113,0,0,0,225-24.16h3.04A29.9,29.9,0,0,1,217.92-7.68c-.16.12.16.48.32.4,6.48-3.36,10.72-9.08,12.72-16.88h3.28c-1.8,11.44-6.72,18.72-13.96,23.72-.2.12.08.56.28.44,9.28-4.48,14.28-11.08,16.6-24.16h1.76c-.24,9.4-.68,16-1.84,20.4-.64,2.6-1,3-2.6,3a42.611,42.611,0,0,1-5.12-.52c-.28-.04-.36.52-.08.6,3.4.88,4.28,1.56,4.56,2.84.16.6.24.72.72.72a4.772,4.772,0,0,0,2.96-.96,6.57,6.57,0,0,0,1.96-3.36c1.52-4.52,1.88-9.88,2.36-21.88.92-.6,1.08-.76,1.08-1,0-.28-.12-.52-.76-1.12-1.28-1.16-1.6-1.28-1.88-1.28-.24,0-.48.16-1.72,1.56Zm-9.16,2.4h4.76c.4,0,.52-.12.52-.36,0-.28-.2-.56-.68-.96-1.32-1.2-1.56-1.4-1.8-1.4s-.52.2-1.64,1.72h-1.16V-31.4c1.12-.48,1.36-.72,1.36-1.04,0-.52-.36-.68-4.32-1.16.12,1.56.16,3.24.16,9.84h-3.04c.36-1.2.68-2.44.92-3.64,1-.28,1.24-.48,1.24-.8,0-.48-1-.84-3.76-1.56a35.061,35.061,0,0,1-.4,4.2,46.814,46.814,0,0,1-2.56,10c-.08.24.36.4.52.2a23.423,23.423,0,0,0,3.76-7.4h3.32v.44c0,3.56,0,6.64-.04,9.32-1.4.36-2.8.64-4.12.88a15.871,15.871,0,0,1-2.68.24c.92,3.36,1.28,4,1.76,4,.36,0,.6-.32.76-1.44,1.52-.48,2.92-1,4.28-1.56-.04,7.92-.16,11.64-.16,13.08,0,.76.32,1.12,1.28,1.12,1.28,0,1.84-.48,1.84-1.44,0-1.52-.08-5.56-.12-14a32.523,32.523,0,0,0,4.92-2.76c.2-.12.08-.6-.16-.52-1.52.6-3.12,1.16-4.76,1.64ZM288-14.68C282.92-5.8,275.68-.8,262.52,2.56c-.28.08-.16.72.12.68,14.12-1.88,22.32-6.6,28.32-16.92,1.24-.4,1.44-.56,1.44-1,0-.24-.12-.48-.8-1.08-1.48-1.16-1.72-1.32-2-1.32-.24,0-.48.16-1.68,1.4H280.2c.64-.8,1.24-1.64,1.84-2.52,1.16-.12,1.56-.32,1.56-.72,0-.48-.52-.72-3.68-1.84a17.165,17.165,0,0,1-1.84,3.28A33.722,33.722,0,0,1,264.8-6.52c-.24.12.08.68.36.6a33.917,33.917,0,0,0,9.88-4.8,8.429,8.429,0,0,1,2.76,3.84c.4,1.08.64,1.32,1.28,1.32a1.587,1.587,0,0,0,1.44-1.72c0-1.64-1.76-3.16-4.8-3.96a29.625,29.625,0,0,0,3.64-3.44Zm-8.08-13.04c-4.24,7.56-10.96,13.2-20.92,17.04-.28.12-.16.68.12.6,11.2-2.6,18.48-7.8,23.72-16.64,1.32-.44,1.48-.56,1.48-.92,0-.24-.16-.48-.76-1.04-1.48-1.28-1.72-1.44-2-1.44-.24,0-.48.16-1.68,1.4H272.8c.48-.68.96-1.44,1.44-2.2,1.2-.16,1.52-.36,1.52-.76,0-.48-.96-.96-3.76-1.96a13.55,13.55,0,0,1-1.76,3.6,31.946,31.946,0,0,1-10.8,10.76c-.24.16.04.72.28.6a33.87,33.87,0,0,0,8.12-4.68,7.624,7.624,0,0,1,2.56,3.52c.36.8.6,1.08,1.12,1.08a1.517,1.517,0,0,0,1.36-1.6c0-1.52-1.6-2.88-4.48-3.48a25.678,25.678,0,0,0,3.64-3.88Zm53.32,2.04h11.4c.4,0,.52-.12.52-.4,0-.24-.16-.52-.8-1.04-1.4-1.16-1.72-1.32-2.04-1.32-.24,0-.52.2-1.84,1.76h-5.8a22.9,22.9,0,0,0,3.8-4c1.32-.12,1.56-.28,1.56-.72,0-.48-.68-.8-3.84-2.08a12.842,12.842,0,0,1-.76,2.68,29.1,29.1,0,0,1-1.92,4.12h-8.8a14.513,14.513,0,0,1-2.84-.28l.44,1.48a18.725,18.725,0,0,1,2.44-.2h5.84v4.44h-4.8a15.156,15.156,0,0,1-2.92-.32l.4,1.52a15.55,15.55,0,0,1,2.56-.2h4.76v4.56h-5.48a20.264,20.264,0,0,1-3.32-.28l.4,1.48a20.562,20.562,0,0,1,3-.2h5.4v7.4a58.327,58.327,0,0,1-8.72,3.04,18.108,18.108,0,0,1-2.88.56c1.4,3.2,1.8,3.76,2.12,3.76.36,0,.52-.28.64-1.52a50.4,50.4,0,0,0,8.84-5.08V-.88c0,.6-.16.8-.64.8-1.2,0-2.88-.04-4.92-.24-.24-.04-.28.48-.04.52,3.28.72,3.88,1.24,4.08,2.28.12.64.24.76.6.76a4.317,4.317,0,0,0,2.56-.76A2.762,2.762,0,0,0,333.36.12c0-1.44-.08-4.56-.36-14.04a27.008,27.008,0,0,0,3.88,9.04A27.228,27.228,0,0,0,342.36.76a2.291,2.291,0,0,0,1.32.64c.24,0,.36-.12.56-.72a2.671,2.671,0,0,1,1.84-1.8c.2-.08.28-.4.08-.48a19.99,19.99,0,0,1-7.84-4.88,16.482,16.482,0,0,1-1.12-1.24,28.6,28.6,0,0,0,4.88-3.12c1.28.12,1.68-.08,1.68-.44,0-.4-.64-.88-3.36-2.32a9.137,9.137,0,0,1-.84,1.76,18.366,18.366,0,0,1-2.8,3.52,23.173,23.173,0,0,1-3.2-6.36h11.68c.36,0,.52-.16.52-.4s-.16-.52-.88-1.08c-1.56-1.36-1.84-1.56-2.08-1.56s-.64.24-2.08,2.04h-7.48v-4.56h9c.44,0,.56-.16.56-.4s-.2-.48-.84-1.08c-1.4-1.2-1.68-1.4-1.96-1.4-.24,0-.52.2-1.96,1.88h-4.8Zm-16.2,2.52h5c.44,0,.56-.12.56-.4,0-.2-.2-.52-.68-.96-1.4-1.36-1.64-1.56-1.88-1.56s-.52.2-1.64,1.92h-1.36v-7.2c1.12-.48,1.44-.76,1.44-1.12,0-.52-.56-.72-4.36-1.12a32.435,32.435,0,0,1,.28,5.12v4.32h-2.84a14.418,14.418,0,0,1-2.8-.28l.4,1.48a15.419,15.419,0,0,1,2.52-.2H314A54.644,54.644,0,0,1,308.16-6.6c-.12.2.28.48.44.32a30.428,30.428,0,0,0,5.96-10.36c-.12,12.12-.32,17.68-.32,19.04,0,.72.36,1,1.24,1,1.08,0,1.72-.36,1.72-1.16,0-2.12-.16-8.88-.16-20.56v-.56a7.907,7.907,0,0,1,1.76,4.2c.12.88.44,1.24,1.04,1.24a1.522,1.522,0,0,0,1.4-1.68c0-1.6-1.48-3.4-4.2-4.64ZM325.96-7.4a1.585,1.585,0,0,0,1.52-1.68c0-1.68-1.96-3.36-5.12-4.32-.2-.04-.48.24-.32.36A8.5,8.5,0,0,1,324.68-9C325.16-7.52,325.32-7.4,325.96-7.4Zm2.48-19.88A1.743,1.743,0,0,0,330-29.12c0-1.52-1.72-3.04-4.76-4-.16-.04-.4.16-.28.28a8.052,8.052,0,0,1,2.16,3.88C327.4-27.6,327.64-27.28,328.44-27.28Zm53.6,6.36v9.16h-5.36a12.971,12.971,0,0,1-2.96-.28l.4,1.52a15.33,15.33,0,0,1,2.6-.24h5.32V.36h-8.16a17.178,17.178,0,0,1-3.4-.28l.4,1.52A22.155,22.155,0,0,1,374,1.36h22.44c.4,0,.52-.12.52-.36s-.2-.48-1.08-1.24C393.96-1.8,393.64-2,393.36-2c-.24,0-.52.2-2.32,2.36h-6V-10.76h9.32c.4,0,.52-.12.52-.36s-.16-.52-1-1.2c-1.84-1.6-2.12-1.76-2.4-1.76-.24,0-.52.16-2.24,2.32h-4.2v-9.16H395.4c.4,0,.52-.12.52-.4,0-.24-.16-.52-1-1.2-1.8-1.52-2.08-1.72-2.32-1.72s-.56.2-2.16,2.32h-5.4v-8.76c1.12-.4,1.44-.72,1.44-1.04,0-.48-.44-.84-4.64-1.24.16,1.48.2,4,.2,8.28v2.76h-5.28a43.263,43.263,0,0,0,1.72-4.88c1.2-.36,1.32-.56,1.32-.92,0-.48-.16-.6-4.16-1.64a29.471,29.471,0,0,1-.64,4.48,35.048,35.048,0,0,1-4.56,11.28c-.12.16.24.44.4.32a24.418,24.418,0,0,0,5.48-7.64Zm-10.8,1.28c.72,0,1.28-.72,1.28-1.72,0-1.48-1.12-3.16-3.16-4.52-.12-.08-.36.04-.28.2a9.445,9.445,0,0,1,1.16,4.24C370.24-20.12,370.52-19.64,371.24-19.64Zm-10.32,3.4c1.76,0,2.76-2.24,2.76-5.24a15.162,15.162,0,0,0-.4-3.44c-.04-.2-.44-.16-.44.04-.16,2.88-.68,4.16-2.44,5.44a1.838,1.838,0,0,0-.92,1.56A1.49,1.49,0,0,0,360.92-16.24Zm7.32-14.96c1.08-.4,1.36-.72,1.36-1,0-.52-.28-.64-4.4-1.08.2,1.64.2,3.36.2,10.6,0,16.88-.2,22.96-.2,24.84,0,.8.48,1.16,1.44,1.16,1.16,0,1.76-.48,1.76-1.44,0-2-.16-8.36-.16-23.48Zm61.32,12.56a3.406,3.406,0,0,0-3.4,3.44,3.4,3.4,0,0,0,3.4,3.4A3.406,3.406,0,0,0,433-15.2,3.415,3.415,0,0,0,429.56-18.64ZM478.28.48h14V1.64c0,.68.32,1.04,1.28,1.04,1.16,0,1.76-.4,1.76-1.28,0-.72-.16-3.2-.16-8.12V-9.16c1.04-.72,1.12-.88,1.12-1.16,0-.24-.16-.48-.76-1.04-1.32-1.04-1.52-1.2-1.8-1.2-.24,0-.44.16-1.76,1.56h-5.4v-8.2h12.08c.4,0,.52-.12.52-.4,0-.24-.16-.48-.96-1.16-1.84-1.56-2.08-1.76-2.36-1.76-.24,0-.52.2-2.28,2.32h-7v-8.04a44.462,44.462,0,0,0,7.2-2.24c1.52.36,1.92.04,1.92-.28,0-.36-.64-1-2.96-2.84a13.785,13.785,0,0,1-3.52,2.12,60.988,60.988,0,0,1-14.92,4.12c-.28.04-.2.6.08.6a73.52,73.52,0,0,0,9.32-.92v7.48h-7.24a14.709,14.709,0,0,1-3.16-.28l.4,1.52a17.568,17.568,0,0,1,2.76-.24h7.24V-11h-5a18.682,18.682,0,0,0-3.48-1.68,53.7,53.7,0,0,1,.24,6.64c0,5.4-.12,7-.12,7.92,0,.72.36,1,1.2,1,1.16,0,1.76-.4,1.76-1.28Zm14-1h-14V-10h14ZM467.2,2.64c1.16,0,2.04-1,2.04-2.6,0-1.88-1.4-3.88-1.4-5.64a8.813,8.813,0,0,1,.52-2.52c1.72-4.84,3.16-9.04,4.92-14.6.08-.2-.4-.4-.48-.2a142.048,142.048,0,0,1-6.48,14.04c-.6,1.08-1.16,1.28-1.92,1.28a9.967,9.967,0,0,1-1.72-.2c-.24-.04-.32.48-.08.56,2.68.72,3.2,1.4,3.2,3.68,0,1.44-.28,2.68-.28,4.08S466.12,2.64,467.2,2.64Zm3.12-28.96c.72,0,1.4-.6,1.4-1.72,0-2-2.44-3.76-6.28-4.24-.16,0-.32.24-.2.32a10.1,10.1,0,0,1,3.48,4.04C469.28-26.68,469.56-26.32,470.32-26.32Zm-3,9.24a1.639,1.639,0,0,0,1.52-1.84c0-1.92-2.4-3.6-6.12-4.12-.16-.04-.32.28-.2.36a8.732,8.732,0,0,1,3.24,3.92C466.28-17.56,466.64-17.08,467.32-17.08Zm68.32-3.84v9.16h-5.36a12.971,12.971,0,0,1-2.96-.28l.4,1.52a15.331,15.331,0,0,1,2.6-.24h5.32V.36h-8.16a17.177,17.177,0,0,1-3.4-.28l.4,1.52a22.156,22.156,0,0,1,3.12-.24h22.44c.4,0,.52-.12.52-.36s-.2-.48-1.08-1.24C547.56-1.8,547.24-2,546.96-2c-.24,0-.52.2-2.32,2.36h-6V-10.76h9.32c.4,0,.52-.12.52-.36s-.16-.52-1-1.2c-1.84-1.6-2.12-1.76-2.4-1.76-.24,0-.52.16-2.24,2.32h-4.2v-9.16H549c.4,0,.52-.12.52-.4,0-.24-.16-.52-1-1.2-1.8-1.52-2.08-1.72-2.32-1.72s-.56.2-2.16,2.32h-5.4v-8.76c1.12-.4,1.44-.72,1.44-1.04,0-.48-.44-.84-4.64-1.24.16,1.48.2,4,.2,8.28v2.76h-5.28a43.263,43.263,0,0,0,1.72-4.88c1.2-.36,1.32-.56,1.32-.92,0-.48-.16-.6-4.16-1.64a29.475,29.475,0,0,1-.64,4.48,35.048,35.048,0,0,1-4.56,11.28c-.12.16.24.44.4.32a24.417,24.417,0,0,0,5.48-7.64Zm-10.8,1.28c.72,0,1.28-.72,1.28-1.72,0-1.48-1.12-3.16-3.16-4.52-.12-.08-.36.04-.28.2a9.445,9.445,0,0,1,1.16,4.24C523.84-20.12,524.12-19.64,524.84-19.64Zm-10.32,3.4c1.76,0,2.76-2.24,2.76-5.24a15.163,15.163,0,0,0-.4-3.44c-.04-.2-.44-.16-.44.04-.16,2.88-.68,4.16-2.44,5.44a1.838,1.838,0,0,0-.92,1.56A1.49,1.49,0,0,0,514.52-16.24Zm7.32-14.96c1.08-.4,1.36-.72,1.36-1,0-.52-.28-.64-4.4-1.08.2,1.64.2,3.36.2,10.6,0,16.88-.2,22.96-.2,24.84,0,.8.48,1.16,1.44,1.16,1.16,0,1.76-.48,1.76-1.44,0-2-.16-8.36-.16-23.48Zm54.12,4.48a11.915,11.915,0,0,1,2.56-.28h8.96c-.16,1.4-.32,2.8-.6,4.64h-1.44A18.292,18.292,0,0,0,582.28-24c.12,2.12.16,4.12.16,8.2,0,8.36-.2,10.8-.2,12.28,0,.76.36,1.04,1.28,1.04,1.08,0,1.6-.36,1.6-1.2V-4.72h9.72v.96c0,.76.28,1.08,1.2,1.08,1.08,0,1.68-.44,1.68-1.32,0-1.16-.16-4.84-.16-12.24v-4.28c.92-.48,1.12-.76,1.12-1.04,0-.24-.16-.52-.76-1-1.32-1.04-1.56-1.2-1.84-1.2-.24,0-.44.12-1.56,1.4h-5.36c.44-1.52.8-3.04,1.12-4.64h10.8c.4,0,.52-.12.52-.36,0-.28-.2-.52-.88-1.12-1.56-1.4-1.8-1.6-2.08-1.6-.24,0-.6.2-2.04,2.08h-6.12l.56-3.16c1.08-.36,1.4-.6,1.4-.96,0-.48-.36-.68-4.56-1.2a20.8,20.8,0,0,1-.08,2.76L587.56-28h-9.12a14.721,14.721,0,0,1-2.88-.24Zm9.16,21v-4.92h9.72v4.92Zm9.72-15.64v4.44h-9.72v-4.44Zm0,5.44v4.28h-9.72v-4.28Zm-23.16-3.24c.96-.4,1.16-.64,1.16-.92,0-.44-.4-.6-2.52-.96a49.426,49.426,0,0,0,4.4-9.8c1.32-.32,1.6-.48,1.6-.88,0-.48-.88-.92-4.44-1.84a24.525,24.525,0,0,1-1.08,5.48,48.351,48.351,0,0,1-6.88,14.16c-.16.24.28.68.48.48a34.254,34.254,0,0,0,4.48-5.32c0,2.68-.04,5.32-.04,7.64,0,9.08-.24,12.68-.24,13.52,0,.88.36,1.2,1.4,1.2,1.16,0,1.72-.4,1.72-1.36,0-1.36-.04-5.88-.04-15.48ZM578.6-.4V-20.44c1.08-.48,1.2-.68,1.2-1.04,0-.56-.28-.68-4.2-1.16.12,1.6.12,3,.12,7.36,0,11.44-.12,16-.12,17.4,0,.92.28,1.16,1.28,1.16,1.2,0,1.76-.4,1.76-1.32V.6h22.44c.36,0,.52-.12.52-.4,0-.24-.2-.48-.92-1.12-1.6-1.28-1.92-1.48-2.16-1.48s-.6.2-2.16,2Z" transform="translate(401.023 273.022)"/>
    <path id="パス_3179" data-name="パス 3179" d="M17.28-15.4a22.882,22.882,0,0,0-5.8,4.36A6.991,6.991,0,0,0,9.52-6.36a5.3,5.3,0,0,0,3.24,4.92A19.612,19.612,0,0,0,21.08.04a57.488,57.488,0,0,0,7.48-.4c1.72-.28,2.2-.64,2.2-1.44,0-.64-.44-1.12-1.32-1.52a4.424,4.424,0,0,0-1.72-.36,11.136,11.136,0,0,0-2,.44,32.112,32.112,0,0,1-6,.6c-2.96,0-5-.2-6.4-.96a3.407,3.407,0,0,1-2-3c0-1.76.88-3.28,2.72-4.68A24.776,24.776,0,0,1,20-14.56c2.2-.84,4.36-1.56,6.4-2.16.84-.24,1.6-.44,2.24-.6s1.24-.48,1.24-1.2a3.4,3.4,0,0,0-1.36-2.16,5.329,5.329,0,0,0-2.92-1.64c-.44,0-.84.32-.84.48,0,.12.12.16.36.32.68.44,1.28,1.08,1.28,1.52,0,.28-.16.4-.52.6-1.72.92-3.84,1.88-5.56,2.64a4.348,4.348,0,0,1-1.32.28c-.64,0-.92-.68-1-1.72a53.473,53.473,0,0,1,.12-7.68,2.106,2.106,0,0,1,.28-.96,1.54,1.54,0,0,0,.44-.96,1.861,1.861,0,0,0-.76-1.44,5.951,5.951,0,0,0-3.48-1.52,2.441,2.441,0,0,0-1.48.56,1.036,1.036,0,0,0-.48.68c0,.16.08.2.28.24.36.04.52.04.96.12a2.249,2.249,0,0,1,1.12.52c.28.32.32.6.36,1.48.16,3.36.2,6.32.4,8.4C15.92-16.84,16.4-16.08,17.28-15.4Zm63,8.28c-.2-3.52-.36-7.6-.36-11.92a31.18,31.18,0,0,0,5.4-1.36c.8-.28,1.16-.68,1.16-1.28,0-.68-.48-1.12-1.8-1.12a2.89,2.89,0,0,0-1.76.48,5.371,5.371,0,0,1-1.08.52c-.56.16-1.12.32-1.88.48,0-1.48.12-2.44.2-3.64a2.409,2.409,0,0,1,.56-1.6,1.138,1.138,0,0,0,.44-.92c0-.84-.88-1.36-1.72-1.8A5.685,5.685,0,0,0,76.8-30a3.836,3.836,0,0,0-1.52.44c-.28.16-.64.44-.64.64,0,.12.08.2.28.2a4.308,4.308,0,0,1,.88.08,4.918,4.918,0,0,1,1.16.32c.56.28.64.76.72,1.84.04,1.56.12,3.16.12,5.64a34.787,34.787,0,0,1-6.16.6,4.121,4.121,0,0,1-3.48-1.52c-.2-.24-.36-.36-.52-.36a.434.434,0,0,0-.32.32,1.8,1.8,0,0,0,.16.68c.92,2.24,2.56,2.8,4.6,2.8a45.474,45.474,0,0,0,5.72-.36c.04,3.68.12,7.28.16,10.92a17.98,17.98,0,0,0-3.76-.4c-3.6,0-5.68,1.84-5.68,4.04C68.52-1.88,70.8-.16,74-.16c3.88,0,6.24-1.64,6.24-4.56A20.33,20.33,0,0,1,84.28-1.8a2.274,2.274,0,0,0,1.52.72,1.275,1.275,0,0,0,1.32-1.44,1.83,1.83,0,0,0-.76-1.32A23.159,23.159,0,0,0,80.28-7.12ZM77.8-5.68a2.33,2.33,0,0,1,0,.76,2.647,2.647,0,0,1-.92,1.84,5.132,5.132,0,0,1-3.32.96c-2.64,0-3.76-.96-3.76-2.08,0-1.68,1.88-2.4,3.52-2.4A11.18,11.18,0,0,1,77.8-5.68Zm-18.36-4.6a36.438,36.438,0,0,1,2.48-11.64,4.547,4.547,0,0,1,.88-1.72,1.7,1.7,0,0,0,.44-1.28,4.776,4.776,0,0,0-1.36-3.12,8.481,8.481,0,0,0-2.04-1.84A.912.912,0,0,0,59.4-30c-.24,0-.4.12-.4.32a1.15,1.15,0,0,0,.28.6,5.126,5.126,0,0,1,.88,2.88,12.712,12.712,0,0,1-.6,3.44,58.749,58.749,0,0,0-2,13.32c0,3.12.4,6.64,1.48,8.84A2.035,2.035,0,0,0,60.76.76,1.009,1.009,0,0,0,61.8-.36a6.419,6.419,0,0,0-.12-1.2,9.5,9.5,0,0,1-.12-1.56,7.653,7.653,0,0,1,.32-1.92c.6-2.16,1.36-4.84,2.32-7.96a2.794,2.794,0,0,0,.12-.48.473.473,0,0,0-.44-.44c-.2,0-.4.16-.52.48-.96,2.28-2.04,4.96-2.96,7-.16.36-.24.52-.4.52s-.28-.16-.36-.6A21.948,21.948,0,0,1,59.44-10.28Zm63.04-21.24c-5.72,0-9.16,4.56-9.16,7.32,0,1.28.56,1.6,1.36,1.6,1.32,0,2.84-.84,2.84-2a6.484,6.484,0,0,1,.64-3.44,4.46,4.46,0,0,1,4.16-2.2c3.52,0,5.12,2.72,5.12,6.04,0,3.44-2.28,5.52-4.12,7.84-1.92,2.56-2.52,4.56-2.52,8.2q0,.48.36.48c.84,0,1.2-.28,1.2-.72-.24-3.2.48-4.8,2.72-6.72,2.56-2.16,6.12-4.44,6.12-8.92C131.2-28.28,128.12-31.52,122.48-31.52ZM121.52-3.8A2.47,2.47,0,0,0,119-1.24a2.443,2.443,0,0,0,2.52,2.44A2.458,2.458,0,0,0,124-1.24,2.486,2.486,0,0,0,121.52-3.8Z" transform="translate(595.328 346.14)"/>
    <g id="グループ_635" data-name="グループ 635" transform="translate(400.973 303.266)">
      <rect id="長方形_13404" data-name="長方形 13404" width="183" height="44" transform="translate(-0.975 4.734)" fill="#2f2013"/>
      <path id="パス_3180" data-name="パス 3180" d="M12.285-12.285A7.716,7.716,0,0,1,16.87-10.36a5.252,5.252,0,0,1,1.715,3.99,5.809,5.809,0,0,1-1,3.307A6.835,6.835,0,0,1,14.823-.718,8.9,8.9,0,0,1,10.885.14Q9.87.14,8.54.035,8.085,0,7.385-.035T5.81-.07L3.29-.035Q2.625,0,1.47,0q-.105,0-.105-.21T1.47-.42A5.5,5.5,0,0,0,3.15-.613,1.281,1.281,0,0,0,3.938-1.3a3.878,3.878,0,0,0,.227-1.54V-19.04a3.9,3.9,0,0,0-.227-1.522,1.272,1.272,0,0,0-.77-.7A5.322,5.322,0,0,0,1.5-21.455q-.07,0-.07-.21t.07-.21l1.82.035q1.54.07,2.485.07.98,0,2.065-.105.385-.035.928-.07t1.242-.035a8.047,8.047,0,0,1,4.778,1.208,3.9,3.9,0,0,1,1.662,3.343,4.681,4.681,0,0,1-1.1,3.01A7.207,7.207,0,0,1,12.285-12.285ZM9.45-21.28a1.993,1.993,0,0,0-1.523.455,2.968,2.968,0,0,0-.4,1.855v6.65l1.47.035a3.707,3.707,0,0,0,3.115-1.347,5.5,5.5,0,0,0,1.05-3.483,4.545,4.545,0,0,0-.945-3.08A3.469,3.469,0,0,0,9.45-21.28ZM10.325-.665q4.725,0,4.725-4.865A6.328,6.328,0,0,0,13.668-9.8a5.035,5.035,0,0,0-4.043-1.61q-1.26,0-2.1.07v8.505a3.071,3.071,0,0,0,.21,1.26,1.365,1.365,0,0,0,.8.683A5.289,5.289,0,0,0,10.325-.665Zm20.51-2.17A5.1,5.1,0,0,0,31.01-1.26a1.055,1.055,0,0,0,.718.665A6.165,6.165,0,0,0,33.46-.42q.105,0,.105.21T33.46,0q-1.12,0-1.785-.035L29.085-.07l-2.52.035Q25.9,0,24.745,0q-.1,0-.1-.21t.1-.21A6.165,6.165,0,0,0,26.478-.6a1.157,1.157,0,0,0,.752-.683,4.322,4.322,0,0,0,.21-1.558V-19.04a4.172,4.172,0,0,0-.21-1.54,1.218,1.218,0,0,0-.752-.683,5.632,5.632,0,0,0-1.733-.192q-.1,0-.1-.21t.1-.21l1.82.035q1.54.07,2.52.07,1.085,0,2.625-.07l1.75-.035q.105,0,.105.21t-.105.21a5.046,5.046,0,0,0-1.7.21,1.21,1.21,0,0,0-.735.717,4.686,4.686,0,0,0-.193,1.558ZM50.68.42A11.038,11.038,0,0,1,44.887-1.1a10.428,10.428,0,0,1-3.92-4.13,11.953,11.953,0,0,1-1.382-5.688A10.419,10.419,0,0,1,41.4-17.1a11.4,11.4,0,0,1,4.673-3.868A13.964,13.964,0,0,1,51.9-22.26,10.889,10.889,0,0,1,57.75-20.7a10.556,10.556,0,0,1,3.868,4.112,11.464,11.464,0,0,1,1.347,5.425,10.729,10.729,0,0,1-1.68,5.845,12.07,12.07,0,0,1-4.5,4.2A12.531,12.531,0,0,1,50.68.42Zm1.19-.84a6.507,6.507,0,0,0,3.763-1.137A7.6,7.6,0,0,0,58.257-4.9a13.061,13.061,0,0,0,.963-5.25,14.856,14.856,0,0,0-1.068-5.775,9.144,9.144,0,0,0-3.045-3.99A7.685,7.685,0,0,0,50.47-21.35,6.263,6.263,0,0,0,45.2-18.917,10.806,10.806,0,0,0,43.33-12.18a15.765,15.765,0,0,0,1.1,6.02,10.047,10.047,0,0,0,3.045,4.217A6.934,6.934,0,0,0,51.87-.42ZM73.955-21.14a4.9,4.9,0,0,0-3.518,1.313,8.479,8.479,0,0,0-2.118,3.972q0,.07-.192.07t-.193-.1q.14-1.365.315-3.517t.175-3.238q0-.175.192-.175t.192.175q0,.77,1.96.77,3.01.105,7.035.105,2.065,0,4.375-.07l2.38-.035A7.745,7.745,0,0,0,86.5-22.05a1.072,1.072,0,0,0,.787-.7.188.188,0,0,1,.21-.14q.175,0,.175.14-.1,1.085-.21,3.29t-.1,3.57q0,.1-.193.1t-.227-.1a6.632,6.632,0,0,0-1.645-3.972,4.766,4.766,0,0,0-3.5-1.278,4.471,4.471,0,0,0-1.452.175,1,1,0,0,0-.63.613,4.415,4.415,0,0,0-.158,1.382V-2.835a4.3,4.3,0,0,0,.21,1.575A1.19,1.19,0,0,0,80.6-.6a8.169,8.169,0,0,0,2,.175q.1,0,.105.21T82.6,0q-1.225,0-1.925-.035L77.805-.07l-2.73.035Q74.34,0,73.045,0q-.07,0-.07-.21t.07-.21A8.4,8.4,0,0,0,75.058-.6a1.245,1.245,0,0,0,.875-.683,4.017,4.017,0,0,0,.227-1.558V-19.04a3.708,3.708,0,0,0-.175-1.33,1.06,1.06,0,0,0-.63-.595A4.162,4.162,0,0,0,73.955-21.14ZM116.235-.42q.1,0,.1.21t-.1.21H110.6q-.805,0-2.993-2.922T102.27-11.1a6.255,6.255,0,0,1-1.155.1q-1.3,0-1.82-.035v8.19a4.664,4.664,0,0,0,.192,1.575,1.107,1.107,0,0,0,.735.665,6.165,6.165,0,0,0,1.732.175q.07,0,.07.21t-.07.21Q100.8,0,100.17-.035L97.58-.07l-2.52.035Q94.395,0,93.24,0q-.1,0-.105-.21t.105-.21A6.165,6.165,0,0,0,94.972-.6a1.157,1.157,0,0,0,.753-.683,4.322,4.322,0,0,0,.21-1.558V-19.04a4.522,4.522,0,0,0-.193-1.54,1.162,1.162,0,0,0-.752-.683,5.656,5.656,0,0,0-1.715-.192q-.07,0-.07-.21t.07-.21l1.82.035q1.54.07,2.485.07,1.05,0,2.205-.105.42-.035,1.015-.07t1.295-.035a8.416,8.416,0,0,1,4.8,1.155,3.723,3.723,0,0,1,1.68,3.255,5.522,5.522,0,0,1-.98,3.115,7.578,7.578,0,0,1-2.555,2.38q2.87,4.41,4.813,6.912a19.4,19.4,0,0,0,3.448,3.622A4.947,4.947,0,0,0,116.235-.42ZM99.295-12.005a12.576,12.576,0,0,0,2.03.14,3.8,3.8,0,0,0,2.94-.945,5.325,5.325,0,0,0,.84-3.465q0-2.835-.945-3.937a3.314,3.314,0,0,0-2.66-1.1,2.383,2.383,0,0,0-1.733.49,2.71,2.71,0,0,0-.472,1.855Zm36.54,6.545q0-.07.14-.07a.367.367,0,0,1,.192.053q.088.052.088.088a37.539,37.539,0,0,0-.35,4.865.617.617,0,0,1-.1.4.546.546,0,0,1-.42.123H120.19q-.1,0-.105-.21t.105-.21A6.165,6.165,0,0,0,121.923-.6a1.1,1.1,0,0,0,.735-.683,4.686,4.686,0,0,0,.192-1.558V-19.04a4.522,4.522,0,0,0-.192-1.54,1.162,1.162,0,0,0-.753-.683,5.656,5.656,0,0,0-1.715-.192q-.1,0-.105-.21t.105-.21h14.56q.35,0,.35.315l.07,4.55q0,.07-.192.1t-.228-.07a4.516,4.516,0,0,0-4.865-3.99h-1.4a2.735,2.735,0,0,0-1.785.455,1.948,1.948,0,0,0-.525,1.54v7.14h3.36q3.85,0,3.85-2.59,0-.1.193-.1t.193.1l-.035,3.045.035,1.645q.07,1.12.07,1.82,0,.07-.21.07t-.21-.07q0-3.01-3.92-3.01h-3.325v7.945a2.313,2.313,0,0,0,.438,1.61,2.123,2.123,0,0,0,1.557.455h1.715A5.636,5.636,0,0,0,135.835-5.46ZM163.1-.42q.1,0,.1.21t-.1.21q-.98,0-1.5-.035L159.53-.07l-2.835.035Q156.065,0,154.91,0q-.1,0-.1-.21t.1-.21q1.365,0,1.365-.595a1.449,1.449,0,0,0-.315-.77l-4.97-7.63-3.5,4.97a5.378,5.378,0,0,0-1.19,2.7,1.135,1.135,0,0,0,.49.98,2.457,2.457,0,0,0,1.435.35q.07,0,.07.21t-.07.21q-1.12,0-1.715-.035L143.99-.07l-1.61.035q-.42.035-1.4.035-.1,0-.1-.21t.1-.21a4.64,4.64,0,0,0,2.572-1.032,13.644,13.644,0,0,0,2.993-3.167l4.025-5.46-5.635-8.645a7.713,7.713,0,0,0-1.82-2.1,3.222,3.222,0,0,0-1.925-.63q-.1,0-.1-.21t.1-.21l1.435.035q.98.07,1.435.07,1.19,0,3.01-.07l1.925-.035q.07,0,.07.21t-.07.21a3.38,3.38,0,0,0-1.05.122.467.467,0,0,0-.35.472,1.786,1.786,0,0,0,.315.805L152.7-12.7l3.255-4.62a5.471,5.471,0,0,0,1.225-2.8q0-1.33-1.89-1.33-.07,0-.07-.21t.07-.21l1.715.035q1.4.07,2.52.07.7,0,1.61-.07l1.4-.035q.1,0,.1.21t-.1.21a4.657,4.657,0,0,0-2.625,1.068,13.928,13.928,0,0,0-3.01,3.237l-3.78,5.11,5.95,9.135A6.115,6.115,0,0,0,160.895-1,4.144,4.144,0,0,0,163.1-.42Z" transform="translate(9.024 37.734)" fill="#fff"/>
    </g>
  </g>
</svg>
