<svg xmlns="http://www.w3.org/2000/svg" width="451.285" height="206.82" viewBox="0 0 451.285 206.82">
  <path id="パス_2938" data-name="パス 2938" d="M28.56-25.59H19.02V-.69h1.2V-24.45h8.34ZM52.11-3.81A24.216,24.216,0,0,1,58.35-.18a2.53,2.53,0,0,0,1.38.63,1.041,1.041,0,0,0,.9-1.2,1.933,1.933,0,0,0-1.08-1.5,26.27,26.27,0,0,0-7.47-3.21,95.32,95.32,0,0,1-.54-9.87,2.6,2.6,0,0,0,1.71.54,11.511,11.511,0,0,0,2.52-.45,24.489,24.489,0,0,0,2.58-.81c.45-.18.75-.39.75-.93,0-.6-.69-.96-1.74-.96a2.115,2.115,0,0,0-1.47.6,6.309,6.309,0,0,1-1.92.87,7.531,7.531,0,0,1-1.71.39c-.45,0-.69-.03-.69-.42,0-.51.06-1.68.12-2.4a1.375,1.375,0,0,1,.42-.99.991.991,0,0,0,.33-.72c0-.54-.39-.84-1.05-1.35a4.489,4.489,0,0,0-2.4-.93,2.571,2.571,0,0,0-1.29.45.364.364,0,0,0-.21.36c0,.18.12.24.3.27s.33.03.63.09a1.757,1.757,0,0,1,1.08.66c.24.3.27.69.27,1.71.03,4.89.18,8.85.42,13.56a18.437,18.437,0,0,0-2.55-.18c-2.79,0-5.49,1.02-5.49,3.39,0,2.4,2.4,3.27,4.98,3.27,2.52,0,4.98-.87,4.98-3.99Zm-1.92-.51a3.372,3.372,0,0,1-.69,2.55,3.663,3.663,0,0,1-2.85.96c-2.31,0-3.45-.48-3.45-1.8,0-1.5,2.04-2.04,4.38-2.04A12.6,12.6,0,0,1,50.19-4.32ZM91.71-16.71c-.21,0-.33.12-.33.27,0,.21.09.3.27.42a10.108,10.108,0,0,1,3.3,3.03,8.239,8.239,0,0,1,1.5,3.72c0,.45-.15.6-.6.69-.66.12-1.35.15-2.19.24-.3.03-.54.09-.54.24,0,.21.12.3.48.39.72.18,1.35.33,1.86.48a1.923,1.923,0,0,1,1.17.84.887.887,0,0,0,.81.48,1.132,1.132,0,0,0,.87-.48,2.9,2.9,0,0,0,.45-1.77,8.371,8.371,0,0,0-1.11-3.81,9.879,9.879,0,0,0-3.27-3.51A8.081,8.081,0,0,0,91.71-16.71ZM82.38-1.8c.69,0,1.02-.42.99-.9a2.155,2.155,0,0,0-.3-.87,1.517,1.517,0,0,1-.18-.75,4.475,4.475,0,0,1,.42-1.47c.48-1.23,1.56-3.6,2.49-5.52a.978.978,0,0,0,.12-.39.415.415,0,0,0-.36-.33.8.8,0,0,0-.51.39c-1.26,2.01-2.55,4.2-3.45,5.67-.27.42-.48.57-.72.57-.42,0-1.02-.54-1.56-1.89a12.578,12.578,0,0,1-.72-4.14,15.385,15.385,0,0,1,.45-4.29,2.732,2.732,0,0,0,.27-.93,3.445,3.445,0,0,0-1.41-2.34,3.986,3.986,0,0,0-1.95-.99c-.24,0-.48.03-.48.18,0,.09.03.15.21.3a3.159,3.159,0,0,1,1.2,1.95,32.615,32.615,0,0,1,.09,3.81,27.7,27.7,0,0,0,.36,4.98,9.734,9.734,0,0,0,2.91,5.82A4.029,4.029,0,0,0,82.38-1.8ZM123.81-.12V-12.93h10.14c.3,0,.39-.12.39-.3s-.12-.39-.84-.96c-1.5-1.2-1.71-1.35-1.92-1.35-.18,0-.39.15-1.83,1.86h-5.94v-9.33c.87-.3,1.11-.54,1.11-.81,0-.33-.39-.63-3.63-.93.12,1.23.15,2.97.15,6.21v4.86h-6.6a19.734,19.734,0,0,1-2.88-.21l.3,1.17a15.63,15.63,0,0,1,2.55-.21h6.63V-.12h-9.03a18.279,18.279,0,0,1-3-.24l.3,1.17a17.231,17.231,0,0,1,2.7-.18h23.82c.3,0,.39-.09.39-.3,0-.18-.15-.36-.9-.99-1.59-1.32-1.8-1.47-2.01-1.47-.18,0-.39.15-1.92,2.01Zm21.63,2.91h9.54v-24.9h-1.2V1.65h-8.34Zm52.32-16.62a11.981,11.981,0,0,0-4.86,1.23c-1.59.69-3.21,1.56-4.86,2.37a2.273,2.273,0,0,1-.99.24c-.39,0-.75-.33-1.29-.81-.18-.18-.3-.3-.42-.3-.15,0-.27.18-.27.6a2.61,2.61,0,0,0,.75,1.59,3.259,3.259,0,0,0,2.07,1.32,1.03,1.03,0,0,0,.84-.45,6.561,6.561,0,0,1,1.29-1.2,39.451,39.451,0,0,1,3.69-2.37,8.741,8.741,0,0,1,3.99-1.11c2.55,0,4.29,1.47,4.29,4.02,0,2.04-1.23,3.57-3.24,4.77a20.9,20.9,0,0,1-6.87,2.34.529.529,0,0,0-.48.51c0,.18.18.36.51.36a7.045,7.045,0,0,0,.78-.03,21.306,21.306,0,0,0,7.98-2.28c1.95-1.14,3.54-2.73,3.54-5.31C204.21-11.79,201.36-13.83,197.76-13.83Zm33.84-4.14a12.845,12.845,0,0,0-4.17,4.29,9.576,9.576,0,0,0-1.35,5.13,7.238,7.238,0,0,0,3.21,5.94,13.355,13.355,0,0,0,7.02,2.22c1.26,0,1.59-.36,1.59-.87a1.365,1.365,0,0,0-.81-1.29,4,4,0,0,0-2.07-.51,10.214,10.214,0,0,1-5.49-1.83,5.656,5.656,0,0,1-2.07-4.5,8.647,8.647,0,0,1,2.37-5.82A9.648,9.648,0,0,1,234.15-18a19.273,19.273,0,0,1,5.28-.66c.75-.03,1.08-.3,1.05-.93,0-.45-.39-.75-.81-.93a4.837,4.837,0,0,0-1.95-.51,2.048,2.048,0,0,0-1.02.3,3.593,3.593,0,0,1-1.17.45c-4.41,1.14-8.91,2.31-13.26,3.42a10.671,10.671,0,0,1-1.8.33,2.658,2.658,0,0,1-2.25-1.05.613.613,0,0,0-.39-.24c-.15,0-.27.33-.27.75a3.21,3.21,0,0,0,.9,1.68c.78.9,1.5,1.29,2.01,1.26a1.11,1.11,0,0,0,.81-.3,4.155,4.155,0,0,1,1.29-.69c2.31-.81,5.7-1.95,9-2.97Zm29.22,2.01A80.669,80.669,0,0,1,255.3-5.52a1.667,1.667,0,0,0-.39.99,1.019,1.019,0,0,0,1.08,1.08,1.2,1.2,0,0,0,1.08-.81c1.98-4.02,3.78-7.8,5.52-12.03,1.83-.42,3.66-.93,4.71-1.29.81-.27,1.11-.51,1.11-1.02s-.42-.9-1.2-.9a4.08,4.08,0,0,0-1.44.45,19.023,19.023,0,0,1-2.43.93c.24-.6.51-1.23.72-1.68a3.326,3.326,0,0,1,.81-1.32.914.914,0,0,0,.48-.78c0-.45-.27-.66-.72-.96a6.409,6.409,0,0,0-2.55-.84,1.8,1.8,0,0,0-1.11.27c-.12.09-.24.21-.24.33,0,.09.06.12.18.15a6.351,6.351,0,0,1,1.23.39.788.788,0,0,1,.57.72,4.24,4.24,0,0,1-.18,1.05,26.98,26.98,0,0,1-1.02,3.15,19.1,19.1,0,0,1-3.93.51,3.846,3.846,0,0,1-2.52-.81.457.457,0,0,0-.36-.18.286.286,0,0,0-.24.24.593.593,0,0,0,.06.3,3.29,3.29,0,0,0,1.5,1.44,4.468,4.468,0,0,0,2.1.42A25.8,25.8,0,0,0,260.82-15.96Zm10.92,2.13c-2.13.48-3.57,1.41-3.57,4.2,0,1.47.27,3.09.39,4.65a13.29,13.29,0,0,0-2.34-.18c-2.58,0-4.56,1.14-4.56,3.09,0,1.89,1.74,3.15,4.2,3.15A4.858,4.858,0,0,0,269.37.03a3.477,3.477,0,0,0,1.14-2.88,16.052,16.052,0,0,1,3.9,2.46,1.739,1.739,0,0,0,1.11.51.953.953,0,0,0,.99-1.02,1.447,1.447,0,0,0-.6-1.17,19.892,19.892,0,0,0-5.46-2.55,34.309,34.309,0,0,1-1.02-5.61c0-2.37,1.47-2.79,2.91-2.79a4.084,4.084,0,0,1,2.49,1.29,1.447,1.447,0,0,0,.9.39.909.909,0,0,0,.9-.93,2.451,2.451,0,0,0-1.35-1.77,10.1,10.1,0,0,0-5.16-1.44,7.985,7.985,0,0,0-2.79.51c-.18.06-.3.18-.3.3a.305.305,0,0,0,.27.33,2.152,2.152,0,0,0,.39-.03,9.83,9.83,0,0,1,1.41-.09,5.933,5.933,0,0,1,2.64.51ZM268.71-3.42a2.591,2.591,0,0,1,.03.45,2.342,2.342,0,0,1-.81,1.83,3.357,3.357,0,0,1-2.37.75c-2.07,0-2.91-.75-2.91-1.65,0-1.23,1.47-1.89,3.15-1.89A9.257,9.257,0,0,1,268.71-3.42Zm25.95-5.13c2.46-4.14,4.14-7.08,5.58-9.48a3.017,3.017,0,0,1,1.2-1.35.927.927,0,0,0,.57-.9c0-.42-.24-.87-1.08-1.62a4,4,0,0,0-2.4-1.23c-.54,0-.96.18-.96.36,0,.15.12.21.36.36.9.54,1.2.96,1.2,1.47a4.063,4.063,0,0,1-.39,1.38c-.48,1.17-1.62,3.42-3.03,6.12-1.74,3.3-3.87,7.17-5.73,10.8a1.925,1.925,0,0,0-.3,1.02c0,.81.45,1.14.96,1.14a1.4,1.4,0,0,0,1.35-1.08,29.914,29.914,0,0,1,2.91-5.85,4.212,4.212,0,0,1,3.36-2.04,1.6,1.6,0,0,1,1.59.93,7.63,7.63,0,0,1,.57,3.21c.09,2.07.39,3.21.99,4.02A3.482,3.482,0,0,0,304.44.09a7.6,7.6,0,0,0,6-3.18,16.429,16.429,0,0,0,3.09-7.35c.03-.21.06-.39.06-.48a.349.349,0,0,0-.33-.39c-.24,0-.33.15-.42.42a18.354,18.354,0,0,1-3.21,6.03,7.338,7.338,0,0,1-5.07,2.85,1.818,1.818,0,0,1-1.74-.87,7.408,7.408,0,0,1-.63-2.94,6.382,6.382,0,0,0-1.08-3.39,3.226,3.226,0,0,0-2.67-1.2,5.109,5.109,0,0,0-3.72,1.89Zm48.72-13.38a.309.309,0,0,0-.33.3.465.465,0,0,0,.21.3,10.382,10.382,0,0,1,2.52,2.88q.4.81.99.81a.835.835,0,0,0,.84-.9c0-.63-.42-1.17-1.14-1.8a6.753,6.753,0,0,0-2.61-1.5A1.706,1.706,0,0,0,343.38-21.93Zm2.43-2.04a.3.3,0,0,0-.3.3.361.361,0,0,0,.21.3,9.149,9.149,0,0,1,2.76,2.82c.33.57.57.72.96.72a.852.852,0,0,0,.81-.96c0-.69-.66-1.38-1.38-1.89a7.085,7.085,0,0,0-2.4-1.17A3.918,3.918,0,0,0,345.81-23.97Zm-10.74,6.72a16.222,16.222,0,0,1,.69-1.8,2.667,2.667,0,0,1,.87-1.32.9.9,0,0,0,.39-.75c0-.27-.06-.54-.57-.93a5.694,5.694,0,0,0-2.7-1.14,2.229,2.229,0,0,0-1.14.33c-.12.06-.27.15-.27.3,0,.12.06.21.27.27a5.073,5.073,0,0,1,1.2.39.848.848,0,0,1,.54.81,5.36,5.36,0,0,1-.24,1.47c-.21.81-.48,1.68-.84,2.85a20.848,20.848,0,0,1-4.26.81,4.281,4.281,0,0,1-2.55-.72.791.791,0,0,0-.45-.15.321.321,0,0,0-.27.3c0,.33.33.66.81,1.05a4.8,4.8,0,0,0,2.91.99,15.557,15.557,0,0,0,3.18-.45c-1.74,4.56-3.51,8.79-5.61,13.05a2.831,2.831,0,0,0-.39,1.14,1.4,1.4,0,0,0,.3.81,1.071,1.071,0,0,0,.69.33c.48,0,.93-.27,1.23-1.02,2.01-4.83,3.75-9.78,5.55-14.7a49.712,49.712,0,0,0,4.92-1.62c.66-.24.99-.54.96-1.05,0-.57-.6-.87-1.08-.87a3.751,3.751,0,0,0-1.08.33A30.1,30.1,0,0,1,335.07-17.25Zm1.11,13.2a3.566,3.566,0,0,0,1.59,3.12A9.941,9.941,0,0,0,343.62.48c1.02,0,2.43-.09,3.24-.18,1.02-.15,1.59-.42,1.59-.99a1.082,1.082,0,0,0-.63-1.02,3.054,3.054,0,0,0-1.35-.3,3.614,3.614,0,0,0-1.26.24,12,12,0,0,1-3.12.3,6.7,6.7,0,0,1-3.9-1.02,2.574,2.574,0,0,1-.99-2.1,5.406,5.406,0,0,1,.15-1.38,2.7,2.7,0,0,0,.09-.48.232.232,0,0,0-.24-.21c-.18,0-.36.21-.54.54A4.211,4.211,0,0,0,336.18-4.05Zm6.9-8.61c.18,0,.21.09.09.18-1.14.87-2.16,1.8-2.85,2.43a.527.527,0,0,0-.21.33c0,.12.18.33.27.33a.79.79,0,0,0,.45-.18c1.02-.63,2.19-1.44,2.94-1.89a2.439,2.439,0,0,1,1.23-.42,2.92,2.92,0,0,1,.96.21,1.817,1.817,0,0,0,.69.15.751.751,0,0,0,.84-.75c0-.66-.39-.93-1.08-1.23a9.105,9.105,0,0,0-3.51-.6,9.9,9.9,0,0,0-3.66.72,6.918,6.918,0,0,0-2.01,1.23.472.472,0,0,0-.21.39.3.3,0,0,0,.3.24,1.352,1.352,0,0,0,.33-.09,11.5,11.5,0,0,1,3.81-1.02A15.569,15.569,0,0,1,343.08-12.66Zm24.84,2.7c1.65-1.59,3.18-3.09,4.56-4.53,1.89-1.95,3.18-3.21,4.59-4.68a4.617,4.617,0,0,1,1.35-.81c.36-.18.51-.36.51-.66a1.149,1.149,0,0,0-.39-.87,9.916,9.916,0,0,0-1.95-1.44,1.484,1.484,0,0,0-.81-.21,1,1,0,0,0-.75.3,1.884,1.884,0,0,1-.81.51c-.69.21-1.8.57-2.58.81a14.472,14.472,0,0,1-2.49.57c-.54,0-.99-.27-1.74-1.38-.15-.24-.27-.33-.39-.33-.09,0-.24.12-.3.33a2.4,2.4,0,0,0-.09.78,3.906,3.906,0,0,0,1.08,2.13,1.74,1.74,0,0,0,1.29.72,1.645,1.645,0,0,0,.96-.45,7.274,7.274,0,0,1,1.5-.75c1.44-.6,3.3-1.35,3.81-1.5a1.492,1.492,0,0,1,.48-.09.242.242,0,0,1,.27.21.661.661,0,0,1-.18.45c-1.98,2.52-3.33,4.14-5.22,6.24-1.95,2.19-3.81,4.05-5.43,5.73-.48.48-.96.84-1.14,1.02a1.964,1.964,0,0,0-.75,1.47c0,.69.39,1.35.96,1.35a1.159,1.159,0,0,0,.93-.63,14.746,14.746,0,0,1,1.77-2.04c2.64-2.43,5.58-4.47,9-4.47a5.939,5.939,0,0,1,3.66,1.02,3.95,3.95,0,0,1,1.53,3.27c0,2.58-1.68,4.47-3.84,5.64a22.54,22.54,0,0,1-8.37,2.4c-.42.06-.6.21-.6.48,0,.21.12.36.45.39a7.68,7.68,0,0,0,.99.03,23.406,23.406,0,0,0,9.39-2.16c2.67-1.44,4.38-3.42,4.38-6.33a5.513,5.513,0,0,0-2.91-4.8,8.373,8.373,0,0,0-4.23-1.08c-2.25,0-5.1.72-8.43,3.45Zm40.95-10.8c-.87.57-1.77,1.17-2.52,1.68-.21.15-.3.24-.3.36s.12.33.27.33a.9.9,0,0,0,.42-.12c.69-.3,1.8-.84,2.46-1.08a5.963,5.963,0,0,1,2.1-.45c.63,0,1.11.03,1.41.03.51,0,.93-.21.93-.72a1.132,1.132,0,0,0-.72-1.14,4.916,4.916,0,0,0-2.55-.39,5.278,5.278,0,0,1-4.41-1.59.365.365,0,0,0-.3-.15.275.275,0,0,0-.24.3.8.8,0,0,0,.09.3A4.838,4.838,0,0,0,408.87-20.76Zm1.89,4.41c-1.53,0-2.79.57-4.77,1.59a5.836,5.836,0,0,1-1.95.75.657.657,0,0,1-.57-.36,3.772,3.772,0,0,1-.39-.93.232.232,0,0,0-.24-.21.624.624,0,0,0-.36.33,2.567,2.567,0,0,0-.15.9,3.452,3.452,0,0,0,.84,1.89,2.213,2.213,0,0,0,1.38.84c.39,0,.66-.24,1.47-1.11,1.08-1.17,2.88-2.49,4.5-2.49a2.558,2.558,0,0,1,2.28,1.26,6.943,6.943,0,0,1,.81,3.48,10.224,10.224,0,0,1-2.19,6.51A15.031,15.031,0,0,1,405.69.45c-.24.12-.42.24-.42.42,0,.24.12.36.3.36a2.83,2.83,0,0,0,.9-.18,15.06,15.06,0,0,0,6.87-4.35,10,10,0,0,0,2.61-6.63,7.224,7.224,0,0,0-1.2-4.29A4.614,4.614,0,0,0,410.76-16.35Zm34.8-7.29c-4.29,0-6.87,3.42-6.87,5.49,0,.96.42,1.2,1.02,1.2.99,0,2.13-.63,2.13-1.5a4.863,4.863,0,0,1,.48-2.58,3.345,3.345,0,0,1,3.12-1.65c2.64,0,3.84,2.04,3.84,4.53,0,2.58-1.71,4.14-3.09,5.88a8.836,8.836,0,0,0-1.89,6.15q0,.36.27.36c.63,0,.9-.21.9-.54a5.116,5.116,0,0,1,2.04-5.04c1.92-1.62,4.59-3.33,4.59-6.69C452.1-21.21,449.79-23.64,445.56-23.64Zm-.72,20.79a1.853,1.853,0,0,0-1.89,1.92A1.832,1.832,0,0,0,444.84.9,1.844,1.844,0,0,0,446.7-.93,1.864,1.864,0,0,0,444.84-2.85ZM9.51,84.84a10.825,10.825,0,0,1-2.31-.21l.3,1.14a14.543,14.543,0,0,1,2.13-.18h3.84c-.06,3.57-.12,5.52-.12,6.03,0,.6.27.87,1.02.87.96,0,1.5-.33,1.5-1.02s-.03-2.43-.09-5.88h5.94c.3,0,.39-.09.39-.27s-.15-.39-.69-.84c-1.26-1.05-1.47-1.2-1.65-1.2s-.42.15-1.53,1.56H15.75c-.06-3.99-.15-8.01-.21-12a31.047,31.047,0,0,0,4.23,7.89,26.009,26.009,0,0,0,6.06,5.58,3.235,3.235,0,0,0,1.26.57c.21,0,.33-.15.45-.45.45-1.14.84-1.47,1.65-1.68.12-.03.15-.27.03-.3a21.89,21.89,0,0,1-8.16-4.92,22.873,22.873,0,0,1-5.04-7.26H27.69c.3,0,.42-.09.42-.3,0-.18-.15-.36-.81-.9-1.44-1.17-1.68-1.32-1.86-1.32s-.42.15-1.68,1.77H15.69V66.57c.81-.39.99-.6.99-.84,0-.39-.57-.6-3.36-.87a46.953,46.953,0,0,1,.18,5.55v1.11H4.59a14.144,14.144,0,0,1-2.64-.21l.3,1.14a17.366,17.366,0,0,1,2.37-.18H12.3A33.834,33.834,0,0,1,.87,86.76c-.18.12.12.48.3.39A30.155,30.155,0,0,0,13.65,74.73c-.03,3.36-.09,6.75-.15,10.11Zm42-7.5V66.93c.81-.33,1.05-.54,1.05-.78,0-.33-.36-.57-3.42-.87a30.352,30.352,0,0,1,.15,3.6v8.46H42.3a13.771,13.771,0,0,1-2.64-.21l.33,1.2a10.6,10.6,0,0,1,2.37-.24H58.83v5.16H42.93a12.483,12.483,0,0,1-2.49-.21l.36,1.17A10.543,10.543,0,0,1,42.96,84H58.83v5.73H41.73a14.68,14.68,0,0,1-2.49-.21l.3,1.17a10.921,10.921,0,0,1,2.22-.21H58.83v.87c0,.57.3.81.93.81.96,0,1.41-.33,1.41-.99,0-.87-.15-3.63-.15-9.24V78.72c.78-.51.84-.63.84-.81s-.09-.39-.57-.75c-.99-.84-1.2-.96-1.38-.96s-.36.12-1.32,1.14Zm-7.2-2.16c.75,0,1.26-.69,1.26-1.68,0-1.74-1.95-4.26-4.98-5.97-.09-.06-.27.15-.21.24a15.083,15.083,0,0,1,2.76,5.91C43.35,74.85,43.62,75.18,44.31,75.18ZM54.9,76.29a29.333,29.333,0,0,0,5.73-6.81c1.05-.15,1.14-.27,1.14-.6,0-.36-.66-.75-3.06-1.74a13.538,13.538,0,0,1-.75,2.49,33.274,33.274,0,0,1-3.39,6.39C54.48,76.17,54.75,76.41,54.9,76.29Zm35.16-3.54a24.56,24.56,0,0,0-2.28,2.52.553.553,0,0,0-.18.39.352.352,0,0,0,.3.27.458.458,0,0,0,.36-.18,11.921,11.921,0,0,1,3.18-2.4,5.125,5.125,0,0,1,1.92-.33c.48,0,1.29.09,1.71.09.78,0,1.2-.15,1.2-.9,0-.66-.42-1.32-2.49-1.32a17.2,17.2,0,0,0-4.53.57,15.925,15.925,0,0,0-4.05,1.8c-.24.15-.36.27-.36.48a.339.339,0,0,0,.36.33,1.286,1.286,0,0,0,.45-.15,20.487,20.487,0,0,1,4.2-1.32C90.12,72.54,90.15,72.66,90.06,72.75Zm-5.73,9.87a4.58,4.58,0,0,0,1.5,3.51c1.8,1.62,4.74,1.8,7.23,1.8a16.719,16.719,0,0,0,4.17-.39.9.9,0,0,0,.75-.9,1.178,1.178,0,0,0-.81-1.02,4.392,4.392,0,0,0-1.23-.24,4.748,4.748,0,0,0-1.14.15,8.69,8.69,0,0,1-1.11.24,14.082,14.082,0,0,1-2.13.12c-1.74,0-3.9-.18-5.13-1.23a3.393,3.393,0,0,1-1.11-2.82,10.053,10.053,0,0,1,.3-1.98c0-.18-.15-.27-.33-.27-.15,0-.24.09-.36.3A6.721,6.721,0,0,0,84.33,82.62Zm-3.21-3.6c-.72,1.86-1.44,3.81-2.13,5.58-.06.15-.15.21-.21.21-.09,0-.18-.06-.21-.21a10.056,10.056,0,0,1-.21-2.43,24.6,24.6,0,0,1,1.5-7.74,4.673,4.673,0,0,1,.69-1.32,1.324,1.324,0,0,0,.42-.99,3.842,3.842,0,0,0-.81-2.07,3.394,3.394,0,0,0-2.19-1.59.242.242,0,0,0-.27.21.405.405,0,0,0,.15.3,3.055,3.055,0,0,1,.9,2.13,12.772,12.772,0,0,1-.45,2.46,39.817,39.817,0,0,0-1.35,8.82,16.4,16.4,0,0,0,.99,5.67c.45,1.08.84,1.41,1.38,1.41.39,0,.72-.24.72-.84,0-.42-.09-1.41-.09-1.95a9.077,9.077,0,0,1,.3-1.92c.27-1.17.84-3.06,1.56-5.46a1.32,1.32,0,0,0,.06-.3.383.383,0,0,0-.36-.33C81.36,78.66,81.21,78.75,81.12,79.02Zm55.44-14.61h-9.54v24.9h1.2V65.55h8.34Zm30.48,8.31a5.141,5.141,0,0,0-3.03.99.479.479,0,0,0-.24.42.3.3,0,0,0,.3.3,1.285,1.285,0,0,0,.39-.15,4.322,4.322,0,0,1,1.8-.48,3.775,3.775,0,0,1,2.82,1.32.547.547,0,0,1,.15.33.385.385,0,0,1-.12.3,17.523,17.523,0,0,1-1.92,1.5c-.18.12-.24.21-.24.33a.258.258,0,0,0,.24.24,1.321,1.321,0,0,0,.3-.06c.48-.15.9-.33,1.5-.54a3.634,3.634,0,0,1,.87-.21,1.075,1.075,0,0,1,.69.24.917.917,0,0,0,.6.21.866.866,0,0,0,.9-.9,3.186,3.186,0,0,0-1.44-2.49A6.306,6.306,0,0,0,167.04,72.72Zm-12.15,1.17a15.739,15.739,0,0,1-3.51.51,2.742,2.742,0,0,1-2.16-1.17.516.516,0,0,0-.39-.24.3.3,0,0,0-.27.3,2.542,2.542,0,0,0,.45,1.11,3.051,3.051,0,0,0,2.58,1.47,16.949,16.949,0,0,0,3.3-.39c-.03,1.89-.09,3.72-.09,6-1.83,1.11-3.42,2.19-5.49,3.36a2.145,2.145,0,0,1-.96.33.7.7,0,0,1-.45-.21,1.794,1.794,0,0,1-.45-.63.434.434,0,0,0-.3-.21c-.18,0-.27.3-.27.69a2.659,2.659,0,0,0,1.14,2.07,2.129,2.129,0,0,0,1.23.6.69.69,0,0,0,.66-.42,3.394,3.394,0,0,1,.96-.99,35.01,35.01,0,0,1,2.73,2.22,2.207,2.207,0,0,1,.78,1.05c.15.6.39.78.81.78.48,0,.81-.36,1.17-1.44a4.185,4.185,0,0,0,.21-1.32c0-.15-.03-.78-.06-1.14-.06-1.05-.12-2.55-.15-4.05.75-.45,1.56-.9,2.34-1.35a9.441,9.441,0,0,1,4.23-1.38,4.011,4.011,0,0,1,2.73.81,3.1,3.1,0,0,1,1.14,2.4,3.17,3.17,0,0,1-1.02,2.61,4.147,4.147,0,0,1-2.88.99,6.171,6.171,0,0,1-4.23-1.68.458.458,0,0,0-.36-.18.257.257,0,0,0-.24.24.921.921,0,0,0,.12.45,6.313,6.313,0,0,0,5.52,2.67,5.665,5.665,0,0,0,3.63-1.17,4.258,4.258,0,0,0,1.65-3.36,4.335,4.335,0,0,0-1.77-3.45,6.357,6.357,0,0,0-3.99-1.29,13.656,13.656,0,0,0-6.9,2.19c-.03-1.89.03-3.78.09-5.58a25.049,25.049,0,0,0,4.74-1.71.879.879,0,0,0,.57-.81c0-.51-.51-.87-1.17-.87a2.571,2.571,0,0,0-1.74.57,8.656,8.656,0,0,1-2.37,1.14,12.306,12.306,0,0,1,.21-2.28,1.611,1.611,0,0,1,.57-.9.718.718,0,0,0,.3-.63c0-.45-.48-.96-1.23-1.41a3.944,3.944,0,0,0-1.95-.66,2.128,2.128,0,0,0-1.29.39c-.24.18-.3.3-.3.42,0,.09.15.15.39.18a4.405,4.405,0,0,1,.87.15,1.017,1.017,0,0,1,.69.54,5.256,5.256,0,0,1,.18,2.04Zm-.09,12.54c0,.45-.06.57-.3.57a2.887,2.887,0,0,1-.93-.3,13.657,13.657,0,0,1-2.07-1.14c.96-.75,2.16-1.71,3.3-2.55Zm44.91-13.14c-.21,0-.33.12-.33.27,0,.21.09.3.27.42a10.107,10.107,0,0,1,3.3,3.03,8.239,8.239,0,0,1,1.5,3.72c0,.45-.15.6-.6.69-.66.12-1.35.15-2.19.24-.3.03-.54.09-.54.24,0,.21.12.3.48.39.72.18,1.35.33,1.86.48a1.924,1.924,0,0,1,1.17.84.887.887,0,0,0,.81.48,1.132,1.132,0,0,0,.87-.48,2.9,2.9,0,0,0,.45-1.77,8.371,8.371,0,0,0-1.11-3.81,9.879,9.879,0,0,0-3.27-3.51A8.081,8.081,0,0,0,199.71,73.29ZM190.38,88.2c.69,0,1.02-.42.99-.9a2.155,2.155,0,0,0-.3-.87,1.517,1.517,0,0,1-.18-.75,4.475,4.475,0,0,1,.42-1.47c.48-1.23,1.56-3.6,2.49-5.52a.978.978,0,0,0,.12-.39.415.415,0,0,0-.36-.33.8.8,0,0,0-.51.39c-1.26,2.01-2.55,4.2-3.45,5.67-.27.42-.48.57-.72.57-.42,0-1.02-.54-1.56-1.89a12.577,12.577,0,0,1-.72-4.14,15.386,15.386,0,0,1,.45-4.29,2.732,2.732,0,0,0,.27-.93,3.445,3.445,0,0,0-1.41-2.34,3.986,3.986,0,0,0-1.95-.99c-.24,0-.48.03-.48.18,0,.09.03.15.21.3a3.159,3.159,0,0,1,1.2,1.95,32.617,32.617,0,0,1,.09,3.81,27.7,27.7,0,0,0,.36,4.98,9.734,9.734,0,0,0,2.91,5.82A4.029,4.029,0,0,0,190.38,88.2Zm39.33,2.01a14.182,14.182,0,0,0,6.84-1.89,18.017,18.017,0,0,0,5.49-4.92.86.86,0,0,0,.24-.6.326.326,0,0,0-.33-.27c-.12,0-.24.09-.39.24a20.618,20.618,0,0,1-4.71,3.54,16.431,16.431,0,0,1-6.72,1.95,4.194,4.194,0,0,1-2.61-.63c-.51-.48-.75-1.35-.75-2.85,0-1.56.12-4.5.3-7.29.15-2.4.33-4.23.51-5.67a1.433,1.433,0,0,1,.42-.96,1.2,1.2,0,0,0,.42-.84,2.423,2.423,0,0,0-1.08-1.62,4.887,4.887,0,0,0-2.43-1.14,3.019,3.019,0,0,0-1.08.18c-.24.09-.36.24-.36.39s.12.18.36.27a4.9,4.9,0,0,1,1.05.48c.45.3.6.75.57,1.86-.06,2.4-.12,4.74-.21,7.11-.12,2.91-.24,5.76-.24,7.65C225,88.8,226.83,90.21,229.71,90.21Zm42-16.92c-.21,0-.33.12-.33.27,0,.21.09.3.27.42a10.108,10.108,0,0,1,3.3,3.03,8.239,8.239,0,0,1,1.5,3.72c0,.45-.15.6-.6.69-.66.12-1.35.15-2.19.24-.3.03-.54.09-.54.24,0,.21.12.3.48.39.72.18,1.35.33,1.86.48a1.923,1.923,0,0,1,1.17.84.887.887,0,0,0,.81.48,1.132,1.132,0,0,0,.87-.48,2.9,2.9,0,0,0,.45-1.77,8.371,8.371,0,0,0-1.11-3.81,9.879,9.879,0,0,0-3.27-3.51A8.081,8.081,0,0,0,271.71,73.29ZM262.38,88.2c.69,0,1.02-.42.99-.9a2.155,2.155,0,0,0-.3-.87,1.517,1.517,0,0,1-.18-.75,4.475,4.475,0,0,1,.42-1.47c.48-1.23,1.56-3.6,2.49-5.52a.978.978,0,0,0,.12-.39.415.415,0,0,0-.36-.33.8.8,0,0,0-.51.39c-1.26,2.01-2.55,4.2-3.45,5.67-.27.42-.48.57-.72.57-.42,0-1.02-.54-1.56-1.89a12.577,12.577,0,0,1-.72-4.14,15.386,15.386,0,0,1,.45-4.29,2.732,2.732,0,0,0,.27-.93,3.445,3.445,0,0,0-1.41-2.34,3.986,3.986,0,0,0-1.95-.99c-.24,0-.48.03-.48.18,0,.09.03.15.21.3a3.159,3.159,0,0,1,1.2,1.95,32.617,32.617,0,0,1,.09,3.81,27.7,27.7,0,0,0,.36,4.98,9.734,9.734,0,0,0,2.91,5.82A4.029,4.029,0,0,0,262.38,88.2Zm27.06,4.59h9.54V67.89h-1.2V91.65h-8.34Zm52.32-16.62a11.981,11.981,0,0,0-4.86,1.23c-1.59.69-3.21,1.56-4.86,2.37a2.273,2.273,0,0,1-.99.24c-.39,0-.75-.33-1.29-.81-.18-.18-.3-.3-.42-.3-.15,0-.27.18-.27.6a2.61,2.61,0,0,0,.75,1.59,3.259,3.259,0,0,0,2.07,1.32,1.03,1.03,0,0,0,.84-.45,6.561,6.561,0,0,1,1.29-1.2,39.458,39.458,0,0,1,3.69-2.37,8.741,8.741,0,0,1,3.99-1.11c2.55,0,4.29,1.47,4.29,4.02,0,2.04-1.23,3.57-3.24,4.77a20.9,20.9,0,0,1-6.87,2.34.529.529,0,0,0-.48.51c0,.18.18.36.51.36a7.045,7.045,0,0,0,.78-.03,21.306,21.306,0,0,0,7.98-2.28c1.95-1.14,3.54-2.73,3.54-5.31C348.21,78.21,345.36,76.17,341.76,76.17Zm33.84-4.14a12.845,12.845,0,0,0-4.17,4.29,9.576,9.576,0,0,0-1.35,5.13,7.237,7.237,0,0,0,3.21,5.94,13.355,13.355,0,0,0,7.02,2.22c1.26,0,1.59-.36,1.59-.87a1.365,1.365,0,0,0-.81-1.29,4,4,0,0,0-2.07-.51,10.214,10.214,0,0,1-5.49-1.83,5.656,5.656,0,0,1-2.07-4.5,8.647,8.647,0,0,1,2.37-5.82A9.648,9.648,0,0,1,378.15,72a19.273,19.273,0,0,1,5.28-.66c.75-.03,1.08-.3,1.05-.93,0-.45-.39-.75-.81-.93a4.837,4.837,0,0,0-1.95-.51,2.048,2.048,0,0,0-1.02.3,3.593,3.593,0,0,1-1.17.45c-4.41,1.14-8.91,2.31-13.26,3.42a10.672,10.672,0,0,1-1.8.33,2.658,2.658,0,0,1-2.25-1.05.613.613,0,0,0-.39-.24c-.15,0-.27.33-.27.75a3.211,3.211,0,0,0,.9,1.68c.78.9,1.5,1.29,2.01,1.26a1.11,1.11,0,0,0,.81-.3,4.156,4.156,0,0,1,1.29-.69c2.31-.81,5.7-1.95,9-2.97ZM12.57,168.57a17.161,17.161,0,0,0-4.35,3.27,5.243,5.243,0,0,0-1.47,3.51,3.972,3.972,0,0,0,2.43,3.69,14.709,14.709,0,0,0,6.24,1.11,43.118,43.118,0,0,0,5.61-.3c1.29-.21,1.65-.48,1.65-1.08,0-.48-.33-.84-.99-1.14a3.318,3.318,0,0,0-1.29-.27,8.352,8.352,0,0,0-1.5.33,24.083,24.083,0,0,1-4.5.45c-2.22,0-3.75-.15-4.8-.72a2.555,2.555,0,0,1-1.5-2.25,4.357,4.357,0,0,1,2.04-3.51,18.582,18.582,0,0,1,4.47-2.46c1.65-.63,3.27-1.17,4.8-1.62.63-.18,1.2-.33,1.68-.45s.93-.36.93-.9A2.548,2.548,0,0,0,21,164.61a4,4,0,0,0-2.19-1.23c-.33,0-.63.24-.63.36,0,.09.09.12.27.24.51.33.96.81.96,1.14,0,.21-.12.3-.39.45-1.29.69-2.88,1.41-4.17,1.98a3.261,3.261,0,0,1-.99.21c-.48,0-.69-.51-.75-1.29a40.1,40.1,0,0,1,.09-5.76,1.579,1.579,0,0,1,.21-.72,1.155,1.155,0,0,0,.33-.72,1.4,1.4,0,0,0-.57-1.08,4.463,4.463,0,0,0-2.61-1.14,1.83,1.83,0,0,0-1.11.42.777.777,0,0,0-.36.51c0,.12.06.15.21.18.27.03.39.03.72.09a1.687,1.687,0,0,1,.84.39c.21.24.24.45.27,1.11.12,2.52.15,4.74.3,6.3A3,3,0,0,0,12.57,168.57Zm8.88-9.81a.309.309,0,0,0-.33.3.465.465,0,0,0,.21.3,10.381,10.381,0,0,1,2.52,2.88q.405.81.99.81a.835.835,0,0,0,.84-.9c0-.63-.42-1.17-1.14-1.8a6.753,6.753,0,0,0-2.61-1.5A1.706,1.706,0,0,0,21.45,158.76Zm2.43-2.04a.3.3,0,0,0-.3.3.361.361,0,0,0,.21.3,9.148,9.148,0,0,1,2.76,2.82c.33.57.57.72.96.72a.852.852,0,0,0,.81-.96c0-.69-.66-1.38-1.38-1.89a7.085,7.085,0,0,0-2.4-1.17A3.918,3.918,0,0,0,23.88,156.72Zm18.78,14.73c2.46-4.14,4.14-7.08,5.58-9.48a3.017,3.017,0,0,1,1.2-1.35.927.927,0,0,0,.57-.9c0-.42-.24-.87-1.08-1.62a4,4,0,0,0-2.4-1.23c-.54,0-.96.18-.96.36,0,.15.12.21.36.36.9.54,1.2.96,1.2,1.47a4.063,4.063,0,0,1-.39,1.38c-.48,1.17-1.62,3.42-3.03,6.12-1.74,3.3-3.87,7.17-5.73,10.8a1.925,1.925,0,0,0-.3,1.02c0,.81.45,1.14.96,1.14a1.4,1.4,0,0,0,1.35-1.08,29.913,29.913,0,0,1,2.91-5.85,4.212,4.212,0,0,1,3.36-2.04,1.6,1.6,0,0,1,1.59.93,7.629,7.629,0,0,1,.57,3.21c.09,2.07.39,3.21.99,4.02a3.482,3.482,0,0,0,3.03,1.38,7.6,7.6,0,0,0,6-3.18,16.429,16.429,0,0,0,3.09-7.35c.03-.21.06-.39.06-.48a.349.349,0,0,0-.33-.39c-.24,0-.33.15-.42.42a18.354,18.354,0,0,1-3.21,6.03,7.338,7.338,0,0,1-5.07,2.85,1.818,1.818,0,0,1-1.74-.87,7.408,7.408,0,0,1-.63-2.94,6.382,6.382,0,0,0-1.08-3.39,3.226,3.226,0,0,0-2.67-1.2,5.109,5.109,0,0,0-3.72,1.89Zm38.16-7.41a80.668,80.668,0,0,1-5.52,10.44,1.667,1.667,0,0,0-.39.99,1.019,1.019,0,0,0,1.08,1.08,1.2,1.2,0,0,0,1.08-.81c1.98-4.02,3.78-7.8,5.52-12.03,1.83-.42,3.66-.93,4.71-1.29.81-.27,1.11-.51,1.11-1.02s-.42-.9-1.2-.9a4.08,4.08,0,0,0-1.44.45,19.024,19.024,0,0,1-2.43.93c.24-.6.51-1.23.72-1.68a3.326,3.326,0,0,1,.81-1.32.914.914,0,0,0,.48-.78c0-.45-.27-.66-.72-.96a6.409,6.409,0,0,0-2.55-.84,1.8,1.8,0,0,0-1.11.27c-.12.09-.24.21-.24.33,0,.09.06.12.18.15a6.35,6.35,0,0,1,1.23.39.788.788,0,0,1,.57.72,4.239,4.239,0,0,1-.18,1.05,26.978,26.978,0,0,1-1.02,3.15,19.1,19.1,0,0,1-3.93.51,3.846,3.846,0,0,1-2.52-.81.458.458,0,0,0-.36-.18.286.286,0,0,0-.24.24.593.593,0,0,0,.06.3,3.29,3.29,0,0,0,1.5,1.44,4.468,4.468,0,0,0,2.1.42A25.8,25.8,0,0,0,80.82,164.04Zm10.92,2.13c-2.13.48-3.57,1.41-3.57,4.2,0,1.47.27,3.09.39,4.65a13.289,13.289,0,0,0-2.34-.18c-2.58,0-4.56,1.14-4.56,3.09,0,1.89,1.74,3.15,4.2,3.15a4.858,4.858,0,0,0,3.51-1.05,3.477,3.477,0,0,0,1.14-2.88,16.052,16.052,0,0,1,3.9,2.46,1.739,1.739,0,0,0,1.11.51.953.953,0,0,0,.99-1.02,1.447,1.447,0,0,0-.6-1.17,19.893,19.893,0,0,0-5.46-2.55,34.311,34.311,0,0,1-1.02-5.61c0-2.37,1.47-2.79,2.91-2.79a4.084,4.084,0,0,1,2.49,1.29,1.447,1.447,0,0,0,.9.39.909.909,0,0,0,.9-.93,2.451,2.451,0,0,0-1.35-1.77,10.1,10.1,0,0,0-5.16-1.44,7.985,7.985,0,0,0-2.79.51c-.18.06-.3.18-.3.3a.305.305,0,0,0,.27.33,2.152,2.152,0,0,0,.39-.03,9.83,9.83,0,0,1,1.41-.09,5.933,5.933,0,0,1,2.64.51Zm-3.03,10.41a2.591,2.591,0,0,1,.03.45,2.342,2.342,0,0,1-.81,1.83,3.357,3.357,0,0,1-2.37.75c-2.07,0-2.91-.75-2.91-1.65,0-1.23,1.47-1.89,3.15-1.89A9.257,9.257,0,0,1,88.71,176.58Zm38.67-18.51a.309.309,0,0,0-.33.3.465.465,0,0,0,.21.3,10.381,10.381,0,0,1,2.52,2.88q.405.81.99.81a.835.835,0,0,0,.84-.9c0-.63-.42-1.17-1.14-1.8a6.753,6.753,0,0,0-2.61-1.5A1.707,1.707,0,0,0,127.38,158.07Zm2.43-2.04a.3.3,0,0,0-.3.3.361.361,0,0,0,.21.3,9.148,9.148,0,0,1,2.76,2.82c.33.57.57.72.96.72a.852.852,0,0,0,.81-.96c0-.69-.66-1.38-1.38-1.89a7.085,7.085,0,0,0-2.4-1.17A3.918,3.918,0,0,0,129.81,156.03Zm-10.74,6.72a16.228,16.228,0,0,1,.69-1.8,2.667,2.667,0,0,1,.87-1.32.9.9,0,0,0,.39-.75c0-.27-.06-.54-.57-.93a5.694,5.694,0,0,0-2.7-1.14,2.229,2.229,0,0,0-1.14.33c-.12.06-.27.15-.27.3,0,.12.06.21.27.27a5.073,5.073,0,0,1,1.2.39.848.848,0,0,1,.54.81,5.361,5.361,0,0,1-.24,1.47c-.21.81-.48,1.68-.84,2.85a20.848,20.848,0,0,1-4.26.81,4.281,4.281,0,0,1-2.55-.72.791.791,0,0,0-.45-.15.321.321,0,0,0-.27.3c0,.33.33.66.81,1.05a4.8,4.8,0,0,0,2.91.99,15.557,15.557,0,0,0,3.18-.45c-1.74,4.56-3.51,8.79-5.61,13.05a2.831,2.831,0,0,0-.39,1.14,1.4,1.4,0,0,0,.3.81,1.07,1.07,0,0,0,.69.33c.48,0,.93-.27,1.23-1.02,2.01-4.83,3.75-9.78,5.55-14.7a49.717,49.717,0,0,0,4.92-1.62c.66-.24.99-.54.96-1.05,0-.57-.6-.87-1.08-.87a3.75,3.75,0,0,0-1.08.33A30.1,30.1,0,0,1,119.07,162.75Zm1.11,13.2a3.566,3.566,0,0,0,1.59,3.12,9.941,9.941,0,0,0,5.85,1.41c1.02,0,2.43-.09,3.24-.18,1.02-.15,1.59-.42,1.59-.99a1.082,1.082,0,0,0-.63-1.02,3.054,3.054,0,0,0-1.35-.3,3.614,3.614,0,0,0-1.26.24,12,12,0,0,1-3.12.3,6.7,6.7,0,0,1-3.9-1.02,2.574,2.574,0,0,1-.99-2.1,5.406,5.406,0,0,1,.15-1.38,2.7,2.7,0,0,0,.09-.48.232.232,0,0,0-.24-.21c-.18,0-.36.21-.54.54A4.211,4.211,0,0,0,120.18,175.95Zm6.9-8.61c.18,0,.21.09.09.18-1.14.87-2.16,1.8-2.85,2.43a.526.526,0,0,0-.21.33c0,.12.18.33.27.33a.79.79,0,0,0,.45-.18c1.02-.63,2.19-1.44,2.94-1.89a2.439,2.439,0,0,1,1.23-.42,2.921,2.921,0,0,1,.96.21,1.817,1.817,0,0,0,.69.15.751.751,0,0,0,.84-.75c0-.66-.39-.93-1.08-1.23a9.105,9.105,0,0,0-3.51-.6,9.9,9.9,0,0,0-3.66.72,6.919,6.919,0,0,0-2.01,1.23.472.472,0,0,0-.21.39.3.3,0,0,0,.3.24,1.353,1.353,0,0,0,.33-.09,11.5,11.5,0,0,1,3.81-1.02A15.57,15.57,0,0,1,127.08,167.34Zm24.84,2.7c1.65-1.59,3.18-3.09,4.56-4.53,1.89-1.95,3.18-3.21,4.59-4.68a4.617,4.617,0,0,1,1.35-.81c.36-.18.51-.36.51-.66a1.149,1.149,0,0,0-.39-.87,9.915,9.915,0,0,0-1.95-1.44,1.484,1.484,0,0,0-.81-.21,1,1,0,0,0-.75.3,1.884,1.884,0,0,1-.81.51c-.69.21-1.8.57-2.58.81a14.473,14.473,0,0,1-2.49.57c-.54,0-.99-.27-1.74-1.38-.15-.24-.27-.33-.39-.33-.09,0-.24.12-.3.33a2.4,2.4,0,0,0-.09.78,3.906,3.906,0,0,0,1.08,2.13,1.74,1.74,0,0,0,1.29.72,1.645,1.645,0,0,0,.96-.45,7.272,7.272,0,0,1,1.5-.75c1.44-.6,3.3-1.35,3.81-1.5a1.492,1.492,0,0,1,.48-.09.242.242,0,0,1,.27.21.661.661,0,0,1-.18.45c-1.98,2.52-3.33,4.14-5.22,6.24-1.95,2.19-3.81,4.05-5.43,5.73-.48.48-.96.84-1.14,1.02a1.964,1.964,0,0,0-.75,1.47c0,.69.39,1.35.96,1.35a1.159,1.159,0,0,0,.93-.63,14.745,14.745,0,0,1,1.77-2.04c2.64-2.43,5.58-4.47,9-4.47a5.939,5.939,0,0,1,3.66,1.02,3.95,3.95,0,0,1,1.53,3.27c0,2.58-1.68,4.47-3.84,5.64a22.54,22.54,0,0,1-8.37,2.4c-.42.06-.6.21-.6.48,0,.21.12.36.45.39a7.68,7.68,0,0,0,.99.03,23.406,23.406,0,0,0,9.39-2.16c2.67-1.44,4.38-3.42,4.38-6.33a5.513,5.513,0,0,0-2.91-4.8,8.373,8.373,0,0,0-4.23-1.08c-2.25,0-5.1.72-8.43,3.45Zm40.95-10.8c-.87.57-1.77,1.17-2.52,1.68-.21.15-.3.24-.3.36s.12.33.27.33a.9.9,0,0,0,.42-.12c.69-.3,1.8-.84,2.46-1.08a5.963,5.963,0,0,1,2.1-.45c.63,0,1.11.03,1.41.03.51,0,.93-.21.93-.72a1.132,1.132,0,0,0-.72-1.14,4.916,4.916,0,0,0-2.55-.39,5.278,5.278,0,0,1-4.41-1.59.365.365,0,0,0-.3-.15.275.275,0,0,0-.24.3.8.8,0,0,0,.09.3A4.838,4.838,0,0,0,192.87,159.24Zm1.89,4.41c-1.53,0-2.79.57-4.77,1.59a5.837,5.837,0,0,1-1.95.75.657.657,0,0,1-.57-.36,3.771,3.771,0,0,1-.39-.93.232.232,0,0,0-.24-.21.624.624,0,0,0-.36.33,2.567,2.567,0,0,0-.15.9,3.452,3.452,0,0,0,.84,1.89,2.213,2.213,0,0,0,1.38.84c.39,0,.66-.24,1.47-1.11,1.08-1.17,2.88-2.49,4.5-2.49a2.558,2.558,0,0,1,2.28,1.26,6.944,6.944,0,0,1,.81,3.48,10.224,10.224,0,0,1-2.19,6.51,15.031,15.031,0,0,1-5.73,4.35c-.24.12-.42.24-.42.42,0,.24.12.36.3.36a2.83,2.83,0,0,0,.9-.18,15.06,15.06,0,0,0,6.87-4.35,10,10,0,0,0,2.61-6.63,7.224,7.224,0,0,0-1.2-4.29A4.614,4.614,0,0,0,194.76,163.65Zm34.8-7.29c-4.29,0-6.87,3.42-6.87,5.49,0,.96.42,1.2,1.02,1.2.99,0,2.13-.63,2.13-1.5a4.863,4.863,0,0,1,.48-2.58,3.345,3.345,0,0,1,3.12-1.65c2.64,0,3.84,2.04,3.84,4.53,0,2.58-1.71,4.14-3.09,5.88a8.836,8.836,0,0,0-1.89,6.15q0,.36.27.36c.63,0,.9-.21.9-.54a5.116,5.116,0,0,1,2.04-5.04c1.92-1.62,4.59-3.33,4.59-6.69C236.1,158.79,233.79,156.36,229.56,156.36Zm-.72,20.79a1.853,1.853,0,0,0-1.89,1.92,1.876,1.876,0,0,0,3.75,0A1.864,1.864,0,0,0,228.84,177.15Z" transform="translate(-0.814 25.59)"/>
</svg>
