<svg xmlns="http://www.w3.org/2000/svg" width="10.332" height="36.066" viewBox="0 0 10.332 36.066">
  <path id="パス_2933" data-name="パス 2933" d="M2.156-7.182a1.659,1.659,0,0,0,.28.966,2.891,2.891,0,0,0,.728.721q.448.315.952.623t1,.658a3.24,3.24,0,0,1,.8.819A2,2,0,0,1,6.23-2.254a2.2,2.2,0,0,1-.357,1.232,2.49,2.49,0,0,1-1.008.868A3.489,3.489,0,0,1,3.3.168,4.384,4.384,0,0,1,2.569.1,4.744,4.744,0,0,1,1.862-.07a3.1,3.1,0,0,1-.616-.28.362.362,0,0,1-.091-.1A.322.322,0,0,1,1.12-.616l-.14-2q-.014-.07.063-.077t.091.049a6.065,6.065,0,0,0,.336.882,4.146,4.146,0,0,0,.5.819,2.462,2.462,0,0,0,.707.609A1.886,1.886,0,0,0,3.64-.1a2,2,0,0,0,.735-.14,1.238,1.238,0,0,0,.581-.469,1.615,1.615,0,0,0,.224-.917,2.071,2.071,0,0,0-.294-1.134,2.922,2.922,0,0,0-.756-.8q-.462-.336-.98-.644-.49-.308-.945-.644a2.894,2.894,0,0,1-.735-.777,1.958,1.958,0,0,1-.28-1.071,1.909,1.909,0,0,1,.4-1.246,2.39,2.39,0,0,1,1.022-.728A3.561,3.561,0,0,1,3.892-8.9a4.779,4.779,0,0,1,.882.084,3.949,3.949,0,0,1,.812.238.388.388,0,0,1,.168.119A.236.236,0,0,1,5.8-8.33l.07,1.75q0,.042-.07.056a.08.08,0,0,1-.1-.042,3.251,3.251,0,0,0-.182-.6,3.417,3.417,0,0,0-.378-.7,2.049,2.049,0,0,0-.609-.574,1.676,1.676,0,0,0-.9-.231,1.5,1.5,0,0,0-.812.2,1.342,1.342,0,0,0-.49.532A1.624,1.624,0,0,0,2.156-7.182Zm9.2,7.35A2.752,2.752,0,0,1,9.779-.245a2.489,2.489,0,0,1-.9-1.05A3.124,3.124,0,0,1,8.6-2.59a2.692,2.692,0,0,1,.28-1.246,2.916,2.916,0,0,1,.735-.924,3.262,3.262,0,0,1,1.015-.574,3.333,3.333,0,0,1,1.106-.2,2.769,2.769,0,0,1,.777.112,1.809,1.809,0,0,1,.637.315.6.6,0,0,1,.252.483.518.518,0,0,1-.147.357.549.549,0,0,1-.427.161.617.617,0,0,1-.434-.154,1.08,1.08,0,0,1-.266-.392,1.278,1.278,0,0,0-.308-.441.852.852,0,0,0-.574-.161,1.314,1.314,0,0,0-1.155.616,2.841,2.841,0,0,0-.413,1.61,3.564,3.564,0,0,0,.238,1.309,2.124,2.124,0,0,0,.742.973,2.2,2.2,0,0,0,1.316.364,2.5,2.5,0,0,0,.735-.1,2.387,2.387,0,0,0,.665-.329q.042-.028.091.028t.007.084a3.545,3.545,0,0,1-.98.651A2.841,2.841,0,0,1,11.354.168Zm5.768-3.962-.084-.154a12.075,12.075,0,0,1,.882-.98,2.876,2.876,0,0,1,.6-.469A1.024,1.024,0,0,1,19-5.53a1.109,1.109,0,0,1,.588.182.534.534,0,0,1,.294.462.5.5,0,0,1-.14.357.5.5,0,0,1-.378.147.5.5,0,0,1-.357-.126q-.133-.126-.266-.245a.516.516,0,0,0-.357-.119.574.574,0,0,0-.252.07,1.64,1.64,0,0,0-.371.3Q17.528-4.27,17.122-3.794ZM15.638,0Q15.6,0,15.6-.084t.042-.084A.869.869,0,0,0,16.3-.357a1.285,1.285,0,0,0,.161-.777v-2.73a1.549,1.549,0,0,0-.1-.658A.367.367,0,0,0,16-4.732a1.257,1.257,0,0,0-.322.049,3.55,3.55,0,0,0-.42.147q-.056.028-.084-.049t.014-.105l1.722-.826A.383.383,0,0,1,17-5.53q.126,0,.28.308a2.02,2.02,0,0,1,.154.882v3.206a1.379,1.379,0,0,0,.1.6.574.574,0,0,0,.392.287,3.416,3.416,0,0,0,.833.077q.042,0,.042.084T18.76,0q-.364,0-.826-.014t-.98-.014q-.378,0-.721.014T15.638,0Zm8.778.182a2.645,2.645,0,0,1-1.477-.406,2.7,2.7,0,0,1-.959-1.085,3.254,3.254,0,0,1-.336-1.463,2.727,2.727,0,0,1,.273-1.26,2.549,2.549,0,0,1,.721-.875,3.172,3.172,0,0,1,.98-.511,3.473,3.473,0,0,1,1.05-.168,2.571,2.571,0,0,1,1.484.42A2.8,2.8,0,0,1,27.1-4.088,3.059,3.059,0,0,1,27.426-2.7a2.765,2.765,0,0,1-.42,1.533,2.833,2.833,0,0,1-1.1,1A3.206,3.206,0,0,1,24.416.182Zm.406-.266a1.242,1.242,0,0,0,1.071-.539,2.843,2.843,0,0,0,.385-1.645A4.23,4.23,0,0,0,26-3.885a2.534,2.534,0,0,0-.749-1.05,1.66,1.66,0,0,0-1.057-.371,1.217,1.217,0,0,0-1.057.525,2.675,2.675,0,0,0-.371,1.547,4.6,4.6,0,0,0,.266,1.6A2.773,2.773,0,0,0,23.758-.5,1.549,1.549,0,0,0,24.822-.084ZM29.554,0q-.028,0-.028-.084t.028-.084a.893.893,0,0,0,.679-.189,1.285,1.285,0,0,0,.161-.777l.014-7.2a2.043,2.043,0,0,0-.091-.714.339.339,0,0,0-.343-.224,1.59,1.59,0,0,0-.6.182q-.056.028-.091-.056t.007-.1l1.876-.9a.124.124,0,0,1,.056-.014.2.2,0,0,1,.1.042.119.119,0,0,1,.063.1v8.876a1.336,1.336,0,0,0,.154.77.847.847,0,0,0,.672.2q.056,0,.056.084T32.214,0q-.252,0-.6-.014t-.735-.014q-.378,0-.721.014T29.554,0Zm4.774,0Q34.3,0,34.3-.084t.028-.084a.893.893,0,0,0,.679-.189,1.285,1.285,0,0,0,.161-.777l.014-7.2a2.043,2.043,0,0,0-.091-.714.339.339,0,0,0-.343-.224,1.59,1.59,0,0,0-.6.182q-.056.028-.091-.056t.007-.1l1.876-.9a.124.124,0,0,1,.056-.014.2.2,0,0,1,.1.042.119.119,0,0,1,.063.1v8.876a1.336,1.336,0,0,0,.154.77.847.847,0,0,0,.672.2q.056,0,.056.084T36.988,0q-.252,0-.6-.014t-.735-.014q-.378,0-.721.014T34.328,0Z" transform="translate(0.182 -0.978) rotate(90)"/>
</svg>
